<?xml version="1.0" encoding="UTF-8"?>
<svg xmlns="http://www.w3.org/2000/svg" xmlns:xlink="http://www.w3.org/1999/xlink" width="px" height="px" viewBox="0 0 345 230" version="1.1">
<g id="surface1">
<rect x="0" y="0" width="345" height="230" style="fill:rgb(100%,100%,100%);fill-opacity:1;stroke:none;"/>
<path style=" stroke:none;fill-rule:nonzero;fill:rgb(0%,0%,0%);fill-opacity:1;" d="M 0 0 L 345 0 L 345 115 L 0 115 Z M 0 0 "/>
<path style=" stroke:none;fill-rule:nonzero;fill:rgb(98.823529%,81.960784%,8.627451%);fill-opacity:1;" d="M 97.5 90 L 172.5 75.644531 L 172.5 104.355469 Z M 97.5 90 "/>
<path style=" stroke:none;fill-rule:nonzero;fill:rgb(98.823529%,81.960784%,8.627451%);fill-opacity:1;" d="M 103.210938 61.296875 L 177.992188 76.738281 L 167.007812 103.261719 Z M 103.210938 61.296875 "/>
<path style=" stroke:none;fill-rule:nonzero;fill:rgb(98.823529%,81.960784%,8.627451%);fill-opacity:1;" d="M 119.46875 36.96875 L 182.652344 79.847656 L 162.347656 100.152344 Z M 119.46875 36.96875 "/>
<path style=" stroke:none;fill-rule:nonzero;fill:rgb(98.823529%,81.960784%,8.627451%);fill-opacity:1;" d="M 143.796875 20.710938 L 185.761719 84.507812 L 159.238281 95.492188 Z M 143.796875 20.710938 "/>
<path style=" stroke:none;fill-rule:nonzero;fill:rgb(98.823529%,81.960784%,8.627451%);fill-opacity:1;" d="M 172.5 15 L 186.855469 90 L 158.144531 90 Z M 172.5 15 "/>
<path style=" stroke:none;fill-rule:nonzero;fill:rgb(98.823529%,81.960784%,8.627451%);fill-opacity:1;" d="M 201.203125 20.710938 L 185.761719 95.492188 L 159.238281 84.507812 Z M 201.203125 20.710938 "/>
<path style=" stroke:none;fill-rule:nonzero;fill:rgb(98.823529%,81.960784%,8.627451%);fill-opacity:1;" d="M 225.53125 36.96875 L 182.652344 100.152344 L 162.347656 79.847656 Z M 225.53125 36.96875 "/>
<path style=" stroke:none;fill-rule:nonzero;fill:rgb(98.823529%,81.960784%,8.627451%);fill-opacity:1;" d="M 241.789062 61.296875 L 177.992188 103.261719 L 167.007812 76.738281 Z M 241.789062 61.296875 "/>
<path style=" stroke:none;fill-rule:nonzero;fill:rgb(98.823529%,81.960784%,8.627451%);fill-opacity:1;" d="M 247.5 90 L 172.5 104.355469 L 172.5 75.644531 Z M 247.5 90 "/>
<path style=" stroke:none;fill-rule:nonzero;fill:rgb(0%,44.705882%,77.647059%);fill-opacity:1;" d="M 0 90 L 345 90 L 345 140 L 0 140 Z M 0 90 "/>
<path style=" stroke:none;fill-rule:nonzero;fill:rgb(80.784314%,6.666667%,14.901961%);fill-opacity:1;" d="M 0 0 L 0 230 L 345 230 L 345 0 L 172.5 230 Z M 0 0 "/>
</g>
</svg>
