<?xml version="1.0" encoding="UTF-8"?>
<svg xmlns="http://www.w3.org/2000/svg" xmlns:xlink="http://www.w3.org/1999/xlink" width="px" height="px" viewBox="0 0 600 300" version="1.1">
<defs>
<clipPath id="clip1">
  <path d="M 0 0 L 300 0 L 300 150 L 0 150 Z M 0 0 "/>
</clipPath>
<clipPath id="clip2">
  <path d="M 0 0 L 0 75 L 350 75 L 350 150 L 300 150 Z M 300 0 L 150 0 L 150 175 L 0 175 L 0 150 Z M 300 0 "/>
</clipPath>
<clipPath id="clip3">
  <path d="M 0 0 L 350 0 L 350 175 L 0 175 Z M 0 0 "/>
</clipPath>
<clipPath id="clip4">
  <path d="M 0 0 L 0 75 L 350 75 L 350 150 L 300 150 Z M 300 0 L 150 0 L 150 175 L 0 175 L 0 150 Z M 300 0 "/>
</clipPath>
</defs>
<g id="surface1">
<rect x="0" y="0" width="600" height="300" style="fill:rgb(0.392157%,12.941176%,41.176471%);fill-opacity:1;stroke:none;"/>
<path style="fill-rule:nonzero;fill:rgb(0%,0%,0%);fill-opacity:1;stroke-width:60;stroke-linecap:butt;stroke-linejoin:miter;stroke:rgb(100%,100%,100%);stroke-opacity:1;stroke-miterlimit:4;" d="M 0 0 L 600 300 M 600 0 L 0 300 " transform="matrix(0.5,0,0,0.5,0,0)"/>
<g clip-path="url(#clip1)" clip-rule="nonzero">
<g clip-path="url(#clip2)" clip-rule="nonzero">
<path style=" stroke:none;fill-rule:nonzero;fill:rgb(0%,0%,0%);fill-opacity:1;" d="M 0 0 L 300 150 M 300 0 L 0 150 "/>
</g>
</g>
<g clip-path="url(#clip3)" clip-rule="nonzero">
<g clip-path="url(#clip4)" clip-rule="nonzero">
<path style="fill:none;stroke-width:40;stroke-linecap:butt;stroke-linejoin:miter;stroke:rgb(78.431373%,6.27451%,18.039216%);stroke-opacity:1;stroke-miterlimit:4;" d="M 0 0 L 600 300 M 600 0 L 0 300 " transform="matrix(0.5,0,0,0.5,0,0)"/>
</g>
</g>
<path style="fill-rule:nonzero;fill:rgb(0%,0%,0%);fill-opacity:1;stroke-width:100;stroke-linecap:butt;stroke-linejoin:miter;stroke:rgb(100%,100%,100%);stroke-opacity:1;stroke-miterlimit:4;" d="M 300 0 L 300 350 M 0 150 L 700 150 " transform="matrix(0.5,0,0,0.5,0,0)"/>
<path style="fill-rule:nonzero;fill:rgb(0%,0%,0%);fill-opacity:1;stroke-width:60;stroke-linecap:butt;stroke-linejoin:miter;stroke:rgb(78.431373%,6.27451%,18.039216%);stroke-opacity:1;stroke-miterlimit:4;" d="M 300 0 L 300 350 M 0 150 L 700 150 " transform="matrix(0.5,0,0,0.5,0,0)"/>
<path style=" stroke:none;fill-rule:nonzero;fill:rgb(0.392157%,12.941176%,41.176471%);fill-opacity:1;" d="M 0 150 L 300 150 L 300 0 L 400 0 L 400 200 L 0 200 Z M 0 150 "/>
<path style=" stroke:none;fill-rule:nonzero;fill:rgb(80%,80%,20%);fill-opacity:1;" d="M 390.292969 77.019531 C 390.292969 151.433594 396.226562 177.855469 416.59375 198.257812 C 436.960938 218.660156 444.675781 221.875 450.355469 225 C 456.90625 221.394531 464.453125 217.433594 482.914062 198.972656 C 501.171875 180.71875 510 154.398438 510 75.75 C 496.71875 81.433594 490.109375 83.308594 478.496094 83.273438 C 469.894531 84.117188 456.625 78.605469 448.691406 75 C 443.503906 78.300781 435.984375 82.238281 422.464844 82.679688 C 406.851562 83.335938 401.90625 80.8125 390.292969 77.019531 Z M 390.292969 77.019531 "/>
<path style=" stroke:none;fill-rule:nonzero;fill:rgb(100%,100%,100%);fill-opacity:1;" d="M 393.886719 81.71875 C 393.886719 104.742188 392.527344 136.117188 397.390625 154.269531 C 402.277344 172.5 403.398438 175.171875 407.070312 181.53125 L 492.671875 180.898438 C 497.960938 171.738281 498.226562 166.066406 502.148438 151.429688 C 506.058594 136.847656 507.042969 104.339844 507.15625 80.128906 C 498.550781 84.492188 487.277344 87.585938 476.335938 86.226562 C 467.566406 85.589844 459.460938 83.679688 450.023438 78.59375 C 441.835938 83.273438 438.980469 85.40625 425.464844 85.953125 C 414.9375 86.449219 406.414062 87.261719 393.886719 81.71875 Z M 393.886719 81.71875 "/>
<path style=" stroke:none;fill-rule:nonzero;fill:rgb(60%,80%,100%);fill-opacity:1;" d="M 407.253906 181.027344 C 413.347656 193.253906 442.070312 216.679688 450.472656 221.53125 C 460.054688 215.996094 485.394531 192.84375 492.457031 181.027344 Z M 407.253906 181.027344 "/>
<path style=" stroke:none;fill-rule:nonzero;fill:rgb(100%,60%,0%);fill-opacity:1;" d="M 452.109375 115.804688 C 454.816406 121.871094 463.496094 128.574219 465.882812 131.859375 C 462.84375 135.144531 462.238281 134.785156 462.636719 140.890625 C 467.914062 135.621094 468.011719 135.074219 471.40625 135.871094 C 478.847656 142.949219 472.738281 158.152344 466.589844 161.457031 C 460.441406 164.980469 461.558594 161.332031 452.34375 165.753906 C 456.570312 169.195312 461.464844 165.246094 465.464844 166.300781 C 467.636719 168.761719 464.429688 173.242188 466.121094 177.460938 C 469.65625 177.136719 469.230469 170.332031 470.054688 167.867188 C 472.636719 158.828125 488.160156 152.523438 488.949219 144.234375 C 492.222656 142.769531 495.496094 143.777344 499.472656 145.90625 C 497.492188 138.140625 490.933594 138.222656 489.175781 135.796875 C 484.992188 129.703125 481.285156 122.75 472.347656 120.945312 C 465.566406 119.574219 466.074219 121.355469 461.726562 118.53125 C 459.019531 116.519531 450.796875 112.722656 452.109375 115.804688 Z M 452.109375 115.804688 "/>
<path style=" stroke:none;fill-rule:nonzero;fill:rgb(100%,60%,0%);fill-opacity:1;" d="M 430.417969 141.554688 C 434.785156 136.4375 436.945312 125.988281 438.878906 122.445312 C 443.34375 123.46875 443.292969 124.148438 448.769531 120.960938 C 441.417969 118.972656 440.863281 119.148438 440.015625 115.910156 C 443.105469 106.335938 460.054688 104.382812 465.992188 108.019531 C 472.136719 111.554688 468.230469 112.320312 476.632812 118.019531 C 477.851562 112.851562 471.90625 110.570312 471.015625 106.707031 C 472.28125 103.726562 477.933594 104.335938 481.058594 100.941406 C 479.105469 98.113281 472.992188 101.648438 470.320312 102.105469 C 460.734375 104.152344 447.636719 94.011719 439.578125 97.21875 C 436.691406 95.144531 436.09375 91.914062 436.210938 87.566406 C 429.933594 92.863281 433.074219 98.351562 431.648438 100.96875 C 427.949219 107.339844 423.230469 113.714844 425.734375 122.089844 C 427.632812 128.449219 429.046875 127.191406 428.457031 132.175781 C 427.859375 135.394531 428.175781 144.101562 430.417969 141.554688 Z M 430.417969 141.554688 "/>
<path style=" stroke:none;fill-rule:nonzero;fill:rgb(100%,60%,0%);fill-opacity:1;" d="M 465.882812 145.152344 C 459.03125 144.238281 448.535156 147.875 444.351562 148.132812 C 442.964844 143.960938 443.597656 143.648438 437.90625 140.832031 C 439.921875 147.859375 440.367188 148.21875 437.898438 150.585938 C 427.703125 153.019531 417.183594 140.199219 417.378906 133.472656 C 417.375 126.632812 420.078125 129.421875 420.851562 119.617188 C 415.582031 121.296875 416.609375 127.328125 413.601562 130.054688 C 410.269531 130.566406 407.894531 125.636719 403.230469 124.84375 C 401.703125 127.898438 408.039062 131.054688 409.832031 133 C 416.628906 139.765625 414.300781 155.699219 421.347656 160.613281 C 420.976562 164.042969 418.386719 166.199219 414.421875 168.351562 C 422.425781 170.734375 425.726562 165.332031 428.8125 165.144531 C 436.449219 164.863281 444.609375 165.414062 450.835938 159.042969 C 455.558594 154.203125 453.695312 153.699219 458.476562 151.605469 C 461.679688 150.425781 469.328125 145.664062 465.882812 145.152344 Z M 465.882812 145.152344 "/>
<path style=" stroke:none;fill-rule:nonzero;fill:rgb(100%,100%,100%);fill-opacity:1;" d="M 471.621094 122.707031 C 471.621094 123.449219 470.988281 124.054688 470.207031 124.054688 C 469.425781 124.054688 468.792969 123.449219 468.792969 122.707031 C 468.792969 121.960938 469.425781 121.359375 470.207031 121.359375 C 470.988281 121.359375 471.621094 121.960938 471.621094 122.707031 Z M 471.621094 122.707031 "/>
<path style=" stroke:none;fill-rule:nonzero;fill:rgb(100%,100%,100%);fill-opacity:1;" d="M 427.707031 121.878906 C 428.394531 121.53125 429.25 121.785156 429.617188 122.441406 C 429.980469 123.101562 429.71875 123.917969 429.027344 124.265625 C 428.335938 124.613281 427.480469 124.359375 427.117188 123.703125 C 426.75 123.042969 427.015625 122.226562 427.707031 121.878906 Z M 427.707031 121.878906 "/>
<path style=" stroke:none;fill-rule:nonzero;fill:rgb(100%,100%,100%);fill-opacity:1;" d="M 449.625 157.542969 C 448.957031 157.160156 448.738281 156.332031 449.140625 155.691406 C 449.542969 155.054688 450.414062 154.847656 451.082031 155.230469 C 451.75 155.613281 451.96875 156.441406 451.566406 157.082031 C 451.164062 157.71875 450.292969 157.925781 449.625 157.542969 Z M 449.625 157.542969 "/>
</g>
</svg>
