<?xml version="1.0" encoding="UTF-8"?>
<svg xmlns="http://www.w3.org/2000/svg" xmlns:xlink="http://www.w3.org/1999/xlink" width="px" height="px" viewBox="0 0 490 350" version="1.1">
<g id="surface1">
<rect x="0" y="0" width="490" height="350" style="fill:rgb(100%,0%,0%);fill-opacity:1;stroke:none;"/>
<path style=" stroke:none;fill-rule:evenodd;fill:rgb(0%,0%,0%);fill-opacity:1;" d="M 258.253906 264.472656 C 255.179688 261.804688 251.453125 256.40625 251.503906 251.203125 C 251.78125 247.324219 254.441406 245.066406 256.160156 249.804688 C 258.59375 255.035156 263.804688 263.679688 270.992188 258.609375 C 274.128906 256.304688 274.082031 252.910156 269.777344 253.300781 C 264.460938 252.9375 261.195312 250.011719 258.820312 242.484375 C 258.386719 238.339844 260.109375 238.445312 262.511719 241.109375 C 265.601562 244.652344 271.75 250.011719 278.535156 247.140625 C 282.304688 245.558594 283.367188 242.300781 277.671875 241.496094 C 272.28125 241.578125 267.878906 238.082031 263.5 232.75 C 261.097656 229.800781 264.640625 226.820312 266.765625 229.332031 C 268.664062 230.960938 271.320312 233.964844 273.597656 234.378906 C 276.234375 234.894531 279.496094 234.640625 283.113281 232.722656 C 287.011719 229.460938 285.746094 227.105469 281.015625 226.5625 C 277.34375 226.746094 275.347656 228.140625 270.613281 224.984375 C 262.109375 219.234375 255.34375 211.550781 254.289062 202.308594 C 253.59375 196.234375 256.863281 194.390625 259.578125 195.089844 C 266.96875 196.992188 271.804688 210.800781 276.917969 218.390625 C 278.589844 220.574219 280.128906 220.609375 281.214844 219.9375 C 283.265625 218.179688 284.90625 216.734375 286.957031 214.765625 C 286.957031 214.765625 302 217.46875 310.191406 220.140625 L 301.070312 223.382812 C 297.617188 221.472656 293.449219 223.53125 293.449219 226.839844 C 290.179688 229.097656 290.441406 231.75 291.851562 234.304688 C 292.28125 232.523438 292.648438 230.210938 295.230469 229.90625 C 298.914062 231.429688 303.210938 229.253906 303.210938 226.375 L 313.96875 222.148438 L 324.839844 228.300781 C 324.839844 232.460938 328.78125 233.78125 332.882812 232.65625 C 334.8125 233.855469 336.054688 235.9375 336.710938 238.164062 C 337.921875 234.953125 337.667969 232.6875 335.773438 231.113281 C 336.859375 226.960938 331.042969 222.96875 326.539062 225.625 L 318.71875 221.136719 L 332.105469 220.761719 C 333.65625 223.511719 339.273438 223.664062 340.910156 220.761719 C 342.3125 220.378906 343.492188 220.132812 346.222656 222.164062 C 345.363281 218.878906 343.691406 217.476562 341.179688 217.476562 C 339.269531 214.097656 332.367188 214.113281 331.367188 217.917969 L 317.429688 218.304688 L 325.699219 212.414062 C 328.785156 214.238281 333.121094 212.210938 333.988281 208.902344 C 335.21875 207.4375 336.734375 206.75 339.722656 207.742188 C 338.183594 205.015625 336.015625 204.203125 332.09375 206.054688 C 328.519531 203.34375 323.808594 206.628906 324.523438 209.355469 L 313.519531 216.84375 C 305.53125 214.460938 291.0625 210.75 291.0625 210.75 C 292.785156 208.9375 294.53125 207.253906 296.253906 205.417969 C 296.875 204.339844 295.925781 203.089844 294.605469 202.828125 C 281.699219 200.164062 274.308594 194.960938 269.828125 181.734375 C 267.957031 176.195312 272.007812 174.539062 273.398438 177.929688 C 275.324219 182.640625 277.445312 187.789062 283.242188 191.777344 C 285.242188 193.175781 291.191406 192.035156 287.671875 188.695312 C 284.027344 185.691406 282.457031 184.402344 280.664062 177.101562 C 280.664062 173.402344 284.433594 171.742188 286.535156 175.289062 C 288.785156 182.5625 289.015625 185.691406 293.089844 190.378906 C 296.175781 193.925781 300.199219 196.308594 302.199219 196.253906 C 305.796875 196.203125 309.414062 192.320312 304.605469 189.5 C 297.542969 186.675781 294.960938 182.820312 293.921875 179.144531 C 292.785156 172.726562 294.027344 169.621094 297.898438 172.777344 C 303.386719 179.015625 313.867188 190.636719 319.359375 196.046875 C 325.511719 200.757812 332.570312 200.910156 338.1875 196.125 C 341.40625 192.421875 340.261719 188.441406 335.226562 189.292969 C 323.863281 190.25 315.261719 184.609375 305.820312 169.359375 C 303.972656 165.917969 303.464844 160.976562 307.542969 164.652344 C 312.246094 171.019531 319.105469 176.429688 325.488281 178.757812 C 331.890625 181.058594 337.175781 179.789062 339.226562 177.773438 C 341.699219 175.304688 341.050781 169.078125 336.773438 170.578125 C 333.253906 171.820312 328.292969 172.132812 323.132812 170.136719 C 317.96875 168.121094 312.601562 163.773438 306.90625 156.394531 C 304.957031 152.230469 305.59375 148.710938 309.539062 150.855469 C 318.878906 158.777344 330.925781 165.195312 337.074219 161.339844 C 341.605469 158.519531 341.683594 151.269531 335.9375 151.738281 C 324.371094 153.3125 319.992188 150.753906 308.882812 140.945312 C 306.351562 139.054688 306.527344 134.265625 310.550781 137.320312 C 319.890625 143.351562 332.648438 145.707031 337.660156 142.550781 C 342.164062 139.726562 341.503906 131.109375 333.914062 134.160156 C 327.835938 137.863281 321.128906 137.757812 307.691406 128.15625 C 304.300781 125.335938 306.832031 121.660156 309.613281 123.238281 C 320.421875 129.398438 336.164062 132.039062 340.265625 119.511719 C 341.859375 114.726562 338.972656 111.929688 334.746094 115.242188 C 325.457031 123.835938 314.929688 119.617188 309.035156 115.292969 C 307.347656 114.296875 304.25 109.261719 309.691406 110.195312 C 323.761719 113.40625 337.683594 110.609375 340.214844 100.644531 C 341.683594 97.410156 338.796875 91.6875 333.660156 96.476562 C 326.902344 103.15625 319.738281 103.386719 310.730469 103.335938 C 306.148438 102.378906 306.097656 97.332031 309.945312 96.582031 C 317.054688 96.734375 324.066406 93.628906 329.6875 90.472656 C 335.179688 87.316406 339.734375 82.890625 341.179688 76.753906 C 342.0625 71.269531 336.773438 65.445312 333.585938 71.269531 C 328.875 79.78125 318.449219 87.808594 306.855469 89.257812 C 306.25 88.246094 304.730469 85.65625 302.859375 86.382812 C 299.453125 87.703125 295.398438 89.46875 291.222656 91.453125 C 282.21875 95.726562 278.46875 97.789062 279.550781 105.175781 C 280.679688 112.878906 274.738281 117.75 269.828125 116.40625 C 265.550781 115.253906 263.1875 111.386719 263.957031 104.683594 C 264.570312 99.339844 269.933594 92.875 275.976562 89.488281 C 279.890625 87.296875 285.800781 86.097656 292.910156 84.519531 C 297.238281 83.667969 299.445312 81.984375 299.695312 80.222656 C 299.695312 80.222656 296.738281 82.386719 292 82.0625 C 289.761719 81.902344 288.261719 80.914062 287.695312 79.910156 C 289.34375 79.574219 292.328125 79.964844 295.011719 79.964844 C 298.578125 79.9375 306.863281 79.136719 309.058594 74.113281 C 309.742188 70.800781 307.566406 70.207031 305.539062 72.328125 C 303.363281 74.621094 302.46875 76.683594 298.101562 77.453125 C 295.445312 77.921875 292.785156 78.464844 289.367188 77.636719 C 291.292969 75.347656 294.351562 73.007812 296.960938 73.441406 C 297.820312 73.582031 298.960938 74.375 299.871094 75.796875 C 300.429688 72.175781 299.441406 68.082031 289.746094 69.792969 C 289.902344 67.050781 284.128906 65.859375 280.664062 65.910156 C 278.6875 65.960938 274.664062 67.128906 271.753906 68.523438 C 267.148438 69.949219 262.59375 70.984375 257.222656 71.371094 C 260.339844 74.035156 260.921875 74.195312 264.03125 76.445312 C 259.328125 78.203125 255.683594 81.828125 254.035156 84.210938 C 254.035156 84.210938 259.53125 84.054688 260.921875 84.675781 C 255.175781 86.355469 252.59375 87.367188 249.554688 90.472656 C 250.617188 90.652344 252.210938 90.964844 252.898438 91.222656 C 253.609375 91.480469 253.421875 91.949219 252.847656 92.386719 C 251.609375 93.332031 246.492188 99.273438 245 100.699219 C 243.507812 99.273438 238.390625 93.332031 237.152344 92.386719 C 236.578125 91.949219 236.394531 91.480469 237.105469 91.222656 C 237.789062 90.964844 239.382812 90.652344 240.445312 90.472656 C 237.40625 87.367188 234.828125 86.355469 229.078125 84.675781 C 230.472656 84.054688 235.964844 84.210938 235.964844 84.210938 C 234.316406 81.828125 230.671875 78.203125 225.96875 76.445312 C 229.078125 74.195312 229.660156 74.035156 232.777344 71.371094 C 227.410156 70.984375 222.851562 69.949219 218.246094 68.523438 C 215.335938 67.128906 211.3125 65.960938 209.339844 65.910156 C 205.871094 65.859375 200.097656 67.050781 200.253906 69.792969 C 190.5625 68.082031 189.570312 72.175781 190.128906 75.796875 C 191.042969 74.375 192.183594 73.582031 193.039062 73.441406 C 195.648438 73.007812 198.707031 75.347656 200.632812 77.636719 C 197.214844 78.464844 194.558594 77.921875 191.898438 77.453125 C 187.535156 76.683594 186.636719 74.621094 184.460938 72.328125 C 182.433594 70.207031 180.257812 70.800781 180.941406 74.113281 C 183.140625 79.136719 191.421875 79.9375 194.988281 79.964844 C 197.671875 79.964844 200.65625 79.574219 202.304688 79.910156 C 201.738281 80.917969 200.238281 81.902344 198 82.0625 C 193.265625 82.386719 190.304688 80.222656 190.304688 80.222656 C 190.558594 81.984375 192.761719 83.664062 197.089844 84.519531 C 204.203125 86.097656 210.109375 87.296875 214.023438 89.488281 C 220.066406 92.875 225.429688 99.339844 226.046875 104.683594 C 226.8125 111.386719 224.449219 115.253906 220.171875 116.40625 C 215.265625 117.75 209.324219 112.878906 210.453125 105.175781 C 211.53125 97.789062 207.78125 95.726562 198.777344 91.453125 C 194.601562 89.46875 190.546875 87.703125 187.144531 86.382812 C 185.269531 85.65625 183.75 88.246094 183.144531 89.257812 C 171.550781 87.808594 161.125 79.78125 156.414062 71.269531 C 153.226562 65.445312 147.9375 71.269531 148.824219 76.753906 C 150.265625 82.890625 154.820312 87.316406 160.316406 90.472656 C 165.933594 93.628906 172.945312 96.734375 180.054688 96.582031 C 183.902344 97.332031 183.855469 102.378906 179.269531 103.335938 C 170.261719 103.386719 163.097656 103.15625 156.34375 96.476562 C 151.207031 91.6875 148.316406 97.410156 149.785156 100.644531 C 152.316406 110.609375 166.238281 113.40625 180.308594 110.195312 C 185.75 109.261719 182.652344 114.296875 180.964844 115.292969 C 175.070312 119.617188 164.542969 123.835938 155.253906 115.242188 C 151.027344 111.929688 148.140625 114.726562 149.738281 119.511719 C 153.835938 132.039062 169.578125 129.398438 180.386719 123.238281 C 183.171875 121.660156 185.699219 125.335938 182.308594 128.15625 C 168.871094 137.757812 162.164062 137.863281 156.089844 134.160156 C 148.496094 131.109375 147.835938 139.726562 152.34375 142.550781 C 157.355469 145.707031 170.109375 143.351562 179.449219 137.320312 C 183.472656 134.265625 183.648438 139.054688 181.117188 140.945312 C 170.007812 150.753906 165.628906 153.3125 154.0625 151.738281 C 148.316406 151.269531 148.394531 158.515625 152.925781 161.339844 C 159.074219 165.195312 171.121094 158.777344 180.460938 150.855469 C 184.410156 148.710938 185.042969 152.230469 183.09375 156.394531 C 177.398438 163.773438 172.035156 168.121094 166.867188 170.136719 C 161.707031 172.132812 156.746094 171.820312 153.226562 170.582031 C 148.953125 169.078125 148.300781 175.304688 150.773438 177.773438 C 152.824219 179.789062 158.109375 181.058594 164.515625 178.757812 C 170.894531 176.429688 177.753906 171.019531 182.460938 164.652344 C 186.535156 160.976562 186.03125 165.917969 184.179688 169.359375 C 174.742188 184.609375 166.136719 190.25 154.773438 189.292969 C 149.738281 188.441406 148.597656 192.421875 151.8125 196.125 C 157.429688 200.910156 164.488281 200.757812 170.640625 196.046875 C 176.132812 190.636719 186.613281 179.015625 192.101562 172.777344 C 195.972656 169.621094 197.214844 172.726562 196.078125 179.144531 C 195.039062 182.820312 192.457031 186.675781 185.394531 189.5 C 180.585938 192.320312 184.207031 196.203125 187.800781 196.253906 C 189.800781 196.308594 193.824219 193.925781 196.910156 190.378906 C 200.984375 185.691406 201.214844 182.5625 203.464844 175.289062 C 205.570312 171.742188 209.339844 173.402344 209.339844 177.101562 C 207.542969 184.402344 205.972656 185.691406 202.328125 188.695312 C 198.808594 192.035156 204.757812 193.175781 206.757812 191.777344 C 212.554688 187.789062 214.679688 182.640625 216.601562 177.929688 C 217.996094 174.539062 222.042969 176.195312 220.171875 181.734375 C 215.695312 194.960938 208.304688 200.164062 195.394531 202.828125 C 194.078125 203.085938 193.128906 204.339844 193.746094 205.417969 C 195.46875 207.253906 197.214844 208.9375 198.9375 210.75 C 198.9375 210.75 184.46875 214.460938 176.484375 216.84375 L 165.476562 209.355469 C 166.191406 206.628906 161.480469 203.34375 157.90625 206.050781 C 153.984375 204.203125 151.816406 205.015625 150.277344 207.742188 C 153.265625 206.75 154.78125 207.4375 156.011719 208.902344 C 156.882812 212.210938 161.214844 214.238281 164.300781 212.414062 L 172.574219 218.304688 L 158.632812 217.917969 C 157.636719 214.113281 150.730469 214.097656 148.820312 217.476562 C 146.3125 217.476562 144.636719 218.878906 143.777344 222.164062 C 146.507812 220.132812 147.691406 220.378906 149.089844 220.761719 C 150.726562 223.664062 156.34375 223.511719 157.894531 220.761719 L 171.28125 221.136719 L 163.460938 225.625 C 158.957031 222.96875 153.140625 226.960938 154.226562 231.113281 C 152.332031 232.6875 152.078125 234.953125 153.289062 238.164062 C 153.945312 235.9375 155.1875 233.855469 157.121094 232.65625 C 161.21875 233.78125 165.160156 232.460938 165.160156 228.300781 L 176.03125 222.148438 L 186.792969 226.375 C 186.792969 229.253906 191.085938 231.429688 194.769531 229.90625 C 197.351562 230.210938 197.71875 232.523438 198.148438 234.304688 C 199.558594 231.75 199.820312 229.097656 196.550781 226.839844 C 196.550781 223.53125 192.382812 221.472656 188.929688 223.382812 L 179.808594 220.140625 C 188 217.46875 203.042969 214.765625 203.042969 214.765625 C 205.09375 216.734375 206.734375 218.179688 208.785156 219.9375 C 209.871094 220.609375 211.410156 220.574219 213.085938 218.390625 C 218.199219 210.800781 223.03125 196.992188 230.421875 195.089844 C 233.140625 194.390625 236.40625 196.234375 235.714844 202.308594 C 234.65625 211.550781 227.894531 219.234375 219.386719 224.984375 C 214.652344 228.140625 212.65625 226.746094 208.988281 226.5625 C 204.253906 227.105469 202.988281 229.460938 206.886719 232.722656 C 210.503906 234.640625 213.769531 234.894531 216.402344 234.378906 C 218.679688 233.964844 221.335938 230.960938 223.234375 229.332031 C 225.363281 226.820312 228.90625 229.800781 226.503906 232.75 C 222.121094 238.082031 217.71875 241.578125 212.328125 241.496094 C 206.632812 242.300781 207.695312 245.558594 211.464844 247.140625 C 218.25 250.011719 224.398438 244.65625 227.488281 241.109375 C 229.890625 238.445312 231.613281 238.339844 231.183594 242.484375 C 228.804688 250.011719 225.539062 252.9375 220.222656 253.300781 C 215.921875 252.910156 215.871094 256.304688 219.011719 258.609375 C 226.195312 263.679688 231.410156 255.035156 233.839844 249.804688 C 235.558594 245.070312 238.21875 247.324219 238.496094 251.203125 C 238.546875 256.40625 234.820312 261.804688 231.746094 264.472656 C 228.671875 267.140625 245 284.089844 245 284.089844 C 245 284.089844 261.328125 267.136719 258.253906 264.472656 Z M 280.136719 72.503906 C 277.59375 72.503906 276.023438 73.390625 276.023438 74.472656 C 276.023438 75.570312 277.59375 76.464844 280.136719 76.464844 C 282.664062 76.464844 284.265625 75.488281 284.265625 74.390625 C 284.265625 73.308594 282.664062 72.5 280.136719 72.5 Z M 209.863281 72.503906 C 212.40625 72.503906 213.976562 73.390625 213.976562 74.472656 C 213.976562 75.570312 212.40625 76.464844 209.863281 76.464844 C 207.339844 76.464844 205.734375 75.488281 205.734375 74.390625 C 205.734375 73.308594 207.339844 72.5 209.863281 72.5 Z M 209.863281 72.503906 "/>
</g>
</svg>
