<?xml version="1.0" encoding="UTF-8"?>
<svg xmlns="http://www.w3.org/2000/svg" xmlns:xlink="http://www.w3.org/1999/xlink" width="px" height="px" viewBox="0 0 450 300" version="1.1">
<g id="surface1">
<rect x="0" y="0" width="450" height="300" style="fill:rgb(0%,0%,0%);fill-opacity:1;stroke:none;"/>
<path style=" stroke:none;fill-rule:nonzero;fill:rgb(80%,3.529412%,18.431373%);fill-opacity:1;" d="M 0 0 L 450 0 L 450 150 L 0 150 Z M 0 0 "/>
<path style=" stroke:none;fill-rule:evenodd;fill:rgb(100%,79.607843%,0%);fill-opacity:1;" d="M 195.429688 102.898438 L 213.75 102.898438 L 219.308594 85.628906 L 225.011719 102.898438 L 243.332031 102.898438 L 228.617188 113.863281 L 234.320312 131.429688 L 219.308594 120.765625 L 204.441406 131.429688 L 210.148438 113.863281 Z M 195.429688 102.898438 "/>
<path style=" stroke:none;fill-rule:evenodd;fill:rgb(100%,79.607843%,0%);fill-opacity:1;" d="M 262.402344 197.351562 L 247.988281 186.089844 C 262.550781 174.226562 272.011719 156.054688 272.011719 135.785156 C 272.011719 104.851562 249.941406 78.875 220.808594 72.71875 L 223.058594 62.203125 C 227.113281 63.105469 231.871094 64.8125 235.777344 66.164062 L 239.53125 59.859375 C 243.582031 61.808594 248.089844 63.761719 251.839844 66.164062 L 248.988281 72.921875 C 252.746094 75.324219 257.277344 79.046875 259.796875 81.976562 L 265.4375 77.574219 C 268.441406 80.875 272.046875 84.328125 274.597656 87.933594 L 269.492188 93.191406 C 272.789062 98.03125 274.0625 100.257812 276.492188 105.832031 L 283.65625 104.152344 C 285.011719 108.355469 287.066406 113.503906 287.816406 117.855469 L 281.035156 120.523438 C 281.84375 123.90625 282.894531 129.816406 282.824219 134.785156 C 282.820312 135.085938 282.796875 135.421875 282.796875 135.722656 L 289.882812 136.734375 C 289.582031 141.089844 289.433594 146.046875 288.53125 150.402344 L 281.171875 150.402344 C 280.121094 154.902344 278.765625 160.410156 277.117188 164.613281 L 283.273438 168.21875 C 281.320312 172.121094 279.371094 176.777344 276.816406 180.535156 L 270.058594 177.683594 C 267.503906 181.433594 264.65625 185.035156 261.5 188.34375 L 265.855469 194.046875 C 264.65625 195.097656 263.601562 196.148438 262.402344 197.351562 M 230.71875 196 L 241.605469 202.558594 C 240.589844 203.488281 237.550781 205.0625 236.742188 205.382812 L 238.523438 212.214844 C 234.320312 213.570312 229.8125 215.519531 225.160156 216.421875 L 222.460938 209.664062 C 218.105469 210.566406 213.75 211.164062 209.246094 211.164062 L 208.34375 218.222656 C 204.140625 217.921875 199.035156 218.222656 194.378906 217.171875 L 194.378906 210.117188 C 190.171875 209.363281 186.117188 208.3125 182.214844 206.960938 L 178.761719 213.121094 C 175.15625 211.617188 170.351562 209.8125 166.445312 207.414062 L 169 200.65625 C 165.847656 199.003906 162.992188 196.902344 160.289062 194.796875 L 167.046875 186.238281 C 178.160156 195.097656 192.125 200.351562 207.441406 200.351562 C 215.550781 200.351562 223.507812 199.003906 230.71875 196 "/>
<path style=" stroke:none;fill-rule:evenodd;fill:rgb(100%,79.607843%,0%);fill-opacity:1;" d="M 276.097656 213.40625 L 204.230469 158.714844 L 203.574219 159.648438 L 275.257812 214.433594 L 271 219.757812 L 201.125 174.9375 C 182.207031 163.074219 182.957031 153.765625 186.859375 143.703125 L 190.164062 135.597656 C 191.96875 146.109375 202.777344 154.070312 214.039062 162.925781 L 277.496094 211.675781 Z M 294.136719 229.707031 C 294.753906 229.707031 295.25 230.207031 295.25 230.824219 C 295.246094 231.4375 294.746094 231.9375 294.132812 231.933594 C 293.515625 231.933594 293.019531 231.4375 293.019531 230.820312 C 293.636719 230.820312 294.140625 231.320312 294.140625 231.9375 C 293.519531 231.9375 293.019531 231.433594 293.019531 230.816406 C 293.019531 230.199219 293.523438 229.699219 294.140625 229.699219 C 294.761719 229.699219 295.261719 230.203125 295.257812 230.820312 M 290.964844 227.667969 C 291.417969 227.664062 291.828125 227.9375 292 228.355469 C 292.175781 228.773438 292.078125 229.257812 291.757812 229.578125 C 291.4375 229.898438 290.957031 229.996094 290.535156 229.820312 C 290.117188 229.648438 289.84375 229.238281 289.847656 228.785156 M 285.449219 225.28125 C 284.835938 225.28125 284.332031 224.78125 284.332031 224.164062 C 283.058594 207.550781 268.554688 195.117188 251.941406 196.390625 C 235.324219 197.667969 222.890625 212.167969 224.164062 228.785156 C 224.164062 229.398438 223.664062 229.898438 223.050781 229.898438 M 237.824219 236.101562 L 216.292969 219.417969 L 210.035156 227.480469 L 228.742188 240.597656 C 230.242188 241.648438 230.390625 246.457031 235.945312 247.210938 C 238.203125 247.507812 239.699219 245.855469 239.699219 245.855469 C 242.117188 242.910156 241.460938 238.851562 237.824219 236.097656 "/>
</g>
</svg>
