<?xml version="1.0" encoding="UTF-8"?>
<svg xmlns="http://www.w3.org/2000/svg" xmlns:xlink="http://www.w3.org/1999/xlink" width="px" height="px" viewBox="0 0 372 248" version="1.1">
<g id="surface1">
<rect x="0" y="0" width="372" height="248" style="fill:rgb(22.745098%,49.019608%,80.784314%);fill-opacity:1;stroke:none;"/>
<path style=" stroke:none;fill-rule:nonzero;fill:rgb(100%,100%,100%);fill-opacity:1;" d="M 91.648438 119.269531 C 89.621094 115.214844 89.621094 115.214844 89.621094 111.160156 C 88.609375 111.160156 88.417969 111.351562 87.832031 111.191406 C 87.246094 111.035156 87.023438 114.929688 85.125 114.171875 C 84.808594 113.789062 86.484375 110.972656 84.664062 109.800781 C 84.078125 109.417969 84.808594 107.109375 84.554688 106.09375 C 84.554688 106.09375 82.242188 107.296875 80.5 103.054688 C 79.644531 101.945312 78.472656 104.066406 78.472656 104.066406 C 78.472656 104.066406 78.980469 105.367188 78.0625 105.683594 C 76.761719 104.734375 75.8125 105.230469 74.164062 103.925781 C 72.519531 102.617188 74.515625 101.121094 71.378906 100.015625 C 73.40625 94.945312 73.40625 95.960938 78.472656 93.933594 C 75.433594 91.90625 75.433594 91.90625 73.40625 88.867188 C 70.367188 87.851562 69.351562 86.839844 66.3125 84.8125 C 62.257812 79.746094 60.230469 69.609375 60.230469 62.515625 C 62.796875 60.140625 66.3125 70.625 71.378906 73.664062 L 78.472656 76.703125 C 82.527344 78.730469 83.539062 80.757812 86.582031 82.785156 L 95.703125 85.824219 C 99.753906 88.867188 101.78125 92.921875 104.824219 93.933594 C 108.117188 93.933594 108.75 92.035156 109.804688 91.917969 C 115.765625 91.613281 118.804688 90.84375 119.992188 89.054688 C 121.195312 87.632812 124.078125 89.878906 132.183594 86.839844 L 131.171875 82.785156 C 131.171875 82.785156 133.324219 81.011719 136.238281 81.773438 C 136.160156 79.917969 135.96875 74.980469 138.839844 72.75 C 137.097656 70.921875 138.265625 69.609375 138.265625 69.609375 C 138.265625 69.609375 139.882812 68.058594 140.070312 67.234375 C 139.214844 62.769531 140.8125 62.699219 141.171875 61.386719 C 141.527344 60.074219 139.792969 60.523438 140.28125 58.710938 C 140.769531 56.902344 143.707031 56.472656 144.097656 54.980469 C 144.492188 53.488281 143.261719 52.738281 143.332031 52.382812 C 143.964844 50.957031 143.429688 47.601562 143.332031 46.300781 C 148.78125 44.84375 150.554688 40.410156 152.453125 42.246094 C 153.46875 36.167969 154.480469 34.140625 160.5625 34.140625 C 161.417969 32.273438 158.34375 30.6875 159.546875 30.085938 C 161.574219 29.832031 163.125 29.960938 165.503906 33.03125 C 166.253906 34.003906 166.390625 31.605469 167.148438 31.351562 C 167.910156 31.101562 169.726562 31.097656 170 29.898438 C 170.285156 28.660156 170.695312 27.046875 171.710938 25.019531 C 172.566406 23.371094 173.230469 25.652344 173.988281 28.882812 C 178.265625 29.042969 187.925781 29.992188 191.976562 31.101562 C 195.019531 31.890625 197.046875 30.308594 199.960938 29.992188 C 202.113281 32.144531 204.140625 30.53125 205.28125 35.121094 C 206.890625 37.601562 209.523438 35.34375 210.09375 36.070312 C 213.484375 45.414062 225.136719 39.113281 226.023438 39.269531 C 227.511719 39.269531 229.328125 43.449219 230.5 43.34375 C 232.40625 43.023438 231.867188 41.726562 233.527344 42.246094 C 233.085938 45.761719 236.792969 49.816406 236.792969 52.445312 C 236.792969 52.445312 237.695312 52.890625 238.53125 52.109375 C 239.363281 51.328125 240.132812 49.324219 240.875 49.375 C 242.648438 49.628906 243.367188 49.855469 245.414062 50.210938 C 250.90625 52.089844 253.707031 52.511719 255.839844 53.476562 C 256.835938 55.292969 257.796875 56.222656 259.808594 55.882812 C 261.472656 57 260.257812 58.464844 261.242188 58.558594 C 263.265625 57.542969 263.933594 56.4375 265.960938 57.449219 C 267.984375 58.464844 270.011719 60.488281 271.027344 62.515625 C 271.027344 63.53125 270.011719 67.585938 271.027344 73.664062 C 271.53125 75.691406 271.777344 77.296875 273.957031 80.773438 C 273.378906 84.34375 276.695312 90.355469 276.695312 91.875 C 276.695312 93.902344 275.078125 94.945312 274.066406 96.972656 C 278.121094 100.015625 274.066406 105.082031 272.039062 108.121094 C 287.242188 111.160156 280.148438 117.242188 292.308594 114.203125 C 289.269531 121.296875 290.34375 120.726562 293.386719 127.820312 C 287.304688 131.875 293.257812 133.109375 289.207031 138.175781 C 288.953125 138.492188 291.613281 142.578125 295.347656 142.578125 C 294.335938 150.6875 291.296875 147.644531 292.308594 159.808594 C 284.328125 159.648438 287.558594 168.898438 282.175781 167.914062 C 282.492188 173.710938 285.246094 174.21875 284.199219 180.074219 C 280.148438 181.089844 280.148438 181.089844 278.121094 184.128906 L 275.078125 183.117188 C 274.066406 188.183594 272.039062 189.195312 275.078125 194.265625 C 275.078125 194.265625 271.152344 194.390625 270.011719 194.265625 C 269.917969 196.007812 271.753906 196.480469 272.039062 198.316406 C 271.882812 199.046875 266.277344 202.246094 261.90625 202.371094 C 260.765625 204.875 264.945312 207.535156 264.691406 208.800781 C 259.941406 209.71875 257.851562 215.546875 257.851562 215.546875 C 257.851562 215.546875 260.289062 216.527344 259.878906 217.574219 C 258.582031 216.621094 257.851562 216.558594 255.824219 216.558594 C 254.8125 216.8125 252.339844 216.496094 249.972656 220.496094 C 247.375 221.351562 246.148438 221.042969 244.175781 223.648438 C 243.300781 221.164062 242.046875 223.671875 240.511719 224.636719 C 238.976562 225.601562 236.910156 228 236.632812 227.898438 C 236.695312 227.199219 237.582031 224.667969 237.582031 224.667969 L 232.515625 225.679688 C 232.515625 225.679688 232.289062 225.703125 231.890625 225.742188 C 231.492188 225.78125 231.597656 222.785156 230.640625 222.894531 C 229.679688 223.003906 226.929688 226.664062 225.996094 226.777344 C 225.058594 226.890625 224.765625 225.613281 223.957031 225.726562 C 223.152344 225.835938 221.582031 229.585938 221.011719 229.683594 C 220.441406 229.785156 218.175781 227.40625 216.238281 227.738281 C 206.261719 231.253906 204.675781 220.804688 203.125 226.695312 C 201.035156 225.585938 201.398438 226.226562 199.273438 226.785156 C 197.917969 227.132812 197.796875 224.992188 196.589844 225.027344 C 194.179688 225.09375 194.304688 227.375 192.992188 226.695312 C 191.914062 221.941406 185.421875 222.796875 184.789062 220.773438 C 184.273438 218.65625 187.601562 218.667969 188.679688 217.234375 C 189.5 215.167969 187.820312 214.382812 191.160156 212.390625 C 195.511719 209.445312 193.007812 208.335938 193.773438 206.125 C 195.136719 202.929688 195.144531 202.148438 194.003906 199.332031 C 194.003906 199.332031 190.617188 190.210938 189.949219 190.210938 C 187.925781 189.640625 187.925781 193.566406 184.945312 194.644531 C 178.867188 196.671875 168.132812 189.511719 166.261719 189.511719 C 164.550781 189.546875 156.632812 191.386719 156.929688 187.441406 C 155.746094 191.277344 151.394531 188.339844 151.125 188.339844 C 147.070312 188.339844 148.621094 191.476562 145.898438 191.351562 C 144.664062 190.9375 132.183594 190.210938 132.183594 190.210938 L 132.183594 192.238281 L 124.078125 188.183594 L 116.984375 186.15625 C 110.902344 184.128906 113.945312 179.0625 103.808594 182.101562 L 103.808594 176.023438 L 98.742188 176.023438 C 100.769531 163.859375 98.742188 169.941406 97.726562 158.792969 L 93.675781 159.808594 C 89.621094 154.328125 99.3125 155.371094 90.632812 151.699219 C 90.632812 151.699219 90.792969 145.648438 88.609375 147.644531 C 88.164062 147.898438 89.621094 150.6875 89.621094 150.6875 C 81.511719 149.671875 79.488281 147.644531 79.488281 139.539062 C 79.488281 139.539062 86.167969 140.488281 85.566406 139.539062 C 84.617188 138.019531 83.382812 128.136719 83.601562 127.472656 C 83.507812 126.140625 89.8125 122.785156 88.589844 119.585938 C 89.367188 119.300781 91.648438 119.269531 91.648438 119.269531 "/>
<path style="fill:none;stroke-width:2.5;stroke-linecap:butt;stroke-linejoin:round;stroke:rgb(100%,100%,100%);stroke-opacity:1;stroke-miterlimit:4;" d="M 595.515625 297.570312 C 594.921875 298.90625 595.023438 300.234375 595.640625 301.179688 C 596.734375 299.53125 595.804688 298.773438 595.515625 297.570312 Z M 119.515625 148.15625 C 119.515625 148.15625 116.40625 147.773438 117.101562 150.5 C 118.117188 148.40625 119.445312 148.28125 119.515625 148.15625 Z M 120.210938 141.820312 C 118.5 141.882812 116.40625 141.5625 117.101562 144.289062 C 118.117188 142.195312 120.148438 141.945312 120.210938 141.820312 Z M 131.890625 178.109375 C 131.890625 178.109375 134.546875 177.921875 133.851562 180.648438 C 132.835938 178.554688 131.953125 178.242188 131.890625 178.109375 Z M 131.890625 178.109375 " transform="matrix(0.5,0,0,0.5,0,0)"/>
</g>
</svg>
