<?xml version="1.0" encoding="UTF-8"?>
<svg xmlns="http://www.w3.org/2000/svg" xmlns:xlink="http://www.w3.org/1999/xlink" width="px" height="px" viewBox="0 0 400 250" version="1.1">
<g id="surface1">
<rect x="0" y="0" width="400" height="250" style="fill:rgb(45.490196%,67.45098%,87.45098%);fill-opacity:1;stroke:none;"/>
<path style=" stroke:none;fill-rule:nonzero;fill:rgb(100%,100%,100%);fill-opacity:1;" d="M 0 83.335938 L 400 83.335938 L 400 166.671875 L 0 166.671875 Z M 0 83.335938 "/>
<path style="fill-rule:nonzero;fill:rgb(96.470588%,70.588235%,5.490196%);fill-opacity:1;stroke-width:1.112;stroke-linecap:butt;stroke-linejoin:miter;stroke:rgb(52.156863%,20.392157%,3.921569%);stroke-opacity:1;stroke-miterlimit:4;" d="M 396.84375 251.3125 L 425.296875 313.304688 C 425.296875 313.304688 425.78125 314.484375 426.570312 314.164062 C 427.367188 313.835938 426.875 312.648438 426.875 312.648438 L 403.15625 248.695312 M 402.476562 272.8125 C 402.132812 282.242188 407.929688 287.429688 407.171875 295.84375 C 406.414062 304.265625 411.039062 309.023438 412.109375 312.296875 C 413.1875 315.570312 410.953125 317.53125 411.914062 318 C 412.875 318.460938 414.984375 315.875 414.296875 311.21875 C 413.609375 306.570312 410.078125 305.1875 410.90625 294.898438 C 411.734375 284.617188 406.703125 282.226562 407.929688 272.84375 " transform="matrix(0.5,0,0,0.5,0,0)"/>
<path style="fill-rule:nonzero;fill:rgb(96.470588%,70.588235%,5.490196%);fill-opacity:1;stroke-width:1.112;stroke-linecap:butt;stroke-linejoin:miter;stroke:rgb(52.156863%,20.392157%,3.921569%);stroke-opacity:1;stroke-miterlimit:4;" d="M 396.8386 251.309495 L 425.291298 313.304251 C 425.291298 313.304251 425.781612 314.487971 426.575571 314.159103 C 427.362312 313.833224 426.871999 312.649503 426.871999 312.649503 L 403.154182 248.693495 M 402.48053 272.810528 C 402.132679 282.239508 407.932546 287.422326 407.169124 295.848031 C 406.417148 304.260539 411.038197 309.026827 412.115483 312.301324 C 413.182562 315.571592 410.948896 317.528462 411.913657 317.999832 C 412.875429 318.463985 414.982413 315.874637 414.297438 311.219949 C 413.612462 306.56526 410.081685 305.186476 410.903684 294.901515 C 411.735891 284.620782 406.70123 282.224426 407.924576 272.847157 " transform="matrix(0.46194,0.191342,-0.191342,0.46194,63.059523,-67.021628)"/>
<path style="fill-rule:nonzero;fill:rgb(96.470588%,70.588235%,5.490196%);fill-opacity:1;stroke-width:1.112;stroke-linecap:butt;stroke-linejoin:miter;stroke:rgb(52.156863%,20.392157%,3.921569%);stroke-opacity:1;stroke-miterlimit:4;" d="M 396.840117 251.314777 L 425.29564 313.30263 C 425.29564 313.30263 425.781776 314.484824 426.571747 314.158892 C 427.361718 313.83296 426.875582 312.650766 426.875582 312.650766 L 403.159883 248.696272 M 402.474874 272.815242 C 402.132369 282.23965 407.92733 287.426941 407.176029 295.845931 C 406.413679 304.264921 411.037495 309.021319 412.114728 312.297212 C 413.180912 315.573105 410.949107 317.528698 411.915854 317.998261 C 412.877077 318.4623 414.987349 315.87694 414.296815 311.219979 C 413.611806 306.568542 410.076272 305.187475 410.904912 294.901281 C 411.739077 284.620611 406.700942 282.223077 407.92733 272.842864 " transform="matrix(0.353553,0.353553,-0.353553,0.353553,146.966991,-104.809704)"/>
<path style="fill-rule:nonzero;fill:rgb(96.470588%,70.588235%,5.490196%);fill-opacity:1;stroke-width:1.112;stroke-linecap:butt;stroke-linejoin:miter;stroke:rgb(52.156863%,20.392157%,3.921569%);stroke-opacity:1;stroke-miterlimit:4;" d="M 396.835668 251.310709 L 425.294146 313.302991 C 425.294146 313.302991 425.784605 314.487064 426.570584 314.161501 C 427.366771 313.83171 426.876312 312.647637 426.876312 312.647637 L 403.154125 248.693519 M 402.475606 272.808573 C 402.129947 282.237802 407.931072 287.422793 407.174049 295.844467 C 406.417026 304.266141 411.042373 309.023302 412.11233 312.299316 C 413.182287 315.57533 410.950202 317.534331 411.915125 318.001664 C 412.875819 318.45879 414.986402 315.874441 414.298792 311.22623 C 413.606953 306.567811 410.079409 305.18276 410.904059 294.903368 C 411.738918 284.619748 406.70324 282.221023 407.924606 272.841644 " transform="matrix(0.191342,0.46194,-0.46194,0.191342,238.948255,-107.611336)"/>
<path style=" stroke:none;fill-rule:nonzero;fill:rgb(52.156863%,20.392157%,3.921569%);fill-opacity:1;" d="M 202.15625 137.203125 C 202.382812 141.730469 204.949219 143.738281 204.445312 147.863281 C 205.550781 144.597656 202.882812 142.070312 203.035156 137.253906 M 199.210938 125.375 L 208.953125 146.660156 L 200.789062 124.71875 "/>
<path style=" stroke:none;fill-rule:nonzero;fill:rgb(52.156863%,20.392157%,3.921569%);fill-opacity:1;" d="M 197.320312 137.101562 C 195.796875 141.371094 197.402344 144.203125 195.355469 147.824219 C 197.628906 145.230469 196.128906 141.875 198.113281 137.480469 M 199.128906 125.042969 L 199.980469 148.4375 L 200.835938 125.042969 "/>
<path style=" stroke:none;fill-rule:nonzero;fill:rgb(52.156863%,20.392157%,3.921569%);fill-opacity:1;" d="M 192.894531 135.152344 C 189.851562 138.515625 190.25 141.746094 186.976562 144.308594 C 190.066406 142.785156 189.96875 139.109375 193.480469 135.808594 M 199.175781 124.707031 L 191.015625 146.648438 L 200.757812 125.359375 "/>
<path style=" stroke:none;fill-rule:nonzero;fill:rgb(52.156863%,20.392157%,3.921569%);fill-opacity:1;" d="M 189.546875 131.660156 C 185.453125 133.601562 184.582031 136.742188 180.578125 137.855469 C 184.015625 137.628906 185.332031 134.195312 189.84375 132.492188 M 199.351562 124.414062 L 183.414062 141.5625 L 200.5625 125.621094 "/>
<path style="fill-rule:nonzero;fill:rgb(96.470588%,70.588235%,5.490196%);fill-opacity:1;stroke-width:1.112;stroke-linecap:butt;stroke-linejoin:miter;stroke:rgb(52.156863%,20.392157%,3.921569%);stroke-opacity:1;stroke-miterlimit:4;" d="M 396.84375 251.3125 L 425.296875 313.304688 C 425.296875 313.304688 425.78125 314.484375 426.570312 314.164062 C 427.367188 313.835938 426.875 312.648438 426.875 312.648438 L 403.15625 248.695312 M 402.476562 272.8125 C 402.132812 282.242188 407.929688 287.429688 407.171875 295.84375 C 406.414062 304.265625 411.039062 309.023438 412.109375 312.296875 C 413.1875 315.570312 410.953125 317.53125 411.914062 318 C 412.875 318.460938 414.984375 315.875 414.296875 311.21875 C 413.609375 306.570312 410.078125 305.1875 410.90625 294.898438 C 411.734375 284.617188 406.703125 282.226562 407.929688 272.84375 " transform="matrix(0.000000000000000031,0.5,-0.5,0.000000000000000031,325,-75)"/>
<path style="fill-rule:nonzero;fill:rgb(96.470588%,70.588235%,5.490196%);fill-opacity:1;stroke-width:1.112;stroke-linecap:butt;stroke-linejoin:miter;stroke:rgb(52.156863%,20.392157%,3.921569%);stroke-opacity:1;stroke-miterlimit:4;" d="M 396.8386 251.309495 L 425.291298 313.304251 C 425.291298 313.304251 425.781612 314.487971 426.575571 314.159103 C 427.362312 313.833224 426.871999 312.649503 426.871999 312.649503 L 403.154182 248.693495 M 402.48053 272.810528 C 402.132679 282.239508 407.932546 287.422326 407.169124 295.848031 C 406.417148 304.260539 411.038197 309.026827 412.115483 312.301324 C 413.182562 315.571592 410.948896 317.528462 411.913657 317.999832 C 412.875429 318.463985 414.982413 315.874637 414.297438 311.219949 C 413.612462 306.56526 410.081685 305.186476 410.903684 294.901515 C 411.735891 284.620782 406.70123 282.224426 407.924576 272.847157 " transform="matrix(-0.191342,0.46194,-0.46194,-0.191342,392.021628,-11.940477)"/>
<path style="fill-rule:nonzero;fill:rgb(96.470588%,70.588235%,5.490196%);fill-opacity:1;stroke-width:1.112;stroke-linecap:butt;stroke-linejoin:miter;stroke:rgb(52.156863%,20.392157%,3.921569%);stroke-opacity:1;stroke-miterlimit:4;" d="M 396.840117 251.314777 L 425.29564 313.30263 C 425.29564 313.30263 425.781776 314.484824 426.571747 314.158892 C 427.361718 313.83296 426.875582 312.650766 426.875582 312.650766 L 403.159883 248.696272 M 402.474874 272.815242 C 402.132369 282.23965 407.92733 287.426941 407.176029 295.845931 C 406.413679 304.264921 411.037495 309.021319 412.114728 312.297212 C 413.180912 315.573105 410.949107 317.528698 411.915854 317.998261 C 412.877077 318.4623 414.987349 315.87694 414.296815 311.219979 C 413.611806 306.568542 410.076272 305.187475 410.904912 294.901281 C 411.739077 284.620611 406.700942 282.223077 407.92733 272.842864 " transform="matrix(-0.353553,0.353553,-0.353553,-0.353553,429.809704,71.966991)"/>
<path style="fill-rule:nonzero;fill:rgb(96.470588%,70.588235%,5.490196%);fill-opacity:1;stroke-width:1.112;stroke-linecap:butt;stroke-linejoin:miter;stroke:rgb(52.156863%,20.392157%,3.921569%);stroke-opacity:1;stroke-miterlimit:4;" d="M 396.835668 251.310709 L 425.294146 313.302991 C 425.294146 313.302991 425.784605 314.487064 426.570584 314.161501 C 427.366771 313.83171 426.876312 312.647637 426.876312 312.647637 L 403.154125 248.693519 M 402.475606 272.808573 C 402.129947 282.237802 407.931072 287.422793 407.174049 295.844467 C 406.417026 304.266141 411.042373 309.023302 412.11233 312.299316 C 413.182287 315.57533 410.950202 317.534331 411.915125 318.001664 C 412.875819 318.45879 414.986402 315.874441 414.298792 311.22623 C 413.606953 306.567811 410.079409 305.18276 410.904059 294.903368 C 411.738918 284.619748 406.70324 282.221023 407.924606 272.841644 " transform="matrix(-0.46194,0.191342,-0.191342,-0.46194,432.611336,163.948255)"/>
<path style=" stroke:none;fill-rule:nonzero;fill:rgb(52.156863%,20.392157%,3.921569%);fill-opacity:1;" d="M 187.796875 127.15625 C 183.269531 127.382812 181.261719 129.949219 177.136719 129.445312 C 180.402344 130.550781 182.929688 127.882812 187.746094 128.035156 M 199.625 124.210938 L 178.339844 133.953125 L 200.28125 125.789062 "/>
<path style=" stroke:none;fill-rule:nonzero;fill:rgb(52.156863%,20.392157%,3.921569%);fill-opacity:1;" d="M 187.898438 122.320312 C 183.628906 120.796875 180.796875 122.402344 177.175781 120.355469 C 179.769531 122.628906 183.125 121.128906 187.519531 123.113281 M 199.957031 124.128906 L 176.5625 124.980469 L 199.957031 125.835938 "/>
<path style=" stroke:none;fill-rule:nonzero;fill:rgb(52.156863%,20.392157%,3.921569%);fill-opacity:1;" d="M 189.847656 117.894531 C 186.484375 114.851562 183.253906 115.25 180.691406 111.976562 C 182.214844 115.066406 185.890625 114.96875 189.191406 118.480469 M 200.292969 124.175781 L 178.351562 116.015625 L 199.640625 125.757812 "/>
<path style=" stroke:none;fill-rule:nonzero;fill:rgb(52.156863%,20.392157%,3.921569%);fill-opacity:1;" d="M 193.339844 114.546875 C 191.398438 110.453125 188.257812 109.582031 187.144531 105.578125 C 187.371094 109.015625 190.804688 110.332031 192.507812 114.84375 M 200.585938 124.351562 L 183.4375 108.414062 L 199.378906 125.5625 "/>
<path style="fill-rule:nonzero;fill:rgb(96.470588%,70.588235%,5.490196%);fill-opacity:1;stroke-width:1.112;stroke-linecap:butt;stroke-linejoin:miter;stroke:rgb(52.156863%,20.392157%,3.921569%);stroke-opacity:1;stroke-miterlimit:4;" d="M 396.84375 251.3125 L 425.296875 313.304688 C 425.296875 313.304688 425.78125 314.484375 426.570312 314.164062 C 427.367187 313.835938 426.875 312.648438 426.875 312.648438 L 403.15625 248.695312 M 402.476562 272.8125 C 402.132812 282.242188 407.929687 287.429688 407.171875 295.84375 C 406.414062 304.265625 411.039062 309.023438 412.109375 312.296875 C 413.1875 315.570312 410.953125 317.53125 411.914062 318 C 412.875 318.460938 414.984375 315.875 414.296875 311.21875 C 413.609375 306.570312 410.078125 305.1875 410.90625 294.898438 C 411.734375 284.617188 406.703125 282.226562 407.929687 272.84375 " transform="matrix(-0.5,0.000000000000000061,-0.000000000000000061,-0.5,400,250)"/>
<path style="fill-rule:nonzero;fill:rgb(96.470588%,70.588235%,5.490196%);fill-opacity:1;stroke-width:1.112;stroke-linecap:butt;stroke-linejoin:miter;stroke:rgb(52.156863%,20.392157%,3.921569%);stroke-opacity:1;stroke-miterlimit:4;" d="M 396.8386 251.309495 L 425.291298 313.304251 C 425.291298 313.304251 425.781612 314.487971 426.575571 314.159103 C 427.362312 313.833224 426.871999 312.649503 426.871999 312.649503 L 403.154182 248.693495 M 402.48053 272.810528 C 402.132679 282.239508 407.932546 287.422326 407.169124 295.848031 C 406.417148 304.260539 411.038197 309.026827 412.115483 312.301324 C 413.182562 315.571592 410.948896 317.528462 411.913657 317.999832 C 412.875429 318.463985 414.982413 315.874637 414.297438 311.219949 C 413.612462 306.56526 410.081685 305.186476 410.903684 294.901515 C 411.735891 284.620782 406.70123 282.224426 407.924576 272.847157 " transform="matrix(-0.46194,-0.191342,0.191342,-0.46194,336.940477,317.021628)"/>
<path style="fill-rule:nonzero;fill:rgb(96.470588%,70.588235%,5.490196%);fill-opacity:1;stroke-width:1.112;stroke-linecap:butt;stroke-linejoin:miter;stroke:rgb(52.156863%,20.392157%,3.921569%);stroke-opacity:1;stroke-miterlimit:4;" d="M 396.840117 251.314777 L 425.29564 313.30263 C 425.29564 313.30263 425.781776 314.484824 426.571747 314.158892 C 427.361718 313.83296 426.875582 312.650766 426.875582 312.650766 L 403.159883 248.696272 M 402.474874 272.815242 C 402.132369 282.23965 407.92733 287.426941 407.176029 295.845931 C 406.413679 304.264921 411.037495 309.021319 412.114728 312.297212 C 413.180912 315.573105 410.949107 317.528698 411.915854 317.998261 C 412.877077 318.4623 414.987349 315.87694 414.296815 311.219979 C 413.611806 306.568542 410.076272 305.187475 410.904912 294.901281 C 411.739077 284.620611 406.700942 282.223077 407.92733 272.842864 " transform="matrix(-0.353553,-0.353553,0.353553,-0.353553,253.033009,354.809704)"/>
<path style="fill-rule:nonzero;fill:rgb(96.470588%,70.588235%,5.490196%);fill-opacity:1;stroke-width:1.112;stroke-linecap:butt;stroke-linejoin:miter;stroke:rgb(52.156863%,20.392157%,3.921569%);stroke-opacity:1;stroke-miterlimit:4;" d="M 396.835668 251.310709 L 425.294146 313.302991 C 425.294146 313.302991 425.784605 314.487064 426.570584 314.161501 C 427.366771 313.83171 426.876312 312.647637 426.876312 312.647637 L 403.154125 248.693519 M 402.475606 272.808573 C 402.129947 282.237802 407.931072 287.422793 407.174049 295.844467 C 406.417026 304.266141 411.042373 309.023302 412.11233 312.299316 C 413.182287 315.57533 410.950202 317.534331 411.915125 318.001664 C 412.875819 318.45879 414.986402 315.874441 414.298792 311.22623 C 413.606953 306.567811 410.079409 305.18276 410.904059 294.903368 C 411.738918 284.619748 406.70324 282.221023 407.924606 272.841644 " transform="matrix(-0.191342,-0.46194,0.46194,-0.191342,161.051745,357.611336)"/>
<path style=" stroke:none;fill-rule:nonzero;fill:rgb(52.156863%,20.392157%,3.921569%);fill-opacity:1;" d="M 197.84375 112.796875 C 197.617188 108.269531 195.050781 106.261719 195.554688 102.136719 C 194.449219 105.402344 197.117188 107.929688 196.964844 112.746094 M 200.789062 124.625 L 191.046875 103.339844 L 199.210938 125.28125 "/>
<path style=" stroke:none;fill-rule:nonzero;fill:rgb(52.156863%,20.392157%,3.921569%);fill-opacity:1;" d="M 202.679688 112.898438 C 204.203125 108.628906 202.597656 105.796875 204.644531 102.175781 C 202.371094 104.769531 203.871094 108.125 201.886719 112.519531 M 200.871094 124.957031 L 200.019531 101.5625 L 199.164062 124.957031 "/>
<path style=" stroke:none;fill-rule:nonzero;fill:rgb(52.156863%,20.392157%,3.921569%);fill-opacity:1;" d="M 207.105469 114.847656 C 210.148438 111.484375 209.75 108.253906 213.023438 105.691406 C 209.933594 107.214844 210.03125 110.890625 206.519531 114.191406 M 200.824219 125.292969 L 208.984375 103.351562 L 199.242188 124.640625 "/>
<path style=" stroke:none;fill-rule:nonzero;fill:rgb(52.156863%,20.392157%,3.921569%);fill-opacity:1;" d="M 210.453125 118.339844 C 214.546875 116.398438 215.417969 113.257812 219.421875 112.144531 C 215.984375 112.371094 214.667969 115.804688 210.15625 117.507812 M 200.648438 125.585938 L 216.585938 108.4375 L 199.4375 124.378906 "/>
<path style="fill-rule:nonzero;fill:rgb(96.470588%,70.588235%,5.490196%);fill-opacity:1;stroke-width:1.112;stroke-linecap:butt;stroke-linejoin:miter;stroke:rgb(52.156863%,20.392157%,3.921569%);stroke-opacity:1;stroke-miterlimit:4;" d="M 396.84375 251.3125 L 425.296875 313.304688 C 425.296875 313.304688 425.78125 314.484375 426.570312 314.164062 C 427.367187 313.835938 426.875 312.648438 426.875 312.648438 L 403.15625 248.695312 M 402.476562 272.8125 C 402.132812 282.242188 407.929687 287.429688 407.171875 295.84375 C 406.414062 304.265625 411.039062 309.023438 412.109375 312.296875 C 413.1875 315.570312 410.953125 317.53125 411.914062 318 C 412.875 318.460938 414.984375 315.875 414.296875 311.21875 C 413.609375 306.570312 410.078125 305.1875 410.90625 294.898438 C 411.734375 284.617188 406.703125 282.226562 407.929687 272.84375 " transform="matrix(-0.000000000000000092,-0.5,0.5,-0.000000000000000092,75,325)"/>
<path style="fill-rule:nonzero;fill:rgb(96.470588%,70.588235%,5.490196%);fill-opacity:1;stroke-width:1.112;stroke-linecap:butt;stroke-linejoin:miter;stroke:rgb(52.156863%,20.392157%,3.921569%);stroke-opacity:1;stroke-miterlimit:4;" d="M 396.8386 251.309495 L 425.291298 313.304251 C 425.291298 313.304251 425.781612 314.487971 426.575571 314.159103 C 427.362312 313.833224 426.871999 312.649503 426.871999 312.649503 L 403.154182 248.693495 M 402.48053 272.810528 C 402.132679 282.239508 407.932546 287.422326 407.169124 295.848031 C 406.417148 304.260539 411.038197 309.026827 412.115483 312.301324 C 413.182562 315.571592 410.948896 317.528462 411.913657 317.999832 C 412.875429 318.463985 414.982413 315.874637 414.297438 311.219949 C 413.612462 306.56526 410.081685 305.186476 410.903684 294.901515 C 411.735891 284.620782 406.70123 282.224426 407.924576 272.847157 " transform="matrix(0.191342,-0.46194,0.46194,0.191342,7.978372,261.940477)"/>
<path style="fill-rule:nonzero;fill:rgb(96.470588%,70.588235%,5.490196%);fill-opacity:1;stroke-width:1.112;stroke-linecap:butt;stroke-linejoin:miter;stroke:rgb(52.156863%,20.392157%,3.921569%);stroke-opacity:1;stroke-miterlimit:4;" d="M 396.840117 251.314777 L 425.29564 313.30263 C 425.29564 313.30263 425.781776 314.484824 426.571747 314.158892 C 427.361718 313.83296 426.875582 312.650766 426.875582 312.650766 L 403.159883 248.696272 M 402.474874 272.815242 C 402.132369 282.23965 407.92733 287.426941 407.176029 295.845931 C 406.413679 304.264921 411.037495 309.021319 412.114728 312.297212 C 413.180912 315.573105 410.949107 317.528698 411.915854 317.998261 C 412.877077 318.4623 414.987349 315.87694 414.296815 311.219979 C 413.611806 306.568542 410.076272 305.187475 410.904912 294.901281 C 411.739077 284.620611 406.700942 282.223077 407.92733 272.842864 " transform="matrix(0.353553,-0.353553,0.353553,0.353553,-29.809704,178.033009)"/>
<path style="fill-rule:nonzero;fill:rgb(96.470588%,70.588235%,5.490196%);fill-opacity:1;stroke-width:1.112;stroke-linecap:butt;stroke-linejoin:miter;stroke:rgb(52.156863%,20.392157%,3.921569%);stroke-opacity:1;stroke-miterlimit:4;" d="M 396.835668 251.310709 L 425.294146 313.302991 C 425.294146 313.302991 425.784605 314.487064 426.570584 314.161501 C 427.366771 313.83171 426.876312 312.647637 426.876312 312.647637 L 403.154125 248.693519 M 402.475606 272.808573 C 402.129947 282.237802 407.931072 287.422793 407.174049 295.844467 C 406.417026 304.266141 411.042373 309.023302 412.11233 312.299316 C 413.182287 315.57533 410.950202 317.534331 411.915125 318.001664 C 412.875819 318.45879 414.986402 315.874441 414.298792 311.22623 C 413.606953 306.567811 410.079409 305.18276 410.904059 294.903368 C 411.738918 284.619748 406.70324 282.221023 407.924606 272.841644 " transform="matrix(0.46194,-0.191342,0.191342,0.46194,-32.611336,86.051745)"/>
<path style=" stroke:none;fill-rule:nonzero;fill:rgb(52.156863%,20.392157%,3.921569%);fill-opacity:1;" d="M 212.203125 122.84375 C 216.730469 122.617188 218.738281 120.050781 222.863281 120.554688 C 219.597656 119.449219 217.070312 122.117188 212.253906 121.964844 M 200.375 125.789062 L 221.660156 116.046875 L 199.71875 124.210938 "/>
<path style=" stroke:none;fill-rule:nonzero;fill:rgb(52.156863%,20.392157%,3.921569%);fill-opacity:1;" d="M 212.101562 127.679688 C 216.371094 129.203125 219.203125 127.597656 222.824219 129.644531 C 220.230469 127.371094 216.875 128.871094 212.480469 126.886719 M 200.042969 125.871094 L 223.4375 125.019531 L 200.042969 124.164062 "/>
<path style=" stroke:none;fill-rule:nonzero;fill:rgb(52.156863%,20.392157%,3.921569%);fill-opacity:1;" d="M 210.152344 132.105469 C 213.515625 135.148438 216.746094 134.75 219.308594 138.023438 C 217.785156 134.933594 214.109375 135.03125 210.808594 131.519531 M 199.707031 125.824219 L 221.648438 133.984375 L 200.359375 124.242188 "/>
<path style=" stroke:none;fill-rule:nonzero;fill:rgb(52.156863%,20.392157%,3.921569%);fill-opacity:1;" d="M 206.660156 135.453125 C 208.601562 139.546875 211.742188 140.417969 212.855469 144.421875 C 212.628906 140.984375 209.195312 139.667969 207.492188 135.15625 M 199.414062 125.648438 L 216.5625 141.585938 L 200.621094 124.4375 "/>
<path style="fill-rule:nonzero;fill:rgb(96.470588%,70.588235%,5.490196%);fill-opacity:1;stroke-width:1.5;stroke-linecap:butt;stroke-linejoin:miter;stroke:rgb(52.156863%,20.392157%,3.921569%);stroke-opacity:1;stroke-miterlimit:4;" d="M 427.78125 250 C 427.78125 265.34375 415.34375 277.78125 400 277.78125 C 384.65625 277.78125 372.21875 265.34375 372.21875 250 C 372.21875 234.65625 384.65625 222.21875 400 222.21875 C 415.34375 222.21875 427.78125 234.65625 427.78125 250 Z M 427.78125 250 " transform="matrix(0.5,0,0,0.5,0,0)"/>
<path style=" stroke:none;fill-rule:nonzero;fill:rgb(51.764706%,20.784314%,6.666667%);fill-opacity:1;" d="M 204.734375 122.03125 C 203.785156 122.03125 202.878906 122.441406 202.34375 123.296875 C 203.414062 124.257812 205.773438 124.363281 207.375 123.1875 C 173.359375 123.503906 145.523438 96.1875 145.203125 62.171875 C 144.886719 28.152344 172.203125 0.320312 206.21875 0 Z M 204.71875 122.25 C 205.640625 122.230469 206.503906 122.65625 206.625 123.078125 C 205.558594 124.253906 203.851562 124.148438 202.78125 123.296875 C 203.25 122.546875 204 122.261719 204.71875 122.25 Z M 204.71875 122.25 "/>
<path style=" stroke:none;fill-rule:nonzero;fill:rgb(52.156863%,20.392157%,3.921569%);fill-opacity:1;" d="M 204.914062 121.371094 C 203.527344 121.371094 203.207031 121.691406 202.566406 122.226562 C 201.921875 122.757812 201.601562 122.652344 201.496094 122.757812 C 201.390625 122.867188 201.496094 123.1875 201.710938 123.078125 C 201.921875 122.972656 202.351562 122.757812 202.992188 122.226562 C 203.632812 121.691406 204.273438 121.691406 204.914062 121.691406 C 206.835938 121.691406 207.90625 123.292969 208.121094 123.1875 C 208.332031 123.078125 207.050781 121.371094 204.914062 121.371094 Z M 204.914062 121.371094 "/>
<path style=" stroke:none;fill-rule:nonzero;fill:rgb(52.156863%,20.392157%,3.921569%);fill-opacity:1;" d="M 208.761719 122.011719 C 206.300781 119.875 203.203125 119.550781 201.496094 121.15625 C 201.078125 121.714844 200.808594 122.316406 200.699219 122.941406 C 200.484375 124.15625 200.863281 125.472656 201.816406 126.820312 C 201.710938 126.816406 201.496094 126.925781 201.386719 127.03125 C 200.539062 125.410156 200.238281 123.742188 200.519531 122.160156 C 234.25 122.496094 261.871094 95.421875 262.207031 61.6875 C 262.542969 27.957031 235.46875 0.335938 201.738281 0 C 204.085938 -1.921875 207.292969 -2.136719 209.640625 1.070312 Z M 208.761719 122.011719 "/>
<path style=" stroke:none;fill-rule:nonzero;fill:rgb(52.156863%,20.392157%,3.921569%);fill-opacity:1;" d="M 205.664062 123.074219 C 205.664062 123.605469 205.230469 124.035156 204.699219 124.035156 C 204.171875 124.035156 203.738281 123.605469 203.738281 123.074219 C 203.738281 122.542969 204.171875 122.113281 204.699219 122.113281 C 205.230469 122.113281 205.664062 122.542969 205.664062 123.074219 Z M 205.664062 123.074219 "/>
<path style=" stroke:none;fill-rule:nonzero;fill:rgb(52.156863%,20.392157%,3.921569%);fill-opacity:1;" d="M 207.480469 123.71875 C 205.664062 125.109375 203.847656 125.003906 202.777344 124.359375 C 201.710938 123.71875 201.710938 123.507812 201.925781 123.507812 C 202.136719 123.507812 202.351562 123.71875 203.207031 124.148438 C 204.0625 124.574219 205.34375 124.574219 207.480469 123.71875 Z M 207.480469 123.71875 "/>
<path style=" stroke:none;fill-rule:nonzero;fill:rgb(52.156863%,20.392157%,3.921569%);fill-opacity:1;" d="M 197.875 126.921875 C 197.417969 127.003906 197.09375 127.410156 197.09375 127.871094 C 197.09375 128.402344 197.53125 128.824219 198.0625 128.824219 C 162.488281 147.945312 118.148438 134.605469 99.03125 99.03125 C 79.914062 63.457031 93.25 19.117188 128.824219 0 C 129.195312 0.277344 129.707031 0.308594 129.980469 0.3125 C 130.023438 0.3125 130.078125 0.3125 130.105469 0.3125 C 130.382812 0.308594 130.894531 0.277344 131.261719 0 C 131.445312 0.257812 131.730469 0.40625 132.042969 0.40625 C 132.574219 0.40625 133.011719 -0.015625 133.011719 -0.546875 C 133.011719 -1.011719 132.6875 -1.417969 132.230469 -1.5 C 132.488281 -1.410156 132.652344 -1.160156 132.652344 -0.890625 C 132.777344 -1.179688 133.09375 -1.335938 133.394531 -1.257812 C 133.699219 -1.183594 133.90625 -0.898438 133.878906 -0.585938 C 133.855469 -0.273438 133.605469 -0.0273438 133.292969 0 C 132.953125 0 132.671875 -0.269531 132.652344 -0.609375 C 132.550781 -0.402344 132.136719 0.21875 131.324219 0.25 C 130.515625 0.21875 130.101562 -0.402344 129.996094 -0.609375 C 129.976562 -0.269531 129.699219 0 129.355469 0 C 129.609375 0.144531 129.730469 0.441406 129.65625 0.71875 C 129.578125 1 129.328125 1.195312 129.035156 1.195312 C 128.746094 1.195312 128.492188 1 128.417969 0.71875 C 128.34375 0.441406 128.464844 0.144531 128.714844 0 C 128.714844 -0.269531 128.882812 -0.519531 129.136719 -0.609375 Z M 198.921875 129.765625 C 197.851562 129.765625 197.429688 130.734375 196.46875 131.375 C 197 131.160156 197.421875 130.738281 198.171875 130.3125 C 198.917969 129.882812 199.554688 130.40625 199.984375 130.40625 L 199.996094 130.40625 C 200.425781 130.40625 201.0625 129.886719 201.808594 130.3125 C 202.558594 130.738281 202.996094 131.160156 203.53125 131.375 C 202.566406 130.734375 202.128906 129.765625 201.058594 129.765625 C 200.847656 129.765625 200.425781 129.878906 199.996094 130.09375 L 199.984375 130.09375 C 199.554688 129.878906 199.132812 129.765625 198.921875 129.765625 Z M 198.921875 129.765625 "/>
<path style=" stroke:none;fill-rule:nonzero;fill:rgb(52.156863%,20.392157%,3.921569%);fill-opacity:1;" d="M 198.558594 131.03125 C 198.136719 131.046875 197.578125 131.132812 196.777344 131.375 C 198.703125 130.945312 199.128906 131.59375 199.980469 131.59375 L 199.996094 131.59375 C 200.851562 131.59375 201.277344 130.945312 203.199219 131.375 C 201.0625 130.734375 200.636719 131.15625 199.996094 131.15625 L 199.980469 131.15625 C 199.582031 131.15625 199.261719 131 198.558594 131.03125 Z M 198.558594 131.03125 "/>
<path style=" stroke:none;fill-rule:nonzero;fill:rgb(52.156863%,20.392157%,3.921569%);fill-opacity:1;" d="M 196.875 131.359375 C 196.75 131.363281 196.617188 131.363281 196.46875 131.375 C 198.710938 131.589844 197.632812 132.875 199.984375 132.875 L 200 132.875 C 202.351562 132.875 201.285156 131.589844 203.53125 131.375 C 201.179688 131.164062 201.925781 132.546875 200 132.546875 L 199.984375 132.546875 C 198.179688 132.546875 198.738281 131.335938 196.875 131.359375 Z M 201.925781 134.828125 C 201.925781 135.890625 201.0625 136.753906 200.003906 136.753906 L 201.980469 138.730469 L 201.980469 145.65625 Z M 201.925781 134.828125 "/>
<path style=" stroke:none;fill-rule:nonzero;fill:rgb(52.156863%,20.392157%,3.921569%);fill-opacity:1;" d="M 191.363281 122.011719 C 193.824219 119.875 196.921875 119.550781 198.628906 121.15625 C 199.046875 121.714844 199.316406 122.316406 199.425781 122.941406 C 199.640625 124.15625 199.261719 125.472656 198.308594 126.820312 C 198.414062 126.816406 198.628906 126.925781 198.738281 127.03125 C 199.585938 125.410156 199.886719 123.742188 199.605469 122.160156 C 165.875 122.496094 138.253906 95.421875 137.917969 61.6875 C 137.582031 27.957031 164.65625 0.335938 198.386719 0 C 196.039062 -1.921875 192.832031 -2.136719 190.484375 1.070312 Z M 191.363281 122.011719 "/>
<path style=" stroke:none;fill-rule:nonzero;fill:rgb(52.156863%,20.392157%,3.921569%);fill-opacity:1;" d="M 195.210938 121.371094 C 196.597656 121.371094 196.917969 121.691406 197.558594 122.226562 C 198.203125 122.757812 198.523438 122.652344 198.628906 122.757812 C 198.734375 122.867188 198.628906 123.1875 198.414062 123.078125 C 198.203125 122.972656 197.773438 122.757812 197.132812 122.226562 C 196.492188 121.691406 195.851562 121.691406 195.210938 121.691406 C 193.289062 121.691406 192.21875 123.292969 192.003906 123.1875 C 191.792969 123.078125 193.074219 121.371094 195.210938 121.371094 Z M 195.210938 121.371094 "/>
<path style=" stroke:none;fill-rule:nonzero;fill:rgb(51.764706%,20.784314%,6.666667%);fill-opacity:1;" d="M 195.144531 122.03125 C 194.195312 122.03125 193.289062 122.441406 192.753906 123.296875 C 193.820312 124.257812 196.183594 124.363281 197.785156 123.1875 C 163.769531 123.503906 135.933594 96.1875 135.613281 62.171875 C 135.292969 28.152344 162.613281 0.320312 196.628906 0 Z M 195.128906 122.25 C 196.050781 122.230469 196.914062 122.65625 197.035156 123.078125 C 195.96875 124.253906 194.261719 124.148438 193.191406 123.296875 C 193.660156 122.546875 194.410156 122.261719 195.128906 122.25 Z M 195.128906 122.25 "/>
<path style=" stroke:none;fill-rule:nonzero;fill:rgb(52.156863%,20.392157%,3.921569%);fill-opacity:1;" d="M 196.230469 123.074219 C 196.230469 123.605469 195.800781 124.035156 195.269531 124.035156 C 194.738281 124.035156 194.308594 123.605469 194.308594 123.074219 C 194.308594 122.542969 194.738281 122.113281 195.269531 122.113281 C 195.800781 122.113281 196.230469 122.542969 196.230469 123.074219 Z M 196.230469 123.074219 "/>
<path style=" stroke:none;fill-rule:nonzero;fill:rgb(52.156863%,20.392157%,3.921569%);fill-opacity:1;" d="M 192.644531 123.71875 C 194.460938 125.109375 196.277344 125.003906 197.347656 124.359375 C 198.414062 123.71875 198.414062 123.507812 198.199219 123.507812 C 197.988281 123.507812 197.773438 123.71875 196.917969 124.148438 C 196.0625 124.574219 194.78125 124.574219 192.644531 123.71875 Z M 192.644531 123.71875 "/>
</g>
</svg>
