<?xml version="1.0" encoding="UTF-8"?>
<svg xmlns="http://www.w3.org/2000/svg" xmlns:xlink="http://www.w3.org/1999/xlink" width="px" height="px" viewBox="0 0 750 500" version="1.1">
<g id="surface1">
<rect x="0" y="0" width="750" height="500" style="fill:rgb(0%,14.901961%,49.803922%);fill-opacity:1;stroke:none;"/>
<path style=" stroke:none;fill-rule:nonzero;fill:rgb(100%,78.039216%,14.901961%);fill-opacity:1;" d="M 250 0 L 500 0 L 500 500 L 250 500 Z M 250 0 "/>
<path style=" stroke:none;fill-rule:nonzero;fill:rgb(0%,0%,0%);fill-opacity:1;" d="M 375 128.875 C 366.875 151.03125 358.59375 174.09375 340.875 191.75 C 346.375 189.9375 356 188.3125 362.1875 188.46875 L 362.1875 281.65625 L 335.875 285.5625 C 334.9375 285.46875 334.625 284 334.625 282 C 332.09375 253.0625 325.25 228.75 317.375 203.59375 C 316.8125 200.15625 306.84375 187.03125 314.53125 189.34375 C 315.46875 189.46875 325.75 193.65625 324.125 191.65625 C 310.125 177.15625 289.65625 166.71875 269.78125 163.625 C 268.03125 163.1875 267 164.0625 268.5625 166.09375 C 294.9375 206.6875 317 254.59375 316.8125 311.4375 C 327.0625 311.4375 351.90625 305.375 362.1875 305.375 L 362.1875 371.125 L 375.15625 371.125 L 378.125 187.5 Z M 375 128.875 "/>
<path style=" stroke:none;fill-rule:nonzero;fill:rgb(0%,0%,0%);fill-opacity:1;" d="M 375 128.875 C 383.125 151.03125 391.40625 174.09375 409.125 191.75 C 403.625 189.9375 394 188.3125 387.8125 188.46875 L 387.8125 281.65625 L 414.125 285.5625 C 415.0625 285.46875 415.375 284 415.375 282 C 417.90625 253.0625 424.75 228.75 432.625 203.59375 C 433.1875 200.15625 443.15625 187.03125 435.46875 189.34375 C 434.53125 189.46875 424.25 193.65625 425.875 191.65625 C 439.875 177.15625 460.34375 166.71875 480.21875 163.625 C 481.96875 163.1875 483 164.0625 481.4375 166.09375 C 455.0625 206.6875 433 254.59375 433.1875 311.4375 C 422.9375 311.4375 398.09375 305.375 387.8125 305.375 L 387.8125 371.125 L 374.84375 371.125 L 371.875 187.5 Z M 375 128.875 "/>
</g>
</svg>
