<?xml version="1.0" encoding="UTF-8"?>
<svg xmlns="http://www.w3.org/2000/svg" xmlns:xlink="http://www.w3.org/1999/xlink" width="px" height="px" viewBox="0 0 450 300" version="1.1">
<g id="surface1">
<rect x="0" y="0" width="450" height="300" style="fill:rgb(0%,61.960784%,28.627451%);fill-opacity:1;stroke:none;"/>
<path style=" stroke:none;fill-rule:nonzero;fill:rgb(93.72549%,16.862745%,17.647059%);fill-opacity:1;" d="M 0 0 L 450 0 L 450 150 L 0 150 Z M 0 0 "/>
<path style=" stroke:none;fill-rule:nonzero;fill:rgb(98.823529%,81.960784%,8.627451%);fill-opacity:1;" d="M 225 100 L 209.550781 147.554688 L 233.324219 155.277344 "/>
<path style=" stroke:none;fill-rule:nonzero;fill:rgb(98.823529%,81.960784%,8.627451%);fill-opacity:1;" d="M 225 100 L 240.449219 147.554688 L 216.675781 155.277344 "/>
<path style=" stroke:none;fill-rule:nonzero;fill:rgb(98.823529%,81.960784%,8.627451%);fill-opacity:1;" d="M 272.554688 134.550781 L 222.554688 134.550781 L 222.554688 159.550781 "/>
<path style=" stroke:none;fill-rule:nonzero;fill:rgb(98.823529%,81.960784%,8.627451%);fill-opacity:1;" d="M 272.554688 134.550781 L 232.101562 163.9375 L 217.40625 143.714844 "/>
<path style=" stroke:none;fill-rule:nonzero;fill:rgb(98.823529%,81.960784%,8.627451%);fill-opacity:1;" d="M 254.390625 190.449219 L 238.9375 142.898438 L 215.160156 150.625 "/>
<path style=" stroke:none;fill-rule:nonzero;fill:rgb(98.823529%,81.960784%,8.627451%);fill-opacity:1;" d="M 254.390625 190.449219 L 213.9375 161.0625 L 228.632812 140.835938 "/>
<path style=" stroke:none;fill-rule:nonzero;fill:rgb(98.823529%,81.960784%,8.627451%);fill-opacity:1;" d="M 195.609375 190.449219 L 236.0625 161.0625 L 221.367188 140.835938 "/>
<path style=" stroke:none;fill-rule:nonzero;fill:rgb(98.823529%,81.960784%,8.627451%);fill-opacity:1;" d="M 195.609375 190.449219 L 211.0625 142.898438 L 234.839844 150.625 "/>
<path style=" stroke:none;fill-rule:nonzero;fill:rgb(98.823529%,81.960784%,8.627451%);fill-opacity:1;" d="M 177.445312 134.550781 L 217.898438 163.9375 L 232.59375 143.714844 "/>
<path style=" stroke:none;fill-rule:nonzero;fill:rgb(98.823529%,81.960784%,8.627451%);fill-opacity:1;" d="M 177.445312 134.550781 L 227.445312 134.550781 L 227.445312 159.550781 "/>
</g>
</svg>
