<?xml version="1.0" encoding="UTF-8"?>
<svg xmlns="http://www.w3.org/2000/svg" xmlns:xlink="http://www.w3.org/1999/xlink" width="px" height="px" viewBox="0 0 500 250" version="1.1">
<g id="surface1">
<rect x="0" y="0" width="500" height="250" style="fill:rgb(78.431373%,6.27451%,18.039216%);fill-opacity:1;stroke:none;"/>
<path style=" stroke:none;fill-rule:nonzero;fill:rgb(0.392157%,12.941176%,41.176471%);fill-opacity:1;" d="M 0 0 L 250 0 L 250 125 L 0 125 Z M 0 0 "/>
<path style=" stroke:none;fill-rule:nonzero;fill:rgb(100%,100%,100%);fill-opacity:1;" d="M 0 0 L 0 13.976562 L 222.050781 125 L 250 125 L 250 111.023438 L 27.949219 0 Z M 250 0 L 250 13.976562 L 27.949219 125 L 0 125 L 0 111.023438 L 222.050781 0 Z M 250 0 "/>
<path style=" stroke:none;fill-rule:nonzero;fill:rgb(100%,100%,100%);fill-opacity:1;" d="M 104.167969 0 L 104.167969 125 L 145.832031 125 L 145.832031 0 Z M 0 41.667969 L 0 83.332031 L 250 83.332031 L 250 41.667969 Z M 0 41.667969 "/>
<path style=" stroke:none;fill-rule:nonzero;fill:rgb(78.431373%,6.27451%,18.039216%);fill-opacity:1;" d="M 0 50 L 0 75 L 250 75 L 250 50 Z M 112.5 0 L 112.5 125 L 137.5 125 L 137.5 0 Z M 0 125 L 83.332031 83.332031 L 101.964844 83.332031 L 18.632812 125 Z M 0 0 L 83.332031 41.667969 L 64.699219 41.667969 L 0 9.316406 Z M 148.035156 41.667969 L 231.367188 0 L 250 0 L 166.667969 41.667969 Z M 250 125 L 166.667969 83.332031 L 185.300781 83.332031 L 250 115.683594 Z M 250 125 "/>
<path style=" stroke:none;fill-rule:nonzero;fill:rgb(100%,100%,100%);fill-opacity:1;" d="M 432.679688 53.332031 L 432.679688 159.199219 C 432.679688 187.480469 376.148438 196.667969 376.148438 196.667969 C 376.148438 196.667969 319.617188 187.480469 319.617188 159.199219 L 319.617188 53.332031 Z M 432.679688 53.332031 "/>
<path style=" stroke:none;fill-rule:nonzero;fill:rgb(18.431373%,56.078431%,13.333333%);fill-opacity:1;" d="M 432.679688 159.199219 C 432.679688 187.480469 376.148438 196.667969 376.148438 196.667969 C 376.148438 196.667969 319.617188 187.480469 319.617188 159.199219 C 319.617188 159.199219 319.617188 156.921875 320.769531 155.628906 C 320.769531 155.628906 320.144531 160.332031 323.757812 163.890625 C 323.757812 163.890625 320.925781 158.871094 323.695312 153.9375 C 323.695312 153.9375 322.667969 160.285156 326.625 163.929688 C 326.625 163.929688 324.445312 158.746094 326.90625 152.964844 C 326.90625 152.964844 325.691406 162.421875 329.988281 164.304688 C 329.988281 164.304688 331.171875 158.871094 329.460938 155.382812 C 329.460938 155.382812 332.417969 156.578125 332.261719 164.460938 C 332.261719 164.460938 333.199219 163.300781 333.445312 157.613281 C 333.445312 157.613281 333.570312 164.117188 335.816406 165.625 C 335.816406 165.625 336.5 164.964844 335.566406 162.011719 C 334.632812 159.058594 335.96875 158.023438 336.1875 158.085938 C 336.1875 158.085938 335.695312 161.351562 338.433594 163.800781 C 338.433594 163.800781 337.246094 158.679688 338.898438 157.992188 C 338.898438 157.992188 338.554688 162.324219 341.984375 163.300781 C 341.984375 163.300781 342.230469 162.042969 341.484375 160.628906 C 341.484375 160.628906 340.832031 158.953125 341.328125 157.671875 C 341.328125 157.671875 342.417969 161.601562 343.914062 162.261719 C 343.914062 162.261719 343.011719 159.957031 343.851562 157.671875 C 343.851562 157.671875 344.039062 160.945312 346.964844 162.292969 C 346.964844 162.292969 345.039062 159.761719 345.800781 156.972656 L 364.628906 157.894531 L 374.378906 158.359375 L 403.628906 156.292969 L 408.675781 151.960938 C 408.675781 151.960938 410.671875 154.722656 407.523438 159.089844 C 407.523438 159.089844 410.640625 158.523438 411.636719 153.65625 C 411.636719 153.65625 412.914062 156.355469 411.167969 159.339844 C 411.167969 159.339844 414.628906 155.886719 415.125 151.960938 C 415.125 151.960938 416.464844 155.761719 413.195312 159.84375 C 413.195312 159.84375 416.121094 158.871094 417.367188 154.535156 C 417.367188 154.535156 418.363281 157.144531 415.53125 160.835938 C 415.53125 160.835938 420.824219 158.023438 420.671875 152.210938 C 420.671875 152.210938 422.882812 155.414062 420.359375 159.8125 C 420.359375 159.8125 423.070312 157.394531 423.316406 153.78125 C 423.316406 153.78125 424.8125 155.414062 423.195312 159.90625 C 423.195312 159.90625 426.496094 156.796875 426.992188 153.433594 C 426.992188 153.433594 427.710938 156.546875 424.875 160.472656 C 424.875 160.472656 426.808594 160 428.644531 156.167969 C 428.644531 156.167969 429.144531 157.675781 427.460938 160.441406 C 427.460938 160.441406 429.269531 160.125 430.484375 156.671875 C 430.484375 156.671875 430.699219 158.746094 430.171875 160.597656 C 430.171875 160.597656 431.574219 159.6875 431.886719 155.761719 C 431.886719 155.761719 432.667969 157.046875 432.679688 158.648438 C 432.695312 160.253906 432.679688 159.199219 432.679688 159.199219 Z M 432.679688 159.199219 "/>
<path style="fill-rule:nonzero;fill:rgb(78.431373%,6.27451%,18.039216%);fill-opacity:1;stroke-width:0.831;stroke-linecap:butt;stroke-linejoin:round;stroke:rgb(0%,0%,0%);stroke-opacity:1;stroke-miterlimit:4;" d="M 807.140625 196 C 807.140625 196 803.210938 196.664062 798.164062 195.132812 C 793.117188 193.59375 791.078125 194.21875 789.515625 195.132812 C 789.515625 195.132812 791.5625 191.070312 786.578125 187.875 C 786.578125 187.875 788.195312 191.96875 785.953125 193.875 C 785.953125 193.875 784.953125 194.8125 783.773438 193.40625 C 783.773438 193.40625 782.03125 191.609375 780.1875 190.226562 C 780.1875 190.226562 784.429688 188.757812 783.648438 184.453125 C 782.867188 180.148438 780.5625 179.578125 779.320312 179.046875 C 779.320312 179.046875 779.757812 180.992188 779.320312 182.3125 C 779.320312 182.3125 774.710938 179.734375 780.96875 176.09375 C 787.226562 172.453125 786.078125 170.3125 784.953125 168.460938 C 783.835938 166.609375 781.4375 164.5625 780.25 163.84375 C 780.25 163.84375 781.5 165.789062 781.28125 167.453125 C 781.0625 169.117188 778.226562 170.1875 778.789062 167.265625 C 779.351562 164.34375 778.757812 164.851562 778.695312 161.734375 C 778.695312 161.734375 784.273438 163.625 786.453125 158.1875 C 786.453125 158.1875 788.601562 152.5625 781.5625 149.765625 C 781.5625 149.765625 783.273438 152.0625 782.429688 153.789062 C 782.429688 153.789062 780.9375 156.617188 779.164062 154.320312 C 777.382812 152.03125 776.265625 151.59375 776.453125 148.890625 C 776.453125 148.890625 782.835938 149.765625 781.09375 142.828125 C 781.09375 142.828125 780.0625 147.445312 771.78125 141.226562 C 771.78125 141.226562 777.171875 135.695312 775.078125 131.234375 C 775.078125 131.234375 774.429688 129.195312 768.570312 130.382812 C 768.570312 130.382812 773.648438 127.179688 771.5 124.445312 C 771.5 124.445312 770.40625 122.625 765.671875 125.015625 C 765.671875 125.015625 767.507812 121.84375 762.867188 118.414062 C 762.867188 118.414062 759.757812 120.054688 758.101562 121.554688 C 758.101562 121.554688 754.929688 117.539062 752.898438 115.9375 C 752.898438 115.9375 749.226562 117.351562 748.289062 121.554688 C 748.289062 121.554688 746.578125 119.515625 742.6875 118.570312 C 742.6875 118.570312 740.8125 122.03125 743.242188 125.046875 C 743.242188 125.046875 741.4375 124.984375 738.132812 123.539062 C 738.132812 123.539062 734.367188 121.742188 734.929688 124.984375 C 735.484375 128.21875 735.765625 128.9375 736.515625 130.445312 C 736.515625 130.445312 728.054688 128.484375 728.414062 133.054688 C 728.664062 136.226562 729.851562 138.960938 732.46875 141.257812 C 732.46875 141.257812 727.734375 147.445312 723.679688 142.796875 C 723.679688 142.796875 722.28125 144.304688 725.304688 148.257812 C 725.304688 148.257812 728.320312 151.585938 725.828125 153.695312 C 725.828125 153.695312 722.5 156.367188 720.882812 151.179688 C 720.882812 151.179688 715.492188 156.554688 721.84375 160.671875 C 721.84375 160.671875 725.929688 162.992188 730.101562 159.414062 C 730.101562 159.414062 728.820312 169.71875 724.835938 167.734375 C 724.835938 167.734375 722.4375 165.976562 726.734375 163.875 C 726.734375 163.875 720.539062 163.085938 719.539062 169.085938 C 719.539062 169.085938 718.773438 173.859375 724.179688 175.59375 C 724.179688 175.59375 728.351562 177.101562 724.023438 180.335938 C 724.023438 180.335938 720.96875 182.65625 722.96875 186.117188 C 722.96875 186.117188 725.367188 189.914062 719.289062 190.289062 C 719.289062 190.289062 715.984375 190.257812 714.804688 189.820312 C 714.804688 189.820312 713.46875 192.296875 714.398438 195.125 C 714.398438 195.125 711.375 192.875 704.492188 195.367188 C 697.609375 197.859375 698.140625 196.101562 697.578125 196.859375 C 697.015625 197.609375 695.679688 200.15625 695.679688 200.15625 C 695.679688 200.15625 699.289062 204.554688 699.351562 204.460938 C 699.414062 204.367188 698.664062 209.484375 698.664062 209.484375 L 700.445312 210.335938 L 714.617188 204.023438 L 729.007812 196.523438 L 740.578125 197.226562 L 747.921875 198.976562 L 757.554688 199.679688 L 764.460938 195.992188 L 774.460938 195.992188 L 785.453125 201.476562 L 798.007812 208.96875 L 804.554688 210.109375 L 809.59375 209.84375 L 809.59375 199.679688 Z M 807.140625 196 " transform="matrix(0.5,0,0,0.5,0,0)"/>
<path style="fill-rule:nonzero;fill:rgb(78.431373%,6.27451%,18.039216%);fill-opacity:1;stroke-width:0.831;stroke-linecap:butt;stroke-linejoin:round;stroke:rgb(0%,0%,0%);stroke-opacity:1;stroke-miterlimit:4;" d="M 692.976562 207.882812 C 692.976562 207.882812 698.453125 210.679688 700.742188 207.289062 C 700.742188 207.289062 703.734375 201.585938 697.171875 199.609375 C 697.171875 199.609375 700.742188 195.320312 696.914062 191.359375 C 696.914062 191.359375 694.90625 189.242188 691.398438 190.796875 C 691.398438 190.796875 689.953125 187.78125 686.539062 187.875 C 686.539062 187.875 683.546875 187.828125 682.523438 191.125 C 682.523438 191.125 678.40625 189.429688 676.117188 191.882812 C 676.117188 191.882812 672.335938 196.117188 677.617188 199.46875 L 681.414062 199.8125 L 685.15625 198.085938 L 689.328125 199.28125 C 689.328125 199.28125 688.257812 203.507812 692.976562 207.882812 Z M 692.976562 207.882812 " transform="matrix(0.5,0,0,0.5,0,0)"/>
<path style="fill-rule:nonzero;fill:rgb(39.215686%,70.588235%,81.960784%);fill-opacity:1;stroke-width:0.623;stroke-linecap:butt;stroke-linejoin:miter;stroke:rgb(0%,0%,0%);stroke-opacity:1;stroke-miterlimit:4;" d="M 815.359375 197.859375 C 821.960938 197.234375 824.296875 202.8125 824.296875 202.8125 C 827.757812 210.929688 820.40625 215.265625 820.40625 215.265625 C 820.96875 217.09375 821.03125 219.476562 821.03125 219.476562 C 831.367188 220.734375 829.5625 232.359375 829.5625 232.359375 L 826.140625 229.53125 C 820.15625 227.203125 813.992188 232.296875 809.5625 240.84375 C 805.140625 249.382812 807.257812 253.40625 808.007812 263.523438 C 808.757812 273.632812 825.203125 279.671875 825.203125 279.671875 C 825.203125 279.671875 817.414062 299.710938 812.367188 312.59375 C 807.320312 325.46875 796.796875 320.132812 793.742188 317.414062 C 790.6875 314.703125 789.921875 316.210938 788.382812 317.414062 C 786.84375 318.625 795.296875 325.21875 779.90625 331.4375 C 764.523438 337.65625 761.84375 342.429688 759.289062 344.007812 C 756.734375 345.578125 746.078125 344.507812 745.023438 343.1875 C 743.960938 341.867188 744.585938 341.867188 740.601562 339.414062 C 736.609375 336.96875 729.882812 334.828125 722.53125 331.25 C 715.179688 327.671875 715.367188 323.078125 715.429688 322.140625 C 715.492188 321.195312 717.984375 313.53125 709.375 319.625 C 700.765625 325.71875 693.4375 316.726562 693.4375 316.726562 C 691.75 314.515625 684.585938 295.3125 684.585938 295.3125 C 682.65625 288.148438 678.859375 279.796875 678.859375 279.796875 C 679.046875 279.726562 678.484375 280.671875 684.835938 277.03125 C 691.195312 273.382812 694.039062 267.320312 696.234375 261.320312 C 698.4375 255.320312 696.296875 245.046875 695.492188 242.976562 C 694.679688 240.90625 689.945312 231.398438 684.078125 229.40625 C 678.21875 227.414062 674.289062 232.359375 674.289062 232.359375 C 674.289062 232.359375 672.476562 220.734375 682.820312 219.476562 C 682.820312 219.476562 682.882812 217.09375 683.445312 215.265625 C 683.445312 215.265625 676.09375 210.9375 679.554688 202.8125 C 679.554688 202.8125 681.882812 197.234375 688.492188 197.859375 L 686.890625 200.882812 C 686.890625 200.882812 685.226562 217.46875 709.507812 206.34375 C 733.789062 195.226562 733.0625 193.15625 746.890625 200.125 L 756.984375 199.9375 C 756.984375 199.9375 771.5625 193.195312 776.234375 196.09375 C 780.90625 199 797.726562 208.421875 797.726562 208.421875 C 797.726562 208.421875 813.992188 214.515625 817.164062 203.273438 Z M 815.359375 197.859375 " transform="matrix(0.5,0,0,0.5,0,0)"/>
<path style="fill-rule:nonzero;fill:rgb(100%,100%,100%);fill-opacity:1;stroke-width:0.831;stroke-linecap:butt;stroke-linejoin:miter;stroke:rgb(0.392157%,12.941176%,41.176471%);stroke-opacity:1;stroke-miterlimit:10;" d="M 742.3125 269.773438 C 742.3125 269.773438 741.46875 264.679688 740.578125 261.382812 C 740.578125 261.382812 738.773438 256.210938 741.851562 252.578125 L 745.664062 248.1875 C 745.664062 248.1875 748.03125 245.007812 750.96875 244.570312 C 750.96875 244.570312 753.898438 244.484375 754.179688 243.890625 C 754.460938 243.289062 757.664062 238.007812 765.296875 243.890625 C 765.296875 243.890625 767.726562 239.992188 771.46875 239.328125 C 771.46875 239.328125 775.507812 238.109375 777.460938 241.125 C 777.460938 241.125 781.992188 237.679688 785.890625 243.21875 C 785.890625 243.21875 791.28125 240.1875 795.203125 246.21875 C 795.203125 246.21875 800.53125 243.617188 803.804688 249.15625 C 807.070312 254.695312 806.421875 256.953125 806.421875 256.953125 L 808.84375 265.75 L 817.445312 276.367188 L 797.445312 283.90625 L 788.476562 283.90625 L 770.53125 288.71875 L 738.664062 291.164062 L 729.789062 280.703125 Z M 742.3125 269.773438 " transform="matrix(0.5,0,0,0.5,0,0)"/>
<path style="fill-rule:nonzero;fill:rgb(78.431373%,6.27451%,18.039216%);fill-opacity:1;stroke-width:0.831;stroke-linecap:butt;stroke-linejoin:round;stroke:rgb(0%,0%,0%);stroke-opacity:1;stroke-miterlimit:4;" d="M 715.375 322.734375 C 715.375 322.734375 710.609375 323.015625 708.179688 324.242188 C 705.75 325.46875 703.882812 326.789062 701.078125 328.578125 C 701.078125 328.578125 699.765625 330.320312 694.257812 329.265625 C 694.257812 329.265625 684.71875 326.976562 684.71875 334.421875 C 684.71875 334.421875 673.320312 335.367188 677.992188 345.351562 C 677.992188 345.351562 681.171875 353.179688 687.710938 347.617188 C 687.710938 347.617188 683.507812 353.648438 691.640625 356.007812 C 691.640625 356.007812 697.429688 357.421875 699.109375 351.476562 C 699.109375 351.476562 700.046875 349.125 697.804688 346.203125 C 697.804688 346.203125 700.609375 345.640625 702.570312 342.617188 C 702.570312 342.617188 696.59375 350.179688 703.132812 352.90625 C 703.132812 352.90625 711.351562 354.96875 711.820312 346.390625 C 711.820312 346.390625 711.148438 342.429688 714.335938 341.015625 C 714.335938 341.015625 720.890625 339.507812 723.875 332.203125 C 723.882812 332.203125 714.460938 327.1875 715.375 322.734375 Z M 696.125 247.570312 C 696.125 247.570312 688.773438 244.179688 685.289062 247.570312 C 685.289062 247.570312 680.429688 244.5625 675.320312 247.570312 C 675.320312 247.570312 670.460938 250.742188 667.09375 254.242188 C 667.09375 254.242188 664.726562 256.265625 665.601562 262.65625 C 665.601562 262.65625 666.84375 267.164062 666.09375 269.429688 C 666.09375 269.429688 664.476562 269.101562 661.234375 272.945312 C 661.234375 272.945312 657.125 277.703125 653.515625 273.5 C 653.515625 273.5 654.632812 279.351562 661.421875 278.40625 C 661.421875 278.40625 658.125 280.984375 660.984375 287.648438 C 660.984375 287.648438 663.109375 292.359375 659.742188 298.265625 C 659.742188 298.265625 665.664062 295.875 665.414062 288.90625 C 665.414062 288.90625 664.914062 284.1875 666.65625 280.859375 C 666.65625 280.859375 664.914062 283.890625 668.960938 290.351562 C 668.960938 290.351562 672.078125 295 669.523438 299.835938 C 669.523438 299.835938 675.382812 297.695312 674.820312 290.601562 C 674.257812 283.5 670.703125 286.453125 673.015625 279.921875 C 673.015625 279.921875 673.570312 283.265625 675.320312 284.953125 C 677.0625 286.640625 679.304688 289.46875 678.367188 294.179688 C 678.367188 294.179688 681.859375 289.84375 681.046875 285.382812 C 680.242188 280.921875 679.367188 279.570312 679.367188 279.570312 L 690.390625 273.320312 L 695.875 263.390625 Z M 696.125 247.570312 " transform="matrix(0.5,0,0,0.5,0,0)"/>
<path style="fill:none;stroke-width:0.831;stroke-linecap:butt;stroke-linejoin:miter;stroke:rgb(0%,0%,0%);stroke-opacity:1;stroke-miterlimit:10;" d="M 679.367188 275.585938 C 679.367188 275.585938 674.820312 275.265625 674.070312 271.75 M 666.09375 269.429688 C 666.09375 269.429688 667.679688 269.359375 669.117188 270.804688 C 669.117188 270.804688 670.210938 272.445312 671.765625 272.25 " transform="matrix(0.5,0,0,0.5,0,0)"/>
<path style=" stroke:none;fill-rule:nonzero;fill:rgb(0%,0%,0%);fill-opacity:1;" d="M 343.046875 131.101562 C 343.046875 131.101562 341.863281 131.101562 341.210938 130.535156 C 341.210938 130.535156 340.523438 130.0625 340.121094 130.816406 C 340.121094 130.816406 339.496094 131.886719 340.648438 132.355469 C 340.648438 132.355469 342.082031 133.078125 339.808594 134.523438 C 339.808594 134.523438 342.519531 133.550781 341.429688 132.230469 C 341.429688 132.230469 340.246094 131.382812 340.679688 131.070312 C 340.679688 131.070312 340.804688 130.816406 341.273438 131.132812 C 341.738281 131.445312 342.675781 131.320312 343.046875 131.101562 Z M 343.046875 131.101562 "/>
<path style="fill-rule:nonzero;fill:rgb(47.058824%,26.666667%,12.941176%);fill-opacity:1;stroke-width:0.623;stroke-linecap:butt;stroke-linejoin:miter;stroke:rgb(0%,0%,0%);stroke-opacity:1;stroke-miterlimit:4;" d="M 760.40625 274.203125 L 742.1875 211.289062 L 741.523438 211.46875 L 757.617188 275.148438 Z M 760.40625 274.203125 " transform="matrix(0.5,0,0,0.5,0,0)"/>
<path style=" stroke:none;fill-rule:nonzero;fill:rgb(0%,0%,0%);fill-opacity:1;" d="M 348.480469 172.390625 C 348.480469 172.390625 346.332031 171.183594 344.558594 172.597656 C 344.558594 172.597656 344.738281 171.8125 346.097656 171.46875 C 346.097656 171.46875 346.832031 169.394531 348.886719 169.582031 C 348.886719 169.582031 348.046875 170.585938 346.925781 171.4375 C 346.925781 171.4375 348.109375 171.558594 348.480469 172.390625 Z M 348.480469 172.390625 "/>
<path style="fill-rule:nonzero;fill:rgb(39.215686%,70.588235%,81.960784%);fill-opacity:1;stroke-width:0.623;stroke-linecap:butt;stroke-linejoin:miter;stroke:rgb(0.392157%,12.941176%,41.176471%);stroke-opacity:1;stroke-miterlimit:2.613;" d="M 681.828125 354.78125 C 681.828125 354.78125 675 350.492188 678.695312 343.28125 C 678.695312 343.28125 679.765625 341.203125 681.828125 341.632812 C 681.828125 341.632812 686.078125 342.953125 682.757812 348.84375 C 682.757812 348.84375 681.078125 352.65625 681.828125 354.78125 Z M 695.65625 361.5625 C 695.65625 361.5625 685.9375 357.132812 688.929688 349.59375 C 688.929688 349.59375 689.851562 347.046875 692.007812 347.242188 C 692.007812 347.242188 695.757812 347.429688 695.007812 352.421875 C 695.007812 352.421875 693.882812 357.320312 695.65625 361.5625 Z M 695.65625 361.5625 " transform="matrix(0.5,0,0,0.5,0,0)"/>
<path style=" stroke:none;fill-rule:nonzero;fill:rgb(0%,0%,0%);fill-opacity:1;" d="M 346.800781 166.714844 C 346.800781 166.714844 345.339844 167.792969 344.746094 168.515625 C 344.746094 168.515625 344.152344 167.777344 343.375 167.328125 C 343.375 167.328125 344.269531 167.210938 344.746094 167.613281 C 344.746094 167.613281 345.492188 166.890625 346.800781 166.714844 Z M 346.800781 166.714844 "/>
<path style="fill-rule:nonzero;fill:rgb(39.215686%,70.588235%,81.960784%);fill-opacity:1;stroke-width:0.623;stroke-linecap:butt;stroke-linejoin:miter;stroke:rgb(0.392157%,12.941176%,41.176471%);stroke-opacity:1;stroke-miterlimit:2.613;" d="M 702.242188 359.679688 C 702.242188 359.679688 709.859375 357.75 708.460938 349.875 C 708.460938 349.875 707.710938 346.4375 704.484375 346.90625 C 704.484375 346.90625 700.601562 347.898438 703.132812 352.90625 C 703.132812 352.90625 704.625 356.476562 702.242188 359.679688 Z M 702.242188 359.679688 " transform="matrix(0.5,0,0,0.5,0,0)"/>
<path style="fill-rule:nonzero;fill:rgb(96.078431%,80.784314%,0%);fill-opacity:1;stroke-width:0.831;stroke-linecap:butt;stroke-linejoin:miter;stroke:rgb(0%,0%,0%);stroke-opacity:1;stroke-miterlimit:2.613;" d="M 736.65625 193.203125 C 736.65625 193.203125 741.5625 194.703125 744.226562 195.789062 C 744.226562 195.789062 751.328125 198.992188 760.34375 195.789062 C 760.34375 195.789062 766.445312 193.375 767.257812 193.203125 L 762.585938 200.3125 L 762.351562 203.992188 L 765.273438 208.28125 C 765.273438 208.28125 763.523438 208.984375 758.289062 205.78125 C 758.289062 205.78125 752.492188 201.304688 745.578125 205.78125 C 745.578125 205.78125 741.796875 208.34375 738.617188 208.28125 L 743.101562 203.265625 L 741.375 198.757812 Z M 736.65625 193.203125 " transform="matrix(0.5,0,0,0.5,0,0)"/>
<path style=" stroke:none;fill-rule:nonzero;fill:rgb(100%,100%,100%);fill-opacity:1;" d="M 352.59375 175.140625 C 352.59375 175.140625 352.734375 174.949219 352.570312 174.867188 C 352.570312 174.867188 352.40625 174.796875 352.289062 175.027344 C 352.289062 175.027344 351.894531 175.65625 352.230469 176.519531 C 352.230469 176.519531 352.546875 177.117188 352.390625 177.742188 C 352.390625 177.742188 352.371094 177.917969 352.511719 177.941406 C 352.511719 177.941406 352.648438 177.894531 352.671875 177.765625 C 352.671875 177.765625 352.863281 177.15625 352.535156 176.558594 C 352.535156 176.558594 352.136719 175.632812 352.59375 175.140625 Z M 352.59375 175.140625 "/>
<path style="fill-rule:nonzero;fill:rgb(78.431373%,6.27451%,18.039216%);fill-opacity:1;stroke-width:0.831;stroke-linecap:butt;stroke-linejoin:round;stroke:rgb(0%,0%,0%);stroke-opacity:1;stroke-miterlimit:4;" d="M 810.6875 207.882812 C 810.6875 207.882812 805.203125 210.679688 802.914062 207.289062 C 802.914062 207.289062 799.921875 201.585938 806.492188 199.609375 C 806.492188 199.609375 802.914062 195.320312 806.75 191.359375 C 806.75 191.359375 808.757812 189.242188 812.257812 190.796875 C 812.257812 190.796875 813.710938 187.78125 817.117188 187.875 C 817.117188 187.875 820.109375 187.828125 821.140625 191.125 C 821.140625 191.125 825.25 189.429688 827.539062 191.882812 C 827.539062 191.882812 831.328125 196.117188 826.046875 199.46875 L 822.242188 199.8125 L 818.507812 198.085938 L 814.335938 199.28125 C 814.328125 199.28125 815.40625 203.507812 810.6875 207.882812 Z M 810.6875 207.882812 " transform="matrix(0.5,0,0,0.5,0,0)"/>
<path style="fill-rule:nonzero;fill:rgb(96.078431%,80.784314%,0%);fill-opacity:1;stroke-width:0.831;stroke-linecap:butt;stroke-linejoin:miter;stroke:rgb(0%,0%,0%);stroke-opacity:1;stroke-miterlimit:2.613;" d="M 767.265625 203.453125 C 767.265625 203.453125 767.125 204.585938 766 204.710938 C 766 204.710938 764.828125 205.09375 764.148438 203.632812 C 764.148438 203.632812 764.070312 203.304688 764.054688 203.140625 C 763.976562 202.460938 763.742188 200.507812 765.859375 198.898438 C 765.859375 198.898438 769.320312 196.078125 775.921875 199.5 C 775.921875 199.5 781.15625 202.015625 784.765625 204.148438 C 784.765625 204.148438 794.117188 209.171875 795.234375 209.554688 C 795.234375 209.554688 799.351562 211.625 805.640625 211.875 C 805.640625 211.875 814.234375 212.507812 817.882812 206.476562 C 817.882812 206.476562 820.65625 201.890625 817.882812 198.96875 C 817.882812 198.96875 816.757812 197.648438 814.914062 197.890625 C 814.140625 197.992188 813.289062 198.34375 812.460938 199.3125 C 812.460938 199.3125 811.125 201.257812 812.679688 202.703125 C 812.679688 202.703125 814.703125 203.945312 815.421875 201.320312 C 815.421875 201.320312 815.453125 201.132812 815.515625 201.367188 C 815.554688 201.523438 816.015625 203.523438 814.9375 205.21875 C 814.9375 205.21875 809.75 213.0625 795.484375 204.929688 L 776.671875 194.382812 C 776.671875 194.382812 767.226562 189.539062 761.59375 197.109375 C 761.59375 197.109375 757.046875 203.398438 762.898438 207.507812 C 762.898438 207.507812 767.257812 210.117188 770 205.96875 C 770 205.96875 772.273438 201.890625 768.695312 200.09375 C 768.695312 200.09375 765.546875 198.617188 764.304688 201.765625 C 763.054688 204.90625 766.734375 205.71875 767.070312 203.492188 C 767.078125 203.484375 767.171875 202.953125 767.265625 203.453125 Z M 767.265625 203.453125 " transform="matrix(0.5,0,0,0.5,0,0)"/>
<path style="fill-rule:nonzero;fill:rgb(89.411765%,79.607843%,36.862745%);fill-opacity:1;stroke-width:0.623;stroke-linecap:butt;stroke-linejoin:miter;stroke:rgb(0%,0%,0%);stroke-opacity:1;stroke-miterlimit:2.613;" d="M 692.679688 235.84375 L 692.679688 224.0625 C 692.679688 223.140625 692.6875 222.367188 694.085938 221.234375 C 695.492188 220.109375 696.984375 218.3125 699.132812 223.40625 C 699.132812 223.40625 703.335938 218.976562 704.742188 218.3125 C 704.742188 218.3125 707.171875 216.242188 708.851562 219.257812 C 708.851562 219.257812 711.09375 215.867188 712.867188 215.015625 C 712.867188 215.015625 717.078125 212.28125 717.265625 220.484375 L 720.53125 217.46875 C 720.53125 217.46875 723.054688 215.390625 725.859375 218.21875 C 725.859375 218.21875 730.625 222.835938 731.28125 224.15625 C 731.28125 224.15625 732.335938 225.585938 732.414062 227.84375 C 732.414062 227.84375 732.398438 230.375 733.710938 231.789062 C 733.710938 231.789062 735.203125 233.109375 736.65625 233.390625 C 736.65625 233.390625 740.0625 233.484375 741.28125 236.6875 C 741.28125 236.6875 741.84375 236.132812 743.523438 251.492188 L 743.523438 279.476562 L 724.640625 302 L 694.367188 293.328125 L 682.3125 288.335938 L 679.601562 279.476562 L 691.28125 271.9375 L 697.640625 254.789062 L 695.578125 242.726562 Z M 692.679688 235.84375 " transform="matrix(0.5,0,0,0.5,0,0)"/>
<path style="fill-rule:nonzero;fill:rgb(47.058824%,26.666667%,12.941176%);fill-opacity:1;stroke-width:0.623;stroke-linecap:butt;stroke-linejoin:miter;stroke:rgb(0%,0%,0%);stroke-opacity:1;stroke-miterlimit:4;" d="M 776.109375 250.703125 L 777.539062 248.570312 L 780.96875 245.929688 C 780.96875 245.929688 786.203125 259.664062 786.453125 262.65625 L 786.453125 266.921875 C 786.453125 266.921875 794.304688 268.921875 795.671875 280.984375 L 789.195312 292.921875 L 779.039062 287.265625 L 776.109375 285.132812 Z M 776.109375 250.703125 " transform="matrix(0.5,0,0,0.5,0,0)"/>
<path style=" stroke:none;fill-rule:nonzero;fill:rgb(100%,100%,100%);fill-opacity:1;" d="M 339.964844 172.5 C 339.964844 172.5 340.152344 172.253906 340.023438 172.148438 C 340.023438 172.148438 339.941406 172.027344 339.722656 172.3125 C 339.722656 172.3125 338.6875 173.464844 339.511719 175.238281 C 339.511719 175.238281 339.605469 175.492188 339.765625 175.410156 C 339.765625 175.410156 339.90625 175.339844 339.777344 175.128906 C 339.78125 175.128906 339.042969 173.667969 339.964844 172.5 Z M 339.964844 172.5 "/>
<path style="fill:none;stroke-width:0.831;stroke-linecap:butt;stroke-linejoin:miter;stroke:rgb(0%,0%,0%);stroke-opacity:1;stroke-miterlimit:10;" d="M 710.546875 342.6875 C 710.546875 342.6875 710.859375 341.617188 710.109375 340.484375 C 710.109375 340.484375 709.609375 339.671875 709.796875 338.601562 " transform="matrix(0.5,0,0,0.5,0,0)"/>
<path style="fill:none;stroke-width:0.623;stroke-linecap:butt;stroke-linejoin:miter;stroke:rgb(0%,0%,0%);stroke-opacity:1;stroke-miterlimit:10;" d="M 717.265625 220.484375 C 717.265625 220.484375 717.296875 223.429688 718.132812 225.59375 C 718.976562 227.765625 721.8125 231.515625 722 233.539062 " transform="matrix(0.5,0,0,0.5,0,0)"/>
<path style="fill-rule:nonzero;fill:rgb(78.431373%,6.27451%,18.039216%);fill-opacity:1;stroke-width:0.831;stroke-linecap:butt;stroke-linejoin:round;stroke:rgb(0%,0%,0%);stroke-opacity:1;stroke-miterlimit:4;" d="M 788.476562 322.734375 C 788.476562 322.734375 793.242188 323.015625 795.671875 324.242188 C 798.101562 325.46875 799.96875 326.789062 802.773438 328.578125 C 802.773438 328.578125 804.078125 330.320312 809.59375 329.265625 C 809.59375 329.265625 819.125 326.976562 819.125 334.421875 C 819.125 334.421875 830.53125 335.367188 825.859375 345.351562 C 825.859375 345.351562 822.679688 353.179688 816.140625 347.617188 C 816.140625 347.617188 820.34375 353.648438 812.210938 356.007812 C 812.210938 356.007812 806.421875 357.421875 804.734375 351.476562 C 804.734375 351.476562 803.804688 349.125 806.046875 346.203125 C 806.046875 346.203125 803.242188 345.640625 801.28125 342.617188 C 801.28125 342.617188 807.257812 350.179688 800.71875 352.90625 C 800.71875 352.90625 792.5 354.96875 792.03125 346.390625 C 792.03125 346.390625 792.695312 342.429688 789.515625 341.015625 C 789.515625 341.015625 782.960938 339.507812 779.96875 332.203125 C 779.96875 332.203125 789.390625 327.1875 788.476562 322.734375 Z M 788.476562 322.734375 " transform="matrix(0.5,0,0,0.5,0,0)"/>
<path style="fill:none;stroke-width:0.623;stroke-linecap:butt;stroke-linejoin:miter;stroke:rgb(0%,0%,0%);stroke-opacity:1;stroke-miterlimit:10;" d="M 713.507812 233.539062 L 721.28125 296.3125 M 715.304688 233.398438 L 724.023438 291.921875 M 716.9375 233.125 L 726.984375 291.164062 " transform="matrix(0.5,0,0,0.5,0,0)"/>
<path style="fill-rule:nonzero;fill:rgb(47.058824%,26.666667%,12.941176%);fill-opacity:1;stroke-width:0.623;stroke-linecap:butt;stroke-linejoin:miter;stroke:rgb(0%,0%,0%);stroke-opacity:1;stroke-miterlimit:4;" d="M 735.609375 285.226562 L 717.390625 222.3125 L 716.726562 222.492188 L 732.828125 286.171875 Z M 735.609375 285.226562 " transform="matrix(0.5,0,0,0.5,0,0)"/>
<path style="fill:none;stroke-width:0.623;stroke-linecap:butt;stroke-linejoin:miter;stroke:rgb(0%,0%,0%);stroke-opacity:1;stroke-miterlimit:10;" d="M 722.507812 230.820312 L 740.90625 277.3125 M 721.28125 231.578125 L 739.039062 280.140625 " transform="matrix(0.5,0,0,0.5,0,0)"/>
<path style=" stroke:none;fill-rule:nonzero;fill:rgb(100%,100%,100%);fill-opacity:1;" d="M 346.066406 178.550781 C 346.066406 178.550781 345 177.527344 345.148438 175.691406 C 345.148438 175.691406 345.210938 175.300781 345.015625 175.246094 C 345.015625 175.246094 344.804688 175.160156 344.777344 175.613281 C 344.777344 175.613281 344.480469 177.53125 345.773438 178.628906 C 345.773438 178.628906 345.859375 178.738281 346.003906 178.707031 C 346.003906 178.707031 346.15625 178.675781 346.066406 178.550781 Z M 346.066406 178.550781 "/>
<path style="fill:none;stroke-width:0.623;stroke-linecap:butt;stroke-linejoin:miter;stroke:rgb(0%,0%,0%);stroke-opacity:1;stroke-miterlimit:10;" d="M 723.34375 230.195312 L 742.3125 272.601562 M 718.15625 232.828125 L 729.789062 289.9375 " transform="matrix(0.5,0,0,0.5,0,0)"/>
<path style="fill-rule:nonzero;fill:rgb(96.078431%,80.784314%,0%);fill-opacity:1;stroke-width:0.831;stroke-linecap:butt;stroke-linejoin:miter;stroke:rgb(0%,0%,0%);stroke-opacity:1;stroke-miterlimit:2.613;" d="M 813.328125 275.148438 C 805.015625 270.429688 803.195312 259.96875 803.195312 259.96875 C 801.1875 249.554688 805.25 241.3125 805.25 241.3125 C 810.625 229.953125 819.835938 227.84375 819.835938 227.84375 C 819.835938 227.84375 810.8125 234.101562 808.289062 242.53125 C 808.289062 242.53125 806.328125 249.648438 807.445312 256.671875 C 808.570312 263.695312 808.148438 261.898438 809.875 267.320312 Z M 813.328125 275.148438 " transform="matrix(0.5,0,0,0.5,0,0)"/>
<path style="fill-rule:nonzero;fill:rgb(47.058824%,26.666667%,12.941176%);fill-opacity:1;stroke-width:0.38;stroke-linecap:butt;stroke-linejoin:miter;stroke:rgb(0%,0%,0%);stroke-opacity:1;stroke-miterlimit:4;" d="M 777.539062 248.570312 L 742.625 259.59375 L 740.71875 275.148438 C 732.4375 287.148438 715.59375 289.28125 715.59375 289.28125 L 728.695312 303.226562 L 753.867188 308.507812 L 767.078125 298.328125 L 779.039062 287.265625 C 777.789062 281.359375 778.476562 272.601562 778.476562 272.601562 C 778.476562 271.125 779.039062 267.664062 779.039062 267.664062 C 779.039062 267.664062 776.984375 253.46875 777.539062 248.570312 Z M 777.539062 248.570312 " transform="matrix(0.5,0,0,0.5,0,0)"/>
<path style="fill:none;stroke-width:0.623;stroke-linecap:butt;stroke-linejoin:miter;stroke:rgb(0%,0%,0%);stroke-opacity:1;stroke-miterlimit:10;" d="M 741.203125 271.234375 C 741.203125 271.234375 764.195312 264.054688 777.90625 258.289062 M 730.164062 284.34375 C 730.164062 284.34375 758.851562 279.164062 779.039062 267.664062 L 786.453125 262.65625 " transform="matrix(0.5,0,0,0.5,0,0)"/>
<path style="fill:none;stroke-width:0.623;stroke-linecap:butt;stroke-linejoin:miter;stroke:rgb(0%,0%,0%);stroke-opacity:1;stroke-miterlimit:10;" d="M 786.453125 266.921875 L 778.476562 272.601562 C 778.476562 272.601562 746.390625 287.398438 721.960938 287.789062 M 778.46875 283.109375 C 778.46875 283.109375 753.804688 295.8125 739.664062 296 " transform="matrix(0.5,0,0,0.5,0,0)"/>
<path style="fill-rule:nonzero;fill:rgb(78.431373%,6.27451%,18.039216%);fill-opacity:1;stroke-width:0.831;stroke-linecap:butt;stroke-linejoin:round;stroke:rgb(0%,0%,0%);stroke-opacity:1;stroke-miterlimit:4;" d="M 807.882812 247.570312 C 807.882812 247.570312 815.234375 244.179688 818.726562 247.570312 C 818.726562 247.570312 823.585938 244.5625 828.695312 247.570312 C 828.695312 247.570312 833.554688 250.742188 836.914062 254.242188 C 836.914062 254.242188 839.28125 256.265625 838.414062 262.65625 C 838.414062 262.65625 837.164062 267.164062 837.914062 269.429688 C 837.914062 269.429688 839.53125 269.101562 842.773438 272.945312 C 842.773438 272.945312 846.882812 277.703125 850.5 273.5 C 850.5 273.5 849.375 279.351562 842.585938 278.40625 C 842.585938 278.40625 845.890625 280.984375 843.023438 287.648438 C 843.023438 287.648438 840.90625 292.359375 844.265625 298.265625 C 844.265625 298.265625 838.351562 295.875 838.601562 288.90625 C 838.601562 288.90625 839.09375 284.1875 837.351562 280.859375 C 837.351562 280.859375 839.09375 283.890625 835.046875 290.351562 C 835.046875 290.351562 831.929688 295 834.484375 299.835938 C 834.484375 299.835938 828.632812 297.695312 829.1875 290.601562 C 829.75 283.5 833.304688 286.453125 831 279.921875 C 831 279.921875 830.4375 283.265625 828.695312 284.953125 C 826.945312 286.640625 824.703125 289.46875 825.640625 294.179688 C 825.640625 294.179688 822.148438 289.84375 822.960938 285.382812 C 823.773438 280.921875 824.640625 279.570312 824.640625 279.570312 L 813.617188 273.320312 L 808.132812 263.390625 Z M 807.882812 247.570312 " transform="matrix(0.5,0,0,0.5,0,0)"/>
<path style="fill-rule:nonzero;fill:rgb(100%,100%,100%);fill-opacity:1;stroke-width:0.831;stroke-linecap:butt;stroke-linejoin:miter;stroke:rgb(0.392157%,12.941176%,41.176471%);stroke-opacity:1;stroke-miterlimit:10;" d="M 682.96875 287.304688 C 682.96875 287.304688 683.992188 282.429688 688.671875 284.34375 C 688.671875 284.34375 690.257812 276.367188 698.765625 276.085938 C 707.265625 275.804688 707.734375 284.382812 707.734375 284.945312 C 707.734375 284.945312 710.234375 281.265625 714.398438 281.6875 C 714.398438 281.6875 721.59375 281.265625 718.914062 292.8125 L 720.273438 294.257812 C 720.273438 294.257812 725.765625 281.359375 737.078125 284.757812 C 737.078125 284.757812 748.101562 288.117188 740.90625 298.796875 C 740.90625 298.796875 746.351562 305.867188 750.96875 305.203125 C 755.578125 304.546875 759.695312 303.132812 764.273438 295.03125 C 768.851562 286.921875 779.507812 285.695312 782.21875 286.171875 C 784.921875 286.640625 787.0625 288.398438 787.507812 290.3125 C 787.507812 290.3125 793.148438 271.492188 813.429688 274.445312 L 821.554688 278.539062 L 824.640625 279.953125 L 820.046875 292.921875 L 808.84375 318.234375 L 800.34375 320.851562 L 791.46875 315.765625 L 788.382812 317.414062 L 788.132812 325 L 776.421875 333.429688 L 768.289062 336.78125 L 759.320312 342.90625 L 757.234375 348.382812 C 757.234375 348.382812 752.273438 346.296875 746.6875 348.382812 L 744.835938 343.84375 L 739.601562 338.851562 L 719.273438 329.265625 L 715.601562 317.414062 L 711.890625 315.765625 L 707.734375 320.523438 L 701.65625 321.226562 L 692.59375 315.101562 Z M 682.96875 287.304688 " transform="matrix(0.5,0,0,0.5,0,0)"/>
<path style="fill:none;stroke-width:0.831;stroke-linecap:butt;stroke-linejoin:miter;stroke:rgb(0%,0%,0%);stroke-opacity:1;stroke-miterlimit:2.613;" d="M 771.5 195.132812 C 771.5 195.132812 763.742188 194.789062 764.023438 202.828125 " transform="matrix(0.5,0,0,0.5,0,0)"/>
<path style="fill-rule:nonzero;fill:rgb(96.078431%,80.784314%,0%);fill-opacity:1;stroke-width:0.831;stroke-linecap:butt;stroke-linejoin:miter;stroke:rgb(0%,0%,0%);stroke-opacity:1;stroke-miterlimit:2.613;" d="M 822.539062 280.5625 C 809.039062 276.414062 805.34375 261.898438 805.34375 261.898438 C 802.585938 251.015625 807.023438 241.5 807.023438 241.5 C 813.195312 227.015625 823.632812 227.015625 823.632812 227.015625 C 828.867188 226.875 829.492188 231.351562 829.492188 231.351562 C 829.984375 234.523438 827.757812 235.671875 827.757812 235.671875 C 824.179688 237.617188 821.921875 234.976562 821.921875 234.976562 C 820.421875 233.03125 821.578125 231.304688 821.578125 231.304688 C 822.492188 230.015625 824.257812 230.578125 824.257812 230.578125 C 825.648438 231.015625 825.5 232.757812 825.5 232.757812 C 825.507812 232.804688 825.539062 232.804688 825.539062 232.804688 C 825.601562 232.789062 825.578125 232.765625 825.578125 232.765625 C 825.578125 232.765625 825.890625 230.632812 823.804688 230.40625 C 823.804688 230.40625 819.734375 229.53125 814.96875 235.46875 C 814.96875 235.46875 808.695312 243.476562 808.710938 253.84375 C 808.710938 253.84375 807.914062 273.304688 828.195312 278.34375 C 828.195312 278.34375 826 281.507812 822.117188 292.90625 C 822.117188 292.90625 817.726562 307.5625 813.539062 315.484375 C 813.539062 315.484375 807.960938 326.789062 795.53125 322.171875 C 795.53125 322.171875 788.132812 318.921875 788.148438 313.546875 C 788.148438 313.546875 787.632812 308.648438 792.078125 308.265625 C 792.078125 308.265625 796.421875 307.9375 796.375 311.664062 C 796.375 311.664062 796.492188 315.6875 791.75 314.773438 C 791.75 314.773438 790.085938 314.421875 790.390625 312.789062 C 790.390625 312.789062 790.65625 311.328125 792.65625 311.96875 C 792.65625 311.96875 792.71875 311.976562 792.726562 311.945312 C 792.726562 311.945312 792.75 311.90625 792.679688 311.890625 C 792.679688 311.890625 791.90625 311.539062 791.09375 311.828125 C 791.09375 311.828125 790.359375 312.070312 790.296875 313.21875 C 790.296875 313.21875 790.25 314.132812 791.234375 314.648438 C 791.234375 314.648438 792.429688 315.078125 793.359375 314.984375 C 793.359375 314.984375 794.617188 317.515625 797.460938 318.382812 C 801.421875 319.578125 804.679688 318.421875 806.679688 316.828125 C 808.851562 315.101562 810.25 312.070312 810.671875 311.328125 C 811.09375 310.585938 814.734375 302.421875 817.476562 293.640625 C 817.476562 293.640625 819.875 286.070312 821.789062 282.117188 Z M 822.539062 280.5625 " transform="matrix(0.5,0,0,0.5,0,0)"/>
<path style="fill-rule:nonzero;fill:rgb(96.078431%,80.784314%,0%);fill-opacity:1;stroke-width:0.831;stroke-linecap:butt;stroke-linejoin:miter;stroke:rgb(0%,0%,0%);stroke-opacity:1;stroke-miterlimit:2.613;" d="M 784.4375 317.460938 C 784.4375 317.460938 786.953125 317.117188 786.953125 319.367188 C 786.953125 319.367188 786.804688 322.65625 782.796875 321.9375 C 782.796875 321.9375 778.851562 321.070312 780.25 316.65625 C 780.25 316.65625 781.1875 313.546875 784.921875 313.992188 C 784.921875 313.992188 788.546875 314.15625 790.132812 319.109375 C 790.132812 319.109375 791.351562 323.28125 789.273438 326.859375 C 786.945312 330.851562 781.078125 333.476562 778.242188 334.640625 C 778.242188 334.640625 766.890625 339.101562 763.5 341.65625 C 763.5 341.65625 758.304688 345.507812 760.601562 349.101562 C 760.601562 349.101562 761.492188 350.46875 762.820312 350.46875 C 762.820312 350.46875 764.34375 350.539062 764.601562 348.984375 C 764.601562 348.984375 764.609375 348.953125 764.585938 348.914062 C 764.585938 348.914062 764.5625 348.914062 764.554688 348.953125 C 764.554688 348.953125 764.445312 349.898438 763.617188 350.257812 C 763.617188 350.257812 762.515625 350.8125 761.351562 349.828125 C 761.351562 349.828125 760.125 348.648438 761.148438 346.820312 C 761.148438 346.820312 762.5 344.570312 765.632812 345.90625 C 765.632812 345.90625 768.398438 347.273438 767.265625 350.203125 C 767.265625 350.203125 766.25 352.90625 762.921875 352.90625 C 762.921875 352.90625 760.40625 352.820312 758.804688 351.140625 C 756.296875 348.507812 756.164062 343.398438 758.367188 340.75 C 758.367188 340.75 760.453125 337.9375 764.648438 336.226562 C 767.070312 335.234375 771.65625 333.242188 776.421875 331.375 C 779.773438 330.0625 782.84375 328.484375 784.835938 326.125 C 784.835938 326.125 786.609375 324.148438 787.125 320.757812 C 787.125 320.757812 787.617188 318.210938 786.0625 317.65625 C 786.0625 317.65625 785.273438 317.304688 784.414062 317.421875 C 784.414062 317.421875 784.390625 317.421875 784.382812 317.4375 C 784.382812 317.4375 784.34375 317.476562 784.4375 317.460938 Z M 784.4375 317.460938 " transform="matrix(0.5,0,0,0.5,0,0)"/>
<path style="fill:none;stroke-width:0.831;stroke-linecap:butt;stroke-linejoin:miter;stroke:rgb(0%,0%,0%);stroke-opacity:1;stroke-miterlimit:2.613;" d="M 784.648438 317.445312 C 784.648438 317.445312 787.429688 316.9375 789.179688 320.257812 C 789.179688 320.257812 790.203125 322.390625 790.367188 323.625 M 791.28125 311.773438 C 791.28125 311.773438 788.484375 312.257812 789.921875 316.210938 C 791.28125 319.929688 793.796875 321.15625 794.546875 321.671875 " transform="matrix(0.5,0,0,0.5,0,0)"/>
<path style="fill-rule:nonzero;fill:rgb(96.078431%,80.784314%,0%);fill-opacity:1;stroke-width:0.831;stroke-linecap:butt;stroke-linejoin:miter;stroke:rgb(0%,0%,0%);stroke-opacity:1;stroke-miterlimit:2.613;" d="M 736.65625 203.453125 C 736.65625 203.453125 736.789062 204.585938 737.914062 204.710938 C 737.914062 204.710938 739.085938 205.09375 739.765625 203.632812 C 739.765625 203.632812 739.84375 203.304688 739.859375 203.140625 C 739.9375 202.460938 740.171875 200.5 738.054688 198.898438 C 738.054688 198.898438 734.59375 196.070312 727.992188 199.5 C 727.992188 199.5 722.757812 202.007812 719.148438 204.148438 C 719.148438 204.148438 709.804688 209.171875 708.679688 209.546875 C 708.679688 209.546875 704.570312 211.625 698.273438 211.875 C 698.273438 211.875 689.679688 212.5 686.03125 206.46875 C 686.03125 206.46875 683.257812 201.882812 686.03125 198.960938 C 686.03125 198.960938 687.15625 197.648438 689 197.890625 C 689.773438 197.992188 690.625 198.34375 691.453125 199.3125 C 691.453125 199.3125 692.789062 201.257812 691.234375 202.703125 C 691.234375 202.703125 689.210938 203.945312 688.492188 201.320312 C 688.492188 201.320312 688.460938 201.132812 688.398438 201.367188 C 688.359375 201.523438 687.898438 203.523438 688.976562 205.21875 C 688.976562 205.21875 694.164062 213.0625 708.429688 204.929688 L 727.242188 194.375 C 727.242188 194.375 736.6875 189.539062 742.320312 197.109375 C 742.320312 197.109375 746.867188 203.390625 741.015625 207.507812 C 741.015625 207.507812 736.65625 210.117188 733.914062 205.96875 C 733.914062 205.96875 731.640625 201.882812 735.21875 200.09375 C 735.21875 200.09375 738.367188 198.617188 739.609375 201.757812 C 740.859375 204.898438 737.179688 205.71875 736.84375 203.492188 C 736.84375 203.484375 736.742188 202.953125 736.65625 203.453125 Z M 690.585938 275.148438 C 698.898438 270.429688 700.71875 259.96875 700.71875 259.96875 C 702.726562 249.554688 698.664062 241.3125 698.664062 241.3125 C 693.289062 229.953125 684.078125 227.84375 684.078125 227.84375 C 684.078125 227.84375 693.101562 234.101562 695.625 242.53125 C 695.625 242.53125 697.585938 249.648438 696.46875 256.671875 C 695.34375 263.695312 695.765625 261.898438 694.039062 267.320312 Z M 690.585938 275.148438 " transform="matrix(0.5,0,0,0.5,0,0)"/>
<path style="fill:none;stroke-width:0.831;stroke-linecap:butt;stroke-linejoin:miter;stroke:rgb(0%,0%,0%);stroke-opacity:1;stroke-miterlimit:2.613;" d="M 732.414062 195.132812 C 732.414062 195.132812 740.171875 194.789062 739.890625 202.828125 " transform="matrix(0.5,0,0,0.5,0,0)"/>
<path style="fill-rule:nonzero;fill:rgb(96.078431%,80.784314%,0%);fill-opacity:1;stroke-width:0.831;stroke-linecap:butt;stroke-linejoin:miter;stroke:rgb(0%,0%,0%);stroke-opacity:1;stroke-miterlimit:2.613;" d="M 681.375 280.5625 C 694.882812 276.414062 698.570312 261.898438 698.570312 261.898438 C 701.328125 251.015625 696.890625 241.5 696.890625 241.5 C 690.71875 227.015625 680.28125 227.015625 680.28125 227.015625 C 675.054688 226.875 674.421875 231.351562 674.421875 231.351562 C 673.929688 234.523438 676.15625 235.671875 676.15625 235.671875 C 679.734375 237.617188 682 234.976562 682 234.976562 C 683.492188 233.03125 682.34375 231.304688 682.34375 231.304688 C 681.421875 230.015625 679.664062 230.578125 679.664062 230.578125 C 678.265625 231.015625 678.414062 232.757812 678.414062 232.757812 C 678.40625 232.804688 678.375 232.804688 678.375 232.804688 C 678.3125 232.789062 678.335938 232.765625 678.335938 232.765625 C 678.335938 232.765625 678.023438 230.632812 680.109375 230.40625 C 680.109375 230.40625 684.179688 229.53125 688.945312 235.46875 C 688.945312 235.46875 695.21875 243.476562 695.203125 253.84375 C 695.203125 253.84375 696 273.304688 675.71875 278.34375 C 675.71875 278.34375 677.914062 281.507812 681.796875 292.90625 C 681.796875 292.90625 686.1875 307.5625 690.382812 315.484375 C 690.382812 315.484375 695.953125 326.789062 708.382812 322.171875 C 708.382812 322.171875 715.78125 318.921875 715.765625 313.546875 C 715.765625 313.546875 716.28125 308.648438 711.84375 308.265625 C 711.84375 308.265625 707.492188 307.9375 707.539062 311.664062 C 707.539062 311.664062 707.421875 315.6875 712.164062 314.773438 C 712.164062 314.773438 713.828125 314.421875 713.523438 312.789062 C 713.523438 312.789062 713.257812 311.328125 711.257812 311.96875 C 711.257812 311.96875 711.195312 311.976562 711.1875 311.945312 C 711.1875 311.945312 711.164062 311.90625 711.234375 311.890625 C 711.234375 311.890625 712.007812 311.539062 712.828125 311.828125 C 712.828125 311.828125 713.554688 312.070312 713.617188 313.21875 C 713.617188 313.21875 713.664062 314.132812 712.679688 314.648438 C 712.679688 314.648438 711.492188 315.078125 710.554688 314.984375 C 710.554688 314.984375 709.296875 317.515625 706.453125 318.382812 C 702.492188 319.578125 699.234375 318.421875 697.234375 316.828125 C 695.070312 315.101562 693.664062 312.070312 693.242188 311.328125 C 692.820312 310.585938 689.179688 302.421875 686.4375 293.640625 C 686.4375 293.640625 684.039062 286.070312 682.125 282.117188 Z M 681.375 280.5625 " transform="matrix(0.5,0,0,0.5,0,0)"/>
<path style="fill-rule:nonzero;fill:rgb(96.078431%,80.784314%,0%);fill-opacity:1;stroke-width:0.831;stroke-linecap:butt;stroke-linejoin:miter;stroke:rgb(0%,0%,0%);stroke-opacity:1;stroke-miterlimit:2.613;" d="M 719.484375 317.460938 C 719.484375 317.460938 716.960938 317.117188 716.960938 319.367188 C 716.960938 319.367188 717.109375 322.65625 721.117188 321.9375 C 721.117188 321.9375 725.0625 321.070312 723.664062 316.65625 C 723.664062 316.65625 722.726562 313.546875 718.992188 313.992188 C 718.992188 313.992188 715.367188 314.15625 713.78125 319.109375 C 713.78125 319.109375 712.5625 323.28125 714.648438 326.859375 C 716.96875 330.851562 722.835938 333.476562 725.671875 334.640625 C 725.671875 334.640625 737.023438 339.101562 740.414062 341.65625 C 740.414062 341.65625 745.609375 345.507812 743.3125 349.101562 C 743.3125 349.101562 742.421875 350.46875 741.09375 350.46875 C 741.09375 350.46875 739.570312 350.539062 739.3125 348.984375 C 739.3125 348.984375 739.304688 348.953125 739.328125 348.914062 C 739.328125 348.914062 739.351562 348.914062 739.359375 348.953125 C 739.359375 348.953125 739.46875 349.898438 740.296875 350.257812 C 740.296875 350.257812 741.40625 350.8125 742.5625 349.828125 C 742.5625 349.828125 743.796875 348.648438 742.765625 346.820312 C 742.765625 346.820312 741.421875 344.570312 738.28125 345.90625 C 738.28125 345.90625 735.515625 347.273438 736.648438 350.203125 C 736.648438 350.203125 737.664062 352.90625 741 352.90625 C 741 352.90625 743.507812 352.820312 745.109375 351.140625 C 747.617188 348.507812 747.75 343.398438 745.546875 340.75 C 745.546875 340.75 743.460938 337.9375 739.265625 336.226562 C 736.84375 335.234375 732.257812 333.242188 727.492188 331.375 C 724.140625 330.0625 721.078125 328.484375 719.078125 326.125 C 719.078125 326.125 717.304688 324.148438 716.789062 320.757812 C 716.789062 320.757812 716.304688 318.210938 717.851562 317.65625 C 717.851562 317.65625 718.640625 317.304688 719.5 317.421875 C 719.5 317.421875 719.523438 317.421875 719.53125 317.4375 C 719.53125 317.4375 719.570312 317.476562 719.484375 317.460938 Z M 719.484375 317.460938 " transform="matrix(0.5,0,0,0.5,0,0)"/>
<path style="fill:none;stroke-width:0.831;stroke-linecap:butt;stroke-linejoin:miter;stroke:rgb(0%,0%,0%);stroke-opacity:1;stroke-miterlimit:2.613;" d="M 719.273438 317.445312 C 719.273438 317.445312 716.484375 316.9375 714.734375 320.257812 C 714.734375 320.257812 713.710938 322.390625 713.546875 323.625 M 712.632812 311.773438 C 712.632812 311.773438 715.429688 312.257812 713.992188 316.210938 C 712.632812 319.929688 710.117188 321.15625 709.367188 321.671875 M 745.203125 202.375 C 745.203125 202.375 751.953125 198.148438 758.851562 202.828125 " transform="matrix(0.5,0,0,0.5,0,0)"/>
<path style="fill:none;stroke-width:0.623;stroke-linecap:butt;stroke-linejoin:miter;stroke:rgb(0%,0%,0%);stroke-opacity:1;stroke-miterlimit:2.613;" d="M 706.796875 243.664062 C 706.796875 243.664062 707.734375 239.898438 703.4375 233.296875 C 703.4375 233.296875 700.632812 227.265625 699.132812 223.40625 M 708.851562 219.257812 C 708.851562 219.257812 711.289062 225.1875 712.125 227.84375 C 712.125 227.84375 715.140625 235.28125 715.78125 236.789062 " transform="matrix(0.5,0,0,0.5,0,0)"/>
<path style="fill:none;stroke-width:0.623;stroke-linecap:butt;stroke-linejoin:miter;stroke:rgb(0%,0%,0%);stroke-opacity:1;stroke-miterlimit:10;" d="M 710.070312 247.8125 C 710.070312 247.8125 712.609375 250.546875 712.320312 255.164062 M 701.65625 244.890625 C 701.65625 244.890625 704.460938 246.242188 704.273438 253.6875 C 704.273438 253.6875 703.992188 259.125 708.203125 261.859375 M 701.28125 263.773438 C 701.28125 263.773438 710.054688 262.8125 710.539062 268.21875 C 710.539062 268.21875 710.726562 273.398438 713.710938 273.96875 C 713.710938 273.96875 718.195312 274.390625 719.078125 278.539062 M 704.039062 269.773438 C 704.039062 269.773438 705.585938 272.078125 707.078125 273.070312 M 715.304688 264.070312 C 715.304688 264.070312 717.53125 267.445312 717.953125 269.429688 M 724.960938 223.40625 C 724.960938 223.40625 727.015625 226.203125 729.007812 227.515625 M 733.179688 239.960938 C 733.179688 239.960938 737.546875 242.09375 736.796875 253.09375 C 736.796875 253.09375 736.234375 259.539062 738.046875 263.054688 " transform="matrix(0.5,0,0,0.5,0,0)"/>
<path style="fill-rule:nonzero;fill:rgb(47.058824%,26.666667%,12.941176%);fill-opacity:1;stroke-width:0.623;stroke-linecap:butt;stroke-linejoin:miter;stroke:rgb(0%,0%,0%);stroke-opacity:1;stroke-miterlimit:4;" d="M 712.640625 232.5 L 712.921875 233.539062 C 712.921875 233.539062 720.734375 233.867188 724.960938 228.539062 L 724.507812 227.523438 C 724.507812 227.523438 717.6875 227.171875 712.640625 232.5 Z M 712.640625 232.5 " transform="matrix(0.5,0,0,0.5,0,0)"/>
<path style="fill:none;stroke-width:0.623;stroke-linecap:butt;stroke-linejoin:miter;stroke:rgb(0%,0%,0%);stroke-opacity:1;stroke-miterlimit:10;" d="M 740.804688 274.445312 C 740.804688 274.445312 767.851562 266.382812 778.273438 261.6875 " transform="matrix(0.5,0,0,0.5,0,0)"/>
<path style="fill-rule:nonzero;fill:rgb(47.058824%,26.666667%,12.941176%);fill-opacity:1;stroke-width:0.38;stroke-linecap:butt;stroke-linejoin:miter;stroke:rgb(0%,0%,0%);stroke-opacity:1;stroke-miterlimit:4;" d="M 737.59375 223.6875 L 750.96875 218.601562 L 751.28125 219.492188 L 737.90625 224.570312 Z M 737.59375 223.6875 " transform="matrix(0.5,0,0,0.5,0,0)"/>
<path style="fill:none;stroke-width:0.623;stroke-linecap:butt;stroke-linejoin:miter;stroke:rgb(0%,0%,0%);stroke-opacity:1;stroke-miterlimit:10;" d="M 739.039062 224.140625 L 747.914062 267.664062 M 740.578125 223.554688 L 750.75 266.882812 M 742.3125 222.898438 L 753.429688 265.90625 M 746.671875 221.242188 L 761.828125 253.53125 M 748.679688 220.484375 L 764.84375 252.578125 M 750.164062 219.921875 L 767.648438 251.6875 M 747.320312 268.015625 L 754.179688 265.75 M 742.125 263.703125 C 742.125 263.703125 762.234375 257.828125 777.460938 251.6875 M 741.851562 265.90625 C 741.851562 265.90625 767.34375 259.164062 777.460938 254.242188 M 749.632812 286.640625 L 750.96875 290.726562 L 754.617188 289.554688 L 753.367188 285.507812 M 759.929688 283.703125 L 761.265625 287.789062 L 764.914062 286.625 L 763.664062 282.578125 M 742.625 259.59375 L 742.3125 254.070312 L 775.734375 243.921875 L 777.539062 248.570312 M 756.484375 249.765625 L 758.304688 254.640625 M 768.171875 246.21875 L 770.296875 250.851562 M 770.9375 245.375 L 772.929688 249.765625 M 773.585938 244.570312 L 775.679688 249.15625 M 775.734375 243.921875 L 779.414062 241.84375 L 780.96875 245.929688 M 777.539062 242.898438 L 779.414062 247.125 " transform="matrix(0.5,0,0,0.5,0,0)"/>
<path style="fill:none;stroke-width:0.831;stroke-linecap:butt;stroke-linejoin:miter;stroke:rgb(0.392157%,12.941176%,41.176471%);stroke-opacity:1;stroke-miterlimit:10;" d="M 694.648438 306.523438 C 694.648438 306.523438 688.109375 299.898438 694.648438 293.414062 C 694.648438 293.414062 687.546875 289.9375 688.671875 284.34375 M 706.328125 311.773438 C 706.328125 311.773438 699.554688 312.695312 701.5625 299.507812 C 701.5625 299.507812 698.757812 304.734375 697.796875 307.421875 C 697.070312 309.4375 697.546875 312.679688 700.421875 314.4375 C 701.5625 315.140625 707.640625 316.726562 709.601562 312.695312 M 698.757812 291.585938 C 698.757812 291.585938 696.007812 294.132812 697.96875 298.796875 M 701.609375 292.203125 C 701.609375 292.203125 701.9375 296.726562 704.179688 299.265625 M 703.546875 290.414062 C 703.546875 290.414062 703.53125 295.734375 707.359375 299.03125 M 705.453125 288.570312 C 705.453125 288.570312 705.492188 294.554688 709.929688 298.234375 M 727.5 297.335938 C 727.5 297.335938 729.742188 292.4375 734.460938 292.671875 C 734.460938 292.671875 732.171875 293.710938 732.21875 296 C 732.21875 296 731.9375 299.789062 736 300.164062 C 736 300.164062 739.273438 300.585938 740.90625 298.796875 " transform="matrix(0.5,0,0,0.5,0,0)"/>
<path style="fill:none;stroke-width:0.831;stroke-linecap:butt;stroke-linejoin:miter;stroke:rgb(0.392157%,12.941176%,41.176471%);stroke-opacity:1;stroke-miterlimit:10;" d="M 738.664062 319.71875 C 738.664062 319.71875 727.03125 314.257812 728.242188 306.382812 C 728.242188 306.382812 728.710938 301.578125 733.414062 299.320312 M 730.953125 304.3125 C 730.953125 304.3125 729.929688 307.703125 732.21875 310.0625 M 733.570312 302 C 733.570312 302 732.171875 305.726562 734.507812 308.507812 M 736.375 300.195312 C 736.375 300.195312 734.695312 303.273438 736.703125 306.054688 M 725.765625 320.523438 C 725.765625 320.523438 732.125 326.03125 737.078125 326.078125 M 723.757812 322.265625 C 723.757812 322.265625 729.695312 327.070312 733.414062 327.773438 M 721.515625 323.625 C 721.515625 323.625 728.859375 330.085938 733.414062 330.554688 M 751.375 336.492188 C 751.375 336.492188 744.15625 340.382812 749.75 344.492188 M 746.796875 332.203125 C 746.796875 332.203125 754.976562 327.921875 758.523438 326.320312 M 749.742188 334.421875 C 749.742188 334.421875 761.5625 327.210938 765.0625 325.65625 M 755.8125 334.890625 C 755.8125 334.890625 765.90625 328.15625 771.328125 325.234375 M 762.492188 334.65625 C 762.492188 334.65625 769.460938 329.1875 776.1875 325.234375 M 778.570312 318.398438 C 778.570312 318.398438 775.15625 313.40625 763.945312 318.398438 C 763.945312 318.398438 768.054688 314.671875 776.1875 311.773438 M 787.507812 290.3125 C 787.507812 290.3125 788.429688 294.367188 787.445312 296.820312 " transform="matrix(0.5,0,0,0.5,0,0)"/>
<path style="fill:none;stroke-width:0.831;stroke-linecap:butt;stroke-linejoin:miter;stroke:rgb(0.392157%,12.941176%,41.176471%);stroke-opacity:1;stroke-miterlimit:10;" d="M 769.320312 309.96875 C 769.320312 309.96875 771.65625 306.523438 777.585938 304.828125 C 777.585938 304.828125 779.1875 308.835938 783.804688 307.9375 C 783.804688 307.9375 790.765625 306.570312 788.664062 298.9375 C 788.664062 298.9375 787.21875 293.234375 779.265625 292.671875 M 802.914062 283.109375 C 802.914062 283.109375 811 284.570312 810.859375 291.164062 C 810.859375 291.164062 811.515625 301.0625 801.09375 302.992188 M 809.710938 287.179688 C 809.710938 287.179688 811.929688 282.351562 816.882812 280.375 M 810.867188 277.546875 C 810.867188 277.546875 813.070312 281.085938 814.585938 281.601562 M 809.710938 280.375 C 809.710938 280.375 811.789062 282.914062 812.492188 283.34375 M 809.039062 282.820312 C 809.039062 282.820312 810.132812 284.445312 811.101562 284.953125 M 767.445312 244.570312 C 767.445312 244.570312 769.023438 242.015625 772.929688 243.101562 M 788.898438 263.703125 C 788.898438 263.703125 791.375 253.375 800.015625 257.1875 M 796.515625 256.34375 C 796.515625 256.34375 797.398438 251.578125 795.25 249.15625 M 790.625 256.015625 C 790.625 256.015625 791.726562 257.984375 790.78125 259.59375 " transform="matrix(0.5,0,0,0.5,0,0)"/>
<path style="fill-rule:nonzero;fill:rgb(39.215686%,70.588235%,81.960784%);fill-opacity:1;stroke-width:0.623;stroke-linecap:butt;stroke-linejoin:miter;stroke:rgb(0.392157%,12.941176%,41.176471%);stroke-opacity:1;stroke-miterlimit:2.613;" d="M 808.195312 361.5625 C 808.195312 361.5625 817.914062 357.132812 814.921875 349.59375 C 814.921875 349.59375 814 347.046875 811.84375 347.234375 C 811.84375 347.234375 808.09375 347.429688 808.84375 352.421875 C 808.84375 352.421875 809.96875 357.320312 808.195312 361.5625 Z M 808.195312 361.5625 " transform="matrix(0.5,0,0,0.5,0,0)"/>
<path style=" stroke:none;fill-rule:nonzero;fill:rgb(100%,100%,100%);fill-opacity:1;" d="M 405.859375 178.550781 C 405.859375 178.550781 406.925781 177.527344 406.777344 175.691406 C 406.777344 175.691406 406.714844 175.300781 406.910156 175.246094 C 406.910156 175.246094 407.117188 175.160156 407.148438 175.613281 C 407.148438 175.613281 407.445312 177.53125 406.152344 178.628906 C 406.152344 178.628906 406.066406 178.738281 405.921875 178.707031 C 405.921875 178.707031 405.769531 178.675781 405.859375 178.550781 Z M 405.859375 178.550781 "/>
<path style="fill-rule:nonzero;fill:rgb(39.215686%,70.588235%,81.960784%);fill-opacity:1;stroke-width:0.623;stroke-linecap:butt;stroke-linejoin:miter;stroke:rgb(0.392157%,12.941176%,41.176471%);stroke-opacity:1;stroke-miterlimit:2.613;" d="M 822.023438 354.78125 C 822.023438 354.78125 828.851562 350.492188 825.15625 343.28125 C 825.15625 343.28125 824.078125 341.203125 822.023438 341.632812 C 822.023438 341.632812 817.773438 342.953125 821.09375 348.84375 C 821.09375 348.84375 822.773438 352.65625 822.023438 354.78125 Z M 822.023438 354.78125 " transform="matrix(0.5,0,0,0.5,0,0)"/>
<path style=" stroke:none;fill-rule:nonzero;fill:rgb(100%,100%,100%);fill-opacity:1;" d="M 411.867188 172.5 C 411.867188 172.5 411.679688 172.253906 411.808594 172.148438 C 411.808594 172.148438 411.890625 172.027344 412.109375 172.3125 C 412.109375 172.3125 413.140625 173.464844 412.320312 175.238281 C 412.320312 175.238281 412.226562 175.492188 412.0625 175.410156 C 412.0625 175.410156 411.925781 175.339844 412.050781 175.128906 C 412.050781 175.128906 412.789062 173.667969 411.867188 172.5 Z M 411.867188 172.5 "/>
<path style="fill-rule:nonzero;fill:rgb(39.215686%,70.588235%,81.960784%);fill-opacity:1;stroke-width:0.623;stroke-linecap:butt;stroke-linejoin:miter;stroke:rgb(0.392157%,12.941176%,41.176471%);stroke-opacity:1;stroke-miterlimit:2.613;" d="M 801.609375 359.679688 C 801.609375 359.679688 793.992188 357.75 795.390625 349.875 C 795.390625 349.875 796.140625 346.4375 799.359375 346.90625 C 799.359375 346.90625 803.25 347.898438 800.71875 352.90625 C 800.71875 352.90625 799.226562 356.476562 801.609375 359.679688 Z M 801.609375 359.679688 " transform="matrix(0.5,0,0,0.5,0,0)"/>
<path style=" stroke:none;fill-rule:nonzero;fill:rgb(100%,100%,100%);fill-opacity:1;" d="M 399.332031 175.140625 C 399.332031 175.140625 399.191406 174.949219 399.355469 174.867188 C 399.355469 174.867188 399.519531 174.796875 399.636719 175.027344 C 399.636719 175.027344 400.03125 175.65625 399.695312 176.519531 C 399.695312 176.519531 399.378906 177.117188 399.53125 177.742188 C 399.53125 177.742188 399.554688 177.917969 399.414062 177.941406 C 399.414062 177.941406 399.277344 177.894531 399.253906 177.765625 C 399.253906 177.765625 399.0625 177.15625 399.390625 176.558594 C 399.390625 176.558594 399.785156 175.632812 399.332031 175.140625 Z M 399.332031 175.140625 "/>
<path style=" stroke:none;fill-rule:nonzero;fill:rgb(0%,0%,0%);fill-opacity:1;" d="M 403.535156 172.390625 C 403.535156 172.390625 405.6875 171.183594 407.460938 172.597656 C 407.460938 172.597656 407.28125 171.8125 405.921875 171.46875 C 405.921875 171.46875 405.1875 169.394531 403.132812 169.582031 C 403.132812 169.582031 403.972656 170.585938 405.09375 171.4375 C 405.09375 171.4375 403.910156 171.558594 403.535156 172.390625 Z M 405.125 166.714844 C 405.125 166.714844 406.585938 167.792969 407.179688 168.515625 C 407.179688 168.515625 407.773438 167.777344 408.550781 167.328125 C 408.550781 167.328125 407.65625 167.210938 407.179688 167.613281 C 407.179688 167.613281 406.433594 166.890625 405.125 166.714844 Z M 405.125 166.714844 "/>
<path style="fill:none;stroke-width:0.831;stroke-linecap:butt;stroke-linejoin:miter;stroke:rgb(0%,0%,0%);stroke-opacity:1;stroke-miterlimit:10;" d="M 793.304688 342.6875 C 793.304688 342.6875 792.992188 341.617188 793.742188 340.484375 C 793.742188 340.484375 794.242188 339.671875 794.054688 338.601562 M 824.640625 275.585938 C 824.640625 275.585938 829.1875 275.265625 829.9375 271.75 M 837.914062 269.429688 C 837.914062 269.429688 836.328125 269.359375 834.898438 270.804688 C 834.898438 270.804688 833.804688 272.445312 832.242188 272.25 " transform="matrix(0.5,0,0,0.5,0,0)"/>
<path style=" stroke:none;fill-rule:nonzero;fill:rgb(0%,0%,0%);fill-opacity:1;" d="M 408.957031 131.101562 C 408.957031 131.101562 410.140625 131.101562 410.796875 130.535156 C 410.796875 130.535156 411.480469 130.0625 411.886719 130.816406 C 411.886719 130.816406 412.507812 131.886719 411.355469 132.355469 C 411.355469 132.355469 409.921875 133.078125 412.195312 134.523438 C 412.195312 134.523438 409.488281 133.550781 410.578125 132.230469 C 410.578125 132.230469 411.761719 131.382812 411.324219 131.070312 C 411.324219 131.070312 411.199219 130.816406 410.734375 131.132812 C 410.265625 131.445312 409.332031 131.320312 408.957031 131.101562 Z M 408.957031 131.101562 "/>
<path style="fill-rule:nonzero;fill:rgb(39.215686%,70.588235%,81.960784%);fill-opacity:1;stroke-width:0.623;stroke-linecap:butt;stroke-linejoin:miter;stroke:rgb(0.392157%,12.941176%,41.176471%);stroke-opacity:1;stroke-miterlimit:2.613;" d="M 821.132812 204.984375 C 821.132812 204.984375 822.203125 203.53125 821.765625 199.164062 C 821.328125 194.796875 825.117188 194.296875 826.578125 195.554688 C 826.578125 195.554688 828.085938 196.859375 826.695312 199.625 C 825.898438 201.226562 824.625 203.296875 821.132812 204.984375 Z M 821.132812 204.984375 " transform="matrix(0.5,0,0,0.5,0,0)"/>
<path style=" stroke:none;fill-rule:nonzero;fill:rgb(100%,100%,100%);fill-opacity:1;" d="M 411.28125 100.863281 C 411.28125 100.863281 411.988281 100.097656 411.652344 98.441406 C 411.652344 98.441406 411.648438 98.277344 411.742188 98.265625 C 411.742188 98.265625 411.914062 98.222656 411.945312 98.386719 C 411.945312 98.386719 412.324219 100.15625 411.523438 101.113281 C 411.523438 101.113281 411.378906 101.257812 411.277344 101.113281 C 411.28125 101.113281 411.171875 101.011719 411.28125 100.863281 Z M 411.28125 100.863281 "/>
<path style="fill-rule:nonzero;fill:rgb(39.215686%,70.588235%,81.960784%);fill-opacity:1;stroke-width:0.623;stroke-linecap:butt;stroke-linejoin:miter;stroke:rgb(0.392157%,12.941176%,41.176471%);stroke-opacity:1;stroke-miterlimit:2.613;" d="M 819.921875 203.398438 C 819.921875 203.398438 819.8125 201.640625 816.765625 198.648438 C 813.726562 195.65625 816.226562 192.898438 818.09375 192.921875 C 818.09375 192.921875 820.023438 192.953125 820.71875 195.898438 C 821.117188 197.59375 821.453125 199.945312 819.921875 203.398438 Z M 819.921875 203.398438 " transform="matrix(0.5,0,0,0.5,0,0)"/>
<path style=" stroke:none;fill-rule:nonzero;fill:rgb(100%,100%,100%);fill-opacity:1;" d="M 409.726562 99.785156 C 409.726562 99.785156 409.753906 98.707031 408.375 97.582031 C 408.375 97.582031 408.261719 97.453125 408.328125 97.382812 C 408.328125 97.382812 408.429688 97.234375 408.5625 97.347656 C 408.5625 97.347656 410.046875 98.535156 410.082031 99.832031 C 410.082031 99.832031 410.066406 100.042969 409.894531 99.988281 C 409.894531 99.988281 409.742188 99.976562 409.726562 99.785156 Z M 409.726562 99.785156 "/>
<path style="fill-rule:nonzero;fill:rgb(39.215686%,70.588235%,81.960784%);fill-opacity:1;stroke-width:0.623;stroke-linecap:butt;stroke-linejoin:miter;stroke:rgb(0.392157%,12.941176%,41.176471%);stroke-opacity:1;stroke-miterlimit:2.613;" d="M 815.789062 202.078125 C 815.789062 202.078125 815 200.640625 811.242188 199.3125 C 807.484375 197.976562 808.5 194.695312 810.078125 193.992188 C 810.078125 193.992188 811.71875 193.273438 813.476562 195.46875 C 814.492188 196.742188 815.710938 198.578125 815.789062 202.078125 Z M 815.789062 202.078125 " transform="matrix(0.5,0,0,0.5,0,0)"/>
<path style=" stroke:none;fill-rule:nonzero;fill:rgb(100%,100%,100%);fill-opacity:1;" d="M 407.074219 99.71875 C 407.074219 99.71875 406.644531 98.730469 404.925781 98.296875 C 404.925781 98.296875 404.769531 98.226562 404.796875 98.136719 C 404.796875 98.136719 404.828125 97.960938 404.996094 98.007812 C 404.996094 98.007812 406.839844 98.449219 407.414062 99.609375 C 407.414062 99.609375 407.488281 99.804688 407.3125 99.832031 C 407.3125 99.832031 407.167969 99.886719 407.074219 99.71875 Z M 407.074219 99.71875 "/>
<path style="fill-rule:nonzero;fill:rgb(39.215686%,70.588235%,81.960784%);fill-opacity:1;stroke-width:0.623;stroke-linecap:butt;stroke-linejoin:miter;stroke:rgb(0.392157%,12.941176%,41.176471%);stroke-opacity:1;stroke-miterlimit:2.613;" d="M 818.148438 203.515625 C 818.148438 203.515625 816.390625 204.007812 812.367188 202.0625 C 808.351562 200.125 806.585938 203.5 807.289062 205.304688 C 807.289062 205.304688 808.03125 207.179688 811.140625 206.851562 C 812.9375 206.65625 815.351562 206.1875 818.148438 203.515625 Z M 818.148438 203.515625 " transform="matrix(0.5,0,0,0.5,0,0)"/>
<path style=" stroke:none;fill-rule:nonzero;fill:rgb(100%,100%,100%);fill-opacity:1;" d="M 404.394531 102.398438 C 404.394531 102.398438 405.308594 102.960938 406.960938 102.320312 C 406.960938 102.320312 407.132812 102.285156 407.160156 102.378906 C 407.160156 102.378906 407.234375 102.539062 407.070312 102.597656 C 407.070312 102.597656 405.308594 103.300781 404.179688 102.683594 C 404.179688 102.683594 404.007812 102.566406 404.136719 102.441406 C 404.136719 102.441406 404.222656 102.316406 404.394531 102.398438 Z M 404.394531 102.398438 "/>
<path style="fill:none;stroke-width:0.831;stroke-linecap:butt;stroke-linejoin:miter;stroke:rgb(0%,0%,0%);stroke-opacity:1;stroke-miterlimit:2.613;" d="M 812.257812 190.796875 C 812.257812 190.796875 814.265625 191.773438 813.804688 194.125 " transform="matrix(0.5,0,0,0.5,0,0)"/>
<path style="fill:none;stroke-width:0.831;stroke-linecap:butt;stroke-linejoin:miter;stroke:rgb(0%,0%,0%);stroke-opacity:1;stroke-miterlimit:10;" d="M 821.140625 191.125 C 821.140625 191.125 821.921875 193.617188 821.054688 194.953125 " transform="matrix(0.5,0,0,0.5,0,0)"/>
<path style="fill-rule:nonzero;fill:rgb(39.215686%,70.588235%,81.960784%);fill-opacity:1;stroke-width:0.623;stroke-linecap:butt;stroke-linejoin:miter;stroke:rgb(0.392157%,12.941176%,41.176471%);stroke-opacity:1;stroke-miterlimit:2.613;" d="M 682.53125 204.984375 C 682.53125 204.984375 681.460938 203.53125 681.898438 199.164062 C 682.335938 194.796875 678.539062 194.296875 677.085938 195.554688 C 677.085938 195.554688 675.578125 196.859375 676.960938 199.625 C 677.765625 201.226562 679.039062 203.296875 682.53125 204.984375 Z M 682.53125 204.984375 " transform="matrix(0.5,0,0,0.5,0,0)"/>
<path style=" stroke:none;fill-rule:nonzero;fill:rgb(100%,100%,100%);fill-opacity:1;" d="M 340.550781 100.863281 C 340.550781 100.863281 339.839844 100.097656 340.179688 98.441406 C 340.179688 98.441406 340.183594 98.277344 340.089844 98.265625 C 340.089844 98.265625 339.914062 98.222656 339.886719 98.386719 C 339.886719 98.386719 339.503906 100.15625 340.308594 101.113281 C 340.308594 101.113281 340.453125 101.257812 340.550781 101.113281 C 340.550781 101.113281 340.660156 101.011719 340.550781 100.863281 Z M 340.550781 100.863281 "/>
<path style="fill-rule:nonzero;fill:rgb(39.215686%,70.588235%,81.960784%);fill-opacity:1;stroke-width:0.623;stroke-linecap:butt;stroke-linejoin:miter;stroke:rgb(0.392157%,12.941176%,41.176471%);stroke-opacity:1;stroke-miterlimit:2.613;" d="M 683.734375 203.398438 C 683.734375 203.398438 683.851562 201.640625 686.890625 198.648438 C 689.9375 195.65625 687.429688 192.898438 685.570312 192.921875 C 685.570312 192.921875 683.640625 192.953125 682.945312 195.898438 C 682.546875 197.59375 682.203125 199.945312 683.734375 203.398438 Z M 683.734375 203.398438 " transform="matrix(0.5,0,0,0.5,0,0)"/>
<path style=" stroke:none;fill-rule:nonzero;fill:rgb(100%,100%,100%);fill-opacity:1;" d="M 342.105469 99.785156 C 342.105469 99.785156 342.078125 98.707031 343.457031 97.582031 C 343.457031 97.582031 343.566406 97.453125 343.503906 97.382812 C 343.503906 97.382812 343.402344 97.234375 343.269531 97.347656 C 343.269531 97.347656 341.785156 98.535156 341.75 99.832031 C 341.75 99.832031 341.765625 100.042969 341.9375 99.988281 C 341.9375 99.988281 342.085938 99.976562 342.105469 99.785156 Z M 342.105469 99.785156 "/>
<path style="fill-rule:nonzero;fill:rgb(39.215686%,70.588235%,81.960784%);fill-opacity:1;stroke-width:0.623;stroke-linecap:butt;stroke-linejoin:miter;stroke:rgb(0.392157%,12.941176%,41.176471%);stroke-opacity:1;stroke-miterlimit:2.613;" d="M 687.867188 202.078125 C 687.867188 202.078125 688.664062 200.640625 692.421875 199.3125 C 696.179688 197.976562 695.164062 194.695312 693.578125 193.992188 C 693.578125 193.992188 691.9375 193.273438 690.1875 195.46875 C 689.171875 196.742188 687.945312 198.578125 687.867188 202.078125 Z M 687.867188 202.078125 " transform="matrix(0.5,0,0,0.5,0,0)"/>
<path style=" stroke:none;fill-rule:nonzero;fill:rgb(100%,100%,100%);fill-opacity:1;" d="M 344.757812 99.71875 C 344.757812 99.71875 345.183594 98.730469 346.90625 98.296875 C 346.90625 98.296875 347.0625 98.226562 347.03125 98.136719 C 347.03125 98.136719 347 97.960938 346.832031 98.007812 C 346.832031 98.007812 344.992188 98.449219 344.414062 99.609375 C 344.414062 99.609375 344.34375 99.804688 344.519531 99.832031 C 344.519531 99.832031 344.660156 99.886719 344.757812 99.71875 Z M 344.757812 99.71875 "/>
<path style="fill-rule:nonzero;fill:rgb(39.215686%,70.588235%,81.960784%);fill-opacity:1;stroke-width:0.623;stroke-linecap:butt;stroke-linejoin:miter;stroke:rgb(0.392157%,12.941176%,41.176471%);stroke-opacity:1;stroke-miterlimit:2.613;" d="M 685.515625 203.515625 C 685.515625 203.515625 687.265625 204.007812 691.289062 202.0625 C 695.3125 200.125 697.078125 203.5 696.367188 205.304688 C 696.367188 205.304688 695.632812 207.179688 692.515625 206.851562 C 690.71875 206.65625 688.3125 206.1875 685.515625 203.515625 Z M 685.515625 203.515625 " transform="matrix(0.5,0,0,0.5,0,0)"/>
<path style=" stroke:none;fill-rule:nonzero;fill:rgb(100%,100%,100%);fill-opacity:1;" d="M 347.433594 102.398438 C 347.433594 102.398438 346.523438 102.960938 344.867188 102.320312 C 344.867188 102.320312 344.699219 102.285156 344.671875 102.378906 C 344.671875 102.378906 344.597656 102.539062 344.761719 102.597656 C 344.761719 102.597656 346.523438 103.300781 347.652344 102.683594 C 347.652344 102.683594 347.824219 102.566406 347.695312 102.441406 C 347.695312 102.441406 347.609375 102.316406 347.433594 102.398438 Z M 347.433594 102.398438 "/>
<path style="fill:none;stroke-width:0.831;stroke-linecap:butt;stroke-linejoin:miter;stroke:rgb(0%,0%,0%);stroke-opacity:1;stroke-miterlimit:2.613;" d="M 691.398438 190.796875 C 691.398438 190.796875 689.390625 191.773438 689.859375 194.125 " transform="matrix(0.5,0,0,0.5,0,0)"/>
<path style="fill:none;stroke-width:0.831;stroke-linecap:butt;stroke-linejoin:miter;stroke:rgb(0%,0%,0%);stroke-opacity:1;stroke-miterlimit:10;" d="M 682.523438 191.125 C 682.523438 191.125 681.734375 193.617188 682.601562 194.953125 " transform="matrix(0.5,0,0,0.5,0,0)"/>
<path style=" stroke:none;fill-rule:nonzero;fill:rgb(0%,0%,0%);fill-opacity:1;" d="M 384.871094 84.136719 C 384.871094 84.136719 385.507812 85.953125 385.230469 87.601562 C 384.984375 89.074219 385.320312 89.453125 385.851562 89.746094 C 386.3125 89.996094 387.378906 89.554688 387.507812 88.402344 C 387.507812 88.402344 388.769531 90.863281 386.316406 92.523438 C 386.316406 92.523438 384.554688 93.609375 383.058594 92.160156 C 382.53125 91.648438 382.300781 90.238281 382.554688 88.929688 C 382.554688 88.929688 382.941406 87.15625 382.300781 85.339844 C 382.300781 85.339844 383.304688 86.410156 383.046875 88.546875 C 383.046875 88.546875 382.53125 92.382812 385.371094 92.195312 C 385.371094 92.195312 387.332031 92.171875 387.390625 89.789062 C 387.390625 89.789062 386.65625 90.640625 385.746094 90.355469 C 385.097656 90.15625 384.507812 89.53125 384.613281 88.546875 C 384.722656 87.515625 385.007812 85.714844 384.871094 84.136719 Z M 381.652344 90.433594 C 381.652344 90.433594 381.496094 93.464844 378.726562 94.203125 C 378.726562 94.203125 379.113281 93.65625 378.492188 92.148438 C 378.492188 92.148438 377.882812 91.265625 377.929688 89.902344 C 377.929688 89.902344 377.046875 90.589844 378.054688 92.414062 C 378.664062 93.511719 378.132812 94.832031 377.945312 94.878906 C 377.757812 94.925781 382.527344 94.25 381.652344 90.433594 Z M 378.054688 87.417969 C 378.054688 87.417969 377.386719 86.664062 377.339844 84.921875 C 377.292969 83.179688 376.964844 82.753906 376.730469 82.550781 C 376.730469 82.550781 377.074219 84.058594 376.980469 84.984375 C 376.886719 85.910156 377.042969 86.445312 377.167969 86.882812 C 377.167969 86.882812 375.65625 87.121094 374.707031 84.921875 C 373.796875 82.820312 372.882812 82.988281 372.433594 83.003906 C 372.433594 83.003906 372.957031 83.0625 374.019531 84.984375 C 375.082031 86.902344 375.375 87.292969 378.054688 87.417969 Z M 370.984375 82.863281 C 370.984375 82.863281 371.855469 84.953125 371.886719 86.050781 C 371.886719 86.050781 369.863281 85.378906 369.316406 83.617188 C 369.316406 83.617188 367.152344 84.355469 367.945312 86.851562 C 367.945312 86.851562 366.078125 86.195312 365.238281 84.671875 C 365.238281 84.671875 366.28125 85.457031 367.246094 85.800781 C 367.246094 85.800781 367.136719 83.789062 369.660156 83.035156 C 369.660156 83.035156 370.035156 84.835938 371.296875 85.265625 C 371.296875 85.265625 371.203125 84.136719 370.984375 82.863281 Z M 374.316406 79.28125 C 374.316406 79.28125 375.019531 80.304688 376.449219 80.351562 C 377.136719 80.375 377.871094 80.21875 378.585938 79.28125 C 378.585938 79.28125 378.492188 81.058594 376.449219 81.074219 C 376.449219 81.074219 374.316406 81.152344 374.316406 79.28125 Z M 365.488281 91.417969 C 365.488281 91.417969 366.550781 92.382812 366.773438 92.699219 C 366.773438 92.699219 367.523438 93.429688 368.164062 92.488281 C 368.164062 92.488281 368.984375 90.976562 369.988281 91.015625 C 369.988281 91.015625 369.273438 91.511719 368.472656 92.9375 C 368.472656 92.9375 368.257812 93.464844 367.660156 93.523438 C 367.382812 93.550781 367.03125 93.644531 366.5 93.085938 C 366.5 93.085938 366.039062 92.523438 365.488281 91.417969 Z M 376.449219 72.167969 C 374.316406 72.167969 376.117188 73.816406 376.117188 73.816406 C 376.164062 76.429688 374.0625 77.238281 372.636719 76.480469 C 371.207031 75.722656 372.324219 73.816406 372.324219 73.816406 C 372.324219 73.816406 370.710938 74.875 371.738281 76.40625 C 372.765625 77.941406 375.460938 77.257812 376.449219 75.84375 C 377.441406 77.257812 380.132812 77.941406 381.164062 76.40625 C 382.191406 74.875 380.578125 73.816406 380.578125 73.816406 C 380.578125 73.816406 381.695312 75.722656 380.265625 76.480469 C 378.839844 77.238281 376.738281 76.433594 376.785156 73.816406 C 376.785156 73.816406 378.585938 72.167969 376.449219 72.167969 Z M 377.742188 69.339844 C 377.742188 69.339844 378.492188 70.613281 378.328125 72.542969 C 378.328125 72.542969 379.003906 70.613281 377.742188 69.339844 Z M 371.203125 72.332031 C 371.203125 72.332031 371.039062 70.941406 369.683594 70.824219 C 369.683594 70.824219 370.828125 71.648438 371.203125 72.332031 Z M 381.714844 72.332031 C 381.714844 72.332031 381.878906 70.941406 383.234375 70.824219 C 383.234375 70.824219 382.089844 71.648438 381.714844 72.332031 Z M 369.050781 74.453125 C 369.050781 74.453125 370.128906 74.78125 370.78125 73.980469 C 370.78125 73.980469 369.542969 74.3125 369.050781 74.453125 Z M 365.570312 65.925781 C 365.570312 65.925781 366.820312 65.78125 368.070312 67.644531 C 368.070312 67.644531 366.832031 68.304688 366.53125 68.703125 C 366.53125 68.703125 366.53125 68.089844 367.136719 67.550781 C 367.136719 67.550781 366.902344 66.609375 365.570312 65.925781 Z M 386.503906 65.925781 C 386.503906 65.925781 385.253906 65.78125 384.003906 67.644531 C 384.003906 67.644531 385.242188 68.304688 385.546875 68.703125 C 385.546875 68.703125 385.546875 68.089844 384.941406 67.550781 C 384.941406 67.550781 385.171875 66.609375 386.503906 65.925781 Z M 376.855469 67.3125 C 376.855469 67.3125 377.976562 67.621094 379.378906 66.84375 C 379.378906 66.84375 381.109375 65.925781 382.207031 66.84375 C 382.207031 66.84375 381.246094 66.417969 379.402344 67.3125 C 379.402344 67.3125 377.554688 68.324219 376.855469 67.3125 Z M 376.855469 67.3125 "/>
<path style=" stroke:none;fill-rule:nonzero;fill:rgb(100%,100%,100%);fill-opacity:1;" d="M 378.023438 68.445312 C 378.023438 68.445312 378.980469 66.765625 381.902344 67.097656 C 381.902344 67.097656 381.109375 69.433594 378.023438 68.445312 Z M 378.023438 68.445312 "/>
<path style=" stroke:none;fill-rule:nonzero;fill:rgb(47.058824%,26.666667%,12.941176%);fill-opacity:1;" d="M 380.617188 67.925781 C 380.617188 67.519531 380.359375 67.191406 380.039062 67.191406 C 379.71875 67.191406 379.460938 67.519531 379.460938 67.925781 C 379.460938 68.328125 379.71875 68.65625 380.039062 68.65625 C 380.359375 68.65625 380.617188 68.328125 380.617188 67.925781 Z M 380.617188 67.925781 "/>
<path style=" stroke:none;fill-rule:nonzero;fill:rgb(0%,0%,0%);fill-opacity:1;" d="M 380.382812 67.925781 C 380.382812 67.675781 380.226562 67.476562 380.039062 67.476562 C 379.847656 67.476562 379.695312 67.675781 379.695312 67.925781 C 379.695312 68.171875 379.847656 68.371094 380.039062 68.371094 C 380.226562 68.371094 380.382812 68.171875 380.382812 67.925781 Z M 380.382812 67.925781 "/>
<path style=" stroke:none;fill-rule:nonzero;fill:rgb(0%,0%,0%);fill-opacity:1;" d="M 371.761719 64.863281 C 371.761719 64.863281 373.609375 64.980469 374.730469 65.6875 C 374.730469 65.6875 375.921875 66.394531 377.277344 65.382812 C 377.277344 65.382812 378.75 64.535156 379.695312 63.355469 C 379.695312 63.355469 377.441406 64.910156 376.597656 65.148438 C 376.597656 65.148438 375.828125 64.558594 375.523438 63.710938 C 375.523438 63.710938 375.640625 63.074219 376.855469 61.894531 C 376.855469 61.894531 375.21875 62.390625 374.894531 63.78125 C 374.894531 63.78125 375.195312 64.628906 375.828125 65.289062 C 375.828125 65.289062 375.523438 65.429688 374.730469 64.933594 C 374.730469 64.933594 373 64.34375 371.761719 64.863281 Z M 376.449219 75.949219 C 374.855469 77.328125 376.449219 77.1875 376.449219 77.1875 C 376.449219 77.1875 378.046875 77.328125 376.449219 75.949219 Z M 375.527344 67.3125 C 375.527344 67.3125 374.40625 67.621094 373.003906 66.84375 C 373.003906 66.84375 371.273438 65.925781 370.175781 66.84375 C 370.175781 66.84375 371.132812 66.417969 372.980469 67.3125 C 372.980469 67.3125 374.824219 68.324219 375.527344 67.3125 Z M 375.527344 67.3125 "/>
<path style=" stroke:none;fill-rule:nonzero;fill:rgb(100%,100%,100%);fill-opacity:1;" d="M 374.359375 68.445312 C 374.359375 68.445312 373.402344 66.765625 370.480469 67.097656 C 370.480469 67.097656 371.273438 69.433594 374.359375 68.445312 Z M 374.359375 68.445312 "/>
<path style=" stroke:none;fill-rule:nonzero;fill:rgb(47.058824%,26.666667%,12.941176%);fill-opacity:1;" d="M 372.921875 67.925781 C 372.921875 67.519531 372.664062 67.191406 372.34375 67.191406 C 372.027344 67.191406 371.765625 67.519531 371.765625 67.925781 C 371.765625 68.328125 372.027344 68.65625 372.34375 68.65625 C 372.664062 68.65625 372.921875 68.328125 372.921875 67.925781 Z M 372.921875 67.925781 "/>
<path style=" stroke:none;fill-rule:nonzero;fill:rgb(0%,0%,0%);fill-opacity:1;" d="M 372.6875 67.925781 C 372.6875 67.675781 372.535156 67.476562 372.34375 67.476562 C 372.15625 67.476562 372 67.675781 372 67.925781 C 372 68.171875 372.15625 68.371094 372.34375 68.371094 C 372.535156 68.371094 372.6875 68.171875 372.6875 67.925781 Z M 372.6875 67.925781 "/>
<path style="fill:none;stroke-width:2;stroke-linecap:butt;stroke-linejoin:miter;stroke:rgb(0%,0%,0%);stroke-opacity:1;stroke-miterlimit:4;" d="M 865.726562 106.664062 L 865.726562 318.398438 C 865.726562 374.960938 752.664062 393.335938 752.664062 393.335938 C 752.664062 393.335938 639.601562 374.960938 639.601562 318.398438 L 639.601562 106.664062 Z M 865.726562 106.664062 " transform="matrix(0.5,0,0,0.5,0,0)"/>
</g>
</svg>
