<?xml version="1.0" encoding="UTF-8"?>
<svg xmlns="http://www.w3.org/2000/svg" xmlns:xlink="http://www.w3.org/1999/xlink" width="px" height="px" viewBox="0 0 720 360" version="1.1">
<g id="surface1">
<rect x="0" y="0" width="720" height="360" style="fill:rgb(96.862745%,87.843137%,9.019608%);fill-opacity:1;stroke:none;"/>
<path style=" stroke:none;fill-rule:nonzero;fill:rgb(100%,100%,100%);fill-opacity:1;" d="M 0 25 L 0 185 L 720 260 L 720 175 Z M 0 25 "/>
<path style=" stroke:none;fill-rule:nonzero;fill:rgb(0%,0%,0%);fill-opacity:1;" d="M 0 110 L 0 185 L 720 335 L 720 260 Z M 0 110 "/>
<path style=" stroke:none;fill-rule:nonzero;fill:rgb(81.176471%,6.666667%,14.901961%);fill-opacity:1;" d="M 347.871094 284.859375 C 338.191406 283.574219 329.316406 280.496094 323.148438 276.273438 C 321.953125 275.453125 320.828125 274.785156 320.65625 274.785156 C 320.476562 274.785156 320.328125 275.695312 320.328125 276.820312 C 320.328125 280.003906 319.050781 281.609375 315.828125 282.445312 C 312.75 283.246094 308.050781 281.628906 304.238281 278.46875 C 300.296875 275.195312 295.738281 272.695312 291.886719 271.695312 C 288.710938 270.863281 284.496094 271 281.449219 272.019531 C 280.035156 272.496094 278.425781 273.164062 277.863281 273.511719 C 277.308594 273.855469 276.683594 274.136719 276.484375 274.136719 C 275.945312 274.136719 276.019531 270.710938 276.585938 269.613281 C 277.328125 268.179688 279.164062 266.765625 281.304688 265.984375 C 282.386719 265.589844 283.269531 265.085938 283.269531 264.859375 C 283.269531 264.636719 282.90625 263.808594 282.460938 263.035156 C 281.011719 260.496094 281.605469 258.035156 284.136719 256.101562 C 286.726562 254.121094 291.109375 253.78125 294.984375 255.253906 C 295.960938 255.625 296.871094 255.929688 297.003906 255.929688 C 297.515625 255.929688 297.203125 255.214844 295.800781 253.171875 C 294.179688 250.800781 293.859375 249.628906 294.058594 246.808594 C 294.320312 243.238281 297.230469 240.320312 300.796875 240.058594 C 303.703125 239.851562 305.515625 240.828125 309.808594 244.921875 C 322.636719 257.148438 336.578125 263.890625 352.84375 265.714844 C 356.949219 266.175781 365.210938 265.929688 370.054688 265.199219 C 384.691406 262.996094 399.433594 255.636719 410.949219 244.789062 C 414.140625 241.785156 415.675781 240.988281 418.289062 240.980469 C 420.566406 240.96875 422.160156 241.703125 423.789062 243.503906 C 425.273438 245.15625 425.78125 246.71875 425.621094 249.226562 C 425.515625 250.828125 425.253906 251.621094 424.300781 253.175781 C 422.890625 255.46875 423.128906 255.679688 425.921875 254.601562 C 429.691406 253.128906 434.335938 253.808594 436.839844 256.191406 C 439.046875 258.285156 439.253906 260.378906 437.539062 263.21875 C 436.914062 264.261719 436.40625 265.234375 436.40625 265.390625 C 436.40625 265.675781 436.878906 265.808594 439.171875 266.179688 C 442.164062 266.660156 443.878906 268.886719 443.878906 272.285156 C 443.878906 273.304688 443.753906 274.136719 443.601562 274.136719 C 443.449219 274.136719 442.316406 273.71875 441.078125 273.210938 C 437.589844 271.769531 435.605469 271.398438 431.523438 271.425781 C 428.421875 271.445312 427.351562 271.589844 425.183594 272.296875 C 421.871094 273.378906 418.324219 275.46875 415.433594 278.046875 C 412.25 280.886719 410.246094 281.78125 407.144531 281.753906 C 404.265625 281.726562 402.296875 280.890625 401.253906 279.246094 C 400.699219 278.363281 400.621094 277.828125 400.753906 275.839844 C 400.84375 274.546875 400.824219 273.484375 400.71875 273.484375 C 400.609375 273.484375 399.488281 274.195312 398.226562 275.070312 C 394.90625 277.351562 392.789062 278.480469 388.988281 279.984375 C 377.398438 284.570312 360.675781 286.554688 347.871094 284.859375 Z M 347.871094 284.859375 "/>
<path style=" stroke:none;fill-rule:nonzero;fill:rgb(81.176471%,6.666667%,14.901961%);fill-opacity:1;" d="M 353.171875 262.585938 C 333.878906 260.734375 315.421875 250.6875 304.199219 234.757812 C 292.015625 218.140625 288.175781 196.199219 291.894531 176.136719 C 293.871094 167.003906 297.859375 157.863281 304.667969 151.359375 C 299.242188 162.859375 297.410156 176.042969 300.300781 188.503906 C 304.796875 213.382812 325.820312 234.441406 350.972656 238.082031 C 360.921875 240.964844 371.214844 237.921875 380.71875 234.835938 C 401.6875 227.445312 417.660156 207.542969 419.609375 185.296875 C 421.277344 173.257812 419.429688 160.738281 414.003906 149.839844 C 417.097656 151.472656 421 157.882812 423.300781 162.191406 C 431.300781 177.695312 431.667969 196.269531 426.957031 212.8125 C 420.566406 233.859375 404.472656 252.300781 383.199219 259.003906 C 373.546875 262.15625 363.28125 263.117188 353.171875 262.585938 Z M 353.171875 262.585938 "/>
<path style=" stroke:none;fill-rule:nonzero;fill:rgb(81.176471%,6.666667%,14.901961%);fill-opacity:1;" d="M 256.011719 234.949219 C 254.746094 234.753906 253.351562 235.996094 253.828125 237.296875 C 254.738281 238.613281 256.308594 239.257812 257.726562 239.886719 C 261.125 241.25 264.816406 241.78125 268.464844 241.691406 C 267.207031 241.6875 268.894531 241.703125 269.363281 241.691406 C 272.25 241.699219 275.121094 241.179688 277.835938 240.199219 C 279.34375 239.671875 281.269531 239.1875 281.886719 237.519531 C 282.488281 236.433594 281.394531 235.347656 280.292969 235.5625 C 278.757812 235.898438 277.320312 236.597656 275.796875 236.992188 C 272.511719 237.917969 269.050781 238.277344 265.648438 238 C 263.15625 237.695312 260.746094 236.898438 258.441406 235.925781 C 257.644531 235.574219 256.894531 235.058594 256.007812 234.949219 Z M 256.011719 234.949219 "/>
<path style=" stroke:none;fill-rule:nonzero;fill:rgb(81.176471%,6.666667%,14.901961%);fill-opacity:1;" d="M 257.414062 229.761719 C 256.136719 229.570312 255.035156 231.039062 255.570312 232.214844 C 256.550781 233.636719 258.203125 234.398438 259.746094 235.0625 C 262.433594 236.136719 265.347656 236.585938 268.234375 236.5 C 267.140625 236.496094 268.609375 236.515625 269.015625 236.5 C 203.710938 245.480469 143.488281 199.816406 134.507812 134.507812 C 125.53125 69.199219 171.191406 8.980469 236.5 0 C 237.886719 -0.539062 239.585938 -1.0625 240.164062 -2.589844 C 240.613281 -3.425781 240.269531 -4.648438 239.214844 -4.710938 C 238.25 -4.761719 237.417969 -4.144531 236.523438 -3.871094 C 233.28125 -2.53125 229.714844 -1.960938 226.21875 -2.261719 C 224.039062 -2.542969 221.957031 -3.347656 219.984375 -4.277344 C 219.238281 -4.636719 218.574219 -5.195312 217.738281 -5.324219 Z M 257.414062 229.761719 "/>
<path style=" stroke:none;fill-rule:nonzero;fill:rgb(81.176471%,6.666667%,14.901961%);fill-opacity:1;" d="M 259.140625 224.785156 C 258.046875 224.652344 257.289062 225.890625 257.476562 226.875 C 257.640625 227.742188 258.417969 228.324219 259.058594 228.855469 C 261.722656 230.804688 265.101562 231.636719 268.371094 231.527344 C 267.101562 231.523438 270.078125 231.546875 269.171875 231.523438 C 271.242188 231.515625 273.289062 231.007812 275.152344 230.109375 C 276.398438 229.570312 277.859375 228.941406 278.277344 227.523438 C 278.480469 226.859375 278.605469 225.90625 277.859375 225.535156 C 277.074219 225.097656 276.300781 225.773438 275.589844 226.042969 C 273.195312 227.261719 270.527344 227.941406 267.835938 227.929688 C 265.511719 228.007812 263.320312 227.027344 261.300781 225.976562 C 260.570312 225.601562 259.964844 224.953125 259.140625 224.785156 Z M 259.140625 224.785156 "/>
<path style=" stroke:none;fill-rule:nonzero;fill:rgb(81.176471%,6.666667%,14.901961%);fill-opacity:1;" d="M 240.765625 151.351562 C 239.136719 152.980469 240.378906 155.984375 240.292969 158.121094 C 241.136719 164.699219 242.183594 171.363281 244.640625 177.554688 C 247.648438 183.609375 254.035156 186.84375 257.90625 192.191406 C 259.289062 194.769531 258.800781 197.867188 259.089844 200.6875 C 259.320312 208.371094 259.25 216.058594 259.113281 223.742188 C 262.585938 225.484375 266.351562 227.234375 270.34375 226.566406 C 272.707031 226 277.097656 225.652344 277.589844 223.296875 C 277.398438 210.046875 277.277344 196.789062 277.097656 183.542969 C 275.753906 179.484375 271.625 177.382812 268.535156 174.785156 C 220.269531 177.007812 179.339844 139.683594 177.117188 91.417969 C 174.894531 43.152344 212.21875 2.222656 260.484375 0 C 259.175781 -2.207031 254.050781 -3.003906 255.90625 0.839844 C 256.992188 4.164062 259.765625 6.644531 260.460938 10.140625 C 260.609375 12.054688 262.898438 15.578125 260.945312 16.695312 C 259.703125 14.585938 257.90625 12.789062 255.605469 11.71875 C 253.386719 10.066406 249.726562 9.378906 248.925781 6.460938 C 248.335938 2.320312 246.21875 -1.433594 243.480469 -4.535156 C 244.1875 -8.253906 243.484375 -12.902344 240.269531 -15.277344 L 239.808594 -15.386719 Z M 240.765625 151.351562 "/>
<path style=" stroke:none;fill-rule:nonzero;fill:rgb(81.176471%,6.666667%,14.901961%);fill-opacity:1;" d="M 245.71875 152.09375 C 244.238281 152.335938 244.289062 154.222656 244.972656 155.214844 C 245.703125 157.359375 245.902344 159.6875 245.507812 161.917969 C 248.140625 165.003906 250.179688 168.691406 250.796875 172.738281 C 250.808594 174.261719 252.410156 174.765625 253.449219 175.515625 C 255.886719 177.066406 258.625 178.191406 260.792969 180.132812 C 261.25 180.621094 261.59375 181.148438 261.273438 180.152344 C 260.933594 178.878906 260.757812 177.472656 259.761719 176.507812 C 258.394531 175.039062 256.6875 173.726562 254.695312 173.277344 C 254.527344 171.222656 253.546875 169.332031 252.644531 167.511719 C 251.640625 165.773438 250.59375 163.910156 248.875 162.78125 C 248.941406 159.730469 248.890625 156.535156 247.582031 153.71875 C 247.195312 152.996094 246.628906 152.136719 245.71875 152.09375 Z M 245.71875 152.09375 "/>
<path style=" stroke:none;fill-rule:nonzero;fill:rgb(81.176471%,6.666667%,14.901961%);fill-opacity:1;" d="M 249.863281 153.308594 C 248.832031 153.617188 249.03125 154.890625 249.355469 155.667969 C 249.851562 157.824219 249.929688 160.054688 249.886719 162.261719 C 251.785156 163.761719 252.96875 165.933594 254.050781 168.054688 C 254.726562 169.46875 255.367188 170.929688 255.628906 172.484375 C 257.164062 172.996094 258.511719 173.960938 259.710938 175.023438 C 259.238281 173.582031 258.175781 172.46875 257.460938 171.152344 C 256.683594 169.785156 255.945312 168.355469 255.617188 166.804688 C 254.136719 165.226562 253.320312 162.992188 253.644531 160.828125 C 253.710938 158.441406 252.941406 155.976562 251.34375 154.175781 C 250.941406 153.777344 250.460938 153.339844 249.863281 153.308594 Z M 249.863281 153.308594 "/>
<path style=" stroke:none;fill-rule:nonzero;fill:rgb(81.176471%,6.666667%,14.901961%);fill-opacity:1;" d="M 254.578125 153.984375 C 254.019531 154.085938 253.675781 154.617188 253.378906 155.054688 C 253.261719 155.488281 253.796875 155.960938 253.882812 156.433594 C 210.683594 183.34375 153.851562 170.136719 126.941406 126.941406 C 100.03125 83.742188 113.234375 26.910156 156.433594 0 C 156.390625 1.25 156.839844 2.472656 157.476562 3.53125 C 157.660156 2.75 158.382812 2.1875 159.167969 2.113281 C 159.453125 2.0625 159.875 2.207031 159.707031 1.769531 C 159.507812 -0.621094 159.144531 -3.027344 158.308594 -5.289062 C 157.984375 -6.097656 157.613281 -6.945312 156.914062 -7.5 C 156.773438 -7.597656 156.605469 -7.6875 156.425781 -7.660156 Z M 254.578125 153.984375 "/>
<path style=" stroke:none;fill-rule:nonzero;fill:rgb(81.176471%,6.666667%,14.901961%);fill-opacity:1;" d="M 463.988281 234.949219 C 465.253906 234.753906 466.648438 235.996094 466.171875 237.296875 C 465.261719 238.613281 463.691406 239.257812 462.273438 239.886719 C 458.875 241.25 455.183594 241.78125 451.535156 241.691406 C 452.792969 241.6875 451.105469 241.703125 450.636719 241.691406 C 447.75 241.699219 444.878906 241.179688 442.164062 240.199219 C 440.65625 239.671875 438.730469 239.1875 438.113281 237.519531 C 437.511719 236.433594 438.605469 235.347656 439.707031 235.5625 C 441.242188 235.898438 442.679688 236.597656 444.203125 236.992188 C 447.488281 237.917969 450.949219 238.277344 454.351562 238 C 456.84375 237.695312 459.253906 236.898438 461.558594 235.925781 C 462.355469 235.574219 463.105469 235.058594 463.992188 234.949219 Z M 463.988281 234.949219 "/>
<path style=" stroke:none;fill-rule:nonzero;fill:rgb(81.176471%,6.666667%,14.901961%);fill-opacity:1;" d="M 462.585938 229.761719 C 463.863281 229.570312 464.964844 231.039062 464.429688 232.214844 C 463.449219 233.636719 461.796875 234.398438 460.253906 235.0625 C 457.566406 236.136719 454.652344 236.585938 451.765625 236.5 C 452.859375 236.496094 451.390625 236.515625 450.984375 236.5 C 516.289062 245.480469 576.511719 199.816406 585.492188 134.507812 C 594.46875 69.199219 548.808594 8.980469 483.5 0 C 482.113281 -0.539062 480.414062 -1.0625 479.835938 -2.589844 C 479.386719 -3.425781 479.730469 -4.648438 480.785156 -4.710938 C 481.75 -4.761719 482.582031 -4.144531 483.476562 -3.871094 C 486.71875 -2.53125 490.285156 -1.960938 493.78125 -2.261719 C 495.960938 -2.542969 498.042969 -3.347656 500.015625 -4.277344 C 500.761719 -4.636719 501.425781 -5.195312 502.261719 -5.324219 Z M 462.585938 229.761719 "/>
<path style=" stroke:none;fill-rule:nonzero;fill:rgb(81.176471%,6.666667%,14.901961%);fill-opacity:1;" d="M 460.859375 224.785156 C 461.953125 224.652344 462.710938 225.890625 462.523438 226.875 C 462.359375 227.742188 461.582031 228.324219 460.941406 228.855469 C 458.277344 230.804688 454.898438 231.636719 451.628906 231.527344 C 452.898438 231.523438 449.921875 231.546875 450.828125 231.523438 C 448.757812 231.515625 446.710938 231.007812 444.847656 230.109375 C 443.601562 229.570312 442.140625 228.941406 441.722656 227.523438 C 441.519531 226.859375 441.394531 225.90625 442.140625 225.535156 C 442.925781 225.097656 443.699219 225.773438 444.410156 226.042969 C 446.804688 227.261719 449.472656 227.941406 452.164062 227.929688 C 454.488281 228.007812 456.679688 227.027344 458.699219 225.976562 C 459.429688 225.601562 460.035156 224.953125 460.859375 224.785156 Z M 460.859375 224.785156 "/>
<path style=" stroke:none;fill-rule:nonzero;fill:rgb(81.176471%,6.666667%,14.901961%);fill-opacity:1;" d="M 479.234375 151.351562 C 480.863281 152.980469 479.621094 155.984375 479.707031 158.121094 C 478.863281 164.699219 477.816406 171.363281 475.359375 177.554688 C 472.351562 183.609375 465.964844 186.84375 462.09375 192.191406 C 460.710938 194.769531 461.199219 197.867188 460.910156 200.6875 C 460.679688 208.371094 460.75 216.058594 460.886719 223.742188 C 457.414062 225.484375 453.648438 227.234375 449.65625 226.566406 C 447.292969 226 442.902344 225.652344 442.410156 223.296875 C 442.601562 210.046875 442.722656 196.789062 442.902344 183.542969 C 444.246094 179.484375 448.375 177.382812 451.464844 174.785156 C 499.730469 177.007812 540.660156 139.683594 542.882812 91.417969 C 545.105469 43.152344 507.78125 2.222656 459.515625 0 C 460.824219 -2.207031 465.949219 -3.003906 464.09375 0.839844 C 463.007812 4.164062 460.234375 6.644531 459.539062 10.140625 C 459.390625 12.054688 457.101562 15.578125 459.054688 16.695312 C 460.296875 14.585938 462.09375 12.789062 464.394531 11.71875 C 466.613281 10.066406 470.273438 9.378906 471.074219 6.460938 C 471.664062 2.320312 473.78125 -1.433594 476.519531 -4.535156 C 475.8125 -8.253906 476.515625 -12.902344 479.730469 -15.277344 L 480.191406 -15.386719 Z M 479.234375 151.351562 "/>
<path style=" stroke:none;fill-rule:nonzero;fill:rgb(81.176471%,6.666667%,14.901961%);fill-opacity:1;" d="M 474.28125 152.09375 C 475.761719 152.335938 475.710938 154.222656 475.027344 155.214844 C 474.296875 157.359375 474.097656 159.6875 474.492188 161.917969 C 471.859375 165.003906 469.820312 168.691406 469.203125 172.738281 C 469.191406 174.261719 467.589844 174.765625 466.550781 175.515625 C 464.113281 177.066406 461.375 178.191406 459.207031 180.132812 C 458.75 180.621094 458.40625 181.148438 458.726562 180.152344 C 459.066406 178.878906 459.242188 177.472656 460.238281 176.507812 C 461.605469 175.039062 463.3125 173.726562 465.304688 173.277344 C 465.472656 171.222656 466.453125 169.332031 467.355469 167.511719 C 468.359375 165.773438 469.40625 163.910156 471.125 162.78125 C 471.058594 159.730469 471.109375 156.535156 472.417969 153.71875 C 472.804688 152.996094 473.371094 152.136719 474.28125 152.09375 Z M 474.28125 152.09375 "/>
<path style=" stroke:none;fill-rule:nonzero;fill:rgb(81.176471%,6.666667%,14.901961%);fill-opacity:1;" d="M 470.136719 153.308594 C 471.167969 153.617188 470.96875 154.890625 470.644531 155.667969 C 470.148438 157.824219 470.070312 160.054688 470.113281 162.261719 C 468.214844 163.761719 467.03125 165.933594 465.949219 168.054688 C 465.273438 169.46875 464.632812 170.929688 464.371094 172.484375 C 462.835938 172.996094 461.488281 173.960938 460.289062 175.023438 C 460.761719 173.582031 461.824219 172.46875 462.539062 171.152344 C 463.316406 169.785156 464.054688 168.355469 464.382812 166.804688 C 465.863281 165.226562 466.679688 162.992188 466.355469 160.828125 C 466.289062 158.441406 467.058594 155.976562 468.65625 154.175781 C 469.058594 153.777344 469.539062 153.339844 470.136719 153.308594 Z M 470.136719 153.308594 "/>
<path style=" stroke:none;fill-rule:nonzero;fill:rgb(81.176471%,6.666667%,14.901961%);fill-opacity:1;" d="M 465.421875 153.984375 C 465.980469 154.085938 466.324219 154.617188 466.621094 155.054688 C 466.738281 155.488281 466.203125 155.960938 466.117188 156.433594 C 509.316406 183.34375 566.148438 170.136719 593.058594 126.941406 C 619.96875 83.742188 606.765625 26.910156 563.566406 0 C 563.609375 1.25 563.160156 2.472656 562.523438 3.53125 C 562.339844 2.75 561.617188 2.1875 560.832031 2.113281 C 560.546875 2.0625 560.125 2.207031 560.292969 1.769531 C 560.492188 -0.621094 560.855469 -3.027344 561.691406 -5.289062 C 562.015625 -6.097656 562.386719 -6.945312 563.085938 -7.5 C 563.226562 -7.597656 563.394531 -7.6875 563.574219 -7.660156 Z M 465.421875 153.984375 "/>
<path style=" stroke:none;fill-rule:nonzero;fill:rgb(81.176471%,6.666667%,14.901961%);fill-opacity:1;" d="M 357.835938 237.988281 C 351.089844 237.347656 345 232.429688 342.921875 225.988281 C 343.03125 224.878906 344.414062 226.609375 345.066406 226.726562 C 346.292969 227.40625 347.617188 227.96875 349.027344 228.054688 C 350.804688 228.820312 351.90625 230.570312 353.601562 231.484375 C 354.390625 232.097656 357.179688 233.304688 356.660156 231.351562 C 356.007812 230.332031 355.558594 229.039062 356.121094 227.871094 C 357.066406 225.796875 358.523438 223.992188 359.988281 222.257812 C 361.0625 221.898438 361.785156 224.023438 362.554688 224.738281 C 363.617188 226.378906 364.902344 228.378906 364.277344 230.414062 C 363.667969 231.167969 363.265625 233.4375 364.898438 232.675781 C 366.910156 231.789062 368.554688 230.304688 370.222656 228.917969 C 371.683594 227.898438 373.550781 227.824219 375.078125 226.929688 C 375.789062 226.75 377.265625 225.335938 377.574219 226.121094 C 376.734375 228.363281 375.332031 230.375 373.832031 232.226562 C 371.402344 235 368.117188 237.089844 364.4375 237.675781 C 362.265625 238.074219 360.035156 238.160156 357.835938 237.992188 Z M 357.835938 237.988281 "/>
<path style=" stroke:none;fill-rule:nonzero;fill:rgb(81.176471%,6.666667%,14.901961%);fill-opacity:1;" d="M 365.765625 230.109375 C 365.914062 228.757812 365.605469 227.375 364.914062 226.140625 C 363.851562 223.980469 362.351562 222.058594 360.890625 220.164062 C 359.511719 219.355469 358.746094 221.992188 357.832031 222.746094 C 356.402344 224.886719 354.609375 227.074219 354.523438 229.765625 C 353.71875 231.015625 352.21875 228.746094 351.574219 227.996094 C 350.339844 226.253906 349.40625 224.1875 349.558594 222.003906 C 349.414062 218.488281 350.085938 214.984375 351.367188 211.714844 C 352.335938 208.921875 353.90625 206.210938 353.746094 203.160156 C 353.859375 200.867188 353.394531 198.332031 351.535156 196.789062 C 349.765625 195.402344 352.679688 195.105469 353.605469 195.824219 C 355.191406 195.929688 356.046875 198.550781 357.496094 197.902344 C 358.070312 196.535156 358.183594 194.902344 359.375 193.835938 C 360.539062 192.238281 361.761719 194.515625 362.160156 195.578125 C 362.984375 196.515625 362.113281 198.832031 363.449219 198.894531 C 365.054688 197.769531 366.195312 195.882812 368.246094 195.472656 C 369.078125 194.996094 370.5 195.410156 369.402344 196.363281 C 367.886719 197.785156 366.589844 199.566406 366.3125 201.679688 C 365.847656 204.332031 366.511719 207.023438 367.667969 209.414062 C 369.890625 214.109375 371.613281 219.414062 370.488281 224.636719 C 369.964844 226.960938 368.386719 228.960938 366.472656 230.308594 C 366.230469 230.453125 365.847656 230.445312 365.765625 230.109375 Z M 365.765625 230.109375 "/>
<path style=" stroke:none;fill-rule:nonzero;fill:rgb(81.176471%,6.666667%,14.901961%);fill-opacity:1;" d="M 363.363281 194.816406 C 362.636719 193.503906 361.753906 192.210938 360.527344 191.316406 C 359.339844 191.316406 358.601562 192.816406 357.792969 193.605469 C 357.226562 194.660156 356.539062 196.421875 355.140625 195.042969 C 352.921875 193.746094 352.527344 190.90625 352.539062 188.566406 C 352.402344 184.769531 353.929688 181.226562 355.285156 177.769531 C 356.152344 175.605469 355.9375 173.171875 355.410156 170.953125 C 354.746094 168.40625 352.703125 166.640625 351.132812 164.65625 C 351.238281 163.886719 353.25 164.308594 354.003906 164.453125 C 355.683594 164.878906 356.6875 166.367188 357.941406 167.417969 C 358.832031 167.148438 358.46875 165.347656 358.882812 164.5 C 358.914062 163.308594 360.5 161.738281 361.152344 163.445312 C 362.132812 164.527344 361.121094 166.675781 362.386719 167.351562 C 363.59375 166.90625 364.1875 165.585938 365.320312 164.992188 C 366.433594 164.230469 368.007812 164.148438 369.210938 164.742188 C 369.632812 165.851562 367.890625 166.769531 367.382812 167.730469 C 365.359375 170.234375 364.648438 173.6875 365.515625 176.789062 C 366.203125 179.21875 367.421875 181.492188 367.839844 184.003906 C 368.347656 186.832031 368.332031 189.800781 367.597656 192.585938 C 367.164062 194.273438 365.699219 195.40625 364.1875 196.105469 C 363.8125 195.761719 363.617188 195.25 363.363281 194.816406 Z M 363.363281 194.816406 "/>
<path style=" stroke:none;fill-rule:nonzero;fill:rgb(81.176471%,6.666667%,14.901961%);fill-opacity:1;" d="M 355.804688 163.445312 C 354.125 162.214844 353.570312 161.039062 353.570312 158.714844 C 353.570312 157.523438 353.789062 156.878906 354.574219 155.800781 C 355.730469 154.199219 355.519531 153.695312 353.886719 154.164062 C 351.253906 154.921875 350 154.230469 349.910156 151.988281 C 349.871094 150.894531 350.101562 150.429688 351.574219 148.660156 C 352.753906 147.238281 353.183594 146.496094 352.949219 146.261719 C 352.71875 146.03125 351.324219 147.238281 348.460938 150.15625 C 346.175781 152.480469 343.605469 154.855469 342.75 155.433594 C 337.828125 158.753906 333.128906 159.269531 330.984375 156.714844 C 329.886719 155.410156 329.945312 154.675781 331.214844 153.886719 C 331.800781 153.523438 332.785156 152.695312 333.410156 152.039062 C 334.886719 150.503906 339.28125 147.335938 341.460938 146.234375 C 343.230469 145.339844 343.648438 144.734375 342.5 144.734375 C 341.011719 144.734375 336.230469 147.84375 332.605469 151.175781 C 331.539062 152.160156 330.003906 153.253906 329.199219 153.609375 C 327.390625 154.410156 323.835938 154.703125 322.253906 154.183594 C 321.140625 153.816406 319.105469 151.894531 319.105469 151.210938 C 319.105469 151.03125 319.570312 150.628906 320.136719 150.324219 C 320.699219 150.023438 321.714844 149.289062 322.386719 148.703125 C 325.285156 146.160156 330.78125 143.539062 335.140625 142.625 C 336.523438 142.335938 336.015625 141.636719 334.46875 141.703125 C 331.476562 141.835938 325.53125 144.621094 321.980469 147.550781 C 317.820312 150.980469 311.546875 150.65625 309.523438 146.90625 C 309.175781 146.261719 308.96875 145.65625 309.070312 145.558594 C 309.164062 145.464844 310.398438 145.09375 311.816406 144.734375 C 313.34375 144.351562 316.375 143.09375 319.269531 141.648438 C 323.824219 139.378906 325.175781 138.894531 328.308594 138.390625 C 329.71875 138.164062 329.796875 137.476562 328.425781 137.316406 C 326.660156 137.105469 323.953125 137.988281 319.175781 140.339844 C 313.035156 143.359375 311.316406 143.878906 308.078125 143.691406 C 305.128906 143.511719 303.464844 142.753906 301.070312 140.488281 C 299.503906 139.003906 297.285156 135.234375 297.71875 134.800781 C 297.824219 134.695312 298.546875 134.800781 299.320312 135.023438 C 300.179688 135.28125 302.644531 135.449219 305.613281 135.453125 C 309.769531 135.464844 310.875 135.355469 313.089844 134.714844 C 316.796875 133.644531 321.71875 131.140625 325.089844 128.625 C 331.535156 123.804688 336.789062 121.871094 343.488281 121.839844 C 349.675781 121.816406 353.609375 123.246094 357.09375 126.78125 C 358.273438 127.976562 359.28125 128.75 359.445312 128.585938 C 359.601562 128.429688 359.769531 126.339844 359.820312 123.941406 C 359.820312 123.941406 361.640625 123.765625 362.023438 124.273438 C 362.023438 128.171875 362.070312 128.476562 362.636719 128.476562 C 363.003906 128.476562 363.398438 128.09375 363.644531 127.503906 C 364.175781 126.230469 366.136719 124.484375 368.230469 123.425781 C 372.753906 121.128906 380.585938 121.058594 386.875 123.253906 C 389.523438 124.183594 392.464844 125.84375 395.265625 128.003906 C 398.074219 130.164062 403.820312 133.054688 407.214844 134.019531 C 410.648438 134.996094 416.703125 135.238281 419.808594 134.535156 C 421.089844 134.246094 422.289062 134.003906 422.480469 134.003906 C 423.625 134.003906 421.675781 137.820312 419.386719 140.054688 C 415.199219 144.144531 409.753906 144.125 402.09375 139.996094 C 397.320312 137.425781 391.609375 136.019531 391.609375 137.421875 C 391.609375 137.710938 391.910156 137.90625 392.355469 137.90625 C 394.015625 137.90625 397.21875 139.019531 401.691406 141.140625 C 406.523438 143.441406 409.238281 144.410156 410.851562 144.410156 C 412.019531 144.410156 412.054688 145.136719 410.964844 146.734375 C 409.808594 148.441406 407.851562 149.285156 405.078125 149.28125 C 402.433594 149.269531 400.964844 148.691406 398.601562 146.726562 C 394.644531 143.433594 384.789062 139.765625 385.171875 141.726562 C 385.246094 142.113281 385.71875 142.355469 386.734375 142.511719 C 390.164062 143.035156 394.191406 144.953125 398.308594 148.039062 C 399.578125 148.996094 400.898438 149.933594 401.234375 150.136719 C 401.800781 150.464844 401.808594 150.566406 401.363281 151.398438 C 400.625 152.78125 398.761719 153.851562 396.738281 154.058594 C 394.125 154.328125 391.851562 153.550781 389.496094 151.578125 C 384.523438 147.421875 379.839844 144.410156 378.339844 144.410156 C 377.113281 144.410156 377.664062 145.085938 379.824219 146.230469 C 382.664062 147.734375 385.585938 149.769531 387.734375 151.746094 C 388.75 152.683594 389.894531 153.613281 390.273438 153.820312 C 391.175781 154.300781 391.140625 155.003906 390.148438 156.300781 C 389.140625 157.621094 387.46875 158.199219 385.304688 157.96875 C 380.984375 157.515625 377.613281 155.429688 372.320312 149.933594 C 370.25 147.789062 368.40625 146.035156 368.214844 146.035156 C 367.511719 146.035156 367.925781 146.988281 369.289062 148.519531 C 370.980469 150.410156 371.304688 151.476562 370.664062 153.011719 C 370.101562 154.371094 369.160156 154.683594 367.230469 154.164062 C 365.253906 153.628906 364.945312 154.113281 366.238281 155.726562 C 368.171875 158.128906 367.886719 161.074219 365.519531 163.101562 C 364.785156 163.726562 364.015625 164.238281 363.804688 164.238281 C 363.601562 164.238281 363.078125 163.703125 362.644531 163.050781 C 361.125 160.738281 359.789062 160.753906 358.308594 163.089844 C 357.796875 163.90625 357.359375 164.566406 357.34375 164.558594 C 357.324219 164.554688 356.628906 164.054688 355.804688 163.445312 Z M 355.804688 163.445312 "/>
<path style=" stroke:none;fill-rule:nonzero;fill:rgb(81.176471%,6.666667%,14.901961%);fill-opacity:1;" d="M 363.335938 116.515625 L 360.769531 118.546875 L 358.46875 116.808594 L 358.46875 130.679688 L 363.335938 130.738281 Z M 363.335938 116.515625 "/>
<path style=" stroke:none;fill-rule:nonzero;fill:rgb(81.176471%,6.666667%,14.901961%);fill-opacity:1;" d="M 347.445312 102.125 C 346.933594 108.679688 345.269531 113.253906 342.953125 118.300781 L 348.503906 113.15625 L 352.363281 117.738281 L 356.546875 113.074219 L 360.808594 117.015625 L 364.910156 112.914062 L 369.171875 117.898438 L 372.871094 113.800781 L 379.140625 118.300781 C 376.863281 113.253906 373.785156 108.980469 374.171875 101.878906 C 368.09375 106.394531 353.660156 107.210938 347.445312 102.125 Z M 347.445312 102.125 "/>
<path style=" stroke:none;fill-rule:nonzero;fill:rgb(81.176471%,6.666667%,14.901961%);fill-opacity:1;" d="M 358.476562 98.78125 C 356.246094 98.820312 353.894531 98.851562 351.78125 99.265625 C 350.316406 99.554688 348.984375 100.03125 347.875 100.816406 C 348.054688 105.078125 368.375 106.859375 373.824219 100.894531 C 372.679688 100.058594 371.28125 99.566406 369.738281 99.265625 C 367.703125 98.871094 365.453125 98.828125 363.320312 98.796875 C 363.320312 99.964844 363.328125 101.140625 363.328125 102.316406 L 358.476562 102.300781 Z M 358.476562 98.78125 "/>
<path style=" stroke:none;fill-rule:nonzero;fill:rgb(81.176471%,6.666667%,14.901961%);fill-opacity:1;" d="M 362.449219 76.984375 L 359.296875 77.011719 L 359.296875 101.699219 L 362.515625 101.714844 Z M 362.449219 76.984375 "/>
<path style=" stroke:none;fill-rule:nonzero;fill:rgb(81.176471%,6.666667%,14.901961%);fill-opacity:1;" d="M 362.445312 77.621094 L 361.238281 89.441406 L 373.398438 95.378906 L 367.246094 87.148438 L 375.648438 84.425781 Z M 361.089844 74.539062 C 359.246094 74.539062 357.878906 75.230469 357.878906 76.050781 C 357.878906 76.871094 359.246094 77.566406 361.089844 77.566406 C 362.933594 77.566406 364.289062 76.871094 364.289062 76.050781 C 364.289062 75.230469 362.933594 74.539062 361.089844 74.539062 Z M 361.089844 74.539062 "/>
<path style=" stroke:none;fill-rule:nonzero;fill:rgb(96.862745%,87.843137%,9.019608%);fill-opacity:1;" d="M 355.523438 281.910156 C 357.519531 281.25 358.65625 280.039062 359.46875 277.710938 C 359.875 276.550781 360.148438 275.34375 360.078125 275.03125 C 359.910156 274.285156 359.050781 274.324219 358.101562 275.113281 C 357.449219 275.660156 357.371094 275.933594 357.554688 277.046875 C 358.03125 279.84375 357.035156 280.539062 351.734375 281.109375 C 351.210938 281.164062 349.691406 281.074219 348.351562 280.910156 C 345.828125 280.59375 344.929688 280.84375 345.84375 281.605469 C 346.121094 281.835938 346.820312 282.144531 347.398438 282.289062 C 348.816406 282.65625 354.011719 282.410156 355.523438 281.910156 Z M 366.511719 281.445312 C 366.808594 281.171875 367.839844 280.695312 368.800781 280.386719 C 370.078125 279.976562 370.738281 279.535156 371.28125 278.730469 C 372.835938 276.414062 372.546875 274.421875 370.261719 271.730469 C 369.019531 270.269531 368.46875 270.308594 367.480469 271.929688 C 366.625 273.328125 366.644531 273.421875 367.875 273.738281 C 368.519531 273.90625 369.140625 274.378906 369.480469 274.964844 C 370.820312 277.285156 370.425781 278.71875 368.441406 278.734375 C 366.640625 278.75 366.144531 279.003906 365.660156 280.171875 C 365.40625 280.773438 365.199219 281.421875 365.199219 281.605469 C 365.199219 282.09375 365.878906 282.011719 366.511719 281.445312 Z M 362.90625 278.824219 C 363.246094 277.90625 363.363281 276.25 363.324219 272.875 C 363.300781 270.304688 363.199219 268.125 363.101562 268.023438 C 362.800781 267.726562 361.320312 268.679688 361.125 269.296875 C 361.023438 269.613281 361.191406 270.355469 361.488281 270.933594 C 361.949219 271.828125 362.011719 272.664062 361.871094 276.171875 C 361.691406 280.601562 361.980469 281.34375 362.90625 278.824219 Z M 362.90625 278.824219 "/>
<path style=" stroke:none;fill-rule:nonzero;fill:rgb(96.862745%,87.843137%,9.019608%);fill-opacity:1;" d="M 354.445312 276.714844 C 354.625 275.890625 354.855469 274.199219 354.960938 272.964844 C 355.066406 271.730469 355.320312 270.171875 355.519531 269.496094 C 356.03125 267.765625 355.515625 267.308594 354.148438 268.28125 L 353.136719 269.003906 L 353.34375 271.488281 C 353.539062 273.730469 353.183594 277.90625 352.671875 279.523438 C 352.53125 279.953125 352.730469 279.84375 353.296875 279.183594 C 353.75 278.65625 354.269531 277.539062 354.445312 276.714844 Z M 346.941406 277.921875 C 348.765625 276.390625 348.554688 273.785156 348.960938 271.660156 C 348.917969 270.246094 349.863281 268.554688 349.253906 267.320312 C 347.546875 267.628906 346.496094 269.246094 347.367188 270.855469 C 347.441406 272.726562 347.375 274.757812 346.414062 276.414062 C 345.628906 277.492188 343.144531 277.222656 343.257812 275.691406 C 343.882812 273.390625 341.121094 274.507812 340.042969 275.113281 C 339.210938 275.695312 337.453125 275.734375 338.066406 274.285156 C 337.660156 272.351562 335.175781 273.5625 333.824219 273.550781 C 332.546875 273.53125 333.71875 270.96875 331.886719 271.417969 C 328.484375 271.148438 324.726562 271.449219 321.78125 269.390625 C 320.058594 268.5625 320.3125 266.488281 321.210938 265.148438 C 322.28125 263.316406 322.589844 261.023438 324.289062 259.601562 C 325.976562 257.984375 322.703125 258.667969 321.964844 259.210938 C 320.324219 260.109375 321.847656 262.421875 320.503906 263.707031 C 319.71875 265.035156 318.6875 266.875 316.871094 266.621094 C 314.25 266.125 312.738281 263.6875 310.863281 262.054688 C 309.253906 261.734375 310.15625 264.664062 310.988281 265.28125 C 312.632812 266.511719 314.554688 267.410156 316.535156 267.941406 C 318.507812 267.625 318.570312 270.207031 320.257812 270.613281 C 323.351562 272.054688 326.796875 272.488281 330.171875 272.664062 C 331.496094 272.773438 330.753906 275.132812 332.496094 274.667969 C 333.46875 274.917969 335.667969 274.304688 335.78125 275.4375 C 334.304688 277.1875 337.195312 277.148438 338.265625 276.835938 C 339.636719 276.625 341.390625 276.101562 341.753906 277.984375 C 342.898438 279.1875 345 279.011719 346.394531 278.320312 C 346.589844 278.207031 346.773438 278.074219 346.941406 277.921875 Z M 346.941406 277.921875 "/>
<path style=" stroke:none;fill-rule:nonzero;fill:rgb(96.862745%,87.843137%,9.019608%);fill-opacity:1;" d="M 317.058594 262.785156 C 317.613281 262.078125 318.445312 260.65625 318.90625 259.613281 C 319.359375 258.570312 320.046875 257.386719 320.421875 256.980469 C 321.300781 256.03125 320.808594 255.445312 319.390625 255.761719 C 318.640625 255.925781 318.335938 256.199219 318.210938 256.851562 C 317.785156 258.96875 317.015625 261.140625 316.328125 262.148438 C 315.089844 263.980469 315.058594 264.054688 315.570312 264.054688 C 315.835938 264.054688 316.503906 263.484375 317.058594 262.785156 Z M 298.328125 251.046875 C 296.929688 251.046875 296.871094 251.929688 298.234375 252.40625 C 298.894531 252.636719 299.453125 253.191406 299.90625 254.09375 C 301.234375 256.738281 302.015625 257.210938 305.546875 257.515625 L 307.808594 257.71875 L 307.921875 259.09375 C 307.976562 259.855469 308.15625 260.484375 308.328125 260.484375 C 308.503906 260.484375 309.378906 260.105469 310.265625 259.65625 C 311.925781 258.816406 313.5 256.855469 313.5 255.640625 C 313.5 254.84375 312.175781 253.984375 310.96875 253.984375 C 310.433594 253.984375 309.414062 254.414062 308.609375 255 C 306.089844 256.824219 303.394531 256.453125 301.921875 254.078125 C 300.710938 252.121094 299.445312 251.046875 298.328125 251.046875 Z M 310.558594 255.921875 C 311.230469 255.921875 311.394531 256.414062 311.03125 257.359375 C 310.78125 258.011719 309.964844 258.03125 309.71875 257.390625 C 309.429688 256.636719 309.835938 255.921875 310.558594 255.921875 Z M 405.421875 252.84375 C 404.503906 252.878906 404.234375 253.078125 403.65625 253.941406 C 402.703125 255.351562 402.609375 258.40625 403.484375 259.484375 C 404.03125 260.15625 404.109375 260.171875 405.265625 259.691406 C 406.875 259.015625 407.144531 259.039062 407.140625 259.90625 C 407.128906 262.113281 403.960938 266.375 400.640625 268.640625 C 399.746094 269.25 398.945312 269.929688 398.859375 270.15625 C 398.621094 270.785156 399.851562 270.644531 401.359375 269.875 C 403.421875 268.824219 406.125 266.066406 407.234375 263.890625 C 408.113281 262.15625 408.238281 261.566406 408.34375 258.53125 C 408.441406 255.734375 408.363281 254.914062 407.890625 253.984375 C 407.359375 252.941406 407.191406 252.84375 405.859375 252.84375 C 405.699219 252.84375 405.554688 252.839844 405.421875 252.84375 Z M 405.53125 254.796875 C 406.21875 254.796875 406.339844 254.949219 406.421875 255.941406 C 406.488281 256.761719 406.34375 257.261719 405.890625 257.671875 C 405.269531 258.230469 405.21875 258.226562 404.671875 257.390625 C 403.898438 256.210938 404.375 254.796875 405.53125 254.796875 Z M 390.351562 276.136719 C 393.273438 274.695312 395 273.074219 396.109375 270.730469 C 396.636719 269.613281 397.066406 268.566406 397.066406 268.386719 C 397.066406 267.980469 395.625 267.308594 394.761719 267.308594 C 393.898438 267.308594 393.726562 266.714844 394.09375 265.070312 C 394.453125 263.464844 394.019531 261.453125 393.316406 261.453125 C 393.058594 261.453125 392.609375 261.828125 392.308594 262.285156 C 391.851562 262.988281 391.824219 263.289062 392.164062 264.316406 C 392.664062 265.835938 392.269531 266.96875 390.910156 267.941406 C 390.265625 268.398438 389.910156 268.929688 389.910156 269.445312 C 389.910156 269.878906 389.964844 270.234375 390.03125 270.234375 C 390.101562 270.234375 390.808594 269.863281 391.609375 269.421875 L 393.070312 268.605469 L 393.929688 269.28125 C 394.398438 269.648438 394.789062 270.253906 394.789062 270.625 C 394.789062 272.40625 389.714844 275.394531 386.230469 275.675781 C 384.375 275.824219 384.058594 275.761719 383.414062 275.121094 C 382.890625 274.59375 382.738281 274.15625 382.871094 273.535156 C 382.96875 273.058594 383.148438 272.195312 383.269531 271.613281 C 383.589844 270.066406 382.925781 270.273438 381.773438 272.085938 C 380.828125 273.578125 380.550781 275.175781 381.078125 276.015625 C 381.515625 276.699219 384.40625 277.355469 386.449219 277.230469 C 387.734375 277.15625 389.003906 276.796875 390.351562 276.136719 Z M 409.871094 265.246094 C 411.710938 263.410156 412.488281 261.175781 412.5 257.71875 L 412.503906 255.125 L 414.023438 254.40625 C 416 253.464844 417.871094 251.59375 417.871094 250.554688 C 417.871094 249.484375 417.394531 249.539062 416.535156 250.703125 C 415.910156 251.550781 415.074219 252.058594 412.019531 253.464844 C 411.25 253.820312 411.199219 254.011719 411.023438 257.238281 C 410.820312 260.964844 410.316406 262.359375 408.234375 264.90625 C 406.960938 266.453125 406.914062 266.660156 407.800781 266.660156 C 408.164062 266.660156 409.09375 266.023438 409.871094 265.246094 Z M 389.828125 263.164062 C 390.003906 262.628906 388.988281 262.25 388.550781 262.683594 C 388.363281 262.871094 388.316406 263.191406 388.441406 263.394531 C 388.730469 263.859375 389.648438 263.703125 389.828125 263.164062 Z M 417.464844 256.011719 C 417.644531 255.476562 416.625 255.09375 416.191406 255.53125 C 416 255.71875 415.949219 256.039062 416.074219 256.246094 C 416.363281 256.710938 417.285156 256.554688 417.464844 256.011719 Z M 384.203125 236.640625 C 383.488281 236.980469 383.121094 237.753906 382.621094 238.339844 C 382.265625 238.585938 382.550781 238.8125 382.757812 239.039062 C 384.019531 240.398438 384.550781 242.234375 385.152344 243.945312 C 385.738281 245.964844 386.480469 248.132812 385.867188 250.238281 C 385.625 251.046875 384.988281 251.878906 384.042969 251.613281 C 382.527344 251.515625 381.035156 251.117188 379.515625 251.132812 C 378.164062 251.203125 377.117188 252.433594 375.734375 252.296875 C 374.851562 252.355469 374.890625 250.488281 374.070312 250.988281 C 373.664062 251.960938 373.863281 253.046875 373.8125 254.078125 C 373.96875 254.226562 374.398438 254.097656 374.652344 254.140625 L 377.378906 254.140625 C 377.570312 255.078125 377.546875 256.15625 378.21875 256.90625 C 379.164062 257.242188 380.226562 256.953125 381.125 256.585938 C 382.089844 256.136719 382.21875 254.976562 382.488281 254.078125 C 382.78125 253.109375 384.046875 253.363281 384.796875 252.980469 C 386.628906 252.445312 387.832031 250.542969 387.722656 248.667969 C 387.605469 245.804688 386.511719 243.113281 385.683594 240.40625 C 385.269531 239.214844 384.980469 237.96875 384.496094 236.804688 C 384.441406 236.703125 384.324219 236.621094 384.203125 236.640625 Z M 379.671875 253 C 380.6875 252.933594 381.128906 254.183594 380.914062 255.015625 C 380.535156 256.140625 379.148438 255.417969 378.867188 254.605469 C 378.351562 253.882812 378.671875 252.90625 379.671875 253 Z M 379.671875 253 "/>
<path style=" stroke:none;fill-rule:nonzero;fill:rgb(96.862745%,87.843137%,9.019608%);fill-opacity:1;" d="M 341.96875 243.609375 C 341.515625 243.601562 341.003906 243.769531 340.5 244.125 C 337.84375 245.984375 337.164062 248.183594 338.96875 249.046875 C 340.296875 249.679688 339.960938 250.425781 337.875 251.46875 C 334.890625 252.960938 332.253906 252.773438 327.25 250.703125 C 326.019531 250.195312 325.699219 250.390625 325.984375 251.515625 C 326.261719 252.621094 327.269531 253.226562 329.78125 253.796875 C 332.480469 254.414062 335.746094 254.214844 337.84375 253.308594 C 338.871094 252.871094 340.085938 251.945312 341.109375 250.828125 L 342.734375 249.046875 L 344.625 249.28125 C 346.953125 249.566406 347 249.589844 347 250.703125 C 347 251.589844 347.050781 251.609375 349.191406 251.808594 C 350.394531 251.925781 351.980469 252.03125 352.71875 252.03125 C 353.664062 252.035156 354.199219 252.199219 354.515625 252.640625 C 354.933594 253.226562 355.183594 253.253906 358.703125 252.941406 C 361.996094 252.640625 362.640625 252.664062 364.125 253.171875 C 365.179688 253.53125 366.339844 253.675781 367.21875 253.578125 C 369.738281 253.296875 373.214844 251.234375 373.71875 249.71875 C 373.78125 249.535156 374.695312 249.210938 375.75 249 C 378.296875 248.488281 378.40625 247.933594 376.03125 247.640625 C 375 247.511719 373.453125 247.136719 372.59375 246.796875 C 371.730469 246.453125 370.550781 246.171875 369.96875 246.171875 C 368.691406 246.171875 367.484375 246.96875 367.484375 247.796875 C 367.484375 248.335938 367.675781 248.390625 369.191406 248.234375 C 370.613281 248.089844 371.03125 248.171875 371.78125 248.765625 C 372.273438 249.15625 372.605469 249.613281 372.5 249.78125 C 372.164062 250.324219 369.191406 251.679688 367.875 251.890625 C 366.996094 252.03125 366.285156 251.933594 365.59375 251.578125 C 364.441406 250.980469 362.738281 250.890625 362.421875 251.40625 C 362.285156 251.628906 361.921875 251.484375 361.421875 251.015625 L 360.640625 250.28125 L 358.875 251.015625 C 357.078125 251.761719 356.421875 251.730469 356.421875 250.875 C 356.421875 250.484375 355.894531 250.441406 353.25 250.609375 C 350.335938 250.800781 350.03125 250.75 349.484375 250.140625 C 348.980469 249.578125 348.96875 249.386719 349.328125 248.808594 C 349.660156 248.28125 349.660156 248.050781 349.34375 247.734375 C 349.03125 247.421875 348.621094 247.425781 347.46875 247.734375 C 344.570312 248.511719 343.75 248.074219 343.75 245.808594 C 343.75 244.449219 342.96875 243.625 341.96875 243.609375 Z M 341.25 245.691406 C 341.40625 245.691406 341.535156 245.785156 341.734375 245.984375 C 341.988281 246.238281 342.125 246.683594 342.015625 246.96875 C 341.753906 247.644531 340.523438 247.621094 340.265625 246.941406 C 340.140625 246.609375 340.300781 246.238281 340.671875 245.96875 C 340.929688 245.78125 341.09375 245.683594 341.25 245.691406 Z M 341.25 245.691406 "/>
<path style=" stroke:none;fill-rule:nonzero;fill:rgb(96.862745%,87.843137%,9.019608%);fill-opacity:1;" d="M 336.050781 247.800781 C 337.816406 246.679688 337.773438 246.765625 338.03125 243.65625 C 338.203125 241.460938 338.175781 241.296875 337.578125 241.296875 C 336.714844 241.296875 336.265625 242.246094 336.265625 244.054688 C 336.265625 245.214844 336.085938 245.734375 335.464844 246.351562 C 333.996094 247.820312 330.34375 247.148438 329.886719 245.324219 C 329.730469 244.699219 329.929688 244.136719 330.695312 243.050781 C 332.289062 240.785156 331.929688 240.230469 329.976562 241.949219 C 328.628906 243.125 328.390625 243.160156 328.644531 242.144531 C 328.878906 241.210938 328.390625 240.839844 327.296875 241.113281 C 326.734375 241.253906 326.429688 241.605469 326.296875 242.285156 C 326.164062 242.949219 325.859375 243.320312 325.328125 243.449219 C 324.445312 243.675781 322.933594 242.835938 322.933594 242.121094 C 322.933594 241.589844 325.195312 238.828125 328.09375 235.820312 C 329.191406 234.679688 330.085938 233.621094 330.085938 233.460938 C 330.085938 233.300781 329.5 233.171875 328.785156 233.171875 C 327.738281 233.171875 327.484375 233.285156 327.484375 233.769531 C 327.484375 234.101562 326.023438 236.015625 324.234375 238.03125 C 320.503906 242.230469 320.195312 243.105469 322.039062 244.226562 C 323.523438 245.136719 325.429688 245.066406 326.925781 244.050781 L 328.136719 243.226562 L 328.136719 244.71875 C 328.136719 246.628906 328.515625 247.316406 330.015625 248.109375 C 331.898438 249.105469 334.179688 248.984375 336.050781 247.800781 Z M 414.328125 221.84375 C 412.945312 222.671875 414.027344 224.40625 414.238281 225.558594 C 413.671875 227.132812 411.652344 227.554688 410.179688 227.847656 C 408.09375 228.195312 406.613281 229.941406 405.820312 231.792969 C 405.390625 233 404.351562 234.867188 403.21875 233.03125 C 402.238281 232.035156 400.429688 231.246094 399.265625 232.410156 C 398.382812 233.25 398.160156 234.488281 397.828125 235.609375 C 397.308594 234.746094 397.074219 233.460938 395.96875 233.191406 C 394.207031 233.4375 394.84375 235.660156 395.671875 236.578125 C 396.425781 237.648438 397.152344 239.058594 396.410156 240.328125 C 395.761719 241.851562 393.507812 242.882812 392.183594 241.578125 C 390.949219 240.925781 391.773438 238.59375 390.554688 238.464844 C 389.953125 238.902344 389.90625 241.339844 388.941406 240.015625 C 388.246094 238.886719 388.613281 237.339844 387.765625 236.324219 C 386.757812 236.449219 385.949219 238.179688 386.285156 239.109375 C 387.625 240.917969 388.175781 243.1875 388.699219 245.34375 C 389.027344 246.207031 388.652344 247.957031 389.460938 248.300781 C 390.019531 246.910156 389.5 245.335938 389.941406 243.929688 C 391.25 243.765625 392.707031 244.363281 394.078125 244.046875 C 396.042969 243.792969 397.5625 242.132812 398.25 240.367188 C 398.457031 239.042969 398.210938 237.695312 398.171875 236.359375 C 399.726562 236.601562 401.339844 236.597656 402.832031 237.101562 C 403.570312 238.234375 402.59375 239.824219 402.390625 241.066406 C 401.613281 243.589844 399.632812 245.425781 397.707031 247.113281 C 396.902344 247.589844 396.792969 248.851562 397.984375 248.171875 C 400.570312 247.066406 402.5 244.722656 403.609375 242.1875 C 404.417969 240.238281 403.765625 238.0625 404.296875 236.070312 C 405.074219 234.570312 406.957031 234.886719 408.347656 234.890625 C 409.785156 234.835938 411.015625 233.160156 410.535156 231.761719 C 410.074219 230.136719 411.792969 229.355469 412.96875 228.773438 C 414.523438 227.988281 415.714844 226.394531 415.59375 224.59375 C 415.53125 223.675781 415.578125 221.929688 414.328125 221.84375 Z M 408.816406 231.21875 C 410.480469 231.664062 408.511719 234.847656 407.628906 232.828125 C 407.355469 232.058594 408.003906 231.191406 408.816406 231.21875 Z M 401.078125 233.5 C 403.25 233.375 402.46875 236.539062 400.636719 235.101562 C 399.6875 234.625 400 233.441406 401.078125 233.5 Z M 322.550781 245.738281 C 322.609375 245.425781 322.449219 245.199219 322.164062 245.199219 C 321.558594 245.199219 321.195312 245.730469 321.480469 246.191406 C 321.773438 246.664062 322.425781 246.394531 322.550781 245.738281 Z M 347.96875 242.898438 C 347.96875 242.433594 347.796875 242.261719 347.40625 242.335938 C 346.554688 242.496094 346.460938 243.574219 347.296875 243.574219 C 347.761719 243.574219 347.96875 243.363281 347.96875 242.898438 Z M 316.515625 227.640625 C 315.5 227.429688 314.863281 228.289062 314.515625 229.109375 C 313.757812 230.382812 312.828125 231.6875 311.46875 232.363281 C 310.488281 232.636719 309.421875 232.261719 308.578125 231.757812 C 307.570312 231.257812 307.800781 230.046875 307.367188 229.207031 C 306.640625 228.636719 305.347656 229.453125 305.375 230.34375 C 305.296875 231.535156 306.410156 232.226562 307.339844 232.6875 C 308.125 233.167969 309.265625 233.4375 309.582031 234.414062 C 309.558594 235.242188 309.894531 236.191406 310.902344 235.871094 C 312.03125 235.851562 312.324219 237.230469 311.871094 238.054688 C 311.40625 238.984375 311.089844 240.074219 311.3125 241.113281 C 311.851562 241.566406 312.40625 240.347656 312.796875 240 L 313.59375 238.9375 C 315.59375 239.046875 317.589844 239.300781 319.59375 239.230469 C 321.019531 239.203125 322.234375 238.324219 323.136719 237.292969 C 324.421875 235.953125 325.472656 234.378906 326.9375 233.21875 C 327.980469 232.964844 327.417969 231.003906 326.332031 231.570312 C 325.351562 231.9375 325.042969 233.046875 324.363281 233.753906 C 323.207031 235.152344 322.023438 236.574219 320.566406 237.675781 C 319.503906 238.113281 318.28125 237.921875 317.1875 237.675781 C 316.734375 237.277344 318.09375 236.953125 318.28125 236.507812 C 318.910156 235.882812 319.652344 235.289062 320.015625 234.46875 C 319.667969 233.710938 318.605469 233.648438 317.859375 233.632812 C 316.015625 233.855469 314.609375 235.402344 312.746094 235.546875 C 311.335938 235.597656 312.070312 234.066406 312.707031 233.546875 C 313.953125 232.066406 315.300781 230.671875 316.597656 229.242188 C 316.96875 228.796875 318.304688 228.375 317.449219 227.753906 C 317.152344 227.644531 316.828125 227.644531 316.515625 227.640625 Z M 317.421875 235.125 C 318.351562 235.648438 316.828125 236.503906 316.1875 236.386719 C 315.347656 236.636719 315.332031 235.78125 316.078125 235.609375 C 316.496094 235.390625 316.941406 235.164062 317.421875 235.125 Z M 314.5625 237.078125 C 315.089844 237.066406 316.199219 237.574219 315.160156 237.902344 C 314.433594 238.460938 313.613281 237.328125 314.5625 237.078125 Z M 314.5625 237.078125 "/>
<path style=" stroke:none;fill-rule:nonzero;fill:rgb(96.862745%,87.843137%,9.019608%);fill-opacity:1;" d="M 337.074219 238.371094 C 337.074219 237.664062 335.808594 237.765625 335.671875 238.480469 C 335.578125 238.941406 335.726562 239.050781 336.316406 238.964844 C 336.734375 238.90625 337.074219 238.640625 337.074219 238.371094 Z M 393.101562 233.410156 C 393.230469 232.734375 392.289062 232.285156 391.796875 232.78125 C 391.300781 233.273438 391.753906 234.214844 392.425781 234.085938 C 392.734375 234.023438 393.039062 233.71875 393.101562 233.410156 Z M 305.910156 226.546875 C 306.789062 225.789062 306.800781 225.738281 306.421875 224.078125 C 305.878906 221.753906 305.914062 221.503906 306.800781 221.285156 C 307.921875 221 310.765625 222.523438 311.394531 223.746094 C 311.886719 224.691406 311.871094 224.753906 311.039062 225.523438 C 310.144531 226.351562 310.148438 227.316406 311.046875 227.316406 C 311.785156 227.316406 313.828125 225.378906 313.828125 224.683594 C 313.828125 223.71875 311.558594 221.441406 309.765625 220.605469 C 308.65625 220.085938 307.546875 219.84375 306.261719 219.839844 C 303.960938 219.839844 303.648438 220.335938 304.269531 223.011719 C 305 226.144531 304.011719 226.570312 301.484375 224.203125 C 299.609375 222.449219 298.871094 220.625 298.878906 217.75 C 298.886719 214.664062 300.066406 213.140625 302.726562 212.78125 C 304.488281 212.546875 304.445312 212.128906 302.628906 211.859375 C 299.980469 211.460938 297.738281 213.230469 296.890625 216.390625 C 295.945312 219.894531 298.109375 224.164062 301.941406 226.363281 C 303.945312 227.515625 304.746094 227.550781 305.910156 226.546875 Z M 410.328125 222.699219 C 410.546875 222.484375 410.71875 222 410.71875 221.625 C 410.71875 221.25 411.085938 220.445312 411.53125 219.839844 C 411.980469 219.234375 412.34375 218.613281 412.34375 218.464844 C 412.34375 217.851562 411.328125 217.871094 410.53125 218.503906 C 409.710938 219.144531 409.09375 219.160156 409.09375 218.535156 C 409.09375 218.378906 409.484375 218.058594 409.964844 217.824219 C 411.15625 217.246094 411.253906 216.671875 410.25 216.210938 C 408.960938 215.625 407.664062 216.695312 407.53125 218.460938 C 407.445312 219.640625 407.539062 219.84375 408.449219 220.378906 C 409.28125 220.871094 409.433594 221.128906 409.296875 221.828125 C 409.054688 223.046875 409.558594 223.46875 410.328125 222.699219 Z M 420.144531 221.589844 C 420.863281 220.945312 421.449219 220.210938 421.449219 219.964844 C 421.449219 219.71875 422.070312 219.070312 422.828125 218.523438 C 424.984375 216.976562 425.460938 215.410156 424.496094 213.003906 C 424.121094 212.058594 422.941406 210.753906 420.375 208.445312 C 418.40625 206.664062 416.589844 205.210938 416.355469 205.210938 C 415.65625 205.210938 415.78125 207.785156 416.488281 208.011719 C 417.769531 208.421875 418.546875 208.945312 420.558594 210.761719 C 422.898438 212.875 423.980469 214.851562 423.390625 215.949219 C 422.824219 217.015625 422.074219 216.683594 420.011719 214.46875 C 418.925781 213.304688 417.851562 212.355469 417.628906 212.355469 C 417.390625 212.359375 417.21875 212.78125 417.21875 213.371094 C 417.21875 214.109375 417.613281 214.816406 418.683594 216.003906 C 420.429688 217.945312 420.601562 219.109375 419.289062 220.140625 C 418.820312 220.511719 418.335938 220.816406 418.214844 220.816406 C 418.101562 220.816406 417.714844 220.234375 417.363281 219.53125 C 416.636719 218.050781 412.171875 213.335938 411.5 213.335938 C 411.195312 213.335938 411.046875 213.714844 411.046875 214.464844 C 411.046875 215.371094 411.226562 215.691406 411.945312 216.058594 C 412.828125 216.519531 415.019531 218.726562 417.21875 221.386719 C 417.851562 222.144531 418.46875 222.761719 418.605469 222.765625 C 418.734375 222.765625 419.429688 222.234375 420.144531 221.589844 Z M 424.523438 209.054688 C 424.234375 208.121094 418.246094 201.953125 417.628906 201.953125 C 417.308594 201.953125 417.210938 202.335938 417.285156 203.316406 C 417.371094 204.503906 417.5 204.710938 418.320312 204.925781 C 418.828125 205.058594 420.410156 206.300781 421.824219 207.675781 C 423.234375 209.050781 424.476562 210.09375 424.574219 209.988281 C 424.675781 209.890625 424.65625 209.46875 424.523438 209.054688 Z M 388.75 278.445312 C 388.964844 278.140625 389.371094 278.003906 389.75 278.109375 C 390.125 278.210938 390.386719 278.527344 390.386719 278.890625 C 390.386719 279.25 390.125 279.570312 389.75 279.671875 C 389.371094 279.773438 388.964844 279.636719 388.75 279.335938 Z M 391.894531 277.394531 C 392.109375 277.09375 392.515625 276.953125 392.894531 277.058594 C 393.273438 277.160156 393.53125 277.480469 393.53125 277.839844 C 393.53125 278.203125 393.273438 278.519531 392.894531 278.621094 C 392.515625 278.726562 392.109375 278.585938 391.894531 278.285156 Z M 391.894531 277.394531 "/>
</g>
</svg>
