<?xml version="1.0" encoding="UTF-8"?>
<svg xmlns="http://www.w3.org/2000/svg" xmlns:xlink="http://www.w3.org/1999/xlink" width="px" height="px" viewBox="0 0 450 300" version="1.1">
<g id="surface1">
<rect x="0" y="0" width="450" height="300" style="fill:rgb(100%,83.529412%,12.54902%);fill-opacity:1;stroke:none;"/>
<path style=" stroke:none;fill-rule:nonzero;fill:rgb(100%,30.588235%,7.058824%);fill-opacity:1;" d="M 0 300 L 450 300 L 450 0 Z M 0 300 "/>
<path style="fill-rule:nonzero;fill:rgb(100%,100%,100%);fill-opacity:1;stroke-width:0.521;stroke-linecap:butt;stroke-linejoin:miter;stroke:rgb(0%,0%,0%);stroke-opacity:1;stroke-miterlimit:4;" d="M 481.742188 187.59375 C 476.75 185.820312 473.53125 188.398438 473.695312 194.835938 C 473.851562 201.273438 477.234375 204.976562 482.226562 202.5625 Z M 481.742188 187.59375 " transform="matrix(0.5,0,0,0.5,0,0)"/>
<path style="fill-rule:nonzero;fill:rgb(100%,100%,100%);fill-opacity:1;stroke-width:0.521;stroke-linecap:butt;stroke-linejoin:miter;stroke:rgb(0%,0%,0%);stroke-opacity:1;stroke-miterlimit:4;" d="M 486.117188 175.53125 C 481.96875 172.25 478.09375 173.65625 476.171875 179.804688 C 474.257812 185.953125 476.273438 190.546875 481.773438 189.867188 Z M 486.117188 175.53125 " transform="matrix(0.5,0,0,0.5,0,0)"/>
<path style="fill-rule:nonzero;fill:rgb(100%,100%,100%);fill-opacity:1;stroke-width:0.521;stroke-linecap:butt;stroke-linejoin:miter;stroke:rgb(0%,0%,0%);stroke-opacity:1;stroke-miterlimit:4;" d="M 493.039062 163.859375 C 489.460938 159.953125 485.40625 160.71875 482.53125 166.484375 C 479.65625 172.25 480.90625 177.101562 486.445312 177.3125 Z M 488.5 220.59375 C 482.382812 222.84375 481.734375 231.21875 485.601562 236.367188 C 489.46875 241.515625 496.546875 242.484375 500.414062 236.367188 L 488.5 220.585938 Z M 488.5 220.59375 " transform="matrix(0.5,0,0,0.5,0,0)"/>
<path style="fill-rule:nonzero;fill:rgb(100%,100%,100%);fill-opacity:1;stroke-width:0.521;stroke-linecap:butt;stroke-linejoin:miter;stroke:rgb(0%,0%,0%);stroke-opacity:1;stroke-miterlimit:4;" d="M 481.421875 202.882812 C 475.625 200.945312 470.40625 208.734375 469.507812 215.757812 C 468.382812 224.609375 455.820312 227.507812 462.75 240.867188 C 464.195312 232.335938 469.828125 227.671875 474.335938 227.351562 C 478.84375 227.023438 485.609375 226.0625 488.507812 220.585938 Z M 499.773438 237.328125 C 493.007812 238.9375 492.039062 247.953125 496.867188 254.390625 C 501 259.90625 513.929688 258.578125 513.609375 253.109375 Z M 518.929688 291.578125 C 519.25 285.78125 509.921875 283.53125 505.40625 284.65625 C 500.898438 285.78125 492.289062 284.5 490.273438 279.671875 C 488.671875 283.53125 491 287.71875 497.523438 289.8125 C 502.453125 291.390625 502.351562 294.960938 500.898438 296.570312 C 504.601562 297.21875 515.554688 297.21875 518.929688 291.578125 Z M 518.929688 291.578125 " transform="matrix(0.5,0,0,0.5,0,0)"/>
<path style="fill-rule:nonzero;fill:rgb(100%,100%,100%);fill-opacity:1;stroke-width:0.521;stroke-linecap:butt;stroke-linejoin:miter;stroke:rgb(0%,0%,0%);stroke-opacity:1;stroke-miterlimit:4;" d="M 513.617188 254.5625 C 507.023438 251.664062 503.109375 256.078125 500.578125 260.351562 C 496.875 266.632812 485.445312 258.585938 481.585938 266.953125 C 486.820312 264.703125 492.140625 269.507812 494.625 271.140625 C 501.703125 275.8125 515.390625 274.359375 517.320312 263.414062 Z M 513.617188 254.5625 " transform="matrix(0.5,0,0,0.5,0,0)"/>
<path style="fill-rule:nonzero;fill:rgb(100%,100%,100%);fill-opacity:1;stroke-width:0.521;stroke-linecap:butt;stroke-linejoin:miter;stroke:rgb(0%,0%,0%);stroke-opacity:1;stroke-miterlimit:4;" d="M 517.476562 262.28125 C 510.882812 267.273438 508.304688 273.226562 508.46875 277.25 C 508.632812 281.273438 514.265625 290.132812 520.382812 290.609375 C 523.921875 283.367188 525.695312 268.078125 517.484375 262.28125 Z M 490.117188 293.351562 C 490.117188 290.9375 493.664062 289.96875 496.070312 290.773438 C 498.492188 291.578125 502.1875 293.992188 500.90625 296.570312 Z M 453.726562 280.148438 C 453.085938 277.25 457.757812 272.265625 464.03125 275 C 470.3125 277.734375 471.117188 283.046875 468.539062 285.140625 Z M 453.726562 280.148438 " transform="matrix(0.5,0,0,0.5,0,0)"/>
<path style="fill-rule:nonzero;fill:rgb(100%,100%,100%);fill-opacity:1;stroke-width:0.521;stroke-linecap:butt;stroke-linejoin:miter;stroke:rgb(0%,0%,0%);stroke-opacity:1;stroke-miterlimit:4;" d="M 469.023438 285.460938 C 468.539062 283.851562 473.054688 280.632812 480.773438 282.5625 C 488.5 284.492188 490.390625 289.46875 490.109375 293.351562 L 469.015625 285.460938 Z M 452.929688 280.148438 C 456.953125 277.09375 455.429688 271.296875 451.796875 269.523438 C 445.203125 266.304688 447.617188 257.9375 443.429688 256.328125 C 439.25 254.71875 435.21875 251.820312 435.0625 248.921875 C 432.96875 252.945312 434.257812 256.648438 437.15625 259.226562 C 440.054688 261.796875 434.898438 272.265625 438.601562 275 Z M 366.640625 277.898438 C 363.257812 272.585938 355.210938 273.554688 351.828125 277.257812 C 348.453125 280.960938 348.929688 286.429688 352.148438 288.84375 Z M 385.960938 270.007812 C 384.671875 262.929688 376.140625 262.125 371.46875 263.890625 C 366.804688 265.664062 363.585938 272.75 366.640625 277.898438 Z M 385.960938 270.007812 " transform="matrix(0.5,0,0,0.5,0,0)"/>
<path style="fill-rule:nonzero;fill:rgb(100%,100%,100%);fill-opacity:1;stroke-width:0.521;stroke-linecap:butt;stroke-linejoin:miter;stroke:rgb(0%,0%,0%);stroke-opacity:1;stroke-miterlimit:4;" d="M 398.84375 269.039062 C 401.898438 263.085938 395.945312 254.226562 389.179688 252.945312 C 383.539062 251.867188 376.867188 251.898438 374.695312 246.34375 C 373.328125 251.171875 376.945312 254.226562 381.132812 256.96875 C 385.320312 259.703125 380.328125 266.789062 387.085938 270.8125 Z M 398.84375 269.039062 " transform="matrix(0.5,0,0,0.5,0,0)"/>
<path style="fill-rule:nonzero;fill:rgb(100%,100%,100%);fill-opacity:1;stroke-width:0.521;stroke-linecap:butt;stroke-linejoin:miter;stroke:rgb(0%,0%,0%);stroke-opacity:1;stroke-miterlimit:4;" d="M 398.203125 269.25 C 396.789062 264.984375 399.648438 259.304688 405.429688 259.703125 C 411.21875 260.101562 414.515625 264.304688 411.960938 269.5625 L 398.195312 269.25 Z M 398.203125 269.25 " transform="matrix(0.5,0,0,0.5,0,0)"/>
<path style="fill-rule:nonzero;fill:rgb(100%,100%,100%);fill-opacity:1;stroke-width:0.521;stroke-linecap:butt;stroke-linejoin:miter;stroke:rgb(0%,0%,0%);stroke-opacity:1;stroke-miterlimit:4;" d="M 411.070312 269.570312 C 410.273438 265.148438 413.898438 259.929688 419.570312 261.132812 C 425.242188 262.34375 427.914062 266.96875 424.65625 271.8125 Z M 411.070312 269.570312 " transform="matrix(0.5,0,0,0.5,0,0)"/>
<path style="fill-rule:nonzero;fill:rgb(100%,100%,100%);fill-opacity:1;stroke-width:0.521;stroke-linecap:butt;stroke-linejoin:miter;stroke:rgb(0%,0%,0%);stroke-opacity:1;stroke-miterlimit:4;" d="M 423.859375 271.601562 C 423.28125 267.140625 427.171875 262.109375 432.773438 263.601562 C 438.375 265.085938 440.8125 269.835938 437.3125 274.515625 Z M 326.71875 345.351562 C 315.9375 345.351562 313.296875 347.921875 311.75 359.03125 C 309.820312 372.875 328.648438 374.484375 326.71875 345.351562 Z M 326.71875 345.351562 " transform="matrix(0.5,0,0,0.5,0,0)"/>
<path style="fill-rule:nonzero;fill:rgb(100%,100%,100%);fill-opacity:1;stroke-width:0.521;stroke-linecap:butt;stroke-linejoin:miter;stroke:rgb(0%,0%,0%);stroke-opacity:1;stroke-miterlimit:4;" d="M 331.546875 330.859375 C 314.96875 324.578125 305.953125 350.820312 289.53125 346.15625 C 295.40625 355.492188 309.65625 346.171875 314.96875 347.117188 C 323.984375 348.726562 343.460938 345.351562 331.546875 330.859375 Z M 320.757812 366.757812 C 312.546875 363.054688 303.695312 375.617188 305.304688 381.085938 C 307.351562 388.039062 326.070312 382.375 320.757812 366.757812 Z M 282.453125 420.851562 C 286.960938 422.132812 292.429688 424.710938 291.46875 433.40625 C 290.5 442.09375 274.078125 459.804688 259.273438 460.773438 C 244.460938 461.734375 239.148438 479.601562 226.429688 474.609375 C 238.34375 472.359375 238.34375 458.835938 247.679688 454.65625 C 240.914062 452.234375 237.375 467.53125 228.6875 467.53125 C 219.992188 467.53125 215.804688 481.375 205.179688 480.40625 C 194.554688 479.445312 193.4375 497.265625 172.179688 497.476562 C 155.921875 497.632812 135.796875 516.632812 128.554688 508.421875 C 144.328125 506.171875 150.695312 497.429688 160.109375 487.8125 C 175.242188 472.367188 192.304688 479.28125 198.101562 465.601562 C 191.179688 470.265625 183.125 472.523438 175.242188 472.367188 C 165.335938 472.15625 154.476562 488.140625 143.367188 481.054688 C 149.804688 480.25 153.992188 477.515625 160.75 470.429688 C 167.671875 463.179688 177.835938 467.867188 185.867188 460.453125 C 198.421875 448.859375 209.203125 458.515625 221.28125 444.03125 C 217.898438 442.421875 210.65625 443.546875 203.890625 447.085938 C 197.132812 450.632812 188.4375 444.671875 180.710938 448.859375 C 181.679688 439.359375 199.710938 444.796875 210.976562 438.234375 C 223.695312 430.828125 234.242188 433 244.296875 433.890625 C 230.296875 433.8125 224.820312 420.523438 205.507812 424.390625 C 197.078125 426.078125 190.375 412.796875 182 419.5625 C 182.242188 414.570312 191.015625 410.546875 200.03125 415.375 C 209.046875 420.203125 212.679688 411.148438 230.617188 422.460938 C 238.023438 427.125 250.742188 419.5625 258.789062 424.554688 C 257.742188 421.492188 253.15625 419.5625 247.765625 419.960938 C 251.140625 413.046875 272.953125 413.929688 282.453125 420.851562 Z M 282.453125 420.851562 " transform="matrix(0.5,0,0,0.5,0,0)"/>
<path style="fill-rule:nonzero;fill:rgb(100%,100%,100%);fill-opacity:1;stroke-width:0.521;stroke-linecap:butt;stroke-linejoin:miter;stroke:rgb(0%,0%,0%);stroke-opacity:1;stroke-miterlimit:4;" d="M 296.78125 410.382812 C 289.695312 404.90625 279.875 411.507812 273.117188 408.929688 C 273.117188 413.4375 275.367188 420.203125 282.773438 422.773438 C 285.03125 421.164062 295.171875 412.3125 296.78125 410.382812 Z M 296.78125 410.382812 " transform="matrix(0.5,0,0,0.5,0,0)"/>
<path style="fill-rule:nonzero;fill:rgb(100%,100%,100%);fill-opacity:1;stroke-width:0.521;stroke-linecap:butt;stroke-linejoin:miter;stroke:rgb(0%,0%,0%);stroke-opacity:1;stroke-miterlimit:4;" d="M 307.890625 394.773438 C 296.78125 389.132812 294.851562 403.140625 286.15625 400.242188 C 286.476562 404.265625 289.703125 409.257812 296.78125 410.382812 Z M 307.890625 394.773438 " transform="matrix(0.5,0,0,0.5,0,0)"/>
<path style="fill-rule:nonzero;fill:rgb(100%,100%,100%);fill-opacity:1;stroke-width:0.521;stroke-linecap:butt;stroke-linejoin:miter;stroke:rgb(0%,0%,0%);stroke-opacity:1;stroke-miterlimit:4;" d="M 314.492188 382.046875 C 298.070312 375.609375 295.976562 391.390625 286.320312 388.328125 C 288.570312 393.804688 302.414062 396.695312 309.5 394.765625 Z M 337.023438 312.992188 C 332.671875 306.875 323.5 311.859375 322.046875 319.109375 C 320.601562 326.351562 324.140625 336.492188 330.257812 334.242188 L 337.015625 312.992188 Z M 337.023438 312.992188 " transform="matrix(0.5,0,0,0.5,0,0)"/>
<path style="fill-rule:nonzero;fill:rgb(100%,100%,100%);fill-opacity:1;stroke-width:0.521;stroke-linecap:butt;stroke-linejoin:miter;stroke:rgb(0%,0%,0%);stroke-opacity:1;stroke-miterlimit:4;" d="M 348.132812 293.671875 C 340.5625 291.898438 331.867188 292.703125 332.835938 300.109375 C 329.9375 301.398438 329.132812 310.898438 337.023438 312.984375 Z M 348.132812 293.671875 " transform="matrix(0.5,0,0,0.5,0,0)"/>
<path style="fill-rule:nonzero;fill:rgb(100%,100%,100%);fill-opacity:1;stroke-width:0.521;stroke-linecap:butt;stroke-linejoin:miter;stroke:rgb(0%,0%,0%);stroke-opacity:1;stroke-miterlimit:4;" d="M 353.117188 288.679688 C 345.71875 279.984375 337.453125 280.1875 332.835938 283.851562 C 324.304688 290.609375 316.015625 286.75 315.773438 293.507812 C 320.921875 289.5625 325.429688 294.3125 329.617188 292.867188 C 333.804688 291.414062 336.859375 299.46875 348.453125 296.085938 Z M 335.25 418.601562 C 336.375 420.695312 343.296875 421.65625 346.679688 418.117188 C 351.15625 413.421875 346.195312 400.40625 339.117188 399.445312 C 332.03125 398.476562 331.390625 414.09375 335.25 418.601562 Z M 335.25 418.601562 " transform="matrix(0.5,0,0,0.5,0,0)"/>
<path style="fill-rule:nonzero;fill:rgb(100%,100%,100%);fill-opacity:1;stroke-width:0.521;stroke-linecap:butt;stroke-linejoin:miter;stroke:rgb(0%,0%,0%);stroke-opacity:1;stroke-miterlimit:4;" d="M 327.203125 418.921875 C 337.34375 422.617188 341.6875 414.25 336.21875 408.9375 C 334.765625 410.710938 329.453125 417.148438 327.203125 418.921875 Z M 327.203125 418.921875 " transform="matrix(0.5,0,0,0.5,0,0)"/>
<path style="fill-rule:nonzero;fill:rgb(100%,100%,100%);fill-opacity:1;stroke-width:0.521;stroke-linecap:butt;stroke-linejoin:miter;stroke:rgb(0%,0%,0%);stroke-opacity:1;stroke-miterlimit:4;" d="M 289.210938 432.757812 C 287.28125 438.554688 277.296875 439.523438 266.03125 457.554688 C 254.757812 475.578125 243.976562 468.015625 241.234375 480.40625 C 254.757812 469.460938 265.382812 476.734375 273.429688 465.921875 C 285.671875 449.5 295.742188 451.859375 300.476562 440.8125 C 307.234375 425.03125 336.859375 425.351562 338.46875 400.5625 C 328.492188 398.632812 296.9375 425.351562 289.210938 432.757812 Z M 543.242188 189.359375 C 556.117188 193.546875 556.4375 210.289062 571.25 215.757812 C 586.0625 221.234375 587.507812 234.429688 599.578125 231.210938 C 588.3125 228.15625 589.117188 215.117188 577.367188 211.898438 C 563.585938 208.117188 558.375 187.101562 547.421875 183.882812 M 602.320312 276.773438 C 604.570312 281.921875 604.25 291.09375 596.203125 293.515625 C 600.546875 296.25 606.984375 293.671875 610.53125 287.71875 C 605.21875 299.46875 608.757812 310.09375 617.125 312.1875 C 613.101562 303.976562 622.117188 300.109375 619.226562 294.796875 C 624.539062 297.054688 629.203125 304.296875 629.039062 308.804688 C 635.96875 301.078125 623.890625 290.773438 626.148438 283.53125 Z M 518.929688 359.507812 C 511.039062 352.585938 507.679688 361.320312 503.796875 358.304688 C 500.179688 355.484375 495.34375 355.078125 493.5 357.898438 C 500.257812 358.140625 496.953125 363.375 510.078125 364.664062 C 496.953125 365.546875 499.375 380.195312 490.59375 379.46875 C 499.9375 388.328125 504.765625 371.585938 512.328125 374.320312 C 510.078125 374.960938 515.875 380.273438 511.84375 387.359375 C 518.367188 387.195312 521.023438 378.179688 521.828125 373.515625 Z M 345.226562 434.6875 C 342.328125 432.273438 333.960938 431.148438 330.742188 433.078125 C 327.523438 435.007812 328.648438 435.492188 332.515625 435.820312 C 336.375 436.140625 341.367188 442.390625 332.992188 442.742188 C 329.132812 442.898438 330.421875 452.234375 322.367188 452.882812 C 325.671875 456.90625 335.085938 454.25 338.46875 449.820312 C 337.828125 453.445312 342.65625 456.742188 340.726562 461.09375 C 346.679688 461.734375 343.21875 449.023438 352.632812 449.664062 C 348.773438 450.148438 350.382812 458.835938 357.140625 456.585938 C 353.117188 458.515625 355.210938 463.179688 359.71875 462.054688 C 356.820312 463.023438 355.851562 466.726562 359.882812 468.820312 C 363.742188 463.507812 359.398438 444.515625 345.226562 434.6875 Z M 695.851562 257.070312 C 708.171875 257.070312 718.15625 247.078125 718.15625 234.757812 C 718.15625 222.4375 708.171875 212.445312 695.851562 212.445312 C 683.523438 212.445312 673.539062 222.4375 673.539062 234.757812 C 673.539062 247.078125 683.523438 257.070312 695.851562 257.070312 Z M 695.851562 257.070312 " transform="matrix(0.5,0,0,0.5,0,0)"/>
<path style="fill-rule:nonzero;fill:rgb(100%,100%,100%);fill-opacity:1;stroke-width:0.521;stroke-linecap:butt;stroke-linejoin:miter;stroke:rgb(0%,0%,0%);stroke-opacity:1;stroke-miterlimit:4;" d="M 579.296875 284.023438 C 586.0625 277.578125 596.367188 274.359375 603.445312 279.1875 C 610.53125 284.023438 634.03125 289.8125 645.625 281.765625 C 657.210938 273.71875 662.6875 269.53125 667.835938 270.5 C 671.703125 276.296875 676.367188 279.03125 682.164062 279.515625 C 683.9375 281.445312 690.21875 283.054688 693.757812 282.570312 C 698.90625 283.859375 705.1875 282.25 710.179688 276.773438 C 717.90625 277.898438 725.148438 272.109375 727.882812 263.414062 C 736.09375 262.445312 736.578125 253.273438 731.429688 247.15625 C 726.59375 246.1875 730.304688 229.929688 712.75 233.148438 C 720.15625 237.65625 714.523438 246.671875 720.640625 250.859375 C 716.453125 250.859375 711.0625 252.632812 709.773438 258.90625 C 711.382812 254.5625 709.53125 251.664062 708.40625 250.695312 C 708.570312 246.992188 700.359375 237.898438 692.632812 241.203125 C 698.1875 242.40625 695.046875 251.34375 699.070312 254.71875 C 696.171875 254.882812 693.109375 256.328125 691.34375 258.90625 C 689.25 255.203125 681.84375 251.34375 677.335938 251.015625 C 677.335938 249.734375 677.09375 247.15625 676.53125 245.867188 C 674.523438 242.007812 672.828125 237.414062 673.632812 231.539062 C 669.773438 235.726562 666.554688 241.523438 664.617188 245.703125 C 658.507812 241.523438 643.367188 247.640625 636.289062 249.25 C 629.203125 250.859375 605.382812 246.992188 599.90625 241.195312 C 594.4375 235.40625 583.8125 231.859375 573.828125 228.96875 C 560.101562 224.984375 559.984375 209.96875 544.851562 199.664062 C 544.53125 218.34375 572.867188 277.578125 579.304688 284.023438 Z M 421.539062 426.320312 C 433.453125 426.320312 443.109375 416.664062 443.109375 404.75 C 443.109375 392.835938 433.453125 383.179688 421.539062 383.179688 C 409.625 383.179688 399.96875 392.835938 399.96875 404.75 C 399.96875 416.664062 409.625 426.320312 421.539062 426.320312 Z M 421.539062 426.320312 " transform="matrix(0.5,0,0,0.5,0,0)"/>
<path style="fill-rule:nonzero;fill:rgb(100%,100%,100%);fill-opacity:1;stroke-width:0.521;stroke-linecap:butt;stroke-linejoin:miter;stroke:rgb(0%,0%,0%);stroke-opacity:1;stroke-miterlimit:4;" d="M 370.023438 409.742188 C 374.367188 415.375 381.773438 415.054688 384.828125 414.570312 C 387.40625 421.328125 395.617188 421.171875 399.15625 424.867188 C 402.695312 428.578125 414.773438 428.257812 418.3125 426.15625 C 415.09375 425.835938 410.90625 423.90625 406.882812 420.523438 C 402.023438 416.445312 404.304688 408.289062 400.445312 405.390625 C 403.34375 402.171875 403.828125 396.859375 403.179688 394.765625 C 406.242188 393 408.492188 390.101562 408.8125 388.648438 C 414.132812 388.328125 418.796875 385.59375 420.726562 383.5 C 423.46875 386.078125 430.390625 382.695312 434.09375 387.039062 C 434.898438 376.414062 424.757812 370.78125 417.992188 374.320312 C 415.257812 372.875 408.015625 373.84375 406.726562 375.773438 C 404.46875 374.804688 398.195312 378.023438 395.296875 380.117188 C 398.515625 378.351562 398.992188 373.039062 397.710938 371.101562 C 400.445312 369.976562 403.507812 366.273438 403.828125 363.539062 C 407.6875 364.179688 413.484375 361.609375 416.054688 362.25 C 411.875 356.78125 404.953125 354.84375 397.867188 355.328125 C 390.546875 355.734375 387.40625 360.882812 386.4375 366.4375 C 382.09375 369.015625 380.648438 377.703125 382.257812 380.765625 C 379.757812 380.6875 377.421875 383.101562 376.460938 384.46875 C 373.078125 383.015625 368.25 381.96875 364.789062 381.96875 M 366.320312 373.203125 C 364.867188 369.015625 366.789062 365.25 367.765625 361.929688 C 370.265625 353.484375 368.734375 351.304688 361.171875 352.4375 C 360.523438 356.460938 364.390625 369.65625 366.320312 373.203125 Z M 366.320312 373.203125 " transform="matrix(0.5,0,0,0.5,0,0)"/>
<path style="fill-rule:nonzero;fill:rgb(100%,100%,100%);fill-opacity:1;stroke-width:0.521;stroke-linecap:butt;stroke-linejoin:miter;stroke:rgb(0%,0%,0%);stroke-opacity:1;stroke-miterlimit:4;" d="M 360.773438 352.90625 C 362.703125 354.84375 369.546875 355.726562 370.265625 349.609375 C 371.101562 342.585938 368.257812 339.867188 362.140625 342.609375 C 361.65625 344.21875 361.09375 350.820312 360.773438 352.90625 Z M 360.773438 352.90625 " transform="matrix(0.5,0,0,0.5,0,0)"/>
<path style="fill-rule:nonzero;fill:rgb(100%,100%,100%);fill-opacity:1;stroke-width:0.521;stroke-linecap:butt;stroke-linejoin:miter;stroke:rgb(0%,0%,0%);stroke-opacity:1;stroke-miterlimit:4;" d="M 362.21875 342.367188 C 364.796875 343.414062 370.351562 345.507812 373.40625 339.554688 C 375.976562 334.554688 372.601562 330.695312 367.289062 331.023438 C 366 332.46875 363.429688 337.617188 362.21875 342.367188 Z M 362.21875 342.367188 " transform="matrix(0.5,0,0,0.5,0,0)"/>
<path style="fill-rule:nonzero;fill:rgb(100%,100%,100%);fill-opacity:1;stroke-width:0.521;stroke-linecap:butt;stroke-linejoin:miter;stroke:rgb(0%,0%,0%);stroke-opacity:1;stroke-miterlimit:4;" d="M 366.96875 330.539062 C 367.617188 332.46875 374.210938 338.90625 379.046875 334.242188 C 383.875 329.570312 383.875 322.65625 376.625 320.078125 C 374.695312 320.398438 368.898438 327.15625 366.96875 330.539062 Z M 366.96875 330.539062 " transform="matrix(0.5,0,0,0.5,0,0)"/>
<path style="fill-rule:nonzero;fill:rgb(100%,100%,100%);fill-opacity:1;stroke-width:0.521;stroke-linecap:butt;stroke-linejoin:miter;stroke:rgb(0%,0%,0%);stroke-opacity:1;stroke-miterlimit:4;" d="M 376.617188 320.078125 C 378.070312 324.101562 382.578125 331.023438 390.945312 327.804688 C 399.320312 324.585938 395.773438 314.125 391.914062 312.03125 C 389.65625 312.1875 380.484375 316.375 376.617188 320.078125 Z M 376.617188 320.078125 " transform="matrix(0.5,0,0,0.5,0,0)"/>
<path style="fill-rule:nonzero;fill:rgb(100%,100%,100%);fill-opacity:1;stroke-width:0.521;stroke-linecap:butt;stroke-linejoin:miter;stroke:rgb(0%,0%,0%);stroke-opacity:1;stroke-miterlimit:4;" d="M 391.921875 312.03125 C 391.273438 315.570312 391.921875 325.226562 403.351562 325.070312 C 414.773438 324.90625 411.5625 311.546875 408.664062 309.617188 C 403.992188 309.617188 396.109375 309.773438 391.921875 312.03125 Z M 391.921875 312.03125 " transform="matrix(0.5,0,0,0.5,0,0)"/>
<path style="fill-rule:nonzero;fill:rgb(100%,100%,100%);fill-opacity:1;stroke-width:0.521;stroke-linecap:butt;stroke-linejoin:miter;stroke:rgb(0%,0%,0%);stroke-opacity:1;stroke-miterlimit:4;" d="M 409.140625 310.09375 C 407.851562 312.828125 404.953125 330.84375 427.328125 325.867188 C 430.226562 325.21875 437.796875 308.640625 409.140625 310.09375 Z M 409.140625 310.09375 " transform="matrix(0.5,0,0,0.5,0,0)"/>
<path style="fill-rule:nonzero;fill:rgb(100%,100%,100%);fill-opacity:1;stroke-width:0.521;stroke-linecap:butt;stroke-linejoin:miter;stroke:rgb(0%,0%,0%);stroke-opacity:1;stroke-miterlimit:4;" d="M 421.367188 311.703125 C 419.117188 313.953125 424.914062 332.140625 440.046875 329.085938 C 455.179688 326.023438 442.460938 308.804688 421.367188 311.703125 Z M 421.367188 311.703125 " transform="matrix(0.5,0,0,0.5,0,0)"/>
<path style="fill-rule:nonzero;fill:rgb(100%,100%,100%);fill-opacity:1;stroke-width:0.521;stroke-linecap:butt;stroke-linejoin:miter;stroke:rgb(0%,0%,0%);stroke-opacity:1;stroke-miterlimit:4;" d="M 434.25 314.4375 C 431.835938 319.429688 435.460938 334.242188 454.132812 334.242188 C 471.054688 334.242188 453.242188 314.765625 434.25 314.4375 Z M 434.25 314.4375 " transform="matrix(0.5,0,0,0.5,0,0)"/>
<path style="fill-rule:nonzero;fill:rgb(100%,100%,100%);fill-opacity:1;stroke-width:0.521;stroke-linecap:butt;stroke-linejoin:miter;stroke:rgb(0%,0%,0%);stroke-opacity:1;stroke-miterlimit:4;" d="M 448.898438 318.789062 C 447.6875 321.554688 446.203125 337.257812 468.21875 338.59375 C 484.15625 339.554688 480.289062 317.015625 448.898438 318.789062 Z M 448.898438 318.789062 " transform="matrix(0.5,0,0,0.5,0,0)"/>
<path style="fill-rule:nonzero;fill:rgb(100%,100%,100%);fill-opacity:1;stroke-width:0.521;stroke-linecap:butt;stroke-linejoin:miter;stroke:rgb(0%,0%,0%);stroke-opacity:1;stroke-miterlimit:4;" d="M 472.570312 325.390625 C 469.835938 330.21875 466.9375 342.296875 491.085938 343.257812 C 506.554688 343.882812 497.039062 325.710938 472.570312 325.390625 Z M 472.570312 325.390625 " transform="matrix(0.5,0,0,0.5,0,0)"/>
<path style="fill-rule:nonzero;fill:rgb(100%,100%,100%);fill-opacity:1;stroke-width:0.521;stroke-linecap:butt;stroke-linejoin:miter;stroke:rgb(0%,0%,0%);stroke-opacity:1;stroke-miterlimit:4;" d="M 492.6875 329.09375 C 489.148438 333.921875 491.757812 343.390625 500.734375 345.1875 C 512.007812 347.445312 513.617188 336.820312 505.890625 331.664062 C 498.15625 326.515625 492.6875 329.09375 492.6875 329.09375 Z M 492.6875 329.09375 " transform="matrix(0.5,0,0,0.5,0,0)"/>
<path style="fill-rule:nonzero;fill:rgb(100%,100%,100%);fill-opacity:1;stroke-width:0.521;stroke-linecap:butt;stroke-linejoin:miter;stroke:rgb(0%,0%,0%);stroke-opacity:1;stroke-miterlimit:4;" d="M 503.640625 331.34375 C 501.0625 335.851562 502.65625 346.796875 519.734375 346.796875 C 523.28125 346.796875 536.804688 332.953125 503.640625 331.34375 Z M 371.476562 541.273438 C 385.3125 541.273438 396.523438 530.054688 396.523438 516.226562 C 396.523438 502.398438 385.3125 491.179688 371.476562 491.179688 C 357.648438 491.179688 346.4375 502.398438 346.4375 516.226562 C 346.4375 530.054688 357.648438 541.273438 371.476562 541.273438 Z M 371.476562 541.273438 " transform="matrix(0.5,0,0,0.5,0,0)"/>
<path style="fill-rule:nonzero;fill:rgb(100%,100%,100%);fill-opacity:1;stroke-width:0.521;stroke-linecap:butt;stroke-linejoin:miter;stroke:rgb(0%,0%,0%);stroke-opacity:1;stroke-miterlimit:4;" d="M 555.148438 177.132812 C 553.21875 179.0625 549.195312 184.859375 548.390625 187.109375 C 540.015625 212.226562 562.359375 230.984375 575.429688 257.9375 C 585.734375 279.1875 584.453125 312.671875 568.351562 333.921875 C 562.84375 341.1875 564.484375 343.257812 557.40625 350.664062 C 554.6875 353.507812 551.609375 357.101562 552.578125 367.40625 C 557.085938 365.796875 563.523438 369.984375 564.804688 373.523438 C 568.03125 371.914062 572.539062 372.554688 574.148438 374.492188 C 579.617188 371.914062 584.125 373.203125 588.953125 378.351562 C 593.140625 377.710938 597.648438 378.351562 601.835938 382.859375 C 604.085938 378.351562 608.59375 376.742188 611.8125 377.710938 C 611.492188 371.914062 617.289062 367.726562 622.4375 369.984375 C 620.828125 362.257812 627.914062 356.460938 634.671875 358.710938 C 640.46875 354.203125 652.054688 353.882812 657.851562 360.648438 C 647.546875 357.75 647.875 368.695312 639.179688 367.726562 C 641.429688 374.171875 635.640625 377.867188 629.84375 379.960938 C 633.546875 378.195312 637.570312 376.101562 638.859375 378.351562 C 642.078125 375.539062 648.515625 376.578125 650.125 378.03125 C 654.390625 376.664062 658.5 377.710938 660.429688 382.859375 C 666.226562 386.398438 670.085938 395.414062 665.90625 402.179688 C 664.617188 395.09375 659.789062 395.414062 657.851562 392.515625 C 653.34375 394.132812 648.835938 394.132812 647.546875 391.234375 C 644.976562 393.804688 636.28125 396.0625 632.421875 392.195312 C 630.96875 397.992188 625.976562 402.820312 620.179688 402.820312 C 621.796875 407.328125 617.289062 415.054688 613.742188 418.921875 C 619.21875 421.8125 617.609375 428.257812 616.320312 432.117188 C 624.6875 433.40625 617.609375 440.8125 632.09375 445.640625 C 625.015625 447.898438 611.171875 445.640625 609.234375 436.945312 C 602.15625 436.632812 597.320312 429.546875 597.648438 422.132812 C 592.171875 416.984375 591.367188 409.578125 598.9375 404.429688 C 592.492188 406.359375 588.953125 396.0625 579.617188 400.242188 C 574.976562 402.328125 562.71875 398.796875 562.875 394.453125 C 560.945312 397.671875 549.195312 396.382812 547.578125 390.90625 C 543.71875 393 534.703125 389.460938 534.867188 384.148438 C 529.875 386.398438 523.117188 382.375 523.4375 377.226562 C 518.765625 376.578125 518.28125 372.398438 518.609375 368.859375 C 514.421875 366.921875 515.546875 362.898438 517.15625 358.070312 C 514.257812 354.851562 515.546875 350.34375 517.804688 346.15625 C 514.578125 342.9375 515.226562 339.070312 516.1875 334.570312 C 500.734375 333.28125 481.375 329.554688 436.992188 315.890625 C 370.023438 295.289062 351.992188 343.578125 366.804688 373.84375 C 383.890625 408.765625 364.867188 416.34375 370.664062 442.429688 C 376.78125 443.710938 380 448.859375 379.679688 454.335938 C 383.304688 454.492188 385.875 457.875 384.59375 464.320312 C 387.648438 463.757812 391.59375 464.640625 394.171875 467.210938 C 396.421875 463.03125 403.828125 462.0625 407.695312 466.890625 C 416.0625 466.242188 420.25 473.007812 419.929688 481.382812 C 424.429688 489.429688 422.820312 499.25 417.992188 505.523438 C 418.476562 502.148438 417.992188 497.320312 417.835938 494.421875 C 417.539062 489.09375 410.109375 487.984375 410.914062 483.632812 C 407.046875 483.953125 403.34375 481.867188 402.054688 478.96875 C 399.804688 480.898438 396.585938 481.546875 393.851562 480.578125 C 398.195312 482.507812 401.578125 490.234375 400.289062 495.382812 C 402.539062 499.25 402.054688 506.335938 399.320312 509.390625 C 398.03125 515.664062 393.203125 517.921875 386.929688 515.1875 C 390.46875 512.9375 391.757812 508.90625 391.59375 505.523438 C 389.34375 503.59375 388.210938 499.890625 388.054688 497.640625 C 381.773438 498.601562 373.078125 493.289062 371.476562 491.195312 C 357.648438 491.195312 346.4375 502.40625 346.4375 516.234375 C 345.789062 511.085938 339.273438 506.007812 340.078125 501.664062 C 336.21875 489.75 341.6875 478.640625 357.46875 476.390625 C 355.539062 471.882812 362.296875 467.210938 359.71875 462.0625 C 356.429688 455.484375 350.382812 446.929688 341.367188 436.953125 C 346.84375 427.609375 345.234375 415.054688 342.015625 407.328125 C 337.390625 396.234375 333 398.960938 316.578125 416.984375 C 289.820312 446.367188 254.117188 438.234375 222.570312 457.554688 C 214.179688 462.6875 205.828125 464.640625 214.84375 455.625 C 223.851562 446.609375 247.679688 437.59375 263.132812 429.867188 C 292.070312 415.398438 316.578125 391.234375 326.234375 344.226562 C 348.9375 233.765625 432.476562 270.179688 485.273438 290.78125 C 534.851562 310.132812 525.84375 266.3125 500.734375 239.914062 C 470.546875 208.179688 476.585938 183.25 490.75 163.289062 C 516.1875 159.742188 564.96875 168.601562 555.140625 177.132812 Z M 555.148438 177.132812 " transform="matrix(0.5,0,0,0.5,0,0)"/>
<path style="fill-rule:nonzero;fill:rgb(100%,100%,100%);fill-opacity:1;stroke-width:0.521;stroke-linecap:butt;stroke-linejoin:miter;stroke:rgb(0%,0%,0%);stroke-opacity:1;stroke-miterlimit:4;" d="M 644.820312 448.476562 C 660.039062 448.476562 672.375 436.148438 672.375 420.929688 C 672.375 405.710938 660.039062 393.375 644.820312 393.375 C 629.601562 393.375 617.265625 405.710938 617.265625 420.929688 C 617.265625 436.148438 629.601562 448.476562 644.820312 448.476562 Z M 644.820312 448.476562 " transform="matrix(0.5,0,0,0.5,0,0)"/>
<path style="fill:none;stroke-width:0.521;stroke-linecap:butt;stroke-linejoin:miter;stroke:rgb(0%,0%,0%);stroke-opacity:1;stroke-miterlimit:4;" d="M 539.703125 178.40625 C 533.585938 205.453125 538.734375 217.6875 547.75 229.601562 C 566.382812 254.21875 581.234375 310.414062 559.984375 347.109375 " transform="matrix(0.5,0,0,0.5,0,0)"/>
<path style="fill:none;stroke-width:0.521;stroke-linecap:round;stroke-linejoin:miter;stroke:rgb(0%,0%,0%);stroke-opacity:1;stroke-miterlimit:4;" d="M 571.890625 315.40625 C 574.46875 314.445312 579.296875 311.382812 580.421875 306.070312 M 573.820312 303.65625 C 574.625 298.992188 581.867188 296.976562 582.03125 291.992188 M 573.976562 285.460938 C 573.5 280.632812 581.226562 276.28125 580.09375 271.453125 M 569.796875 268.078125 C 569.15625 265.34375 576.234375 260.195312 574.304688 255.84375 M 564.492188 251.179688 C 563.039062 248.117188 567.867188 244.578125 565.78125 241.359375 M 556.757812 237.648438 C 556.273438 235.554688 559.257812 230.96875 557.648438 228.234375 M 549.03125 221.71875 C 549.671875 220.914062 552.25 218.984375 551.203125 216.570312 M 543.71875 210.046875 C 544.765625 209.484375 547.90625 208.523438 547.5 206.1875 " transform="matrix(0.5,0,0,0.5,0,0)"/>
<path style="fill:none;stroke-width:0.521;stroke-linecap:round;stroke-linejoin:round;stroke:rgb(0%,0%,0%);stroke-opacity:1;stroke-miterlimit:4;" d="M 382.578125 513.570312 C 376.140625 511.3125 368.09375 514.539062 366.484375 520.015625 M 371.3125 525 C 372.117188 519.53125 380.484375 517.109375 383.0625 519.6875 C 377.75 516.789062 375.171875 527.09375 379.84375 527.414062 M 423.148438 397.671875 C 419.289062 399.601562 418.164062 406.6875 423.148438 412 M 428.9375 399.28125 C 426.203125 401.53125 426.367188 408.296875 430.390625 409.90625 C 427.007812 407.492188 430.390625 403.304688 432.804688 403.140625 C 435.21875 402.984375 436.828125 405.882812 433.929688 408.78125 M 655.117188 415.210938 C 646.109375 412.796875 638.859375 423.257812 647.070312 432.601562 C 646.914062 423.578125 653.351562 417.625 661.234375 419.234375 M 657.609375 425.46875 C 655.390625 425.46875 654.148438 427.203125 654.148438 428.890625 C 654.148438 430.664062 655.679688 432.351562 658.171875 432.351562 C 659.78125 432.351562 661.070312 430.5 661.070312 429.054688 M 689.398438 227.828125 C 690.851562 233.304688 698.414062 235.554688 704.367188 234.273438 M 704.367188 230.726562 C 699.703125 230.890625 695.84375 226.546875 696.164062 222.84375 C 696.164062 225.578125 702.4375 226.867188 704.367188 225.09375 " transform="matrix(0.5,0,0,0.5,0,0)"/>
<path style="fill:none;stroke-width:0.521;stroke-linecap:round;stroke-linejoin:miter;stroke:rgb(0%,0%,0%);stroke-opacity:1;stroke-miterlimit:4;" d="M 384.828125 414.570312 C 383.539062 411.351562 388.695312 408.132812 388.851562 405.070312 C 389.015625 402.015625 394.648438 399.601562 400.445312 405.390625 M 397.710938 371.109375 C 396.585938 371.59375 395.617188 372.234375 394.648438 372.5625 M 408.820312 388.648438 C 407.453125 388.734375 404.632812 388.570312 403.101562 387.523438 M 403.1875 394.773438 C 402.0625 395.335938 399.570312 396.296875 398.117188 396.625 M 347.96875 492 C 347.8125 494.898438 350.703125 499.085938 352.3125 500.367188 M 360.53125 485.078125 C 358.921875 487.492188 357.953125 491.679688 358.921875 494.578125 M 384.507812 494.742188 C 381.609375 492.804688 383.546875 487.8125 383.21875 484.601562 C 382.898438 481.375 386.601562 476.226562 393.84375 480.570312 M 357.46875 476.390625 C 360.367188 475.90625 363.429688 476.0625 365.359375 476.867188 M 394.171875 467.210938 C 392.882812 468.976562 392.5625 470.914062 392.398438 472.203125 M 407.6875 466.890625 C 405.4375 466.890625 403.507812 468.5 402.539062 470.109375 M 376.460938 384.46875 C 379.039062 385.359375 385.71875 389.460938 385.960938 393.726562 M 403.828125 363.539062 C 395.945312 363.382812 392.882812 355.328125 398.84375 355.328125 M 418 374.320312 C 414.945312 375.609375 416.390625 380.921875 420.734375 383.492188 M 399.15625 424.867188 C 397.632812 422.9375 399.640625 417.304688 404.632812 418.992188 M 410.90625 483.632812 C 411.226562 478.71875 417.429688 475.820312 419.929688 481.375 M 388.046875 497.632812 C 387.648438 492.234375 390.382812 490.46875 392.796875 490.148438 C 395.210938 489.828125 398.671875 491.835938 400.28125 495.375 M 340.078125 501.65625 C 340.398438 498.4375 343.140625 495.0625 346.039062 495.546875 M 634.671875 358.710938 C 632.570312 360.242188 631.210938 367.078125 639.171875 367.726562 M 622.4375 369.976562 C 622.4375 370.78125 623.484375 371.914062 624.132812 372.398438 M 660.429688 382.859375 C 658.335938 381.25 652.945312 387.773438 657.851562 392.515625 M 609.242188 436.953125 C 608.03125 432.359375 612.296875 431.15625 616.320312 432.117188 M 598.9375 404.429688 C 601.351562 402.820312 603.773438 401.046875 606.828125 400.242188 M 597.648438 422.132812 C 597.648438 418.265625 599.578125 415.046875 601.351562 414.085938 M 611.8125 377.710938 C 611.492188 382.375 613.421875 386.882812 614.875 389.296875 M 650.132812 378.03125 C 647.796875 378.757812 645.703125 379.640625 644.820312 381.570312 M 647.546875 391.226562 C 648.679688 390.265625 649.96875 389.140625 650.53125 388.335938 M 708.398438 250.6875 C 708.398438 255.195312 702.765625 257.609375 699.070312 254.710938 M 720.640625 250.851562 C 723.132812 252.78125 731.742188 250.929688 729.734375 245.9375 M 710.171875 276.773438 C 708.398438 276.445312 705.34375 274.515625 704.054688 272.90625 M 727.882812 263.40625 C 724.984375 264.054688 723.046875 263.40625 721.601562 262.765625 M 682.15625 279.507812 C 683.765625 279.507812 687.632812 278.867188 690.289062 277.5 M 677.328125 251.023438 C 675.234375 250.78125 673.703125 251.179688 672.5 251.984375 M 709.773438 258.898438 C 709.203125 260.914062 707.757812 264.054688 705.984375 265.421875 " transform="matrix(0.5,0,0,0.5,0,0)"/>
<path style="fill:none;stroke-width:0.521;stroke-linecap:round;stroke-linejoin:round;stroke:rgb(0%,0%,0%);stroke-opacity:1;stroke-miterlimit:4;" d="M 671.859375 265.992188 C 675.882812 264.21875 680.875 277.898438 690.53125 273.070312 M 691.34375 258.898438 C 690.054688 260.671875 689.25 263.40625 689.085938 265.820312 " transform="matrix(0.5,0,0,0.5,0,0)"/>
<path style="fill:none;stroke-width:0.521;stroke-linecap:butt;stroke-linejoin:miter;stroke:rgb(0%,0%,0%);stroke-opacity:1;stroke-miterlimit:4;" d="M 498.8125 237.976562 C 500.101562 237.820312 502.351562 237.335938 502.835938 235.726562 M 333.15625 387.851562 C 337.992188 390.585938 341.367188 395.257812 339.273438 402.179688 M 554.5 223.171875 C 555.953125 224.132812 561.421875 224.132812 564.484375 223.007812 M 568.351562 226.390625 C 568.1875 228.640625 568.835938 237.171875 564.484375 238.945312 M 566.101562 237.820312 C 570.125 239.109375 578.171875 238.625 580.75 231.21875 M 575.109375 237.492188 C 577.203125 240.710938 577.84375 246.984375 571.570312 250.367188 M 576.71875 242.8125 C 581.390625 244.421875 592.171875 244.578125 591.046875 235.40625 M 587.351562 242.8125 C 590.570312 247.320312 604.734375 252.632812 602.484375 243.296875 M 574.3125 255.84375 C 579.78125 257.125 587.507812 253.421875 584.289062 243.765625 M 599.742188 248.601562 C 600.546875 252.304688 618.570312 256.164062 616.164062 247.796875 M 612.78125 252.632812 C 616.164062 260.359375 634.03125 259.710938 628.398438 249.40625 M 625.5 257.453125 C 629.039062 261.796875 644.820312 259.21875 638.539062 248.757812 M 638.367188 257.289062 C 648.1875 264.695312 659.617188 254.070312 647.226562 246.34375 M 652.859375 254.882812 C 661.554688 261.804688 672.179688 249.242188 664.617188 245.703125 M 584.117188 251.976562 C 586.859375 252.78125 592.65625 252.460938 593.9375 247.476562 M 591.773438 250.851562 C 591.453125 258.171875 603.765625 260.992188 606.90625 252.539062 M 602.796875 257.132812 C 605.054688 261.960938 615.835938 263.890625 617.609375 256.96875 M 615.84375 260.1875 C 617.609375 265.023438 626.945312 264.539062 629.523438 259.546875 M 626.140625 262.773438 C 629.039062 269.046875 640.945312 269.046875 643.6875 259.875 M 641.601562 263.890625 C 646.265625 266.789062 656.25 265.65625 655.445312 256.648438 M 653.507812 263.09375 C 660.429688 268.726562 670.25 263.25 665.421875 253.75 M 664.9375 270.492188 C 668.640625 269.84375 670.570312 262.4375 666.710938 260.507812 M 579.140625 271.78125 C 586.867188 267.59375 588.3125 260.515625 583 253.59375 M 585.742188 264.703125 C 590.570312 267.59375 599.742188 264.539062 601.351562 257.453125 M 592.34375 265.5 C 595.070312 269.039062 595.554688 273.390625 592.015625 277.414062 M 594.59375 270.007812 C 603.117188 264.695312 613.742188 274.515625 605.859375 280.476562 M 604.40625 269.53125 C 606.34375 269.046875 609.726562 265.507812 610.046875 261.484375 M 608.273438 273.226562 C 611.8125 269.523438 635.960938 277.09375 620.664062 284.820312 M 619.539062 263.09375 C 624.203125 264.859375 626.625 271.460938 619.539062 273.71875 M 625.65625 279.1875 C 630.8125 273.875 646.90625 277.257812 641.117188 284.023438 M 637.25 277.09375 C 640.148438 267.273438 657.367188 273.390625 651.734375 277.414062 M 633.710938 267.273438 C 634.195312 269.203125 634.351562 274.03125 631.132812 276.609375 M 648.203125 265.34375 C 648.84375 266.953125 648.679688 270.007812 647.234375 271.9375 M 659.140625 265.5 C 660.109375 267.273438 661.71875 270.648438 658.171875 273.390625 M 521.351562 191.453125 C 521.507812 200.625 524.726562 206.742188 537.125 200.945312 M 525.210938 202.398438 C 519.09375 210.609375 526.015625 219.460938 538.085938 210.609375 M 506.367188 206.421875 C 514.742188 215.4375 529.710938 208.835938 520.054688 195.148438 M 530.203125 214.148438 C 528.585938 223.007812 535.835938 224.773438 541.789062 220.75 M 498.96875 207.867188 C 500.492188 216.773438 509.59375 223.804688 518.445312 218.335938 M 509.921875 220.109375 C 509.921875 232.828125 527.46875 234.273438 531.492188 221.078125 M 525.210938 229.117188 C 530.84375 240.710938 543.078125 236.039062 547.101562 228.960938 M 512.8125 210.609375 C 515.0625 216.242188 519.570312 222.523438 530.03125 217.851562 M 480.617188 207.867188 C 482.070312 212.539062 490.4375 218.171875 500.101562 211.734375 M 486.570312 213.828125 C 481.414062 221.398438 491.71875 228.476562 504.117188 217.210938 M 492.6875 223.171875 C 494.78125 233.796875 498.96875 242.328125 514.101562 228.640625 M 506.53125 234.109375 C 512.007812 240.867188 520.375 245.054688 528.265625 233.625 " transform="matrix(0.5,0,0,0.5,0,0)"/>
<path style="fill:none;stroke-width:0.521;stroke-linecap:butt;stroke-linejoin:miter;stroke:rgb(0%,0%,0%);stroke-opacity:1;stroke-miterlimit:4;" d="M 534.0625 236.039062 C 533.578125 244.085938 535.1875 248.109375 541.460938 247.789062 C 546.414062 247.539062 551.125 243.609375 553.859375 239.421875 M 540.34375 247.796875 C 540.179688 256.976562 547.421875 264.21875 560.945312 254.882812 M 545.96875 258.578125 C 543.398438 265.5 551.117188 276.773438 566.25 270.976562 M 513.9375 240.226562 C 512.976562 249.085938 521.1875 255.039062 534.382812 243.609375 M 520.382812 250.046875 C 520.859375 257.296875 529.070312 265.984375 541.148438 253.429688 M 526.171875 259.226562 C 525.203125 271.625 536.632812 275.164062 546.289062 265.671875 M 508.953125 250.046875 C 511.523438 250.210938 513.617188 247.960938 514.90625 246.34375 M 514.421875 259.0625 C 516.671875 259.546875 520.539062 257.453125 521.828125 254.875 M 520.0625 273.710938 C 522.632812 276.445312 531.328125 274.515625 532.453125 270.8125 M 529.71875 273.546875 C 534.546875 284.820312 547.421875 284.335938 552.734375 271.617188 M 550.320312 276.132812 C 552.734375 282.726562 558.851562 286.914062 568.835938 284.664062 M 555.148438 282.890625 C 549.515625 292.0625 556.921875 302.851562 569.476562 292.226562 M 558.210938 296.570312 C 557.570312 302.367188 562.882812 308.96875 570.125 309.773438 M 534.382812 279.671875 C 532.445312 292.710938 541.78125 298.984375 553.539062 292.0625 M 520.703125 285.953125 C 523.757812 288.367188 529.234375 288.6875 534.382812 286.757812 M 540.65625 294.320312 C 537.757812 305.265625 549.03125 313.15625 558.6875 300.921875 M 525.046875 287.71875 C 525.210938 293.351562 530.6875 299.46875 540.179688 297.703125 M 566.742188 308.96875 C 560.296875 313.3125 559.007812 321.046875 568.03125 326.03125 M 550.960938 306.710938 C 551.28125 313.3125 554.34375 317.015625 561.585938 317.65625 M 541.46875 303.328125 C 531.8125 312.1875 541.304688 322.484375 552.734375 313.796875 M 548.226562 316.53125 C 545.007812 326.671875 557.085938 332.789062 563.523438 322.484375 M 528.273438 294.960938 C 524.726562 304.9375 529.234375 311.539062 537.445312 310.898438 M 515.546875 293.03125 C 516.03125 298.984375 521.179688 301.078125 526.976562 299.789062 M 519.25 299.3125 C 514.90625 307.679688 521.507812 312.1875 530.203125 308.96875 M 556.601562 327.640625 C 555.148438 332.953125 555.953125 336.8125 563.84375 338.585938 M 557.078125 335.210938 C 547.578125 339.554688 546.773438 348.734375 554.179688 354.6875 M 549.429688 324.992188 C 544.445312 329.5 545.40625 337.304688 550.882812 340.359375 M 507.179688 295.609375 C 501.703125 301 506.9375 315.890625 519.007812 307.765625 M 538.570312 314.4375 C 531.164062 320.554688 534.546875 331.664062 546.78125 328.609375 M 526.328125 309.773438 C 522.46875 320.71875 526.171875 324.578125 534.859375 324.742188 " transform="matrix(0.5,0,0,0.5,0,0)"/>
<path style="fill:none;stroke-width:0.521;stroke-linecap:butt;stroke-linejoin:miter;stroke:rgb(0%,0%,0%);stroke-opacity:1;stroke-miterlimit:4;" d="M 499.132812 295.117188 C 492.53125 300.109375 494.296875 307.195312 497.203125 310.414062 C 500.09375 313.632812 505.570312 312.179688 507.335938 308 M 485.28125 290.78125 C 477.875 300.28125 485.28125 311.546875 495.75 308.164062 M 524.890625 318.953125 C 517.320312 321.6875 511.554688 328.554688 516.195312 334.5625 C 518.929688 338.109375 530.84375 338.59375 534.226562 324.90625 M 511.203125 310.09375 C 506.851562 316.367188 508.296875 322.328125 516.351562 325.382812 M 510.71875 321.851562 C 506.046875 324.429688 502.992188 327.484375 504.117188 333.117188 M 500.257812 312.03125 C 498.492188 319.59375 500.578125 324.265625 505.25 326.515625 M 500.101562 321.039062 C 492.851562 320.554688 489.15625 323.617188 491.570312 330.695312 M 492.210938 322.8125 C 485.125 320.234375 484 314.117188 487.054688 307.679688 M 486.09375 317.179688 C 478.359375 317.5 474.984375 321.367188 474.984375 326.679688 " transform="matrix(0.5,0,0,0.5,0,0)"/>
<path style="fill:none;stroke-width:0.521;stroke-linecap:butt;stroke-linejoin:miter;stroke:rgb(0%,0%,0%);stroke-opacity:1;stroke-miterlimit:4;" d="M 475.617188 287.070312 C 469.984375 289.484375 468.21875 297.046875 470.304688 301.234375 C 472.40625 305.421875 479 305.742188 483.03125 303.007812 M 459.851562 281.117188 C 454.703125 286.914062 460.65625 298.1875 469.835938 295.445312 M 446.648438 276.609375 C 441.820312 283.367188 447.132812 294.640625 459.53125 291.421875 M 460.171875 322.8125 C 458.882812 314.757812 467.25 309.445312 477.554688 319.914062 M 472.570312 303.65625 C 469.515625 306.398438 468.0625 310.742188 468.546875 314.28125 M 433.453125 272.75 C 428.140625 281.765625 434.578125 289.976562 446.007812 286.757812 M 463.226562 295.117188 C 455.664062 302.6875 458.234375 310.25 463.875 314.601562 M 458.398438 303.976562 C 446.96875 304.140625 446.328125 317.34375 455.664062 321.523438 M 449.710938 290.78125 C 445.046875 294 443.59375 302.851562 451.640625 306.398438 M 449.390625 310.578125 C 444.5625 308.328125 438.765625 311.0625 439.25 316.695312 M 442.140625 310.742188 C 437.796875 300.4375 425.078125 302.210938 426.203125 312.835938 M 445.679688 298.023438 C 442.945312 298.5 437.46875 300.109375 435.382812 304.296875 M 436.1875 286.429688 C 431.039062 292.226562 435.0625 299.148438 439.25 300.59375 M 420.898438 270.171875 C 419.929688 277.09375 422.671875 280.476562 431.359375 279.828125 M 423.953125 279.03125 C 420.570312 287.398438 425.078125 291.101562 433.765625 290.617188 M 425.882812 289.328125 C 420.726562 295.445312 424.273438 302.046875 429.257812 304.78125 M 423.46875 297.0625 C 414.296875 295.929688 412.84375 306.554688 415.90625 311.546875 " transform="matrix(0.5,0,0,0.5,0,0)"/>
<path style="fill:none;stroke-width:0.521;stroke-linecap:butt;stroke-linejoin:miter;stroke:rgb(0%,0%,0%);stroke-opacity:1;stroke-miterlimit:4;" d="M 416.0625 269.367188 C 410.429688 271.78125 407.210938 278.867188 410.265625 283.210938 C 413.328125 287.5625 419.445312 286.109375 422.820312 283.859375 M 412.203125 285.140625 C 407.53125 292.226562 411.71875 297.53125 416.710938 299.625 " transform="matrix(0.5,0,0,0.5,0,0)"/>
<path style="fill:none;stroke-width:0.521;stroke-linecap:butt;stroke-linejoin:miter;stroke:rgb(0%,0%,0%);stroke-opacity:1;stroke-miterlimit:4;" d="M 394.171875 268.5625 C 390.46875 272.421875 392.71875 280.3125 401.734375 280.476562 C 408.992188 280.601562 412.679688 273.710938 410.429688 268.882812 M 400.453125 280.46875 C 397.554688 286.90625 399.320312 293.828125 410.273438 292.703125 M 414.9375 302.851562 C 408.179688 299.789062 399.164062 302.851562 403.03125 310.898438 M 402.0625 291.421875 C 399.320312 295.28125 400.289062 300.757812 403.351562 304.140625 M 401.578125 301.71875 C 397.070312 302.523438 392.726562 304.9375 395.460938 312.023438 M 394.8125 306.226562 C 389.015625 304.460938 381.609375 308.648438 386.117188 314.601562 M 385.15625 308.96875 C 380.171875 308.164062 374.210938 313.476562 379.046875 318.789062 M 377.109375 314.4375 C 372.601562 315.570312 367.289062 320.71875 371.960938 324.742188 M 399.8125 289.171875 C 393.367188 292.070312 392.726562 299.3125 395.78125 304.625 M 393.039062 275.8125 C 383.382812 279.515625 383.539062 292.390625 394.164062 296.414062 M 389.65625 293.507812 C 383.867188 296.890625 382.734375 303.328125 386.601562 307.515625 M 379.523438 270.976562 C 375.65625 272.265625 375.976562 284.179688 386.28125 283.859375 M 368.898438 275 C 361.171875 280.148438 370.507812 293.1875 383.0625 283.851562 M 376.140625 287.070312 C 375.015625 292.382812 376.460938 298.179688 384.992188 298.820312 M 376.617188 294.15625 C 370.5 296.414062 369.375 308.96875 380.484375 309.9375 M 357.148438 282.726562 C 349.265625 289.976562 363.59375 296.25 368.898438 285.789062 M 346.203125 294.796875 C 342.335938 299.46875 355.859375 311.703125 361.8125 291.257812 M 363.257812 290.9375 C 363.578125 295.773438 366.476562 298.664062 372.4375 298.992188 M 372.28125 303.65625 C 362.78125 305.109375 359.726562 317.023438 370.351562 319.59375 M 354.726562 302.046875 C 354.40625 306.554688 359.078125 310.257812 364.390625 309.453125 M 369.21875 319.273438 C 360.523438 321.203125 359.398438 332.46875 367.125 331.828125 M 363.101562 342.289062 C 355.851562 340.117188 355.695312 331.507812 362.132812 328.28125 " transform="matrix(0.5,0,0,0.5,0,0)"/>
<path style="fill:none;stroke-width:0.521;stroke-linecap:butt;stroke-linejoin:miter;stroke:rgb(0%,0%,0%);stroke-opacity:1;stroke-miterlimit:4;" d="M 357.148438 334.71875 C 351.03125 338.421875 353.445312 347.273438 356.664062 348.5625 C 359.890625 349.851562 362.460938 348.242188 362.78125 345.507812 M 362.296875 357.898438 C 362.945312 362.085938 347.40625 360.476562 355.375 347.4375 M 355.289062 358.632812 C 350.0625 366.84375 358.59375 373.523438 363.984375 366.515625 M 356.023438 368.53125 C 353.929688 375.132812 361.898438 379.882812 367.046875 374.726562 M 338.632812 306.710938 C 335.734375 312.664062 350.21875 314.921875 351.1875 302.6875 M 334.609375 315.570312 C 331.710938 327.15625 353.601562 324.742188 347.96875 309.773438 M 348.453125 317.5 C 351.507812 319.273438 360.6875 319.429688 362.9375 309.609375 M 356.34375 317.820312 C 356.984375 320.875 359.71875 324.578125 362.296875 325.710938 M 345.882812 320.882812 C 344.914062 327.15625 351.195312 332.3125 358.4375 331.828125 M 347 327 C 343.460938 331.828125 342.328125 341.164062 353.4375 341.8125 M 330.101562 328.609375 C 328.328125 333.601562 338.796875 338.75 344.90625 330.539062 M 326.882812 341.320312 C 325.992188 345.101562 335.414062 350.171875 340.726562 334.078125 M 336.539062 342.289062 C 338.796875 346.3125 346.359375 349.53125 351.03125 341.648438 M 343.460938 346.476562 C 341.53125 352.117188 346.84375 357.429688 353.28125 355.820312 M 331.390625 345.1875 C 330.101562 353.242188 339.4375 357.90625 345.234375 353.71875 M 325.273438 348.726562 C 322.53125 359.03125 335.734375 362.898438 340.726562 355.171875 M 337.351562 358.226562 C 337.835938 364.023438 346.851562 369.015625 353.929688 364.1875 M 321.25 363.0625 C 320.609375 365.632812 331.390625 368.210938 333 359.195312 M 327.53125 365.3125 C 330.101562 371.90625 338.796875 373.523438 343.789062 365.46875 M 340.890625 368.6875 C 342.015625 374.804688 349.90625 378.1875 356.828125 374 M 359.71875 376.421875 C 357.953125 384.632812 366.484375 391.226562 371.796875 386.726562 M 346.039062 374.96875 C 343.46875 383.984375 354.734375 389.132812 361.007812 384.148438 M 332.523438 370.460938 C 331.875 378.828125 338.476562 383.820312 346.039062 380.117188 M 318.1875 371.273438 C 315.9375 376.742188 327.851562 381.25 333.484375 376.585938 M 310.78125 386.242188 C 313.835938 389.78125 324.460938 386.242188 325.429688 378.351562 M 322.539062 384.140625 C 326.40625 388.648438 335.578125 391.0625 339.28125 381.40625 M 336.0625 386.398438 C 335.898438 393.320312 348.296875 398.3125 352.320312 385.59375 M 366.882812 388.09375 C 365.75 391.46875 368.40625 396.859375 373.960938 397.507812 M 356.65625 386 C 355.851562 389.859375 361.492188 395.257812 367.445312 393.085938 M 368.578125 394.6875 C 366.96875 398.875 368.335938 404.914062 373.96875 404.828125 M 369.140625 402.5 C 364.953125 406.039062 366.726562 412.320312 372.765625 412.5625 M 366.96875 408.453125 C 361.015625 412.46875 363.109375 421.328125 370.992188 420.851562 M 348.9375 391.390625 C 348.9375 400.085938 359.726562 401.367188 361.820312 393.320312 M 357.632812 398.46875 C 356.023438 403.617188 360.203125 408.609375 366.804688 407.164062 M 358.921875 460.609375 C 360.367188 462.703125 366.328125 459.164062 364.71875 455.625 C 363.101562 452.078125 356.796875 454.007812 357.46875 457.710938 M 363.257812 454.171875 C 364.0625 447.085938 355.695312 445.960938 353.601562 452.078125 M 356.65625 448.539062 C 358.75 445 351.671875 440.171875 348.773438 445.320312 M 351.351562 443.21875 C 353.28125 438.0625 345.234375 435.8125 344.585938 440.484375 M 342.820312 433.71875 C 343.789062 431.148438 352.796875 432.75 348.9375 438.0625 M 355.859375 444.507812 C 359.398438 441.289062 353.445312 434.6875 349.742188 437.109375 M 379.679688 454.328125 C 376.859375 454.648438 373.960938 456.5 376.054688 462.460938 C 377.507812 466.59375 383.703125 466.804688 384.585938 464.3125 " transform="matrix(0.5,0,0,0.5,0,0)"/>
<path style="fill:none;stroke-width:0.521;stroke-linecap:butt;stroke-linejoin:miter;stroke:rgb(0%,0%,0%);stroke-opacity:1;stroke-miterlimit:4;" d="M 375.578125 457.3125 C 372.84375 455.539062 366.890625 458.515625 369.625 464.3125 C 371.6875 468.679688 376.867188 466.890625 377.671875 464.632812 M 360.203125 465.601562 C 361.570312 468.015625 368.40625 466.96875 369.617188 464.3125 M 364.867188 457.632812 C 366.320312 456.664062 368.976562 457.867188 369.539062 459.078125 M 364.390625 417.953125 C 359.71875 421.007812 362.617188 430.34375 369.859375 427.929688 M 362.9375 425.523438 C 359.234375 428.414062 362.617188 437.429688 369.539062 434.054688 M 364.070312 434.046875 C 361.492188 436.625 363.992188 443.789062 370.671875 442.421875 M 363.101562 437.59375 C 361.648438 436.945312 357.867188 437.429688 356.257812 439.84375 M 358.921875 404.992188 C 355.382812 408.367188 357.070312 415.296875 363.671875 415.859375 M 357.632812 412.070312 C 352.554688 414.5625 352.554688 424.625 362.703125 425.03125 M 357.226562 423.421875 C 354.414062 425.671875 355.78125 434.367188 363.023438 433.234375 M 359.5625 432.921875 C 358.515625 433.96875 358.351562 436.625 359.234375 437.75 M 356.34375 429.617188 C 353.765625 429.703125 350.382812 431.554688 349.5 434.210938 M 344.828125 424.867188 C 345.796875 422.296875 353.765625 422.453125 354.328125 430.023438 M 355.132812 421.007812 C 354 421.25 351.828125 422.296875 351.265625 424.46875 M 351.671875 397.429688 C 348.210938 400.570312 346.515625 410.46875 357.0625 412.398438 M 344.671875 417.867188 C 344.671875 415.210938 351.835938 412.960938 354.328125 416.90625 M 340.078125 403.460938 C 341.125 405.476562 346.117188 408.210938 349.171875 405.953125 M 314.15625 387.6875 C 314 392.359375 317.859375 396.546875 323.171875 395.898438 C 328.484375 395.257812 329.617188 390.585938 328.007812 387.53125 M 323.976562 396.0625 C 320.4375 400.40625 324.78125 406.523438 328.8125 404.75 M 328.007812 393 C 330.101562 392.195312 337.023438 391.226562 339.117188 394.445312 M 305.632812 394.289062 C 304.023438 396.703125 314 399.117188 317.382812 394.453125 M 314 396.859375 C 313.679688 400.078125 315.289062 405.554688 323.5 403.296875 " transform="matrix(0.5,0,0,0.5,0,0)"/>
<path style="fill:none;stroke-width:0.521;stroke-linecap:butt;stroke-linejoin:miter;stroke:rgb(0%,0%,0%);stroke-opacity:1;stroke-miterlimit:4;" d="M 324.789062 408.289062 C 326.078125 405.554688 319.960938 401.046875 315.289062 406.039062 C 310.625 411.023438 315.9375 416.664062 318.835938 414.726562 M 303.382812 397.507812 C 300.96875 401.695312 310.304688 409.34375 315.617188 402.257812 " transform="matrix(0.5,0,0,0.5,0,0)"/>
<path style="fill:none;stroke-width:0.521;stroke-linecap:butt;stroke-linejoin:miter;stroke:rgb(0%,0%,0%);stroke-opacity:1;stroke-miterlimit:4;" d="M 297.179688 404.75 C 293.796875 408.210938 297.984375 414.570312 303.054688 412.640625 C 308.125 410.703125 307.640625 405.390625 306.4375 404.023438 " transform="matrix(0.5,0,0,0.5,0,0)"/>
<path style="fill:none;stroke-width:0.521;stroke-linecap:butt;stroke-linejoin:miter;stroke:rgb(0%,0%,0%);stroke-opacity:1;stroke-miterlimit:4;" d="M 290.65625 411.1875 C 287.921875 413.6875 290.578125 419.5625 294.359375 419.5625 C 298.148438 419.5625 300.476562 416.585938 299.757812 412.796875 M 306.03125 410.710938 C 305.546875 414.414062 311.023438 416.984375 314.5625 413.53125 M 314.726562 406.757812 C 315.210938 405.953125 314.8125 404.585938 314.007812 403.945312 M 284.789062 416.179688 C 281.648438 418.679688 288.414062 425.59375 292.679688 419.234375 M 309.007812 414.8125 C 307 416.742188 310.21875 421.8125 313.4375 420.28125 M 297.992188 418.351562 C 298.476562 421.804688 305.234375 424.382812 309.5 419.078125 M 301.6875 421.8125 C 300.640625 423.984375 302.734375 427.445312 305.3125 426.960938 M 365.757812 441.703125 C 363.265625 446.609375 371.234375 452.328125 377.03125 446.367188 M 371.546875 449.023438 C 370.34375 451.671875 371.789062 455.375 373.96875 456.742188 M 363.992188 454.570312 C 364.554688 452.15625 368.015625 449.898438 371.15625 451.03125 M 359.796875 448.210938 C 360.28125 446.039062 363.179688 443.867188 365.351562 444.429688 M 549.351562 347.757812 C 537.921875 347.921875 542.75 366.273438 552.570312 362.570312 M 545.648438 361.289062 C 543.398438 364.992188 547.742188 370.867188 552.570312 367.40625 M 551.289062 368.132812 C 547.90625 373.765625 559.984375 382.375 564.8125 373.523438 M 560.953125 376.898438 C 561.109375 382.210938 576.5625 385.59375 574.3125 374.96875 M 572.859375 380.757812 C 576.5625 387.039062 590.40625 387.679688 588.953125 378.34375 M 585.898438 384.789062 C 588.796875 388.976562 602.320312 391.546875 601.835938 382.859375 M 531 331.828125 C 532.929688 336.820312 539.53125 338.59375 546.773438 335.695312 M 526.820312 335.367188 C 531.328125 338.265625 524.726562 351.46875 517.804688 346.15625 M 526.820312 343.578125 C 531.8125 345.992188 537.929688 344.226562 539.695312 337.140625 M 536.640625 342.609375 C 537.125 346.3125 542.4375 349.210938 549.359375 347.757812 M 524.242188 346.476562 C 530.679688 351.953125 521.34375 363.21875 517.15625 358.070312 M 526.65625 350.65625 C 529.71875 352.914062 537.609375 351.625 538.40625 345.671875 M 534.867188 350.65625 C 535.515625 354.523438 538.570312 355.96875 542.921875 356.132812 M 524.890625 355.96875 C 528.109375 360.476562 536.15625 361.765625 539.695312 355.8125 M 536.148438 359.1875 C 535.828125 363.539062 540.65625 367.078125 545.648438 366.109375 M 518.609375 368.851562 C 522.796875 370.945312 527.304688 363.054688 523.757812 357.578125 M 523.4375 377.21875 C 528.429688 377.539062 529.070312 369.976562 524.40625 365.789062 M 534.867188 384.140625 C 539.054688 383.171875 537.765625 374 527.625 373.195312 M 547.578125 390.90625 C 551.601562 389.78125 548.382812 379.640625 537.28125 380.28125 M 562.882812 394.453125 C 565.609375 390.265625 556.601562 383.179688 549.195312 386.882812 M 570.4375 400.242188 C 575.429688 401.6875 578.8125 388.492188 563.039062 390.578125 M 579.617188 400.242188 C 583.96875 399.109375 587.03125 391.226562 574.3125 393.796875 M 589.28125 400.890625 C 593.140625 402.820312 594.914062 391.554688 583.15625 394.609375 M 524.398438 365.789062 C 529.226562 368.523438 536.796875 365.304688 536.148438 359.1875 M 534.21875 364.507812 C 535.835938 367.40625 535.1875 373.039062 532.125 374.492188 M 534.703125 371.273438 C 537.921875 372.554688 542.265625 371.429688 544.84375 366.28125 M 540.34375 371.273438 C 541.304688 373.523438 541.625 378.03125 539.53125 380.28125 M 541.148438 375.132812 C 544.695312 377.0625 548.875 374.484375 550.648438 370.78125 M 548.390625 374 C 550.96875 375.609375 553.21875 383.179688 548.875 386.234375 M 551.289062 382.703125 C 554.351562 382.859375 558.859375 382.859375 561.75 379 M 559.65625 381.09375 C 562.398438 381.898438 565.617188 386.40625 564.492188 390.429688 M 564.648438 388.96875 C 567.710938 388.648438 573.023438 386.554688 574.46875 382.851562 M 573.023438 385.273438 C 575.601562 386.71875 577.367188 389.773438 577.046875 393.320312 M 577.039062 390.742188 C 580.101562 390.578125 582.835938 388.96875 583.640625 385.585938 M 582.84375 387.851562 C 585.09375 388.65625 587.828125 391.226562 587.992188 394.289062 M 587.671875 392.351562 C 589.921875 392.03125 591.53125 390.578125 592.984375 388.328125 M 599.101562 388.007812 C 602 390.90625 598.140625 400.570312 592.179688 398.796875 M 537.28125 192.898438 C 531.320312 196.4375 514.414062 195.3125 522.789062 181.3125 M 538.890625 183.398438 C 527.140625 188.070312 512.648438 179.054688 527.78125 169.234375 M 523.757812 166.023438 C 513.9375 166.023438 507.335938 181.796875 520.546875 187.265625 M 485.609375 172.617188 C 483.03125 177.609375 492.210938 183.085938 498.492188 178.09375 C 503.351562 174.226562 502.992188 163.765625 500.09375 159.742188 M 480.617188 184.53125 C 477.398438 195.15625 501.0625 195.796875 497.359375 178.898438 M 479.328125 200.3125 C 480.132812 208.359375 502.03125 205.78125 494.945312 189.523438 M 497.523438 185.007812 C 499.289062 187.421875 504.117188 191.609375 512.328125 190.804688 M 501.382812 173.578125 C 502.101562 176.476562 507.015625 178.734375 513.296875 176.5625 M 281.726562 418.507812 C 276.179688 422.453125 284.710938 428.648438 287.84375 421.8125 M 277.382812 421.570312 C 271.828125 425.515625 280.359375 431.710938 283.5 424.867188 M 272.789062 424.546875 C 267.234375 428.492188 275.765625 434.695312 278.90625 427.851562 M 267.960938 427.289062 C 262.648438 430.109375 268.84375 437.03125 274.234375 430.90625 M 262.726562 429.953125 C 257.414062 432.765625 263.617188 439.6875 269.007812 433.570312 M 289.703125 421.648438 C 289.617188 425.757812 297.429688 427.445312 300.242188 421.328125 M 294.609375 425.4375 C 292.195312 428.5 296.625 432.28125 299.039062 430.90625 M 284.21875 424.867188 C 283.976562 428.328125 290.742188 430.34375 294.039062 426.5625 M 287.929688 428.5 C 285.757812 431.320312 290.023438 435.101562 292.757812 433.96875 M 279.71875 428.007812 C 279.960938 430.75 283.820312 433.882812 288.007812 432.117188 M 282.210938 431.710938 C 280.601562 433.15625 281.40625 436.546875 283.65625 437.59375 M 273.84375 431.46875 C 273.195312 433.96875 277.460938 438.398438 281.8125 435.492188 M 274.71875 434.367188 C 272.148438 436.382812 272.46875 439.4375 275.765625 439.84375 M 268.53125 434.046875 C 268.210938 435.734375 270.382812 438.476562 273.117188 438.15625 M 254.757812 433.890625 C 252.1875 435.257812 258.78125 442.257812 262.890625 435.742188 M 248.398438 436.78125 C 245.179688 438.3125 253.148438 446.039062 256.6875 438.148438 M 269.25 436.460938 C 266.757812 437.023438 265.148438 440.648438 267.234375 442.09375 M 261.117188 437.75 C 260.796875 439.203125 263.859375 441.609375 266.351562 440.726562 M 259.03125 438.398438 C 256.617188 439.929688 257.90625 444.195312 260.71875 443.546875 M 250.421875 441.210938 C 248.164062 442.898438 249.695312 446.28125 252.835938 445.476562 M 254.523438 440.96875 C 254.601562 441.851562 256.609375 443.226562 258.304688 442.664062 M 242.609375 439.523438 C 239.796875 440.726562 239.953125 447.8125 249.453125 443.953125 M 236.25 442.34375 C 232.304688 444.273438 233.59375 449.585938 242.203125 444.515625 M 242.929688 444.921875 C 241.882812 445.726562 240.757812 449.265625 244.703125 447.898438 M 235.6875 446.601562 C 234.078125 448.046875 235.125 451.03125 238.671875 449.898438 M 227.398438 447.09375 C 224.5 448.78125 230.859375 451.039062 235.125 446.523438 M 229.328125 449.179688 C 228.039062 450.46875 228.039062 454.25 231.421875 452.882812 M 221.117188 450.710938 C 219.1875 452.15625 222.484375 454.09375 228.523438 451.4375 M 223.53125 452.796875 C 221.273438 454.648438 221.515625 456.984375 224.820312 456.257812 M 216.851562 453.851562 C 214.351562 456.101562 217.976562 457.632812 222.320312 455.78125 M 216.929688 456.351562 C 212.664062 458.28125 214.515625 461.820312 217.171875 460.453125 M 359.398438 468.65625 C 358.40625 470.789062 361.65625 472.523438 364.710938 472.039062 C 367.648438 471.578125 370.460938 469.15625 368.25 465.765625 M 368.40625 469.953125 C 371.304688 472.203125 376.460938 469.632812 376.460938 466.242188 " transform="matrix(0.5,0,0,0.5,0,0)"/>
<path style="fill-rule:nonzero;fill:rgb(100%,100%,100%);fill-opacity:1;stroke-width:0.521;stroke-linecap:butt;stroke-linejoin:miter;stroke:rgb(0%,0%,0%);stroke-opacity:1;stroke-miterlimit:4;" d="M 545.96875 128.828125 C 533.09375 122.390625 506.367188 110.476562 498.804688 120.140625 C 505.726562 117.242188 526.007812 120.296875 542.75 135.75 Z M 545.96875 128.828125 " transform="matrix(0.5,0,0,0.5,0,0)"/>
<path style="fill-rule:nonzero;fill:rgb(100%,100%,100%);fill-opacity:1;stroke-width:0.521;stroke-linecap:butt;stroke-linejoin:miter;stroke:rgb(0%,0%,0%);stroke-opacity:1;stroke-miterlimit:4;" d="M 553.78125 128.148438 C 538.890625 110.804688 530.117188 114.6875 519.40625 108.710938 C 509.351562 103.09375 493.328125 101.953125 490.226562 110.875 C 504.921875 103.71875 518.414062 114.726562 526.703125 116.054688 C 538.085938 117.882812 544.507812 126.6875 547.835938 130.734375 Z M 609.882812 125.929688 C 602.148438 108.21875 585.625 112.84375 578.328125 105.328125 C 567.703125 94.382812 540.820312 84.234375 529.710938 91.804688 C 554.179688 90.515625 564.601562 108.671875 577.6875 114.984375 C 587.023438 119.492188 597 129.148438 609.882812 125.929688 Z M 609.882812 125.929688 " transform="matrix(0.5,0,0,0.5,0,0)"/>
<path style="fill-rule:nonzero;fill:rgb(100%,100%,100%);fill-opacity:1;stroke-width:0.521;stroke-linecap:butt;stroke-linejoin:miter;stroke:rgb(0%,0%,0%);stroke-opacity:1;stroke-miterlimit:4;" d="M 580.90625 124 C 567.710938 107.578125 547.421875 93.09375 538.085938 98.5625 C 550.320312 99.210938 554.1875 107.742188 562.882812 113.210938 C 571.570312 118.6875 567.710938 126.578125 580.90625 124 Z M 518.117188 152.976562 C 504.273438 147.828125 477.234375 145.25 464.671875 161.03125 C 485.601562 164.570312 517.15625 162.640625 518.117188 152.976562 Z M 518.117188 152.976562 " transform="matrix(0.5,0,0,0.5,0,0)"/>
<path style="fill-rule:nonzero;fill:rgb(100%,100%,100%);fill-opacity:1;stroke-width:0.521;stroke-linecap:butt;stroke-linejoin:miter;stroke:rgb(0%,0%,0%);stroke-opacity:1;stroke-miterlimit:4;" d="M 515.546875 159.101562 C 501.703125 152.65625 490.890625 161.65625 477.882812 160.390625 C 453.09375 157.976562 435.382812 159.421875 433.132812 171.335938 C 447.296875 158.617188 471.117188 169.078125 480.78125 166.507812 C 490.4375 163.929688 526.171875 166.179688 537.445312 171.015625 C 531.648438 163.929688 522.632812 162 515.546875 159.101562 Z M 559.007812 122.226562 C 555.796875 111.601562 555.953125 100.335938 571.890625 101.140625 C 567.867188 96.148438 553.054688 93.578125 550.640625 112.25 C 533.09375 99.375 513.9375 97.117188 510.398438 108.226562 C 519.40625 100.5 533.414062 106.132812 550.15625 125.132812 C 551.601562 124.320312 555.46875 122.710938 559.007812 122.234375 Z M 559.007812 122.226562 " transform="matrix(0.5,0,0,0.5,0,0)"/>
<path style="fill-rule:nonzero;fill:rgb(100%,100%,100%);fill-opacity:1;stroke-width:0.521;stroke-linecap:butt;stroke-linejoin:miter;stroke:rgb(0%,0%,0%);stroke-opacity:1;stroke-miterlimit:4;" d="M 534.867188 136.882812 C 524.890625 130.4375 511.367188 119.976562 535.03125 115.789062 C 524.890625 110.320312 510.078125 112.734375 511.6875 131.40625 C 484.648438 120.460938 465.226562 124.15625 461.140625 134.945312 C 456.632812 146.859375 473.382812 153.460938 476.273438 145.898438 C 473.21875 147.179688 462.75 143.640625 468.226562 136.882812 C 473.695312 130.117188 501.75 135.195312 528.429688 149.117188 C 535.835938 152.976562 561.273438 152.335938 534.867188 136.882812 Z M 534.867188 136.882812 " transform="matrix(0.5,0,0,0.5,0,0)"/>
<path style="fill-rule:nonzero;fill:rgb(100%,100%,100%);fill-opacity:1;stroke-width:0.521;stroke-linecap:butt;stroke-linejoin:miter;stroke:rgb(0%,0%,0%);stroke-opacity:1;stroke-miterlimit:4;" d="M 527.78125 154.59375 C 520.078125 138.867188 495.101562 153.140625 490.070312 137.914062 C 483.1875 160.226562 525.585938 147.875 527.78125 154.59375 Z M 686.671875 171.648438 C 691.90625 174.25 696.4375 170.164062 688.421875 166.953125 C 693.664062 169.554688 698.234375 165.5625 690.226562 162.351562 C 695.46875 164.953125 700.039062 160.953125 692.023438 157.75 C 689.890625 159.898438 686.828125 167.789062 686.671875 171.648438 Z M 689.398438 141.390625 C 700.992188 129.15625 688.4375 124.96875 702.601562 112.414062 C 714.195312 102.140625 704.8125 95.296875 715.804688 87.304688 C 719.34375 84.726562 727.070312 79.570312 727.71875 74.421875 C 732.382812 86.015625 713.226562 87.625 714.515625 106.296875 C 715.335938 118.1875 707.296875 117.148438 704.210938 137.203125 C 703.570312 141.390625 700.671875 150.726562 689.398438 141.390625 Z M 689.398438 141.390625 " transform="matrix(0.5,0,0,0.5,0,0)"/>
<path style="fill-rule:nonzero;fill:rgb(100%,100%,100%);fill-opacity:1;stroke-width:0.521;stroke-linecap:butt;stroke-linejoin:miter;stroke:rgb(0%,0%,0%);stroke-opacity:1;stroke-miterlimit:4;" d="M 694.5625 146.859375 C 701 133.015625 708.390625 133.28125 711.945312 127.867188 C 718.703125 117.5625 733.03125 129.632812 745.109375 120.460938 C 743.015625 133.5 726.757812 128.828125 719.671875 137.203125 C 712.59375 145.570312 706.796875 149.4375 694.5625 146.859375 Z M 694.5625 146.859375 " transform="matrix(0.5,0,0,0.5,0,0)"/>
<path style="fill-rule:nonzero;fill:rgb(100%,100%,100%);fill-opacity:1;stroke-width:0.521;stroke-linecap:butt;stroke-linejoin:miter;stroke:rgb(0%,0%,0%);stroke-opacity:1;stroke-miterlimit:4;" d="M 696.171875 151.367188 C 707.4375 142.351562 715.742188 148.367188 723.539062 143.640625 C 743.171875 131.726562 751.0625 146.054688 768.609375 140.421875 C 763.945312 151.6875 738.023438 142.03125 726.757812 150.40625 C 715.484375 158.773438 675.890625 166.820312 696.171875 151.367188 Z M 663.328125 215.601562 C 663.164062 210.445312 658.335938 203.851562 651.578125 203.046875 C 644.820312 202.242188 641.921875 195.15625 636.765625 194.835938 C 631.617188 194.515625 628.234375 184.210938 621.148438 184.367188 C 614.070312 184.53125 611.171875 193.703125 627.75 202.078125 C 644.335938 210.445312 662.6875 220.109375 663.328125 215.601562 Z M 642.398438 219.953125 C 635.320312 220.273438 634.351562 230.578125 627.59375 230.898438 C 636.921875 235.890625 643.6875 228.640625 648.515625 222.203125 Z M 642.398438 219.953125 " transform="matrix(0.5,0,0,0.5,0,0)"/>
<path style="fill-rule:nonzero;fill:rgb(100%,100%,100%);fill-opacity:1;stroke-width:0.521;stroke-linecap:butt;stroke-linejoin:miter;stroke:rgb(0%,0%,0%);stroke-opacity:1;stroke-miterlimit:4;" d="M 648.203125 221.226562 C 642.085938 226.382812 640.3125 237.164062 649.164062 240.226562 C 643.851562 232.898438 658.507812 229.601562 653.992188 222.835938 Z M 648.203125 221.226562 " transform="matrix(0.5,0,0,0.5,0,0)"/>
<path style="fill-rule:nonzero;fill:rgb(100%,100%,100%);fill-opacity:1;stroke-width:0.521;stroke-linecap:butt;stroke-linejoin:miter;stroke:rgb(0%,0%,0%);stroke-opacity:1;stroke-miterlimit:4;" d="M 654.3125 221.5625 C 649.476562 230.898438 661.875 232.023438 658.65625 239.109375 C 665.742188 237.5 666.867188 224.132812 660.429688 220.59375 Z M 654.3125 221.5625 " transform="matrix(0.5,0,0,0.5,0,0)"/>
<path style="fill-rule:nonzero;fill:rgb(100%,100%,100%);fill-opacity:1;stroke-width:0.521;stroke-linecap:butt;stroke-linejoin:miter;stroke:rgb(0%,0%,0%);stroke-opacity:1;stroke-miterlimit:4;" d="M 606.976562 201.59375 C 618.570312 200.945312 629.171875 207.21875 636.28125 217.367188 C 640.789062 223.804688 655.921875 226.382812 661.070312 221.226562 C 666.21875 216.078125 663.328125 205.132812 650.445312 208.671875 C 647.226562 203.203125 637.890625 205.132812 633.382812 200.625 C 628.875 196.117188 611.484375 183.242188 606.976562 201.59375 Z M 606.976562 201.59375 " transform="matrix(0.5,0,0,0.5,0,0)"/>
<path style="fill-rule:nonzero;fill:rgb(100%,100%,100%);fill-opacity:1;stroke-width:0.521;stroke-linecap:round;stroke-linejoin:miter;stroke:rgb(0%,0%,0%);stroke-opacity:1;stroke-miterlimit:4;" d="M 650.453125 208.679688 C 647.390625 209.320312 646.421875 214.632812 648.351562 217.375 M 657.046875 211.898438 C 658.015625 213.507812 657.367188 215.765625 656.890625 216.890625 M 625.34375 202.078125 C 631.296875 202.398438 632.421875 206.75 638.859375 208.359375 " transform="matrix(0.5,0,0,0.5,0,0)"/>
<path style="fill-rule:nonzero;fill:rgb(100%,100%,100%);fill-opacity:1;stroke-width:0.521;stroke-linecap:butt;stroke-linejoin:miter;stroke:rgb(0%,0%,0%);stroke-opacity:1;stroke-miterlimit:4;" d="M 621.398438 187.429688 C 641.96875 192.578125 658.289062 197.085938 668.414062 202.882812 C 678.53125 208.679688 694.203125 210.289062 707.914062 206.429688 C 721.632812 202.5625 748.070312 199.023438 746.765625 216.085938 C 753.953125 207.554688 744.8125 198.375 726.523438 196.765625 C 726.851562 188.398438 717.898438 180.828125 711.453125 185.820312 C 717.414062 185.015625 722.554688 196.125 710.804688 200.632812 C 713.085938 192.257812 704.765625 184.695312 696.109375 188.398438 C 701.664062 190.007812 707.273438 199.3125 694.859375 202.882812 C 687.023438 205.140625 675.59375 202.242188 667.109375 197.085938 C 658.617188 191.9375 610.953125 173.265625 621.398438 187.429688 Z M 621.398438 187.429688 " transform="matrix(0.5,0,0,0.5,0,0)"/>
<path style="fill-rule:nonzero;fill:rgb(100%,100%,100%);fill-opacity:1;stroke-width:0.521;stroke-linecap:butt;stroke-linejoin:miter;stroke:rgb(0%,0%,0%);stroke-opacity:1;stroke-miterlimit:4;" d="M 673.3125 179.0625 C 666.875 181.953125 671.054688 188.71875 661.078125 192.578125 C 651.09375 196.445312 644.171875 205.296875 646.429688 212.867188 C 653.1875 198.054688 665.101562 198.695312 669.28125 192.90625 C 673.476562 187.109375 679.585938 178.578125 673.3125 179.0625 Z M 673.3125 179.0625 " transform="matrix(0.5,0,0,0.5,0,0)"/>
<path style="fill-rule:nonzero;fill:rgb(100%,100%,100%);fill-opacity:1;stroke-width:0.521;stroke-linecap:butt;stroke-linejoin:miter;stroke:rgb(0%,0%,0%);stroke-opacity:1;stroke-miterlimit:4;" d="M 675.078125 180.023438 C 674.757812 191.773438 665.507812 187.492188 669.125 204.007812 C 670.25 209.15625 672.34375 217.53125 668.804688 225.898438 C 679.1875 218.335938 672.507812 202.4375 677.171875 196.4375 C 679.429688 193.546875 682.320312 189.03125 683.453125 185.171875 C 681.03125 191.929688 681.195312 204.492188 687.796875 207.710938 C 682.484375 195.148438 702.125 184.851562 688.601562 170.359375 C 686.671875 173.90625 680.554688 180.179688 675.078125 180.023438 Z M 642.242188 168.273438 C 643.851562 170.6875 645.460938 176.804688 644.007812 180.179688 C 647.234375 178.25 651.90625 173.257812 653.351562 169.882812 C 659.945312 170.84375 662.523438 179.054688 656.25 182.59375 C 660.109375 182.59375 666.710938 182.59375 670.414062 178.25 C 665.90625 173.257812 651.90625 165.53125 642.242188 168.273438 Z M 642.242188 168.273438 " transform="matrix(0.5,0,0,0.5,0,0)"/>
<path style="fill-rule:nonzero;fill:rgb(100%,100%,100%);fill-opacity:1;stroke-width:0.521;stroke-linecap:butt;stroke-linejoin:miter;stroke:rgb(0%,0%,0%);stroke-opacity:1;stroke-miterlimit:4;" d="M 542.109375 145.179688 C 541.070312 144.226562 539.3125 143.328125 536.15625 142.679688 C 526.40625 140.679688 531.445312 131.898438 539.742188 131.976562 C 557.445312 112.65625 567.382812 127.546875 588.953125 121.429688 C 596.507812 119.289062 601.6875 119.921875 605.804688 121.703125 C 615.460938 115.265625 626.789062 117.0625 635 124.632812 C 635.914062 123.179688 637.140625 122.070312 638.859375 121.59375 C 646.421875 119.492188 652.539062 125.9375 654.632812 134.3125 C 660.523438 133.21875 667.257812 136.140625 671.6875 140.164062 C 677.820312 137.015625 682.046875 136.875 683.601562 140.109375 C 689.078125 137.53125 696.171875 135.921875 699.710938 144.609375 C 703.25 153.304688 691.34375 150.726562 689.40625 169.078125 C 688.21875 180.398438 675.5625 184.859375 665.578125 178.09375 C 649.617188 167.28125 634.03125 165.539062 626.304688 181.960938 C 618.578125 198.382812 612.523438 207.921875 593.78125 202.5625 C 587.023438 200.632812 578.328125 203.210938 572.859375 210.617188 C 567.382812 218.015625 559.015625 211.09375 549.03125 211.898438 C 561.585938 209.96875 556.78125 206.8125 567.710938 206.109375 C 577.6875 205.460938 575.117188 196.125 581.554688 194.835938 C 556.4375 201.28125 557.40625 191.9375 536.804688 198.382812 C 545.8125 186.789062 559.984375 193.226562 567.0625 186.46875 C 548.390625 186.148438 540.039062 173.945312 531.648438 179.0625 C 518.445312 187.109375 524.242188 210.023438 489.796875 208.039062 C 473.054688 207.070312 462.429688 209.328125 452.445312 219.304688 C 469.835938 183.25 493.484375 203.054688 504.929688 191.617188 C 511.6875 184.859375 516.84375 179.703125 520.382812 173.265625 C 521.625 171 523.3125 169.703125 525.421875 169.203125 C 496.765625 160.1875 514.101562 146.148438 542.109375 145.179688 Z M 542.109375 145.179688 " transform="matrix(0.5,0,0,0.5,0,0)"/>
<path style="fill-rule:nonzero;fill:rgb(100%,100%,100%);fill-opacity:1;stroke-width:0.521;stroke-linecap:round;stroke-linejoin:miter;stroke:rgb(0%,0%,0%);stroke-opacity:1;stroke-miterlimit:4;" d="M 683.59375 140.109375 C 684.03125 141.015625 684.25 142.1875 684.25 143.640625 C 684.25 150.726562 673.625 151.046875 672.984375 161.515625 C 672.648438 166.984375 672.015625 170.046875 668.3125 169.398438 C 664.617188 168.757812 661.390625 162.960938 664.9375 156.195312 " transform="matrix(0.5,0,0,0.5,0,0)"/>
<path style="fill-rule:nonzero;fill:rgb(100%,100%,100%);fill-opacity:1;stroke-width:0.521;stroke-linecap:butt;stroke-linejoin:miter;stroke:rgb(0%,0%,0%);stroke-opacity:1;stroke-miterlimit:4;" d="M 547.421875 134.632812 C 544.75 132.757812 542.085938 131.992188 539.695312 131.976562 M 605.742188 121.648438 C 614.265625 125.34375 618.421875 134.195312 630.804688 134.632812 C 642.726562 135.046875 650.125 152.335938 670.085938 141.070312 C 670.625 140.765625 671.15625 140.476562 671.671875 140.21875 M 635 124.632812 C 633.21875 127.460938 632.820312 131.40625 633.304688 134.875 M 596.039062 161.03125 C 580.914062 161.03125 577.046875 168.757812 577.046875 176.164062 C 577.046875 183.570312 584.125 193.226562 596.6875 193.226562 C 609.242188 193.226562 616 185.5 616 177.125 C 616 168.757812 608.273438 161.03125 596.039062 161.03125 Z M 596.039062 161.03125 " transform="matrix(0.5,0,0,0.5,0,0)"/>
<path style="fill-rule:nonzero;fill:rgb(100%,100%,100%);fill-opacity:1;stroke-width:0.521;stroke-linecap:butt;stroke-linejoin:miter;stroke:rgb(0%,0%,0%);stroke-opacity:1;stroke-miterlimit:4;" d="M 598.773438 192.898438 C 598.453125 188.71875 590.882812 189.359375 591.203125 186.140625 C 591.523438 182.921875 595.390625 181.632812 595.390625 177.125 C 595.390625 172.617188 602.148438 172.296875 604.40625 175.835938 C 606.65625 179.375 613.421875 186.296875 614.867188 182.757812 M 604.40625 175.84375 C 600.867188 179.382812 599.257812 186.625 603.929688 192.257812 M 609.242188 181.3125 C 608.117188 183.726562 607.796875 187.429688 609.078125 189.679688 " transform="matrix(0.5,0,0,0.5,0,0)"/>
<path style="fill:none;stroke-width:0.521;stroke-linecap:butt;stroke-linejoin:miter;stroke:rgb(0%,0%,0%);stroke-opacity:1;stroke-miterlimit:4;" d="M 669.359375 169.476562 C 681.195312 170.445312 683.203125 157.40625 674.351562 156.601562 M 654.796875 134.3125 C 650.695312 129.078125 641.28125 127.304688 641.117188 138.414062 " transform="matrix(0.5,0,0,0.5,0,0)"/>
<path style="fill-rule:nonzero;fill:rgb(100%,100%,100%);fill-opacity:1;stroke-width:0.521;stroke-linecap:butt;stroke-linejoin:miter;stroke:rgb(0%,0%,0%);stroke-opacity:1;stroke-miterlimit:4;" d="M 639.992188 151.046875 C 635.96875 141.070312 625.664062 139.617188 620.1875 144.609375 C 615.632812 148.765625 615.515625 159.578125 625.34375 161.835938 C 628.71875 157.8125 635.320312 152.5 639.992188 151.054688 Z M 635.5625 144.773438 C 629.765625 139.617188 621.234375 149.359375 628.960938 158.289062 M 525.3125 169.15625 C 529.1875 168.242188 534.859375 170.140625 543.554688 174.226562 C 549.03125 176.804688 565.453125 182.273438 575.75 176.804688 C 565.125 180.664062 557.078125 164.570312 549.03125 166.5 C 540.984375 168.429688 526.25 171.40625 520.054688 165.53125 C 535.1875 166.5 543.320312 154.515625 560.617188 164.890625 C 565.453125 167.789062 571.570312 169.71875 577.039062 169.398438 C 562.875 152.335938 544.203125 163.28125 542.265625 149.4375 C 550.804688 158.609375 571.648438 147.34375 582.273438 164.570312 M 545.328125 152.007812 C 543.335938 149.53125 544.234375 147.0625 542.101562 145.101562 " transform="matrix(0.5,0,0,0.5,0,0)"/>
<path style=" stroke:none;fill-rule:nonzero;fill:rgb(0%,0%,0%);fill-opacity:1;" d="M 327.398438 67.15625 C 325.628906 65.261719 321.765625 66.753906 322.851562 70.574219 C 323.699219 68.804688 325.507812 67.316406 327.398438 67.15625 Z M 316.453125 77.464844 C 317.675781 76.578125 318.933594 75.851562 319.992188 75.523438 C 319.414062 74.09375 318.578125 73.011719 317.613281 72.257812 C 316.691406 71.621094 314.046875 75.179688 316.453125 77.464844 Z M 316.453125 77.464844 "/>
<path style="fill:none;stroke-width:0.521;stroke-linecap:round;stroke-linejoin:miter;stroke:rgb(0%,0%,0%);stroke-opacity:1;stroke-miterlimit:4;" d="M 623.398438 141.867188 C 617.601562 138.007812 612.289062 138.328125 610.523438 141.546875 C 606.335938 141.390625 602.875 144.445312 602.710938 150.5625 M 611.648438 153.140625 C 604.726562 148.390625 595.226562 150.164062 595.875 160.789062 M 591.6875 166.820312 C 595.070312 164.085938 599.898438 162.148438 603.601562 166.984375 M 643.367188 156.359375 C 642.078125 158.132812 641.117188 160.867188 643.203125 165.054688 C 640.632812 161.671875 634.195312 161.671875 627.265625 170.6875 M 658.65625 155.882812 C 650.289062 156.84375 650.453125 162.320312 657.210938 164.734375 M 599.101562 135.429688 C 592.015625 133.984375 586.867188 138.164062 596.6875 141.710938 M 612.617188 130.601562 C 602.640625 128.1875 598.609375 130.757812 603.117188 133.015625 M 583.796875 170.6875 C 583.476562 174.234375 585.40625 178.898438 591.203125 173.585938 M 585.742188 181.3125 C 585.742188 182.273438 585.578125 183.398438 584.929688 184.203125 M 562.546875 134.140625 C 556.429688 132.367188 555.304688 126.734375 562.390625 127.21875 M 560.460938 147.179688 C 553.695312 144.929688 553.695312 138.328125 559.328125 138.96875 M 573.023438 143.796875 C 565.132812 141.867188 564.8125 136.398438 570.773438 137.203125 M 573.976562 127.0625 C 569.796875 126.734375 563.351562 131.40625 574.140625 134.140625 M 585.742188 136.398438 C 575.921875 134.953125 576.078125 138.976562 581.875 141.554688 M 593.140625 127.0625 C 585.570312 125.609375 583 130.117188 588.148438 132.046875 M 569.320312 154.90625 C 567.46875 153.382812 565.9375 146.054688 574.789062 148.226562 M 587.671875 152.65625 C 581.71875 151.046875 576.078125 156.84375 581.554688 160.226562 M 595.546875 145.742188 C 589.273438 144.609375 583.960938 146.382812 587.34375 148.640625 " transform="matrix(0.5,0,0,0.5,0,0)"/>
<path style="fill-rule:nonzero;fill:rgb(100%,100%,100%);fill-opacity:1;stroke-width:0.521;stroke-linecap:butt;stroke-linejoin:miter;stroke:rgb(0%,0%,0%);stroke-opacity:1;stroke-miterlimit:4;" d="M 654.460938 134.3125 C 650.921875 134.96875 647.75 137.046875 645.695312 141.148438 " transform="matrix(0.5,0,0,0.5,0,0)"/>
</g>
</svg>
