<?xml version="1.0" encoding="UTF-8"?>
<svg xmlns="http://www.w3.org/2000/svg" xmlns:xlink="http://www.w3.org/1999/xlink" width="px" height="px" viewBox="0 0 450 225" version="1.1">
<g id="surface1">
<rect x="0" y="0" width="450" height="225" style="fill:rgb(80.784314%,9.019608%,12.54902%);fill-opacity:1;stroke:none;"/>
<path style=" stroke:none;fill-rule:nonzero;fill:rgb(100%,100%,100%);fill-opacity:1;" d="M 2.5 0 L 52.5 0 L 52.5 225 L 2.5 225 Z M 2.5 0 "/>
<path style=" stroke:none;fill-rule:nonzero;fill:rgb(80.784314%,9.019608%,12.54902%);fill-opacity:1;" d="M 28.601562 0 L 28.601562 8.148438 L 26.398438 8.148438 L 26.398438 0 Z M 0.5 14.25 L 4.449219 14.25 L 4.449219 11 L 6.449219 11 L 6.449219 7.050781 L 9.25 7.050781 L 9.25 3.601562 L 11.550781 3.601562 L 11.550781 0 L 18.5 0 L 18.5 3.601562 L 20.75 3.601562 L 20.75 7.050781 L 23.550781 7.050781 L 23.550781 11 L 25.550781 11 L 25.550781 14.25 L 28.601562 14.25 L 28.601562 19.300781 L 25.550781 19.300781 L 25.550781 22.550781 L 23.550781 22.550781 L 23.550781 26.5 L 20.75 26.5 L 20.75 29.949219 L 18.5 29.949219 L 18.5 33.648438 L 16.898438 33.648438 L 16.898438 36.75 L 13.148438 36.75 L 13.148438 33.648438 L 11.550781 33.648438 L 11.550781 29.949219 L 9.25 29.949219 L 9.25 26.5 L 6.449219 26.5 L 6.449219 22.550781 L 4.449219 22.550781 L 4.449219 19.300781 L 0.5 19.300781 M 0.5 1.699219 L 4.449219 1.699219 L 4.449219 6.199219 L 0.5 6.199219 M 16 7.550781 L 13.949219 7.550781 L 13.949219 10.601562 L 12 10.601562 L 12 14.449219 L 10.101562 14.449219 L 10.101562 19.199219 L 12 19.199219 L 12 23.050781 L 13.949219 23.050781 L 13.949219 26.050781 L 16 26.050781 L 16 23.050781 L 17.949219 23.050781 L 17.949219 19.199219 L 19.898438 19.199219 L 19.898438 14.449219 L 17.949219 14.449219 L 17.949219 10.601562 L 16 10.601562 Z M 16.199219 14.5 L 16.199219 19 L 13.75 19 L 13.75 14.5 Z M 0.5 26.300781 L 4.449219 26.300781 L 4.449219 31.148438 L 0.5 31.148438 M 28.601562 26.75 L 28.601562 33.601562 L 26.398438 33.601562 L 26.398438 26.75 Z M 23.199219 34.351562 L 23.199219 37.75 L 25.601562 37.75 L 25.601562 41.25 L 28.601562 41.25 L 28.601562 45.851562 L 25.601562 45.851562 L 25.601562 49.398438 L 23.199219 49.398438 L 23.199219 52.800781 L 20.398438 52.800781 L 20.398438 49.398438 L 18 49.398438 L 18 45.851562 L 16 45.851562 L 16 41.25 L 18 41.25 L 18 37.75 L 20.398438 37.75 L 20.398438 34.351562 Z M 0.5 41.25 L 4.449219 41.25 L 4.449219 37.75 L 6.851562 37.75 L 6.851562 34.351562 L 9.601562 34.351562 L 9.601562 37.75 L 12 37.75 L 12 41.25 L 14 41.25 L 14 45.851562 L 12 45.851562 L 12 49.398438 L 9.601562 49.398438 L 9.601562 52.800781 L 6.851562 52.800781 L 6.851562 49.398438 L 4.449219 49.398438 L 4.449219 45.851562 L 0.5 45.851562 M 22.851562 41.351562 L 20.800781 41.351562 L 20.800781 45.699219 L 22.851562 45.699219 Z M 9.300781 41.351562 L 7.25 41.351562 L 7.25 45.699219 L 9.300781 45.699219 Z M 10.101562 113.398438 L 10.101562 111.050781 L 8.398438 111.050781 L 8.398438 107.5 L 6.148438 107.5 L 6.148438 105.351562 L 4.449219 105.351562 L 4.449219 101.898438 L 0.5 101.898438 L 0.5 93.898438 L 4.449219 93.898438 L 4.449219 96.199219 L 6.148438 96.199219 L 6.148438 99.550781 L 8.398438 99.550781 L 8.398438 103.550781 L 11.601562 103.550781 L 11.601562 99.949219 L 13.949219 99.949219 L 13.949219 97.300781 L 15.648438 97.300781 L 15.648438 94.148438 L 17.898438 94.148438 L 17.898438 90.800781 L 19.550781 90.800781 L 19.550781 87.398438 L 21.148438 87.398438 L 21.148438 83.898438 L 23.300781 83.898438 L 23.300781 79.199219 L 20.449219 79.199219 L 20.449219 74.949219 L 17.351562 74.949219 L 17.351562 72.398438 L 12.148438 72.398438 L 12.148438 76.101562 L 15.148438 76.101562 L 15.148438 79.449219 L 13.148438 79.449219 L 13.148438 83.550781 L 10.800781 83.550781 L 10.800781 87.148438 L 7.851562 87.148438 L 7.851562 83.550781 L 5.398438 83.550781 L 5.398438 79.449219 L 3.898438 79.449219 L 3.898438 76.101562 L 0.5 76.101562 L 0.5 69.75 L 4.449219 69.75 L 4.449219 65.648438 L 5.949219 65.648438 L 5.949219 62.5 L 7.351562 62.5 L 7.351562 58.898438 L 9.351562 58.898438 L 9.351562 55.351562 L 11.300781 55.351562 L 11.300781 53 L 13.648438 53 L 13.648438 49.449219 L 16.5 49.449219 L 16.5 53 L 18.851562 53 L 18.851562 55.351562 L 20.851562 55.351562 L 20.851562 58.898438 L 22.800781 58.898438 L 22.800781 62.5 L 24.398438 62.5 L 24.398438 65.601562 L 26 65.601562 L 26 68.300781 L 28.601562 68.300781 L 28.601562 88.148438 L 25.648438 88.148438 L 25.648438 91.5 L 24.800781 91.5 L 24.800781 95 L 22.601562 95 L 22.601562 98.398438 L 21.25 98.398438 L 21.25 100.898438 L 19.851562 100.898438 L 19.851562 103.550781 L 17.449219 103.550781 L 17.449219 106.148438 L 14 106.148438 L 14 113.398438 M 28.601562 52.75 L 28.601562 59.601562 L 26.398438 59.601562 L 26.398438 52.75 Z M 0.5 54.050781 L 4.449219 54.050781 L 4.449219 58.898438 L 0.5 58.898438 M 0.5 83.199219 L 4.449219 83.199219 L 4.449219 88.050781 L 0.5 88.050781 Z M 28.5 95.5 L 28.5 99.898438 L 26.398438 99.898438 L 26.398438 95.5 Z M 25.601562 113.398438 L 25.601562 110.648438 L 24.300781 110.648438 L 24.300781 108.5 L 22.398438 108.5 L 22.398438 102.050781 L 24.300781 102.050781 L 24.300781 104.648438 L 26.300781 104.648438 L 26.300781 108.449219 L 28.5 108.449219 L 28.5 113.351562 M 17.800781 113.351562 L 17.800781 110.148438 L 19.898438 110.148438 L 19.898438 113.351562 "/>
<path style=" stroke:none;fill-rule:nonzero;fill:rgb(80.784314%,9.019608%,12.54902%);fill-opacity:1;" d="M 26.398438 0 L 26.398438 8.148438 L 28.601562 8.148438 L 28.601562 0 Z M 54.5 14.25 L 50.550781 14.25 L 50.550781 11 L 48.550781 11 L 48.550781 7.050781 L 45.75 7.050781 L 45.75 3.601562 L 43.449219 3.601562 L 43.449219 0 L 36.5 0 L 36.5 3.601562 L 34.25 3.601562 L 34.25 7.050781 L 31.449219 7.050781 L 31.449219 11 L 29.449219 11 L 29.449219 14.25 L 26.398438 14.25 L 26.398438 19.300781 L 29.449219 19.300781 L 29.449219 22.550781 L 31.449219 22.550781 L 31.449219 26.5 L 34.25 26.5 L 34.25 29.949219 L 36.5 29.949219 L 36.5 33.648438 L 38.101562 33.648438 L 38.101562 36.75 L 41.851562 36.75 L 41.851562 33.648438 L 43.449219 33.648438 L 43.449219 29.949219 L 45.75 29.949219 L 45.75 26.5 L 48.550781 26.5 L 48.550781 22.550781 L 50.550781 22.550781 L 50.550781 19.300781 L 54.5 19.300781 M 54.5 1.699219 L 50.550781 1.699219 L 50.550781 6.199219 L 54.5 6.199219 M 39 7.550781 L 41.050781 7.550781 L 41.050781 10.601562 L 43 10.601562 L 43 14.449219 L 44.898438 14.449219 L 44.898438 19.199219 L 43 19.199219 L 43 23.050781 L 41.050781 23.050781 L 41.050781 26.050781 L 39 26.050781 L 39 23.050781 L 37.050781 23.050781 L 37.050781 19.199219 L 35.101562 19.199219 L 35.101562 14.449219 L 37.050781 14.449219 L 37.050781 10.601562 L 39 10.601562 Z M 38.800781 14.5 L 38.800781 19 L 41.25 19 L 41.25 14.5 Z M 54.5 26.300781 L 50.550781 26.300781 L 50.550781 31.148438 L 54.5 31.148438 M 26.398438 26.75 L 26.398438 33.601562 L 28.601562 33.601562 L 28.601562 26.75 Z M 31.800781 34.351562 L 31.800781 37.75 L 29.398438 37.75 L 29.398438 41.25 L 26.398438 41.25 L 26.398438 45.851562 L 29.398438 45.851562 L 29.398438 49.398438 L 31.800781 49.398438 L 31.800781 52.800781 L 34.601562 52.800781 L 34.601562 49.398438 L 37 49.398438 L 37 45.851562 L 39 45.851562 L 39 41.25 L 37 41.25 L 37 37.75 L 34.601562 37.75 L 34.601562 34.351562 Z M 54.5 41.25 L 50.550781 41.25 L 50.550781 37.75 L 48.148438 37.75 L 48.148438 34.351562 L 45.398438 34.351562 L 45.398438 37.75 L 43 37.75 L 43 41.25 L 41 41.25 L 41 45.851562 L 43 45.851562 L 43 49.398438 L 45.398438 49.398438 L 45.398438 52.800781 L 48.148438 52.800781 L 48.148438 49.398438 L 50.550781 49.398438 L 50.550781 45.851562 L 54.5 45.851562 M 32.148438 41.351562 L 34.199219 41.351562 L 34.199219 45.699219 L 32.148438 45.699219 Z M 45.699219 41.351562 L 47.75 41.351562 L 47.75 45.699219 L 45.699219 45.699219 Z M 44.898438 113.398438 L 44.898438 111.050781 L 46.601562 111.050781 L 46.601562 107.5 L 48.851562 107.5 L 48.851562 105.351562 L 50.550781 105.351562 L 50.550781 101.898438 L 54.5 101.898438 L 54.5 93.898438 L 50.550781 93.898438 L 50.550781 96.199219 L 48.851562 96.199219 L 48.851562 99.550781 L 46.601562 99.550781 L 46.601562 103.550781 L 43.398438 103.550781 L 43.398438 99.949219 L 41.050781 99.949219 L 41.050781 97.300781 L 39.351562 97.300781 L 39.351562 94.148438 L 37.101562 94.148438 L 37.101562 90.800781 L 35.449219 90.800781 L 35.449219 87.398438 L 33.851562 87.398438 L 33.851562 83.898438 L 31.699219 83.898438 L 31.699219 79.199219 L 34.550781 79.199219 L 34.550781 74.949219 L 37.648438 74.949219 L 37.648438 72.398438 L 42.851562 72.398438 L 42.851562 76.101562 L 39.851562 76.101562 L 39.851562 79.449219 L 41.851562 79.449219 L 41.851562 83.550781 L 44.199219 83.550781 L 44.199219 87.148438 L 47.148438 87.148438 L 47.148438 83.550781 L 49.601562 83.550781 L 49.601562 79.449219 L 51.101562 79.449219 L 51.101562 76.101562 L 54.5 76.101562 L 54.5 69.75 L 50.550781 69.75 L 50.550781 65.648438 L 49.050781 65.648438 L 49.050781 62.5 L 47.648438 62.5 L 47.648438 58.898438 L 45.648438 58.898438 L 45.648438 55.351562 L 43.699219 55.351562 L 43.699219 53 L 41.351562 53 L 41.351562 49.449219 L 38.5 49.449219 L 38.5 53 L 36.148438 53 L 36.148438 55.351562 L 34.148438 55.351562 L 34.148438 58.898438 L 32.199219 58.898438 L 32.199219 62.5 L 30.601562 62.5 L 30.601562 65.601562 L 29 65.601562 L 29 68.300781 L 26.398438 68.300781 L 26.398438 88.148438 L 29.351562 88.148438 L 29.351562 91.5 L 30.199219 91.5 L 30.199219 95 L 32.398438 95 L 32.398438 98.398438 L 33.75 98.398438 L 33.75 100.898438 L 35.148438 100.898438 L 35.148438 103.550781 L 37.550781 103.550781 L 37.550781 106.148438 L 41 106.148438 L 41 113.398438 M 26.398438 52.75 L 26.398438 59.601562 L 28.601562 59.601562 L 28.601562 52.75 Z M 54.5 54.050781 L 50.550781 54.050781 L 50.550781 58.898438 L 54.5 58.898438 M 54.5 83.199219 L 50.550781 83.199219 L 50.550781 88.050781 L 54.5 88.050781 Z M 26.5 95.5 L 26.5 99.898438 L 28.601562 99.898438 L 28.601562 95.5 Z M 29.398438 113.398438 L 29.398438 110.648438 L 30.699219 110.648438 L 30.699219 108.5 L 32.601562 108.5 L 32.601562 102.050781 L 30.699219 102.050781 L 30.699219 104.648438 L 28.699219 104.648438 L 28.699219 108.449219 L 26.5 108.449219 L 26.5 113.351562 M 37.199219 113.351562 L 37.199219 110.148438 L 35.101562 110.148438 L 35.101562 113.351562 "/>
<path style=" stroke:none;fill-rule:nonzero;fill:rgb(80.784314%,9.019608%,12.54902%);fill-opacity:1;" d="M 28.601562 225 L 28.601562 216.851562 L 26.398438 216.851562 L 26.398438 225 Z M 0.5 210.75 L 4.449219 210.75 L 4.449219 214 L 6.449219 214 L 6.449219 217.949219 L 9.25 217.949219 L 9.25 221.398438 L 11.550781 221.398438 L 11.550781 225 L 18.5 225 L 18.5 221.398438 L 20.75 221.398438 L 20.75 217.949219 L 23.550781 217.949219 L 23.550781 214 L 25.550781 214 L 25.550781 210.75 L 28.601562 210.75 L 28.601562 205.699219 L 25.550781 205.699219 L 25.550781 202.449219 L 23.550781 202.449219 L 23.550781 198.5 L 20.75 198.5 L 20.75 195.050781 L 18.5 195.050781 L 18.5 191.351562 L 16.898438 191.351562 L 16.898438 188.25 L 13.148438 188.25 L 13.148438 191.351562 L 11.550781 191.351562 L 11.550781 195.050781 L 9.25 195.050781 L 9.25 198.5 L 6.449219 198.5 L 6.449219 202.449219 L 4.449219 202.449219 L 4.449219 205.699219 L 0.5 205.699219 M 0.5 223.300781 L 4.449219 223.300781 L 4.449219 218.800781 L 0.5 218.800781 M 16 217.449219 L 13.949219 217.449219 L 13.949219 214.398438 L 12 214.398438 L 12 210.550781 L 10.101562 210.550781 L 10.101562 205.800781 L 12 205.800781 L 12 201.949219 L 13.949219 201.949219 L 13.949219 198.949219 L 16 198.949219 L 16 201.949219 L 17.949219 201.949219 L 17.949219 205.800781 L 19.898438 205.800781 L 19.898438 210.550781 L 17.949219 210.550781 L 17.949219 214.398438 L 16 214.398438 Z M 16.199219 210.5 L 16.199219 206 L 13.75 206 L 13.75 210.5 Z M 0.5 198.699219 L 4.449219 198.699219 L 4.449219 193.851562 L 0.5 193.851562 M 28.601562 198.25 L 28.601562 191.398438 L 26.398438 191.398438 L 26.398438 198.25 Z M 23.199219 190.648438 L 23.199219 187.25 L 25.601562 187.25 L 25.601562 183.75 L 28.601562 183.75 L 28.601562 179.148438 L 25.601562 179.148438 L 25.601562 175.601562 L 23.199219 175.601562 L 23.199219 172.199219 L 20.398438 172.199219 L 20.398438 175.601562 L 18 175.601562 L 18 179.148438 L 16 179.148438 L 16 183.75 L 18 183.75 L 18 187.25 L 20.398438 187.25 L 20.398438 190.648438 Z M 0.5 183.75 L 4.449219 183.75 L 4.449219 187.25 L 6.851562 187.25 L 6.851562 190.648438 L 9.601562 190.648438 L 9.601562 187.25 L 12 187.25 L 12 183.75 L 14 183.75 L 14 179.148438 L 12 179.148438 L 12 175.601562 L 9.601562 175.601562 L 9.601562 172.199219 L 6.851562 172.199219 L 6.851562 175.601562 L 4.449219 175.601562 L 4.449219 179.148438 L 0.5 179.148438 M 22.851562 183.648438 L 20.800781 183.648438 L 20.800781 179.300781 L 22.851562 179.300781 Z M 9.300781 183.648438 L 7.25 183.648438 L 7.25 179.300781 L 9.300781 179.300781 Z M 10.101562 111.601562 L 10.101562 113.949219 L 8.398438 113.949219 L 8.398438 117.5 L 6.148438 117.5 L 6.148438 119.648438 L 4.449219 119.648438 L 4.449219 123.101562 L 0.5 123.101562 L 0.5 131.101562 L 4.449219 131.101562 L 4.449219 128.800781 L 6.148438 128.800781 L 6.148438 125.449219 L 8.398438 125.449219 L 8.398438 121.449219 L 11.601562 121.449219 L 11.601562 125.050781 L 13.949219 125.050781 L 13.949219 127.699219 L 15.648438 127.699219 L 15.648438 130.851562 L 17.898438 130.851562 L 17.898438 134.199219 L 19.550781 134.199219 L 19.550781 137.601562 L 21.148438 137.601562 L 21.148438 141.101562 L 23.300781 141.101562 L 23.300781 145.800781 L 20.449219 145.800781 L 20.449219 150.050781 L 17.351562 150.050781 L 17.351562 152.601562 L 12.148438 152.601562 L 12.148438 148.898438 L 15.148438 148.898438 L 15.148438 145.550781 L 13.148438 145.550781 L 13.148438 141.449219 L 10.800781 141.449219 L 10.800781 137.851562 L 7.851562 137.851562 L 7.851562 141.449219 L 5.398438 141.449219 L 5.398438 145.550781 L 3.898438 145.550781 L 3.898438 148.898438 L 0.5 148.898438 L 0.5 155.25 L 4.449219 155.25 L 4.449219 159.351562 L 5.949219 159.351562 L 5.949219 162.5 L 7.351562 162.5 L 7.351562 166.101562 L 9.351562 166.101562 L 9.351562 169.648438 L 11.300781 169.648438 L 11.300781 172 L 13.648438 172 L 13.648438 175.550781 L 16.5 175.550781 L 16.5 172 L 18.851562 172 L 18.851562 169.648438 L 20.851562 169.648438 L 20.851562 166.101562 L 22.800781 166.101562 L 22.800781 162.5 L 24.398438 162.5 L 24.398438 159.398438 L 26 159.398438 L 26 156.699219 L 28.601562 156.699219 L 28.601562 136.851562 L 25.648438 136.851562 L 25.648438 133.5 L 24.800781 133.5 L 24.800781 130 L 22.601562 130 L 22.601562 126.601562 L 21.25 126.601562 L 21.25 124.101562 L 19.851562 124.101562 L 19.851562 121.449219 L 17.449219 121.449219 L 17.449219 118.851562 L 14 118.851562 L 14 111.601562 M 28.601562 172.25 L 28.601562 165.398438 L 26.398438 165.398438 L 26.398438 172.25 Z M 0.5 170.949219 L 4.449219 170.949219 L 4.449219 166.101562 L 0.5 166.101562 M 0.5 141.800781 L 4.449219 141.800781 L 4.449219 136.949219 L 0.5 136.949219 Z M 28.5 129.5 L 28.5 125.101562 L 26.398438 125.101562 L 26.398438 129.5 Z M 25.601562 111.601562 L 25.601562 114.351562 L 24.300781 114.351562 L 24.300781 116.5 L 22.398438 116.5 L 22.398438 122.949219 L 24.300781 122.949219 L 24.300781 120.351562 L 26.300781 120.351562 L 26.300781 116.550781 L 28.5 116.550781 L 28.5 111.648438 M 17.800781 111.648438 L 17.800781 114.851562 L 19.898438 114.851562 L 19.898438 111.648438 "/>
<path style=" stroke:none;fill-rule:nonzero;fill:rgb(80.784314%,9.019608%,12.54902%);fill-opacity:1;" d="M 26.398438 225 L 26.398438 216.851562 L 28.601562 216.851562 L 28.601562 225 Z M 54.5 210.75 L 50.550781 210.75 L 50.550781 214 L 48.550781 214 L 48.550781 217.949219 L 45.75 217.949219 L 45.75 221.398438 L 43.449219 221.398438 L 43.449219 225 L 36.5 225 L 36.5 221.398438 L 34.25 221.398438 L 34.25 217.949219 L 31.449219 217.949219 L 31.449219 214 L 29.449219 214 L 29.449219 210.75 L 26.398438 210.75 L 26.398438 205.699219 L 29.449219 205.699219 L 29.449219 202.449219 L 31.449219 202.449219 L 31.449219 198.5 L 34.25 198.5 L 34.25 195.050781 L 36.5 195.050781 L 36.5 191.351562 L 38.101562 191.351562 L 38.101562 188.25 L 41.851562 188.25 L 41.851562 191.351562 L 43.449219 191.351562 L 43.449219 195.050781 L 45.75 195.050781 L 45.75 198.5 L 48.550781 198.5 L 48.550781 202.449219 L 50.550781 202.449219 L 50.550781 205.699219 L 54.5 205.699219 M 54.5 223.300781 L 50.550781 223.300781 L 50.550781 218.800781 L 54.5 218.800781 M 39 217.449219 L 41.050781 217.449219 L 41.050781 214.398438 L 43 214.398438 L 43 210.550781 L 44.898438 210.550781 L 44.898438 205.800781 L 43 205.800781 L 43 201.949219 L 41.050781 201.949219 L 41.050781 198.949219 L 39 198.949219 L 39 201.949219 L 37.050781 201.949219 L 37.050781 205.800781 L 35.101562 205.800781 L 35.101562 210.550781 L 37.050781 210.550781 L 37.050781 214.398438 L 39 214.398438 Z M 38.800781 210.5 L 38.800781 206 L 41.25 206 L 41.25 210.5 Z M 54.5 198.699219 L 50.550781 198.699219 L 50.550781 193.851562 L 54.5 193.851562 M 26.398438 198.25 L 26.398438 191.398438 L 28.601562 191.398438 L 28.601562 198.25 Z M 31.800781 190.648438 L 31.800781 187.25 L 29.398438 187.25 L 29.398438 183.75 L 26.398438 183.75 L 26.398438 179.148438 L 29.398438 179.148438 L 29.398438 175.601562 L 31.800781 175.601562 L 31.800781 172.199219 L 34.601562 172.199219 L 34.601562 175.601562 L 37 175.601562 L 37 179.148438 L 39 179.148438 L 39 183.75 L 37 183.75 L 37 187.25 L 34.601562 187.25 L 34.601562 190.648438 Z M 54.5 183.75 L 50.550781 183.75 L 50.550781 187.25 L 48.148438 187.25 L 48.148438 190.648438 L 45.398438 190.648438 L 45.398438 187.25 L 43 187.25 L 43 183.75 L 41 183.75 L 41 179.148438 L 43 179.148438 L 43 175.601562 L 45.398438 175.601562 L 45.398438 172.199219 L 48.148438 172.199219 L 48.148438 175.601562 L 50.550781 175.601562 L 50.550781 179.148438 L 54.5 179.148438 M 32.148438 183.648438 L 34.199219 183.648438 L 34.199219 179.300781 L 32.148438 179.300781 Z M 45.699219 183.648438 L 47.75 183.648438 L 47.75 179.300781 L 45.699219 179.300781 Z M 44.898438 111.601562 L 44.898438 113.949219 L 46.601562 113.949219 L 46.601562 117.5 L 48.851562 117.5 L 48.851562 119.648438 L 50.550781 119.648438 L 50.550781 123.101562 L 54.5 123.101562 L 54.5 131.101562 L 50.550781 131.101562 L 50.550781 128.800781 L 48.851562 128.800781 L 48.851562 125.449219 L 46.601562 125.449219 L 46.601562 121.449219 L 43.398438 121.449219 L 43.398438 125.050781 L 41.050781 125.050781 L 41.050781 127.699219 L 39.351562 127.699219 L 39.351562 130.851562 L 37.101562 130.851562 L 37.101562 134.199219 L 35.449219 134.199219 L 35.449219 137.601562 L 33.851562 137.601562 L 33.851562 141.101562 L 31.699219 141.101562 L 31.699219 145.800781 L 34.550781 145.800781 L 34.550781 150.050781 L 37.648438 150.050781 L 37.648438 152.601562 L 42.851562 152.601562 L 42.851562 148.898438 L 39.851562 148.898438 L 39.851562 145.550781 L 41.851562 145.550781 L 41.851562 141.449219 L 44.199219 141.449219 L 44.199219 137.851562 L 47.148438 137.851562 L 47.148438 141.449219 L 49.601562 141.449219 L 49.601562 145.550781 L 51.101562 145.550781 L 51.101562 148.898438 L 54.5 148.898438 L 54.5 155.25 L 50.550781 155.25 L 50.550781 159.351562 L 49.050781 159.351562 L 49.050781 162.5 L 47.648438 162.5 L 47.648438 166.101562 L 45.648438 166.101562 L 45.648438 169.648438 L 43.699219 169.648438 L 43.699219 172 L 41.351562 172 L 41.351562 175.550781 L 38.5 175.550781 L 38.5 172 L 36.148438 172 L 36.148438 169.648438 L 34.148438 169.648438 L 34.148438 166.101562 L 32.199219 166.101562 L 32.199219 162.5 L 30.601562 162.5 L 30.601562 159.398438 L 29 159.398438 L 29 156.699219 L 26.398438 156.699219 L 26.398438 136.851562 L 29.351562 136.851562 L 29.351562 133.5 L 30.199219 133.5 L 30.199219 130 L 32.398438 130 L 32.398438 126.601562 L 33.75 126.601562 L 33.75 124.101562 L 35.148438 124.101562 L 35.148438 121.449219 L 37.550781 121.449219 L 37.550781 118.851562 L 41 118.851562 L 41 111.601562 M 26.398438 172.25 L 26.398438 165.398438 L 28.601562 165.398438 L 28.601562 172.25 Z M 54.5 170.949219 L 50.550781 170.949219 L 50.550781 166.101562 L 54.5 166.101562 M 54.5 141.800781 L 50.550781 141.800781 L 50.550781 136.949219 L 54.5 136.949219 Z M 26.5 129.5 L 26.5 125.101562 L 28.601562 125.101562 L 28.601562 129.5 Z M 29.398438 111.601562 L 29.398438 114.351562 L 30.699219 114.351562 L 30.699219 116.5 L 32.601562 116.5 L 32.601562 122.949219 L 30.699219 122.949219 L 30.699219 120.351562 L 28.699219 120.351562 L 28.699219 116.550781 L 26.5 116.550781 L 26.5 111.648438 M 37.199219 111.648438 L 37.199219 114.851562 L 35.101562 114.851562 L 35.101562 111.648438 "/>
<path style=" stroke:none;fill-rule:nonzero;fill:rgb(0%,48.627451%,18.823529%);fill-opacity:1;" d="M 52.5 150 L 450 150 L 450 225 L 52.5 225 Z M 52.5 150 "/>
</g>
</svg>
