<?xml version="1.0" encoding="UTF-8"?>
<svg xmlns="http://www.w3.org/2000/svg" xmlns:xlink="http://www.w3.org/1999/xlink" width="px" height="px" viewBox="0 0 600 300" version="1.1">
<g id="surface1">
<path style=" stroke:none;fill-rule:nonzero;fill:rgb(100%,0%,0%);fill-opacity:1;" d="M 0 0 L 150 0 L 156.1875 6.1875 L 443.8125 6.1875 L 450 0 L 600 0 L 600 300 L 450 300 L 443.8125 293.8125 L 156.1875 293.8125 L 150 300 L 0 300 Z M 0 0 "/>
<path style=" stroke:none;fill-rule:nonzero;fill:rgb(100%,100%,100%);fill-opacity:1;" d="M 150 0 L 450 0 L 450 300 L 150 300 Z M 305.625 276.875 L 302.8125 222.9375 C 241.25 306.558594 123.558594 324.4375 39.9375 262.875 C -43.683594 201.3125 -61.5625 83.621094 0 0 L 53.6875 9.4375 L 46.4375 -10.5625 C 49.355469 2.261719 41.324219 15.019531 28.5 17.9375 C 15.675781 20.855469 2.917969 12.824219 0 0 L 58.8125 -47.625 L 45.5625 -53.8125 C 60.421875 -52.449219 71.363281 -39.296875 70 -24.4375 C 68.636719 -9.578125 55.484375 1.363281 40.625 0 L 52.25 -35.75 L 18.375 -28.5625 C 26.261719 -27.90625 32.125 -20.980469 31.46875 -13.09375 C 30.8125 -5.207031 23.886719 0.65625 16 0 L 9.4375 -15.4375 L -17 12.9375 C -20.574219 13.921875 -24.265625 11.824219 -25.25 8.25 C -26.234375 4.675781 -24.136719 0.984375 -20.5625 0 L -7.8125 -65.75 L -28.25 -53.9375 C -13.355469 -53.472656 -1.660156 -41.019531 -2.125 -26.125 C -2.589844 -11.230469 -15.042969 0.464844 -29.9375 0 L -50.6875 -40.75 L -71.4375 0 C -73.472656 -0.433594 -74.851562 -2.328125 -74.632812 -4.398438 C -74.417969 -6.464844 -72.671875 -8.035156 -70.59375 -8.035156 C -68.515625 -8.035156 -66.769531 -6.464844 -66.554688 -4.398438 C -66.335938 -2.328125 -67.714844 -0.433594 -69.75 0 L -90.1875 -11.8125 L -77.4375 53.9375 C -92.332031 52.953125 -103.609375 40.082031 -102.625 25.1875 C -101.640625 10.292969 -88.769531 -0.984375 -73.875 0 L -100.3125 -28.375 L -106.875 -12.9375 C -103.300781 -13.59375 -99.875 -11.230469 -99.21875 -7.65625 C -98.5625 -4.082031 -100.925781 -0.65625 -104.5 0 L -138.375 -7.1875 L -126.75 28.5625 C -134.636719 27.199219 -139.925781 19.699219 -138.5625 11.8125 C -137.199219 3.925781 -129.699219 -1.363281 -121.8125 0 L -135.0625 6.1875 L -76.25 53.8125 C -91.109375 66.394531 -113.355469 64.546875 -125.9375 49.6875 C -138.519531 34.828125 -136.671875 12.582031 -121.8125 0 L -129.0625 20 L -75.375 10.5625 C -78.292969 23.386719 -91.050781 31.417969 -103.875 28.5 C -116.699219 25.582031 -124.730469 12.824219 -121.8125 0 L -124.625 53.9375 Z M 305.625 276.875 "/>
</g>
</svg>
