<?xml version="1.0" encoding="UTF-8"?>
<svg xmlns="http://www.w3.org/2000/svg" xmlns:xlink="http://www.w3.org/1999/xlink" width="px" height="px" viewBox="0 0 300 150" version="1.1">
<g id="surface1">
<rect x="0" y="0" width="300" height="150" style="fill:rgb(0%,50.196078%,0%);fill-opacity:1;stroke:none;"/>
<path style=" stroke:none;fill-rule:nonzero;fill:rgb(100%,87.843137%,0%);fill-opacity:1;" d="M 181.25 75 C 181.25 92.257812 167.257812 106.25 150 106.25 C 132.742188 106.25 118.75 92.257812 118.75 75 C 118.75 57.742188 132.742188 43.75 150 43.75 C 167.257812 43.75 181.25 57.742188 181.25 75 Z M 181.25 75 "/>
<path style=" stroke:none;fill-rule:nonzero;fill:rgb(0%,50.196078%,0%);fill-opacity:1;" d="M 185.457031 75 C 185.457031 89.203125 173.945312 100.714844 159.742188 100.714844 C 145.542969 100.714844 134.03125 89.203125 134.03125 75 C 134.03125 60.796875 145.542969 49.285156 159.742188 49.285156 C 173.945312 49.285156 185.457031 60.796875 185.457031 75 Z M 185.457031 75 "/>
<path style=" stroke:none;fill-rule:nonzero;fill:rgb(100%,87.843137%,0%);fill-opacity:1;" d="M 84.226562 43.75 C 84.226562 61.832031 69.570312 76.488281 51.488281 76.488281 C 33.40625 76.488281 18.75 61.832031 18.75 43.75 C 18.75 25.667969 33.40625 11.011719 51.488281 11.011719 C 69.570312 11.011719 84.226562 25.667969 84.226562 43.75 Z M 84.226562 43.75 "/>
<path style="fill-rule:nonzero;fill:rgb(50.196078%,12.54902%,0%);fill-opacity:1;stroke-width:23.333;stroke-linecap:butt;stroke-linejoin:miter;stroke:rgb(48.235294%,19.215686%,0%);stroke-opacity:1;stroke-miterlimit:4;" d="M 1654.14375 2299.36875 L 1928.71875 2299.36875 C 1928.71875 2299.36875 1941.1875 2274.16875 1925.9625 2261.56875 C 1910.86875 2249.1 1851.80625 2246.2125 1867.6875 2201.71875 C 1900.5 2110.2375 1905.09375 2138.45625 1925.7 1920.975 C 1946.30625 1703.49375 1956.28125 1362.50625 1956.28125 1362.50625 L 1916.5125 1362.50625 C 1916.5125 1362.50625 1924.25625 1468.55625 1901.2875 1606.63125 C 1878.45 1744.70625 1871.49375 1756.9125 1846.425 1862.9625 C 1821.225 1969.0125 1817.41875 1978.2 1794.45 2040.01875 C 1771.6125 2101.8375 1769.25 2104.85625 1733.41875 2162.08125 C 1697.5875 2219.30625 1710.58125 2197.9125 1690.7625 2232.3 C 1680.7875 2249.3625 1668.58125 2244.9 1661.8875 2257.36875 C 1655.19375 2269.8375 1654.14375 2299.36875 1654.14375 2299.36875 Z M 1654.14375 2299.36875 " transform="matrix(0.0297619,0,0,0.0297619,0,0)"/>
<path style=" stroke:none;fill-rule:nonzero;fill:rgb(0%,50.196078%,0%);fill-opacity:1;" d="M 55.46875 19.898438 C 55.535156 21.167969 55.40625 22.847656 54.882812 24.21875 C 54.347656 25.742188 53.765625 27.261719 53.796875 28.839844 C 52.949219 29.128906 52.074219 27.003906 51.257812 28.253906 C 51.871094 29.980469 53.289062 31.347656 54.257812 32.902344 C 54.421875 33.386719 55.820312 34.644531 55.011719 34.9375 C 52.972656 34.238281 52.476562 31.65625 51.210938 30.085938 C 49.742188 27.441406 47 25.578125 43.949219 25.449219 C 42.804688 25.476562 39.074219 25.164062 40.046875 27.125 C 41.472656 28.097656 43.234375 28.730469 44.644531 29.820312 C 45.695312 29.917969 47.601562 31.671875 47.488281 32.335938 C 45.640625 31.585938 44.773438 30.691406 42.785156 29.902344 C 40.085938 28.859375 36.355469 29.488281 34.859375 32.164062 C 34.582031 32.863281 34.171875 34.894531 35.046875 35.089844 C 36.070312 33.492188 37.535156 31.707031 39.703125 32.183594 C 41.40625 32.316406 37.800781 35.359375 39.179688 34.746094 C 39.617188 34.554688 40.625 33.890625 41.324219 33.820312 C 42.027344 33.753906 42.417969 34.277344 42.949219 34.347656 C 44.011719 34.492188 44.300781 34.9375 44.203125 35.199219 C 44.089844 35.503906 43.75 35.242188 42.671875 35.585938 C 42.132812 35.757812 41.847656 36.230469 41.21875 36.449219 C 40.589844 36.664062 39.28125 36.679688 38.789062 36.488281 C 37.078125 35.742188 34.269531 35.875 33.734375 38.019531 C 33.734375 38.964844 32.894531 37.914062 32.507812 38.324219 C 32.214844 39.351562 32.140625 40.410156 30.613281 40.316406 C 29.6875 41.289062 28.738281 42.296875 27.558594 42.988281 C 28.25 44.574219 30.988281 41.394531 30.859375 42.738281 C 29.664062 44.367188 31.476562 44.710938 32.269531 43.457031 C 33.609375 42.039062 35.273438 40.3125 37.273438 41.742188 C 38.230469 42.636719 38.78125 41.265625 39.472656 41.339844 C 39.90625 42.453125 40.457031 41.394531 40.949219 41.078125 C 41.757812 40.976562 41.53125 42.089844 42.488281 41.40625 C 44.402344 40.136719 46.757812 41.203125 48.625 39.96875 C 50.617188 39.0625 48.90625 40.699219 48.355469 41.339844 C 47.484375 43.035156 48.242188 45.261719 46.34375 46.316406 C 45.582031 48.335938 47.246094 51 45.550781 52.492188 C 45.304688 53.429688 47.730469 53.324219 48.410156 53.710938 C 49.601562 53.757812 48.359375 50.976562 49.542969 50.605469 C 51.128906 51.589844 51.054688 48.847656 50.726562 48.003906 C 50.882812 46.082031 50.992188 43.980469 51.945312 42.242188 C 52.960938 40.109375 53.898438 43.109375 52.761719 43.953125 C 52.117188 45.914062 51.179688 48.371094 52.644531 50.195312 C 53.070312 50.289062 53.417969 51.3125 53.964844 51.628906 C 54.511719 51.945312 55.257812 51.546875 55.394531 50.617188 C 56.097656 47.808594 55.746094 44.789062 56.746094 42.054688 C 57.457031 41.210938 58.433594 41.917969 58.871094 42.699219 C 60.277344 44.328125 61.265625 46.371094 62.964844 47.714844 C 64.515625 48.4375 65.886719 49.535156 66.601562 51.132812 C 66.589844 52.363281 70.097656 52.550781 69.046875 51.183594 C 68.042969 49.851562 68.707031 48.519531 69.726562 47.632812 C 70.269531 47.765625 70.109375 46.789062 69.679688 47.175781 C 68.996094 47.015625 68.953125 45.761719 69.90625 46.359375 C 71.507812 46.875 69.78125 45.199219 69.199219 45.148438 C 67.847656 44.308594 66.289062 43.339844 65.625 41.882812 C 67.386719 41.898438 69.21875 42.851562 71.019531 42.261719 C 72.464844 41.519531 73.929688 42.324219 74.433594 43.597656 C 75.550781 43.417969 75.074219 42.296875 74.433594 41.925781 C 75.25 41.589844 75.816406 40.890625 74.824219 40.273438 C 74.300781 39.589844 75.527344 38.425781 74.023438 38.476562 C 74.070312 37.324219 73.617188 36.273438 72.363281 35.875 C 71.109375 34.8125 67.425781 37.441406 67.53125 35.046875 C 67.160156 33.742188 69.027344 34.871094 69.550781 34.222656 C 70.089844 32.847656 66.980469 32.980469 68.007812 31.914062 C 68.675781 31.484375 71.820312 30.863281 69.355469 30.402344 C 68.125 30.742188 67.070312 30.488281 66.101562 29.882812 C 65.21875 31.359375 62.699219 29.078125 63.148438 31.703125 C 62.800781 32.691406 60.550781 35.261719 59.941406 33.292969 C 60.457031 31.75 63.128906 31.246094 62.300781 29.167969 C 62.171875 27.867188 61.09375 29.390625 60.589844 29.296875 C 60.332031 28.488281 61.367188 27.535156 62.085938 27.34375 C 63.515625 28.441406 63.558594 25.953125 64.917969 26.15625 C 65.910156 25.9375 64.597656 25.511719 64.320312 25.324219 C 64.59375 24.597656 66.117188 24.226562 64.621094 23.59375 C 63.304688 22.617188 62.328125 24.570312 61.238281 24.671875 C 60.195312 23.496094 62.1875 22.929688 62.738281 22.308594 C 62.765625 21.84375 61.574219 22.167969 61.933594 21.765625 C 62.246094 21.207031 64.351562 21.167969 63.367188 20.332031 C 61.878906 19.820312 59.960938 19.949219 58.535156 20.609375 C 57.632812 20.902344 57.371094 22.933594 56.59375 22.851562 C 56.230469 21.945312 56.714844 20.160156 55.464844 19.898438 Z M 62.5 39.753906 C 63.632812 39.5625 62.523438 41.476562 61.976562 41.449219 C 62.027344 40.761719 60.339844 40.828125 61.386719 40.226562 C 61.726562 40.007812 62.101562 39.84375 62.5 39.753906 Z M 62.5 39.753906 "/>
<path style=" stroke:none;fill-rule:nonzero;fill:rgb(100%,87.843137%,0%);fill-opacity:1;" d="M 225 114.285156 L 227.066406 120.710938 L 233.375 118.320312 L 229.640625 123.941406 L 235.445312 127.382812 L 228.722656 127.96875 L 229.648438 134.652344 L 225 129.761719 L 220.351562 134.652344 L 221.277344 127.96875 L 214.554688 127.382812 L 220.359375 123.941406 L 216.625 118.320312 L 222.933594 120.710938 Z M 225 114.285156 "/>
<path style=" stroke:none;fill-rule:nonzero;fill:rgb(100%,87.843137%,0%);fill-opacity:1;" d="M 187.5 54.910156 L 189.566406 61.335938 L 195.875 58.945312 L 192.140625 64.566406 L 197.945312 68.007812 L 191.222656 68.59375 L 192.148438 75.277344 L 187.5 70.386719 L 182.851562 75.277344 L 183.777344 68.59375 L 177.054688 68.007812 L 182.859375 64.566406 L 179.125 58.945312 L 185.433594 61.335938 Z M 187.5 54.910156 "/>
<path style=" stroke:none;fill-rule:nonzero;fill:rgb(100%,87.843137%,0%);fill-opacity:1;" d="M 225 14.285156 L 227.066406 20.710938 L 233.375 18.320312 L 229.640625 23.941406 L 235.445312 27.382812 L 228.722656 27.96875 L 229.648438 34.652344 L 225 29.761719 L 220.351562 34.652344 L 221.277344 27.96875 L 214.554688 27.382812 L 220.359375 23.941406 L 216.625 18.320312 L 222.933594 20.710938 Z M 225 14.285156 "/>
<path style=" stroke:none;fill-rule:nonzero;fill:rgb(100%,87.843137%,0%);fill-opacity:1;" d="M 258.332031 44.910156 L 260.398438 51.335938 L 266.710938 48.945312 L 262.976562 54.566406 L 268.777344 58.007812 L 262.054688 58.59375 L 262.980469 65.277344 L 258.332031 60.386719 L 253.683594 65.277344 L 254.609375 58.59375 L 247.886719 58.007812 L 253.691406 54.566406 L 249.957031 48.945312 L 256.265625 51.335938 Z M 258.332031 44.910156 "/>
<path style=" stroke:none;fill-rule:nonzero;fill:rgb(100%,87.843137%,0%);fill-opacity:1;" d="M 240 75 L 241.632812 79.003906 L 245.945312 79.320312 L 242.640625 82.109375 L 243.671875 86.304688 L 240 84.027344 L 236.328125 86.304688 L 237.359375 82.109375 L 234.054688 79.320312 L 238.367188 79.003906 Z M 240 75 "/>
</g>
</svg>
