<?xml version="1.0" encoding="UTF-8"?>
<svg xmlns="http://www.w3.org/2000/svg" xmlns:xlink="http://www.w3.org/1999/xlink" width="px" height="px" viewBox="0 0 510 300" version="1.1">
<g id="surface1">
<rect x="0" y="0" width="510" height="300" style="fill:rgb(0%,21.960784%,57.647059%);fill-opacity:1;stroke:none;"/>
<path style=" stroke:none;fill-rule:nonzero;fill:rgb(100%,100%,100%);fill-opacity:1;" d="M 0 150 L 510 150 L 510 225 L 0 225 Z M 0 150 "/>
<path style=" stroke:none;fill-rule:nonzero;fill:rgb(81.176471%,12.54902%,15.294118%);fill-opacity:1;" d="M 0 175 L 510 175 L 510 200 L 0 200 Z M 0 175 "/>
<path style=" stroke:none;fill-rule:nonzero;fill:rgb(96.862745%,81.960784%,8.627451%);fill-opacity:1;" d="M 191.25 97.5 L 186.613281 111.765625 L 193.746094 114.082031 "/>
<path style=" stroke:none;fill-rule:nonzero;fill:rgb(96.862745%,81.960784%,8.627451%);fill-opacity:1;" d="M 191.25 97.5 L 195.886719 111.765625 L 188.753906 114.082031 "/>
<path style=" stroke:none;fill-rule:nonzero;fill:rgb(96.862745%,81.960784%,8.627451%);fill-opacity:1;" d="M 205.515625 107.863281 L 190.515625 107.863281 L 190.515625 115.363281 "/>
<path style=" stroke:none;fill-rule:nonzero;fill:rgb(96.862745%,81.960784%,8.627451%);fill-opacity:1;" d="M 205.515625 107.863281 L 193.378906 116.679688 L 188.972656 110.613281 "/>
<path style=" stroke:none;fill-rule:nonzero;fill:rgb(96.862745%,81.960784%,8.627451%);fill-opacity:1;" d="M 200.066406 124.636719 L 195.429688 110.371094 L 188.296875 112.6875 "/>
<path style=" stroke:none;fill-rule:nonzero;fill:rgb(96.862745%,81.960784%,8.627451%);fill-opacity:1;" d="M 200.066406 124.636719 L 187.929688 115.820312 L 192.339844 109.75 "/>
<path style=" stroke:none;fill-rule:nonzero;fill:rgb(96.862745%,81.960784%,8.627451%);fill-opacity:1;" d="M 182.433594 124.636719 L 194.570312 115.820312 L 190.160156 109.75 "/>
<path style=" stroke:none;fill-rule:nonzero;fill:rgb(96.862745%,81.960784%,8.627451%);fill-opacity:1;" d="M 182.433594 124.636719 L 187.070312 110.371094 L 194.203125 112.6875 "/>
<path style=" stroke:none;fill-rule:nonzero;fill:rgb(96.862745%,81.960784%,8.627451%);fill-opacity:1;" d="M 176.984375 107.863281 L 189.121094 116.679688 L 193.527344 110.613281 "/>
<path style=" stroke:none;fill-rule:nonzero;fill:rgb(96.862745%,81.960784%,8.627451%);fill-opacity:1;" d="M 176.984375 107.863281 L 191.984375 107.863281 L 191.984375 115.363281 "/>
<path style=" stroke:none;fill-rule:nonzero;fill:rgb(96.862745%,81.960784%,8.627451%);fill-opacity:1;" d="M 191.25 247.5 L 186.613281 261.765625 L 193.746094 264.082031 "/>
<path style=" stroke:none;fill-rule:nonzero;fill:rgb(96.862745%,81.960784%,8.627451%);fill-opacity:1;" d="M 191.25 247.5 L 195.886719 261.765625 L 188.753906 264.082031 "/>
<path style=" stroke:none;fill-rule:nonzero;fill:rgb(96.862745%,81.960784%,8.627451%);fill-opacity:1;" d="M 205.515625 257.863281 L 190.515625 257.863281 L 190.515625 265.363281 "/>
<path style=" stroke:none;fill-rule:nonzero;fill:rgb(96.862745%,81.960784%,8.627451%);fill-opacity:1;" d="M 205.515625 257.863281 L 193.378906 266.679688 L 188.972656 260.613281 "/>
<path style=" stroke:none;fill-rule:nonzero;fill:rgb(96.862745%,81.960784%,8.627451%);fill-opacity:1;" d="M 200.066406 274.636719 L 195.429688 260.371094 L 188.296875 262.6875 "/>
<path style=" stroke:none;fill-rule:nonzero;fill:rgb(96.862745%,81.960784%,8.627451%);fill-opacity:1;" d="M 200.066406 274.636719 L 187.929688 265.820312 L 192.339844 259.75 "/>
<path style=" stroke:none;fill-rule:nonzero;fill:rgb(96.862745%,81.960784%,8.627451%);fill-opacity:1;" d="M 182.433594 274.636719 L 194.570312 265.820312 L 190.160156 259.75 "/>
<path style=" stroke:none;fill-rule:nonzero;fill:rgb(96.862745%,81.960784%,8.627451%);fill-opacity:1;" d="M 182.433594 274.636719 L 187.070312 260.371094 L 194.203125 262.6875 "/>
<path style=" stroke:none;fill-rule:nonzero;fill:rgb(96.862745%,81.960784%,8.627451%);fill-opacity:1;" d="M 176.984375 257.863281 L 189.121094 266.679688 L 193.527344 260.613281 "/>
<path style=" stroke:none;fill-rule:nonzero;fill:rgb(96.862745%,81.960784%,8.627451%);fill-opacity:1;" d="M 176.984375 257.863281 L 191.984375 257.863281 L 191.984375 265.363281 "/>
<path style=" stroke:none;fill-rule:nonzero;fill:rgb(96.862745%,81.960784%,8.627451%);fill-opacity:1;" d="M 276.84375 159.6875 L 261.84375 159.6875 L 261.84375 167.1875 "/>
<path style=" stroke:none;fill-rule:nonzero;fill:rgb(96.862745%,81.960784%,8.627451%);fill-opacity:1;" d="M 276.84375 159.6875 L 264.710938 168.503906 L 260.300781 162.4375 "/>
<path style=" stroke:none;fill-rule:nonzero;fill:rgb(96.862745%,81.960784%,8.627451%);fill-opacity:1;" d="M 271.394531 176.457031 L 266.761719 162.191406 L 259.628906 164.511719 "/>
<path style=" stroke:none;fill-rule:nonzero;fill:rgb(96.862745%,81.960784%,8.627451%);fill-opacity:1;" d="M 271.394531 176.457031 L 259.261719 167.640625 L 263.667969 161.574219 "/>
<path style=" stroke:none;fill-rule:nonzero;fill:rgb(96.862745%,81.960784%,8.627451%);fill-opacity:1;" d="M 253.761719 176.457031 L 265.898438 167.640625 L 261.488281 161.574219 "/>
<path style=" stroke:none;fill-rule:nonzero;fill:rgb(96.862745%,81.960784%,8.627451%);fill-opacity:1;" d="M 253.761719 176.457031 L 258.398438 162.191406 L 265.53125 164.511719 "/>
<path style=" stroke:none;fill-rule:nonzero;fill:rgb(96.862745%,81.960784%,8.627451%);fill-opacity:1;" d="M 248.3125 159.6875 L 260.449219 168.503906 L 264.855469 162.4375 "/>
<path style=" stroke:none;fill-rule:nonzero;fill:rgb(96.862745%,81.960784%,8.627451%);fill-opacity:1;" d="M 248.3125 159.6875 L 263.3125 159.6875 L 263.3125 167.1875 "/>
<path style=" stroke:none;fill-rule:nonzero;fill:rgb(96.862745%,81.960784%,8.627451%);fill-opacity:1;" d="M 262.578125 149.324219 L 257.945312 163.589844 L 265.078125 165.90625 "/>
<path style=" stroke:none;fill-rule:nonzero;fill:rgb(96.862745%,81.960784%,8.627451%);fill-opacity:1;" d="M 262.578125 149.324219 L 267.214844 163.589844 L 260.082031 165.90625 "/>
<path style=" stroke:none;fill-rule:nonzero;fill:rgb(96.862745%,81.960784%,8.627451%);fill-opacity:1;" d="M 134.1875 206.042969 L 119.1875 206.042969 L 119.1875 213.542969 "/>
<path style=" stroke:none;fill-rule:nonzero;fill:rgb(96.862745%,81.960784%,8.627451%);fill-opacity:1;" d="M 134.1875 206.042969 L 122.050781 214.859375 L 117.644531 208.789062 "/>
<path style=" stroke:none;fill-rule:nonzero;fill:rgb(96.862745%,81.960784%,8.627451%);fill-opacity:1;" d="M 128.738281 222.8125 L 124.101562 208.546875 L 116.96875 210.863281 "/>
<path style=" stroke:none;fill-rule:nonzero;fill:rgb(96.862745%,81.960784%,8.627451%);fill-opacity:1;" d="M 128.738281 222.8125 L 116.601562 213.996094 L 121.011719 207.925781 "/>
<path style=" stroke:none;fill-rule:nonzero;fill:rgb(96.862745%,81.960784%,8.627451%);fill-opacity:1;" d="M 111.105469 222.8125 L 123.238281 213.996094 L 118.832031 207.925781 "/>
<path style=" stroke:none;fill-rule:nonzero;fill:rgb(96.862745%,81.960784%,8.627451%);fill-opacity:1;" d="M 111.105469 222.8125 L 115.738281 208.546875 L 122.871094 210.863281 "/>
<path style=" stroke:none;fill-rule:nonzero;fill:rgb(96.862745%,81.960784%,8.627451%);fill-opacity:1;" d="M 105.65625 206.042969 L 117.789062 214.859375 L 122.199219 208.789062 "/>
<path style=" stroke:none;fill-rule:nonzero;fill:rgb(96.862745%,81.960784%,8.627451%);fill-opacity:1;" d="M 105.65625 206.042969 L 120.65625 206.042969 L 120.65625 213.542969 "/>
<path style=" stroke:none;fill-rule:nonzero;fill:rgb(96.862745%,81.960784%,8.627451%);fill-opacity:1;" d="M 119.921875 195.675781 L 115.285156 209.941406 L 122.417969 212.257812 "/>
<path style=" stroke:none;fill-rule:nonzero;fill:rgb(96.862745%,81.960784%,8.627451%);fill-opacity:1;" d="M 119.921875 195.675781 L 124.554688 209.941406 L 117.421875 212.257812 "/>
<path style=" stroke:none;fill-rule:nonzero;fill:rgb(96.862745%,81.960784%,8.627451%);fill-opacity:1;" d="M 244.152344 260.3125 L 239.515625 246.046875 L 232.382812 248.363281 "/>
<path style=" stroke:none;fill-rule:nonzero;fill:rgb(96.862745%,81.960784%,8.627451%);fill-opacity:1;" d="M 244.152344 260.3125 L 232.015625 251.496094 L 236.421875 245.425781 "/>
<path style=" stroke:none;fill-rule:nonzero;fill:rgb(96.862745%,81.960784%,8.627451%);fill-opacity:1;" d="M 226.515625 260.3125 L 238.652344 251.496094 L 234.242188 245.425781 "/>
<path style=" stroke:none;fill-rule:nonzero;fill:rgb(96.862745%,81.960784%,8.627451%);fill-opacity:1;" d="M 226.515625 260.3125 L 231.152344 246.046875 L 238.285156 248.363281 "/>
<path style=" stroke:none;fill-rule:nonzero;fill:rgb(96.862745%,81.960784%,8.627451%);fill-opacity:1;" d="M 221.066406 243.542969 L 233.203125 252.359375 L 237.613281 246.289062 "/>
<path style=" stroke:none;fill-rule:nonzero;fill:rgb(96.862745%,81.960784%,8.627451%);fill-opacity:1;" d="M 221.066406 243.542969 L 236.066406 243.542969 L 236.066406 251.042969 "/>
<path style=" stroke:none;fill-rule:nonzero;fill:rgb(96.862745%,81.960784%,8.627451%);fill-opacity:1;" d="M 235.332031 233.175781 L 230.699219 247.441406 L 237.832031 249.757812 "/>
<path style=" stroke:none;fill-rule:nonzero;fill:rgb(96.862745%,81.960784%,8.627451%);fill-opacity:1;" d="M 235.332031 233.175781 L 239.96875 247.441406 L 232.835938 249.757812 "/>
<path style=" stroke:none;fill-rule:nonzero;fill:rgb(96.862745%,81.960784%,8.627451%);fill-opacity:1;" d="M 249.601562 243.542969 L 234.601562 243.542969 L 234.601562 251.042969 "/>
<path style=" stroke:none;fill-rule:nonzero;fill:rgb(96.862745%,81.960784%,8.627451%);fill-opacity:1;" d="M 249.601562 243.542969 L 237.464844 252.359375 L 233.054688 246.289062 "/>
<path style=" stroke:none;fill-rule:nonzero;fill:rgb(96.862745%,81.960784%,8.627451%);fill-opacity:1;" d="M 155.984375 138.957031 L 151.347656 124.691406 L 144.214844 127.011719 "/>
<path style=" stroke:none;fill-rule:nonzero;fill:rgb(96.862745%,81.960784%,8.627451%);fill-opacity:1;" d="M 155.984375 138.957031 L 143.847656 130.140625 L 148.257812 124.074219 "/>
<path style=" stroke:none;fill-rule:nonzero;fill:rgb(96.862745%,81.960784%,8.627451%);fill-opacity:1;" d="M 138.347656 138.957031 L 150.484375 130.140625 L 146.078125 124.074219 "/>
<path style=" stroke:none;fill-rule:nonzero;fill:rgb(96.862745%,81.960784%,8.627451%);fill-opacity:1;" d="M 138.347656 138.957031 L 142.984375 124.691406 L 150.117188 127.011719 "/>
<path style=" stroke:none;fill-rule:nonzero;fill:rgb(96.862745%,81.960784%,8.627451%);fill-opacity:1;" d="M 132.898438 122.1875 L 145.035156 131.003906 L 149.445312 124.9375 "/>
<path style=" stroke:none;fill-rule:nonzero;fill:rgb(96.862745%,81.960784%,8.627451%);fill-opacity:1;" d="M 132.898438 122.1875 L 147.898438 122.1875 L 147.898438 129.6875 "/>
<path style=" stroke:none;fill-rule:nonzero;fill:rgb(96.862745%,81.960784%,8.627451%);fill-opacity:1;" d="M 147.167969 111.824219 L 142.53125 126.089844 L 149.664062 128.40625 "/>
<path style=" stroke:none;fill-rule:nonzero;fill:rgb(96.862745%,81.960784%,8.627451%);fill-opacity:1;" d="M 147.167969 111.824219 L 151.800781 126.089844 L 144.667969 128.40625 "/>
<path style=" stroke:none;fill-rule:nonzero;fill:rgb(96.862745%,81.960784%,8.627451%);fill-opacity:1;" d="M 161.433594 122.1875 L 146.433594 122.1875 L 146.433594 129.6875 "/>
<path style=" stroke:none;fill-rule:nonzero;fill:rgb(96.862745%,81.960784%,8.627451%);fill-opacity:1;" d="M 161.433594 122.1875 L 149.296875 131.003906 L 144.886719 124.9375 "/>
<path style=" stroke:none;fill-rule:nonzero;fill:rgb(96.862745%,81.960784%,8.627451%);fill-opacity:1;" d="M 138.347656 260.3125 L 150.484375 251.496094 L 146.078125 245.425781 "/>
<path style=" stroke:none;fill-rule:nonzero;fill:rgb(96.862745%,81.960784%,8.627451%);fill-opacity:1;" d="M 138.347656 260.3125 L 142.984375 246.046875 L 150.117188 248.363281 "/>
<path style=" stroke:none;fill-rule:nonzero;fill:rgb(96.862745%,81.960784%,8.627451%);fill-opacity:1;" d="M 132.898438 243.542969 L 145.035156 252.359375 L 149.445312 246.289062 "/>
<path style=" stroke:none;fill-rule:nonzero;fill:rgb(96.862745%,81.960784%,8.627451%);fill-opacity:1;" d="M 132.898438 243.542969 L 147.898438 243.542969 L 147.898438 251.042969 "/>
<path style=" stroke:none;fill-rule:nonzero;fill:rgb(96.862745%,81.960784%,8.627451%);fill-opacity:1;" d="M 147.167969 233.175781 L 142.53125 247.441406 L 149.664062 249.757812 "/>
<path style=" stroke:none;fill-rule:nonzero;fill:rgb(96.862745%,81.960784%,8.627451%);fill-opacity:1;" d="M 147.167969 233.175781 L 151.800781 247.441406 L 144.667969 249.757812 "/>
<path style=" stroke:none;fill-rule:nonzero;fill:rgb(96.862745%,81.960784%,8.627451%);fill-opacity:1;" d="M 161.433594 243.542969 L 146.433594 243.542969 L 146.433594 251.042969 "/>
<path style=" stroke:none;fill-rule:nonzero;fill:rgb(96.862745%,81.960784%,8.627451%);fill-opacity:1;" d="M 161.433594 243.542969 L 149.296875 252.359375 L 144.886719 246.289062 "/>
<path style=" stroke:none;fill-rule:nonzero;fill:rgb(96.862745%,81.960784%,8.627451%);fill-opacity:1;" d="M 155.984375 260.3125 L 151.347656 246.046875 L 144.214844 248.363281 "/>
<path style=" stroke:none;fill-rule:nonzero;fill:rgb(96.862745%,81.960784%,8.627451%);fill-opacity:1;" d="M 155.984375 260.3125 L 143.847656 251.496094 L 148.257812 245.425781 "/>
<path style=" stroke:none;fill-rule:nonzero;fill:rgb(96.862745%,81.960784%,8.627451%);fill-opacity:1;" d="M 226.515625 138.957031 L 238.652344 130.140625 L 234.242188 124.074219 "/>
<path style=" stroke:none;fill-rule:nonzero;fill:rgb(96.862745%,81.960784%,8.627451%);fill-opacity:1;" d="M 226.515625 138.957031 L 231.152344 124.691406 L 238.285156 127.011719 "/>
<path style=" stroke:none;fill-rule:nonzero;fill:rgb(96.862745%,81.960784%,8.627451%);fill-opacity:1;" d="M 221.066406 122.1875 L 233.203125 131.003906 L 237.613281 124.9375 "/>
<path style=" stroke:none;fill-rule:nonzero;fill:rgb(96.862745%,81.960784%,8.627451%);fill-opacity:1;" d="M 221.066406 122.1875 L 236.066406 122.1875 L 236.066406 129.6875 "/>
<path style=" stroke:none;fill-rule:nonzero;fill:rgb(96.862745%,81.960784%,8.627451%);fill-opacity:1;" d="M 235.332031 111.824219 L 230.699219 126.089844 L 237.832031 128.40625 "/>
<path style=" stroke:none;fill-rule:nonzero;fill:rgb(96.862745%,81.960784%,8.627451%);fill-opacity:1;" d="M 235.332031 111.824219 L 239.96875 126.089844 L 232.835938 128.40625 "/>
<path style=" stroke:none;fill-rule:nonzero;fill:rgb(96.862745%,81.960784%,8.627451%);fill-opacity:1;" d="M 249.601562 122.1875 L 234.601562 122.1875 L 234.601562 129.6875 "/>
<path style=" stroke:none;fill-rule:nonzero;fill:rgb(96.862745%,81.960784%,8.627451%);fill-opacity:1;" d="M 249.601562 122.1875 L 237.464844 131.003906 L 233.054688 124.9375 "/>
<path style=" stroke:none;fill-rule:nonzero;fill:rgb(96.862745%,81.960784%,8.627451%);fill-opacity:1;" d="M 244.152344 138.957031 L 239.515625 124.691406 L 232.382812 127.011719 "/>
<path style=" stroke:none;fill-rule:nonzero;fill:rgb(96.862745%,81.960784%,8.627451%);fill-opacity:1;" d="M 244.152344 138.957031 L 232.015625 130.140625 L 236.421875 124.074219 "/>
<path style=" stroke:none;fill-rule:nonzero;fill:rgb(96.862745%,81.960784%,8.627451%);fill-opacity:1;" d="M 105.65625 159.6875 L 117.789062 168.503906 L 122.199219 162.4375 "/>
<path style=" stroke:none;fill-rule:nonzero;fill:rgb(96.862745%,81.960784%,8.627451%);fill-opacity:1;" d="M 105.65625 159.6875 L 120.65625 159.6875 L 120.65625 167.1875 "/>
<path style=" stroke:none;fill-rule:nonzero;fill:rgb(96.862745%,81.960784%,8.627451%);fill-opacity:1;" d="M 119.921875 149.324219 L 115.285156 163.589844 L 122.417969 165.90625 "/>
<path style=" stroke:none;fill-rule:nonzero;fill:rgb(96.862745%,81.960784%,8.627451%);fill-opacity:1;" d="M 119.921875 149.324219 L 124.554688 163.589844 L 117.421875 165.90625 "/>
<path style=" stroke:none;fill-rule:nonzero;fill:rgb(96.862745%,81.960784%,8.627451%);fill-opacity:1;" d="M 134.1875 159.6875 L 119.1875 159.6875 L 119.1875 167.1875 "/>
<path style=" stroke:none;fill-rule:nonzero;fill:rgb(96.862745%,81.960784%,8.627451%);fill-opacity:1;" d="M 134.1875 159.6875 L 122.050781 168.503906 L 117.644531 162.4375 "/>
<path style=" stroke:none;fill-rule:nonzero;fill:rgb(96.862745%,81.960784%,8.627451%);fill-opacity:1;" d="M 128.738281 176.457031 L 124.101562 162.191406 L 116.96875 164.511719 "/>
<path style=" stroke:none;fill-rule:nonzero;fill:rgb(96.862745%,81.960784%,8.627451%);fill-opacity:1;" d="M 128.738281 176.457031 L 116.601562 167.640625 L 121.011719 161.574219 "/>
<path style=" stroke:none;fill-rule:nonzero;fill:rgb(96.862745%,81.960784%,8.627451%);fill-opacity:1;" d="M 111.105469 176.457031 L 123.238281 167.640625 L 118.832031 161.574219 "/>
<path style=" stroke:none;fill-rule:nonzero;fill:rgb(96.862745%,81.960784%,8.627451%);fill-opacity:1;" d="M 111.105469 176.457031 L 115.738281 162.191406 L 122.871094 164.511719 "/>
<path style=" stroke:none;fill-rule:nonzero;fill:rgb(96.862745%,81.960784%,8.627451%);fill-opacity:1;" d="M 248.3125 206.042969 L 260.449219 214.859375 L 264.855469 208.789062 "/>
<path style=" stroke:none;fill-rule:nonzero;fill:rgb(96.862745%,81.960784%,8.627451%);fill-opacity:1;" d="M 248.3125 206.042969 L 263.3125 206.042969 L 263.3125 213.542969 "/>
<path style=" stroke:none;fill-rule:nonzero;fill:rgb(96.862745%,81.960784%,8.627451%);fill-opacity:1;" d="M 262.578125 195.675781 L 257.945312 209.941406 L 265.078125 212.257812 "/>
<path style=" stroke:none;fill-rule:nonzero;fill:rgb(96.862745%,81.960784%,8.627451%);fill-opacity:1;" d="M 262.578125 195.675781 L 267.214844 209.941406 L 260.082031 212.257812 "/>
<path style=" stroke:none;fill-rule:nonzero;fill:rgb(96.862745%,81.960784%,8.627451%);fill-opacity:1;" d="M 276.84375 206.042969 L 261.84375 206.042969 L 261.84375 213.542969 "/>
<path style=" stroke:none;fill-rule:nonzero;fill:rgb(96.862745%,81.960784%,8.627451%);fill-opacity:1;" d="M 276.84375 206.042969 L 264.710938 214.859375 L 260.300781 208.789062 "/>
<path style=" stroke:none;fill-rule:nonzero;fill:rgb(96.862745%,81.960784%,8.627451%);fill-opacity:1;" d="M 271.394531 222.8125 L 266.761719 208.546875 L 259.628906 210.863281 "/>
<path style=" stroke:none;fill-rule:nonzero;fill:rgb(96.862745%,81.960784%,8.627451%);fill-opacity:1;" d="M 271.394531 222.8125 L 259.261719 213.996094 L 263.667969 207.925781 "/>
<path style=" stroke:none;fill-rule:nonzero;fill:rgb(96.862745%,81.960784%,8.627451%);fill-opacity:1;" d="M 253.761719 222.8125 L 265.898438 213.996094 L 261.488281 207.925781 "/>
<path style=" stroke:none;fill-rule:nonzero;fill:rgb(96.862745%,81.960784%,8.627451%);fill-opacity:1;" d="M 253.761719 222.8125 L 258.398438 208.546875 L 265.53125 210.863281 "/>
</g>
</svg>
