<?xml version="1.0" encoding="UTF-8"?>
<svg xmlns="http://www.w3.org/2000/svg" xmlns:xlink="http://www.w3.org/1999/xlink" width="px" height="px" viewBox="0 0 450 300" version="1.1">
<g id="surface1">
<rect x="0" y="0" width="450" height="300" style="fill:rgb(0%,16.862745%,49.803922%);fill-opacity:1;stroke:none;"/>
<path style=" stroke:none;fill-rule:nonzero;fill:rgb(97.647059%,90.980392%,7.843137%);fill-opacity:1;" d="M 0 187.5 L 450 187.5 L 450 225 L 0 225 Z M 0 187.5 "/>
<path style=" stroke:none;fill-rule:nonzero;fill:rgb(100%,100%,100%);fill-opacity:1;" d="M 100 66.667969 L 89.699219 98.367188 L 105.550781 103.519531 Z M 100 66.667969 "/>
<path style=" stroke:none;fill-rule:nonzero;fill:rgb(100%,100%,100%);fill-opacity:1;" d="M 100 66.667969 L 110.300781 98.367188 L 94.449219 103.519531 Z M 100 66.667969 "/>
<path style=" stroke:none;fill-rule:nonzero;fill:rgb(100%,100%,100%);fill-opacity:1;" d="M 131.703125 89.699219 L 98.367188 89.699219 L 98.367188 106.367188 Z M 131.703125 89.699219 "/>
<path style=" stroke:none;fill-rule:nonzero;fill:rgb(100%,100%,100%);fill-opacity:1;" d="M 131.703125 89.699219 L 104.734375 109.292969 L 94.9375 95.808594 Z M 131.703125 89.699219 "/>
<path style=" stroke:none;fill-rule:nonzero;fill:rgb(100%,100%,100%);fill-opacity:1;" d="M 68.296875 89.699219 L 95.265625 109.292969 L 105.0625 95.808594 Z M 68.296875 89.699219 "/>
<path style=" stroke:none;fill-rule:nonzero;fill:rgb(100%,100%,100%);fill-opacity:1;" d="M 68.296875 89.699219 L 101.632812 89.699219 L 101.632812 106.367188 Z M 68.296875 89.699219 "/>
<path style=" stroke:none;fill-rule:nonzero;fill:rgb(100%,100%,100%);fill-opacity:1;" d="M 119.59375 126.96875 L 109.292969 95.265625 L 93.441406 100.414062 Z M 119.59375 126.96875 "/>
<path style=" stroke:none;fill-rule:nonzero;fill:rgb(100%,100%,100%);fill-opacity:1;" d="M 119.59375 126.96875 L 92.625 107.375 L 102.421875 93.890625 Z M 119.59375 126.96875 "/>
<path style=" stroke:none;fill-rule:nonzero;fill:rgb(100%,100%,100%);fill-opacity:1;" d="M 80.40625 126.96875 L 107.375 107.375 L 97.578125 93.890625 Z M 80.40625 126.96875 "/>
<path style=" stroke:none;fill-rule:nonzero;fill:rgb(100%,100%,100%);fill-opacity:1;" d="M 80.40625 126.96875 L 90.707031 95.265625 L 106.558594 100.414062 Z M 80.40625 126.96875 "/>
<path style=" stroke:none;fill-rule:nonzero;fill:rgb(100%,100%,100%);fill-opacity:1;" d="M 50 25 L 42.273438 48.777344 L 54.164062 52.640625 Z M 50 25 "/>
<path style=" stroke:none;fill-rule:nonzero;fill:rgb(100%,100%,100%);fill-opacity:1;" d="M 50 25 L 57.726562 48.777344 L 45.835938 52.640625 Z M 50 25 "/>
<path style=" stroke:none;fill-rule:nonzero;fill:rgb(100%,100%,100%);fill-opacity:1;" d="M 73.777344 42.273438 L 48.777344 42.273438 L 48.777344 54.773438 Z M 73.777344 42.273438 "/>
<path style=" stroke:none;fill-rule:nonzero;fill:rgb(100%,100%,100%);fill-opacity:1;" d="M 73.777344 42.273438 L 53.550781 56.96875 L 46.203125 46.855469 Z M 73.777344 42.273438 "/>
<path style=" stroke:none;fill-rule:nonzero;fill:rgb(100%,100%,100%);fill-opacity:1;" d="M 26.222656 42.273438 L 46.449219 56.96875 L 53.796875 46.855469 Z M 26.222656 42.273438 "/>
<path style=" stroke:none;fill-rule:nonzero;fill:rgb(100%,100%,100%);fill-opacity:1;" d="M 26.222656 42.273438 L 51.222656 42.273438 L 51.222656 54.773438 Z M 26.222656 42.273438 "/>
<path style=" stroke:none;fill-rule:nonzero;fill:rgb(100%,100%,100%);fill-opacity:1;" d="M 64.695312 70.226562 L 56.96875 46.449219 L 45.082031 50.3125 Z M 64.695312 70.226562 "/>
<path style=" stroke:none;fill-rule:nonzero;fill:rgb(100%,100%,100%);fill-opacity:1;" d="M 64.695312 70.226562 L 44.46875 55.53125 L 51.816406 45.417969 Z M 64.695312 70.226562 "/>
<path style=" stroke:none;fill-rule:nonzero;fill:rgb(100%,100%,100%);fill-opacity:1;" d="M 35.304688 70.226562 L 55.53125 55.53125 L 48.183594 45.417969 Z M 35.304688 70.226562 "/>
<path style=" stroke:none;fill-rule:nonzero;fill:rgb(100%,100%,100%);fill-opacity:1;" d="M 35.304688 70.226562 L 43.03125 46.449219 L 54.917969 50.3125 Z M 35.304688 70.226562 "/>
</g>
</svg>
