<?xml version="1.0" encoding="UTF-8"?>
<svg xmlns="http://www.w3.org/2000/svg" xmlns:xlink="http://www.w3.org/1999/xlink" width="px" height="px" viewBox="0 0 500 250" version="1.1">
<g id="surface1">
<rect x="0" y="0" width="500" height="250" style="fill:rgb(0%,12.941176%,67.843137%);fill-opacity:1;stroke:none;"/>
<path style=" stroke:none;fill-rule:nonzero;fill:rgb(10.980392%,54.117647%,25.882353%);fill-opacity:1;" d="M 0 0 L 500 0 L 500 250 Z M 0 0 "/>
<path style=" stroke:none;fill-rule:nonzero;fill:rgb(100%,77.647059%,22.352941%);fill-opacity:1;" d="M 295.160156 125 C 295.160156 149.941406 274.941406 170.160156 250 170.160156 C 225.058594 170.160156 204.839844 149.941406 204.839844 125 C 204.839844 100.058594 225.058594 79.839844 250 79.839844 C 274.941406 79.839844 295.160156 100.058594 295.160156 125 Z M 295.160156 125 "/>
<path style=" stroke:none;fill-rule:nonzero;fill:rgb(10.980392%,54.117647%,25.882353%);fill-opacity:1;" d="M 222.421875 104.714844 C 225.507812 108.953125 230.191406 116.058594 233.957031 114.203125 C 236.894531 114.214844 238.410156 114.421875 238.808594 116.375 C 245.738281 117.554688 257.386719 114.632812 264.632812 105.195312 C 264.632812 105.195312 265.242188 105.273438 265.03125 101.6875 C 265.070312 100.125 267.167969 100.4375 267.21875 100.945312 C 267.511719 101.722656 267.460938 102.300781 267.851562 102.320312 C 268.746094 102.023438 269.964844 100.023438 270.988281 98.753906 C 271.265625 98.195312 271.113281 97.605469 271.179688 96.898438 C 271.71875 95.574219 273.0625 95.859375 273.347656 96.554688 C 273.601562 97.003906 273.609375 97.347656 273.859375 97.796875 C 275.226562 98.707031 277.691406 97.855469 277.882812 97.855469 C 278.125 96.742188 278.839844 96.847656 278.839844 96.847656 C 279.75 96.648438 279.394531 96.726562 279.992188 97.039062 C 279.464844 103.042969 281.171875 103.308594 281.03125 106.386719 C 281.09375 109.824219 279.992188 110.804688 279.992188 112.113281 C 280.339844 113.714844 285.410156 113.769531 283.628906 115.125 C 282.058594 115.964844 283.632812 117.53125 281.273438 118.140625 C 274.410156 121.621094 273.09375 124.613281 273.09375 124.613281 C 273.09375 124.613281 271.371094 127.867188 271.179688 127.867188 C 270.03125 130.039062 268.574219 128.855469 267.761719 129.914062 C 267.359375 131.242188 266.90625 134.191406 267.710938 135.722656 C 268.113281 137.832031 267.660156 138.980469 267.15625 141.085938 C 266.703125 145.480469 264.960938 146.144531 264.757812 147.6875 C 263.953125 149.335938 264.929688 157.078125 264.164062 157.078125 C 259.054688 157.179688 255.136719 156.097656 253.117188 155.695312 C 255.085938 147.203125 254.320312 139.746094 254.320312 138.980469 C 253.816406 132.90625 245.226562 134.382812 243.910156 133.578125 C 242.820312 133.34375 242.136719 132.457031 241.753906 132.074219 C 240.539062 131.945312 240.085938 131.667969 238.871094 131.542969 C 238.265625 131.84375 238.628906 132.15625 237.277344 132.574219 C 233.851562 132.988281 232.339844 129.585938 232.339844 129.585938 C 232.503906 128.441406 224.632812 129.816406 220.351562 128.824219 C 218.601562 129.800781 217.832031 132.695312 216.398438 133.039062 C 216.359375 133.933594 214.035156 132.300781 213.566406 131.421875 C 213.46875 128.855469 215.804688 127.722656 215.804688 127.722656 C 217.65625 126.414062 218.757812 126.203125 219.648438 125.300781 C 220.097656 123.070312 219.871094 121.417969 220.824219 119.738281 C 221.628906 118.457031 222.816406 119.058594 223.625 118.484375 C 224.492188 117.910156 224.859375 114.148438 224.058594 113.121094 C 224.058594 113.121094 220.589844 109.992188 220.398438 109.800781 C 219.269531 106.566406 221.71875 104.476562 222.421875 104.714844 Z M 222.421875 104.714844 "/>
<path style=" stroke:none;fill-rule:nonzero;fill:rgb(100%,77.647059%,22.352941%);fill-opacity:1;" d="M 438.964844 48.777344 C 436.917969 40.679688 418.605469 23.242188 404.839844 12.144531 C 401.554688 9.90625 399.414062 11.238281 399.84375 14.429688 C 401.554688 17.289062 402.839844 20.429688 404.554688 23.289062 C 405.03125 25.195312 405.933594 26.527344 406.414062 28.433594 C 406.414062 28.433594 406.554688 31.71875 406.84375 32.003906 C 411.125 36.722656 411.699219 40.71875 411.699219 40.71875 C 414.175781 45.484375 416.367188 48.960938 420.703125 52.867188 C 425.558594 55.914062 421.988281 65.390625 422.128906 70.4375 C 422.128906 73.628906 419.84375 73.25 417.84375 72.867188 C 402.078125 58.390625 386.457031 58.34375 372.695312 54.152344 C 367.3125 53.582031 367.214844 56.152344 368.980469 57.578125 C 378.601562 67.867188 387.648438 74.867188 399.554688 80.722656 L 405.558594 84.445312 C 407.839844 86.347656 410.128906 88.253906 412.410156 90.160156 C 417.699219 93.585938 418.132812 96.730469 418.132812 97.011719 C 418.273438 103.445312 414.839844 108.441406 413.84375 110.445312 C 412.039062 117.261719 408.414062 118.445312 408.414062 118.445312 C 378.976562 138.308594 363.546875 143.449219 315.824219 137.304688 C 315.109375 136.925781 310.539062 137.6875 315.824219 139.59375 C 327.96875 143.640625 357.804688 150.132812 386.671875 136.464844 C 393.601562 131.605469 398.234375 133.199219 403.253906 130.289062 C 411.5 125.203125 423.273438 118.875 425.414062 118.164062 C 431.84375 114.734375 449.847656 110.878906 453.996094 107.445312 C 458.753906 107.0625 463.691406 106.4375 464.023438 102.34375 C 465.585938 101.332031 467.875 102.074219 469.574219 98.738281 C 473.347656 98.082031 472.710938 96.730469 472.710938 96.730469 C 471.761719 94.066406 468.230469 92.964844 465.710938 91.015625 C 461.992188 89.777344 459.421875 89.394531 456.707031 90.726562 C 455.847656 91.113281 454.992188 91.488281 454.136719 91.871094 C 454.136719 91.871094 450.132812 91.296875 450.132812 91.015625 C 441.246094 90.527344 442.113281 61.066406 438.964844 48.777344 Z M 438.964844 48.777344 "/>
<path style=" stroke:none;fill-rule:nonzero;fill:rgb(10.980392%,54.117647%,25.882353%);fill-opacity:1;" d="M 459.816406 97.003906 C 460.800781 97.121094 461.707031 97.671875 462.019531 98.335938 C 462.332031 99.003906 461.964844 99.613281 461.132812 99.820312 C 460.296875 100.027344 459.210938 99.773438 458.496094 99.207031 Z M 459.816406 97.003906 "/>
<path style=" stroke:none;fill-rule:nonzero;fill:rgb(100%,100%,100%);fill-opacity:1;" d="M 94.078125 95.46875 L 87.703125 89.503906 L 81.253906 95.386719 L 81.945312 86.683594 L 73.320312 85.308594 L 80.558594 80.421875 L 76.253906 72.824219 L 84.589844 75.433594 L 87.847656 67.328125 L 91.003906 75.472656 L 99.367188 72.96875 L 94.96875 80.511719 L 102.144531 85.492188 L 93.5 86.757812 L 94.082031 95.46875 Z M 94.078125 95.46875 "/>
<path style=" stroke:none;fill-rule:nonzero;fill:rgb(100%,100%,100%);fill-opacity:1;" d="M 116.695312 167.765625 L 109.820312 163.179688 L 103.125 168.011719 L 105.480469 160.230469 L 98.6875 155.523438 L 107.023438 155.300781 L 109.515625 147.550781 L 112.3125 155.199219 L 120.648438 155.121094 L 114.042969 160.074219 Z M 116.695312 167.765625 "/>
<path style=" stroke:none;fill-rule:nonzero;fill:rgb(100%,100%,100%);fill-opacity:1;" d="M 95.339844 230 L 88.964844 224.03125 L 82.511719 229.917969 L 83.203125 221.214844 L 74.582031 219.839844 L 81.816406 214.953125 L 77.515625 207.351562 L 85.847656 209.964844 L 89.109375 201.859375 L 92.261719 210.003906 L 100.628906 207.5 L 96.230469 215.042969 L 103.402344 220.023438 L 94.761719 221.289062 Z M 95.339844 230 "/>
<path style=" stroke:none;fill-rule:nonzero;fill:rgb(100%,100%,100%);fill-opacity:1;" d="M 38.046875 157.082031 L 31.671875 151.113281 L 25.21875 157 L 25.910156 148.296875 L 17.285156 146.917969 L 24.523438 142.03125 L 20.222656 134.433594 L 28.554688 137.042969 L 31.8125 128.941406 L 34.96875 137.085938 L 43.335938 134.582031 L 38.9375 142.125 L 46.109375 147.105469 L 37.46875 148.371094 Z M 38.046875 157.082031 "/>
<path style=" stroke:none;fill-rule:nonzero;fill:rgb(100%,100%,100%);fill-opacity:1;" d="M 148.292969 137.984375 L 141.917969 132.015625 L 135.464844 137.902344 L 136.15625 129.199219 L 127.53125 127.820312 L 134.769531 122.933594 L 130.46875 115.335938 L 138.800781 117.945312 L 142.058594 109.84375 L 145.214844 117.988281 L 153.582031 115.484375 L 149.183594 123.027344 L 156.355469 128.007812 L 147.714844 129.273438 Z M 148.292969 137.984375 "/>
</g>
</svg>
