<?xml version="1.0" encoding="UTF-8"?>
<svg xmlns="http://www.w3.org/2000/svg" xmlns:xlink="http://www.w3.org/1999/xlink" width="px" height="px" viewBox="0 0 450 300" version="1.1">
<g id="surface1">
<rect x="0" y="0" width="450" height="300" style="fill:rgb(100%,100%,100%);fill-opacity:1;stroke:none;"/>
<path style=" stroke:none;fill-rule:nonzero;fill:rgb(30.588235%,35.686275%,19.215686%);fill-opacity:1;" d="M 231.550781 253.371094 C 161.585938 253.402344 104.839844 196.710938 104.804688 126.746094 C 104.769531 56.78125 161.460938 0.0351562 231.429688 0 L 231.367188 -0.0585938 C 237.183594 -0.246094 242.082031 4.253906 242.382812 10.066406 C 242.683594 15.878906 238.277344 20.863281 232.472656 21.277344 C 226.667969 21.691406 221.597656 17.378906 221.074219 11.585938 C 220.546875 5.789062 224.757812 0.636719 230.546875 0 C 229.878906 -0.757812 228.984375 -1.863281 228.199219 -2.84375 C 226.640625 -4.785156 225.355469 -6.457031 225.113281 -6.773438 L 224.714844 -7.289062 L 220.832031 -8.484375 L 217.996094 -9.808594 L 219.511719 -11.511719 L 224.714844 -9.28125 L 228.601562 -8.484375 L 235.78125 -3.203125 L 235.777344 -3.199219 C 235.761719 -3.1875 234.730469 -2.328125 233.707031 -1.398438 C 233.25 -0.984375 232.675781 -0.449219 232.269531 -0.0078125 C 232.082031 0.195312 231.917969 0.398438 231.804688 0.5625 C 231.835938 0.359375 231.917969 0.164062 232.039062 0 L 232.484375 -0.277344 L 232.96875 0.0976562 L 231.984375 0.191406 L 231.941406 0.199219 Z M 204.882812 245.359375 C 201.492188 245.359375 198.144531 244.421875 194.933594 242.578125 L 194.929688 242.574219 L 194.929688 242.570312 C 194.929688 242.570312 195.351562 241.769531 196.371094 241.023438 C 197.339844 240.308594 199.089844 239.460938 201.921875 239.449219 L 201.980469 239.449219 C 205.328125 239.449219 209.429688 240.585938 214.164062 242.832031 C 214.003906 242.941406 210.289062 245.359375 204.882812 245.359375 L 204.886719 245.367188 Z M 190.195312 242.105469 C 189.570312 242.105469 189.007812 241.867188 188.609375 241.4375 C 188.285156 241.085938 188.054688 240.617188 187.898438 240 C 187.648438 238.992188 187.71875 237.988281 187.722656 237.890625 C 122.03125 224.039062 80.007812 159.554688 93.863281 93.863281 C 107.714844 28.171875 172.199219 -13.851562 237.890625 0 L 237.949219 0 C 239.203125 0 240.191406 1.089844 240.617188 2.167969 C 240.855469 2.78125 240.902344 3.296875 240.753906 3.699219 C 240.601562 4.105469 240.132812 4.386719 239.582031 4.386719 Z M 216.035156 239.109375 C 207.355469 237.871094 203.675781 234.734375 202.121094 232.320312 C 200.457031 229.742188 200.800781 227.363281 200.800781 227.339844 L 200.804688 227.332031 L 200.808594 227.328125 C 200.8125 227.328125 201.339844 227.1875 202.140625 227.183594 C 204.449219 227.183594 210.355469 228.34375 216.039062 239.105469 L 216.042969 239.113281 L 216.03125 239.105469 Z M 198.246094 237.390625 C 194.539062 237.390625 191.714844 236.75 189.855469 235.488281 C 188.785156 234.761719 188.261719 233.96875 188.011719 233.425781 C 187.777344 232.917969 187.722656 232.496094 187.714844 232.414062 C 187.8125 232.371094 189.332031 231.695312 191.597656 231.589844 C 191.789062 231.582031 191.980469 231.574219 192.183594 231.574219 C 195.050781 231.574219 199.410156 232.507812 204.007812 236.964844 L 204.011719 236.96875 L 204.007812 236.96875 C 201.90625 237.242188 199.964844 237.390625 198.242188 237.390625 Z M 180.289062 236.699219 C 176.382812 236.699219 171.007812 235.507812 167.660156 232.15625 L 167.65625 232.152344 L 167.664062 232.152344 C 167.699219 232.140625 171.335938 231.21875 175.425781 231.121094 C 175.671875 231.113281 175.917969 231.109375 176.164062 231.109375 C 179.832031 231.109375 182.636719 231.820312 184.507812 233.222656 C 185.160156 233.710938 185.515625 234.167969 185.59375 234.613281 C 185.660156 234.988281 185.464844 235.390625 185.066406 235.6875 C 184.226562 236.324219 182.722656 236.664062 180.59375 236.699219 L 180.292969 236.707031 Z M 167.621094 230.199219 C 104.054688 230.359375 52.390625 178.960938 52.230469 115.390625 C 52.070312 51.824219 103.46875 0.160156 167.039062 0 C 166.785156 -0.308594 166.609375 -0.707031 166.484375 -1.261719 C 166.277344 -2.183594 166.339844 -3.089844 166.339844 -3.097656 L 166.339844 -3.105469 C 167.195312 43.683594 129.960938 82.308594 83.175781 83.164062 C 36.386719 84.023438 -2.238281 46.789062 -3.097656 0 C -2.519531 0 -2.078125 0.316406 -1.800781 0.578125 C -3.472656 0.375 -4.757812 -0.992188 -4.859375 -2.671875 C -4.957031 -4.351562 -3.839844 -5.863281 -2.203125 -6.261719 C -0.570312 -6.660156 1.117188 -5.828125 1.800781 -4.292969 C 2.484375 -2.753906 1.96875 -0.949219 0.578125 0 C 0.761719 0.515625 0.789062 0.945312 0.667969 1.316406 C 0.570312 1.613281 0.230469 1.921875 -0.230469 1.921875 Z M 196.886719 229.539062 C 196.257812 229.539062 195.695312 229.304688 195.300781 228.875 C 194.976562 228.519531 194.742188 228.050781 194.589844 227.433594 C 194.339844 226.425781 194.40625 225.421875 194.414062 225.328125 C 132.191406 216.789062 88.671875 159.429688 97.207031 97.207031 C 105.742188 34.984375 163.105469 -8.535156 225.328125 0 L 225.382812 0 C 226.636719 0 227.628906 1.089844 228.050781 2.167969 C 228.292969 2.78125 228.339844 3.296875 228.1875 3.699219 C 228.039062 4.109375 227.5625 4.386719 227.019531 4.386719 Z M 182.632812 228.949219 C 174.761719 228.671875 170.679688 226.4375 168.640625 224.609375 C 167.492188 223.578125 166.851562 222.558594 166.519531 221.886719 C 166.203125 221.25 166.085938 220.761719 166.066406 220.667969 L 166.074219 220.660156 C 166.078125 220.660156 166.820312 220.394531 168.019531 220.371094 L 168.203125 220.371094 C 170.855469 220.371094 176.257812 221.484375 182.628906 228.945312 L 182.628906 228.953125 Z M 191.175781 228.15625 C 184.84375 227.191406 181.257812 224.472656 179.363281 222.363281 C 177.378906 220.152344 176.785156 218.089844 176.757812 217.992188 C 176.769531 217.992188 177.542969 217.789062 178.707031 217.757812 C 238.839844 228.542969 296.328125 188.539062 307.113281 128.40625 C 317.898438 68.273438 277.890625 10.785156 217.757812 0 C 220.941406 0.0703125 226.726562 1.511719 229.6875 10.394531 L 229.691406 10.394531 Z M 158.675781 225.113281 C 156.601562 225.113281 154.589844 224.875 152.695312 224.402344 C 149.378906 223.574219 147.957031 222.308594 147.347656 221.390625 C 147.003906 220.871094 146.878906 220.414062 146.835938 220.125 C 86.046875 220.273438 36.652344 171.117188 36.503906 110.332031 C 36.355469 49.542969 85.511719 0.148438 146.296875 0 L 146.3125 -0.00390625 C 146.320312 -0.0078125 148.511719 -0.621094 151.546875 -0.667969 C 151.730469 41.363281 117.804688 75.585938 75.773438 75.773438 C 33.738281 75.957031 -0.484375 42.03125 -0.667969 0 C 4.597656 1.054688 7.332031 5.03125 7.355469 5.070312 L 7.359375 5.074219 L 7.351562 5.074219 C 7.324219 5.082031 4.8125 5.785156 1.292969 5.785156 Z M 173.371094 219.773438 C 172.734375 219.773438 172.171875 219.542969 171.785156 219.125 C 171.464844 218.777344 171.234375 218.300781 171.074219 217.667969 C 170.820312 216.660156 170.890625 215.667969 170.898438 215.578125 C 111.371094 203.238281 73.113281 144.980469 85.449219 85.449219 C 97.785156 25.917969 156.046875 -12.335938 215.578125 0 L 215.632812 0 C 216.886719 0 217.878906 1.089844 218.300781 2.167969 C 218.535156 2.761719 218.578125 3.273438 218.425781 3.683594 C 218.269531 4.105469 217.8125 4.375 217.269531 4.375 Z M 162.320312 218.261719 C 162.273438 218.25 159.332031 217.492188 156.335938 215.648438 C 153.566406 213.941406 150.175781 210.921875 149.761719 206.234375 L 149.761719 206.230469 L 149.769531 206.226562 C 149.769531 206.226562 150.027344 206.164062 150.40625 206.152344 C 93.480469 190.734375 59.828125 132.089844 75.246094 75.164062 C 90.660156 18.234375 149.304688 -15.414062 206.234375 0 C 207.0625 0 208.757812 0.234375 210.804688 1.792969 C 213.417969 3.78125 215.828125 7.253906 217.980469 12.117188 Z M 169.535156 217.996094 C 169.515625 217.988281 167.421875 217.148438 164.800781 214.953125 C 162.359375 212.90625 158.929688 209.222656 156.445312 203.289062 C 156.445312 203.289062 157.015625 202.984375 157.886719 202.929688 C 157.9375 202.925781 157.988281 202.925781 158.039062 202.925781 C 158.113281 202.925781 158.191406 202.925781 158.269531 202.929688 C 159.476562 202.964844 161.3125 203.464844 163.347656 205.660156 C 165.6875 208.183594 167.773438 212.332031 169.550781 217.984375 L 169.554688 218.003906 L 169.539062 217.996094 Z M 150.839844 217.449219 C 148.429688 217.449219 147.605469 216.144531 147.363281 215.578125 C 146.964844 214.65625 147.085938 213.734375 147.085938 213.726562 L 147.085938 213.71875 C 147.476562 213.621094 147.890625 213.566406 148.285156 213.558594 L 148.367188 213.558594 C 150.269531 213.558594 151.765625 214.523438 152.410156 215.480469 C 152.539062 215.667969 152.929688 216.328125 152.605469 216.839844 C 152.34375 217.246094 151.753906 217.449219 150.839844 217.449219 Z M 145.5 210.714844 C 144.15625 210.714844 142.09375 210.632812 139.929688 210.238281 C 137.785156 209.847656 136.566406 208.023438 135.925781 206.5625 C 135.222656 204.96875 135.027344 203.449219 135.023438 203.433594 L 135.03125 203.433594 C 141.671875 203.628906 144.808594 205.570312 146.269531 207.164062 C 147.777344 208.808594 147.867188 210.515625 147.871094 210.625 L 147.867188 210.625 C 147.859375 210.625 146.921875 210.714844 145.496094 210.714844 Z M 152.414062 203.804688 C 96.136719 204.386719 50.039062 159.238281 49.457031 102.960938 C 48.875 46.679688 94.023438 0.582031 150.300781 0 C 149.515625 -1.222656 148.789062 -2.496094 148.789062 -3.542969 C 148.789062 -4.550781 148.550781 -6.675781 148.410156 -7.851562 C 148.230469 -9.34375 148.050781 -10.621094 148.035156 -10.730469 L 148.042969 -10.726562 C 148.210938 -10.667969 152.195312 -9.171875 152.195312 -5.433594 C 152.195312 -1.6875 151.828125 2.074219 151.824219 2.113281 L 151.824219 2.117188 L 151.816406 2.117188 Z M 147.25 203.449219 C 147.210938 203.449219 147.167969 203.445312 147.125 203.441406 C 145.949219 203.242188 143.878906 202.34375 141.589844 201.03125 C 139.046875 199.574219 136.984375 198.011719 135.78125 196.636719 C 134.679688 195.378906 134.027344 193.40625 133.839844 190.773438 C 133.707031 188.902344 133.867188 187.34375 133.882812 187.191406 C 134.089844 187.121094 134.308594 187.089844 134.539062 187.089844 C 135.421875 187.101562 136.363281 187.5 137.636719 188.375 C 138.625 189.058594 139.71875 189.984375 140.878906 191.132812 C 142.886719 193.113281 144.464844 195.097656 144.480469 195.117188 L 144.496094 195.136719 C 144.628906 195.375 145.765625 197.425781 146.648438 199.417969 C 147.210938 200.683594 147.53125 201.597656 147.660156 202.289062 C 147.734375 202.683594 147.757812 202.945312 147.660156 203.179688 C 147.617188 203.277344 147.542969 203.367188 147.464844 203.40625 C 147.398438 203.433594 147.328125 203.449219 147.246094 203.449219 Z M 147.25 203.449219 "/>
<path style=" stroke:none;fill-rule:nonzero;fill:rgb(30.588235%,35.686275%,19.215686%);fill-opacity:1;" d="M 218.449219 253.371094 C 288.414062 253.402344 345.160156 196.710938 345.195312 126.746094 C 345.230469 56.78125 288.539062 0.0351562 218.570312 0 L 218.632812 -0.0585938 C 212.816406 -0.246094 207.917969 4.253906 207.617188 10.066406 C 207.316406 15.878906 211.722656 20.863281 217.527344 21.277344 C 223.332031 21.691406 228.402344 17.378906 228.925781 11.585938 C 229.453125 5.789062 225.242188 0.636719 219.453125 0 C 220.121094 -0.757812 221.015625 -1.863281 221.800781 -2.84375 C 223.359375 -4.785156 224.644531 -6.457031 224.886719 -6.773438 L 225.285156 -7.289062 L 229.167969 -8.484375 L 232.003906 -9.808594 L 230.488281 -11.511719 L 225.285156 -9.28125 L 221.398438 -8.484375 L 214.21875 -3.203125 L 214.222656 -3.199219 C 214.238281 -3.1875 215.269531 -2.328125 216.292969 -1.398438 C 216.75 -0.984375 217.324219 -0.449219 217.730469 -0.0078125 C 217.917969 0.195312 218.082031 0.398438 218.195312 0.5625 C 218.164062 0.359375 218.082031 0.164062 217.960938 0 L 217.515625 -0.277344 L 217.03125 0.0976562 L 218.015625 0.191406 L 218.058594 0.199219 Z M 245.117188 245.359375 C 248.507812 245.359375 251.855469 244.421875 255.066406 242.578125 L 255.070312 242.574219 L 255.070312 242.570312 C 255.070312 242.570312 254.648438 241.769531 253.628906 241.023438 C 252.660156 240.308594 250.910156 239.460938 248.078125 239.449219 L 248.019531 239.449219 C 244.671875 239.449219 240.570312 240.585938 235.835938 242.832031 C 235.996094 242.941406 239.710938 245.359375 245.117188 245.359375 L 245.113281 245.367188 Z M 259.804688 242.105469 C 260.429688 242.105469 260.992188 241.867188 261.390625 241.4375 C 261.714844 241.085938 261.945312 240.617188 262.101562 240 C 262.351562 238.992188 262.28125 237.988281 262.277344 237.890625 C 327.96875 224.039062 369.992188 159.554688 356.136719 93.863281 C 342.285156 28.171875 277.800781 -13.851562 212.109375 0 L 212.050781 0 C 210.796875 0 209.808594 1.089844 209.382812 2.167969 C 209.144531 2.78125 209.097656 3.296875 209.246094 3.699219 C 209.398438 4.105469 209.867188 4.386719 210.417969 4.386719 Z M 233.964844 239.109375 C 242.644531 237.871094 246.324219 234.734375 247.878906 232.320312 C 249.542969 229.742188 249.199219 227.363281 249.199219 227.339844 L 249.195312 227.332031 L 249.191406 227.328125 C 249.1875 227.328125 248.660156 227.1875 247.859375 227.183594 C 245.550781 227.183594 239.644531 228.34375 233.960938 239.105469 L 233.957031 239.113281 L 233.96875 239.105469 Z M 251.753906 237.390625 C 255.460938 237.390625 258.285156 236.75 260.144531 235.488281 C 261.214844 234.761719 261.738281 233.96875 261.988281 233.425781 C 262.222656 232.917969 262.277344 232.496094 262.285156 232.414062 C 262.1875 232.371094 260.667969 231.695312 258.402344 231.589844 C 258.210938 231.582031 258.019531 231.574219 257.816406 231.574219 C 254.949219 231.574219 250.589844 232.507812 245.992188 236.964844 L 245.988281 236.96875 L 245.992188 236.96875 C 248.09375 237.242188 250.035156 237.390625 251.757812 237.390625 Z M 269.710938 236.699219 C 273.617188 236.699219 278.992188 235.507812 282.339844 232.15625 L 282.34375 232.152344 L 282.335938 232.152344 C 282.300781 232.140625 278.664062 231.21875 274.574219 231.121094 C 274.328125 231.113281 274.082031 231.109375 273.835938 231.109375 C 270.167969 231.109375 267.363281 231.820312 265.492188 233.222656 C 264.839844 233.710938 264.484375 234.167969 264.40625 234.613281 C 264.339844 234.988281 264.535156 235.390625 264.933594 235.6875 C 265.773438 236.324219 267.277344 236.664062 269.40625 236.699219 L 269.707031 236.707031 Z M 282.378906 230.199219 C 345.945312 230.359375 397.609375 178.960938 397.769531 115.390625 C 397.929688 51.824219 346.53125 0.160156 282.960938 0 C 283.214844 -0.308594 283.390625 -0.707031 283.515625 -1.261719 C 283.722656 -2.183594 283.660156 -3.089844 283.660156 -3.097656 L 283.660156 -3.105469 C 282.804688 43.683594 320.039062 82.308594 366.824219 83.164062 C 413.613281 84.023438 452.238281 46.789062 453.097656 0 C 452.519531 0 452.078125 0.316406 451.800781 0.578125 C 453.472656 0.375 454.757812 -0.992188 454.859375 -2.671875 C 454.957031 -4.351562 453.839844 -5.863281 452.203125 -6.261719 C 450.570312 -6.660156 448.882812 -5.828125 448.199219 -4.292969 C 447.515625 -2.753906 448.03125 -0.949219 449.421875 0 C 449.238281 0.515625 449.210938 0.945312 449.332031 1.316406 C 449.429688 1.613281 449.769531 1.921875 450.230469 1.921875 Z M 253.113281 229.539062 C 253.742188 229.539062 254.304688 229.304688 254.699219 228.875 C 255.023438 228.519531 255.257812 228.050781 255.410156 227.433594 C 255.660156 226.425781 255.59375 225.421875 255.585938 225.328125 C 317.808594 216.789062 361.328125 159.429688 352.792969 97.207031 C 344.257812 34.984375 286.894531 -8.535156 224.671875 0 L 224.617188 0 C 223.363281 0 222.371094 1.089844 221.949219 2.167969 C 221.707031 2.78125 221.660156 3.296875 221.8125 3.699219 C 221.960938 4.109375 222.4375 4.386719 222.980469 4.386719 Z M 267.367188 228.949219 C 275.238281 228.671875 279.320312 226.4375 281.359375 224.609375 C 282.507812 223.578125 283.148438 222.558594 283.480469 221.886719 C 283.796875 221.25 283.914062 220.761719 283.933594 220.667969 L 283.925781 220.660156 C 283.921875 220.660156 283.179688 220.394531 281.980469 220.371094 L 281.796875 220.371094 C 279.144531 220.371094 273.742188 221.484375 267.371094 228.945312 L 267.371094 228.953125 Z M 258.824219 228.15625 C 265.15625 227.191406 268.742188 224.472656 270.636719 222.363281 C 272.621094 220.152344 273.214844 218.089844 273.242188 217.992188 C 273.230469 217.992188 272.457031 217.789062 271.292969 217.757812 C 211.160156 228.542969 153.671875 188.539062 142.886719 128.40625 C 132.101562 68.273438 172.109375 10.785156 232.242188 0 C 229.058594 0.0703125 223.273438 1.511719 220.3125 10.394531 L 220.308594 10.394531 Z M 291.324219 225.113281 C 293.398438 225.113281 295.410156 224.875 297.304688 224.402344 C 300.621094 223.574219 302.042969 222.308594 302.652344 221.390625 C 302.996094 220.871094 303.121094 220.414062 303.164062 220.125 C 363.953125 220.273438 413.347656 171.117188 413.496094 110.332031 C 413.644531 49.542969 364.488281 0.148438 303.703125 0 L 303.6875 -0.00390625 C 303.679688 -0.0078125 301.488281 -0.621094 298.453125 -0.667969 C 298.269531 41.363281 332.195312 75.585938 374.226562 75.773438 C 416.261719 75.957031 450.484375 42.03125 450.667969 0 C 445.402344 1.054688 442.667969 5.03125 442.644531 5.070312 L 442.640625 5.074219 L 442.648438 5.074219 C 442.675781 5.082031 445.1875 5.785156 448.707031 5.785156 Z M 276.628906 219.773438 C 277.265625 219.773438 277.828125 219.542969 278.214844 219.125 C 278.535156 218.777344 278.765625 218.300781 278.925781 217.667969 C 279.179688 216.660156 279.109375 215.667969 279.101562 215.578125 C 338.628906 203.238281 376.886719 144.980469 364.550781 85.449219 C 352.214844 25.917969 293.953125 -12.335938 234.421875 0 L 234.367188 0 C 233.113281 0 232.121094 1.089844 231.699219 2.167969 C 231.464844 2.761719 231.421875 3.273438 231.574219 3.683594 C 231.730469 4.105469 232.1875 4.375 232.730469 4.375 Z M 287.679688 218.261719 C 287.726562 218.25 290.667969 217.492188 293.664062 215.648438 C 296.433594 213.941406 299.824219 210.921875 300.238281 206.234375 L 300.238281 206.230469 L 300.230469 206.226562 C 300.230469 206.226562 299.972656 206.164062 299.59375 206.152344 C 356.519531 190.734375 390.171875 132.089844 374.753906 75.164062 C 359.339844 18.234375 300.695312 -15.414062 243.765625 0 C 242.9375 0 241.242188 0.234375 239.195312 1.792969 C 236.582031 3.78125 234.171875 7.253906 232.019531 12.117188 Z M 280.464844 217.996094 C 280.484375 217.988281 282.578125 217.148438 285.199219 214.953125 C 287.640625 212.90625 291.070312 209.222656 293.554688 203.289062 C 293.554688 203.289062 292.984375 202.984375 292.113281 202.929688 C 292.0625 202.925781 292.011719 202.925781 291.960938 202.925781 C 291.886719 202.925781 291.808594 202.925781 291.730469 202.929688 C 290.523438 202.964844 288.6875 203.464844 286.652344 205.660156 C 284.3125 208.183594 282.226562 212.332031 280.449219 217.984375 L 280.445312 218.003906 L 280.460938 217.996094 Z M 299.160156 217.449219 C 301.570312 217.449219 302.394531 216.144531 302.636719 215.578125 C 303.035156 214.65625 302.914062 213.734375 302.914062 213.726562 L 302.914062 213.71875 C 302.523438 213.621094 302.109375 213.566406 301.714844 213.558594 L 301.632812 213.558594 C 299.730469 213.558594 298.234375 214.523438 297.589844 215.480469 C 297.460938 215.667969 297.070312 216.328125 297.394531 216.839844 C 297.65625 217.246094 298.246094 217.449219 299.160156 217.449219 Z M 304.5 210.714844 C 305.84375 210.714844 307.90625 210.632812 310.070312 210.238281 C 312.214844 209.847656 313.433594 208.023438 314.074219 206.5625 C 314.777344 204.96875 314.972656 203.449219 314.976562 203.433594 L 314.96875 203.433594 C 308.328125 203.628906 305.191406 205.570312 303.730469 207.164062 C 302.222656 208.808594 302.132812 210.515625 302.128906 210.625 L 302.132812 210.625 C 302.140625 210.625 303.078125 210.714844 304.503906 210.714844 Z M 297.585938 203.804688 C 353.863281 204.386719 399.960938 159.238281 400.542969 102.960938 C 401.125 46.679688 355.976562 0.582031 299.699219 0 C 300.484375 -1.222656 301.210938 -2.496094 301.210938 -3.542969 C 301.210938 -4.550781 301.449219 -6.675781 301.589844 -7.851562 C 301.769531 -9.34375 301.949219 -10.621094 301.964844 -10.730469 L 301.957031 -10.726562 C 301.789062 -10.667969 297.804688 -9.171875 297.804688 -5.433594 C 297.804688 -1.6875 298.171875 2.074219 298.175781 2.113281 L 298.175781 2.117188 L 298.183594 2.117188 Z M 302.75 203.449219 C 302.789062 203.449219 302.832031 203.445312 302.875 203.441406 C 304.050781 203.242188 306.121094 202.34375 308.410156 201.03125 C 310.953125 199.574219 313.015625 198.011719 314.21875 196.636719 C 315.320312 195.378906 315.972656 193.40625 316.160156 190.773438 C 316.292969 188.902344 316.132812 187.34375 316.117188 187.191406 C 315.910156 187.121094 315.691406 187.089844 315.460938 187.089844 C 314.578125 187.101562 313.636719 187.5 312.363281 188.375 C 311.375 189.058594 310.28125 189.984375 309.121094 191.132812 C 307.113281 193.113281 305.535156 195.097656 305.519531 195.117188 L 305.503906 195.136719 C 305.371094 195.375 304.234375 197.425781 303.351562 199.417969 C 302.789062 200.683594 302.46875 201.597656 302.339844 202.289062 C 302.265625 202.683594 302.242188 202.945312 302.339844 203.179688 C 302.382812 203.277344 302.457031 203.367188 302.535156 203.40625 C 302.601562 203.433594 302.671875 203.449219 302.753906 203.449219 Z M 302.75 203.449219 "/>
<path style=" stroke:none;fill-rule:nonzero;fill:rgb(83.529412%,47.058824%,0%);fill-opacity:1;" d="M 363.566406 51.984375 L 362.386719 52.453125 L 361.925781 52.636719 L 360.5 52.558594 L 359.164062 53.199219 L 356.792969 54.820312 L 356.6875 54.894531 L 355.804688 55.125 L 354.984375 54.769531 L 354.519531 54.984375 L 354.359375 55.941406 L 353.914062 56.632812 L 353.367188 57.015625 L 351.476562 57.210938 L 349.882812 58.03125 L 347.808594 57.476562 L 346.84375 57.851562 L 344.792969 59.699219 L 343.746094 60.195312 L 343.378906 60.175781 L 341.992188 60.101562 L 341.40625 60.296875 L 340.527344 61.140625 L 338.871094 61.269531 L 338.355469 61.628906 L 337.546875 63.257812 L 336.667969 64.160156 L 336.167969 64.269531 L 335.625 64.070312 L 335.214844 64.140625 L 335.03125 65.183594 L 334.632812 65.621094 L 333.523438 66.003906 L 332.636719 66.742188 L 331.859375 67.140625 L 330.820312 67.113281 L 330.578125 67.113281 L 329.539062 67.6875 L 327.589844 67.859375 L 326.777344 68.632812 L 326.597656 68.796875 L 326.21875 69.027344 L 325.597656 69.398438 L 325.445312 69.488281 L 324.699219 69.355469 L 323.824219 69.703125 L 323.46875 69.15625 L 322.863281 69.523438 L 322.0625 69.554688 L 321.0625 69.113281 L 320.300781 68.773438 L 319.746094 68.851562 L 319.550781 69.824219 L 319.53125 69.925781 L 318.949219 70.703125 L 317.855469 71.367188 L 317.707031 71.558594 L 316.464844 73.164062 L 314.105469 75.648438 L 312.109375 76.660156 L 310.039062 77.289062 L 308.589844 78.480469 L 304.789062 80.363281 L 298.792969 83.347656 L 297.566406 83.742188 L 295.804688 84.023438 L 292.667969 85.175781 L 289.898438 86.011719 L 289.742188 86.058594 L 289.195312 86.226562 L 285.289062 87.40625 L 283.472656 87.214844 L 282.398438 87.605469 L 279.59375 87.296875 L 277.644531 87.335938 L 276.414062 87.589844 L 274.09375 88.703125 L 270.179688 90.582031 L 268.886719 91.765625 L 266.875 92.816406 L 264.515625 93.5625 L 264.523438 92.574219 L 264.507812 92.53125 L 263.097656 92.976562 L 261.1875 93.269531 L 260.121094 93.269531 L 259.460938 93.078125 L 259.359375 93.113281 L 255.453125 94.402344 L 251.089844 94.824219 L 248.910156 95.523438 L 247.28125 95.496094 L 246.261719 95.800781 L 244.265625 96.042969 L 243.550781 95.851562 L 243.390625 95.808594 L 237.515625 96.0625 L 234.828125 95.761719 L 233.546875 96.050781 L 231.398438 95.328125 L 228.261719 94.964844 L 227.53125 94.746094 L 225.882812 94.257812 L 225.136719 94.6875 L 224.578125 94.746094 L 223.246094 94.261719 L 222.765625 94.25 L 221.664062 94.648438 L 221.03125 94.484375 L 220.445312 94.015625 L 219.0625 93.8125 L 218.222656 93.105469 L 213.519531 93.726562 L 212.246094 93.351562 L 207.96875 92.105469 L 207.289062 92.140625 L 206.441406 92.777344 L 205.164062 93.242188 L 204.058594 93.527344 L 202.554688 93.582031 L 200.804688 93.121094 L 199.003906 92.246094 L 198.335938 92.089844 L 196.847656 92.238281 L 196.394531 92.28125 L 193.660156 90.816406 L 190.140625 88.613281 L 187.75 87.464844 L 186.855469 87.320312 L 186.734375 87.746094 L 187.179688 89.148438 L 187.328125 90.535156 L 187.285156 91.816406 L 187.257812 92.609375 L 187.484375 93.324219 L 188.34375 94.277344 L 188.703125 95.238281 L 188.96875 97.882812 L 188.964844 100.5625 L 188.546875 104.835938 L 188.402344 105.488281 L 187.902344 107.703125 L 187.445312 109.738281 L 185.671875 115.15625 L 185.1875 115.824219 L 183.992188 116.640625 L 181.28125 118.484375 L 179.285156 119.636719 L 178.65625 119.898438 L 177.035156 120.019531 L 176.027344 119.96875 L 174.769531 119.285156 L 173.535156 118.96875 L 171.921875 117.808594 L 170.121094 117.433594 L 168.152344 116.296875 L 167.640625 115.679688 L 166.566406 115.578125 L 165.078125 115.132812 L 165.078125 115.128906 L 164.53125 114.964844 L 164.15625 114.855469 L 162.257812 114.804688 L 160.488281 113.988281 L 159.554688 113.761719 L 158.28125 113.695312 L 156.949219 114.316406 L 156.273438 114.628906 L 155.417969 114.289062 L 154.800781 114.328125 L 154.101562 115.386719 L 153.996094 115.550781 L 153.515625 115.804688 L 152.914062 115.796875 L 152.445312 115.785156 L 151.9375 116.007812 L 151.253906 116.304688 L 150.652344 116.566406 L 150.355469 116.695312 L 150.351562 116.691406 L 150.167969 116.726562 L 149.847656 116.78125 L 149.445312 116.859375 L 148.742188 116.449219 L 148.367188 116.226562 L 147.738281 116.097656 L 147.398438 116.34375 L 147.332031 117.492188 L 147.023438 118.183594 L 146.042969 119.050781 L 145.046875 119.925781 L 144.351562 120.949219 L 142.515625 125.144531 L 141.363281 126.839844 L 141.003906 127.234375 L 139.800781 128.558594 L 138.734375 129.390625 L 136.273438 131.296875 L 133.941406 132.167969 L 131.9375 132.578125 L 130.960938 132.582031 L 129.113281 132.335938 L 127.453125 131.824219 L 125.625 130.683594 L 123.625 129.074219 L 120.726562 126.214844 L 120.316406 125.96875 L 120.234375 125.910156 L 119.320312 125.328125 L 118.644531 125.34375 L 118.378906 125.78125 L 118.234375 126.414062 L 118.109375 126.972656 L 117.777344 130.15625 L 117.804688 130.339844 L 117.976562 131.652344 L 120.175781 134.726562 L 120.855469 136.359375 L 120.96875 136.546875 L 121.421875 137.308594 L 121.765625 137.890625 L 121.800781 137.949219 L 122.554688 140.195312 L 122.027344 141.460938 L 122.292969 142.308594 L 121.625 142.828125 L 121.503906 143.558594 L 123.476562 146.035156 L 123.910156 147.128906 L 123.425781 148.644531 L 122.660156 149.476562 L 122.445312 149.707031 L 122.554688 150.347656 L 123.460938 151.164062 L 125.007812 152.539062 L 125.828125 154.582031 L 126.457031 155.132812 L 127.183594 154.976562 L 127.589844 155.285156 L 128.203125 155.273438 L 128.808594 155.878906 L 129.199219 156.066406 L 129.816406 156.375 L 130.304688 157.011719 L 130.414062 158.96875 L 131.324219 161.398438 L 131.339844 162.714844 L 131.34375 162.902344 L 131.910156 163.875 L 132.089844 164.644531 L 131.785156 166.679688 L 132.507812 167.332031 L 133.292969 167.171875 L 133.796875 167.253906 L 134.609375 167.929688 L 135.59375 169.429688 L 136.558594 169.289062 L 137.167969 169.582031 L 140.121094 172.25 L 140.789062 172.589844 L 140.828125 172.609375 L 141.308594 172.851562 L 141.90625 173.453125 L 142.835938 172.839844 L 142.9375 172.828125 L 143.945312 172.738281 L 144.390625 173.039062 L 145.242188 173.613281 L 146.359375 173.597656 L 148.78125 174.339844 L 149.839844 174.613281 L 151.96875 175.9375 L 152.875 176.496094 L 153.414062 176.929688 L 154.125 177.511719 L 155.546875 178.125 L 156.765625 178.414062 L 157.429688 178.574219 L 157.925781 178.765625 L 157.9375 178.734375 L 157.945312 178.734375 L 157.933594 178.765625 L 160.574219 179.777344 L 162.007812 180.113281 L 163.328125 180.601562 L 164.292969 180.953125 L 165 180.964844 L 166 180.121094 L 166.96875 180.066406 L 167.773438 180.265625 L 168.558594 180.136719 L 169.800781 179.371094 L 170.042969 179.011719 L 170.925781 178.589844 L 173.898438 178.222656 L 174.765625 178.503906 L 176.996094 177.535156 L 178.488281 177.949219 L 179.8125 177.480469 L 182.699219 178.121094 L 183.46875 178.664062 L 184.328125 179.644531 L 184.433594 179.648438 L 185.386719 179.667969 L 184.988281 180.332031 L 186.25 181.65625 L 187.390625 183.378906 L 187.46875 183.609375 L 188.296875 186.039062 L 188.910156 186.902344 L 189.34375 188.101562 L 189.363281 188.886719 L 188.695312 189.398438 L 188.582031 189.691406 L 188.546875 189.796875 L 188.679688 190.125 L 188.933594 189.988281 L 189.414062 189.722656 L 190 189.628906 L 191.03125 189.742188 L 191.714844 189.8125 L 192.789062 189.277344 L 193.503906 188.921875 L 194.652344 189.414062 L 195.910156 189.402344 L 196.441406 189.636719 L 197.9375 190.316406 L 198.703125 190.386719 L 198.984375 190.203125 L 199.164062 189.773438 L 199.070312 189.277344 L 198.5 188.617188 L 197.234375 187.148438 L 196.714844 186.390625 L 196.320312 185.296875 L 196.199219 183.902344 L 196.113281 182.960938 L 196.269531 181.71875 L 196.609375 181.277344 L 196.859375 180.292969 L 196.863281 180.292969 L 196.929688 180.035156 L 197.632812 179.105469 L 199.492188 177.90625 L 201.492188 176.117188 L 203.074219 175.074219 L 204.703125 174.367188 L 204.746094 174.171875 L 204.929688 174.242188 L 209.074219 172.832031 L 209.144531 172.824219 L 210.988281 172.503906 L 223.449219 173.382812 L 223.910156 173.242188 L 223.914062 173.238281 L 224.328125 172.074219 L 224.550781 171.859375 L 224.699219 171.71875 L 226.070312 171.113281 L 226.710938 171.023438 L 228.488281 171.460938 L 229.21875 171.640625 L 230.382812 170.988281 L 231.210938 171 L 232.917969 170.070312 L 233.972656 170.09375 L 234.375 169.933594 L 236.429688 168.457031 L 238.410156 167.890625 L 238.925781 167.617188 L 239.109375 167.515625 L 241.136719 166.445312 L 242.429688 165.453125 L 243.539062 164.863281 L 244.761719 164.546875 L 247.949219 164.324219 L 248.589844 163.253906 L 249.964844 163.070312 L 250.792969 162.136719 L 251.738281 161.75 L 252.417969 160.773438 L 252.988281 159.949219 L 253.785156 159.492188 L 256.335938 159.332031 L 259.355469 159.703125 L 259.757812 159.460938 L 260.441406 157.023438 L 261.15625 156.566406 L 263.078125 153.761719 L 263.085938 152.738281 L 263.089844 151.886719 L 263.40625 150.667969 L 263.191406 148.472656 L 263.445312 146.25 L 264.640625 143.425781 L 265.695312 142.285156 L 267.398438 141.136719 L 268.261719 140.757812 L 269.484375 140.554688 L 269.484375 140.550781 L 269.664062 140.519531 L 269.976562 140.464844 L 274.195312 140.40625 C 274.253906 140.363281 275.726562 140.386719 275.726562 140.386719 L 277.132812 140.367188 L 280.691406 141 L 280.945312 141.046875 L 282.148438 141.433594 L 283.535156 142.511719 L 285 143.945312 L 285.277344 144.214844 L 286.226562 144.613281 L 286.515625 144.742188 L 287.300781 144.613281 L 288.417969 144.03125 L 289.261719 143.320312 L 290.414062 142.691406 L 290.441406 142.652344 L 291.089844 141.675781 L 291.109375 141.65625 L 291.121094 141.660156 L 291.125 141.65625 L 291.113281 141.652344 L 291.367188 141.265625 L 293.59375 140.398438 L 296.207031 140.246094 L 296.5 140.085938 L 296.664062 140 L 297.355469 139.1875 L 298.003906 139.183594 L 299.570312 139.75 L 300.671875 139.53125 L 301.546875 139.878906 L 302.226562 139.800781 L 303.511719 139.648438 L 304.886719 140.617188 L 305.691406 140.71875 L 308.519531 142.375 L 308.664062 142.398438 L 308.742188 142.414062 L 308.902344 142.4375 L 309.238281 142.339844 L 309.738281 142.195312 L 309.804688 142.175781 L 309.867188 142.261719 L 310.1875 142.714844 L 310.628906 142.777344 L 311.152344 142.082031 L 310.945312 141.765625 L 310.867188 141.652344 L 309.855469 141.445312 L 308.949219 139.894531 L 309.8125 138.964844 L 308.457031 137.300781 L 308.230469 137.027344 L 308.15625 136.910156 L 307.6875 136.195312 L 305.3125 132.578125 L 302.222656 130.113281 L 301.140625 129.246094 L 301.132812 129.242188 L 300.753906 128.945312 L 299.101562 127.265625 L 297.921875 125.699219 L 297.769531 125.363281 L 297.523438 124.832031 L 296.820312 123.292969 L 295.585938 122.347656 L 294.585938 121.25 L 294.535156 121.183594 L 292.464844 118.371094 L 292.125 117.902344 L 291.636719 117.617188 L 290.601562 117.613281 L 290.507812 117.515625 L 290.449219 117.453125 L 290.976562 116.925781 L 291.53125 116.785156 L 291.769531 116.238281 L 290.714844 113.1875 L 290.707031 113.082031 L 290.628906 112.105469 L 291.488281 107.679688 L 291.597656 107.140625 L 293.0625 104.160156 L 293.96875 103.417969 L 294.960938 101.472656 L 295.808594 100.226562 L 296.621094 99.4375 L 296.761719 99.351562 L 298.230469 98.464844 L 299.460938 98.292969 L 300.636719 98.125 L 302.683594 98.757812 L 304.636719 98.71875 L 305.015625 98.679688 L 305.902344 98.578125 L 307.355469 98.121094 L 308.042969 97.695312 L 308.398438 97.148438 L 309.144531 94.65625 L 309.382812 93.863281 L 309.839844 93 L 312.492188 89.945312 L 314.5 88.089844 L 319.007812 84.785156 L 321.214844 83.464844 L 322.34375 82.792969 L 332.40625 78.320312 L 335.023438 75.667969 L 336.382812 74.289062 L 338.792969 72.671875 L 341.613281 71.515625 L 344.042969 69.59375 L 344.570312 68.929688 L 345.238281 66.777344 L 345.796875 66.640625 L 346.300781 65.554688 L 346.441406 65.246094 L 348.421875 63.851562 L 348.648438 63.738281 L 356.339844 59.882812 L 357.457031 60.035156 L 358.058594 59.140625 L 360.296875 58.765625 L 360.707031 58.695312 L 361.257812 58.417969 L 361.730469 57.621094 L 361.730469 57.460938 L 361.792969 55.324219 L 362.273438 54.746094 L 362.53125 53.339844 L 362.777344 53.015625 L 363.035156 52.675781 L 363.667969 52.230469 L 363.558594 51.964844 Z M 363.566406 51.984375 "/>
</g>
</svg>
