<?xml version="1.0" encoding="UTF-8"?>
<svg xmlns="http://www.w3.org/2000/svg" xmlns:xlink="http://www.w3.org/1999/xlink" width="px" height="px" viewBox="0 0 600 300" version="1.1">
<g id="surface1">
<rect x="0" y="0" width="600" height="300" style="fill:rgb(0%,41.960784%,24.705882%);fill-opacity:1;stroke:none;"/>
<path style=" stroke:none;fill-rule:nonzero;fill:rgb(98.823529%,81.960784%,8.627451%);fill-opacity:1;" d="M 0 112.5 L 600 112.5 L 600 162.5 L 0 162.5 Z M 0 112.5 "/>
<path style=" stroke:none;fill-rule:nonzero;fill:rgb(100%,100%,100%);fill-opacity:1;" d="M 0 137.5 L 600 137.5 L 600 187.5 L 0 187.5 Z M 0 137.5 "/>
<path style=" stroke:none;fill-rule:nonzero;fill:rgb(0%,0%,0%);fill-opacity:1;" d="M 0 137.5 L 600 137.5 L 600 162.5 L 0 162.5 Z M 0 137.5 "/>
<path style=" stroke:none;fill-rule:nonzero;fill:rgb(98.823529%,81.960784%,8.627451%);fill-opacity:1;" d="M 262.5 0 L 312.5 0 L 312.5 300 L 262.5 300 Z M 262.5 0 "/>
<path style=" stroke:none;fill-rule:nonzero;fill:rgb(100%,100%,100%);fill-opacity:1;" d="M 287.5 0 L 337.5 0 L 337.5 300 L 287.5 300 Z M 287.5 0 "/>
<path style=" stroke:none;fill-rule:nonzero;fill:rgb(0%,0%,0%);fill-opacity:1;" d="M 287.5 0 L 312.5 0 L 312.5 300 L 287.5 300 Z M 287.5 0 "/>
<path style=" stroke:none;fill-rule:nonzero;fill:rgb(83.137255%,10.980392%,18.823529%);fill-opacity:1;" d="M 375 150 C 375 191.421875 341.421875 225 300 225 C 258.578125 225 225 191.421875 225 150 C 225 108.578125 258.578125 75 300 75 C 341.421875 75 375 108.578125 375 150 Z M 375 150 "/>
<path style="fill-rule:nonzero;fill:rgb(0%,41.960784%,24.705882%);fill-opacity:1;stroke-width:1;stroke-linecap:butt;stroke-linejoin:miter;stroke:rgb(0%,0%,0%);stroke-opacity:1;stroke-miterlimit:4;" d="M -4.8125 -118.40625 L 0 -132.132812 L 4.367188 -118.632812 L 19.023438 -118.40625 L 7.429688 -109.5625 L 12.679688 -94.507812 L 0 -103.796875 L -12.460938 -94.953125 L -7.648438 -109.5625 L -19.023438 -118.1875 Z M -4.8125 -118.40625 " transform="matrix(0.5,0,0,0.5,300,150)"/>
<path style="fill-rule:nonzero;fill:rgb(0%,41.960784%,24.705882%);fill-opacity:1;stroke-width:1;stroke-linecap:butt;stroke-linejoin:miter;stroke:rgb(0%,0%,0%);stroke-opacity:1;stroke-miterlimit:4;" d="M -4.8125 -118.40625 L 0 -132.132812 L 4.367188 -118.632812 L 19.023438 -118.40625 L 7.429688 -109.5625 L 12.679688 -94.507812 L 0 -103.796875 L -12.460938 -94.953125 L -7.648438 -109.5625 L -19.023438 -118.1875 Z M -4.8125 -118.40625 " transform="matrix(-0.5,0,0,-0.5,300,150)"/>
<path style="fill-rule:nonzero;fill:rgb(0%,41.960784%,24.705882%);fill-opacity:1;stroke-width:1;stroke-linecap:butt;stroke-linejoin:miter;stroke:rgb(0%,0%,0%);stroke-opacity:1;stroke-miterlimit:4;" d="M -4.809055 -118.413221 L -0.00177864 -132.132443 L 4.37032 -118.631698 L 19.017069 -118.409305 L 7.429761 -109.556078 L 12.681656 -94.51211 L 0.00249257 -103.802551 L -12.463052 -94.948595 L -7.648456 -109.561559 L -19.017186 -118.191403 Z M -4.809055 -118.413221 " transform="matrix(0.404508,0.293893,-0.293893,0.404508,300,150)"/>
<path style="fill-rule:nonzero;fill:rgb(0%,41.960784%,24.705882%);fill-opacity:1;stroke-width:1;stroke-linecap:butt;stroke-linejoin:miter;stroke:rgb(0%,0%,0%);stroke-opacity:1;stroke-miterlimit:4;" d="M -4.809055 -118.413221 L -0.00177864 -132.132443 L 4.37032 -118.631698 L 19.017069 -118.409305 L 7.429761 -109.556078 L 12.681656 -94.51211 L 0.00249257 -103.802551 L -12.463052 -94.948595 L -7.648456 -109.561559 L -19.017186 -118.191403 Z M -4.809055 -118.413221 " transform="matrix(-0.404508,-0.293893,0.293893,-0.404508,300,150)"/>
<path style="fill-rule:nonzero;fill:rgb(0%,41.960784%,24.705882%);fill-opacity:1;stroke-width:1;stroke-linecap:butt;stroke-linejoin:miter;stroke:rgb(0%,0%,0%);stroke-opacity:1;stroke-miterlimit:4;" d="M -4.809836 -118.40655 L 0.00247657 -132.13021 L 4.371713 -118.626958 L 19.021554 -118.409581 L 7.429983 -109.558364 L 12.678109 -94.512718 L -0.0023384 -103.799796 L -12.456155 -94.949445 L -7.650594 -109.56247 L -19.016635 -118.192464 Z M -4.809836 -118.40655 " transform="matrix(0.154508,0.475528,-0.475528,0.154508,300,150)"/>
<path style="fill-rule:nonzero;fill:rgb(0%,41.960784%,24.705882%);fill-opacity:1;stroke-width:1;stroke-linecap:butt;stroke-linejoin:miter;stroke:rgb(0%,0%,0%);stroke-opacity:1;stroke-miterlimit:4;" d="M -4.809836 -118.40655 L 0.00247657 -132.13021 L 4.371713 -118.626958 L 19.021554 -118.409581 L 7.429983 -109.558364 L 12.678109 -94.512718 L -0.0023384 -103.799796 L -12.456155 -94.949445 L -7.650594 -109.56247 L -19.016635 -118.192464 Z M -4.809836 -118.40655 " transform="matrix(-0.154508,-0.475528,0.475528,-0.154508,300,150)"/>
<path style="fill-rule:nonzero;fill:rgb(0%,41.960784%,24.705882%);fill-opacity:1;stroke-width:1;stroke-linecap:butt;stroke-linejoin:miter;stroke:rgb(0%,0%,0%);stroke-opacity:1;stroke-miterlimit:4;" d="M -4.810653 -118.410407 L -0.00247657 -132.13021 L 4.366842 -118.632267 L 19.020737 -118.407376 L 7.430667 -109.556728 L 12.680137 -94.512919 L 0.0023384 -103.799796 L -12.459822 -94.953298 L -7.652324 -109.560052 L -19.015812 -118.189654 Z M -4.810653 -118.410407 " transform="matrix(-0.154508,0.475528,-0.475528,-0.154508,300,150)"/>
<path style="fill-rule:nonzero;fill:rgb(0%,41.960784%,24.705882%);fill-opacity:1;stroke-width:1;stroke-linecap:butt;stroke-linejoin:miter;stroke:rgb(0%,0%,0%);stroke-opacity:1;stroke-miterlimit:4;" d="M -4.810653 -118.410407 L -0.00247657 -132.13021 L 4.366842 -118.632267 L 19.020737 -118.407376 L 7.430667 -109.556728 L 12.680137 -94.512919 L 0.0023384 -103.799796 L -12.459822 -94.953298 L -7.652324 -109.560052 L -19.015812 -118.189654 Z M -4.810653 -118.410407 " transform="matrix(0.154508,-0.475528,0.475528,0.154508,300,150)"/>
<path style="fill-rule:nonzero;fill:rgb(0%,41.960784%,24.705882%);fill-opacity:1;stroke-width:1;stroke-linecap:butt;stroke-linejoin:miter;stroke:rgb(0%,0%,0%);stroke-opacity:1;stroke-miterlimit:4;" d="M -4.810768 -118.410923 L 0.00177864 -132.132443 L 4.366675 -118.628405 L 19.021676 -118.410247 L 7.425021 -109.559729 L 12.677507 -94.512738 L -0.00249257 -103.802551 L -12.460152 -94.949898 L -7.648605 -109.560569 L -19.021559 -118.190462 Z M -4.810768 -118.410923 " transform="matrix(-0.404508,0.293893,-0.293893,-0.404508,300,150)"/>
<path style="fill-rule:nonzero;fill:rgb(0%,41.960784%,24.705882%);fill-opacity:1;stroke-width:1;stroke-linecap:butt;stroke-linejoin:miter;stroke:rgb(0%,0%,0%);stroke-opacity:1;stroke-miterlimit:4;" d="M -4.810768 -118.410923 L 0.00177864 -132.132443 L 4.366675 -118.628405 L 19.021676 -118.410247 L 7.425021 -109.559729 L 12.677507 -94.512738 L -0.00249257 -103.802551 L -12.460152 -94.949898 L -7.648605 -109.560569 L -19.021559 -118.190462 Z M -4.810768 -118.410923 " transform="matrix(0.404508,-0.293893,0.293893,0.404508,300,150)"/>
<path style="fill-rule:nonzero;fill:rgb(0%,41.960784%,24.705882%);fill-opacity:1;stroke-width:2.5;stroke-linecap:butt;stroke-linejoin:miter;stroke:rgb(0%,0%,0%);stroke-opacity:1;stroke-miterlimit:4;" d="M 711.025606 586.130857 C 711.016041 481.283482 697.213679 396.30601 680.214679 396.317183 C 663.188898 396.324877 649.417144 481.284861 649.399927 586.128756 C 649.409492 690.97613 663.185072 775.950123 680.210853 775.942429 C 697.234722 775.968124 711.008388 690.974751 711.025606 586.130857 Z M 711.025606 586.130857 " transform="matrix(0.144775,-0.01509,0.008295,0.11613,206.9415,112.037)"/>
<path style="fill-rule:nonzero;fill:rgb(0%,41.960784%,24.705882%);fill-opacity:1;stroke-width:2.5;stroke-linecap:butt;stroke-linejoin:miter;stroke:rgb(0%,0%,0%);stroke-opacity:1;stroke-miterlimit:4;" d="M 711.014434 586.123841 C 711.012476 481.306565 697.227438 396.296433 680.211493 396.318338 C 663.197369 396.306853 649.407478 481.30413 649.409436 586.121406 C 649.409574 690.97207 663.196432 775.948813 680.210557 775.960298 C 697.226501 775.938393 711.014573 690.974506 711.014434 586.123841 Z M 711.014434 586.123841 " transform="matrix(0.15313,-0.01592,0.008345,0.116125,205.6335,112.5565)"/>
<path style="fill-rule:nonzero;fill:rgb(0%,41.960784%,24.705882%);fill-opacity:1;stroke-width:2.5;stroke-linecap:butt;stroke-linejoin:miter;stroke:rgb(0%,0%,0%);stroke-opacity:1;stroke-miterlimit:4;" d="M 711.009222 586.141242 C 711.017038 481.285653 697.231975 396.308162 680.20491 396.294526 C 663.207293 396.31429 649.408218 481.308609 649.402608 586.133992 C 649.396999 690.959376 663.182062 775.936866 680.209127 775.950502 C 697.236192 775.964138 711.003612 690.966625 711.009222 586.141242 Z M 711.009222 586.141242 " transform="matrix(0.1225,-0.01295,0.00895,0.128375,224.0265,104.532)"/>
<path style="fill-rule:nonzero;fill:rgb(61.176471%,29.019608%,0%);fill-opacity:1;stroke-width:0.657;stroke-linecap:butt;stroke-linejoin:miter;stroke:rgb(0%,0%,0%);stroke-opacity:1;stroke-miterlimit:4;" d="M -44.210938 62.5625 C -36.554688 62.242188 -39.882812 58.148438 -36.015625 55.96875 C -32.148438 53.789062 -26.648438 55.234375 -25 57.953125 C -23.351562 60.679688 -24.671875 63.351562 -22.546875 63.390625 C -20.421875 63.421875 37.382812 61 39.460938 63.28125 C 41.546875 65.5625 41.890625 70.0625 39.734375 71.804688 C 37.570312 73.578125 -35.5 74.398438 -38.015625 72.546875 C -40.539062 70.71875 -44.21875 63.015625 -44.210938 62.5625 Z M -44.210938 62.5625 " transform="matrix(0.5,0,0,0.5,300,150)"/>
<path style="fill-rule:nonzero;fill:rgb(98.823529%,81.960784%,8.627451%);fill-opacity:1;stroke-width:0.633;stroke-linecap:butt;stroke-linejoin:miter;stroke:rgb(0%,0%,0%);stroke-opacity:1;stroke-miterlimit:4;" d="M -3.375 68.195312 C -3.515625 73.96875 5.023438 72.335938 5.140625 77.15625 C 4.890625 82.273438 -9.179688 77.46875 -9.3125 68.117188 C -8.734375 58.773438 5.039062 54.15625 5.210938 59.492188 C 5.335938 63.929688 -3.234375 62.421875 -3.375 68.195312 Z M -3.375 68.195312 " transform="matrix(0.5,0,0,0.5,300,150)"/>
<path style="fill-rule:nonzero;fill:rgb(98.823529%,81.960784%,8.627451%);fill-opacity:1;stroke-width:0.633;stroke-linecap:butt;stroke-linejoin:miter;stroke:rgb(0%,0%,0%);stroke-opacity:1;stroke-miterlimit:4;" d="M 1.664062 68.257812 C 1.523438 74.039062 10.070312 72.398438 10.1875 77.226562 C 9.929688 82.335938 -4.140625 77.539062 -4.273438 68.179688 C -3.6875 58.835938 10.078125 54.21875 10.25 59.554688 C 10.375 63.992188 1.804688 62.484375 1.664062 68.257812 Z M 1.664062 68.257812 " transform="matrix(0.5,0,0,0.5,300,150)"/>
<path style="fill-rule:nonzero;fill:rgb(98.823529%,81.960784%,8.627451%);fill-opacity:1;stroke-width:0.633;stroke-linecap:butt;stroke-linejoin:miter;stroke:rgb(0%,0%,0%);stroke-opacity:1;stroke-miterlimit:4;" d="M 7.070312 68.054688 C 6.929688 73.835938 15.476562 72.195312 15.59375 77.023438 C 15.335938 82.132812 1.265625 77.335938 1.132812 67.976562 C 1.71875 58.632812 15.484375 54.015625 15.65625 59.351562 C 15.78125 63.789062 7.210938 62.28125 7.070312 68.054688 Z M 7.070312 68.054688 " transform="matrix(0.5,0,0,0.5,300,150)"/>
<path style="fill-rule:nonzero;fill:rgb(98.823529%,81.960784%,8.627451%);fill-opacity:1;stroke-width:0.633;stroke-linecap:butt;stroke-linejoin:miter;stroke:rgb(0%,0%,0%);stroke-opacity:1;stroke-miterlimit:4;" d="M 12.109375 68.125 C 11.976562 73.898438 20.515625 72.265625 20.632812 77.085938 C 20.375 82.203125 6.304688 77.398438 6.171875 68.046875 C 6.757812 58.703125 20.523438 54.085938 20.695312 59.421875 C 20.820312 63.859375 12.25 62.351562 12.109375 68.125 Z M 12.109375 68.125 " transform="matrix(0.5,0,0,0.5,300,150)"/>
<path style="fill-rule:nonzero;fill:rgb(61.176471%,29.019608%,0%);fill-opacity:1;stroke-width:0.399;stroke-linecap:butt;stroke-linejoin:miter;stroke:rgb(0%,0%,0%);stroke-opacity:1;stroke-miterlimit:4;" d="M 481.912121 -41.086739 C 481.915695 -42.966809 480.330603 -44.491149 478.377388 -44.490101 C 476.429833 -44.489133 474.844384 -42.967837 474.846469 -41.087848 C 474.848555 -39.207859 476.427987 -37.683437 478.381202 -37.684486 C 480.334417 -37.685535 481.914206 -39.206749 481.912121 -41.086739 Z M 481.912121 -41.086739 " transform="matrix(0.68996,0.01039,-0.01531,0.72722,-12.6135,208.6025)"/>
<path style="fill-rule:nonzero;fill:rgb(0%,41.960784%,24.705882%);fill-opacity:1;stroke-width:2.5;stroke-linecap:butt;stroke-linejoin:miter;stroke:rgb(0%,0%,0%);stroke-opacity:1;stroke-miterlimit:4;" d="M 447.906691 904.994538 C 447.909801 891.668812 438.589113 880.847046 427.101349 880.84656 C 415.613586 880.846074 406.288833 891.67375 406.285723 904.999476 C 406.282612 918.325203 415.603301 929.146969 427.091064 929.147455 C 438.615895 929.150877 447.936683 918.342659 447.906691 904.994538 Z M 447.906691 904.994538 " transform="matrix(0.10371,-0.01565,0.02113,0.19757,240.011,3.292)"/>
<path style="fill-rule:nonzero;fill:rgb(0%,41.960784%,24.705882%);fill-opacity:1;stroke-width:2.5;stroke-linecap:butt;stroke-linejoin:miter;stroke:rgb(0%,0%,0%);stroke-opacity:1;stroke-miterlimit:4;" d="M 447.931538 905.001252 C 447.934649 891.675525 438.61396 880.853759 427.126196 880.853273 C 415.601366 880.849851 406.280578 891.65807 406.31057 905.00619 C 406.307459 918.331916 415.628148 929.153682 427.115911 929.154168 C 438.60764 929.135197 447.928427 918.326978 447.931538 905.001252 Z M 447.931538 905.001252 " transform="matrix(0.10371,-0.01565,0.02113,0.19757,236.3325,3.002)"/>
<path style="fill-rule:nonzero;fill:rgb(0%,41.960784%,24.705882%);fill-opacity:1;stroke-width:2.5;stroke-linecap:butt;stroke-linejoin:miter;stroke:rgb(0%,0%,0%);stroke-opacity:1;stroke-miterlimit:4;" d="M 447.905264 905.001543 C 447.912339 891.656359 438.587686 880.854051 427.099922 880.853565 C 415.612158 880.853079 406.291371 891.661297 406.284296 905.006481 C 406.281185 918.332208 415.605838 929.134516 427.093601 929.135002 C 438.618432 929.138424 447.93922 918.330206 447.905264 905.001543 Z M 447.905264 905.001543 " transform="matrix(0.10371,-0.01565,0.02113,0.19757,233.6985,-1.7055)"/>
<path style="fill-rule:nonzero;fill:rgb(0%,41.960784%,24.705882%);fill-opacity:1;stroke-width:2.5;stroke-linecap:butt;stroke-linejoin:miter;stroke:rgb(0%,0%,0%);stroke-opacity:1;stroke-miterlimit:4;" d="M 447.930288 905.008909 C 447.936468 891.657872 438.614326 880.857783 427.099159 880.849035 C 415.618424 880.8607 406.290725 891.673484 406.288638 905.006896 C 406.286551 918.340308 415.608694 929.140397 427.123861 929.149145 C 438.604595 929.137479 447.928201 918.342321 447.930288 905.008909 Z M 447.930288 905.008909 " transform="matrix(0.099715,-0.01577,0.02316,0.217965,237.2965,-20.3175)"/>
<path style="fill-rule:nonzero;fill:rgb(0%,41.960784%,24.705882%);fill-opacity:1;stroke-width:2.5;stroke-linecap:butt;stroke-linejoin:miter;stroke:rgb(0%,0%,0%);stroke-opacity:1;stroke-miterlimit:4;" d="M 447.92304 905.008402 C 447.937944 891.668221 438.590693 880.851854 427.113796 880.865133 C 415.602479 880.856701 406.311774 891.662102 406.29687 905.002283 C 406.281966 918.342463 415.633323 929.140026 427.106114 929.145551 C 438.617431 929.153983 447.912242 918.329778 447.92304 905.008402 Z M 447.92304 905.008402 " transform="matrix(0.09975,-0.01542,0.02178,0.20437,243.675,-8.116)"/>
<path style="fill-rule:nonzero;fill:rgb(0%,41.960784%,24.705882%);fill-opacity:1;stroke-width:2.5;stroke-linecap:butt;stroke-linejoin:miter;stroke:rgb(0%,0%,0%);stroke-opacity:1;stroke-miterlimit:4;" d="M 447.915656 904.990566 C 447.926454 891.669189 438.617729 880.855729 427.106412 880.847297 C 415.629515 880.860576 406.300284 891.66307 406.28538 905.003251 C 406.313108 918.327534 415.621834 929.140994 427.094625 929.146519 C 438.610047 929.136147 447.939279 918.333653 447.915656 904.990566 Z M 447.915656 904.990566 " transform="matrix(0.09975,-0.01542,0.02178,0.20437,240.848,-9.8195)"/>
<path style="fill-rule:nonzero;fill:rgb(0%,41.960784%,24.705882%);fill-opacity:1;stroke-width:2.5;stroke-linecap:butt;stroke-linejoin:miter;stroke:rgb(0%,0%,0%);stroke-opacity:1;stroke-miterlimit:4;" d="M 447.916088 904.992892 C 447.926886 891.671515 438.618161 880.858055 427.106844 880.849623 C 415.629947 880.862902 406.300716 891.665396 406.285812 905.005577 C 406.31354 918.32986 415.622266 929.14332 427.095057 929.148845 C 438.610479 929.138474 447.93971 918.335979 447.916088 904.992892 Z M 447.916088 904.992892 " transform="matrix(0.09975,-0.01542,0.02178,0.20437,237.2815,-12.277)"/>
<path style="fill-rule:nonzero;fill:rgb(0%,41.960784%,24.705882%);fill-opacity:1;stroke-width:2.5;stroke-linecap:butt;stroke-linejoin:miter;stroke:rgb(0%,0%,0%);stroke-opacity:1;stroke-miterlimit:4;" d="M 447.932284 904.997631 C 447.904556 891.673347 438.595831 880.859888 427.12304 880.854362 C 415.607617 880.864734 406.278386 891.667228 406.306114 904.991512 C 406.29121 918.331692 415.599936 929.145152 427.111252 929.153584 C 438.588149 929.140306 447.917381 918.337811 447.932284 904.997631 Z M 447.932284 904.997631 " transform="matrix(0.09975,-0.01542,0.02178,0.20437,233.979,-13.766)"/>
<path style="fill-rule:nonzero;fill:rgb(58.039216%,38.039216%,78.823529%);fill-opacity:1;stroke-width:0.575;stroke-linecap:butt;stroke-linejoin:miter;stroke:rgb(0%,0%,0%);stroke-opacity:1;stroke-miterlimit:4;" d="M -14.734375 -52.6875 C -14.734375 -52.6875 -29.390625 -39.96875 -27.742188 -5.539062 C -25.898438 29.078125 4.648438 45.351562 4.648438 45.351562 C 4.648438 45.351562 12.4375 35.523438 11.53125 7.710938 C 9.34375 -32.960938 -5.078125 -50.929688 -5.078125 -50.929688 Z M -14.734375 -52.6875 " transform="matrix(0.5,0,0,0.5,300,150)"/>
<path style="fill-rule:nonzero;fill:rgb(0%,41.960784%,24.705882%);fill-opacity:1;stroke-width:2.5;stroke-linecap:butt;stroke-linejoin:miter;stroke:rgb(0%,0%,0%);stroke-opacity:1;stroke-miterlimit:4;" d="M 447.938788 904.999308 C 447.931735 891.674369 438.61986 880.85991 427.107071 880.862021 C 415.631461 880.863552 406.313046 891.672832 406.282919 904.998351 C 406.292677 918.34296 415.601847 929.137749 427.114636 929.135639 C 438.592951 929.153777 447.908661 918.324827 447.938788 904.999308 Z M 447.938788 904.999308 " transform="matrix(0.10484,0.00309,-0.01442,0.19817,277.4085,-4.7005)"/>
<path style="fill-rule:nonzero;fill:rgb(0%,41.960784%,24.705882%);fill-opacity:1;stroke-width:2.5;stroke-linecap:butt;stroke-linejoin:miter;stroke:rgb(0%,0%,0%);stroke-opacity:1;stroke-miterlimit:4;" d="M 447.916496 904.997606 C 447.909444 891.672666 438.597569 880.858208 427.121959 880.859739 C 415.60917 880.861849 406.290754 891.67113 406.297807 904.996069 C 406.307565 918.340678 415.616734 929.135467 427.09505 929.153606 C 438.607839 929.151495 447.926254 918.342214 447.916496 904.997606 Z M 447.916496 904.997606 " transform="matrix(0.10484,0.00309,-0.01442,0.19817,273.8405,-5.6415)"/>
<path style="fill-rule:nonzero;fill:rgb(0%,41.960784%,24.705882%);fill-opacity:1;stroke-width:2.5;stroke-linecap:butt;stroke-linejoin:miter;stroke:rgb(0%,0%,0%);stroke-opacity:1;stroke-miterlimit:4;" d="M 447.908174 904.999943 C 447.938301 891.674424 438.589246 880.860545 427.113636 880.862076 C 415.600847 880.864187 406.282432 891.673467 406.289484 904.998407 C 406.299242 918.343015 415.608412 929.137805 427.121201 929.135694 C 438.599516 929.153833 447.915226 918.324882 447.908174 904.999943 Z M 447.908174 904.999943 " transform="matrix(0.10484,0.00309,-0.01442,0.19817,272.0875,-10.7435)"/>
<path style="fill-rule:nonzero;fill:rgb(0%,41.960784%,24.705882%);fill-opacity:1;stroke-width:2.5;stroke-linecap:butt;stroke-linejoin:miter;stroke:rgb(0%,0%,0%);stroke-opacity:1;stroke-miterlimit:4;" d="M 447.931034 904.994038 C 447.93916 891.663385 438.596163 880.859432 427.100466 880.852932 C 415.607608 880.864272 406.295313 891.664103 406.287187 904.994756 C 406.2819 918.343249 415.624897 929.147202 427.117755 929.135862 C 438.613451 929.142362 447.925747 918.342532 447.931034 904.994038 Z M 447.931034 904.994038 " transform="matrix(0.10093,0.002255,-0.016055,0.2186,278.945,-28.416)"/>
<path style="fill-rule:nonzero;fill:rgb(0%,41.960784%,24.705882%);fill-opacity:1;stroke-width:2.5;stroke-linecap:butt;stroke-linejoin:miter;stroke:rgb(0%,0%,0%);stroke-opacity:1;stroke-miterlimit:4;" d="M 447.919724 904.991251 C 447.915194 891.670649 438.603608 880.850419 427.107415 880.863122 C 415.608397 880.856804 406.296869 891.665969 406.304225 905.005592 C 406.308755 918.326194 415.620341 929.146424 427.119359 929.152742 C 438.615552 929.140039 447.927079 918.330874 447.919724 904.991251 Z M 447.919724 904.991251 " transform="matrix(0.1009,0.002605,-0.01499,0.20498,283.0465,-15.2735)"/>
<path style="fill-rule:nonzero;fill:rgb(0%,41.960784%,24.705882%);fill-opacity:1;stroke-width:2.5;stroke-linecap:butt;stroke-linejoin:miter;stroke:rgb(0%,0%,0%);stroke-opacity:1;stroke-miterlimit:4;" d="M 447.936634 905.009178 C 447.929278 891.669555 438.617692 880.849325 427.121499 880.862028 C 415.622481 880.85571 406.310954 891.664876 406.279668 905.004989 C 406.284198 918.325591 415.595784 929.145821 427.094802 929.152139 C 438.590995 929.139437 447.941164 918.32978 447.936634 905.009178 Z M 447.936634 905.009178 " transform="matrix(0.1009,0.002605,-0.01499,0.20498,280.5685,-17.453)"/>
<path style="fill-rule:nonzero;fill:rgb(0%,41.960784%,24.705882%);fill-opacity:1;stroke-width:2.5;stroke-linecap:butt;stroke-linejoin:miter;stroke:rgb(0%,0%,0%);stroke-opacity:1;stroke-miterlimit:4;" d="M 447.909242 905.006172 C 447.940527 891.666059 438.593126 880.86534 427.094108 880.859022 C 415.59509 880.852704 406.283562 891.66187 406.290918 905.001492 C 406.298274 918.341115 415.607034 929.142325 427.106052 929.148642 C 438.602245 929.13594 447.913772 918.326774 447.909242 905.006172 Z M 447.909242 905.006172 " transform="matrix(0.1009,0.002605,-0.01499,0.20498,277.497,-20.507)"/>
<path style="fill-rule:nonzero;fill:rgb(0%,41.960784%,24.705882%);fill-opacity:1;stroke-width:2.5;stroke-linecap:butt;stroke-linejoin:miter;stroke:rgb(0%,0%,0%);stroke-opacity:1;stroke-miterlimit:4;" d="M 447.943315 904.999946 C 447.935959 891.660323 438.588558 880.859605 427.12818 880.852796 C 415.629162 880.846478 406.281819 891.675155 406.286349 904.995757 C 406.293705 918.33538 415.602465 929.136589 427.101483 929.142907 C 438.600502 929.149225 447.912029 918.34006 447.943315 904.999946 Z M 447.943315 904.999946 " transform="matrix(0.1009,0.002605,-0.01499,0.20498,274.513,-22.5605)"/>
<path style="fill-rule:nonzero;fill:rgb(83.137255%,10.980392%,18.823529%);fill-opacity:1;stroke-width:1.25;stroke-linecap:butt;stroke-linejoin:miter;stroke:rgb(0%,0%,0%);stroke-opacity:1;stroke-miterlimit:4;" d="M 682.702136 606.091591 C 682.683195 503.114186 656.595938 419.635569 624.428989 419.606735 C 592.247516 419.613723 566.133036 503.105213 566.137451 606.118441 C 566.156391 709.095847 592.229124 792.610286 624.410598 792.603298 C 656.592071 792.596309 682.706551 709.104819 682.702136 606.091591 Z M 682.702136 606.091591 " transform="matrix(0.098935,-0.038215,0.040115,0.09355,222.081,120.3935)"/>
<path style="fill-rule:nonzero;fill:rgb(0%,41.960784%,24.705882%);fill-opacity:1;stroke-width:1.464;stroke-linecap:butt;stroke-linejoin:miter;stroke:rgb(0%,0%,0%);stroke-opacity:1;stroke-miterlimit:4;" d="M 228.948523 356.759138 C 228.948509 349.623372 224.106032 343.853309 218.132297 343.8487 C 212.158562 343.844092 207.311457 349.614179 207.311471 356.749945 C 207.311485 363.885712 212.153961 369.655774 218.127697 369.660383 C 224.101432 369.664992 228.948258 363.873737 228.948523 356.759138 Z M 228.948523 356.759138 " transform="matrix(0.24914,0.004435,-0.003285,0.18448,250.245,68.615)"/>
<path style="fill-rule:nonzero;fill:rgb(0%,41.960784%,24.705882%);fill-opacity:1;stroke-width:1.546;stroke-linecap:butt;stroke-linejoin:miter;stroke:rgb(0%,0%,0%);stroke-opacity:1;stroke-miterlimit:4;" d="M 228.952728 356.754833 C 228.952712 349.619067 224.106983 343.837 218.121226 343.838929 C 212.152966 343.840481 207.302382 349.619731 207.302397 356.755498 C 207.302101 363.870096 212.147831 369.652164 218.133588 369.650234 C 224.101848 369.648682 228.952432 363.869432 228.952728 356.754833 Z M 228.952728 356.754833 " transform="matrix(0.223185,0.003975,-0.003285,0.18448,257.9325,65.35)"/>
<path style="fill-rule:nonzero;fill:rgb(0%,41.960784%,24.705882%);fill-opacity:1;stroke-width:1.546;stroke-linecap:butt;stroke-linejoin:miter;stroke:rgb(0%,0%,0%);stroke-opacity:1;stroke-miterlimit:4;" d="M 228.95576 356.75155 C 228.955745 349.615783 224.110327 343.854884 218.124258 343.835645 C 212.155998 343.837197 207.305414 349.616447 207.305429 356.752214 C 207.305134 363.866813 212.150863 369.64888 218.13662 369.646951 C 224.10488 369.645398 228.955776 363.887316 228.95576 356.75155 Z M 228.95576 356.75155 " transform="matrix(0.223185,0.003975,-0.003285,0.18448,254.674,65.292)"/>
<path style="fill-rule:nonzero;fill:rgb(0%,41.960784%,24.705882%);fill-opacity:1;stroke-width:1.56;stroke-linecap:butt;stroke-linejoin:miter;stroke:rgb(0%,0%,0%);stroke-opacity:1;stroke-miterlimit:4;" d="M 228.959882 356.747456 C 228.949366 349.620215 224.106776 343.849587 218.136078 343.835119 C 212.14896 343.843601 207.308383 349.62127 207.302181 356.748913 C 207.312697 363.876154 212.155287 369.646781 218.125985 369.661249 C 224.113103 369.652767 228.95368 363.875099 228.959882 356.747456 Z M 228.959882 356.747456 " transform="matrix(0.23357,0.00416,-0.003085,0.173185,253.056,66.815)"/>
<path style="fill-rule:nonzero;fill:rgb(0%,41.960784%,24.705882%);fill-opacity:1;stroke-width:1.56;stroke-linecap:butt;stroke-linejoin:miter;stroke:rgb(0%,0%,0%);stroke-opacity:1;stroke-miterlimit:4;" d="M 228.951 356.743519 C 228.957202 349.615876 224.114613 343.845249 218.127494 343.853731 C 212.156796 343.839263 207.299501 349.617333 207.310017 356.744574 C 207.303815 363.872217 212.146702 369.665392 218.133821 369.656911 C 224.104221 369.64883 228.944797 363.871162 228.951 356.743519 Z M 228.951 356.743519 " transform="matrix(0.23357,0.00416,-0.003085,0.173185,252.769,63.9915)"/>
<path style="fill-rule:nonzero;fill:rgb(0%,41.960784%,24.705882%);fill-opacity:1;stroke-width:1.546;stroke-linecap:butt;stroke-linejoin:miter;stroke:rgb(0%,0%,0%);stroke-opacity:1;stroke-miterlimit:4;" d="M 228.954473 356.749714 C 228.954457 349.613947 224.10904 343.853048 218.123283 343.854977 C 212.154711 343.835362 207.304127 349.614612 207.304142 356.750378 C 207.304158 363.886145 212.149576 369.647044 218.135333 369.645115 C 224.103904 369.66473 228.954489 363.88548 228.954473 356.749714 Z M 228.954473 356.749714 " transform="matrix(0.223185,0.003975,-0.003285,0.18448,251.561,63.39)"/>
<path style="fill-rule:nonzero;fill:rgb(0%,41.960784%,24.705882%);fill-opacity:1;stroke-width:1.562;stroke-linecap:butt;stroke-linejoin:miter;stroke:rgb(0%,0%,0%);stroke-opacity:1;stroke-miterlimit:4;" d="M 228.949571 356.759714 C 228.951671 349.626544 224.107758 343.853667 218.122001 343.855636 C 212.15343 343.835612 207.30134 349.627222 207.29924 356.760392 C 207.314325 363.871569 212.158238 369.644446 218.12681 369.66447 C 224.112567 369.662501 228.947159 363.871275 228.949571 356.759714 Z M 228.949571 356.759714 " transform="matrix(0.223185,0.003975,-0.00322,0.180715,252.2655,61.6845)"/>
<path style="fill-rule:nonzero;fill:rgb(0%,41.960784%,24.705882%);fill-opacity:1;stroke-width:1.464;stroke-linecap:butt;stroke-linejoin:miter;stroke:rgb(0%,0%,0%);stroke-opacity:1;stroke-miterlimit:4;" d="M 228.956618 356.754709 C 228.956604 349.618942 224.114127 343.84888 218.124718 343.844648 C 212.150982 343.840039 207.304156 349.631294 207.303891 356.745892 C 207.303905 363.881659 212.146382 369.651721 218.135791 369.655953 C 224.109527 369.660562 228.956353 363.869307 228.956618 356.754709 Z M 228.956618 356.754709 " transform="matrix(0.24914,0.004435,-0.003285,0.18448,242.6375,60.315)"/>
<path style="fill-rule:nonzero;fill:rgb(0%,41.960784%,24.705882%);fill-opacity:1;stroke-width:1.56;stroke-linecap:butt;stroke-linejoin:miter;stroke:rgb(0%,0%,0%);stroke-opacity:1;stroke-miterlimit:4;" d="M 228.950388 356.747864 C 228.956591 349.620222 224.114001 343.849594 218.126585 343.835528 C 212.156185 343.843608 207.29889 349.621678 207.309406 356.748919 C 207.303203 363.876562 212.145793 369.647189 218.133209 369.661256 C 224.103609 369.653176 228.960904 363.875105 228.950388 356.747864 Z M 228.950388 356.747864 " transform="matrix(0.23357,0.00416,-0.003085,0.173185,250.9215,60.4595)"/>
<path style="fill-rule:nonzero;fill:rgb(0%,41.960784%,24.705882%);fill-opacity:1;stroke-width:1.562;stroke-linecap:butt;stroke-linejoin:miter;stroke:rgb(0%,0%,0%);stroke-opacity:1;stroke-miterlimit:4;" d="M 228.953325 356.757902 C 228.955425 349.624732 224.111513 343.851855 218.125756 343.853824 C 212.157496 343.855409 207.305095 349.62541 207.302995 356.75858 C 207.300583 363.870142 212.144807 369.664627 218.130564 369.662658 C 224.098825 369.661074 228.950914 363.869464 228.953325 356.757902 Z M 228.953325 356.757902 " transform="matrix(0.223185,0.003975,-0.00322,0.180715,249.8545,58.2395)"/>
<path style="fill-rule:nonzero;fill:rgb(0%,41.960784%,24.705882%);fill-opacity:1;stroke-width:1.546;stroke-linecap:butt;stroke-linejoin:miter;stroke:rgb(0%,0%,0%);stroke-opacity:1;stroke-miterlimit:4;" d="M 228.958053 356.745571 C 228.958348 349.630973 224.112619 343.848906 218.126862 343.850835 C 212.158602 343.852387 207.308018 349.631637 207.307722 356.746236 C 207.307737 363.882002 212.153467 369.664069 218.121727 369.662517 C 224.107484 369.660588 228.958068 363.881338 228.958053 356.745571 Z M 228.958053 356.745571 " transform="matrix(0.223185,0.003975,-0.003285,0.18448,244.7555,60.547)"/>
<path style="fill-rule:nonzero;fill:rgb(0%,41.960784%,24.705882%);fill-opacity:1;stroke-width:1.562;stroke-linecap:butt;stroke-linejoin:miter;stroke:rgb(0%,0%,0%);stroke-opacity:1;stroke-miterlimit:4;" d="M 228.961204 356.760496 C 228.945807 349.62771 224.101894 343.854833 218.133323 343.834809 C 212.147566 343.836779 207.312973 349.628004 207.310561 356.739565 C 207.308461 363.872735 212.152374 369.645612 218.138443 369.665252 C 224.106703 369.663667 228.958792 363.872057 228.961204 356.760496 Z M 228.961204 356.760496 " transform="matrix(0.223185,0.003975,-0.00322,0.180715,245.5715,60.114)"/>
<path style="fill-rule:nonzero;fill:rgb(0%,41.960784%,24.705882%);fill-opacity:1;stroke-width:1.562;stroke-linecap:butt;stroke-linejoin:miter;stroke:rgb(0%,0%,0%);stroke-opacity:1;stroke-miterlimit:4;" d="M 228.953978 356.744918 C 228.95639 349.633357 224.112166 343.838871 218.126409 343.840841 C 212.158148 343.842425 207.305748 349.612426 207.303648 356.745597 C 207.301548 363.878767 212.14546 369.651644 218.131217 369.649674 C 224.099477 369.64809 228.951878 363.878089 228.953978 356.744918 Z M 228.953978 356.744918 " transform="matrix(0.223185,0.003975,-0.00322,0.180715,246.5965,58.152)"/>
<path style="fill-rule:nonzero;fill:rgb(0%,41.960784%,24.705882%);fill-opacity:1;stroke-width:2.545;stroke-linecap:butt;stroke-linejoin:miter;stroke:rgb(0%,0%,0%);stroke-opacity:1;stroke-miterlimit:4;" d="M 596.133331 564.4734 C 596.099898 450.919848 565.940512 358.845467 528.684258 358.835868 C 491.428005 358.826269 461.245419 450.89865 461.23463 564.473925 C 461.25477 678.061055 491.427449 770.101858 528.683703 770.111457 C 565.939956 770.121056 596.122542 678.048676 596.133331 564.4734 Z M 596.133331 564.4734 " transform="matrix(0.10966,-0.038715,0.043415,0.10101,227.4925,113.722)"/>
<path style="fill-rule:nonzero;fill:rgb(0%,41.960784%,24.705882%);fill-opacity:1;stroke-width:2.5;stroke-linecap:butt;stroke-linejoin:miter;stroke:rgb(0%,0%,0%);stroke-opacity:1;stroke-miterlimit:4;" d="M 542.004925 646.056718 C 542.005328 623.53644 536.027322 605.259358 528.695667 605.265715 C 521.318702 605.288014 515.346704 623.54035 515.346301 646.060627 C 515.377215 668.595362 521.323904 686.857987 528.686876 686.866087 C 536.049848 686.874187 541.990528 668.607394 542.004925 646.056718 Z M 542.004925 646.056718 " transform="matrix(0.10287,-0.048925,0.047355,0.10598,231.439,111.2985)"/>
<path style="fill-rule:nonzero;fill:rgb(0%,41.960784%,24.705882%);fill-opacity:1;stroke-width:0.575;stroke-linecap:butt;stroke-linejoin:miter;stroke:rgb(0%,0%,0%);stroke-opacity:1;stroke-miterlimit:4;" d="M 31.460938 7.796875 C 44.273438 23.398438 42.65625 33.304688 41.320312 41.679688 C 37.296875 32.015625 35.09375 25.9375 22.28125 10.335938 C 9.46875 -5.265625 15.867188 -16.210938 16.75 -21.984375 C 18.671875 -16.984375 18.648438 -7.804688 31.460938 7.796875 Z M 31.460938 7.796875 " transform="matrix(0.5,0,0,0.5,300,150)"/>
<path style="fill-rule:nonzero;fill:rgb(0%,41.960784%,24.705882%);fill-opacity:1;stroke-width:0.575;stroke-linecap:butt;stroke-linejoin:miter;stroke:rgb(0%,0%,0%);stroke-opacity:1;stroke-miterlimit:4;" d="M 32.617188 20.398438 C 45.429688 35.992188 43.8125 45.898438 42.476562 54.28125 C 38.445312 44.617188 36.25 38.53125 23.4375 22.929688 C 10.625 7.335938 17.023438 -3.609375 17.898438 -9.382812 C 19.828125 -4.390625 19.804688 4.796875 32.617188 20.398438 Z M 32.617188 20.398438 " transform="matrix(0.5,0,0,0.5,300,150)"/>
<path style="fill-rule:nonzero;fill:rgb(0%,41.960784%,24.705882%);fill-opacity:1;stroke-width:0.575;stroke-linecap:butt;stroke-linejoin:miter;stroke:rgb(0%,0%,0%);stroke-opacity:1;stroke-miterlimit:4;" d="M 33 30.546875 C 46.125 45.867188 44.703125 55.804688 43.53125 64.210938 C 39.320312 54.632812 37 48.601562 23.875 33.273438 C 10.757812 17.953125 16.929688 6.867188 17.695312 1.085938 C 19.71875 6.039062 19.882812 15.21875 33 30.546875 Z M 33 30.546875 " transform="matrix(0.5,0,0,0.5,300,150)"/>
<path style="fill-rule:nonzero;fill:rgb(0%,41.960784%,24.705882%);fill-opacity:1;stroke-width:1.389;stroke-linecap:butt;stroke-linejoin:miter;stroke:rgb(0%,0%,0%);stroke-opacity:1;stroke-miterlimit:4;" d="M 542.004518 646.069337 C 541.993608 623.539231 536.042642 605.272066 528.68478 605.277041 C 521.326918 605.282016 515.365309 623.543488 515.359 646.068861 C 515.35269 668.594234 521.320875 686.866131 528.678737 686.861156 C 536.036599 686.856181 541.998208 668.59471 542.004518 646.069337 Z M 542.004518 646.069337 " transform="matrix(0.20392,-0.0519,0.08347,0.188835,150.215,51.985)"/>
<path style="fill-rule:nonzero;fill:rgb(0%,41.960784%,24.705882%);fill-opacity:1;stroke-width:1.64;stroke-linecap:butt;stroke-linejoin:miter;stroke:rgb(0%,0%,0%);stroke-opacity:1;stroke-miterlimit:4;" d="M 541.999123 646.067551 C 542.007416 623.530043 536.027114 605.28126 528.683689 605.273479 C 521.320389 605.261687 515.362516 623.549895 515.362473 646.06408 C 515.35418 668.601587 521.326232 686.873693 528.677907 686.858151 C 536.041207 686.869943 541.99083 668.605058 541.999123 646.067551 Z M 541.999123 646.067551 " transform="matrix(0.18345,-0.03155,0.06489,0.156325,170.4985,66.5645)"/>
<path style="fill-rule:nonzero;fill:rgb(0%,41.960784%,24.705882%);fill-opacity:1;stroke-width:1.64;stroke-linecap:butt;stroke-linejoin:miter;stroke:rgb(0%,0%,0%);stroke-opacity:1;stroke-miterlimit:4;" d="M 542.004059 646.062334 C 541.990899 623.537547 536.031684 605.271868 528.689163 605.272064 C 521.326598 605.268743 515.35531 623.547321 515.368469 646.072108 C 515.361586 668.593378 521.3208 686.859057 528.683365 686.862378 C 536.04593 686.865698 541.98934 668.607007 542.004059 646.062334 Z M 542.004059 646.062334 " transform="matrix(0.184075,-0.02766,0.06163,0.157655,169.238,66.59)"/>
<path style="fill-rule:nonzero;fill:rgb(0%,41.960784%,24.705882%);fill-opacity:1;stroke-width:2.097;stroke-linecap:butt;stroke-linejoin:miter;stroke:rgb(0%,0%,0%);stroke-opacity:1;stroke-miterlimit:4;" d="M 542.001142 646.059109 C 542.0132 623.537463 536.022242 605.281686 528.673885 605.27889 C 521.325529 605.276094 515.358821 623.527652 515.359395 646.085759 C 515.347337 668.607405 521.314075 686.857538 528.686652 686.865978 C 536.035009 686.868774 542.001717 668.617216 542.001142 646.059109 Z M 542.001142 646.059109 " transform="matrix(0.14829,-0.027155,0.055755,0.11654,194.465,82.231)"/>
<path style="fill-rule:nonzero;fill:rgb(0%,41.960784%,24.705882%);fill-opacity:1;stroke-width:2.097;stroke-linecap:butt;stroke-linejoin:miter;stroke:rgb(0%,0%,0%);stroke-opacity:1;stroke-miterlimit:4;" d="M 542.002256 646.062595 C 542.001501 623.547499 536.035319 605.286169 528.687619 605.261978 C 521.329859 605.268911 515.350913 623.526933 515.366417 646.077101 C 515.367172 668.592196 521.333354 686.853527 528.681054 686.877718 C 536.038814 686.870785 541.992953 668.608814 542.002256 646.062595 Z M 542.002256 646.062595 " transform="matrix(0.14976,-0.019,0.0484,0.119365,195.865,78.0675)"/>
<path style="fill-rule:nonzero;fill:rgb(0%,41.960784%,24.705882%);fill-opacity:1;stroke-width:0.575;stroke-linecap:butt;stroke-linejoin:miter;stroke:rgb(0%,0%,0%);stroke-opacity:1;stroke-miterlimit:4;" d="M 8.617188 -15.765625 C 12.40625 -6.515625 13.9375 1.8125 12.039062 2.8125 C 10.140625 3.8125 5.523438 -2.890625 1.742188 -12.148438 " transform="matrix(0.5,0,0,0.5,300,150)"/>
<path style="fill-rule:nonzero;fill:rgb(0%,41.960784%,24.705882%);fill-opacity:1;stroke-width:2.097;stroke-linecap:butt;stroke-linejoin:miter;stroke:rgb(0%,0%,0%);stroke-opacity:1;stroke-miterlimit:4;" d="M 541.992885 646.081262 C 542.002188 623.535042 536.036007 605.273712 528.678247 605.280645 C 521.320488 605.287578 515.366348 623.549549 515.367104 646.064644 C 515.357801 668.610863 521.323982 686.872194 528.681742 686.865261 C 536.039501 686.858328 541.99364 668.596357 541.992885 646.081262 Z M 541.992885 646.081262 " transform="matrix(0.14976,-0.019,0.0484,0.119365,195.553,72.6315)"/>
<path style="fill-rule:nonzero;fill:rgb(0%,41.960784%,24.705882%);fill-opacity:1;stroke-width:2.097;stroke-linecap:butt;stroke-linejoin:miter;stroke:rgb(0%,0%,0%);stroke-opacity:1;stroke-miterlimit:4;" d="M 542.003155 646.061487 C 541.988615 623.553467 536.026549 605.285645 528.666973 605.277882 C 521.332396 605.273455 515.354651 623.539384 515.359689 646.078612 C 515.364726 668.617841 521.336295 686.854455 528.670872 686.858881 C 536.030448 686.866644 542.008193 668.600715 542.003155 646.061487 Z M 542.003155 646.061487 " transform="matrix(0.15016,-0.01605,0.04572,0.12028,193.903,72.0065)"/>
<path style="fill-rule:nonzero;fill:rgb(0%,41.960784%,24.705882%);fill-opacity:1;stroke-width:0.575;stroke-linecap:butt;stroke-linejoin:miter;stroke:rgb(0%,0%,0%);stroke-opacity:1;stroke-miterlimit:4;" d="M 2.023438 -28.335938 C 5.703125 -22.085938 7.6875 -16.242188 6.445312 -15.304688 C 5.203125 -14.359375 1.21875 -18.671875 -2.460938 -24.921875 " transform="matrix(0.5,0,0,0.5,300,150)"/>
<path style="fill-rule:nonzero;fill:rgb(0%,41.960784%,24.705882%);fill-opacity:1;stroke-width:0.575;stroke-linecap:butt;stroke-linejoin:miter;stroke:rgb(0%,0%,0%);stroke-opacity:1;stroke-miterlimit:4;" d="M 4.570312 -32.484375 C 8.25 -26.234375 10.226562 -20.390625 8.992188 -19.445312 C 7.75 -18.507812 3.765625 -22.8125 0.0859375 -29.070312 M 16.015625 -31.609375 C 21.140625 -23.0625 23.898438 -15.085938 22.164062 -13.796875 C 20.4375 -12.507812 14.882812 -18.398438 9.757812 -26.9375 " transform="matrix(0.5,0,0,0.5,300,150)"/>
<path style="fill-rule:nonzero;fill:rgb(0%,41.960784%,24.705882%);fill-opacity:1;stroke-width:0.575;stroke-linecap:butt;stroke-linejoin:miter;stroke:rgb(0%,0%,0%);stroke-opacity:1;stroke-miterlimit:4;" d="M 8.453125 -36.078125 C 12.148438 -29.179688 14.140625 -22.734375 12.898438 -21.695312 C 11.664062 -20.664062 7.664062 -25.421875 3.976562 -32.328125 " transform="matrix(0.5,0,0,0.5,300,150)"/>
<path style="fill-rule:nonzero;fill:rgb(58.039216%,38.039216%,78.823529%);fill-opacity:1;stroke-width:0.591;stroke-linecap:butt;stroke-linejoin:miter;stroke:rgb(0%,0%,0%);stroke-opacity:1;stroke-miterlimit:4;" d="M 8.125 -46.085938 C 5.65625 -43.601562 8.070312 -38.960938 10.328125 -37.289062 C 12.859375 -34.992188 27.070312 -20 37.101562 -32.609375 C 29.0625 -32.757812 14.070312 -51.617188 8.125 -46.085938 Z M 8.125 -46.085938 " transform="matrix(0.5,0,0,0.5,300,150)"/>
<path style="fill-rule:nonzero;fill:rgb(58.039216%,38.039216%,78.823529%);fill-opacity:1;stroke-width:0.591;stroke-linecap:butt;stroke-linejoin:miter;stroke:rgb(0%,0%,0%);stroke-opacity:1;stroke-miterlimit:4;" d="M 6.367188 -53.484375 C 3.90625 -51 6.320312 -46.359375 8.578125 -44.6875 C 11.101562 -42.390625 25.320312 -27.398438 35.34375 -40.015625 C 27.3125 -40.15625 12.320312 -59.015625 6.367188 -53.484375 Z M 6.367188 -53.484375 " transform="matrix(0.5,0,0,0.5,300,150)"/>
<path style="fill-rule:nonzero;fill:rgb(58.039216%,38.039216%,78.823529%);fill-opacity:1;stroke-width:0.591;stroke-linecap:butt;stroke-linejoin:miter;stroke:rgb(0%,0%,0%);stroke-opacity:1;stroke-miterlimit:4;" d="M 4.125 -60.578125 C 1.65625 -58.09375 4.070312 -53.453125 6.328125 -51.773438 C 8.859375 -49.484375 23.070312 -34.492188 33.09375 -47.101562 C 25.0625 -47.25 10.070312 -66.109375 4.125 -60.578125 Z M 4.125 -60.578125 " transform="matrix(0.5,0,0,0.5,300,150)"/>
<path style="fill-rule:nonzero;fill:rgb(58.039216%,38.039216%,78.823529%);fill-opacity:1;stroke-width:0.591;stroke-linecap:butt;stroke-linejoin:miter;stroke:rgb(0%,0%,0%);stroke-opacity:1;stroke-miterlimit:4;" d="M -0.757812 -68.6875 C -3.226562 -66.203125 -0.8125 -61.5625 1.445312 -59.882812 C 3.976562 -57.59375 18.1875 -42.601562 28.21875 -55.210938 C 20.179688 -55.359375 5.1875 -74.21875 -0.757812 -68.6875 Z M -0.757812 -68.6875 " transform="matrix(0.5,0,0,0.5,300,150)"/>
<path style="fill-rule:nonzero;fill:rgb(58.039216%,38.039216%,78.823529%);fill-opacity:1;stroke-width:0.628;stroke-linecap:butt;stroke-linejoin:miter;stroke:rgb(0%,0%,0%);stroke-opacity:1;stroke-miterlimit:4;" d="M -18.273438 -76.445312 C -13.195312 -80.226562 -3.859375 -81.328125 3.40625 -77.632812 C 9.46875 -74.664062 19.554688 -62.554688 27.140625 -59.695312 C 21.804688 -58.742188 18.554688 -59.546875 15.140625 -61.1875 C 8.40625 -56.304688 6 -55.578125 -0.867188 -54.617188 C -10.414062 -53.242188 -18.34375 -55.726562 -21.132812 -60.710938 C -23.96875 -65.40625 -22.75 -72.945312 -18.273438 -76.445312 Z M -18.273438 -76.445312 " transform="matrix(0.5,0,0,0.5,300,150)"/>
<path style="fill-rule:nonzero;fill:rgb(83.137255%,10.980392%,18.823529%);fill-opacity:1;stroke-width:2.5;stroke-linecap:butt;stroke-linejoin:miter;stroke:rgb(0%,0%,0%);stroke-opacity:1;stroke-miterlimit:4;" d="M 301.38865 323.06288 C 301.383605 314.758254 295.050017 308.043317 287.240269 308.066297 C 279.404804 308.043974 273.075582 314.754971 273.080627 323.059597 C 273.085223 331.318099 279.418811 338.033036 287.22856 338.010057 C 295.038757 338.0332 301.393246 331.321382 301.38865 323.06288 Z M 301.38865 323.06288 " transform="matrix(0.15455,0.00275,-0.001505,0.084665,252.348,87.405)"/>
<path style="fill-rule:nonzero;fill:rgb(98.823529%,81.960784%,8.627451%);fill-opacity:1;stroke-width:2.5;stroke-linecap:butt;stroke-linejoin:miter;stroke:rgb(0%,0%,0%);stroke-opacity:1;stroke-miterlimit:4;" d="M 227.825813 348.258916 C 227.832561 339.496052 217.41265 332.370981 204.57495 332.36184 C 191.73725 332.352698 181.335205 339.488215 181.328457 348.251079 C 181.31135 357.045256 191.731261 364.170326 204.579321 364.148155 C 217.41702 364.157297 227.846996 357.033429 227.825813 348.258916 Z M 227.825813 348.258916 " transform="matrix(0.1229,-0.04572,0.04066,0.109625,250.2775,91.8555)"/>
<path style=" stroke:none;fill-rule:nonzero;fill:rgb(0%,0%,0%);fill-opacity:1;" d="M 296.925781 115.472656 C 296.917969 115.847656 296.5625 116.148438 296.128906 116.140625 C 295.695312 116.132812 295.347656 115.820312 295.351562 115.445312 C 295.359375 115.070312 295.71875 114.769531 296.152344 114.777344 C 296.585938 114.785156 296.933594 115.097656 296.925781 115.472656 Z M 296.925781 115.472656 "/>
<path style="fill-rule:nonzero;fill:rgb(98.823529%,81.960784%,8.627451%);fill-opacity:1;stroke-width:0.732;stroke-linecap:butt;stroke-linejoin:miter;stroke:rgb(0%,0%,0%);stroke-opacity:1;stroke-miterlimit:4;" d="M -17.125 -65.515625 C -16.726562 -63.5625 -18.171875 -60.929688 -21.304688 -60 C -24.5 -58.679688 -26.929688 -55.679688 -28.320312 -50.773438 C -33.179688 -61.953125 -30.09375 -66.6875 -24.9375 -67.835938 C -20.5 -69.257812 -17.828125 -69.078125 -17.125 -65.515625 Z M -17.125 -65.515625 " transform="matrix(0.5,0,0,0.5,300,150)"/>
</g>
</svg>
