<?xml version="1.0" encoding="UTF-8"?>
<svg xmlns="http://www.w3.org/2000/svg" xmlns:xlink="http://www.w3.org/1999/xlink" width="px" height="px" viewBox="0 0 450 300" version="1.1">
<defs>
<clipPath id="clip1">
  <path d="M 211 129 L 221 129 L 221 135 L 211 135 Z M 211 129 "/>
</clipPath>
<clipPath id="clip2">
  <path d="M 238.464844 134.125 C 144.742188 134.121094 68.765625 58.140625 68.769531 -35.582031 C 68.773438 -129.308594 144.753906 -205.28125 238.480469 -205.277344 C 235.410156 -205.277344 228.28125 -206.851562 225.53125 -209.214844 C 222.652344 -207.03125 215.402344 -205.277344 212.382812 -205.277344 C 213.640625 -205.265625 214.648438 -204.242188 214.644531 -202.988281 C 214.636719 -201.730469 213.617188 -200.714844 212.363281 -200.714844 C 211.105469 -200.714844 210.085938 -201.730469 210.082031 -202.988281 C 210.074219 -204.242188 211.085938 -205.265625 212.339844 -205.277344 C 212.332031 -204.589844 212.371094 -203.875 212.414062 -203.226562 C 212.570312 -200.804688 212.996094 -198.371094 213.644531 -196.027344 C 215.675781 -188.664062 219.835938 -182.398438 225.796875 -177.648438 C 231.769531 -182.402344 235.933594 -188.671875 237.96875 -196.042969 C 235.421875 -255.238281 281.339844 -305.296875 340.535156 -307.84375 C 399.730469 -310.394531 449.789062 -264.472656 452.335938 -205.277344 C 452.375 -205.957031 452.410156 -206.789062 452.410156 -207.285156 Z M 238.464844 134.125 "/>
</clipPath>
<clipPath id="clip3">
  <path d="M 220 129 L 230 129 L 230 135 L 220 135 Z M 220 129 "/>
</clipPath>
<clipPath id="clip4">
  <path d="M 238.464844 134.125 C 144.742188 134.121094 68.765625 58.140625 68.769531 -35.582031 C 68.773438 -129.308594 144.753906 -205.28125 238.480469 -205.277344 C 235.410156 -205.277344 228.28125 -206.851562 225.53125 -209.214844 C 222.652344 -207.03125 215.402344 -205.277344 212.382812 -205.277344 C 213.640625 -205.265625 214.648438 -204.242188 214.644531 -202.988281 C 214.636719 -201.730469 213.617188 -200.714844 212.363281 -200.714844 C 211.105469 -200.714844 210.085938 -201.730469 210.082031 -202.988281 C 210.074219 -204.242188 211.085938 -205.265625 212.339844 -205.277344 C 212.332031 -204.589844 212.371094 -203.875 212.414062 -203.226562 C 212.570312 -200.804688 212.996094 -198.371094 213.644531 -196.027344 C 215.675781 -188.664062 219.835938 -182.398438 225.796875 -177.648438 C 231.769531 -182.402344 235.933594 -188.671875 237.96875 -196.042969 C 235.421875 -255.238281 281.339844 -305.296875 340.535156 -307.84375 C 399.730469 -310.394531 449.789062 -264.472656 452.335938 -205.277344 C 452.375 -205.957031 452.410156 -206.789062 452.410156 -207.285156 Z M 238.464844 134.125 "/>
</clipPath>
<clipPath id="clip5">
  <path d="M 229 129 L 239 129 L 239 135 L 229 135 Z M 229 129 "/>
</clipPath>
<clipPath id="clip6">
  <path d="M 238.464844 134.125 C 144.742188 134.121094 68.765625 58.140625 68.769531 -35.582031 C 68.773438 -129.308594 144.753906 -205.28125 238.480469 -205.277344 C 235.410156 -205.277344 228.28125 -206.851562 225.53125 -209.214844 C 222.652344 -207.03125 215.402344 -205.277344 212.382812 -205.277344 C 213.640625 -205.265625 214.648438 -204.242188 214.644531 -202.988281 C 214.636719 -201.730469 213.617188 -200.714844 212.363281 -200.714844 C 211.105469 -200.714844 210.085938 -201.730469 210.082031 -202.988281 C 210.074219 -204.242188 211.085938 -205.265625 212.339844 -205.277344 C 212.332031 -204.589844 212.371094 -203.875 212.414062 -203.226562 C 212.570312 -200.804688 212.996094 -198.371094 213.644531 -196.027344 C 215.675781 -188.664062 219.835938 -182.398438 225.796875 -177.648438 C 231.769531 -182.402344 235.933594 -188.671875 237.96875 -196.042969 C 235.421875 -255.238281 281.339844 -305.296875 340.535156 -307.84375 C 399.730469 -310.394531 449.789062 -264.472656 452.335938 -205.277344 C 452.375 -205.957031 452.410156 -206.789062 452.410156 -207.285156 Z M 238.464844 134.125 "/>
</clipPath>
</defs>
<g id="surface1">
<rect x="0" y="0" width="450" height="300" style="fill:rgb(0%,0%,0%);fill-opacity:1;stroke:none;"/>
<path style=" stroke:none;fill-rule:nonzero;fill:rgb(100%,100%,100%);fill-opacity:1;" d="M 0 0 L 450 0 L 450 200 L 0 200 Z M 0 0 "/>
<path style=" stroke:none;fill-rule:nonzero;fill:rgb(80.784314%,6.666667%,14.901961%);fill-opacity:1;" d="M 0 0 L 450 0 L 450 100 L 0 100 Z M 0 0 "/>
<path style="fill-rule:nonzero;fill:rgb(100%,100%,100%);fill-opacity:1;stroke-width:5.45;stroke-linecap:butt;stroke-linejoin:round;stroke:rgb(75.294118%,57.647059%,0%);stroke-opacity:1;stroke-miterlimit:4;" d="M 457.591967 879.331832 L 751.423745 1152.115776 L 730.509974 656.720828 C 727.426534 581.645753 662.205062 598.872801 614.780405 625.953453 C 566.785982 656.720828 512.021396 656.720828 454.139854 636.410339 C 396.291828 656.720828 341.527242 656.720828 293.499303 625.953453 C 246.108162 598.872801 180.88669 581.645753 177.80325 656.720828 L 156.889479 1152.115776 Z M 457.591967 879.331832 " transform="matrix(0.11655,0,0,0.11655,172.07,48.717)"/>
<path style=" stroke:none;fill-rule:nonzero;fill:rgb(75.294118%,57.647059%,0%);fill-opacity:1;" d="M 196.734375 123.25 L 194.367188 179.410156 L 190.347656 182.996094 L 192.789062 125.257812 C 193.933594 124.46875 195.945312 123.25 196.734375 123.25 Z M 201.542969 127.269531 L 199.535156 174.246094 L 195.519531 178.359375 L 197.957031 124.109375 C 198.746094 124.898438 201.113281 126.835938 201.542969 127.265625 Z M 205.917969 130.855469 L 204.339844 170.035156 L 201.113281 173.191406 L 203.121094 128.488281 C 203.910156 129.277344 205.488281 130.425781 205.917969 130.855469 Z M 210.652344 132.863281 L 209.074219 166.257812 L 205.917969 168.820312 L 207.496094 131.644531 C 208.285156 132.003906 209.863281 132.863281 210.652344 132.863281 Z M 215.027344 132.863281 L 213.878906 160.691406 L 210.652344 163.851562 L 211.871094 133.222656 C 212.660156 133.222656 214.667969 133.222656 215.027344 132.863281 Z M 215.027344 132.863281 "/>
<path style=" stroke:none;fill-rule:nonzero;fill:rgb(75.294118%,57.647059%,0%);fill-opacity:1;" d="M 253.265625 123.25 L 255.632812 179.410156 L 259.648438 182.996094 L 257.210938 125.257812 C 256.0625 124.46875 254.054688 123.25 253.265625 123.25 Z M 248.453125 127.269531 L 250.460938 174.246094 L 254.480469 178.359375 L 252.039062 124.109375 C 251.25 124.898438 248.882812 126.835938 248.453125 127.265625 Z M 244.078125 130.855469 L 245.65625 170.035156 L 248.882812 173.191406 L 246.875 128.488281 C 246.089844 129.277344 244.511719 130.425781 244.078125 130.855469 Z M 239.34375 132.863281 L 240.921875 166.257812 L 244.078125 168.820312 L 242.5 131.644531 C 241.710938 132.003906 240.132812 132.863281 239.34375 132.863281 Z M 234.96875 132.863281 L 236.117188 160.691406 L 239.34375 163.851562 L 238.125 133.222656 C 237.335938 133.222656 235.328125 133.222656 234.96875 132.863281 Z M 234.96875 132.863281 "/>
<path style="fill-rule:nonzero;fill:rgb(75.294118%,57.647059%,0%);fill-opacity:1;stroke-width:4.607;stroke-linecap:butt;stroke-linejoin:miter;stroke:rgb(75.294118%,57.647059%,0%);stroke-opacity:1;stroke-miterlimit:4;" d="M 467.68018 933.660714 L 508.937956 1121.381918 L 495.364114 1134.922244 L 481.220506 1124.431843 L 457.826577 957.054644 L 467.68018 1124.431843 L 454.139854 1141.658891 L 440.599528 1124.431843 L 450.453132 957.054644 L 427.059202 1124.431843 L 412.882079 1134.922244 L 399.375268 1121.381918 L 440.599528 933.660714 Z M 467.68018 933.660714 " transform="matrix(0.11655,0,0,0.11655,172.07,48.717)"/>
<path style="fill-rule:nonzero;fill:rgb(100%,100%,100%);fill-opacity:1;stroke-width:5.101;stroke-linecap:butt;stroke-linejoin:round;stroke:rgb(75.294118%,57.647059%,0%);stroke-opacity:1;stroke-miterlimit:4;" d="M 361.804215 851.212194 L 279.958977 1141.658891 L 392.571589 1158.88594 L 440.599528 940.430877 Z M 361.804215 851.212194 " transform="matrix(0.11655,0,0,0.11655,172.07,48.717)"/>
<path style="fill:none;stroke-width:5.448;stroke-linecap:butt;stroke-linejoin:round;stroke:rgb(75.294118%,57.647059%,0%);stroke-opacity:1;stroke-miterlimit:4;" d="M 334.723563 950.317997 L 344.577166 974.281692 L 397.800032 923.471954 " transform="matrix(0.11655,0,0,0.11655,172.07,48.717)"/>
<path style="fill:none;stroke-width:5.448;stroke-linecap:butt;stroke-linejoin:round;stroke:rgb(75.294118%,57.647059%,0%);stroke-opacity:1;stroke-miterlimit:4;" d="M 371.590787 890.15739 L 382.717986 994.592181 L 416.568801 950.284481 M 403.028475 967.511529 L 421.529118 1031.325343 M 428.768501 1007.864382 L 391.365026 1064.673423 M 403.028475 1121.381918 L 391.063385 1064.77397 L 380.606499 1007.160553 L 355.570302 1041.111915 L 344.577166 1001.965626 L 309.486272 1037.961444 L 327.350118 1103.384009 L 351.950611 1062.897094 L 365.490937 1104.154869 L 390.761744 1064.841002 " transform="matrix(0.11655,0,0,0.11655,172.07,48.717)"/>
<path style="fill:none;stroke-width:5.448;stroke-linecap:butt;stroke-linejoin:round;stroke:rgb(75.294118%,57.647059%,0%);stroke-opacity:1;stroke-miterlimit:4;" d="M 303.922673 1134.922244 L 326.679805 1102.981821 L 341.493726 1152.115776 L 361.804215 1117.66168 L 375.344541 1158.919455 " transform="matrix(0.11655,0,0,0.11655,172.07,48.717)"/>
<path style="fill-rule:nonzero;fill:rgb(100%,100%,100%);fill-opacity:1;stroke-width:5.101;stroke-linecap:butt;stroke-linejoin:round;stroke:rgb(75.294118%,57.647059%,0%);stroke-opacity:1;stroke-miterlimit:4;" d="M 361.812022 851.212194 L 279.933269 1141.658891 L 392.579397 1158.88594 L 440.57382 940.430877 Z M 361.812022 851.212194 " transform="matrix(-0.11655,0,0,0.11655,277.927004,48.717)"/>
<path style="fill:none;stroke-width:5.448;stroke-linecap:butt;stroke-linejoin:round;stroke:rgb(75.294118%,57.647059%,0%);stroke-opacity:1;stroke-miterlimit:4;" d="M 334.73137 950.317997 L 344.584974 974.281692 L 397.80784 923.471954 " transform="matrix(-0.11655,0,0,0.11655,277.927004,48.717)"/>
<path style="fill:none;stroke-width:5.448;stroke-linecap:butt;stroke-linejoin:round;stroke:rgb(75.294118%,57.647059%,0%);stroke-opacity:1;stroke-miterlimit:4;" d="M 371.598595 890.15739 L 382.725793 994.592181 L 416.576608 950.284481 M 403.036282 967.511529 L 421.536926 1031.325343 M 428.776308 1007.864382 L 391.372833 1064.673423 M 403.036282 1121.381918 L 391.071192 1064.77397 L 380.614307 1007.160553 L 355.544594 1041.111915 L 344.584974 1001.965626 L 309.494079 1037.961444 L 327.32441 1103.384009 L 351.958419 1062.897094 L 365.498745 1104.154869 L 390.769551 1064.841002 " transform="matrix(-0.11655,0,0,0.11655,277.927004,48.717)"/>
<path style="fill:none;stroke-width:5.448;stroke-linecap:butt;stroke-linejoin:round;stroke:rgb(75.294118%,57.647059%,0%);stroke-opacity:1;stroke-miterlimit:4;" d="M 303.93048 1134.922244 L 326.654097 1102.981821 L 341.468018 1152.115776 L 361.778507 1117.66168 L 375.352348 1158.919455 " transform="matrix(-0.11655,0,0,0.11655,277.927004,48.717)"/>
<path style="fill-rule:nonzero;fill:rgb(100%,100%,100%);fill-opacity:1;stroke-width:10.202;stroke-linecap:round;stroke-linejoin:round;stroke:rgb(75.294118%,57.647059%,0%);stroke-opacity:1;stroke-miterlimit:4;" d="M 454.139854 1271.498552 C 539.671815 1271.498552 621.550568 1264.728389 669.544991 1251.188063 C 689.85548 1247.501341 689.85548 1237.044455 689.85548 1223.504129 C 710.16597 1216.733966 699.709084 1192.736755 713.852692 1192.736755 C 699.709084 1196.423477 696.625644 1168.739543 679.398595 1172.426266 C 679.398595 1148.429054 655.401384 1145.345613 635.090894 1152.115776 C 594.469916 1165.656103 522.444766 1168.739543 454.139854 1168.739543 C 385.801426 1165.656103 314.413074 1165.656103 273.188814 1152.115776 C 252.878325 1145.345613 228.881113 1148.429054 228.881113 1172.426266 C 211.620549 1168.739543 208.570624 1196.423477 194.393501 1192.736755 C 208.570624 1192.736755 198.080223 1216.733966 218.390712 1223.504129 C 218.390712 1237.044455 218.390712 1247.501341 239.337999 1251.188063 C 286.72914 1264.728389 368.574378 1271.498552 454.139854 1271.498552 Z M 454.139854 1271.498552 " transform="matrix(0.11655,0,0,0.11655,172.07,48.717)"/>
<path style="fill-rule:nonzero;fill:rgb(100%,100%,100%);fill-opacity:1;stroke-width:5.448;stroke-linecap:round;stroke-linejoin:round;stroke:rgb(75.294118%,57.647059%,0%);stroke-opacity:1;stroke-miterlimit:4;" d="M 337.807003 1141.625375 C 365.524453 1145.345613 396.291828 1148.395538 420.289039 1145.345613 C 433.829365 1145.345613 443.682969 1168.706027 416.602317 1172.426266 C 392.605105 1175.47619 355.067568 1172.426266 334.757079 1168.706027 C 317.496514 1165.656103 279.958977 1158.88594 255.961765 1152.082261 C 231.964554 1141.658891 249.191602 1121.348402 262.731928 1124.398327 C 283.645699 1131.16849 310.726351 1137.938653 337.840519 1141.658891 Z M 570.472705 1141.625375 C 542.788771 1145.345613 512.021396 1148.395538 488.627467 1145.345613 C 474.450343 1145.345613 464.59674 1168.706027 491.677392 1172.426266 C 515.708119 1175.47619 553.245656 1172.426266 573.52263 1168.706027 C 590.783194 1165.656103 628.320731 1158.88594 652.317943 1152.082261 C 676.34867 1141.658891 659.088106 1121.348402 645.54778 1124.398327 C 624.634009 1131.16849 597.553357 1137.938653 570.472705 1141.658891 Z M 570.472705 1141.625375 " transform="matrix(0.11655,0,0,0.11655,172.07,48.717)"/>
<path style="fill-rule:nonzero;fill:rgb(100%,100%,100%);fill-opacity:1;stroke-width:5.448;stroke-linecap:round;stroke-linejoin:round;stroke:rgb(75.294118%,57.647059%,0%);stroke-opacity:1;stroke-miterlimit:4;" d="M 252.878325 1128.118565 C 231.964554 1124.431843 222.11095 1148.429054 228.881113 1161.96938 C 231.964554 1155.199217 246.108162 1155.199217 249.191602 1148.429054 C 252.878325 1137.972169 246.108162 1137.972169 252.878325 1128.118565 Z M 334.723563 1191.060972 C 334.723563 1177.554161 348.263889 1179.196429 348.263889 1165.656103 C 348.263889 1158.88594 344.577166 1148.429054 337.807003 1148.429054 C 331.03684 1148.429054 324.266677 1155.199217 324.266677 1161.96938 C 321.183237 1175.509706 334.723563 1177.554161 334.723563 1191.060972 Z M 432.153582 1152.115776 C 452.464071 1152.115776 450.453132 1179.196429 440.599528 1192.736755 C 440.599528 1182.883151 423.37248 1179.196429 423.37248 1172.426266 C 423.37248 1161.96938 438.923745 1161.96938 432.153582 1152.115776 Z M 655.367868 1128.118565 C 676.315154 1124.431843 686.168758 1148.429054 679.365079 1161.96938 C 676.315154 1155.199217 662.138031 1155.199217 659.05459 1148.429054 C 655.367868 1137.972169 662.138031 1137.972169 655.367868 1128.118565 Z M 573.52263 1191.060972 C 573.52263 1177.554161 559.982304 1179.196429 559.982304 1165.656103 C 559.982304 1158.88594 563.669026 1148.429054 570.439189 1148.429054 C 577.209352 1148.429054 583.979515 1155.199217 583.979515 1161.96938 C 587.062956 1175.509706 573.52263 1177.554161 573.52263 1191.060972 Z M 476.09261 1152.115776 C 455.782121 1152.115776 457.793061 1179.196429 467.646665 1192.736755 C 467.646665 1182.883151 484.873713 1179.196429 484.873713 1172.426266 C 484.873713 1161.96938 469.322447 1161.96938 476.09261 1152.115776 Z M 476.09261 1152.115776 " transform="matrix(0.11655,0,0,0.11655,172.07,48.717)"/>
<path style="fill-rule:nonzero;fill:rgb(100%,100%,100%);fill-opacity:1;stroke-width:3.822;stroke-linecap:round;stroke-linejoin:round;stroke:rgb(75.294118%,57.647059%,0%);stroke-opacity:1;stroke-miterlimit:4;" d="M 259.648488 1134.922244 C 266.418651 1134.922244 276.875536 1137.972169 279.958977 1141.658891 L 259.648488 1134.888728 Z M 293.465787 1145.379129 C 297.15251 1145.379129 310.692836 1148.46257 317.462999 1152.149292 L 293.432272 1145.345613 Z M 416.602317 1158.88594 C 409.832154 1158.88594 396.291828 1158.88594 392.605105 1161.96938 L 416.568801 1158.852424 Z M 379.064779 1158.88594 C 375.378057 1155.199217 361.804215 1155.199217 355.067568 1158.88594 Z M 648.631221 1134.922244 C 641.861057 1134.922244 632.007454 1137.972169 628.320731 1141.658891 Z M 614.780405 1145.379129 C 611.093683 1145.379129 597.553357 1148.46257 590.783194 1152.149292 L 614.813921 1145.345613 Z M 491.677392 1158.88594 C 498.447555 1158.88594 511.987881 1158.88594 515.674603 1161.96938 L 491.643876 1158.852424 Z M 529.214929 1158.88594 C 532.901652 1155.199217 546.441978 1155.199217 553.212141 1158.88594 L 529.181414 1158.88594 Z M 529.214929 1158.88594 " transform="matrix(0.11655,0,0,0.11655,172.07,48.717)"/>
<path style=" stroke:none;fill-rule:nonzero;fill:rgb(75.294118%,57.647059%,0%);fill-opacity:1;" d="M 201.667969 187.296875 C 201.402344 187.246094 201.261719 187.035156 201.328125 186.785156 C 201.410156 186.480469 201.652344 186.304688 201.882812 186.386719 C 202.03125 186.4375 202.300781 186.707031 202.300781 186.804688 C 202.300781 186.917969 202.160156 187.183594 202.097656 187.183594 C 202.074219 187.183594 202.03125 187.207031 202.007812 187.234375 C 201.957031 187.292969 201.800781 187.320312 201.667969 187.296875 Z M 229.132812 189.253906 C 229.035156 189.21875 228.875 188.996094 228.875 188.894531 C 228.878906 188.699219 229.164062 188.386719 229.339844 188.382812 C 229.429688 188.382812 229.667969 188.507812 229.757812 188.601562 C 229.921875 188.769531 229.886719 189.046875 229.679688 189.203125 C 229.582031 189.28125 229.28125 189.308594 229.132812 189.253906 Z M 229.3125 190.496094 C 229.101562 190.425781 229.027344 190.320312 229.007812 190.089844 C 228.992188 189.847656 229.015625 189.808594 229.273438 189.667969 L 229.453125 189.570312 L 229.628906 189.644531 C 229.867188 189.753906 229.972656 189.867188 229.984375 190.03125 C 229.992188 190.203125 229.863281 190.382812 229.664062 190.472656 C 229.488281 190.550781 229.476562 190.550781 229.3125 190.496094 Z M 229.3125 190.496094 "/>
<path style=" stroke:none;fill-rule:nonzero;fill:rgb(75.294118%,57.647059%,0%);fill-opacity:1;" d="M 203.871094 185.050781 C 203.699219 185.046875 203.460938 185.203125 203.324219 185.285156 C 203 185.359375 202.625 185.558594 202.308594 185.347656 C 202 185.253906 201.589844 185.328125 201.542969 185.707031 C 201.625 186.03125 202.082031 186.21875 202.355469 186.003906 C 202.5625 185.734375 203.121094 185.578125 203.183594 186.035156 C 202.957031 186.382812 202.984375 186.839844 202.792969 187.207031 C 202.765625 187.4375 202.667969 187.652344 202.542969 187.847656 C 202.3125 187.871094 202.066406 187.84375 201.871094 187.988281 C 201.558594 188.003906 201.242188 188.160156 201.058594 188.425781 C 200.859375 188.714844 200.664062 189.007812 200.605469 189.363281 C 200.660156 189.726562 201.074219 189.828125 201.386719 189.847656 C 201.722656 189.9375 202.054688 190.058594 202.386719 190.160156 C 202.929688 190.28125 203.441406 190.476562 203.980469 190.597656 C 204.773438 190.835938 205.605469 190.945312 206.402344 191.160156 C 206.488281 191.1875 206.566406 191.210938 206.652344 191.222656 C 206.984375 191.292969 207.15625 190.929688 207.183594 190.660156 C 207.351562 190.082031 207.476562 189.492188 207.636719 188.910156 C 207.75 188.675781 207.886719 188.152344 207.4375 188.269531 C 207.179688 188.421875 206.960938 188.65625 206.636719 188.675781 C 206.203125 188.699219 206.449219 189.148438 206.621094 189.332031 C 206.660156 189.625 206.566406 189.976562 206.371094 190.207031 C 206.113281 190.371094 205.789062 190.179688 205.511719 190.113281 C 205.226562 190.117188 204.652344 189.972656 204.917969 189.582031 C 205.015625 189.292969 205.023438 188.976562 205.136719 188.691406 C 205.285156 188.382812 205.304688 188.046875 205.371094 187.722656 C 205.191406 187.332031 204.882812 187.851562 204.636719 187.894531 C 204.46875 188.011719 203.835938 188.0625 204.167969 188.363281 C 204.457031 188.582031 204.238281 188.960938 204.183594 189.238281 C 204.167969 189.625 203.765625 189.714844 203.449219 189.628906 C 203.136719 189.613281 202.699219 189.378906 202.964844 189.035156 C 203.027344 188.746094 203.128906 188.464844 203.183594 188.175781 C 203.304688 187.828125 203.402344 187.496094 203.527344 187.144531 C 203.582031 186.835938 203.695312 186.539062 203.839844 186.269531 C 203.851562 185.925781 204.082031 185.632812 204.074219 185.285156 C 204.050781 185.117188 203.976562 185.054688 203.871094 185.050781 Z M 202.074219 188.675781 C 202.117188 188.667969 202.144531 188.675781 202.183594 188.691406 C 202.308594 188.746094 202.3125 188.847656 202.183594 188.957031 C 202.128906 189.003906 202.066406 189.050781 202.042969 189.050781 C 201.8125 189.03125 201.742188 188.996094 201.730469 188.910156 C 201.722656 188.835938 201.746094 188.8125 201.902344 188.738281 C 201.980469 188.699219 202.035156 188.683594 202.074219 188.675781 Z M 201.558594 191.1875 C 201.308594 190.953125 201.351562 190.78125 201.714844 190.507812 C 201.875 190.390625 201.96875 190.40625 202.148438 190.570312 C 202.425781 190.820312 202.433594 190.980469 202.191406 191.195312 C 202.070312 191.304688 202.019531 191.324219 201.878906 191.328125 C 201.730469 191.328125 201.691406 191.308594 201.558594 191.1875 Z M 203.082031 191.644531 C 163.613281 191.796875 131.496094 159.921875 131.347656 120.453125 C 131.195312 80.984375 163.070312 48.867188 202.539062 48.71875 C 202.601562 48.5 202.640625 48.476562 202.960938 48.476562 C 203.316406 48.472656 203.386719 48.53125 203.390625 48.847656 C 203.390625 49.023438 203.378906 49.0625 203.289062 49.144531 C 203.1875 49.242188 202.988281 49.292969 202.851562 49.261719 Z M 247.640625 191.6875 C 247.527344 191.589844 247.503906 191.546875 247.5 191.429688 C 247.5 191.222656 247.617188 191.074219 247.875 190.957031 C 248.214844 190.800781 248.355469 190.824219 248.484375 191.050781 C 248.652344 191.351562 248.644531 191.472656 248.441406 191.675781 C 248.328125 191.789062 248.308594 191.792969 248.046875 191.796875 C 247.792969 191.796875 247.765625 191.789062 247.640625 191.6875 Z M 205.109375 192.261719 C 204.925781 192.210938 204.832031 192.074219 204.828125 191.855469 C 204.828125 191.691406 204.839844 191.664062 204.957031 191.574219 C 205.03125 191.511719 205.152344 191.460938 205.246094 191.449219 C 205.378906 191.429688 205.425781 191.441406 205.535156 191.519531 C 205.808594 191.710938 205.867188 191.902344 205.710938 192.089844 C 205.539062 192.285156 205.378906 192.332031 205.109375 192.261719 Z M 216.066406 192.75 C 216.027344 192.699219 215.9375 192.671875 215.929688 192.605469 C 215.945312 192.328125 215.957031 192.050781 216.046875 191.78125 C 216.09375 191.523438 216.054688 191.25 216.144531 190.992188 C 216.238281 190.53125 216.238281 190.050781 216.34375 189.59375 C 216.351562 189.355469 216.371094 189.117188 216.441406 188.890625 C 216.519531 188.527344 216.449219 188.152344 216.554688 187.792969 C 216.542969 187.660156 216.699219 187.304688 216.832031 187.515625 C 217.03125 187.804688 217.289062 188.039062 217.542969 188.273438 C 217.761719 188.398438 217.5625 188.585938 217.410156 188.648438 C 217.203125 188.730469 217.152344 188.957031 217.167969 189.160156 C 217.136719 189.367188 217.054688 189.5625 217.046875 189.773438 C 217.003906 190.085938 217.011719 190.402344 216.96875 190.710938 C 216.878906 191.015625 216.914062 191.339844 216.882812 191.65625 C 216.886719 191.855469 216.792969 192.035156 216.804688 192.234375 C 216.78125 192.4375 216.773438 192.683594 216.601562 192.820312 C 216.4375 192.90625 216.199219 192.890625 216.066406 192.75 Z M 230.917969 187.851562 C 230.675781 188.03125 230.460938 188.25 230.246094 188.460938 C 229.949219 188.683594 230.488281 188.816406 230.558594 189.007812 C 230.636719 189.300781 230.632812 189.613281 230.652344 189.914062 C 230.742188 190.1875 230.78125 190.484375 230.761719 190.773438 C 230.738281 191.082031 230.332031 191.019531 230.152344 191.195312 C 229.90625 191.296875 229.808594 191.539062 229.621094 191.710938 C 229.5 191.953125 229.464844 192.25 229.449219 192.523438 C 229.46875 192.746094 229.296875 192.996094 229.449219 193.195312 C 229.46875 193.222656 229.492188 193.261719 229.511719 193.289062 C 229.5625 193.359375 229.683594 193.304688 229.761719 193.320312 C 230.015625 193.304688 230.277344 193.34375 230.511719 193.242188 C 231.117188 193.136719 231.726562 193.128906 232.339844 193.101562 C 232.714844 193.113281 233.074219 192.980469 233.449219 192.992188 C 233.742188 193.054688 233.875 192.738281 233.871094 192.507812 C 233.707031 192.179688 233.847656 191.792969 233.714844 191.460938 C 233.597656 191.125 233.644531 190.746094 233.589844 190.398438 C 233.582031 190.125 233.234375 190.023438 233.058594 190.226562 C 232.886719 190.398438 232.613281 190.433594 232.480469 190.648438 C 232.332031 190.949219 232.792969 190.949219 232.871094 191.179688 C 232.960938 191.410156 232.929688 191.667969 232.949219 191.914062 C 233.007812 192.210938 232.683594 192.226562 232.480469 192.257812 C 232.210938 192.359375 231.835938 192.425781 231.683594 192.101562 C 231.589844 191.859375 231.601562 191.605469 231.574219 191.351562 C 231.566406 190.90625 231.460938 190.464844 231.433594 190.023438 C 231.410156 189.472656 231.3125 188.929688 231.277344 188.382812 C 231.273438 188.152344 231.242188 187.78125 230.917969 187.851562 Z M 230.605469 191.976562 L 230.761719 191.992188 L 230.792969 192.367188 L 230.589844 192.429688 C 230.867188 191.6875 231.628906 191.246094 232.40625 191.375 C 233.1875 191.5 233.769531 192.160156 233.796875 192.949219 C 233.828125 193.738281 233.296875 194.4375 232.527344 194.621094 C 231.757812 194.804688 230.96875 194.421875 230.636719 193.703125 C 230.527344 193.625 230.554688 193.511719 230.699219 193.359375 C 230.78125 193.273438 230.820312 193.257812 230.949219 193.265625 Z M 215.625 187.335938 C 215.433594 187.402344 215.191406 187.683594 215 187.679688 C 214.558594 187.710938 214.621094 188.140625 214.9375 188.289062 C 214.976562 188.417969 214.9375 188.582031 214.953125 188.726562 C 215.011719 189.121094 214.761719 189.4375 214.8125 189.835938 C 214.789062 190.269531 214.65625 190.695312 214.640625 191.132812 C 214.515625 191.585938 214.515625 192.046875 214.4375 192.507812 C 214.382812 192.917969 214.085938 192.773438 213.828125 192.664062 C 213.824219 192.484375 213.8125 192.3125 213.8125 192.132812 C 213.917969 191.722656 213.589844 191.605469 213.265625 191.554688 C 212.921875 191.585938 212.753906 191.292969 212.828125 190.992188 C 212.972656 190.816406 213.34375 190.867188 213.578125 190.835938 C 214.066406 190.9375 214.046875 190.28125 213.796875 190.054688 C 213.621094 189.738281 213.195312 189.601562 213.078125 189.273438 C 213.125 188.839844 212.835938 188.40625 212.484375 188.195312 C 211.9375 188.15625 211.527344 188.625 211.328125 189.085938 C 211.101562 189.152344 210.875 189.21875 210.65625 189.304688 C 210.300781 189.394531 209.792969 190.007812 210.277344 190.242188 C 210.550781 190.316406 211.378906 190.507812 211.011719 190.882812 C 210.808594 191.234375 210.414062 191.242188 210.058594 191.148438 C 209.699219 191.148438 209.296875 190.972656 209.308594 190.554688 C 209.238281 190.179688 209.25 189.777344 209.078125 189.429688 C 209 189.011719 208.527344 189.109375 208.5 189.492188 C 208.132812 189.757812 208.179688 190.191406 208.4375 190.507812 C 208.59375 190.871094 208.4375 191.296875 208.28125 191.632812 C 208.183594 192.070312 207.703125 192.085938 207.359375 192.226562 C 207.1875 192.292969 206.542969 192.1875 206.78125 192.554688 C 207.15625 192.6875 207.605469 192.808594 208 192.710938 C 208.410156 192.660156 208.765625 192.378906 208.96875 192.023438 C 209.242188 191.742188 209.71875 191.890625 210.078125 191.882812 C 210.460938 191.882812 210.859375 192.152344 211.234375 191.976562 C 211.339844 191.695312 211.84375 191.226562 212 191.710938 C 211.972656 192.140625 212.351562 192.375 212.75 192.320312 C 213.179688 192.296875 213.019531 192.625 213.015625 192.882812 C 213.042969 193.351562 213.34375 193.59375 213.734375 193.789062 C 213.863281 193.824219 214.003906 193.8125 214.140625 193.789062 C 214.511719 193.671875 214.914062 193.503906 215.03125 193.085938 C 215.179688 192.746094 215.183594 192.359375 215.296875 192.007812 C 215.382812 191.441406 215.496094 190.878906 215.515625 190.304688 C 215.652344 189.785156 215.613281 189.238281 215.71875 188.710938 C 215.78125 188.320312 215.832031 187.929688 215.875 187.539062 C 215.828125 187.332031 215.738281 187.296875 215.625 187.335938 Z M 212.234375 189.414062 C 212.308594 189.421875 212.351562 189.515625 212.359375 189.679688 C 212.367188 189.863281 212.460938 190.007812 212.578125 190.039062 C 212.667969 190.0625 212.660156 190.160156 212.5625 190.226562 C 212.503906 190.265625 212.398438 190.289062 212.21875 190.289062 C 211.929688 190.289062 211.75 190.210938 211.59375 190.054688 L 211.5 189.960938 L 211.640625 189.867188 C 212.699219 161.765625 236.339844 139.839844 264.441406 140.902344 C 292.542969 141.960938 314.46875 165.601562 313.40625 193.703125 C 313.550781 193.558594 313.644531 193.492188 313.71875 193.5 Z M 245.25 185.476562 C 247.242188 185.804688 248.714844 187.515625 248.746094 189.539062 C 248.777344 191.558594 247.359375 193.3125 245.375 193.703125 C 244.855469 193.671875 244.59375 194.21875 245.09375 194.484375 C 245.394531 195.253906 245.863281 194.328125 246.34375 194.390625 C 247.0625 194.53125 247.121094 195.308594 247.234375 195.890625 C 247.273438 196.46875 247.441406 197.03125 247.609375 197.578125 C 248.089844 198.113281 247.25 198.449219 246.890625 198.03125 C 246.585938 197.699219 245.929688 197.292969 245.5625 197.75 C 245.109375 197.941406 245.089844 198.546875 244.71875 198.71875 C 244.113281 198.902344 244.039062 198.160156 243.71875 197.84375 C 243.425781 197.433594 242.863281 197.394531 242.40625 197.25 C 242.191406 196.816406 242.300781 196.078125 241.859375 195.78125 C 241.484375 195.933594 240.800781 196.632812 241.375 196.953125 C 241.933594 197.433594 241.128906 197.652344 240.875 197.984375 C 240.507812 198.390625 240.449219 198.953125 240.390625 199.46875 C 239.761719 199.816406 239.636719 199.074219 239.5625 198.609375 C 239.511719 198.054688 239.042969 198.21875 238.71875 198.421875 C 238.242188 198.617188 238.003906 199.066406 237.671875 199.421875 C 237.628906 199.746094 237.6875 200.101562 237.6875 200.4375 C 237.792969 200.84375 238.289062 200.652344 238.59375 200.625 C 239.082031 200.421875 239.28125 200.941406 238.890625 201.234375 C 238.625 201.574219 237.78125 201.398438 237.859375 201.9375 C 238.128906 201.96875 238.414062 201.960938 238.6875 201.9375 C 239.230469 201.789062 239.816406 201.40625 239.875 200.796875 C 239.945312 200.269531 240.707031 200.363281 241.125 200.25 C 241.644531 200.101562 242.269531 200.0625 242.390625 200.71875 C 242.746094 201.09375 243.515625 201.511719 243.90625 201 C 244.300781 200.757812 244.492188 200.332031 244.46875 199.875 C 244.386719 199.484375 245.101562 199.46875 245.28125 199.6875 C 245.539062 200.117188 246.355469 199.992188 246.75 199.75 C 247.167969 199.441406 247.257812 198.898438 247.859375 198.890625 C 248.75 198.625 249.675781 198.46875 250.546875 198.140625 C 251.25 197.988281 250.441406 197.542969 250.265625 197.28125 C 249.726562 197.015625 249.261719 198.101562 248.65625 197.5625 C 248.1875 197.207031 248.21875 196.523438 248.046875 196 C 247.925781 195.320312 247.957031 194.539062 247.46875 194 C 247.132812 193.644531 246.675781 193.558594 246.203125 193.578125 Z M 241.84375 190.210938 C 241.90625 190.207031 241.976562 190.238281 242.09375 190.304688 C 242.3125 190.425781 242.46875 190.625 242.46875 190.789062 C 242.46875 190.894531 242.441406 190.902344 242.28125 190.976562 C 242.183594 191.019531 242.070312 191.070312 242.03125 191.070312 C 241.941406 191.070312 241.71875 190.890625 241.71875 190.820312 C 241.71875 190.789062 241.6875 190.675781 241.65625 190.585938 C 241.597656 190.425781 241.605469 190.425781 241.6875 190.320312 C 241.738281 190.25 241.78125 190.210938 241.84375 190.210938 Z M 245.109375 190.382812 C 245.292969 190.371094 245.40625 190.429688 245.484375 190.570312 C 245.574219 190.734375 245.511719 190.859375 245.28125 190.960938 C 245.179688 191.003906 245.078125 191.039062 245.0625 191.039062 C 245.046875 191.035156 244.960938 190.988281 244.875 190.929688 C 244.738281 190.839844 244.71875 190.796875 244.71875 190.695312 C 244.714844 190.535156 244.890625 190.394531 245.109375 190.382812 Z M 240.640625 190.429688 C 240.695312 190.421875 240.742188 190.449219 240.8125 190.507812 C 240.902344 190.585938 240.929688 190.644531 240.953125 190.804688 C 240.96875 190.914062 240.964844 191.054688 240.953125 191.117188 C 240.929688 191.230469 240.925781 191.222656 240.671875 191.226562 C 240.351562 191.230469 240.320312 191.195312 240.328125 190.898438 C 240.332031 190.710938 240.332031 190.660156 240.4375 190.554688 C 240.515625 190.472656 240.585938 190.4375 240.640625 190.429688 Z M 237.890625 191.148438 C 237.988281 191.171875 238.082031 191.246094 238.109375 191.367188 C 238.140625 191.523438 238.113281 191.597656 237.984375 191.664062 C 237.871094 191.71875 237.617188 191.738281 237.546875 191.695312 C 237.523438 191.679688 237.476562 191.644531 237.453125 191.601562 C 237.417969 191.539062 237.425781 191.511719 237.46875 191.476562 C 237.496094 191.449219 237.53125 191.414062 237.53125 191.398438 C 237.53125 191.378906 237.5625 191.316406 237.609375 191.257812 C 237.679688 191.160156 237.789062 191.125 237.890625 191.148438 Z M 242.515625 191.742188 C 242.605469 191.742188 242.679688 191.773438 242.734375 191.820312 C 242.824219 191.902344 242.824219 192.019531 242.71875 192.101562 C 242.648438 192.152344 242.28125 192.148438 242.15625 192.101562 C 242.097656 192.078125 242.078125 192.050781 242.078125 191.992188 C 242.074219 191.921875 242.097656 191.878906 242.21875 191.820312 C 242.320312 191.769531 242.425781 191.742188 242.515625 191.742188 Z M 233.929688 194.152344 C 233.882812 194.121094 233.808594 194.09375 233.882812 194.039062 C 233.96875 193.890625 234.140625 193.835938 234.292969 193.78125 C 234.566406 193.660156 234.804688 193.460938 234.980469 193.222656 C 235.003906 193.054688 235.191406 192.964844 235.191406 192.789062 C 235.191406 192.550781 235.207031 192.308594 235.148438 192.078125 C 235.085938 191.863281 234.921875 191.699219 234.734375 191.589844 C 234.609375 191.488281 234.398438 191.460938 234.351562 191.28125 C 234.324219 191.113281 234.476562 190.980469 234.53125 190.828125 C 234.644531 190.617188 234.738281 190.394531 234.855469 190.191406 C 234.988281 190.046875 235.1875 190.183594 235.253906 190.320312 C 235.347656 190.460938 235.433594 190.609375 235.480469 190.769531 C 235.628906 190.9375 235.765625 191.132812 235.820312 191.351562 C 235.894531 191.507812 236.011719 191.652344 236.003906 191.835938 C 236.003906 192.042969 236.121094 192.226562 236.113281 192.4375 C 236.121094 192.71875 236.121094 193.011719 236.019531 193.273438 C 235.949219 193.421875 235.808594 193.507812 235.714844 193.640625 C 235.554688 193.789062 235.378906 193.929688 235.175781 194.007812 C 235.03125 194.054688 234.945312 194.222656 234.765625 194.183594 C 234.507812 194.1875 234.246094 194.222656 233.992188 194.179688 C 234.007812 194.207031 233.914062 194.132812 233.929688 194.152344 Z M 230.503906 194.375 C 230.382812 194.25 230.355469 194.199219 230.355469 194.074219 C 230.351562 193.953125 230.378906 193.902344 230.496094 193.78125 C 230.714844 193.5625 230.820312 193.554688 231.199219 193.746094 C 231.5625 193.929688 231.683594 193.945312 231.714844 193.816406 C 231.746094 193.691406 231.957031 193.578125 232.152344 193.578125 C 232.277344 193.574219 232.347656 193.601562 232.449219 193.679688 C 232.574219 193.777344 232.582031 193.792969 232.585938 194.019531 C 232.585938 194.25 232.582031 194.257812 232.4375 194.386719 C 232.300781 194.507812 232.277344 194.515625 232.105469 194.5 C 231.886719 194.476562 231.757812 194.378906 231.722656 194.203125 C 231.695312 194.078125 231.652344 194.050781 231.617188 194.136719 C 231.609375 194.164062 231.554688 194.195312 231.5 194.210938 C 231.398438 194.234375 231.226562 194.34375 231.101562 194.460938 C 231.054688 194.503906 230.972656 194.523438 230.84375 194.523438 C 230.664062 194.527344 230.640625 194.515625 230.503906 194.375 Z M 220.59375 189.925781 C 220.261719 189.929688 219.902344 190.207031 219.859375 190.535156 C 219.933594 190.910156 220.246094 191.28125 220.046875 191.675781 C 220.183594 192.183594 219.664062 192.375 219.3125 192.082031 C 219.097656 191.597656 218.992188 191.0625 218.671875 190.628906 C 218.269531 190.515625 218.09375 191.15625 217.8125 191.378906 C 217.953125 191.757812 218.359375 192.09375 218.40625 192.566406 C 218.503906 193.023438 218.226562 193.53125 217.828125 193.769531 C 217.484375 194.097656 217.015625 193.980469 216.59375 194.050781 C 216.082031 194.351562 216.96875 194.460938 217.203125 194.472656 C 217.726562 194.527344 218.269531 194.457031 218.65625 194.066406 C 219.039062 193.882812 219.011719 193.21875 219.46875 193.144531 C 220.261719 193.109375 221.050781 193.265625 221.84375 193.285156 C 222.269531 193.386719 222.925781 193.234375 223.21875 193.550781 C 223.21875 194.105469 223.6875 194.445312 224.140625 194.660156 C 224.390625 194.730469 224.652344 194.421875 224.90625 194.363281 C 225.386719 194.210938 225.242188 193.613281 225.53125 193.378906 C 226.355469 193.335938 227.1875 193.34375 228.015625 193.332031 C 228.171875 193.335938 228.21875 193.113281 228.328125 193.019531 C 228.308594 192.699219 228.296875 192.382812 228.25 192.066406 C 228.089844 191.664062 228.277344 191.144531 227.984375 190.800781 C 227.570312 190.6875 227.214844 191.066406 226.796875 191.097656 C 226.332031 191.304688 225.945312 191.730469 225.921875 192.253906 C 225.648438 192.703125 225.207031 192.175781 225.359375 191.800781 C 225.34375 191.636719 225.394531 191.449219 225.34375 191.300781 C 225.089844 190.996094 224.644531 191.097656 224.296875 191.050781 C 223.789062 191.070312 223.289062 190.960938 222.78125 190.972656 C 222.335938 190.9375 221.871094 191.011719 221.4375 190.894531 C 220.921875 190.878906 220.992188 190.375 220.90625 190.019531 C 220.8125 189.953125 220.703125 189.925781 220.59375 189.925781 Z M 221.59375 191.769531 C 221.765625 191.773438 221.925781 191.796875 222.09375 191.816406 C 222.308594 191.851562 222.539062 191.742188 222.75 191.816406 C 223.238281 191.898438 223.726562 191.878906 224.21875 191.925781 C 224.347656 191.921875 224.441406 192.019531 224.53125 192.097656 C 224.53125 192.4375 224.53125 192.785156 224.53125 193.128906 C 224.515625 193.257812 224.570312 193.429688 224.453125 193.519531 C 224.414062 193.546875 224.375 193.574219 224.328125 193.582031 C 224.191406 193.546875 224.050781 193.457031 223.984375 193.332031 C 223.964844 193.152344 223.992188 192.980469 224 192.800781 C 223.996094 192.753906 224.019531 192.683594 224 192.644531 C 223.894531 192.570312 223.773438 192.519531 223.640625 192.519531 C 223.214844 192.503906 222.800781 192.472656 222.375 192.457031 C 222.019531 192.433594 221.65625 192.488281 221.3125 192.394531 C 221.179688 192.34375 221.003906 192.363281 220.921875 192.222656 C 220.804688 192.085938 220.972656 191.925781 221.09375 191.863281 C 221.253906 191.789062 221.421875 191.765625 221.59375 191.769531 Z M 227.234375 191.894531 C 227.3125 191.894531 227.339844 191.917969 227.375 192.066406 C 227.398438 192.160156 227.425781 192.273438 227.4375 192.316406 C 227.457031 192.375 227.425781 192.394531 227.34375 192.425781 C 227.097656 192.519531 226.851562 192.507812 226.765625 192.394531 C 226.726562 192.34375 226.773438 192.175781 226.84375 192.113281 C 226.988281 191.984375 227.148438 191.894531 227.234375 191.894531 Z M 227.234375 191.894531 "/>
<path style="fill-rule:nonzero;fill:rgb(100%,100%,100%);fill-opacity:1;stroke-width:1.218;stroke-linecap:butt;stroke-linejoin:miter;stroke:rgb(75.294118%,57.647059%,0%);stroke-opacity:1;stroke-miterlimit:4;" d="M 462.307585 253.08616 C 462.979442 253.133033 461.409172 249.523756 461.409172 249.523756 C 463.174749 251.328395 469.838632 251.75807 469.838632 251.75807 C 465.83874 249.992493 461.838848 236.664728 462.307585 226.032202 C 462.745073 215.368427 460.784189 211.173228 459.213918 209.61077 C 457.213972 207.610824 450.784458 205.845246 446.550197 205.610878 C 444.159637 205.493693 444.550251 207.415516 444.550251 207.415516 C 440.120683 206.274922 435.691115 205.845246 433.691169 207.173336 C 431.808408 208.431114 431.417793 214.704382 432.784944 213.610662 C 436.120791 210.938859 439.019151 213.368481 441.019097 216.274653 C 442.784674 218.821459 442.66749 226.032202 440.120683 234.461662 C 437.44888 243.32861 430.160015 252.187746 430.160015 252.187746 C 434.120845 252.187746 439.683195 248.656592 439.683195 248.656592 L 438.355106 254.187692 C 442.550305 252.187746 445.878341 249.086268 445.878341 249.086268 L 449.878233 253.281467 C 451.214134 251.523702 453.878125 249.086268 453.878125 249.086268 C 453.878125 249.086268 457.213972 252.617422 462.307585 253.08616 Z M 462.307585 253.08616 " transform="matrix(0.500013,0,0,0.500013,-0.0076834,0.00038205)"/>
<path style="fill:none;stroke-width:1.27;stroke-linecap:butt;stroke-linejoin:miter;stroke:rgb(75.294118%,57.647059%,0%);stroke-opacity:1;stroke-miterlimit:4;" d="M 446.120522 227.571223 C 446.120522 227.571223 443.886207 244.000467 439.691007 248.664404 M 449.651676 227.141547 C 449.651676 227.141547 448.784512 243.766099 445.886153 249.09408 M 452.776592 227.813404 C 452.776592 227.813404 452.776592 246.000413 453.878125 249.101892 M 456.737423 228.711817 C 456.737423 228.711817 457.643648 244.000467 461.409172 249.531568 " transform="matrix(0.500013,0,0,0.500013,-0.0076834,0.00038205)"/>
<path style="fill-rule:nonzero;fill:rgb(75.294118%,57.647059%,0%);fill-opacity:1;stroke-width:0.354;stroke-linecap:butt;stroke-linejoin:miter;stroke:rgb(75.294118%,57.647059%,0%);stroke-opacity:1;stroke-miterlimit:4;" d="M 442.081568 219.6105 C 441.886261 218.157414 441.534708 217.024632 441.019097 216.274653 C 439.019151 213.376293 436.120791 210.946671 432.784944 213.610662 C 432.784944 213.610662 433.925538 210.079507 436.35516 209.962323 C 438.237922 209.845138 442.511244 211.376347 446.276767 217.805861 C 446.276767 217.805861 443.495592 217.180878 442.823735 217.7668 C 441.573769 218.868333 442.081568 219.6105 442.081568 219.6105 Z M 442.081568 219.6105 " transform="matrix(0.500013,0,0,0.500013,-0.0076834,0.00038205)"/>
<path style="fill-rule:nonzero;fill:rgb(75.294118%,57.647059%,0%);fill-opacity:1;stroke-width:0.354;stroke-linecap:butt;stroke-linejoin:miter;stroke:rgb(75.294118%,57.647059%,0%);stroke-opacity:1;stroke-miterlimit:4;" d="M 432.441203 209.259217 C 432.714633 208.360803 433.144309 207.532701 433.691169 207.181148 C 435.691115 205.845246 440.128496 206.282735 444.558064 207.415516 C 444.558064 207.415516 444.159637 205.493693 446.55801 205.610878 C 450.792271 205.845246 457.221785 207.610824 459.221731 209.61077 C 459.690468 210.126381 460.237328 210.868548 460.706066 212.00133 L 460.627943 212.00133 C 459.651407 210.63418 456.862419 210.712303 456.198375 210.790425 C 455.143716 210.90761 454.471859 210.868548 453.065647 211.220101 C 452.39379 211.376347 451.378192 211.571654 450.82352 212.00133 C 450.393844 212.360696 450.042291 213.649723 449.378246 213.649723 C 448.315775 213.649723 448.393898 213.376293 448.120468 213.063802 C 447.768915 212.634126 447.573607 212.00133 447.222054 212.040392 C 446.120522 212.243511 444.354944 211.376347 442.120629 209.61077 C 439.886315 207.845192 439.026963 207.415516 436.128604 207.610824 C 433.261493 207.845192 432.36308 209.454524 432.36308 209.454524 Z M 432.441203 209.259217 " transform="matrix(0.500013,0,0,0.500013,-0.0076834,0.00038205)"/>
<path style=" stroke:none;fill-rule:nonzero;fill:rgb(100%,100%,100%);fill-opacity:1;" d="M 225 105.339844 C 225 105.664062 224.734375 105.925781 224.410156 105.925781 C 224.085938 105.925781 223.824219 105.664062 223.824219 105.339844 C 223.824219 105.015625 224.085938 104.75 224.410156 104.75 C 224.734375 104.75 225 105.015625 225 105.339844 Z M 225 105.339844 "/>
<path style="fill-rule:nonzero;fill:rgb(100%,100%,100%);fill-opacity:1;stroke-width:4.933661;stroke-linecap:butt;stroke-linejoin:miter;stroke:rgb(75.294118%,57.647059%,0%);stroke-opacity:1;stroke-miterlimit:4;" d="M 454.039307 985.87811 C 594.067728 878.158784 582.069123 720.367063 582.069123 720.367063 C 578.3824 721.104408 574.863256 721.47308 571.176534 721.47308 C 541.783301 721.47308 471.735575 704.681735 455.379934 683.332261 C 437.88476 702.670796 366.295313 721.47308 337.103175 721.47308 C 333.382937 721.47308 329.696214 721.104408 326.17707 720.367063 C 326.17707 720.367063 314.010886 878.158784 454.039307 985.87811 Z M 454.039307 985.87811 " transform="matrix(0.11655,0,0,0.11655,172.07,48.717)"/>
<path style="fill:none;stroke-width:3.929768;stroke-linecap:butt;stroke-linejoin:miter;stroke:rgb(75.294118%,57.647059%,0%);stroke-opacity:1;stroke-miterlimit:4;" d="M 570.908408 731.929966 C 368.775472 731.89645 204.950933 568.038396 204.984449 365.905459 C 205.017964 163.806038 368.909535 -0.0185006 571.008955 0.015015 C 544.397523 0.015015 482.561133 -13.659374 458.731499 -34.137441 C 433.762334 -15.23461 370.886958 0.015015 344.711229 0.015015 C 343.47115 0.015015 342.264586 -0.152563 341.058022 -0.353657 C 340.990991 5.61213 341.326148 11.779011 341.69482 17.409642 C 343.068962 38.42396 346.755684 59.538825 352.352799 79.849314 C 369.982036 143.730159 406.044884 198.025526 457.759545 239.249785 C 509.541238 197.99201 545.637602 143.663127 563.300354 79.715251 C 568.930985 59.404762 572.617707 38.289897 574.025365 17.275579 C 574.360521 11.410339 574.662162 4.204472 574.662162 -0.119048 Z M 570.908408 731.929966 " transform="matrix(0.11655,0,0,0.11655,172.07,48.717)"/>
<g clip-path="url(#clip1)" clip-rule="nonzero">
<g clip-path="url(#clip2)" clip-rule="nonzero">
<path style=" stroke:none;fill-rule:evenodd;fill:rgb(75.294118%,57.647059%,0%);fill-opacity:1;" d="M 211.304688 129.882812 L 220.433594 129.882812 L 220.433594 162.039062 L 211.304688 162.039062 Z M 211.304688 129.882812 "/>
</g>
</g>
<g clip-path="url(#clip3)" clip-rule="nonzero">
<g clip-path="url(#clip4)" clip-rule="nonzero">
<path style=" stroke:none;fill-rule:evenodd;fill:rgb(100%,100%,100%);fill-opacity:1;" d="M 220.433594 129.882812 L 229.5625 129.882812 L 229.5625 162.039062 L 220.433594 162.039062 Z M 220.433594 129.882812 "/>
</g>
</g>
<g clip-path="url(#clip5)" clip-rule="nonzero">
<g clip-path="url(#clip6)" clip-rule="nonzero">
<path style=" stroke:none;fill-rule:evenodd;fill:rgb(75.294118%,57.647059%,0%);fill-opacity:1;" d="M 229.5625 129.882812 L 238.695312 129.882812 L 238.695312 162.039062 L 229.5625 162.039062 Z M 229.5625 129.882812 "/>
</g>
</g>
</g>
</svg>
