<?xml version="1.0" encoding="UTF-8"?>
<svg xmlns="http://www.w3.org/2000/svg" xmlns:xlink="http://www.w3.org/1999/xlink" width="px" height="px" viewBox="0 0 300 150" version="1.1">
<g id="surface1">
<path style=" stroke:none;fill-rule:nonzero;fill:rgb(0%,0%,0%);fill-opacity:1;" d="M 0 0 L 300 0 L 300 75 L 0 75 Z M 0 0 "/>
<path style=" stroke:none;fill-rule:nonzero;fill:rgb(0%,47.843137%,23.921569%);fill-opacity:1;" d="M 0 75 L 300 75 L 300 150 L 0 150 Z M 0 75 "/>
<path style=" stroke:none;fill-rule:nonzero;fill:rgb(100%,100%,100%);fill-opacity:1;" d="M 0 50 L 300 50 L 300 100 L 0 100 Z M 0 50 "/>
<path style=" stroke:none;fill-rule:nonzero;fill:rgb(76.862745%,6.666667%,10.588235%);fill-opacity:1;" d="M 0 0 L 100 75 L 0 150 Z M 0 0 "/>
<path style=" stroke:none;fill-rule:nonzero;fill:rgb(76.862745%,6.666667%,10.588235%);fill-opacity:1;" d="M 170 75 C 170 86.046875 161.046875 95 150 95 C 138.953125 95 130 86.046875 130 75 C 130 63.953125 138.953125 55 150 55 C 161.046875 55 170 63.953125 170 75 Z M 170 75 "/>
<path style=" stroke:none;fill-rule:nonzero;fill:rgb(100%,100%,100%);fill-opacity:1;" d="M 177.5 75 C 177.5 86.046875 168.546875 95 157.5 95 C 146.453125 95 137.5 86.046875 137.5 75 C 137.5 63.953125 146.453125 55 157.5 55 C 168.546875 55 177.5 63.953125 177.5 75 Z M 177.5 75 "/>
<path style=" stroke:none;fill-rule:nonzero;fill:rgb(76.862745%,6.666667%,10.588235%);fill-opacity:1;" d="M 144.632812 87.109375 L 153.160156 81.015625 L 161.621094 87.203125 L 158.457031 77.207031 L 166.957031 71.074219 L 156.476562 70.992188 L 153.269531 61.011719 L 149.953125 70.957031 L 139.46875 70.921875 L 147.902344 77.152344 Z M 144.632812 87.109375 "/>
</g>
</svg>
