<?xml version="1.0" encoding="UTF-8"?>
<svg xmlns="http://www.w3.org/2000/svg" xmlns:xlink="http://www.w3.org/1999/xlink" width="px" height="px" viewBox="0 0 500 250" version="1.1">
<g id="surface1">
<rect x="0" y="0" width="500" height="250" style="fill:rgb(91.764706%,1.568627%,21.568627%);fill-opacity:1;stroke:none;"/>
<path style=" stroke:none;fill-rule:nonzero;fill:rgb(25.490196%,53.72549%,86.666667%);fill-opacity:1;" d="M 0 250 L 500 250 L 500 125 "/>
<path style=" stroke:none;fill-rule:nonzero;fill:rgb(7.058824%,67.843137%,16.862745%);fill-opacity:1;" d="M 0 0 L 500 0 L 500 125 "/>
<path style=" stroke:none;fill-rule:nonzero;fill:rgb(100%,78.039216%,14.901961%);fill-opacity:1;" d="M 115.125 184.582031 C 109.71875 186.074219 106.621094 190.265625 106.699219 194.222656 L 133.304688 194.117188 C 133.542969 189.863281 130.046875 185.933594 124.722656 184.382812 C 150.769531 183.847656 173.402344 174.089844 177.511719 167.828125 C 173.445312 166.0625 168.738281 168.90625 165.382812 168.25 C 173.347656 164.570312 197.207031 149.125 193.328125 132.570312 C 190.3125 141.765625 181.179688 149.375 177.289062 151.417969 C 186.199219 137.882812 198.371094 123.792969 187.8125 112.882812 C 188.34375 119.207031 183.792969 126.167969 181.785156 126.691406 C 186.953125 112.390625 191.886719 94.4375 180.683594 82.601562 C 182.15625 86.878906 181.5625 98.945312 179.535156 99.488281 C 178.914062 89.765625 177.253906 69.3125 167.011719 69.601562 C 170.265625 72.496094 171.6875 80.402344 171.761719 88.382812 C 169.425781 82.914062 166.773438 78.796875 161.101562 74.757812 C 156.511719 65.957031 148.347656 58.667969 140.183594 53.441406 C 141.097656 59.847656 141.855469 64.902344 150.800781 71.546875 C 146.136719 71.257812 141.476562 62.414062 136.492188 62.171875 C 132.527344 61.980469 129.417969 65.761719 122.9375 63.585938 C 123.65625 65.722656 126.679688 66.671875 127.316406 68.253906 C 125.929688 69.210938 122.632812 68.105469 119.894531 66.679688 C 123.664062 71.808594 129.5 74.828125 134.457031 73.808594 C 140.347656 72.675781 146.667969 73.273438 152.695312 76.703125 C 151.15625 77.492188 145.164062 77.488281 141.320312 77.007812 C 144.8125 80.546875 147.15625 82.890625 153.234375 82.851562 C 158.660156 82.816406 161.507812 79.957031 162.902344 81.726562 C 166.304688 85.761719 168.597656 89.792969 171.445312 94.542969 C 165.152344 95.238281 167.050781 87.429688 160.042969 83.433594 C 156.109375 91.582031 164.570312 101.238281 170.332031 105.253906 C 170.410156 111.375 171.304688 116.5 173.902344 121.160156 C 175.652344 124.449219 177.917969 127.8125 177.0625 135.230469 C 173.613281 132.71875 170.242188 124.25 171.484375 117.523438 C 167.167969 118.703125 165.480469 126.292969 167.515625 130.113281 C 169.035156 133.023438 170.050781 138.589844 168.296875 141.078125 C 166.585938 143.394531 166.410156 143.136719 166.429688 148.113281 C 166.492188 151.089844 164.828125 154.609375 162.121094 157.066406 C 162.683594 154.96875 163.328125 151.359375 162.703125 149.101562 C 160.5625 152.734375 155.191406 156.492188 153.496094 160.398438 C 151.835938 164.3125 151.414062 171.09375 143.375 172.65625 C 133.03125 174.710938 129.460938 176.503906 122.804688 179.226562 C 122.066406 174.171875 124.277344 163.628906 128.507812 164.230469 C 132.632812 164.964844 145.144531 159.917969 140.671875 149.378906 C 139.785156 152.699219 136.835938 155.941406 133.648438 156.085938 C 137.09375 151.617188 143.242188 146.988281 140.246094 139.5 C 138.582031 142.683594 135.964844 146.503906 131.996094 148.652344 C 136.25 140.5 132.488281 138.058594 127.4375 144.777344 C 125.527344 147.367188 124.375 152.558594 123.164062 159.152344 C 121.179688 153.789062 121.308594 146.730469 118.957031 140.996094 C 116.5 134.796875 122.21875 133.160156 124.910156 133.65625 C 131.496094 135.417969 142.507812 135.414062 141.691406 124.53125 C 138.84375 128.214844 133.855469 129.351562 128.464844 128.023438 C 134.515625 123.605469 139.296875 115.292969 132.550781 110.953125 C 132.328125 115.554688 128.765625 120.714844 124.011719 123.09375 C 122.898438 119.210938 122.898438 115.085938 123.851562 110.570312 C 121.195312 113.363281 119.257812 119.179688 117.714844 125.789062 C 117.597656 119.253906 118.835938 114.546875 119.75 111.03125 C 121.140625 105.898438 124.59375 109.238281 129.882812 109.617188 C 134.972656 109.90625 141.984375 107.09375 140.644531 100.1875 C 138.90625 102.917969 135.335938 103.984375 131.691406 103.695312 C 136.082031 101.035156 143.730469 96.308594 139.535156 89.039062 C 137.773438 91.792969 137.203125 94.148438 132.101562 94.992188 C 133.4375 91.921875 133.660156 87.574219 137.617188 85.855469 C 130.554688 84.449219 126.515625 89.082031 124.460938 96.339844 C 123.625 91.308594 122.632812 89.457031 122.4375 85.777344 C 126.253906 81.535156 126.652344 73.242188 118.390625 71.386719 C 117.898438 75.664062 118.042969 76.683594 118.984375 80.167969 C 115.105469 77.863281 109.636719 76.59375 106 79.851562 C 108.464844 82.511719 112.28125 84.855469 118.164062 81.953125 C 116.773438 86.5 113.160156 85.722656 108.195312 83.988281 C 111.230469 89.691406 115.058594 90.703125 119.289062 90.046875 C 121.503906 95.882812 121.601562 100.316406 115.132812 108.816406 C 115.429688 103.535156 115.054688 99.601562 110.859375 95.328125 C 107.261719 91.808594 104.339844 95.480469 109.960938 103.308594 C 106.550781 100.800781 102.691406 95.703125 101.527344 90.609375 C 100.40625 96.902344 101.417969 104.320312 104.902344 108.480469 C 103.253906 110.242188 101.378906 108.292969 98.609375 103.984375 C 99.65625 117.773438 105.539062 120.433594 113.445312 117.359375 C 113.667969 124.925781 113.667969 131.933594 114.117188 141.078125 C 109.507812 134.445312 103.664062 129.5 100.40625 128.261719 C 99.394531 131.972656 103.214844 136.804688 105.351562 139.503906 C 102.089844 138.828125 95.011719 133.433594 95.011719 133.433594 C 94.296875 139.578125 102.242188 145.273438 107.375 147.820312 C 101.34375 147.558594 98.679688 145.273438 94.785156 141.527344 C 94.859375 158.574219 113.257812 155.613281 116.703125 152.992188 C 117.152344 161.382812 117.792969 171.085938 118.242188 179.480469 C 113.042969 178.570312 113.453125 177.007812 109.003906 176.597656 C 96.652344 176.113281 86.855469 161.769531 83.609375 151.21875 C 82.679688 152.953125 83.417969 154.773438 82.566406 156.90625 C 80.5625 151.726562 78 145.035156 74.566406 141.925781 C 75.441406 144.945312 75.53125 148.011719 75.226562 153.65625 C 74.050781 150 72.953125 148.878906 72.871094 144.585938 C 72.949219 141.289062 76.050781 138.859375 75.878906 134.222656 C 75.753906 130.839844 72.667969 123.507812 72.210938 117.828125 C 70.71875 123.671875 69.78125 129.832031 67.492188 133.449219 C 68.628906 127.210938 68.265625 122.902344 70.1875 118.703125 C 72.410156 114.28125 74.300781 110.335938 72.820312 105.871094 C 71.402344 107.597656 71.890625 109.160156 68.324219 113.347656 C 67.550781 108.796875 72.933594 101.507812 78.160156 98.578125 C 81.847656 96.636719 86.492188 89.6875 83.464844 84.925781 C 80 87.417969 78.445312 90.78125 73.546875 96.527344 C 77.039062 82.875 86.113281 79.300781 96.976562 79.257812 C 99.382812 79.246094 104.230469 78.378906 105.589844 75.195312 C 102.527344 76.378906 98.90625 76.527344 95.683594 75.882812 C 98.03125 72.441406 102.96875 72.886719 107.570312 72.867188 C 111.179688 72.851562 116.8125 72.363281 119.089844 67.222656 C 114.6875 69.128906 107.820312 69.527344 103.496094 68.175781 C 110.375 64.613281 121.144531 64.226562 126.667969 59.550781 C 120.371094 54.851562 104.617188 60.648438 94.664062 67.472656 C 97.445312 64.929688 101.84375 60.417969 104.269531 56.773438 C 98.824219 54.164062 85.058594 69.414062 80.320312 78.476562 C 75.816406 81.019531 74.011719 85.003906 72.265625 87.789062 C 74.664062 79.679688 74.917969 73.792969 76.921875 67.117188 C 61.484375 72.429688 67.898438 100.957031 64.539062 107.78125 C 64.9375 100.246094 64.617188 90.566406 61.515625 85.574219 C 56.757812 89.203125 56.375 110.554688 60.839844 128.332031 C 59.226562 123.574219 56.183594 119.132812 55.210938 113.34375 C 48.171875 126.179688 59.335938 141.324219 68.667969 153.285156 C 61.640625 149.625 54.695312 141.75 50.128906 135.152344 C 51.390625 158.125 75.378906 162.898438 79.105469 168.542969 C 74.050781 166.191406 64.382812 161.535156 60.285156 166.414062 C 66.960938 167.953125 72.285156 169.734375 76.574219 172.546875 C 82.800781 180.324219 94.59375 183.722656 115.125 184.582031 Z M 115.125 184.582031 "/>
</g>
</svg>
