<?xml version="1.0" encoding="UTF-8"?>
<svg xmlns="http://www.w3.org/2000/svg" xmlns:xlink="http://www.w3.org/1999/xlink" width="px" height="px" viewBox="0 0 600 300" version="1.1">
<g id="surface1">
<rect x="0" y="0" width="600" height="300" style="fill:rgb(85.490196%,7.058824%,10.196078%);fill-opacity:1;stroke:none;"/>
<path style=" stroke:none;fill-rule:nonzero;fill:rgb(98.823529%,86.666667%,3.529412%);fill-opacity:1;" d="M 0 0 L 600 0 L 600 200 L 0 200 Z M 0 0 "/>
<path style=" stroke:none;fill-rule:nonzero;fill:rgb(2.745098%,53.72549%,18.823529%);fill-opacity:1;" d="M 0 0 L 600 0 L 600 100 L 0 100 Z M 0 0 "/>
<path style=" stroke:none;fill-rule:nonzero;fill:rgb(5.882353%,27.843137%,68.627451%);fill-opacity:1;" d="M 400 150 C 400 205.230469 355.230469 250 300 250 C 244.769531 250 200 205.230469 200 150 C 200 94.769531 244.769531 50 300 50 C 355.230469 50 400 94.769531 400 150 Z M 400 150 "/>
<path style=" stroke:none;fill-rule:nonzero;fill:rgb(98.823529%,86.666667%,3.529412%);fill-opacity:1;" d="M 300 70 L 296.496094 80.785156 L 310.953125 125.277344 L 291.675781 125.277344 L 289.511719 131.945312 L 351.3125 131.945312 L 360.488281 125.277344 L 317.960938 125.277344 Z M 300 70 "/>
<path style="fill-rule:nonzero;fill:rgb(0%,0%,0%);fill-opacity:1;stroke-width:4;stroke-linecap:butt;stroke-linejoin:miter;stroke:rgb(98.823529%,86.666667%,3.529412%);stroke-opacity:1;stroke-miterlimit:4;" d="M 25.860886 -35.596804 L 56.428012 -77.667032 " transform="matrix(0.833335,0,0,0.833335,300,150)"/>
<path style=" stroke:none;fill-rule:nonzero;fill:rgb(98.823529%,86.666667%,3.529412%);fill-opacity:1;" d="M 376.085938 125.277344 L 364.742188 125.277344 L 326.894531 152.777344 L 320.941406 134.445312 L 313.929688 134.445312 L 333.027344 193.222656 L 342.203125 199.890625 L 329.0625 159.441406 Z M 376.085938 125.277344 "/>
<path style="fill-rule:nonzero;fill:rgb(0%,0%,0%);fill-opacity:1;stroke-width:4;stroke-linecap:butt;stroke-linejoin:miter;stroke:rgb(98.823529%,86.666667%,3.529412%);stroke-opacity:1;stroke-miterlimit:4;" d="M 25.863744 -35.595038 L 56.429276 -77.666612 " transform="matrix(0.257515,0.792549,-0.792549,0.257515,300,150)"/>
<path style=" stroke:none;fill-rule:nonzero;fill:rgb(98.823529%,86.666667%,3.529412%);fill-opacity:1;" d="M 347.023438 214.722656 L 343.519531 203.933594 L 305.671875 176.4375 L 321.265625 165.109375 L 319.097656 158.441406 L 269.097656 194.769531 L 265.59375 205.554688 L 300 180.558594 Z M 347.023438 214.722656 "/>
<path style="fill:none;stroke-width:4;stroke-linecap:butt;stroke-linejoin:miter;stroke:rgb(98.823529%,86.666667%,3.529412%);stroke-opacity:1;stroke-miterlimit:4;" d="M 25.863418 -35.597941 L 56.427271 -77.665476 " transform="matrix(-0.674182,0.489822,-0.489822,-0.674182,300,150)"/>
<path style=" stroke:none;fill-rule:nonzero;fill:rgb(98.823529%,86.666667%,3.529412%);fill-opacity:1;" d="M 252.976562 214.722656 L 262.152344 208.054688 L 276.609375 163.5625 L 292.203125 174.894531 L 297.875 170.773438 L 247.875 134.445312 L 236.53125 134.445312 L 270.9375 159.441406 Z M 252.976562 214.722656 "/>
<path style="fill-rule:nonzero;fill:rgb(0%,0%,0%);fill-opacity:1;stroke-width:4;stroke-linecap:butt;stroke-linejoin:miter;stroke:rgb(98.823529%,86.666667%,3.529412%);stroke-opacity:1;stroke-miterlimit:4;" d="M 25.860556 -35.597353 L 56.427732 -77.667734 " transform="matrix(-0.674182,-0.489822,0.489822,-0.674182,300,150)"/>
<path style=" stroke:none;fill-rule:nonzero;fill:rgb(98.823529%,86.666667%,3.529412%);fill-opacity:1;" d="M 223.914062 125.277344 L 233.089844 131.945312 L 279.871094 131.945312 L 273.917969 150.277344 L 279.585938 154.398438 L 298.683594 95.617188 L 295.179688 84.832031 L 282.039062 125.277344 Z M 223.914062 125.277344 "/>
<path style="fill-rule:nonzero;fill:rgb(0%,0%,0%);fill-opacity:1;stroke-width:4;stroke-linecap:butt;stroke-linejoin:miter;stroke:rgb(98.823529%,86.666667%,3.529412%);stroke-opacity:1;stroke-miterlimit:4;" d="M 25.863119 -35.595181 L 56.428522 -77.666661 " transform="matrix(0.257515,-0.792549,0.792549,0.257515,300,150)"/>
</g>
</svg>
