<?xml version="1.0" encoding="UTF-8"?>
<svg xmlns="http://www.w3.org/2000/svg" xmlns:xlink="http://www.w3.org/1999/xlink" width="px" height="px" viewBox="0 0 600 300" version="1.1">
<defs>
<clipPath id="clip1">
  <path d="M 0 0 L 300 0 L 300 150 L 0 150 Z M 0 0 "/>
</clipPath>
<clipPath id="clip2">
  <path d="M 0 0 L 0 75 L 350 75 L 350 150 L 300 150 Z M 300 0 L 150 0 L 150 175 L 0 175 L 0 150 Z M 300 0 "/>
</clipPath>
<clipPath id="clip3">
  <path d="M 0 0 L 350 0 L 350 175 L 0 175 Z M 0 0 "/>
</clipPath>
<clipPath id="clip4">
  <path d="M 0 0 L 0 75 L 350 75 L 350 150 L 300 150 Z M 300 0 L 150 0 L 150 175 L 0 175 L 0 150 Z M 300 0 "/>
</clipPath>
<linearGradient id="linear0" gradientUnits="userSpaceOnUse" x1="826.45" y1="419.932" x2="786.124" y2="396.11" >
<stop offset="0" style="stop-color:rgb(64.313725%,22.352941%,2.745098%);stop-opacity:0.996078;"/>
<stop offset="1" style="stop-color:rgb(100%,100%,100%);stop-opacity:1;"/>
</linearGradient>
<linearGradient id="linear1" gradientUnits="userSpaceOnUse" x1="851.569" y1="436.067" x2="763.033" y2="419.673" >
<stop offset="0" style="stop-color:rgb(64.313725%,22.352941%,2.745098%);stop-opacity:0.996078;"/>
<stop offset="1" style="stop-color:rgb(100%,100%,100%);stop-opacity:1;"/>
</linearGradient>
<linearGradient id="linear2" gradientUnits="userSpaceOnUse" x1="1016.15" y1="398.539" x2="974.919" y2="400.941" >
<stop offset="0" style="stop-color:rgb(64.313725%,22.352941%,2.745098%);stop-opacity:0.996078;"/>
<stop offset="1" style="stop-color:rgb(100%,100%,100%);stop-opacity:1;"/>
</linearGradient>
<linearGradient id="linear3" gradientUnits="userSpaceOnUse" x1="1033.335" y1="421.219" x2="945.904" y2="428.645" >
<stop offset="0" style="stop-color:rgb(64.313725%,22.352941%,2.745098%);stop-opacity:0.996078;"/>
<stop offset="1" style="stop-color:rgb(100%,100%,100%);stop-opacity:1;"/>
</linearGradient>
<linearGradient id="linear4" gradientUnits="userSpaceOnUse" x1="1023.357" y1="445.132" x2="776.646" y2="445.132" >
<stop offset="0" style="stop-color:rgb(64.313725%,22.352941%,2.745098%);stop-opacity:0.996078;"/>
<stop offset="1" style="stop-color:rgb(100%,100%,100%);stop-opacity:1;"/>
</linearGradient>
<linearGradient id="linear5" gradientUnits="userSpaceOnUse" x1="783.43" y1="462.503" x2="1144.088" y2="465.421" >
<stop offset="0" style="stop-color:rgb(64.313725%,22.352941%,2.745098%);stop-opacity:0.996078;"/>
<stop offset="1" style="stop-color:rgb(100%,100%,100%);stop-opacity:1;"/>
</linearGradient>
<linearGradient id="linear6" gradientUnits="userSpaceOnUse" x1="1032.128" y1="442.287" x2="1002.941" y2="444.033" >
<stop offset="0" style="stop-color:rgb(64.313725%,22.352941%,2.745098%);stop-opacity:0.996078;"/>
<stop offset="1" style="stop-color:rgb(100%,100%,100%);stop-opacity:1;"/>
</linearGradient>
<linearGradient id="linear7" gradientUnits="userSpaceOnUse" x1="775.747" y1="471.718" x2="803.908" y2="476.185" >
<stop offset="0" style="stop-color:rgb(64.313725%,22.352941%,2.745098%);stop-opacity:0.996078;"/>
<stop offset="1" style="stop-color:rgb(100%,100%,100%);stop-opacity:1;"/>
</linearGradient>
<linearGradient id="linear8" gradientUnits="userSpaceOnUse" x1="803.177" y1="466.888" x2="755.308" y2="440.32" >
<stop offset="0" style="stop-color:rgb(64.313725%,22.352941%,2.745098%);stop-opacity:0.996078;"/>
<stop offset="1" style="stop-color:rgb(100%,100%,100%);stop-opacity:1;"/>
</linearGradient>
<linearGradient id="linear9" gradientUnits="userSpaceOnUse" x1="826.45" y1="419.932" x2="786.124" y2="396.11" >
<stop offset="0" style="stop-color:rgb(64.313725%,22.352941%,2.745098%);stop-opacity:0.996078;"/>
<stop offset="1" style="stop-color:rgb(100%,100%,100%);stop-opacity:1;"/>
</linearGradient>
<linearGradient id="linear10" gradientUnits="userSpaceOnUse" x1="851.569" y1="436.067" x2="763.033" y2="419.673" >
<stop offset="0" style="stop-color:rgb(64.313725%,22.352941%,2.745098%);stop-opacity:0.996078;"/>
<stop offset="1" style="stop-color:rgb(100%,100%,100%);stop-opacity:1;"/>
</linearGradient>
<linearGradient id="linear11" gradientUnits="userSpaceOnUse" x1="1016.15" y1="398.539" x2="974.919" y2="400.941" >
<stop offset="0" style="stop-color:rgb(64.313725%,22.352941%,2.745098%);stop-opacity:0.996078;"/>
<stop offset="1" style="stop-color:rgb(100%,100%,100%);stop-opacity:1;"/>
</linearGradient>
<linearGradient id="linear12" gradientUnits="userSpaceOnUse" x1="1033.335" y1="421.219" x2="945.904" y2="428.645" >
<stop offset="0" style="stop-color:rgb(64.313725%,22.352941%,2.745098%);stop-opacity:0.996078;"/>
<stop offset="1" style="stop-color:rgb(100%,100%,100%);stop-opacity:1;"/>
</linearGradient>
<linearGradient id="linear13" gradientUnits="userSpaceOnUse" x1="1023.357" y1="445.132" x2="776.646" y2="445.132" >
<stop offset="0" style="stop-color:rgb(64.313725%,22.352941%,2.745098%);stop-opacity:0.996078;"/>
<stop offset="1" style="stop-color:rgb(100%,100%,100%);stop-opacity:1;"/>
</linearGradient>
<linearGradient id="linear14" gradientUnits="userSpaceOnUse" x1="783.43" y1="462.503" x2="1144.088" y2="465.421" >
<stop offset="0" style="stop-color:rgb(64.313725%,22.352941%,2.745098%);stop-opacity:0.996078;"/>
<stop offset="1" style="stop-color:rgb(100%,100%,100%);stop-opacity:1;"/>
</linearGradient>
<linearGradient id="linear15" gradientUnits="userSpaceOnUse" x1="1032.128" y1="442.287" x2="1002.941" y2="444.033" >
<stop offset="0" style="stop-color:rgb(64.313725%,22.352941%,2.745098%);stop-opacity:0.996078;"/>
<stop offset="1" style="stop-color:rgb(100%,100%,100%);stop-opacity:1;"/>
</linearGradient>
<linearGradient id="linear16" gradientUnits="userSpaceOnUse" x1="775.747" y1="471.718" x2="803.908" y2="476.185" >
<stop offset="0" style="stop-color:rgb(64.313725%,22.352941%,2.745098%);stop-opacity:0.996078;"/>
<stop offset="1" style="stop-color:rgb(100%,100%,100%);stop-opacity:1;"/>
</linearGradient>
<linearGradient id="linear17" gradientUnits="userSpaceOnUse" x1="803.177" y1="466.888" x2="755.308" y2="440.32" >
<stop offset="0" style="stop-color:rgb(64.313725%,22.352941%,2.745098%);stop-opacity:0.996078;"/>
<stop offset="1" style="stop-color:rgb(100%,100%,100%);stop-opacity:1;"/>
</linearGradient>
</defs>
<g id="surface1">
<rect x="0" y="0" width="600" height="300" style="fill:rgb(0.392157%,12.941176%,41.176471%);fill-opacity:1;stroke:none;"/>
<path style="fill-rule:nonzero;fill:rgb(0%,0%,0%);fill-opacity:1;stroke-width:60;stroke-linecap:butt;stroke-linejoin:miter;stroke:rgb(100%,100%,100%);stroke-opacity:1;stroke-miterlimit:4;" d="M 0 0 L 600 300 M 600 0 L 0 300 " transform="matrix(0.5,0,0,0.5,0,0)"/>
<g clip-path="url(#clip1)" clip-rule="nonzero">
<g clip-path="url(#clip2)" clip-rule="nonzero">
<path style=" stroke:none;fill-rule:nonzero;fill:rgb(0%,0%,0%);fill-opacity:1;" d="M 0 0 L 300 150 M 300 0 L 0 150 "/>
</g>
</g>
<g clip-path="url(#clip3)" clip-rule="nonzero">
<g clip-path="url(#clip4)" clip-rule="nonzero">
<path style="fill:none;stroke-width:40;stroke-linecap:butt;stroke-linejoin:miter;stroke:rgb(78.431373%,6.27451%,18.039216%);stroke-opacity:1;stroke-miterlimit:4;" d="M 0 0 L 600 300 M 600 0 L 0 300 " transform="matrix(0.5,0,0,0.5,0,0)"/>
</g>
</g>
<path style="fill-rule:nonzero;fill:rgb(0%,0%,0%);fill-opacity:1;stroke-width:100;stroke-linecap:butt;stroke-linejoin:miter;stroke:rgb(100%,100%,100%);stroke-opacity:1;stroke-miterlimit:4;" d="M 300 0 L 300 350 M 0 150 L 700 150 " transform="matrix(0.5,0,0,0.5,0,0)"/>
<path style="fill-rule:nonzero;fill:rgb(0%,0%,0%);fill-opacity:1;stroke-width:60;stroke-linecap:butt;stroke-linejoin:miter;stroke:rgb(78.431373%,6.27451%,18.039216%);stroke-opacity:1;stroke-miterlimit:4;" d="M 300 0 L 300 350 M 0 150 L 700 150 " transform="matrix(0.5,0,0,0.5,0,0)"/>
<path style=" stroke:none;fill-rule:nonzero;fill:rgb(0.392157%,12.941176%,41.176471%);fill-opacity:1;" d="M 0 150 L 300 150 L 300 0 L 600 0 L 600 300 L 0 300 Z M 0 150 "/>
<path style="fill-rule:nonzero;fill:url(#linear0);stroke-width:12;stroke-linecap:butt;stroke-linejoin:bevel;stroke:rgb(100%,100%,100%);stroke-opacity:1;stroke-miterlimit:4;" d="M 826.453125 427.734375 C 826.453125 427.734375 817.914062 413.851562 810.796875 414.84375 C 803.6875 415.835938 797.046875 424.757812 796.570312 425.257812 C 796.101562 425.75 785.664062 413.851562 786.140625 413.351562 C 786.617188 412.859375 797.046875 387.070312 802.742188 386.078125 C 808.429688 385.09375 820.71875 387.976562 820.71875 388.96875 C 820.71875 389.960938 826.453125 427.734375 826.453125 427.734375 Z M 826.453125 427.734375 " transform="matrix(0.5,0,0,0.5,0,0)"/>
<path style="fill-rule:nonzero;fill:url(#linear1);stroke-width:12;stroke-linecap:butt;stroke-linejoin:bevel;stroke:rgb(100%,100%,100%);stroke-opacity:1;stroke-miterlimit:4;" d="M 845.421875 412.859375 C 845.421875 413.851562 842.570312 450.546875 830.242188 463.4375 C 817.914062 476.328125 798 484.265625 790.882812 482.28125 C 783.773438 480.296875 767.648438 443.109375 767.648438 443.109375 C 767.648438 443.109375 784.71875 460.960938 797.523438 457.984375 C 810.328125 455.007812 817.914062 432.695312 820.28125 421.78125 C 822.65625 410.875 820.757812 389.554688 820.757812 389.554688 Z M 845.421875 412.859375 " transform="matrix(0.5,0,0,0.5,0,0)"/>
<path style="fill-rule:nonzero;fill:url(#linear2);stroke-width:12;stroke-linecap:butt;stroke-linejoin:bevel;stroke:rgb(100%,100%,100%);stroke-opacity:1;stroke-miterlimit:4;" d="M 973.578125 427.734375 C 973.578125 427.734375 982.109375 413.851562 989.226562 414.84375 C 996.335938 415.835938 1002.976562 424.757812 1003.453125 425.257812 C 1003.929688 425.75 1014.359375 413.851562 1013.882812 413.351562 C 1013.414062 412.859375 1002.976562 387.070312 997.289062 386.078125 C 991.59375 385.09375 979.3125 387.976562 979.3125 388.96875 C 979.3125 389.960938 973.578125 427.734375 973.578125 427.734375 Z M 973.578125 427.734375 " transform="matrix(0.5,0,0,0.5,0,0)"/>
<path style="fill-rule:nonzero;fill:url(#linear3);stroke-width:12;stroke-linecap:butt;stroke-linejoin:bevel;stroke:rgb(100%,100%,100%);stroke-opacity:1;stroke-miterlimit:4;" d="M 954.609375 412.859375 C 954.609375 413.851562 957.453125 450.546875 969.78125 463.4375 C 982.109375 476.328125 1002.03125 484.265625 1009.140625 482.28125 C 1016.257812 480.296875 1032.382812 443.109375 1032.382812 443.109375 C 1032.382812 443.109375 1015.304688 460.960938 1002.507812 457.984375 C 989.703125 455.007812 982.109375 432.695312 979.742188 421.78125 C 977.367188 410.875 979.265625 389.554688 979.265625 389.554688 Z M 954.609375 412.859375 " transform="matrix(0.5,0,0,0.5,0,0)"/>
<path style="fill-rule:nonzero;fill:url(#linear4);stroke-width:12;stroke-linecap:butt;stroke-linejoin:bevel;stroke:rgb(100%,100%,100%);stroke-opacity:1;stroke-miterlimit:4;" d="M 788.945312 407.484375 C 783.257812 414.421875 780.21875 419.789062 777.84375 423.757812 C 775.476562 427.726562 776.867188 433.242188 782.34375 441.117188 C 788.25 449.609375 836.796875 482.78125 900.023438 482.78125 C 963.25 482.78125 1011.789062 449.609375 1017.695312 441.117188 C 1023.171875 433.242188 1024.53125 427.726562 1022.15625 423.757812 C 1019.789062 419.789062 1016.789062 414.421875 1011.09375 407.484375 C 1011.09375 417.890625 970.882812 455.523438 900.023438 455.523438 C 829.15625 455.523438 788.945312 417.898438 788.945312 407.484375 Z M 788.945312 407.484375 " transform="matrix(0.5,0,0,0.5,0,0)"/>
<path style="fill-rule:nonzero;fill:url(#linear5);stroke-width:12;stroke-linecap:butt;stroke-linejoin:bevel;stroke:rgb(100%,100%,100%);stroke-opacity:1;stroke-miterlimit:4;" d="M 1008.25 476.742188 C 1009.195312 475.257812 1019.15625 457.898438 1019.15625 457.898438 L 1013.695312 453.867188 C 1012.015625 458.78125 1005.875 460.375 1004.929688 466.328125 C 1003.984375 472.28125 1009.195312 478.226562 1008.25 476.742188 Z M 1008.25 476.742188 " transform="matrix(0.5,0,0,0.5,0,0)"/>
<path style="fill-rule:nonzero;fill:url(#linear6);stroke-width:12;stroke-linecap:butt;stroke-linejoin:bevel;stroke:rgb(100%,100%,100%);stroke-opacity:1;stroke-miterlimit:4;" d="M 1018.148438 471.367188 C 1018.148438 471.367188 1020.046875 462.945312 1013.882812 461.953125 C 1007.71875 460.960938 1004.453125 466.671875 1005.34375 464.429688 C 1006.335938 461.945312 1010.085938 459.46875 1010.5625 451.039062 C 1011.039062 442.609375 1010.085938 438.148438 1010.085938 438.148438 C 1010.085938 438.148438 1012.460938 427.234375 1022.421875 428.726562 C 1032.375 430.21875 1032.851562 438.148438 1032.851562 441.125 C 1032.851562 444.101562 1031.90625 445.585938 1031.90625 445.585938 Z M 1018.148438 471.367188 " transform="matrix(0.5,0,0,0.5,0,0)"/>
<path style="fill-rule:nonzero;fill:url(#linear7);stroke-width:12;stroke-linecap:butt;stroke-linejoin:bevel;stroke:rgb(100%,100%,100%);stroke-opacity:1;stroke-miterlimit:4;" d="M 791.773438 476.742188 C 790.820312 475.257812 780.867188 457.898438 780.867188 457.898438 L 786.328125 453.867188 C 788 458.78125 794.140625 460.375 795.09375 466.328125 C 796.039062 472.28125 790.820312 478.226562 791.773438 476.742188 Z M 791.773438 476.742188 " transform="matrix(0.5,0,0,0.5,0,0)"/>
<path style="fill-rule:nonzero;fill:url(#linear8);stroke-width:12;stroke-linecap:butt;stroke-linejoin:bevel;stroke:rgb(100%,100%,100%);stroke-opacity:1;stroke-miterlimit:4;" d="M 781.875 471.367188 C 781.875 471.367188 779.976562 462.945312 786.140625 461.953125 C 792.304688 460.960938 795.570312 466.671875 794.679688 464.429688 C 793.6875 461.945312 789.9375 459.46875 789.460938 451.039062 C 788.984375 442.609375 789.9375 438.148438 789.9375 438.148438 C 789.9375 438.148438 787.5625 427.234375 777.601562 428.726562 C 767.648438 430.21875 767.171875 438.148438 767.171875 441.125 C 767.171875 444.101562 768.117188 445.585938 768.117188 445.585938 Z M 781.875 471.367188 " transform="matrix(0.5,0,0,0.5,0,0)"/>
<path style="fill-rule:nonzero;fill:url(#linear9);stroke-width:1.8;stroke-linecap:butt;stroke-linejoin:bevel;stroke:rgb(0%,0%,0%);stroke-opacity:1;stroke-miterlimit:4;" d="M 826.453125 427.734375 C 826.453125 427.734375 817.914062 413.851562 810.796875 414.84375 C 803.6875 415.835938 797.046875 424.757812 796.570312 425.257812 C 796.101562 425.75 785.664062 413.851562 786.140625 413.351562 C 786.617188 412.859375 797.046875 387.070312 802.742188 386.078125 C 808.429688 385.09375 820.71875 387.976562 820.71875 388.96875 C 820.71875 389.960938 826.453125 427.734375 826.453125 427.734375 Z M 826.453125 427.734375 " transform="matrix(0.5,0,0,0.5,0,0)"/>
<path style="fill-rule:nonzero;fill:url(#linear10);stroke-width:1.8;stroke-linecap:butt;stroke-linejoin:bevel;stroke:rgb(0%,0%,0%);stroke-opacity:1;stroke-miterlimit:4;" d="M 845.421875 412.859375 C 845.421875 413.851562 842.570312 450.546875 830.242188 463.4375 C 817.914062 476.328125 798 484.265625 790.882812 482.28125 C 783.773438 480.296875 767.648438 443.109375 767.648438 443.109375 C 767.648438 443.109375 784.71875 460.960938 797.523438 457.984375 C 810.328125 455.007812 817.914062 432.695312 820.28125 421.78125 C 822.65625 410.875 820.757812 389.554688 820.757812 389.554688 Z M 845.421875 412.859375 " transform="matrix(0.5,0,0,0.5,0,0)"/>
<path style="fill-rule:nonzero;fill:url(#linear11);stroke-width:1.8;stroke-linecap:butt;stroke-linejoin:bevel;stroke:rgb(0%,0%,0%);stroke-opacity:1;stroke-miterlimit:4;" d="M 973.578125 427.734375 C 973.578125 427.734375 982.109375 413.851562 989.226562 414.84375 C 996.335938 415.835938 1002.976562 424.757812 1003.453125 425.257812 C 1003.929688 425.75 1014.359375 413.851562 1013.882812 413.351562 C 1013.414062 412.859375 1002.976562 387.070312 997.289062 386.078125 C 991.59375 385.09375 979.3125 387.976562 979.3125 388.96875 C 979.3125 389.960938 973.578125 427.734375 973.578125 427.734375 Z M 973.578125 427.734375 " transform="matrix(0.5,0,0,0.5,0,0)"/>
<path style="fill-rule:nonzero;fill:url(#linear12);stroke-width:1.8;stroke-linecap:butt;stroke-linejoin:bevel;stroke:rgb(0%,0%,0%);stroke-opacity:1;stroke-miterlimit:4;" d="M 954.609375 412.859375 C 954.609375 413.851562 957.453125 450.546875 969.78125 463.4375 C 982.109375 476.328125 1002.03125 484.265625 1009.140625 482.28125 C 1016.257812 480.296875 1032.382812 443.109375 1032.382812 443.109375 C 1032.382812 443.109375 1015.304688 460.960938 1002.507812 457.984375 C 989.703125 455.007812 982.109375 432.695312 979.742188 421.78125 C 977.367188 410.875 979.265625 389.554688 979.265625 389.554688 Z M 954.609375 412.859375 " transform="matrix(0.5,0,0,0.5,0,0)"/>
<path style="fill-rule:nonzero;fill:url(#linear13);stroke-width:1.8;stroke-linecap:butt;stroke-linejoin:bevel;stroke:rgb(0%,0%,0%);stroke-opacity:1;stroke-miterlimit:4;" d="M 788.945312 407.484375 C 783.257812 414.421875 780.21875 419.789062 777.84375 423.757812 C 775.476562 427.726562 776.867188 433.242188 782.34375 441.117188 C 788.25 449.609375 836.796875 482.78125 900.023438 482.78125 C 963.25 482.78125 1011.789062 449.609375 1017.695312 441.117188 C 1023.171875 433.242188 1024.53125 427.726562 1022.15625 423.757812 C 1019.789062 419.789062 1016.789062 414.421875 1011.09375 407.484375 C 1011.09375 417.890625 970.882812 455.523438 900.023438 455.523438 C 829.15625 455.523438 788.945312 417.898438 788.945312 407.484375 Z M 788.945312 407.484375 " transform="matrix(0.5,0,0,0.5,0,0)"/>
<path style="fill-rule:nonzero;fill:url(#linear14);stroke-width:1.8;stroke-linecap:butt;stroke-linejoin:bevel;stroke:rgb(0%,0%,0%);stroke-opacity:1;stroke-miterlimit:4;" d="M 1008.25 476.742188 C 1009.195312 475.257812 1019.15625 457.898438 1019.15625 457.898438 L 1013.695312 453.867188 C 1012.015625 458.78125 1005.875 460.375 1004.929688 466.328125 C 1003.984375 472.28125 1009.195312 478.226562 1008.25 476.742188 Z M 1008.25 476.742188 " transform="matrix(0.5,0,0,0.5,0,0)"/>
<path style="fill-rule:nonzero;fill:url(#linear15);stroke-width:1.8;stroke-linecap:butt;stroke-linejoin:bevel;stroke:rgb(0%,0%,0%);stroke-opacity:1;stroke-miterlimit:4;" d="M 1018.148438 471.367188 C 1018.148438 471.367188 1020.046875 462.945312 1013.882812 461.953125 C 1007.71875 460.960938 1004.453125 466.671875 1005.34375 464.429688 C 1006.335938 461.945312 1010.085938 459.46875 1010.5625 451.039062 C 1011.039062 442.609375 1010.085938 438.148438 1010.085938 438.148438 C 1010.085938 438.148438 1012.460938 427.234375 1022.421875 428.726562 C 1032.375 430.21875 1032.851562 438.148438 1032.851562 441.125 C 1032.851562 444.101562 1031.90625 445.585938 1031.90625 445.585938 Z M 1018.148438 471.367188 " transform="matrix(0.5,0,0,0.5,0,0)"/>
<path style="fill-rule:nonzero;fill:url(#linear16);stroke-width:1.8;stroke-linecap:butt;stroke-linejoin:bevel;stroke:rgb(0%,0%,0%);stroke-opacity:1;stroke-miterlimit:4;" d="M 791.773438 476.742188 C 790.820312 475.257812 780.867188 457.898438 780.867188 457.898438 L 786.328125 453.867188 C 788 458.78125 794.140625 460.375 795.09375 466.328125 C 796.039062 472.28125 790.820312 478.226562 791.773438 476.742188 Z M 791.773438 476.742188 " transform="matrix(0.5,0,0,0.5,0,0)"/>
<path style="fill-rule:nonzero;fill:url(#linear17);stroke-width:1.8;stroke-linecap:butt;stroke-linejoin:bevel;stroke:rgb(0%,0%,0%);stroke-opacity:1;stroke-miterlimit:4;" d="M 781.875 471.367188 C 781.875 471.367188 779.976562 462.945312 786.140625 461.953125 C 792.304688 460.960938 795.570312 466.671875 794.679688 464.429688 C 793.6875 461.945312 789.9375 459.46875 789.460938 451.039062 C 788.984375 442.609375 789.9375 438.148438 789.9375 438.148438 C 789.9375 438.148438 787.5625 427.234375 777.601562 428.726562 C 767.648438 430.21875 767.171875 438.148438 767.171875 441.125 C 767.171875 444.101562 768.117188 445.585938 768.117188 445.585938 Z M 781.875 471.367188 " transform="matrix(0.5,0,0,0.5,0,0)"/>
<path style=" stroke:none;fill-rule:nonzero;fill:rgb(0%,0%,0%);fill-opacity:1;" d="M 406.714844 219.28125 L 404.132812 217.503906 L 403.832031 217.980469 L 404.339844 218.402344 L 404.382812 218.652344 L 401.132812 223.824219 L 400.890625 223.882812 L 400.320312 223.558594 L 400.023438 224.035156 L 402.605469 225.816406 C 403.488281 226.425781 404.246094 226.734375 405.089844 226.648438 C 406.183594 226.535156 407.121094 225.898438 407.84375 224.75 C 409.128906 222.703125 408.769531 220.699219 406.714844 219.28125 Z M 405.636719 219.320312 L 406.152344 219.675781 C 407.558594 220.644531 407.683594 222 406.53125 223.828125 C 405.378906 225.660156 404.132812 226.085938 402.726562 225.117188 L 402.214844 224.761719 Z M 407.585938 228.636719 L 412.722656 231.203125 L 413.578125 229.320312 L 412.929688 228.996094 L 412.257812 230.03125 L 412.058594 230.136719 L 409.839844 229.027344 L 411.085938 226.292969 L 412.328125 226.914062 L 412.398438 227.128906 L 412.148438 227.933594 L 412.710938 228.214844 L 413.824219 225.773438 L 413.257812 225.492188 L 412.820312 226.203125 L 412.617188 226.28125 L 411.375 225.660156 L 412.515625 223.15625 L 414.417969 224.109375 L 414.480469 224.304688 L 414.203125 225.304688 L 414.871094 225.640625 L 415.625 223.988281 L 410.804688 221.578125 L 410.570312 222.09375 L 411.128906 222.4375 L 411.214844 222.660156 L 408.660156 228.269531 L 408.429688 228.359375 L 407.820312 228.121094 Z M 414.394531 231.5 C 350.464844 284.121094 255.984375 274.957031 203.363281 211.03125 C 150.738281 147.105469 159.902344 52.621094 223.828125 0 C 225.484375 0.558594 226.796875 -0.0546875 227.199219 -1.375 C 227.402344 -2.027344 227.261719 -2.738281 226.804688 -3.34375 C 226.339844 -3.964844 225.855469 -4.3125 225.609375 -4.628906 C 225.183594 -5.164062 225.003906 -5.59375 225.160156 -6.101562 C 225.347656 -6.714844 225.9375 -7.003906 226.671875 -6.757812 C 226.996094 -6.648438 227.210938 -6.515625 227.359375 -6.351562 L 227.453125 -6.148438 L 227.273438 -4.9375 L 227.996094 -4.691406 L 228.550781 -6.492188 C 227.988281 -6.949219 227.394531 -7.296875 226.769531 -7.507812 C 225.328125 -7.992188 224.097656 -7.355469 223.71875 -6.125 C 223.550781 -5.578125 223.625 -4.953125 223.957031 -4.367188 C 224.273438 -3.804688 224.691406 -3.457031 225.027344 -3.097656 C 225.621094 -2.457031 225.859375 -1.9375 225.675781 -1.335938 C 225.488281 -0.726562 224.867188 -0.445312 224.050781 -0.722656 C 225.023438 -1.84375 226.699219 -2.027344 227.894531 -1.144531 C 229.085938 -0.257812 229.394531 1.398438 228.601562 2.65625 C 227.808594 3.914062 226.179688 4.34375 224.867188 3.648438 C 223.554688 2.953125 223 1.363281 223.597656 0 L 223.515625 -0.210938 L 223.765625 -1.597656 L 222.996094 -1.855469 L 222.378906 0.152344 Z M 419.753906 233.578125 L 422.769531 234.59375 L 422.9375 234.050781 L 422.277344 233.765625 L 422.171875 233.535156 L 423.988281 227.621094 L 424.195312 227.519531 L 424.890625 227.691406 L 425.054688 227.148438 L 422.039062 226.128906 L 421.875 226.675781 L 422.523438 226.953125 L 422.636719 227.164062 L 420.820312 233.078125 L 420.601562 233.203125 L 419.921875 233.03125 Z M 426.230469 227.410156 L 426.117188 227.96875 L 426.714844 228.160156 L 426.847656 228.359375 L 425.597656 234.4375 L 425.390625 234.585938 L 424.769531 234.507812 L 424.65625 235.066406 L 427.574219 235.710938 L 427.691406 235.152344 L 427.070312 234.953125 L 426.941406 234.734375 L 427.46875 232.167969 L 427.648438 232.207031 C 428.691406 232.441406 428.859375 232.988281 428.957031 234.144531 C 429.011719 234.726562 428.996094 235.261719 429.441406 235.835938 C 429.648438 236.109375 430 236.332031 430.449219 236.429688 C 430.769531 236.5 431.128906 236.542969 431.5 236.566406 L 431.613281 236.019531 L 431.480469 235.988281 C 430.785156 235.835938 430.511719 235.597656 430.421875 234.921875 C 430.34375 234.308594 430.386719 233.671875 430.167969 233.097656 C 430.007812 232.683594 429.699219 232.386719 429.226562 232.152344 C 430.445312 232.171875 431.195312 231.644531 431.410156 230.59375 C 431.671875 229.328125 430.984375 228.460938 429.378906 228.105469 Z M 428.21875 228.53125 L 428.695312 228.636719 C 429.699219 228.855469 430.121094 229.5 429.925781 230.433594 C 429.710938 231.484375 429.085938 231.847656 427.976562 231.601562 C 364.023438 231.628906 312.15625 179.804688 312.128906 115.847656 C 312.101562 51.894531 363.929688 0.0273438 427.882812 0 L 428.496094 -2.976562 Z M 432.792969 236.945312 L 438.472656 237.226562 L 438.566406 235.140625 L 437.847656 235.105469 L 437.613281 236.332031 L 437.464844 236.511719 L 435.011719 236.390625 L 435.144531 233.359375 L 436.519531 233.429688 L 436.660156 233.597656 L 436.730469 234.441406 L 437.355469 234.472656 L 437.472656 231.769531 L 436.847656 231.738281 L 436.707031 232.574219 L 436.550781 232.730469 L 435.175781 232.660156 L 435.296875 229.890625 L 437.402344 229.992188 L 437.53125 230.152344 L 437.648438 231.183594 L 438.386719 231.222656 L 438.46875 229.390625 L 433.136719 229.128906 L 433.109375 229.699219 L 433.753906 229.789062 L 433.914062 229.960938 L 433.644531 236.167969 L 433.464844 236.347656 L 432.816406 236.375 Z M 442.78125 230.351562 L 442.761719 232.414062 L 443.511719 232.425781 L 443.695312 231.179688 L 443.871094 231.027344 L 445.175781 231.042969 L 445.117188 237.386719 L 444.929688 237.570312 L 444.222656 237.621094 L 444.21875 238.191406 L 447.464844 238.230469 L 447.472656 237.660156 L 446.765625 237.59375 L 446.582031 237.40625 L 446.640625 231.0625 L 447.945312 231.078125 L 448.109375 231.230469 L 448.28125 232.480469 L 449.03125 232.488281 L 449.050781 230.425781 Z M 449.382812 230.574219 L 449.394531 231.144531 L 450.023438 231.195312 L 450.203125 231.375 L 450.308594 237.566406 L 450.140625 237.757812 L 449.511719 237.828125 L 449.519531 238.398438 L 452.59375 238.34375 L 452.585938 237.773438 L 451.929688 237.726562 L 451.753906 237.542969 L 451.703125 234.605469 L 454.84375 234.550781 L 454.894531 237.488281 L 454.734375 237.675781 L 454.085938 237.746094 L 454.09375 238.316406 L 457.15625 238.265625 L 457.148438 237.691406 L 456.515625 237.648438 L 456.339844 237.464844 L 456.230469 231.273438 L 456.402344 231.082031 L 457.03125 231.011719 L 457.019531 230.441406 L 453.957031 230.496094 L 453.96875 231.066406 L 454.621094 231.113281 L 454.785156 231.296875 L 454.832031 233.851562 L 451.691406 233.90625 L 451.644531 231.351562 L 451.816406 231.160156 L 452.46875 231.09375 L 452.457031 230.519531 Z M 458.035156 238.207031 L 463.847656 237.675781 L 463.671875 235.59375 L 462.933594 235.664062 L 462.855469 236.910156 L 462.730469 237.109375 L 460.21875 237.339844 L 459.964844 234.320312 L 461.371094 234.191406 L 461.535156 234.339844 L 461.714844 235.164062 L 462.351562 235.105469 L 462.121094 232.410156 L 461.484375 232.46875 L 461.449219 233.316406 L 461.308594 233.492188 L 459.902344 233.621094 L 459.667969 230.855469 L 461.820312 230.660156 L 461.976562 230.796875 L 462.226562 231.804688 L 462.984375 231.738281 L 462.828125 229.914062 L 457.371094 230.410156 L 457.421875 230.980469 L 458.085938 230.980469 L 458.273438 231.125 L 458.800781 237.316406 L 458.644531 237.519531 L 457.988281 237.636719 Z M 466.277344 229.175781 L 466.367188 229.742188 L 467.050781 229.683594 L 467.257812 229.8125 L 468.222656 235.949219 L 468.070312 236.164062 L 467.40625 236.335938 L 467.496094 236.898438 L 470.714844 236.347656 L 470.625 235.785156 L 469.917969 235.847656 L 469.707031 235.695312 L 469.300781 233.105469 L 469.492188 233.070312 C 470.644531 232.875 471.019531 233.320312 471.546875 234.351562 C 471.816406 234.871094 472 235.371094 472.667969 235.730469 C 472.976562 235.902344 473.417969 235.96875 473.910156 235.886719 C 474.261719 235.824219 474.644531 235.722656 475.035156 235.597656 L 474.949219 235.046875 L 474.800781 235.070312 C 474.035156 235.203125 473.667969 235.089844 473.328125 234.496094 C 473.019531 233.957031 472.832031 233.351562 472.398438 232.90625 C 472.078125 232.582031 471.652344 232.429688 471.085938 232.398438 C 472.335938 231.933594 472.90625 231.152344 472.738281 230.09375 C 472.539062 228.816406 471.515625 228.28125 469.746094 228.585938 Z M 468.71875 229.433594 L 469.246094 229.34375 C 470.351562 229.15625 471.015625 229.585938 471.167969 230.527344 C 471.332031 231.585938 470.828125 232.167969 469.605469 232.378906 C 469.480469 232.398438 469.34375 232.421875 469.195312 232.4375 Z M 475.90625 235.304688 L 479.207031 234.261719 L 479.042969 233.71875 L 478.285156 233.894531 L 478.054688 233.773438 L 476.265625 227.824219 L 476.394531 227.613281 L 477.117188 227.324219 L 476.953125 226.777344 L 473.652344 227.816406 L 473.816406 228.363281 L 474.5625 228.191406 L 474.785156 228.289062 L 476.574219 234.238281 L 476.453125 234.472656 L 475.742188 234.757812 Z M 482.769531 228.867188 L 482.925781 229.417969 L 483.761719 229.214844 L 483.984375 229.316406 L 484.640625 231.597656 C 484.359375 231.710938 484.152344 231.785156 484.039062 231.820312 C 482.335938 232.351562 480.957031 231.503906 480.378906 229.496094 C 479.816406 227.539062 480.503906 226.058594 482.152344 225.542969 C 419.871094 296.40625 311.9375 303.359375 241.078125 241.078125 C 170.214844 178.792969 163.261719 70.859375 225.542969 0 L 225.765625 0.148438 L 226.316406 1.265625 L 227.125 1.015625 L 226.582031 -0.882812 C 225.691406 -0.875 224.871094 -0.75 224.136719 -0.523438 C 221.679688 0.246094 220.535156 2.269531 221.191406 4.5625 C 221.859375 6.886719 223.894531 8.003906 226.21875 7.277344 C 227.027344 7.023438 227.804688 6.613281 228.570312 6.042969 L 227.824219 3.441406 L 227.953125 3.226562 L 228.582031 2.972656 L 228.425781 2.425781 L 225.191406 3.433594 Z M 484.480469 224.195312 L 484.726562 224.703125 L 485.351562 224.441406 L 485.597656 224.519531 L 488.273438 230.046875 L 488.1875 230.300781 L 487.613281 230.667969 L 487.859375 231.179688 L 490.78125 229.636719 L 490.535156 229.128906 L 489.890625 229.402344 L 489.644531 229.324219 L 488.375 226.699219 L 491.355469 225.125 L 492.625 227.75 L 492.550781 227.996094 L 491.957031 228.378906 L 492.203125 228.886719 L 495.113281 227.351562 L 494.867188 226.839844 L 494.242188 227.105469 L 494 227.027344 L 491.324219 221.496094 L 491.40625 221.242188 L 491.980469 220.875 L 491.734375 220.363281 L 488.824219 221.902344 L 489.070312 222.410156 L 489.714844 222.136719 L 489.949219 222.222656 L 491.054688 224.5 L 488.070312 226.074219 L 486.96875 223.796875 L 487.054688 223.542969 L 487.648438 223.160156 L 487.402344 222.652344 Z M 491.792969 219.96875 L 492.804688 221.742188 L 493.488281 221.316406 L 493.035156 220.144531 L 493.121094 219.914062 L 494.308594 219.171875 L 497.425781 224.621094 L 497.351562 224.882812 L 496.734375 225.335938 L 497.011719 225.828125 L 499.980469 223.976562 L 499.699219 223.484375 L 499.027344 223.835938 L 498.765625 223.78125 L 495.652344 218.335938 L 496.84375 217.589844 L 497.066406 217.628906 L 497.847656 218.59375 L 498.53125 218.167969 L 497.515625 216.394531 Z M 491.792969 219.96875 "/>
<path style="fill-rule:nonzero;fill:rgb(0%,44.705882%,76.862745%);fill-opacity:1;stroke-width:6;stroke-linecap:butt;stroke-linejoin:miter;stroke:rgb(100%,100%,100%);stroke-opacity:1;stroke-miterlimit:4;" d="M 900.007812 448.34375 C 900.007812 448.34375 785.546875 414.609375 786.210938 286.265625 L 787.09375 116.617188 L 1012.929688 116.617188 L 1013.8125 285.296875 C 1014.484375 413.632812 900.007812 448.34375 900.007812 448.34375 Z M 900.007812 448.34375 " transform="matrix(0.5,0,0,0.5,0,0)"/>
<path style=" stroke:none;fill-rule:nonzero;fill:rgb(73.72549%,73.72549%,73.72549%);fill-opacity:1;" d="M 401.402344 77.519531 C 401.496094 77.519531 402.191406 76.863281 402.824219 76.28125 C 403.710938 75.835938 404.53125 75.210938 405.433594 74.792969 C 406.105469 74.40625 407.433594 74.101562 408.042969 73.800781 C 408.839844 73.382812 409.492188 72.902344 410.175781 72.066406 C 410.257812 70.957031 410.414062 70.160156 410.414062 68.84375 C 411.355469 68.390625 412.195312 67.949219 413.023438 67.601562 C 414.207031 67.269531 414.464844 66.792969 415.628906 66.609375 C 416.378906 66.347656 417.617188 66.363281 418.710938 66.363281 C 419.890625 66.363281 420.636719 67.199219 421.695312 67.398438 C 422.953125 67.90625 423.539062 68.257812 424.539062 69.136719 C 425.109375 69.851562 425.460938 70.433594 426.425781 70.972656 C 427.1875 71.367188 427.90625 71.960938 428.796875 72.214844 C 429.773438 72.78125 430.644531 73.109375 431.402344 73.949219 C 432.101562 74.445312 432.386719 75.179688 433.0625 75.683594 C 433.847656 76.335938 434.589844 76.917969 435.433594 77.421875 C 436.449219 78.101562 437.457031 78.617188 439.101562 78.46875 C 439.972656 78.417969 440.914062 78.316406 441.949219 78.511719 C 443.109375 78.511719 444.242188 78.492188 445.269531 78.761719 C 446.476562 78.761719 447.457031 78.921875 448.589844 79.007812 C 449.648438 79.207031 450.726562 79.257812 451.90625 79.257812 C 452.933594 79.523438 454.066406 79.503906 455.226562 79.503906 L 461.867188 79.503906 C 463.074219 79.503906 464.296875 79.550781 465.183594 79.753906 C 466.382812 79.753906 467.410156 79.640625 468.503906 79.503906 C 469.792969 79.503906 470.773438 79.269531 472.0625 79.257812 L 476.09375 79.257812 C 477.128906 79.539062 478.449219 79.734375 479.175781 80.246094 C 480.125 80.519531 480.597656 80.96875 481.546875 81.238281 C 482.273438 81.613281 483.378906 82.203125 483.917969 82.972656 C 484.585938 83.675781 485.273438 84.675781 485.816406 85.703125 C 486.472656 86.65625 486.726562 87.742188 487.238281 88.925781 C 487.507812 90.058594 487.695312 91.136719 487.710938 92.394531 C 487.96875 93.472656 487.949219 94.652344 487.949219 95.867188 C 487.679688 96.996094 487.617188 98.257812 487.238281 99.339844 C 487.195312 100.546875 486.953125 101.644531 486.761719 102.5625 C 486.550781 103.578125 486.304688 104.230469 486.289062 105.535156 L 486.289062 109.007812 C 486.203125 110.148438 485.957031 110.984375 485.816406 112.230469 C 485.242188 113.3125 484.691406 114.578125 484.15625 115.949219 C 483.367188 116.5 482.679688 117.28125 482.257812 117.933594 C 481.753906 118.246094 481.460938 118.71875 481.546875 118.925781 C 482.492188 119.253906 482.257812 119.914062 482.257812 121.15625 C 482.382812 122.113281 482.472656 123.296875 482.734375 124.378906 C 482.820312 125.5625 483.074219 126.289062 483.445312 127.105469 C 483.816406 127.59375 483.890625 127.355469 482.96875 127.355469 C 482.285156 127.890625 481.589844 127.613281 481.308594 126.609375 C 480.757812 125.945312 480.574219 125.136719 480.363281 123.882812 C 480.230469 122.734375 480.046875 121.617188 479.648438 120.910156 C 479.527344 119.511719 479.15625 119.527344 477.753906 119.421875 C 477.085938 118.828125 476.203125 118.675781 474.90625 118.675781 C 473.617188 118.675781 473.507812 118.546875 473.484375 119.917969 L 473.484375 123.386719 C 473.261719 124.394531 472.773438 125.210938 472.535156 126.113281 C 471.828125 126.632812 471.460938 127.503906 470.640625 128.097656 C 470.246094 129.222656 469.679688 129.421875 468.503906 129.585938 C 468.09375 129.074219 467.425781 128.40625 467.082031 127.851562 C 467.746094 126.738281 468.324219 126.570312 468.742188 125.371094 C 469.246094 124.382812 469.542969 123.746094 469.925781 122.890625 C 469.421875 122.113281 468.96875 121.761719 468.503906 120.660156 C 468.113281 120.058594 467.574219 118.769531 467.320312 117.933594 C 466.542969 117.664062 465.316406 117.617188 464.710938 117.191406 C 463.5625 116.921875 463.238281 118.179688 461.867188 118.179688 L 458.546875 118.179688 C 457.078125 118.179688 456.710938 119 455.464844 118.925781 C 455.097656 119.042969 454.207031 118.871094 452.855469 118.925781 C 451.863281 119.269531 450.671875 119.171875 449.535156 119.171875 C 448.332031 119.15625 447.347656 118.882812 446.453125 118.675781 C 445.363281 118.378906 444.28125 118.078125 443.132812 117.933594 C 441.742188 117.933594 441.222656 118.042969 440.289062 118.675781 C 439.550781 119.117188 438.476562 120.117188 437.679688 120.660156 C 437.34375 121.484375 437.167969 122.875 436.734375 123.882812 C 436.480469 124.851562 436.070312 125.464844 435.785156 126.363281 C 435.464844 127.203125 435.160156 128.066406 435.074219 129.339844 C 434.992188 131.007812 434.628906 130.804688 433.648438 130.332031 C 433.242188 129.636719 432.59375 128.878906 432.226562 128.097656 C 432.441406 126.835938 432.6875 126.210938 432.703125 124.875 C 432.472656 123.914062 431.933594 123.945312 431.277344 124.628906 C 431.277344 125.925781 431.339844 126.925781 430.804688 127.601562 C 430.539062 128.628906 430.109375 129.070312 429.382812 129.585938 C 429.027344 130.507812 428.238281 130.929688 427.484375 131.320312 C 427.363281 131.28125 427.484375 130.988281 427.484375 130.332031 C 426.917969 129.195312 427.445312 128.253906 427.445312 126.859375 C 427.460938 125.609375 427.386719 124.777344 427.75 123.636719 C 427.75 122.433594 427.191406 121.289062 427.011719 120.414062 C 426.570312 119.492188 426.316406 119.035156 425.113281 118.675781 C 424.269531 118.339844 423.050781 117.886719 422.503906 117.191406 C 421.816406 116.296875 421.378906 115.929688 420.371094 115.453125 C 419.28125 115.058594 418.75 114.699219 418 114.214844 C 417.269531 113.40625 416.671875 113.054688 416.339844 111.984375 C 415.847656 111.222656 415.761719 109.804688 415.390625 108.757812 C 415.3125 107.671875 415 106.660156 414.679688 105.785156 C 414.539062 104.695312 414.367188 103.898438 413.96875 102.808594 C 413.835938 101.789062 413.542969 100.722656 413.257812 99.585938 C 413.257812 98.375 413.277344 97.191406 413.019531 96.117188 L 413.019531 92.644531 C 412.851562 91.640625 412.789062 90.175781 412.546875 89.421875 C 412.546875 88.070312 412.402344 87.308594 412.074219 86.445312 C 411.53125 85.570312 411.488281 85.175781 410.648438 84.957031 C 410.046875 85.726562 409.050781 86.042969 407.804688 86.199219 C 406.933594 86 405.707031 85.871094 404.722656 85.453125 C 403.773438 85.21875 403.121094 84.84375 402.351562 84.460938 C 401.929688 83.8125 401.425781 83.078125 400.929688 82.476562 C 400.78125 81.183594 400.5 80.515625 400.453125 79.257812 C 400.453125 78.308594 400.476562 78.8125 401.402344 77.519531 Z M 401.402344 77.519531 "/>
<path style=" stroke:none;fill-rule:nonzero;fill:rgb(99.607843%,99.607843%,99.607843%);fill-opacity:1;" d="M 415.445312 86.453125 C 416.949219 85.953125 420.238281 83.515625 422.128906 81.949219 C 424.277344 80.585938 428.683594 82.003906 428.859375 78.308594 C 428.589844 79.417969 426.046875 82.179688 424.800781 83.851562 C 422.054688 85.59375 426.140625 87.371094 426.800781 84.878906 C 428.226562 82.328125 430.035156 79.742188 432.882812 78.738281 C 432.363281 80.574219 431.980469 82.363281 433.21875 84 C 433.660156 83.195312 433.773438 79.890625 433.726562 82.609375 C 432.828125 84.15625 435.054688 88.664062 435.109375 85.15625 C 435.464844 82.941406 435.332031 87.554688 436.007812 88.25 C 437.425781 90.984375 437.300781 85.734375 437.617188 84.691406 C 437.851562 82.726562 437.953125 83.246094 437.664062 84.667969 C 437.378906 86.445312 437.972656 80.949219 438.078125 83.980469 C 438.273438 85.5625 438.058594 89.867188 439.589844 86.453125 C 440.8125 84.421875 441.105469 84.390625 439.769531 86.195312 C 439.332031 86.871094 441.777344 82.492188 440.8125 85.546875 C 440.746094 87.742188 440.828125 91.007812 442.019531 92.441406 C 442.933594 91.3125 442.402344 85.449219 443.320312 89.480469 C 443.675781 90.617188 443.332031 93.777344 444.820312 91.351562 C 446.421875 89.460938 447.308594 87.820312 447.132812 85.226562 C 447.335938 83.902344 448.140625 81.773438 448.847656 84.117188 C 448.363281 87.175781 451.546875 89.121094 451.15625 92.0625 C 452.585938 89.816406 451.941406 86.46875 450.992188 84.320312 C 450.789062 81.773438 454.863281 83.289062 453.851562 85.535156 C 453.734375 87.152344 456.050781 91.296875 456.234375 87.460938 C 456.546875 85.632812 457.550781 85.472656 457.328125 87.515625 C 457.75 88.832031 459.539062 92.710938 459.347656 89.332031 C 459.507812 87.492188 459.050781 85.554688 459.875 83.824219 C 460.460938 84.929688 460.523438 86.632812 461.214844 84.523438 C 462.632812 84.480469 461.777344 88.414062 463.566406 89.257812 C 464.28125 90.667969 466.070312 92.976562 465.570312 89.9375 C 465.847656 88.292969 464.375 84.890625 465.011719 84.453125 C 466.886719 86.828125 467.578125 89.96875 470.101562 91.886719 C 472.507812 93.105469 470.402344 88.511719 470.269531 87.328125 C 468.835938 86.539062 467.664062 83.476562 469.695312 85.871094 C 470.867188 87.996094 474.425781 89.855469 475.539062 90.320312 C 474.476562 89.535156 473.511719 89.242188 475.308594 90.328125 C 476.640625 90.875 474.519531 87.007812 473.746094 86.351562 C 473.058594 85.117188 469.710938 83.3125 470.660156 82.460938 C 473.28125 83.027344 474.046875 85.890625 475.636719 87.679688 C 476.625 88.511719 479.015625 90.273438 477.679688 87.640625 C 478.429688 87.328125 482.113281 91.421875 481.234375 88.140625 C 480.628906 86.730469 477.398438 84.183594 477.753906 84.027344 C 478.855469 85.625 478.191406 84.484375 477.3125 83.648438 C 480.507812 84.003906 482.382812 87.191406 484.390625 89.21875 C 484.640625 90.183594 485.371094 94.882812 484.386719 91.800781 C 482.308594 90.914062 485.1875 96.015625 482.917969 95.355469 C 482.816406 94.222656 480.816406 91.851562 481.785156 94.195312 C 483.453125 97.617188 482.195312 101.375 482.34375 104.984375 C 482.386719 106.761719 482.300781 108.527344 482.175781 110.296875 C 482.296875 108.992188 482.398438 106.820312 482.183594 109.667969 C 482.109375 111.648438 481.378906 106.8125 480.390625 106.566406 C 480.183594 105.664062 479.40625 101.113281 478.75 103.828125 C 478.753906 106.488281 481.320312 109.28125 479.273438 111.625 C 478.582031 112.269531 478.214844 114.125 477.847656 112.179688 C 476.835938 109.882812 476.191406 107.449219 474.421875 105.570312 C 473.675781 104.109375 471.113281 100.5625 471.824219 104.285156 C 472.265625 105.96875 472.566406 107.675781 472.449219 109.417969 C 471.457031 106.839844 470.097656 104.441406 468.761719 102.054688 C 468.953125 103.167969 470.308594 107.949219 469.132812 104.851562 C 468.316406 102.3125 467.007812 99.777344 464.476562 98.648438 C 463.777344 98.5625 466.175781 103.117188 465.25 103.148438 C 465.027344 101.679688 463.699219 98.410156 462.375 99.007812 C 462.4375 101.632812 463.503906 104.074219 462.894531 106.75 C 463.027344 109.363281 461.285156 104.15625 460.714844 103.460938 C 458.152344 101.890625 460.902344 107.878906 458.871094 105.5625 C 457.234375 104.414062 456.363281 103.144531 456.523438 101.003906 C 453.480469 100.488281 454.65625 103.703125 454.511719 105.527344 C 454.253906 106.914062 453.507812 109.550781 452.660156 109.953125 C 452.308594 107.949219 452.589844 105.851562 452.5 103.808594 C 452.988281 102.636719 452.449219 99.621094 451.023438 101.054688 C 450.785156 103.699219 452.511719 107.0625 450.546875 109.222656 C 449.507812 110.414062 447.578125 107.367188 445.757812 108.179688 C 443.449219 106.996094 444.394531 103.292969 442.828125 101.347656 C 441.269531 99.71875 442 107.886719 440.972656 104.015625 C 441.710938 101.550781 437.214844 100.585938 438.09375 103.21875 C 439.199219 104.335938 439.398438 105.738281 439.253906 107.226562 C 439.566406 108.976562 438.265625 109.492188 437.964844 107.53125 C 437.839844 105.367188 434.136719 104.46875 434.894531 107.316406 C 432.953125 106.066406 434.773438 112.242188 432.394531 110.34375 C 429.714844 108.472656 427.996094 112 425.058594 111.304688 C 423.386719 111.585938 419.394531 112.019531 421.816406 109.59375 C 424.082031 108.230469 425.039062 104.101562 428.195312 106.210938 C 430.609375 106.070312 433.167969 104.371094 435.140625 102.789062 C 436.75 101.703125 436.03125 98.941406 434.054688 100.652344 C 432.414062 103.117188 427.707031 103.113281 426.292969 102.917969 C 427.695312 101.59375 431.976562 101.398438 430.910156 99.078125 C 429.339844 99.207031 426.582031 101.5625 425.695312 100.191406 C 426.246094 99.585938 428.050781 97.910156 425.96875 98.640625 C 423.335938 99.5 420.507812 99.289062 417.792969 99.074219 C 415.074219 96.414062 421.757812 97.144531 421.660156 95.394531 C 421 95.339844 418.398438 95.691406 419.535156 94.734375 C 421.738281 94.777344 423.953125 94.945312 425.53125 92.859375 C 426.488281 91.867188 429.804688 89.589844 428.996094 88.792969 C 426.546875 90.203125 423.972656 92.597656 420.902344 91.203125 C 423.539062 89.234375 419.882812 89.066406 418.21875 89.257812 C 417.003906 89.632812 413.632812 88.253906 416.515625 88.34375 C 418.480469 88.757812 420.433594 86.035156 417.410156 86.558594 C 416.777344 86.363281 416.097656 86.488281 415.445312 86.453125 Z M 400.929688 82.476562 C 400.8125 81.199219 400.296875 79.925781 400.511719 78.632812 C 401.140625 77.707031 402.015625 77.039062 402.824219 76.28125 C 404.277344 75.472656 405.660156 74.484375 407.300781 74.085938 C 408.441406 73.738281 409.429688 72.984375 410.175781 72.066406 C 410.542969 70.957031 409.894531 69.183594 410.933594 68.589844 C 412.210938 67.890625 413.59375 67.4375 414.898438 66.796875 C 416.320312 66.335938 417.859375 66.265625 419.335938 66.441406 C 420.515625 66.949219 421.714844 67.410156 422.882812 67.941406 C 423.945312 68.453125 424.722656 69.328125 425.441406 70.234375 C 426.277344 70.996094 427.324219 71.492188 428.3125 72.039062 C 429.128906 72.09375 428.859375 73.15625 428.339844 73.113281 C 428.003906 74.683594 426.046875 73.351562 425.671875 72.425781 C 426 71.816406 425.867188 73.820312 425.238281 73.847656 C 424.136719 74.335938 424.167969 72.453125 424.007812 71.734375 C 424.148438 71.128906 423.667969 70.40625 423.417969 71.363281 C 422.675781 72.179688 424.21875 73.929688 422.605469 73.449219 C 421.40625 73.289062 420.066406 73.042969 419.023438 73.839844 C 418.152344 74.746094 419.96875 75.121094 420.53125 75.5625 C 421.296875 76.277344 422.316406 75.570312 423.203125 75.480469 C 424.417969 75.0625 425.785156 75.277344 426.910156 75.84375 C 427.433594 76.964844 426.386719 78.082031 425.394531 78.539062 C 424.464844 79.042969 423.425781 79.261719 422.390625 79.386719 C 420.871094 79.457031 421.164062 81.339844 419.683594 81.488281 C 418.738281 81.890625 417.675781 81.980469 416.664062 81.847656 C 416.46875 81.304688 417.667969 80.445312 417.792969 79.613281 C 418.878906 78.324219 416.234375 78.558594 416.617188 79.789062 C 416.800781 80.625 414.96875 81.859375 415.589844 80.441406 C 415.617188 79.675781 416.410156 78.492188 415.078125 79.039062 C 414.347656 79.035156 412.855469 79.007812 413.265625 80.140625 C 412.359375 80.332031 411.203125 80.351562 410.425781 79.902344 C 409.964844 78.667969 408.519531 78.125 407.617188 79.246094 C 406.714844 80.441406 405.464844 78.878906 404.570312 79.496094 C 404.558594 80.613281 405.710938 81.195312 406.730469 81.1875 C 407.761719 81.097656 408.820312 80.90625 409.863281 81.074219 C 410.820312 82.21875 408.949219 82.578125 408.058594 82.421875 C 406.859375 82.378906 405.789062 81.691406 404.570312 81.789062 C 403.988281 81.703125 402.660156 82.429688 403.910156 82.527344 C 404.839844 82.714844 406.746094 82.652344 406.320312 84.113281 C 405.589844 84.453125 404.6875 84.078125 403.863281 84.429688 C 403.378906 84.304688 401.925781 84.695312 402.734375 84.28125 C 402.308594 83.539062 401.480469 83.121094 400.929688 82.476562 Z M 400.929688 82.476562 "/>
<path style=" stroke:none;fill-rule:nonzero;fill:rgb(73.72549%,73.72549%,73.72549%);fill-opacity:1;" d="M 406.222656 76.632812 C 406.167969 76.632812 405.667969 76.984375 405.21875 77.335938 C 404.480469 77.730469 403.695312 78.402344 403.203125 78.738281 C 402.820312 79.046875 402.824219 79.179688 402.367188 79.265625 C 403.167969 79.152344 403.523438 78.949219 404.210938 78.5625 C 405.082031 78.457031 405.925781 78.273438 406.390625 77.863281 C 406.828125 77.710938 406.359375 77.011719 406.222656 76.632812 Z M 413.9375 68.394531 C 414.03125 68.394531 414.230469 68.941406 414.605469 69.269531 C 414.847656 69.945312 415.070312 70.417969 415.109375 71.199219 C 415.316406 70.34375 415.667969 69.65625 415.78125 68.746094 C 415.519531 68.285156 415.503906 68.066406 414.773438 68.042969 C 414.773438 68.515625 414.828125 68.207031 413.9375 68.394531 Z M 416.953125 68.570312 L 416.953125 68.746094 C 416.953125 68.273438 416.945312 68.511719 417.121094 69.445312 C 417.398438 70.035156 417.457031 70.664062 417.457031 71.550781 C 417.898438 71.222656 418.265625 70.566406 418.464844 69.972656 C 418.464844 68.589844 418.277344 68.671875 416.953125 68.570312 Z M 423.15625 88.730469 L 423.324219 88.730469 C 422.832031 88.730469 423.109375 88.761719 423.996094 88.207031 C 424.570312 87.804688 425.039062 87.214844 425.839844 86.976562 C 426.617188 86.339844 427.214844 86.042969 428.019531 85.75 C 428.414062 85.5625 428.757812 85.234375 429.195312 85.578125 C 429.070312 86.441406 428.925781 86.769531 428.1875 87.152344 C 427.804688 87.652344 427.203125 87.945312 426.679688 88.207031 C 426.132812 88.457031 425.53125 88.46875 425.335938 89.082031 C 424.425781 89.503906 424.3125 89.429688 423.15625 88.730469 Z M 426.34375 93.816406 C 426.640625 93.578125 427.691406 92.484375 428.1875 92.0625 C 428.746094 91.289062 429.3125 90.699219 429.863281 90.308594 C 430.351562 89.558594 430.980469 89.054688 431.375 88.382812 C 431.839844 87.789062 432.183594 87.292969 432.714844 86.628906 C 432.714844 87.394531 432.644531 88.410156 432.882812 88.90625 C 432.882812 89.964844 432.765625 90.253906 432.378906 91.011719 C 432 91.632812 431.714844 92.042969 430.871094 92.414062 C 430.109375 92.835938 429.652344 92.984375 429.027344 93.464844 C 428.546875 93.773438 428.050781 94.078125 427.515625 94.339844 C 427.035156 94.554688 427.257812 94.464844 426.34375 93.816406 Z M 421.144531 97.847656 L 421.3125 97.847656 C 420.820312 97.847656 421.097656 97.878906 421.984375 97.320312 C 422.699219 96.574219 423.269531 96.3125 424.164062 95.917969 C 424.84375 95.863281 425.667969 95.6875 426.175781 95.394531 C 426.582031 95.320312 426.863281 95.0625 427.179688 95.394531 C 427.707031 96.136719 427.851562 96.347656 427.011719 96.796875 C 426.613281 97.152344 425.90625 97.511719 425.335938 97.671875 C 424.917969 98.035156 424.089844 98.054688 423.324219 98.199219 C 422.640625 98.199219 422.257812 98.28125 421.984375 97.847656 L 423.324219 98.199219 C 422.640625 98.199219 422.257812 98.28125 421.144531 97.847656 Z M 428.355469 97.847656 L 428.355469 97.671875 C 428.355469 98.160156 428.335938 97.902344 428.691406 96.972656 C 429.320312 95.992188 429.554688 95.449219 430.367188 95.21875 C 430.746094 94.738281 431.40625 94.613281 432.210938 94.339844 C 432.511719 94.867188 432.28125 95.480469 432.210938 96.09375 C 431.992188 96.75 431.394531 97.210938 431.039062 97.671875 C 430.515625 98.042969 430.300781 98.402344 429.527344 98.550781 C 428.890625 98.550781 429.226562 98.53125 428.355469 97.847656 Z M 428.355469 97.847656 "/>
<path style="fill-rule:nonzero;fill:rgb(76.862745%,76.862745%,76.078431%);fill-opacity:1;stroke-width:1.358;stroke-linecap:butt;stroke-linejoin:miter;stroke:rgb(0%,0%,0%);stroke-opacity:1;stroke-miterlimit:4;" d="M 817.476562 151.164062 C 816.726562 151.164062 818.796875 150.382812 819.484375 150.109375 C 820.039062 148.898438 820.476562 148.03125 821.5 147.3125 C 823.179688 147.445312 824.007812 147.953125 824.851562 149.0625 C 826.265625 149.460938 826.773438 150.164062 828.546875 150.460938 C 829.203125 151.046875 830.09375 151.109375 828.546875 151.515625 C 827.492188 152.09375 826.171875 152.21875 824.515625 152.21875 C 822.789062 152.34375 821.554688 152.742188 820.492188 153.265625 C 818.25 153.265625 818.609375 153.34375 817.476562 151.164062 Z M 817.476562 151.164062 " transform="matrix(0.5,0,0,0.5,0,0)"/>
<path style=" stroke:none;fill-rule:nonzero;fill:rgb(0%,0%,0%);fill-opacity:1;" d="M 411.925781 75.058594 C 411.925781 75.542969 411.546875 75.933594 411.085938 75.933594 C 410.621094 75.933594 410.246094 75.542969 410.246094 75.058594 C 410.246094 74.574219 410.621094 74.179688 411.085938 74.179688 C 411.546875 74.179688 411.925781 74.574219 411.925781 75.058594 Z M 411.925781 75.058594 "/>
<path style="fill-rule:nonzero;fill:rgb(0%,31.764706%,12.941176%);fill-opacity:1;stroke-width:1.94;stroke-linecap:butt;stroke-linejoin:miter;stroke:rgb(0%,16.862745%,5.490196%);stroke-opacity:1;stroke-miterlimit:4;" d="M 827.875 247.945312 L 829.210938 247.945312 C 825.007812 247.945312 827.523438 247.648438 834.578125 253.554688 C 837.53125 250.976562 837.5 250.632812 839.945312 254.953125 C 841.351562 257.421875 841.765625 254.703125 843.96875 252.148438 C 845.023438 257.25 845.703125 262.59375 849.335938 257.765625 C 853.476562 257.765625 857.8125 257.398438 860.0625 259.164062 C 862.78125 264.4375 861.890625 258.265625 864.085938 260.570312 C 869.992188 261.304688 869.882812 255.273438 876.3125 253.710938 C 880.3125 258.9375 882.0625 254.914062 887.046875 252.304688 C 890.742188 253.390625 894.234375 259.257812 894.9375 253.554688 C 897.96875 248.390625 898.226562 248.828125 900.304688 253.554688 C 903.25 256.328125 904.492188 252.164062 907.007812 250.75 C 911.5 253.492188 916.507812 253.875 923.101562 252.148438 C 924.21875 256.820312 927.039062 254.796875 929.8125 253.554688 C 935.742188 256.15625 937.8125 256.960938 944.5625 253.554688 C 947.90625 249.421875 946.015625 253.671875 948.585938 256.359375 C 953.59375 254.734375 952.210938 254.390625 957.976562 254.953125 C 963.773438 254.953125 964.242188 254.8125 966.023438 250.75 C 968.9375 253.796875 969.992188 255.992188 974.070312 252.148438 C 980.328125 252.34375 978.390625 252.976562 982.125 250.75 C 984.882812 257.140625 985.53125 252.523438 988.828125 254.953125 C 986.65625 260.71875 983.3125 263.421875 979.4375 266.179688 C 976.859375 270.640625 975.242188 275.46875 970.046875 277.398438 C 966.257812 281.4375 962.21875 283.78125 957.976562 287.21875 C 952.164062 288.734375 945.765625 288.617188 939.195312 288.617188 L 882.867188 288.617188 C 878.859375 290.710938 872.304688 291.710938 866.765625 292.820312 C 860.585938 292.820312 853.578125 292.898438 849.335938 291.421875 C 846.453125 288.414062 841.414062 285.054688 838.601562 281.601562 C 835.757812 279.203125 835.679688 274.523438 833.234375 271.789062 C 830.992188 267.773438 830.296875 261.492188 827.875 257.757812 Z M 827.875 247.945312 " transform="matrix(0.5,0,0,0.5,0,0)"/>
<path style="fill-rule:nonzero;fill:rgb(0%,31.764706%,12.941176%);fill-opacity:1;stroke-width:1.94;stroke-linecap:butt;stroke-linejoin:miter;stroke:rgb(0%,16.862745%,5.490196%);stroke-opacity:1;stroke-miterlimit:4;" d="M 957.976562 260.570312 L 957.976562 261.96875 C 957.976562 258.046875 958.140625 260.132812 955.296875 267.578125 C 954.71875 269.390625 953.453125 269.8125 951.273438 270.382812 M 945.90625 266.179688 L 947.25 266.179688 C 942.28125 271.078125 938.9375 273.34375 937.859375 278.796875 L 947.25 266.179688 C 942.28125 271.078125 938.9375 273.34375 937.859375 278.796875 M 927.125 259.164062 C 927.125 259.289062 926.9375 264.171875 925.789062 266.179688 M 921.765625 268.984375 L 921.765625 270.382812 Z M 911.03125 260.570312 L 912.375 260.570312 Z M 835.921875 260.570312 C 836.5625 260.570312 839.195312 265.015625 842.625 267.578125 C 841.773438 271.679688 840.460938 276.429688 842.625 280.203125 M 846.648438 268.984375 C 847.289062 268.984375 849.929688 273.4375 853.359375 275.992188 L 846.648438 268.984375 C 847.289062 268.984375 849.929688 273.4375 853.359375 275.992188 L 853.359375 277.398438 C 853.359375 273.0625 853.015625 268.523438 854.695312 266.179688 C 856.1875 268.8125 858.070312 273.054688 858.71875 268.984375 C 866.273438 268.703125 869.921875 266.484375 874.820312 264.773438 C 874.820312 266.835938 874.5 265.84375 876.15625 267.578125 M 967.367188 261.96875 L 968.710938 261.96875 C 966.179688 264.171875 964.234375 268.671875 962 271.789062 M 912.375 257.765625 L 923.101562 257.765625 " transform="matrix(0.5,0,0,0.5,0,0)"/>
<path style=" stroke:none;fill-rule:nonzero;fill:rgb(100%,100%,100%);fill-opacity:1;" d="M 412.359375 134.214844 C 404.292969 134.214844 401.621094 142.644531 393.554688 142.644531 C 393.398438 142.644531 393.253906 142.628906 393.101562 142.625 L 393.101562 143.132812 C 393.070312 148.976562 393.53125 154.417969 394.367188 159.5 C 401.808594 158.957031 404.570312 151.074219 412.359375 151.074219 C 420.425781 151.074219 423.117188 159.519531 431.183594 159.519531 C 439.246094 159.519531 441.941406 151.074219 450.003906 151.074219 C 458.070312 151.074219 460.761719 159.519531 468.828125 159.519531 C 476.894531 159.519531 479.585938 151.074219 487.652344 151.074219 C 495.417969 151.074219 498.191406 158.902344 505.585938 159.484375 C 506.472656 154.265625 506.941406 148.660156 506.910156 142.644531 L 506.910156 142.625 C 506.757812 142.628906 506.609375 142.644531 506.457031 142.644531 C 498.390625 142.644531 495.71875 134.214844 487.652344 134.214844 C 479.585938 134.214844 476.894531 142.644531 468.828125 142.644531 C 460.761719 142.644531 458.070312 134.214844 450.003906 134.214844 C 441.941406 134.214844 439.246094 142.644531 431.183594 142.644531 C 423.117188 142.644531 420.425781 134.214844 412.359375 134.214844 Z M 412.359375 167.117188 C 406.085938 167.117188 403.066406 172.203125 398.242188 174.46875 C 350.0625 236.261719 260.914062 247.300781 199.121094 199.121094 C 137.328125 150.941406 126.289062 61.792969 174.46875 0 C 176.757812 -1.734375 179.195312 -3.230469 182.59375 -3.230469 C 190.660156 -3.230469 193.351562 5.195312 201.417969 5.195312 C 209.484375 5.195312 212.175781 -3.230469 220.242188 -3.230469 C 228.304688 -3.230469 231 5.195312 239.066406 5.195312 C 247.128906 5.195312 249.820312 -3.230469 257.886719 -3.230469 C 261.210938 -3.230469 263.617188 -1.796875 265.863281 -0.113281 C 265.894531 73.332031 206.378906 132.898438 132.929688 132.929688 C 59.484375 132.960938 -0.0820312 73.449219 -0.113281 0 C -4.863281 -2.296875 -7.882812 -7.296875 -14.097656 -7.296875 C -22.164062 -7.296875 -24.855469 1.132812 -32.921875 1.132812 C -40.988281 1.132812 -43.679688 -7.296875 -51.746094 -7.296875 C -59.808594 -7.296875 -62.503906 1.132812 -70.570312 1.132812 C -78.632812 1.132812 -81.324219 -7.296875 -89.390625 -7.296875 Z M 450.003906 200.019531 C 441.941406 200.019531 439.246094 208.46875 431.183594 208.46875 C 423.554688 208.46875 420.730469 200.914062 413.625 200.09375 C 423.121094 210.675781 433.890625 217.082031 441.238281 220.601562 C 443.71875 218.671875 446.292969 222.945312 450.003906 222.945312 C 453.691406 222.945312 456.25 218.652344 458.71875 220.5625 C 465.980469 217.027344 476.617188 210.613281 486.066406 200.132812 C 479.191406 201.136719 476.339844 208.46875 468.828125 208.46875 C 460.761719 208.46875 458.070312 200.019531 450.003906 200.019531 Z M 450.003906 200.019531 "/>
<path style="fill:none;stroke-width:0.737;stroke-linecap:butt;stroke-linejoin:miter;stroke:rgb(32.156863%,12.941176%,3.137255%);stroke-opacity:1;stroke-miterlimit:4;" d="M 800.148438 342.757812 C 802.796875 341.828125 815.585938 337.679688 816.03125 338.140625 C 816.46875 338.601562 840.726562 363.046875 840.726562 363.046875 L 820.4375 367.195312 Z M 800.148438 342.757812 " transform="matrix(0.5,0,0,0.5,0,0)"/>
<path style="fill:none;stroke-width:0.751;stroke-linecap:butt;stroke-linejoin:miter;stroke:rgb(32.156863%,12.941176%,3.137255%);stroke-opacity:1;stroke-miterlimit:4;" d="M 848.359375 374.78125 C 848.734375 369 859.570312 336.078125 859.570312 336.078125 M 852.09375 375.179688 C 852.09375 374.8125 860.6875 336.4375 860.6875 336.4375 M 855.039062 375.234375 C 855.414062 373.070312 862.1875 336.4375 862.1875 336.4375 M 851.351562 364.296875 C 853.21875 364.296875 856.953125 362.84375 856.953125 362.84375 M 852.46875 359.953125 C 852.46875 359.59375 858.078125 358.507812 858.078125 358.507812 M 853.21875 354.523438 L 859.195312 353.4375 M 855.828125 349.820312 C 855.828125 350.1875 859.945312 350.1875 859.945312 350.1875 " transform="matrix(0.5,0,0,0.5,0,0)"/>
<path style="fill:none;stroke-width:0.737;stroke-linecap:butt;stroke-linejoin:miter;stroke:rgb(32.156863%,12.941176%,3.137255%);stroke-opacity:1;stroke-miterlimit:4;" d="M 914.898438 400.375 C 914.453125 390.460938 901.664062 334.09375 901.664062 334.09375 M 910.484375 398.515625 C 910.484375 397.898438 900.335938 334.710938 900.335938 334.710938 M 906.070312 393.5625 C 905.632812 389.84375 898.578125 334.710938 898.578125 334.710938 M 914.453125 392.320312 C 912.25 390.460938 905.632812 387.984375 905.632812 387.984375 M 911.367188 382.40625 C 909.164062 382.40625 904.75 379.929688 904.75 379.929688 M 910.046875 374.976562 C 910.046875 374.359375 903.429688 372.5 903.429688 372.5 M 909.164062 365.6875 L 902.101562 363.828125 M 906.070312 357.632812 C 906.070312 358.25 901.226562 358.25 901.226562 358.25 M 904.75 350.195312 C 903.867188 350.195312 899.898438 351.4375 899.898438 351.4375 " transform="matrix(0.5,0,0,0.5,0,0)"/>
<path style="fill:none;stroke-width:0.737;stroke-linecap:butt;stroke-linejoin:miter;stroke:rgb(32.156863%,12.941176%,3.137255%);stroke-opacity:1;stroke-miterlimit:4;" d="M 948.796875 372.679688 C 946.59375 372.679688 942.179688 370.828125 942.179688 370.828125 M 952.328125 386.054688 C 951.882812 378.671875 939.09375 336.695312 939.09375 336.695312 M 947.914062 384.671875 C 947.914062 384.210938 937.765625 337.164062 937.765625 337.164062 M 943.507812 380.976562 C 943.0625 378.210938 936.007812 337.164062 936.007812 337.164062 M 947.476562 367.140625 C 947.476562 366.679688 940.859375 365.296875 940.859375 365.296875 M 946.59375 360.226562 L 939.53125 358.84375 M 943.507812 354.226562 C 943.507812 354.6875 938.65625 354.6875 938.65625 354.6875 M 942.179688 348.695312 C 941.296875 348.695312 937.328125 349.617188 937.328125 349.617188 " transform="matrix(0.5,0,0,0.5,0,0)"/>
<path style="fill-rule:nonzero;fill:rgb(86.666667%,54.509804%,34.901961%);fill-opacity:1;stroke-width:0.737;stroke-linecap:butt;stroke-linejoin:miter;stroke:rgb(32.156863%,12.941176%,3.137255%);stroke-opacity:1;stroke-miterlimit:4;" d="M 895.429688 391.648438 C 895.429688 391.1875 896.75 275.875 896.75 275.875 C 896.75 275.875 900.71875 275.414062 900.71875 275.875 C 900.71875 276.335938 900.28125 391.1875 899.835938 391.648438 C 899.398438 392.109375 894.984375 392.570312 895.429688 391.648438 Z M 938.65625 280.945312 C 938.65625 281.867188 937.773438 378.265625 937.773438 378.265625 L 934.6875 381.960938 L 935.570312 280.945312 Z M 861.90625 369.507812 C 862.34375 366.734375 862.34375 283.257812 862.34375 283.257812 L 859.695312 282.796875 L 859.257812 368.125 Z M 861.90625 369.507812 " transform="matrix(0.5,0,0,0.5,0,0)"/>
<path style="fill-rule:nonzero;fill:rgb(86.666667%,54.509804%,34.901961%);fill-opacity:1;stroke-width:0.737;stroke-linecap:butt;stroke-linejoin:miter;stroke:rgb(32.156863%,12.941176%,3.137255%);stroke-opacity:1;stroke-miterlimit:4;" d="M 845.140625 338.140625 C 846.90625 338.140625 876.898438 333.070312 876.898438 333.070312 L 876.460938 338.140625 L 846.90625 341.367188 Z M 845.578125 311.390625 C 847.34375 311.851562 881.75 301.703125 881.75 301.703125 C 881.75 301.703125 881.75 304.929688 881.3125 304.929688 C 880.867188 304.929688 845.578125 314.617188 845.578125 314.617188 Z M 846.90625 298.015625 C 846.460938 299.859375 847.34375 302.164062 847.34375 302.164062 L 876.015625 292.015625 C 876.015625 292.015625 877.34375 289.710938 876.015625 289.710938 C 874.695312 289.710938 846.460938 298.9375 846.90625 298.015625 Z M 884.84375 291.554688 C 885.71875 291.554688 914.390625 281.867188 914.390625 281.867188 C 914.390625 281.867188 914.835938 286.023438 914.390625 286.023438 C 913.953125 286.023438 887.484375 294.320312 887.484375 294.320312 Z M 882.632812 303.546875 C 882.632812 303.546875 881.75 307.703125 882.195312 307.703125 C 882.632812 307.703125 919.6875 297.554688 919.6875 297.554688 L 919.6875 294.78125 Z M 883.953125 336.296875 L 883.953125 339.523438 L 915.71875 334.914062 L 914.835938 332.609375 Z M 920.570312 338.601562 L 921.007812 341.367188 C 921.007812 341.367188 952.773438 337.21875 952.773438 336.757812 C 952.773438 336.296875 952.773438 333.53125 952.328125 333.53125 C 951.890625 333.53125 921.007812 339.0625 920.570312 338.601562 Z M 920.125 309.085938 L 920.570312 312.3125 L 958.0625 301.703125 C 958.0625 301.703125 958.945312 298.9375 958.507812 298.9375 C 958.0625 298.9375 921.007812 310.46875 920.125 309.085938 Z M 924.101562 294.320312 C 924.101562 294.320312 923.65625 297.09375 924.101562 297.09375 C 924.539062 297.09375 951.890625 290.171875 951.890625 289.710938 C 951.890625 289.25 954.53125 286.484375 952.328125 286.945312 C 950.125 287.40625 924.984375 295.710938 924.101562 294.320312 Z M 924.101562 294.320312 " transform="matrix(0.5,0,0,0.5,0,0)"/>
<path style="fill-rule:nonzero;fill:rgb(99.607843%,81.176471%,24.313725%);fill-opacity:1;stroke-width:0.737;stroke-linecap:butt;stroke-linejoin:miter;stroke:rgb(32.156863%,12.941176%,3.137255%);stroke-opacity:1;stroke-miterlimit:4;" d="M 864.109375 303.546875 C 868.078125 302.164062 865.429688 298.9375 866.3125 298.9375 C 867.195312 298.9375 870.28125 301.242188 872.046875 299.398438 C 873.8125 297.554688 875.132812 292.015625 874.257812 292.476562 C 873.460938 292.890625 854.453125 300.03125 850.328125 300.109375 C 852.914062 301.109375 860.671875 304.75 864.109375 303.546875 Z M 925.421875 297.09375 C 925.421875 297.09375 927.625 302.625 929.828125 301.703125 C 932.039062 300.78125 934.242188 298.9375 934.242188 298.9375 C 934.242188 298.9375 936.007812 303.546875 939.09375 302.625 C 942.179688 301.703125 943.945312 296.632812 943.945312 296.632812 C 943.945312 296.632812 947.03125 297.554688 948.359375 297.09375 C 949.679688 296.632812 951.445312 289.25 951.445312 289.25 Z M 922.773438 341.828125 C 922.335938 342.757812 924.984375 345.0625 927.1875 345.0625 C 929.390625 345.0625 930.273438 341.828125 930.71875 342.757812 C 931.15625 343.679688 931.15625 347.828125 936.890625 346.445312 C 942.625 345.0625 942.625 340.90625 942.625 340.90625 C 942.625 340.90625 940.859375 342.296875 944.828125 342.757812 C 948.796875 343.21875 952.773438 336.757812 952.328125 336.757812 C 951.890625 336.757812 923.65625 342.296875 922.773438 341.828125 Z M 922.773438 311.851562 C 922.773438 311.851562 918.367188 316.921875 919.6875 323.84375 C 921.007812 330.765625 922.773438 336.757812 923.21875 336.757812 C 923.65625 336.757812 928.507812 327.53125 933.804688 327.070312 C 939.09375 326.609375 948.796875 332.148438 948.796875 332.148438 C 948.796875 332.148438 947.476562 321.078125 947.921875 316 C 948.359375 310.929688 955.859375 302.164062 955.859375 302.164062 Z M 846.460938 341.828125 C 846.90625 341.828125 846.460938 345.984375 849.992188 345.0625 C 853.523438 344.140625 854.40625 341.828125 854.40625 341.828125 C 854.40625 341.828125 855.28125 346.90625 860.140625 346.445312 C 864.992188 345.984375 867.632812 340.445312 867.632812 340.445312 C 867.632812 340.445312 868.078125 344.601562 871.164062 343.21875 C 874.257812 341.828125 875.132812 338.601562 875.132812 338.601562 L 847.34375 342.75 Z M 846.460938 314.617188 C 846.460938 314.617188 842.492188 316 843.820312 324.304688 C 845.140625 332.609375 848.226562 337.21875 848.671875 337.21875 C 849.109375 337.21875 852.640625 329.382812 857.929688 327.992188 C 863.226562 326.609375 872.492188 332.148438 872.492188 332.148438 C 872.492188 332.148438 871.609375 324.765625 872.929688 317.851562 C 874.257812 310.929688 878.664062 305.851562 878.664062 305.851562 C 878.664062 305.851562 847.789062 314.617188 846.460938 314.617188 Z M 885.71875 292.9375 C 887.484375 293.398438 890.578125 298.015625 892.335938 297.09375 C 894.101562 296.171875 896.75 293.398438 896.75 293.398438 C 896.75 293.398438 896.304688 298.9375 899.835938 298.015625 C 903.367188 297.09375 903.804688 293.398438 903.804688 293.398438 C 903.804688 293.398438 906.453125 294.78125 908.65625 293.398438 C 910.867188 292.015625 913.070312 285.101562 912.1875 285.101562 C 911.304688 285.101562 886.601562 293.398438 885.71875 292.9375 Z M 884.84375 306.320312 C 884.84375 307.242188 880.429688 314.617188 881.75 321.539062 C 883.078125 328.453125 885.71875 334.914062 886.164062 334.914062 C 886.601562 334.914062 893.21875 327.53125 898.953125 326.148438 C 904.6875 324.765625 913.070312 330.765625 912.632812 330.765625 C 912.1875 330.765625 910.421875 323.84375 910.421875 318.773438 C 910.421875 313.695312 917.039062 298.015625 917.039062 298.015625 Z M 884.84375 339.523438 C 884.84375 339.984375 886.164062 343.21875 889.25 343.21875 C 892.335938 343.21875 892.78125 339.984375 892.78125 339.984375 C 892.78125 339.984375 892.335938 345.523438 897.1875 345.0625 C 902.039062 344.601562 903.804688 339.523438 903.804688 339.523438 C 903.804688 339.523438 904.25 342.296875 908.21875 340.90625 C 912.1875 339.523438 917.484375 334.914062 917.039062 334.914062 C 916.601562 334.914062 885.28125 340.90625 884.84375 339.523438 Z M 884.84375 339.523438 " transform="matrix(0.5,0,0,0.5,0,0)"/>
<path style="fill-rule:nonzero;fill:rgb(86.666667%,54.509804%,34.901961%);fill-opacity:1;stroke-width:0.737;stroke-linecap:butt;stroke-linejoin:miter;stroke:rgb(32.156863%,12.941176%,3.137255%);stroke-opacity:1;stroke-miterlimit:4;" d="M 846.460938 372.734375 C 846.460938 372.734375 850.875 420.242188 901.601562 418.859375 C 952.328125 417.476562 966.445312 370.890625 966.445312 370.890625 C 966.445312 370.890625 944.828125 369.96875 944.390625 369.96875 C 943.945312 369.96875 926.742188 392.109375 904.6875 391.648438 C 882.632812 391.1875 875.578125 385.648438 870.726562 381.039062 C 865.875 376.421875 861.460938 369.507812 861.460938 369.507812 L 835.875 358.898438 L 837.203125 369.046875 Z M 983.414062 367.796875 C 982.96875 366.414062 981.882812 361.664062 981.882812 361.664062 L 981.882812 356.132812 L 984.328125 350.523438 C 984.328125 350.523438 945.945312 356.273438 945.945312 356.734375 C 945.945312 356.203125 945.710938 367.664062 945.710938 367.664062 Z M 983.414062 367.796875 " transform="matrix(0.5,0,0,0.5,0,0)"/>
<path style="fill-rule:nonzero;fill:rgb(86.666667%,54.509804%,34.901961%);fill-opacity:1;stroke-width:0.737;stroke-linecap:butt;stroke-linejoin:miter;stroke:rgb(32.156863%,12.941176%,3.137255%);stroke-opacity:1;stroke-miterlimit:4;" d="M 976.148438 356.132812 L 975.265625 365.8125 L 981.445312 365.8125 L 981 356.132812 Z M 969.53125 356.59375 L 969.09375 366.734375 L 973.0625 366.28125 L 973.5 356.59375 Z M 962.914062 366.734375 L 962.914062 358.898438 L 966.882812 357.515625 L 967.328125 365.351562 Z M 955.414062 366.28125 L 956.296875 359.359375 L 960.710938 359.820312 L 961.148438 367.203125 Z M 947.03125 366.28125 L 947.476562 360.28125 L 951.890625 359.820312 L 951.890625 366.734375 Z M 942.625 369.96875 L 984.53125 370.890625 L 984.96875 367.664062 L 941.742188 367.203125 Z M 944.390625 358.4375 C 949.242188 358.4375 985.851562 351.054688 985.851562 351.054688 C 985.851562 351.054688 987.179688 346.445312 985.851562 346.445312 C 984.53125 346.445312 944.390625 355.210938 944.390625 355.210938 Z M 798.828125 342.296875 L 832.351562 359.359375 L 831.46875 361.664062 C 831.46875 361.664062 799.265625 345.984375 799.265625 345.523438 C 799.265625 345.0625 799.703125 343.21875 798.828125 342.296875 Z M 798.828125 342.296875 " transform="matrix(0.5,0,0,0.5,0,0)"/>
<path style="fill-rule:nonzero;fill:rgb(86.666667%,54.509804%,34.901961%);fill-opacity:1;stroke-width:0.737;stroke-linecap:butt;stroke-linejoin:miter;stroke:rgb(32.156863%,12.941176%,3.137255%);stroke-opacity:1;stroke-miterlimit:4;" d="M 814.265625 337.21875 C 814.265625 338.601562 819.117188 366.734375 819.117188 366.734375 C 819.117188 366.734375 822.203125 367.203125 822.203125 366.734375 C 822.203125 366.28125 816.90625 337.679688 816.90625 337.679688 Z M 814.265625 337.21875 " transform="matrix(0.5,0,0,0.5,0,0)"/>
<path style="fill:none;stroke-width:0.751;stroke-linecap:butt;stroke-linejoin:miter;stroke:rgb(32.156863%,12.941176%,3.137255%);stroke-opacity:1;stroke-miterlimit:4;" d="M 882.046875 389.3125 C 882.484375 381.648438 895.273438 338.03125 895.273438 338.03125 M 886.453125 389.835938 C 886.453125 389.351562 896.601562 338.515625 896.601562 338.515625 M 889.929688 389.914062 C 890.367188 387.039062 898.367188 338.515625 898.367188 338.515625 M 882.484375 383.085938 C 884.6875 381.648438 891.304688 379.726562 891.304688 379.726562 M 885.570312 375.414062 C 887.78125 375.414062 892.1875 373.5 892.1875 373.5 M 886.898438 369.664062 C 886.898438 369.1875 893.515625 367.75 893.515625 367.75 M 887.78125 362.476562 L 894.835938 361.039062 M 890.867188 356.242188 C 890.867188 356.726562 895.71875 356.726562 895.71875 356.726562 M 892.1875 350.492188 C 893.070312 350.492188 897.039062 351.453125 897.039062 351.453125 " transform="matrix(0.5,0,0,0.5,0,0)"/>
<path style="fill:none;stroke-width:0.737;stroke-linecap:butt;stroke-linejoin:miter;stroke:rgb(32.156863%,12.941176%,3.137255%);stroke-opacity:1;stroke-miterlimit:4;" d="M 919.476562 388.992188 C 919.914062 381.609375 932.703125 339.632812 932.703125 339.632812 M 923.882812 387.601562 C 923.882812 387.140625 934.03125 340.09375 934.03125 340.09375 M 928.296875 383.914062 C 928.734375 381.148438 935.796875 340.09375 935.796875 340.09375 M 919.914062 382.992188 C 922.117188 381.609375 928.734375 379.765625 928.734375 379.765625 M 923 375.609375 C 925.210938 375.609375 929.617188 373.765625 929.617188 373.765625 M 924.328125 370.078125 C 924.328125 369.617188 930.945312 368.234375 930.945312 368.234375 M 925.210938 363.15625 L 932.265625 361.773438 M 928.296875 357.164062 C 928.296875 357.625 933.148438 357.625 933.148438 357.625 M 929.617188 351.625 C 930.5 351.625 934.46875 352.546875 934.46875 352.546875 " transform="matrix(0.5,0,0,0.5,0,0)"/>
<path style="fill:none;stroke-width:0.737;stroke-linecap:butt;stroke-linejoin:miter;stroke:rgb(32.156863%,12.941176%,3.137255%);stroke-opacity:1;stroke-miterlimit:4;" d="M 877.15625 384.070312 C 876.710938 376.640625 863.921875 334.414062 863.921875 334.414062 M 872.742188 382.679688 C 872.742188 382.210938 862.601562 334.882812 862.601562 334.882812 M 868.335938 378.960938 C 867.890625 376.179688 860.835938 334.882812 860.835938 334.882812 M 876.710938 378.039062 C 874.507812 376.640625 867.890625 374.789062 867.890625 374.789062 M 873.625 370.609375 C 871.421875 370.609375 867.007812 368.757812 867.007812 368.757812 M 872.304688 365.046875 C 872.304688 364.578125 865.6875 363.1875 865.6875 363.1875 M 871.421875 358.085938 L 864.359375 356.6875 M 868.335938 352.046875 C 868.335938 352.515625 863.484375 352.515625 863.484375 352.515625 M 867.007812 346.484375 C 866.125 346.484375 862.15625 347.40625 862.15625 347.40625 " transform="matrix(0.5,0,0,0.5,0,0)"/>
<path style="fill-rule:nonzero;fill:rgb(71.372549%,71.372549%,70.588235%);fill-opacity:1;stroke-width:0.737;stroke-linecap:butt;stroke-linejoin:miter;stroke:rgb(32.156863%,12.941176%,3.137255%);stroke-opacity:1;stroke-miterlimit:4;" d="M 834.992188 359.359375 C 834.992188 359.359375 826.171875 357.976562 826.617188 360.28125 C 827.054688 362.585938 831.023438 364.890625 831.46875 366.273438 C 831.90625 367.664062 830.140625 372.734375 832.789062 372.273438 C 835.4375 371.8125 838.085938 369.96875 838.085938 368.585938 C 838.085938 367.195312 837.640625 360.742188 837.640625 360.742188 Z M 834.992188 359.359375 " transform="matrix(0.5,0,0,0.5,0,0)"/>
<path style="fill:none;stroke-width:0.737;stroke-linecap:butt;stroke-linejoin:miter;stroke:rgb(32.156863%,12.941176%,3.137255%);stroke-opacity:1;stroke-miterlimit:4;" d="M 844.695312 372.273438 C 846.023438 372.273438 856.171875 374.578125 856.171875 374.578125 L 866.757812 389.34375 " transform="matrix(0.5,0,0,0.5,0,0)"/>
<path style="fill:none;stroke-width:0.737;stroke-linecap:butt;stroke-linejoin:miter;stroke:rgb(32.156863%,12.941176%,3.137255%);stroke-opacity:1;stroke-miterlimit:4;" d="M 852.195312 374.117188 C 852.640625 374.578125 861.460938 405.484375 903.804688 405.484375 C 946.15625 405.484375 956.296875 370.429688 956.296875 370.429688 " transform="matrix(0.5,0,0,0.5,0,0)"/>
<path style="fill:none;stroke-width:0.737;stroke-linecap:butt;stroke-linejoin:miter;stroke:rgb(32.156863%,12.941176%,3.137255%);stroke-opacity:1;stroke-miterlimit:4;" d="M 962.914062 371.351562 C 962.914062 371.351562 942.625 417.476562 903.804688 414.242188 C 864.992188 411.015625 858.8125 395.796875 855.726562 387.953125 C 852.640625 380.117188 850.875 373.65625 850.875 373.65625 M 951.890625 333.992188 C 952.328125 332.609375 953.65625 304.929688 953.65625 304.929688 M 982.765625 347.828125 L 955.414062 302.625 M 899.835938 277.257812 C 899.835938 276.796875 913.515625 283.257812 913.515625 283.71875 C 913.515625 284.179688 962.03125 351.515625 962.476562 351.515625 M 938.210938 283.710938 L 950.5625 289.25 L 954.53125 299.398438 M 861.460938 282.796875 C 861.023438 282.796875 875.132812 293.859375 875.132812 293.859375 L 876.898438 303.085938 M 813.382812 350.132812 C 819.554688 347.367188 862.34375 308.15625 862.34375 308.15625 M 801.914062 342.757812 C 807.203125 338.140625 849.992188 300.320312 849.992188 300.320312 M 882.195312 306.773438 L 927.625 385.648438 M 922.265625 339.390625 C 922.265625 339.390625 927.625 357.976562 932.921875 360.742188 C 938.210938 363.507812 944.390625 368.125 944.390625 368.125 " transform="matrix(0.5,0,0,0.5,0,0)"/>
<path style="fill:none;stroke-width:0.737;stroke-linecap:butt;stroke-linejoin:miter;stroke:rgb(32.156863%,12.941176%,3.137255%);stroke-opacity:1;stroke-miterlimit:4;" d="M 921.65625 339.78125 C 921.65625 339.78125 925.421875 361.664062 930.710938 365.820312 C 936.007812 369.96875 941.304688 374.578125 941.304688 374.578125 M 885.070312 338.25 C 885.070312 338.25 890.359375 368.695312 900.945312 375.609375 C 911.53125 382.53125 920.351562 388.523438 920.351562 388.523438 " transform="matrix(0.5,0,0,0.5,0,0)"/>
<path style="fill:none;stroke-width:0.737;stroke-linecap:butt;stroke-linejoin:miter;stroke:rgb(32.156863%,12.941176%,3.137255%);stroke-opacity:1;stroke-miterlimit:4;" d="M 884.625 337.789062 C 884.625 337.789062 896.09375 361.773438 905.796875 369.15625 C 915.507812 376.53125 928.734375 383.453125 928.734375 383.453125 M 847.570312 339.632812 C 850.664062 345.171875 850.21875 355.78125 853.75 359.46875 C 857.273438 363.15625 862.570312 371.460938 862.570312 371.460938 " transform="matrix(0.5,0,0,0.5,0,0)"/>
<path style="fill:none;stroke-width:0.737;stroke-linecap:butt;stroke-linejoin:miter;stroke:rgb(32.156863%,12.941176%,3.137255%);stroke-opacity:1;stroke-miterlimit:4;" d="M 848.453125 340.09375 C 850.21875 342.867188 855.140625 356.640625 858.15625 360.851562 C 860.367188 364.539062 882.859375 388.0625 882.859375 388.0625 " transform="matrix(0.5,0,0,0.5,0,0)"/>
<path style="fill-rule:nonzero;fill:rgb(0%,0%,0%);fill-opacity:1;stroke-width:0.475;stroke-linecap:butt;stroke-linejoin:miter;stroke:rgb(32.156863%,12.941176%,3.137255%);stroke-opacity:1;stroke-miterlimit:4;" d="M 875.359375 389.21875 C 875.359375 387.3125 873.882812 385.757812 872.054688 385.757812 C 870.226562 385.757812 868.742188 387.3125 868.742188 389.21875 C 868.742188 391.132812 870.226562 392.679688 872.054688 392.679688 C 873.882812 392.679688 875.359375 391.132812 875.359375 389.21875 Z M 875.359375 389.21875 " transform="matrix(0.5,0,0,0.5,0,0)"/>
<path style="fill-rule:nonzero;fill:rgb(0%,0%,0%);fill-opacity:1;stroke-width:0.475;stroke-linecap:butt;stroke-linejoin:miter;stroke:rgb(32.156863%,12.941176%,3.137255%);stroke-opacity:1;stroke-miterlimit:4;" d="M 891.6875 396.601562 C 891.6875 394.945312 890.398438 393.601562 888.820312 393.601562 C 887.234375 393.601562 885.953125 394.945312 885.953125 396.601562 C 885.953125 398.257812 887.234375 399.59375 888.820312 399.59375 C 890.398438 399.59375 891.6875 398.257812 891.6875 396.601562 Z M 891.6875 396.601562 " transform="matrix(0.5,0,0,0.5,0,0)"/>
<path style="fill-rule:nonzero;fill:rgb(0%,0%,0%);fill-opacity:1;stroke-width:0.475;stroke-linecap:butt;stroke-linejoin:miter;stroke:rgb(32.156863%,12.941176%,3.137255%);stroke-opacity:1;stroke-miterlimit:4;" d="M 912.414062 398.445312 C 912.414062 396.789062 911.132812 395.445312 909.546875 395.445312 C 907.96875 395.445312 906.679688 396.789062 906.679688 398.445312 C 906.679688 400.101562 907.96875 401.445312 909.546875 401.445312 C 911.132812 401.445312 912.414062 400.101562 912.414062 398.445312 Z M 912.414062 398.445312 " transform="matrix(0.5,0,0,0.5,0,0)"/>
<path style="fill-rule:nonzero;fill:rgb(0%,0%,0%);fill-opacity:1;stroke-width:0.475;stroke-linecap:butt;stroke-linejoin:miter;stroke:rgb(32.156863%,12.941176%,3.137255%);stroke-opacity:1;stroke-miterlimit:4;" d="M 930.71875 391.296875 C 930.71875 389.890625 929.539062 388.757812 928.078125 388.757812 C 926.609375 388.757812 925.429688 389.890625 925.429688 391.296875 C 925.429688 392.695312 926.609375 393.828125 928.078125 393.828125 C 929.539062 393.828125 930.71875 392.695312 930.71875 391.296875 Z M 930.71875 391.296875 " transform="matrix(0.5,0,0,0.5,0,0)"/>
<path style="fill-rule:nonzero;fill:rgb(0%,0%,0%);fill-opacity:1;stroke-width:0.475;stroke-linecap:butt;stroke-linejoin:miter;stroke:rgb(32.156863%,12.941176%,3.137255%);stroke-opacity:1;stroke-miterlimit:4;" d="M 944.617188 382.296875 C 944.617188 380.640625 943.53125 379.304688 942.1875 379.304688 C 940.851562 379.304688 939.765625 380.640625 939.765625 382.296875 C 939.765625 383.953125 940.851562 385.296875 942.1875 385.296875 C 943.53125 385.296875 944.617188 383.953125 944.617188 382.296875 Z M 944.617188 382.296875 " transform="matrix(0.5,0,0,0.5,0,0)"/>
<path style="fill-rule:nonzero;fill:rgb(100%,0.392157%,0.392157%);fill-opacity:1;stroke-width:0.737;stroke-linecap:butt;stroke-linejoin:miter;stroke:rgb(32.156863%,12.941176%,3.137255%);stroke-opacity:1;stroke-miterlimit:4;" d="M 859.484375 283.359375 C 858.15625 284.289062 836.101562 289.820312 839.195312 289.359375 C 842.28125 288.898438 859.921875 293.96875 859.484375 292.585938 C 859.039062 291.203125 859.484375 284.289062 859.484375 283.359375 Z M 896.976562 276.445312 C 896.09375 276.445312 883.304688 281.523438 883.742188 281.523438 C 884.1875 281.523438 898.304688 285.671875 897.859375 284.75 C 897.421875 283.828125 897.421875 277.828125 896.976562 276.445312 Z M 935.351562 281.054688 C 934.46875 281.515625 919.476562 285.210938 922.117188 285.671875 C 924.765625 286.132812 934.914062 289.820312 934.914062 288.898438 C 934.914062 287.976562 934.914062 281.515625 935.351562 281.054688 Z M 935.351562 281.054688 " transform="matrix(0.5,0,0,0.5,0,0)"/>
<path style="fill-rule:nonzero;fill:rgb(74.509804%,6.27451%,9.019608%);fill-opacity:1;stroke-width:0.581;stroke-linecap:butt;stroke-linejoin:miter;stroke:rgb(32.156863%,12.941176%,3.137255%);stroke-opacity:1;stroke-miterlimit:4;" d="M -214.110337 726.378022 C -214.111204 727.419092 -214.957528 728.266586 -216.000333 728.263813 C -217.042888 728.267339 -217.890278 727.417672 -217.88941 726.376602 C -217.888543 725.335531 -217.048237 724.488276 -215.999414 724.490811 C -214.956859 724.487284 -214.115737 725.330891 -214.110337 726.378022 Z M -214.110337 726.378022 " transform="matrix(0.024575,-0.64811,0.619125,0.025725,0,0)"/>
<path style="fill-rule:nonzero;fill:rgb(74.509804%,6.27451%,9.019608%);fill-opacity:1;stroke-width:0.581;stroke-linecap:butt;stroke-linejoin:miter;stroke:rgb(32.156863%,12.941176%,3.137255%);stroke-opacity:1;stroke-miterlimit:4;" d="M -210.328654 739.048428 C -210.329272 740.095797 -211.175845 740.936992 -212.218401 740.940518 C -213.261206 740.937745 -214.108345 740.094377 -214.107478 739.053307 C -214.10686 738.005938 -213.260287 737.164743 -212.217731 737.161217 C -211.174926 737.16399 -210.327787 738.007358 -210.328654 739.048428 Z M -210.328654 739.048428 " transform="matrix(0.024575,-0.64811,0.619125,0.025725,0,0)"/>
<path style="fill-rule:nonzero;fill:rgb(74.509804%,6.27451%,9.019608%);fill-opacity:1;stroke-width:0.581;stroke-linecap:butt;stroke-linejoin:miter;stroke:rgb(32.156863%,12.941176%,3.137255%);stroke-opacity:1;stroke-miterlimit:4;" d="M -217.358577 732.917211 C -217.359444 733.958281 -218.205768 734.805775 -219.248323 734.809302 C -220.291129 734.806529 -221.138268 733.96316 -221.13765 732.915791 C -221.136783 731.874721 -220.290459 731.027227 -219.247654 731.03 C -218.205099 731.026473 -217.357709 731.876141 -217.358577 732.917211 Z M -217.358577 732.917211 " transform="matrix(0.024575,-0.64811,0.619125,0.025725,0,0)"/>
<path style="fill-rule:nonzero;fill:rgb(74.509804%,6.27451%,9.019608%);fill-opacity:1;stroke-width:0.581;stroke-linecap:butt;stroke-linejoin:miter;stroke:rgb(32.156863%,12.941176%,3.137255%);stroke-opacity:1;stroke-miterlimit:4;" d="M -207.080414 732.509239 C -207.081282 733.550309 -207.927605 734.397803 -208.970161 734.401329 C -210.012966 734.398556 -210.860105 733.555188 -210.859488 732.507819 C -210.85862 731.466748 -210.012297 730.619255 -208.969491 730.622027 C -207.926936 730.618501 -207.079547 731.468169 -207.080414 732.509239 Z M -207.080414 732.509239 " transform="matrix(0.024575,-0.64811,0.619125,0.025725,0,0)"/>
<path style="fill-rule:nonzero;fill:rgb(74.509804%,6.27451%,9.019608%);fill-opacity:1;stroke-width:0.581;stroke-linecap:butt;stroke-linejoin:miter;stroke:rgb(32.156863%,12.941176%,3.137255%);stroke-opacity:1;stroke-miterlimit:4;" d="M -212.219496 732.713225 C -212.220363 733.754295 -213.066687 734.601789 -214.109242 734.605315 C -215.152047 734.602542 -215.999186 733.759174 -215.998569 732.711805 C -215.997702 731.670735 -215.151378 730.823241 -214.108573 730.826014 C -213.066017 730.822487 -212.218628 731.672155 -212.219496 732.713225 Z M -212.219496 732.713225 " transform="matrix(0.024575,-0.64811,0.619125,0.025725,0,0)"/>
</g>
</svg>
