<?xml version="1.0" encoding="UTF-8"?>
<svg xmlns="http://www.w3.org/2000/svg" xmlns:xlink="http://www.w3.org/1999/xlink" width="px" height="px" viewBox="0 0 300 150" version="1.1">
<g id="surface1">
<rect x="0" y="0" width="300" height="150" style="fill:rgb(100%,100%,100%);fill-opacity:1;stroke:none;"/>
<path style=" stroke:none;fill-rule:evenodd;fill:rgb(80%,0%,0%);fill-opacity:1;" d="M 0 60 L 300 60 L 300 90 L 0 90 Z M 0 60 "/>
<path style=" stroke:none;fill-rule:evenodd;fill:rgb(80%,0%,0%);fill-opacity:1;" d="M 165 0 L 165 150 L 135 150 L 135 0 Z M 165 0 "/>
<path style="fill-rule:evenodd;fill:rgb(92.156863%,91.764706%,89.019608%);fill-opacity:1;stroke-width:0.326;stroke-linecap:butt;stroke-linejoin:miter;stroke:rgb(0%,0%,0%);stroke-opacity:1;stroke-miterlimit:4;" d="M 322 91.632812 C 323.921875 88.617188 322.773438 86.671875 319.859375 86.070312 C 319.859375 86.070312 310.570312 89.054688 300.53125 89.375 C 290.5 89.703125 278.578125 86.851562 278.578125 86.851562 C 276.4375 88.195312 276.960938 91.382812 278.023438 93.367188 C 278.023438 93.367188 288.523438 96.859375 300.484375 96.515625 C 308.078125 96.296875 315.28125 94.359375 319.320312 93.070312 C 321.640625 92.335938 322 91.664062 322 91.632812 Z M 322 91.632812 " transform="matrix(0.5,0,0,0.5,0,0)"/>
<path style="fill-rule:nonzero;fill:rgb(100%,100%,100%);fill-opacity:1;stroke-width:1;stroke-linecap:butt;stroke-linejoin:miter;stroke:rgb(8.627451%,6.666667%,6.666667%);stroke-opacity:1;stroke-miterlimit:4;" d="M 300 223.46875 L 280.710938 183.40625 L 236.375 186.734375 L 261.429688 150 L 236.375 113.265625 L 280.710938 116.59375 L 300 76.53125 L 319.289062 116.59375 L 363.625 113.265625 L 338.570312 150 L 363.625 186.734375 L 319.289062 183.40625 Z M 300 223.46875 " transform="matrix(0.5,0,0,0.5,0,0)"/>
<path style="fill-rule:evenodd;fill:rgb(69.019608%,13.72549%,12.54902%);fill-opacity:1;stroke-width:0.815;stroke-linecap:butt;stroke-linejoin:miter;stroke:rgb(0%,0%,0%);stroke-opacity:1;stroke-miterlimit:4;" d="M 299.710938 76.390625 C 323.9375 80.382812 323.070312 81.515625 323.070312 81.515625 L 329.398438 62.617188 C 329.398438 62.617188 330.0625 58.890625 328.328125 56.625 C 326.601562 54.359375 321.742188 55.625 321.742188 55.625 C 321.742188 55.625 321.078125 52.5625 318.945312 51.828125 C 316.8125 51.101562 308.898438 54.695312 306.429688 55.492188 C 303.96875 56.289062 302.703125 57.09375 299.242188 57.023438 C 295.78125 56.953125 289.59375 53.898438 288.460938 53.296875 C 287.328125 52.695312 285.664062 52.101562 284.132812 52.164062 C 282.601562 52.234375 281.007812 52.632812 280.210938 53.695312 C 279.40625 54.757812 279.40625 56.09375 279.40625 56.09375 C 279.40625 56.09375 278.148438 55.296875 276.148438 55.296875 C 274.148438 55.296875 273.023438 55.5625 272.085938 56.625 C 271.15625 57.6875 269.960938 60.679688 269.960938 60.679688 L 272.21875 65.8125 L 272.351562 72.867188 L 277.078125 80.320312 Z M 299.710938 76.390625 " transform="matrix(0.5,0,0,0.5,0,0)"/>
<path style="fill-rule:evenodd;fill:rgb(92.156863%,91.764706%,89.019608%);fill-opacity:1;stroke-width:0.326;stroke-linecap:butt;stroke-linejoin:miter;stroke:rgb(0%,0%,0%);stroke-opacity:1;stroke-miterlimit:4;" d="M 322.296875 87.070312 C 322.296875 87.070312 323.523438 88.523438 323.476562 89.039062 C 323.429688 89.5625 322.90625 90.03125 322.90625 90.03125 C 322.90625 90.03125 323.28125 90.40625 323.1875 90.96875 C 323.101562 91.53125 322.34375 91.578125 322.34375 91.578125 C 322.34375 91.578125 322.484375 92.09375 322.015625 92.328125 C 321.546875 92.5625 319.625 92.984375 319.625 92.984375 C 319.625 92.984375 310.242188 90.3125 300.203125 90.3125 C 290.164062 90.3125 278.335938 93.546875 278.335938 93.546875 C 278.335938 93.546875 277.117188 93.125 277.070312 92.328125 C 277.023438 91.53125 277.210938 90.96875 277.210938 90.96875 C 277.210938 90.96875 276.546875 91.039062 276.367188 90.453125 C 276.117188 89.632812 276.460938 88.992188 276.460938 88.992188 C 276.460938 88.992188 275.992188 89.148438 276.507812 88.054688 C 276.882812 87.257812 277.445312 86.976562 277.445312 86.976562 C 277.445312 86.976562 287.953125 83.226562 299.921875 83.179688 C 311.882812 83.132812 322.296875 86.976562 322.296875 87.070312 Z M 322.296875 87.070312 " transform="matrix(0.5,0,0,0.5,0,0)"/>
<path style="fill:none;stroke-width:0.717;stroke-linecap:butt;stroke-linejoin:miter;stroke:rgb(0%,0%,0%);stroke-opacity:1;stroke-miterlimit:4;" d="M 272.640625 63.4375 C 272.640625 63.4375 272.242188 62.070312 273.117188 60.867188 C 274 59.671875 275.601562 59.75 276.085938 59.992188 C 276.5625 60.226562 276.484375 60.789062 277.125 60.953125 C 277.765625 61.109375 278.25 60.632812 278.25 60.632812 " transform="matrix(0.5,0,0,0.5,0,0)"/>
<path style="fill-rule:evenodd;fill:rgb(100%,80%,0%);fill-opacity:0.941176;stroke-width:0.75;stroke-linecap:butt;stroke-linejoin:miter;stroke:rgb(0%,0%,0%);stroke-opacity:1;stroke-miterlimit:4;" d="M 331.140625 66.625 L 327.5 74.15625 L 326.070312 74.40625 C 326.070312 74.40625 325.195312 73.882812 322.710938 74.054688 C 320.929688 74.179688 320.398438 74.632812 320.398438 74.632812 L 323.632812 67.125 C 323.632812 67.125 323.890625 68.734375 324.265625 69.6875 C 324.742188 70.890625 326.546875 72.023438 326.546875 72.023438 C 326.546875 72.023438 326.796875 70.578125 326.320312 68.828125 C 325.796875 66.898438 324.5625 64.289062 324.5625 64.289062 Z M 331.140625 66.625 " transform="matrix(0.5,0,0,0.5,0,0)"/>
<path style="fill-rule:nonzero;fill:rgb(7.058824%,6.666667%,8.627451%);fill-opacity:1;stroke-width:0.731;stroke-linecap:butt;stroke-linejoin:round;stroke:rgb(7.058824%,6.666667%,8.627451%);stroke-opacity:1;stroke-miterlimit:4;" d="M 297.8125 43.226562 L 301.882812 43.226562 L 301.882812 60.53125 L 297.8125 60.53125 Z M 297.8125 43.226562 " transform="matrix(0.5,0,0,0.5,0,0)"/>
<path style="fill-rule:evenodd;fill:rgb(96.470588%,79.215686%,12.156863%);fill-opacity:1;stroke-width:0.619;stroke-linecap:butt;stroke-linejoin:miter;stroke:rgb(0%,0%,0%);stroke-opacity:1;stroke-miterlimit:4;" d="M 272.851562 75.148438 L 275.46875 80.742188 C 275.46875 80.742188 286.601562 76.40625 299.734375 76.484375 C 319.445312 76.609375 325.039062 80.5625 325.039062 80.5625 L 327.960938 73.625 L 325.773438 74.90625 L 323.523438 76.304688 L 320.96875 77.273438 L 317.867188 77.03125 L 315.125 75.023438 L 313.726562 72.101562 L 311.414062 74.234375 L 307.34375 75.148438 L 303.328125 74.109375 L 299.796875 69.671875 C 299.796875 69.671875 297.171875 74.609375 293.835938 74.90625 C 289.03125 75.328125 286.234375 72.59375 286.234375 72.59375 C 286.234375 72.59375 284.445312 76.609375 281.484375 77.335938 C 276.804688 78.492188 272.914062 75.148438 272.851562 75.148438 Z M 272.851562 75.148438 " transform="matrix(0.5,0,0,0.5,0,0)"/>
<path style="fill-rule:nonzero;fill:rgb(93.333333%,93.333333%,93.333333%);fill-opacity:1;stroke-width:0.731;stroke-linecap:butt;stroke-linejoin:round;stroke:rgb(11.764706%,11.764706%,11.764706%);stroke-opacity:1;stroke-miterlimit:4;" d="M 317.78125 41.03125 C 317.78125 42.203125 316.84375 43.15625 315.679688 43.15625 C 314.523438 43.164062 313.578125 42.210938 313.570312 41.039062 C 313.570312 39.859375 314.507812 38.90625 315.664062 38.898438 C 316.820312 38.890625 317.773438 39.835938 317.78125 41.007812 " transform="matrix(0.5,0,0,0.5,0,0)"/>
<path style=" stroke:none;fill-rule:evenodd;fill:rgb(63.921569%,68.627451%,72.156863%);fill-opacity:1;" d="M 157.351562 21.0625 C 157.351562 21.0625 158.199219 21.046875 158.285156 20.703125 C 158.371094 20.355469 158.230469 19.910156 158.230469 19.910156 C 158.230469 19.910156 158.632812 20.355469 158.515625 20.703125 C 158.402344 21.046875 158.289062 21.136719 158 21.207031 C 157.800781 21.253906 157.507812 21.175781 157.351562 21.0625 Z M 157.351562 21.0625 "/>
<path style="fill-rule:nonzero;fill:rgb(93.333333%,93.333333%,93.333333%);fill-opacity:1;stroke-width:0.731;stroke-linecap:butt;stroke-linejoin:round;stroke:rgb(11.764706%,11.764706%,11.764706%);stroke-opacity:1;stroke-miterlimit:4;" d="M 312.671875 43.421875 C 312.671875 44.59375 311.726562 45.546875 310.570312 45.546875 C 309.40625 45.554688 308.46875 44.601562 308.460938 43.429688 C 308.460938 42.25 309.390625 41.296875 310.554688 41.289062 C 311.710938 41.28125 312.664062 42.226562 312.671875 43.398438 " transform="matrix(0.5,0,0,0.5,0,0)"/>
<path style=" stroke:none;fill-rule:evenodd;fill:rgb(63.921569%,68.627451%,72.156863%);fill-opacity:1;" d="M 154.796875 22.257812 C 154.796875 22.257812 155.644531 22.242188 155.730469 21.898438 C 155.816406 21.550781 155.675781 21.105469 155.675781 21.105469 C 155.675781 21.105469 156.078125 21.550781 155.960938 21.898438 C 155.847656 22.242188 155.734375 22.332031 155.445312 22.402344 C 155.246094 22.449219 154.953125 22.371094 154.796875 22.257812 Z M 154.796875 22.257812 "/>
<path style="fill-rule:nonzero;fill:rgb(93.333333%,93.333333%,93.333333%);fill-opacity:1;stroke-width:0.731;stroke-linecap:butt;stroke-linejoin:round;stroke:rgb(11.764706%,11.764706%,11.764706%);stroke-opacity:1;stroke-miterlimit:4;" d="M 323.710938 39.625 C 323.710938 40.804688 322.773438 41.757812 321.609375 41.757812 C 320.453125 41.765625 319.507812 40.8125 319.5 39.632812 C 319.5 38.460938 320.4375 37.5 321.59375 37.492188 C 322.757812 37.492188 323.703125 38.4375 323.710938 39.609375 " transform="matrix(0.5,0,0,0.5,0,0)"/>
<path style=" stroke:none;fill-rule:evenodd;fill:rgb(63.921569%,68.627451%,72.156863%);fill-opacity:1;" d="M 160.316406 20.363281 C 160.316406 20.363281 161.164062 20.347656 161.25 20 C 161.339844 19.65625 161.195312 19.210938 161.195312 19.210938 C 161.195312 19.210938 161.597656 19.65625 161.480469 20 C 161.367188 20.347656 161.253906 20.4375 160.964844 20.503906 C 160.765625 20.550781 160.472656 20.476562 160.316406 20.363281 Z M 160.316406 20.363281 "/>
<path style="fill-rule:nonzero;fill:rgb(93.333333%,93.333333%,93.333333%);fill-opacity:1;stroke-width:0.731;stroke-linecap:butt;stroke-linejoin:round;stroke:rgb(11.764706%,11.764706%,11.764706%);stroke-opacity:1;stroke-miterlimit:4;" d="M 330.390625 40.976562 C 330.390625 42.148438 329.453125 43.101562 328.289062 43.101562 C 327.132812 43.109375 326.1875 42.15625 326.179688 40.984375 C 326.179688 39.804688 327.117188 38.851562 328.273438 38.84375 C 329.4375 38.835938 330.382812 39.78125 330.390625 40.953125 " transform="matrix(0.5,0,0,0.5,0,0)"/>
<path style=" stroke:none;fill-rule:evenodd;fill:rgb(63.921569%,68.627451%,72.156863%);fill-opacity:1;" d="M 163.65625 21.035156 C 163.65625 21.035156 164.503906 21.019531 164.589844 20.675781 C 164.679688 20.328125 164.535156 19.882812 164.535156 19.882812 C 164.535156 19.882812 164.9375 20.328125 164.820312 20.675781 C 164.707031 21.019531 164.59375 21.109375 164.304688 21.179688 C 164.105469 21.226562 163.8125 21.148438 163.65625 21.035156 Z M 163.65625 21.035156 "/>
<path style="fill-rule:nonzero;fill:rgb(93.333333%,93.333333%,93.333333%);fill-opacity:1;stroke-width:0.731;stroke-linecap:butt;stroke-linejoin:round;stroke:rgb(11.764706%,11.764706%,11.764706%);stroke-opacity:1;stroke-miterlimit:4;" d="M 335.492188 45.171875 C 335.492188 46.34375 334.546875 47.296875 333.390625 47.304688 C 332.226562 47.304688 331.289062 46.351562 331.28125 45.179688 C 331.28125 44 332.210938 43.046875 333.375 43.039062 C 334.53125 43.03125 335.484375 43.976562 335.492188 45.148438 " transform="matrix(0.5,0,0,0.5,0,0)"/>
<path style=" stroke:none;fill-rule:evenodd;fill:rgb(63.921569%,68.627451%,72.156863%);fill-opacity:1;" d="M 166.199219 23.132812 C 166.199219 23.132812 167.050781 23.117188 167.136719 22.773438 C 167.222656 22.425781 167.078125 21.980469 167.078125 21.980469 C 167.078125 21.980469 167.480469 22.425781 167.367188 22.773438 C 167.253906 23.117188 167.136719 23.207031 166.847656 23.277344 C 166.652344 23.324219 166.359375 23.246094 166.199219 23.132812 Z M 166.199219 23.132812 "/>
<path style="fill-rule:nonzero;fill:rgb(93.333333%,93.333333%,93.333333%);fill-opacity:1;stroke-width:0.731;stroke-linecap:butt;stroke-linejoin:round;stroke:rgb(11.764706%,11.764706%,11.764706%);stroke-opacity:1;stroke-miterlimit:4;" d="M 337.6875 52.054688 C 337.6875 53.234375 336.75 54.1875 335.59375 54.1875 C 334.429688 54.1875 333.484375 53.242188 333.484375 52.0625 C 333.476562 50.890625 334.414062 49.929688 335.570312 49.921875 C 336.734375 49.914062 337.679688 50.867188 337.6875 52.039062 " transform="matrix(0.5,0,0,0.5,0,0)"/>
<path style=" stroke:none;fill-rule:evenodd;fill:rgb(63.921569%,68.627451%,72.156863%);fill-opacity:1;" d="M 167.300781 26.574219 C 167.300781 26.574219 168.148438 26.5625 168.238281 26.214844 C 168.324219 25.871094 168.179688 25.421875 168.179688 25.421875 C 168.179688 25.421875 168.582031 25.871094 168.46875 26.214844 C 168.351562 26.5625 168.238281 26.652344 167.949219 26.71875 C 167.75 26.765625 167.457031 26.691406 167.300781 26.574219 Z M 167.300781 26.574219 "/>
<path style="fill-rule:nonzero;fill:rgb(93.333333%,93.333333%,93.333333%);fill-opacity:1;stroke-width:0.731;stroke-linecap:butt;stroke-linejoin:round;stroke:rgb(11.764706%,11.764706%,11.764706%);stroke-opacity:1;stroke-miterlimit:4;" d="M 336.867188 59.023438 C 336.867188 60.195312 335.929688 61.15625 334.773438 61.15625 C 333.609375 61.15625 332.671875 60.203125 332.664062 59.03125 C 332.65625 57.851562 333.59375 56.898438 334.757812 56.890625 C 335.914062 56.882812 336.859375 57.828125 336.867188 59.007812 " transform="matrix(0.5,0,0,0.5,0,0)"/>
<path style=" stroke:none;fill-rule:evenodd;fill:rgb(63.921569%,68.627451%,72.156863%);fill-opacity:1;" d="M 166.894531 30.058594 C 166.894531 30.058594 167.746094 30.042969 167.832031 29.699219 C 167.917969 29.351562 167.773438 28.90625 167.773438 28.90625 C 167.773438 28.90625 168.175781 29.351562 168.0625 29.699219 C 167.945312 30.042969 167.832031 30.132812 167.542969 30.203125 C 167.347656 30.25 167.054688 30.175781 166.894531 30.058594 Z M 166.894531 30.058594 "/>
<path style="fill-rule:nonzero;fill:rgb(93.333333%,93.333333%,93.333333%);fill-opacity:1;stroke-width:0.731;stroke-linecap:butt;stroke-linejoin:round;stroke:rgb(11.764706%,11.764706%,11.764706%);stroke-opacity:1;stroke-miterlimit:4;" d="M 333.78125 65.132812 C 333.78125 66.3125 332.84375 67.265625 331.679688 67.265625 C 330.523438 67.265625 329.578125 66.320312 329.570312 65.140625 C 329.570312 63.96875 330.507812 63.007812 331.664062 63 C 332.820312 62.992188 333.773438 63.945312 333.78125 65.117188 " transform="matrix(0.5,0,0,0.5,0,0)"/>
<path style=" stroke:none;fill-rule:evenodd;fill:rgb(63.921569%,68.627451%,72.156863%);fill-opacity:1;" d="M 165.34375 33.113281 C 165.34375 33.113281 166.195312 33.101562 166.28125 32.753906 C 166.367188 32.410156 166.222656 31.960938 166.222656 31.960938 C 166.222656 31.960938 166.628906 32.410156 166.511719 32.753906 C 166.398438 33.101562 166.285156 33.191406 165.992188 33.257812 C 165.796875 33.304688 165.503906 33.230469 165.34375 33.113281 Z M 165.34375 33.113281 "/>
<path style="fill-rule:nonzero;fill:rgb(93.333333%,93.333333%,93.333333%);fill-opacity:1;stroke-width:0.731;stroke-linecap:butt;stroke-linejoin:round;stroke:rgb(11.764706%,11.764706%,11.764706%);stroke-opacity:1;stroke-miterlimit:4;" d="M 307.703125 45.25 C 307.703125 46.429688 306.757812 47.382812 305.601562 47.382812 C 304.4375 47.382812 303.5 46.4375 303.492188 45.257812 C 303.484375 44.085938 304.421875 43.125 305.585938 43.117188 C 306.742188 43.109375 307.6875 44.0625 307.703125 45.234375 " transform="matrix(0.5,0,0,0.5,0,0)"/>
<path style=" stroke:none;fill-rule:evenodd;fill:rgb(63.921569%,68.627451%,72.156863%);fill-opacity:1;" d="M 152.304688 23.171875 C 152.304688 23.171875 153.15625 23.160156 153.242188 22.8125 C 153.328125 22.46875 153.183594 22.019531 153.183594 22.019531 C 153.183594 22.019531 153.585938 22.46875 153.472656 22.8125 C 153.355469 23.160156 153.242188 23.246094 152.953125 23.316406 C 152.757812 23.363281 152.464844 23.289062 152.304688 23.171875 Z M 152.304688 23.171875 "/>
<path style="fill-rule:nonzero;fill:rgb(93.333333%,93.333333%,93.333333%);fill-opacity:1;stroke-width:0.731;stroke-linecap:butt;stroke-linejoin:round;stroke:rgb(11.764706%,11.764706%,11.764706%);stroke-opacity:1;stroke-miterlimit:4;" d="M 301.351562 44.703125 C 301.351562 45.6875 300.5625 46.484375 299.59375 46.492188 C 300.570312 46.492188 301.359375 47.289062 301.359375 48.265625 C 301.359375 49.242188 300.5625 50.03125 299.585938 50.03125 C 298.609375 50.03125 297.820312 49.234375 297.820312 48.257812 L 299.585938 48.257812 " transform="matrix(0.5,0,0,0.5,0,0)"/>
<path style=" stroke:none;fill-rule:evenodd;fill:rgb(63.921569%,68.627451%,72.156863%);fill-opacity:1;" d="M 149.386719 22.8125 C 149.386719 22.8125 150.097656 22.800781 150.167969 22.511719 C 150.242188 22.21875 150.121094 21.847656 150.121094 21.847656 C 150.121094 21.847656 150.457031 22.21875 150.359375 22.511719 C 150.265625 22.800781 150.171875 22.875 149.925781 22.929688 C 149.761719 22.96875 149.515625 22.90625 149.386719 22.8125 Z M 149.386719 22.8125 "/>
<path style="fill-rule:nonzero;fill:rgb(93.333333%,93.333333%,93.333333%);fill-opacity:1;stroke-width:0.731;stroke-linecap:butt;stroke-linejoin:round;stroke:rgb(11.764706%,11.764706%,11.764706%);stroke-opacity:1;stroke-miterlimit:4;" d="M 301.367188 46.921875 C 301.367188 47.90625 300.585938 48.703125 299.617188 48.703125 C 300.59375 48.710938 301.382812 49.5 301.382812 50.476562 C 301.375 51.453125 300.585938 52.25 299.609375 52.242188 C 298.632812 52.242188 297.835938 51.453125 297.835938 50.476562 L 299.609375 50.476562 " transform="matrix(0.5,0,0,0.5,0,0)"/>
<path style=" stroke:none;fill-rule:evenodd;fill:rgb(63.921569%,68.627451%,72.156863%);fill-opacity:1;" d="M 149.394531 23.917969 C 149.394531 23.917969 150.105469 23.90625 150.179688 23.617188 C 150.25 23.328125 150.128906 22.953125 150.128906 22.953125 C 150.128906 22.953125 150.46875 23.328125 150.371094 23.617188 C 150.273438 23.90625 150.179688 23.980469 149.9375 24.039062 C 149.773438 24.078125 149.527344 24.015625 149.394531 23.917969 Z M 149.394531 23.917969 "/>
<path style="fill-rule:nonzero;fill:rgb(93.333333%,93.333333%,93.333333%);fill-opacity:1;stroke-width:0.731;stroke-linecap:butt;stroke-linejoin:round;stroke:rgb(11.764706%,11.764706%,11.764706%);stroke-opacity:1;stroke-miterlimit:4;" d="M 301.492188 50.179688 C 301.492188 51.164062 300.703125 51.960938 299.734375 51.96875 C 300.710938 51.96875 301.5 52.765625 301.5 53.742188 C 301.5 54.71875 300.703125 55.507812 299.726562 55.507812 C 298.75 55.507812 297.960938 54.710938 297.960938 53.734375 L 299.726562 53.734375 " transform="matrix(0.5,0,0,0.5,0,0)"/>
<path style=" stroke:none;fill-rule:evenodd;fill:rgb(63.921569%,68.627451%,72.156863%);fill-opacity:1;" d="M 149.453125 25.550781 C 149.453125 25.550781 150.164062 25.535156 150.238281 25.246094 C 150.308594 24.957031 150.191406 24.585938 150.191406 24.585938 C 150.191406 24.585938 150.527344 24.957031 150.429688 25.246094 C 150.335938 25.535156 150.238281 25.613281 149.996094 25.667969 C 149.832031 25.707031 149.585938 25.644531 149.453125 25.550781 Z M 149.453125 25.550781 "/>
<path style="fill-rule:nonzero;fill:rgb(93.333333%,93.333333%,93.333333%);fill-opacity:1;stroke-width:0.731;stroke-linecap:butt;stroke-linejoin:round;stroke:rgb(11.764706%,11.764706%,11.764706%);stroke-opacity:1;stroke-miterlimit:4;" d="M 301.671875 53.648438 C 301.671875 54.710938 300.820312 55.570312 299.773438 55.570312 C 298.71875 55.578125 297.867188 54.71875 297.867188 53.65625 C 297.859375 52.585938 298.710938 51.726562 299.757812 51.71875 C 300.804688 51.710938 301.664062 52.570312 301.671875 53.632812 " transform="matrix(0.5,0,0,0.5,0,0)"/>
<path style=" stroke:none;fill-rule:evenodd;fill:rgb(63.921569%,68.627451%,72.156863%);fill-opacity:1;" d="M 149.441406 27.316406 C 149.441406 27.316406 150.207031 27.304688 150.285156 26.992188 C 150.363281 26.679688 150.234375 26.273438 150.234375 26.273438 C 150.234375 26.273438 150.597656 26.679688 150.496094 26.992188 C 150.390625 27.304688 150.289062 27.386719 150.027344 27.449219 C 149.847656 27.488281 149.582031 27.421875 149.441406 27.316406 Z M 149.441406 27.316406 "/>
<path style="fill-rule:nonzero;fill:rgb(93.333333%,93.333333%,93.333333%);fill-opacity:1;stroke-width:0.731;stroke-linecap:butt;stroke-linejoin:round;stroke:rgb(11.764706%,11.764706%,11.764706%);stroke-opacity:1;stroke-miterlimit:4;" d="M 301.867188 58.289062 C 301.867188 59.46875 300.929688 60.421875 299.773438 60.421875 C 298.609375 60.421875 297.671875 59.476562 297.664062 58.296875 C 297.65625 57.125 298.59375 56.164062 299.757812 56.15625 C 300.914062 56.148438 301.859375 57.101562 301.867188 58.273438 " transform="matrix(0.5,0,0,0.5,0,0)"/>
<path style=" stroke:none;fill-rule:evenodd;fill:rgb(63.921569%,68.627451%,72.156863%);fill-opacity:1;" d="M 149.394531 29.691406 C 149.394531 29.691406 150.246094 29.679688 150.332031 29.332031 C 150.417969 28.988281 150.273438 28.539062 150.273438 28.539062 C 150.273438 28.539062 150.675781 28.988281 150.5625 29.332031 C 150.445312 29.679688 150.332031 29.765625 150.042969 29.835938 C 149.847656 29.882812 149.554688 29.808594 149.394531 29.691406 Z M 149.394531 29.691406 "/>
<path style="fill-rule:nonzero;fill:rgb(93.333333%,93.333333%,93.333333%);fill-opacity:1;stroke-width:0.731;stroke-linecap:butt;stroke-linejoin:round;stroke:rgb(11.764706%,11.764706%,11.764706%);stroke-opacity:1;stroke-miterlimit:4;" d="M 301.65625 67.820312 C 301.65625 68.929688 300.78125 69.820312 299.6875 69.828125 C 298.601562 69.828125 297.710938 68.9375 297.710938 67.828125 C 297.703125 66.726562 298.585938 65.828125 299.671875 65.820312 C 300.765625 65.8125 301.648438 66.703125 301.65625 67.804688 " transform="matrix(0.5,0,0,0.5,0,0)"/>
<path style=" stroke:none;fill-rule:evenodd;fill:rgb(63.921569%,68.627451%,72.156863%);fill-opacity:1;" d="M 149.386719 34.425781 C 149.386719 34.425781 150.183594 34.414062 150.265625 34.089844 C 150.34375 33.761719 150.210938 33.34375 150.210938 33.34375 C 150.210938 33.34375 150.589844 33.761719 150.480469 34.089844 C 150.371094 34.414062 150.265625 34.496094 149.992188 34.5625 C 149.808594 34.605469 149.535156 34.535156 149.386719 34.425781 Z M 149.386719 34.425781 "/>
<path style="fill-rule:nonzero;fill:rgb(93.333333%,93.333333%,93.333333%);fill-opacity:1;stroke-width:0.731;stroke-linecap:butt;stroke-linejoin:round;stroke:rgb(11.764706%,11.764706%,11.764706%);stroke-opacity:1;stroke-miterlimit:4;" d="M 295.96875 45.195312 C 295.96875 46.367188 295.03125 47.320312 293.867188 47.328125 C 292.710938 47.328125 291.765625 46.375 291.765625 45.203125 C 291.757812 44.023438 292.695312 43.070312 293.851562 43.0625 C 295.015625 43.054688 295.960938 44 295.96875 45.179688 " transform="matrix(0.5,0,0,0.5,0,0)"/>
<path style=" stroke:none;fill-rule:evenodd;fill:rgb(63.921569%,68.627451%,72.156863%);fill-opacity:1;" d="M 146.445312 23.144531 C 146.445312 23.144531 147.296875 23.128906 147.382812 22.785156 C 147.46875 22.4375 147.324219 21.992188 147.324219 21.992188 C 147.324219 21.992188 147.726562 22.4375 147.613281 22.785156 C 147.496094 23.128906 147.382812 23.21875 147.09375 23.289062 C 146.898438 23.335938 146.601562 23.257812 146.445312 23.144531 Z M 146.445312 23.144531 "/>
<path style="fill-rule:nonzero;fill:rgb(93.333333%,93.333333%,93.333333%);fill-opacity:1;stroke-width:0.731;stroke-linecap:butt;stroke-linejoin:round;stroke:rgb(11.764706%,11.764706%,11.764706%);stroke-opacity:1;stroke-miterlimit:4;" d="M 290.75 43.140625 C 290.75 44.3125 289.8125 45.265625 288.648438 45.273438 C 287.492188 45.273438 286.546875 44.320312 286.546875 43.148438 C 286.539062 41.96875 287.476562 41.015625 288.632812 41.007812 C 289.796875 41 290.742188 41.945312 290.75 43.117188 " transform="matrix(0.5,0,0,0.5,0,0)"/>
<path style=" stroke:none;fill-rule:evenodd;fill:rgb(63.921569%,68.627451%,72.156863%);fill-opacity:1;" d="M 143.835938 22.117188 C 143.835938 22.117188 144.683594 22.101562 144.773438 21.757812 C 144.859375 21.410156 144.714844 20.964844 144.714844 20.964844 C 144.714844 20.964844 145.117188 21.410156 145.003906 21.757812 C 144.886719 22.101562 144.773438 22.191406 144.484375 22.261719 C 144.285156 22.308594 143.992188 22.230469 143.835938 22.117188 Z M 143.835938 22.117188 "/>
<path style="fill-rule:nonzero;fill:rgb(93.333333%,93.333333%,93.333333%);fill-opacity:1;stroke-width:0.731;stroke-linecap:butt;stroke-linejoin:round;stroke:rgb(11.764706%,11.764706%,11.764706%);stroke-opacity:1;stroke-miterlimit:4;" d="M 285.757812 40.789062 C 285.757812 41.960938 284.820312 42.921875 283.65625 42.921875 C 282.5 42.921875 281.554688 41.96875 281.554688 40.796875 C 281.546875 39.617188 282.484375 38.664062 283.640625 38.65625 C 284.804688 38.648438 285.75 39.59375 285.757812 40.773438 " transform="matrix(0.5,0,0,0.5,0,0)"/>
<path style=" stroke:none;fill-rule:evenodd;fill:rgb(63.921569%,68.627451%,72.156863%);fill-opacity:1;" d="M 141.339844 20.941406 C 141.339844 20.941406 142.191406 20.925781 142.277344 20.582031 C 142.363281 20.234375 142.21875 19.789062 142.21875 19.789062 C 142.21875 19.789062 142.621094 20.234375 142.507812 20.582031 C 142.390625 20.925781 142.277344 21.015625 141.988281 21.085938 C 141.792969 21.132812 141.5 21.054688 141.339844 20.941406 Z M 141.339844 20.941406 "/>
<path style="fill-rule:nonzero;fill:rgb(93.333333%,93.333333%,93.333333%);fill-opacity:1;stroke-width:0.731;stroke-linecap:butt;stroke-linejoin:round;stroke:rgb(11.764706%,11.764706%,11.764706%);stroke-opacity:1;stroke-miterlimit:4;" d="M 280.03125 39.539062 C 280.03125 40.71875 279.09375 41.671875 277.929688 41.671875 C 276.773438 41.671875 275.828125 40.726562 275.820312 39.546875 C 275.820312 38.367188 276.757812 37.414062 277.914062 37.40625 C 279.070312 37.398438 280.023438 38.34375 280.03125 39.523438 " transform="matrix(0.5,0,0,0.5,0,0)"/>
<path style=" stroke:none;fill-rule:evenodd;fill:rgb(63.921569%,68.627451%,72.156863%);fill-opacity:1;" d="M 138.476562 20.316406 C 138.476562 20.316406 139.324219 20.300781 139.410156 19.957031 C 139.496094 19.609375 139.355469 19.164062 139.355469 19.164062 C 139.355469 19.164062 139.757812 19.609375 139.640625 19.957031 C 139.527344 20.300781 139.414062 20.390625 139.125 20.460938 C 138.925781 20.507812 138.632812 20.433594 138.476562 20.316406 Z M 138.476562 20.316406 "/>
<path style="fill-rule:nonzero;fill:rgb(93.333333%,93.333333%,93.333333%);fill-opacity:1;stroke-width:0.731;stroke-linecap:butt;stroke-linejoin:round;stroke:rgb(11.764706%,11.764706%,11.764706%);stroke-opacity:1;stroke-miterlimit:4;" d="M 273.273438 41.15625 C 273.273438 42.328125 272.328125 43.28125 271.171875 43.289062 C 270.007812 43.289062 269.070312 42.335938 269.0625 41.164062 C 269.054688 39.984375 269.992188 39.03125 271.15625 39.023438 C 272.3125 39.015625 273.257812 39.960938 273.273438 41.140625 " transform="matrix(0.5,0,0,0.5,0,0)"/>
<path style=" stroke:none;fill-rule:evenodd;fill:rgb(63.921569%,68.627451%,72.156863%);fill-opacity:1;" d="M 135.09375 21.125 C 135.09375 21.125 135.945312 21.109375 136.03125 20.765625 C 136.117188 20.417969 135.972656 19.972656 135.972656 19.972656 C 135.972656 19.972656 136.378906 20.417969 136.261719 20.765625 C 136.148438 21.109375 136.035156 21.199219 135.742188 21.269531 C 135.546875 21.316406 135.253906 21.238281 135.09375 21.125 Z M 135.09375 21.125 "/>
<path style="fill-rule:nonzero;fill:rgb(93.333333%,93.333333%,93.333333%);fill-opacity:1;stroke-width:0.731;stroke-linecap:butt;stroke-linejoin:round;stroke:rgb(11.764706%,11.764706%,11.764706%);stroke-opacity:1;stroke-miterlimit:4;" d="M 268.5 45.929688 C 268.5 47.101562 267.5625 48.054688 266.398438 48.0625 C 265.242188 48.0625 264.296875 47.109375 264.296875 45.9375 C 264.289062 44.757812 265.226562 43.804688 266.382812 43.796875 C 267.546875 43.789062 268.492188 44.734375 268.5 45.914062 " transform="matrix(0.5,0,0,0.5,0,0)"/>
<path style=" stroke:none;fill-rule:evenodd;fill:rgb(63.921569%,68.627451%,72.156863%);fill-opacity:1;" d="M 132.710938 23.511719 C 132.710938 23.511719 133.558594 23.496094 133.648438 23.152344 C 133.734375 22.804688 133.589844 22.359375 133.589844 22.359375 C 133.589844 22.359375 133.992188 22.804688 133.878906 23.152344 C 133.761719 23.496094 133.648438 23.585938 133.359375 23.65625 C 133.160156 23.703125 132.867188 23.625 132.710938 23.511719 Z M 132.710938 23.511719 "/>
<path style="fill-rule:nonzero;fill:rgb(93.333333%,93.333333%,93.333333%);fill-opacity:1;stroke-width:0.731;stroke-linecap:butt;stroke-linejoin:round;stroke:rgb(11.764706%,11.764706%,11.764706%);stroke-opacity:1;stroke-miterlimit:4;" d="M 266.523438 52.609375 C 266.523438 53.789062 265.578125 54.742188 264.421875 54.742188 C 263.257812 54.742188 262.320312 53.796875 262.3125 52.617188 C 262.304688 51.445312 263.242188 50.484375 264.40625 50.476562 C 265.5625 50.476562 266.507812 51.421875 266.523438 52.59375 " transform="matrix(0.5,0,0,0.5,0,0)"/>
<path style=" stroke:none;fill-rule:evenodd;fill:rgb(63.921569%,68.627451%,72.156863%);fill-opacity:1;" d="M 131.714844 26.851562 C 131.714844 26.851562 132.566406 26.839844 132.652344 26.492188 C 132.738281 26.148438 132.59375 25.699219 132.59375 25.699219 C 132.59375 25.699219 132.996094 26.148438 132.882812 26.492188 C 132.765625 26.839844 132.652344 26.929688 132.363281 26.996094 C 132.167969 27.042969 131.875 26.96875 131.714844 26.851562 Z M 131.714844 26.851562 "/>
<path style="fill-rule:nonzero;fill:rgb(93.333333%,93.333333%,93.333333%);fill-opacity:1;stroke-width:0.731;stroke-linecap:butt;stroke-linejoin:round;stroke:rgb(11.764706%,11.764706%,11.764706%);stroke-opacity:1;stroke-miterlimit:4;" d="M 267.398438 59.59375 C 267.398438 60.765625 266.460938 61.71875 265.296875 61.71875 C 264.140625 61.726562 263.195312 60.773438 263.195312 59.601562 C 263.1875 58.421875 264.125 57.46875 265.28125 57.460938 C 266.445312 57.453125 267.390625 58.398438 267.398438 59.570312 " transform="matrix(0.5,0,0,0.5,0,0)"/>
<path style=" stroke:none;fill-rule:evenodd;fill:rgb(63.921569%,68.627451%,72.156863%);fill-opacity:1;" d="M 132.160156 30.34375 C 132.160156 30.34375 133.011719 30.328125 133.097656 29.984375 C 133.183594 29.636719 133.039062 29.191406 133.039062 29.191406 C 133.039062 29.191406 133.441406 29.636719 133.328125 29.984375 C 133.210938 30.328125 133.097656 30.417969 132.808594 30.488281 C 132.613281 30.535156 132.320312 30.457031 132.160156 30.34375 Z M 132.160156 30.34375 "/>
<path style="fill-rule:nonzero;fill:rgb(93.333333%,93.333333%,93.333333%);fill-opacity:1;stroke-width:0.731;stroke-linecap:butt;stroke-linejoin:round;stroke:rgb(11.764706%,11.764706%,11.764706%);stroke-opacity:1;stroke-miterlimit:4;" d="M 270.632812 65.90625 C 270.632812 67.078125 269.6875 68.039062 268.53125 68.039062 C 267.367188 68.039062 266.429688 67.09375 266.421875 65.914062 C 266.421875 64.734375 267.351562 63.78125 268.515625 63.773438 C 269.671875 63.765625 270.617188 64.710938 270.632812 65.890625 " transform="matrix(0.5,0,0,0.5,0,0)"/>
<path style=" stroke:none;fill-rule:evenodd;fill:rgb(63.921569%,68.627451%,72.156863%);fill-opacity:1;" d="M 133.773438 33.5 C 133.773438 33.5 134.625 33.484375 134.710938 33.140625 C 134.796875 32.792969 134.652344 32.347656 134.652344 32.347656 C 134.652344 32.347656 135.058594 32.792969 134.941406 33.140625 C 134.828125 33.484375 134.714844 33.574219 134.421875 33.644531 C 134.226562 33.691406 133.933594 33.617188 133.773438 33.5 Z M 133.773438 33.5 "/>
<path style="fill-rule:nonzero;fill:rgb(93.333333%,93.333333%,93.333333%);fill-opacity:1;stroke-width:2.832;stroke-linecap:butt;stroke-linejoin:round;stroke:rgb(11.764706%,11.764706%,11.764706%);stroke-opacity:1;stroke-miterlimit:4;" d="M 430.610333 247.414026 C 430.615713 251.012759 427.737448 253.953228 424.178081 253.950604 C 420.618715 253.947981 417.749258 251.034153 417.743879 247.435419 C 417.701588 243.830483 420.579853 240.890015 424.14911 240.869488 C 427.681456 240.842758 430.597715 243.739639 430.630115 247.367725 " transform="matrix(0.09874,-0.026455,0.042185,0.15743,84.185,9.375)"/>
<path style=" stroke:none;fill-rule:evenodd;fill:rgb(63.921569%,68.627451%,72.156863%);fill-opacity:1;" d="M 136.351562 37.710938 C 136.351562 37.710938 136.859375 37.558594 136.824219 37.210938 C 136.785156 36.863281 136.585938 36.457031 136.585938 36.457031 C 136.585938 36.457031 136.945312 36.820312 136.964844 37.175781 C 136.984375 37.527344 136.9375 37.632812 136.78125 37.746094 C 136.671875 37.824219 136.476562 37.796875 136.351562 37.710938 Z M 136.351562 37.710938 "/>
<path style="fill-rule:nonzero;fill:rgb(93.333333%,93.333333%,93.333333%);fill-opacity:1;stroke-width:2.832;stroke-linecap:butt;stroke-linejoin:round;stroke:rgb(11.764706%,11.764706%,11.764706%);stroke-opacity:1;stroke-miterlimit:4;" d="M 430.638174 247.414185 C 430.639651 251.018168 427.73424 253.93666 424.193864 253.941726 C 420.61639 253.952537 417.738576 251.040769 417.737099 247.436786 C 417.698523 243.838547 420.594775 240.896786 424.125993 240.868451 C 427.703468 240.857641 430.609223 243.740396 430.619858 247.367648 " transform="matrix(0.099245,0.0245,-0.03906,0.158235,131.23,-12.5635)"/>
<path style=" stroke:none;fill-rule:evenodd;fill:rgb(63.921569%,68.627451%,72.156863%);fill-opacity:1;" d="M 163.234375 37.433594 C 163.234375 37.433594 163.757812 37.550781 163.890625 37.226562 C 164.027344 36.902344 164.046875 36.449219 164.046875 36.449219 C 164.046875 36.449219 164.183594 36.941406 164.03125 37.261719 C 163.878906 37.578125 163.789062 37.648438 163.59375 37.671875 C 163.464844 37.6875 163.304688 37.570312 163.234375 37.433594 Z M 163.234375 37.433594 "/>
<path style="fill-rule:evenodd;fill:rgb(70.196078%,63.137255%,57.254902%);fill-opacity:1;stroke-width:0.731;stroke-linecap:butt;stroke-linejoin:miter;stroke:rgb(0%,0%,0%);stroke-opacity:1;stroke-miterlimit:4;" d="M 297.953125 33.632812 L 298.101562 37.195312 C 298.101562 37.195312 293.882812 37.5625 293.703125 37.953125 C 292.882812 39.789062 294.6875 42.273438 294.6875 42.273438 C 294.6875 42.273438 296.109375 41.210938 299.695312 41.210938 C 303.101562 41.210938 304.84375 42.046875 304.84375 42.046875 C 304.84375 42.046875 305.757812 40.601562 305.757812 39.546875 C 305.757812 38.484375 305.375 37.421875 305.375 37.421875 C 305.375 37.421875 303.632812 37.195312 303.101562 37.195312 L 301.585938 37.195312 L 301.4375 33.554688 Z M 297.953125 33.632812 " transform="matrix(0.5,0,0,0.5,0,0)"/>
<path style="fill-rule:nonzero;fill:rgb(94.117647%,86.666667%,79.607843%);fill-opacity:1;stroke-width:0.373;stroke-linecap:butt;stroke-linejoin:round;stroke:rgb(7.058824%,6.666667%,8.627451%);stroke-opacity:1;stroke-miterlimit:4;" d="M 303.96875 39.15625 C 303.96875 39.554688 303.632812 39.882812 303.21875 39.882812 C 302.796875 39.882812 302.460938 39.5625 302.460938 39.164062 C 302.453125 38.765625 302.796875 38.4375 303.210938 38.4375 C 303.625 38.429688 303.96875 38.75 303.96875 39.148438 M 305.710938 39.546875 C 305.710938 39.960938 305.359375 40.304688 304.921875 40.304688 C 304.492188 40.304688 304.132812 39.96875 304.132812 39.546875 C 304.132812 39.132812 304.484375 38.796875 304.914062 38.789062 C 305.351562 38.789062 305.703125 39.125 305.710938 39.539062 M 302.226562 39.132812 C 302.226562 39.53125 301.890625 39.851562 301.476562 39.851562 C 301.054688 39.851562 300.71875 39.53125 300.71875 39.132812 C 300.710938 38.734375 301.046875 38.40625 301.46875 38.40625 C 301.882812 38.40625 302.226562 38.726562 302.226562 39.125 M 298.734375 39.171875 C 298.734375 39.585938 298.382812 39.921875 297.945312 39.921875 C 297.515625 39.921875 297.164062 39.585938 297.164062 39.171875 C 297.15625 38.757812 297.507812 38.421875 297.945312 38.414062 C 298.375 38.414062 298.726562 38.75 298.734375 39.164062 M 296.796875 39.296875 C 296.796875 39.71875 296.445312 40.054688 296.007812 40.054688 C 295.578125 40.054688 295.226562 39.71875 295.21875 39.304688 C 295.21875 38.882812 295.570312 38.546875 296 38.546875 C 296.4375 38.546875 296.789062 38.875 296.796875 39.296875 M 300.351562 37.117188 C 300.351562 36.851562 300.515625 36.617188 300.757812 36.515625 C 301 36.414062 301.28125 36.476562 301.46875 36.664062 C 301.65625 36.851562 301.703125 37.132812 301.601562 37.375 C 301.492188 37.617188 301.257812 37.773438 300.992188 37.765625 L 301.640625 38.421875 L 301.640625 40.085938 M 301.640625 37.132812 C 301.640625 36.867188 301.796875 36.632812 302.046875 36.53125 C 302.289062 36.429688 302.570312 36.492188 302.757812 36.679688 C 302.9375 36.867188 302.992188 37.148438 302.882812 37.390625 C 302.78125 37.632812 302.539062 37.789062 302.273438 37.78125 L 302.929688 38.4375 L 302.929688 40.101562 M 302.929688 41.695312 C 302.929688 41.4375 303.085938 41.195312 303.328125 41.09375 C 303.578125 41 303.859375 41.054688 304.039062 41.242188 C 304.226562 41.429688 304.28125 41.71875 304.171875 41.960938 C 304.070312 42.203125 303.828125 42.351562 303.5625 42.351562 L 304.210938 43 L 304.210938 44.664062 M 294.828125 39.828125 C 294.828125 40.226562 294.492188 40.554688 294.070312 40.554688 C 293.65625 40.554688 293.3125 40.234375 293.3125 39.828125 C 293.3125 39.429688 293.648438 39.101562 294.0625 39.101562 C 294.484375 39.09375 294.828125 39.421875 294.828125 39.820312 " transform="matrix(0.5,0,0,0.5,0,0)"/>
<path style="fill-rule:nonzero;fill:rgb(56.862745%,42.352941%,40.784314%);fill-opacity:1;stroke-width:0.373;stroke-linecap:butt;stroke-linejoin:round;stroke:rgb(30.196078%,19.215686%,14.901961%);stroke-opacity:1;stroke-miterlimit:4;" d="M 300.53125 38.976562 C 300.53125 39.414062 300.15625 39.773438 299.695312 39.773438 C 299.234375 39.773438 298.867188 39.414062 298.859375 38.976562 C 298.859375 38.539062 299.234375 38.179688 299.6875 38.179688 C 300.148438 38.179688 300.523438 38.53125 300.53125 38.96875 " transform="matrix(0.5,0,0,0.5,0,0)"/>
<path style="fill-rule:nonzero;fill:rgb(93.333333%,93.333333%,93.333333%);fill-opacity:1;stroke-width:0.731;stroke-linecap:butt;stroke-linejoin:round;stroke:rgb(11.764706%,11.764706%,11.764706%);stroke-opacity:1;stroke-miterlimit:4;" d="M 301.289062 28.40625 C 301.289062 29.273438 300.59375 29.984375 299.734375 29.984375 C 300.601562 29.984375 301.296875 30.6875 301.296875 31.554688 C 301.296875 32.421875 300.59375 33.117188 299.726562 33.117188 C 298.867188 33.117188 298.164062 32.414062 298.164062 31.554688 L 299.734375 31.554688 " transform="matrix(0.5,0,0,0.5,0,0)"/>
<path style=" stroke:none;fill-rule:evenodd;fill:rgb(63.921569%,68.627451%,72.156863%);fill-opacity:1;" d="M 149.503906 14.609375 C 149.503906 14.609375 150.132812 14.597656 150.199219 14.339844 C 150.261719 14.085938 150.15625 13.753906 150.15625 13.753906 C 150.15625 13.753906 150.453125 14.085938 150.367188 14.339844 C 150.285156 14.597656 150.199219 14.664062 149.984375 14.714844 C 149.839844 14.75 149.621094 14.695312 149.503906 14.609375 Z M 149.503906 14.609375 "/>
<path style="fill-rule:evenodd;fill:rgb(100%,80%,0%);fill-opacity:1;stroke-width:0.326;stroke-linecap:butt;stroke-linejoin:miter;stroke:rgb(0%,0%,0%);stroke-opacity:1;stroke-miterlimit:4;" d="M 274.976562 81.335938 C 274.976562 81.335938 276.367188 82.632812 276.742188 83.789062 C 277.109375 84.945312 277.664062 88.046875 277.664062 88.046875 C 277.664062 88.046875 292.203125 84.023438 299.328125 84.34375 C 306.460938 84.671875 322.898438 88.28125 322.898438 88.28125 C 322.898438 88.28125 323.171875 86.515625 323.5 84.671875 C 323.820312 82.8125 325.164062 80.78125 325.164062 80.78125 C 325.164062 80.78125 309.46875 75.875 299.5625 76.335938 C 289.65625 76.796875 284.703125 77.859375 282.476562 78.554688 C 280.257812 79.25 274.84375 81.382812 274.976562 81.335938 Z M 274.976562 81.335938 " transform="matrix(0.5,0,0,0.5,0,0)"/>
<path style="fill-rule:evenodd;fill:rgb(100%,80%,0%);fill-opacity:1;stroke-width:0.731;stroke-linecap:butt;stroke-linejoin:miter;stroke:rgb(0%,0%,0%);stroke-opacity:1;stroke-miterlimit:4;" d="M 296.65625 22.53125 L 302.914062 22.53125 C 302.914062 22.53125 301.367188 23.59375 301.054688 24.617188 C 300.789062 25.492188 300.867188 26.921875 300.867188 26.921875 C 300.867188 26.921875 302.570312 26.921875 303.328125 26.28125 C 304.085938 25.640625 305.679688 24.5 305.679688 24.5 L 305.679688 32.460938 C 305.679688 32.460938 304.140625 30.976562 303.21875 30.484375 C 302.101562 29.90625 300.976562 29.695312 300.976562 29.695312 C 300.976562 29.695312 300.976562 30.976562 301.507812 31.734375 C 302.039062 32.492188 304.164062 35.375 304.164062 35.375 L 295.21875 35.71875 C 295.21875 35.71875 297.34375 33.476562 298.210938 31.851562 C 298.78125 30.789062 298.554688 29.695312 298.554688 29.695312 C 298.554688 29.695312 297.039062 29.695312 296.28125 30.21875 C 295.523438 30.75 294.195312 32.34375 294.195312 32.34375 L 294.195312 24.6875 C 294.195312 24.6875 294.765625 26.171875 296.015625 26.734375 C 297.265625 27.304688 298.4375 27 298.4375 27 C 298.4375 27 298.679688 25.476562 298.179688 24.539062 C 297.648438 23.570312 296.546875 22.492188 296.65625 22.53125 Z M 296.65625 22.53125 " transform="matrix(0.5,0,0,0.5,0,0)"/>
<path style="fill-rule:evenodd;fill:rgb(100%,80%,0%);fill-opacity:1;stroke-width:0.731;stroke-linecap:butt;stroke-linejoin:miter;stroke:rgb(7.058824%,6.666667%,8.627451%);stroke-opacity:1;stroke-miterlimit:4;" d="M 296.171875 47.78125 C 296.171875 47.78125 291.71875 47.726562 287.914062 45.476562 C 284.109375 43.226562 280.273438 40.867188 274.625 42.203125 C 273.46875 42.484375 269.21875 44.351562 267.335938 50.40625 C 266.023438 54.65625 267.554688 59.78125 268.890625 62.085938 C 270.234375 64.390625 272.390625 66.726562 272.390625 66.726562 L 274.6875 65.171875 C 274.6875 65.171875 268.84375 60.210938 269.539062 53.78125 C 270.234375 47.351562 273.445312 45.851562 273.445312 45.851562 C 273.445312 45.851562 277.414062 42.742188 282.71875 45.6875 C 288.023438 48.640625 293.21875 49.976562 293.21875 49.976562 C 293.21875 49.976562 298.101562 51.15625 298.523438 51.101562 C 298.953125 51.046875 296.0625 47.726562 296.171875 47.78125 Z M 296.171875 47.78125 " transform="matrix(0.5,0,0,0.5,0,0)"/>
<path style="fill-rule:evenodd;fill:rgb(100%,80%,0%);fill-opacity:1;stroke-width:0.75;stroke-linecap:butt;stroke-linejoin:miter;stroke:rgb(0%,0%,0%);stroke-opacity:1;stroke-miterlimit:4;" d="M 271.570312 71.898438 L 269.203125 67.257812 L 276.296875 64.484375 C 276.296875 64.484375 274.585938 66.765625 274.179688 68.398438 C 273.679688 70.390625 273.851562 72.0625 273.851562 72.0625 C 273.851562 72.0625 274.507812 71.570312 275.320312 70.273438 C 275.9375 69.28125 276.945312 65.703125 276.945312 65.703125 L 280.125 75.890625 C 280.148438 75.921875 278.492188 74.257812 277.328125 74.0625 C 276.015625 73.84375 274.421875 74.265625 274.421875 74.265625 L 272.546875 74.835938 Z M 271.570312 71.898438 " transform="matrix(0.5,0,0,0.5,0,0)"/>
<path style="fill-rule:evenodd;fill:rgb(100%,80%,0%);fill-opacity:1;stroke-width:0.731;stroke-linecap:butt;stroke-linejoin:miter;stroke:rgb(7.058824%,6.666667%,8.627451%);stroke-opacity:1;stroke-miterlimit:4;" d="M 304.1875 47.695312 C 304.1875 47.695312 308.640625 47.640625 312.445312 45.390625 C 316.25 43.140625 320.085938 40.78125 325.734375 42.125 C 326.890625 42.398438 331.148438 44.265625 333.023438 50.320312 C 334.335938 54.570312 332.804688 59.703125 331.46875 62.007812 C 330.125 64.304688 329.21875 65.664062 329.21875 65.664062 L 326.453125 64.671875 C 326.453125 64.671875 331.523438 60.125 330.820312 53.695312 C 330.125 47.265625 326.914062 45.765625 326.914062 45.765625 C 326.914062 45.765625 322.945312 42.65625 317.640625 45.609375 C 312.335938 48.554688 307.140625 49.890625 307.140625 49.890625 C 307.140625 49.890625 302.257812 51.070312 301.835938 51.015625 C 301.40625 50.96875 304.296875 47.640625 304.1875 47.695312 Z M 304.1875 47.695312 " transform="matrix(0.5,0,0,0.5,0,0)"/>
<path style="fill-rule:nonzero;fill:rgb(100%,80%,0%);fill-opacity:1;stroke-width:0.731;stroke-linecap:butt;stroke-linejoin:round;stroke:rgb(7.058824%,6.666667%,8.627451%);stroke-opacity:1;stroke-miterlimit:4;" d="M 301.890625 43.296875 L 303.75 43.296875 L 303.75 60.609375 L 301.890625 60.609375 Z M 295.640625 43.21875 L 297.835938 43.21875 L 297.835938 60.539062 L 295.640625 60.539062 Z M 295.640625 43.21875 " transform="matrix(0.5,0,0,0.5,0,0)"/>
<path style="fill-rule:nonzero;fill:rgb(100%,80%,0%);fill-opacity:1;stroke-width:0.731;stroke-linecap:butt;stroke-linejoin:round;stroke:rgb(7.058824%,6.666667%,8.627451%);stroke-opacity:1;stroke-miterlimit:4;" d="M 305.757812 39.203125 C 305.757812 42.273438 303.054688 44.765625 299.710938 44.773438 C 296.367188 44.78125 293.648438 42.296875 293.632812 39.226562 C 293.617188 36.148438 296.320312 33.648438 299.664062 33.632812 C 303.007812 33.617188 305.734375 36.085938 305.757812 39.15625 " transform="matrix(0.5,0,0,0.5,0,0)"/>
<path style="fill-rule:evenodd;fill:rgb(100%,80%,0%);fill-opacity:1;stroke-width:0.619;stroke-linecap:butt;stroke-linejoin:miter;stroke:rgb(0%,0%,0%);stroke-opacity:1;stroke-miterlimit:4;" d="M 294.320312 60.46875 L 304.742188 60.382812 C 304.742188 60.382812 303.523438 61.109375 302.46875 62.976562 C 301.421875 64.84375 301.570312 66.023438 301.570312 66.023438 C 301.570312 66.023438 303.15625 66 304.273438 65.1875 C 305.390625 64.367188 306.632812 62.851562 306.632812 62.851562 L 306.59375 72.460938 C 306.59375 72.460938 305.84375 71.234375 304.59375 70.507812 C 303.351562 69.773438 301.59375 69.773438 301.59375 69.773438 L 298.03125 69.773438 C 298.03125 69.773438 296.398438 69.875 295.671875 70.359375 C 294.640625 71.039062 293.351562 72.351562 293.351562 72.351562 L 293.179688 63.273438 C 293.179688 63.273438 293.695312 64.867188 295.367188 65.507812 C 297.046875 66.148438 297.984375 66.0625 297.984375 66.0625 C 297.984375 66.0625 297.984375 64.03125 297.132812 62.976562 C 296.273438 61.929688 294.320312 60.507812 294.320312 60.46875 Z M 294.320312 60.46875 " transform="matrix(0.5,0,0,0.5,0,0)"/>
<path style="fill-rule:evenodd;fill:rgb(96.470588%,79.215686%,12.156863%);fill-opacity:1;stroke-width:0.587;stroke-linecap:butt;stroke-linejoin:miter;stroke:rgb(0%,0%,0%);stroke-opacity:1;stroke-miterlimit:4;" d="M 300.132812 68.015625 C 300.132812 68.015625 301.65625 71.570312 303.429688 73.140625 C 304.460938 74.054688 307.5625 74.75 308.96875 74.390625 C 312.125 73.585938 314.289062 71.0625 314.289062 71.0625 C 314.289062 71.0625 314.179688 73.820312 316.15625 75.34375 C 318.125 76.867188 319.703125 77.265625 321.34375 76.8125 C 322.976562 76.359375 327.609375 72.921875 327.609375 72.921875 L 328.5625 73.765625 C 328.5625 73.765625 325.914062 76.34375 323.125 77.710938 C 321.6875 78.414062 317.328125 78.023438 315.921875 76.898438 C 314.507812 75.765625 313.671875 73.03125 313.671875 73.03125 C 313.671875 73.03125 312.804688 74.789062 310.9375 75.414062 C 309.078125 76.03125 306.523438 76.007812 304.140625 75.3125 C 302.546875 74.84375 300.46875 72.640625 300.070312 71.90625 C 299.679688 71.171875 299.789062 70.78125 299.789062 70.78125 C 299.789062 70.78125 298.617188 74.132812 296.179688 75.054688 C 293.875 75.914062 291.25 75.921875 289.023438 75.28125 C 286.765625 74.632812 286.59375 73.375 286.59375 73.375 C 286.59375 73.375 286.421875 76.929688 281.515625 77.945312 C 276.601562 78.960938 272.710938 75.34375 272.710938 75.34375 L 273.390625 74.328125 C 273.390625 74.328125 276.15625 77.4375 280.382812 77.148438 C 284.617188 76.867188 286.023438 71.453125 286.023438 71.453125 C 286.023438 71.453125 287.890625 74.273438 292.851562 74.328125 C 297.820312 74.390625 299.226562 67.898438 299.226562 67.898438 Z M 300.132812 68.015625 " transform="matrix(0.5,0,0,0.5,0,0)"/>
<path style="fill-rule:evenodd;fill:rgb(100%,80%,0%);fill-opacity:1;stroke-width:0.717;stroke-linecap:butt;stroke-linejoin:miter;stroke:rgb(0%,0%,0%);stroke-opacity:1;stroke-miterlimit:4;" d="M 287.890625 70.085938 C 287.890625 70.085938 287.929688 68.351562 288.296875 67.835938 C 288.828125 67.101562 289.539062 67.070312 289.90625 67.171875 C 290.359375 67.296875 290.828125 67.710938 290.75 68.90625 C 290.671875 70.109375 290.34375 70.695312 290.695312 71.15625 C 291.054688 71.617188 291.109375 71.921875 291.796875 71.820312 C 292.484375 71.71875 292.796875 71.484375 292.640625 70.851562 C 292.484375 70.210938 292.28125 70.898438 292.15625 70.367188 C 292.023438 69.828125 292.820312 67.507812 292.6875 66.070312 C 292.5625 64.671875 292.023438 63.546875 290.953125 63.265625 C 289.945312 63 289.09375 63.007812 288.148438 63.695312 C 287.242188 64.359375 286.078125 66.53125 286.078125 66.53125 L 286.054688 71.179688 L 287.9375 71.078125 Z M 287.890625 70.085938 " transform="matrix(0.5,0,0,0.5,0,0)"/>
<path style="fill-rule:evenodd;fill:rgb(100%,80%,0%);fill-opacity:1;stroke-width:0.717;stroke-linecap:butt;stroke-linejoin:miter;stroke:rgb(0%,0%,0%);stroke-opacity:1;stroke-miterlimit:4;" d="M 284.367188 71.335938 C 284.367188 71.335938 283.648438 69.765625 283.101562 69.4375 C 282.320312 68.96875 281.65625 69.226562 281.359375 69.46875 C 280.992188 69.765625 280.726562 70.328125 281.28125 71.398438 C 281.828125 72.46875 282.367188 72.875 282.21875 73.4375 C 282.078125 74 282.148438 74.304688 281.476562 74.484375 C 280.804688 74.664062 280.429688 74.578125 280.320312 73.929688 C 280.203125 73.28125 280.671875 73.835938 280.570312 73.289062 C 280.476562 72.75 278.820312 70.9375 278.367188 69.570312 C 277.929688 68.234375 277.96875 66.984375 278.84375 66.304688 C 279.664062 65.65625 280.453125 65.328125 281.59375 65.578125 C 282.6875 65.828125 284.617188 67.359375 284.617188 67.359375 L 286.492188 71.609375 L 284.71875 72.265625 Z M 284.367188 71.335938 " transform="matrix(0.5,0,0,0.5,0,0)"/>
<path style="fill-rule:evenodd;fill:rgb(100%,80%,0%);fill-opacity:1;stroke-width:0.717;stroke-linecap:butt;stroke-linejoin:miter;stroke:rgb(0%,0%,0%);stroke-opacity:1;stroke-miterlimit:4;" d="M 284.007812 57.570312 C 284.007812 57.570312 282.171875 60.664062 282.578125 63.039062 C 282.992188 65.40625 285.4375 70.515625 285.4375 70.515625 L 285.46875 71.203125 L 286.789062 71.0625 L 286.484375 70.367188 C 286.484375 70.367188 287.148438 64.25 286.742188 62.320312 C 286.4375 60.882812 284.03125 57.59375 284.007812 57.570312 Z M 286.945312 71.71875 C 286.945312 71.71875 287.867188 72.820312 288.960938 73.351562 C 290.164062 73.9375 290.65625 73.9375 291.132812 73.578125 C 291.484375 73.320312 291.367188 72.203125 290.953125 71.898438 C 290.546875 71.59375 290.085938 71.75 290.007812 72.046875 C 289.890625 72.5625 289.71875 72.53125 289.34375 72.328125 C 288.804688 72.039062 287.53125 71.257812 287.53125 71.257812 Z M 285.523438 71.96875 C 285.523438 71.96875 285.140625 73.34375 284.351562 74.289062 C 283.5 75.3125 283.054688 75.515625 282.46875 75.382812 C 282.046875 75.289062 281.695312 74.226562 281.9375 73.773438 C 282.1875 73.328125 282.671875 73.28125 282.867188 73.53125 C 283.1875 73.945312 283.328125 73.84375 283.585938 73.507812 C 283.96875 73.023438 284.796875 71.789062 284.796875 71.789062 Z M 285.523438 71.96875 " transform="matrix(0.5,0,0,0.5,0,0)"/>
<path style="fill-rule:nonzero;fill:rgb(100%,80%,0%);fill-opacity:1;stroke-width:0.717;stroke-linecap:butt;stroke-linejoin:round;stroke:rgb(0%,0%,0%);stroke-opacity:1;stroke-miterlimit:4;" d="M 288.992188 70.859375 C 289.054688 71.265625 287.84375 71.804688 286.273438 72.070312 C 284.703125 72.335938 283.375 72.21875 283.296875 71.820312 C 283.226562 71.421875 284.4375 70.882812 286.007812 70.609375 C 287.578125 70.34375 288.90625 70.453125 288.992188 70.859375 " transform="matrix(0.5,0,0,0.5,0,0)"/>
<path style="fill-rule:evenodd;fill:rgb(100%,80%,0%);fill-opacity:1;stroke-width:0.717;stroke-linecap:butt;stroke-linejoin:miter;stroke:rgb(0%,0%,0%);stroke-opacity:1;stroke-miterlimit:4;" d="M 316.007812 70.78125 C 316.007812 70.78125 316.648438 69.171875 317.179688 68.820312 C 317.929688 68.3125 318.617188 68.539062 318.921875 68.757812 C 319.296875 69.039062 319.59375 69.585938 319.101562 70.679688 C 318.609375 71.78125 318.09375 72.210938 318.265625 72.765625 C 318.4375 73.320312 318.375 73.632812 319.0625 73.773438 C 319.742188 73.921875 320.109375 73.8125 320.1875 73.164062 C 320.273438 72.507812 319.835938 73.085938 319.90625 72.539062 C 319.976562 71.992188 321.53125 70.101562 321.914062 68.703125 C 322.28125 67.34375 322.179688 66.109375 321.273438 65.46875 C 320.421875 64.867188 319.617188 64.578125 318.484375 64.890625 C 317.40625 65.195312 315.554688 66.820312 315.554688 66.820312 L 313.90625 71.164062 L 315.710938 71.726562 Z M 316.007812 70.78125 " transform="matrix(0.5,0,0,0.5,0,0)"/>
<path style="fill-rule:evenodd;fill:rgb(100%,80%,0%);fill-opacity:1;stroke-width:0.717;stroke-linecap:butt;stroke-linejoin:miter;stroke:rgb(0%,0%,0%);stroke-opacity:1;stroke-miterlimit:4;" d="M 312.28125 70.71875 C 312.28125 70.71875 312.15625 68.992188 311.757812 68.492188 C 311.195312 67.78125 310.476562 67.789062 310.117188 67.914062 C 309.671875 68.0625 309.226562 68.492188 309.359375 69.6875 C 309.5 70.882812 309.859375 71.453125 309.53125 71.929688 C 309.195312 72.40625 309.164062 72.71875 308.46875 72.648438 C 307.773438 72.585938 307.453125 72.375 307.578125 71.726562 C 307.695312 71.078125 307.9375 71.757812 308.039062 71.21875 C 308.132812 70.671875 307.21875 68.398438 307.28125 66.960938 C 307.335938 65.554688 307.8125 64.398438 308.867188 64.0625 C 309.859375 63.75 310.71875 63.710938 311.695312 64.351562 C 312.632812 64.96875 313.90625 67.078125 313.90625 67.078125 L 314.171875 71.71875 L 312.28125 71.710938 Z M 312.28125 70.71875 " transform="matrix(0.5,0,0,0.5,0,0)"/>
<path style="fill-rule:evenodd;fill:rgb(100%,80%,0%);fill-opacity:1;stroke-width:0.717;stroke-linecap:butt;stroke-linejoin:miter;stroke:rgb(0%,0%,0%);stroke-opacity:1;stroke-miterlimit:4;" d="M 316.773438 57.703125 C 316.773438 57.703125 313.96875 59.945312 313.515625 62.3125 C 313.0625 64.679688 313.570312 70.328125 313.570312 70.328125 L 313.351562 70.976562 L 314.640625 71.3125 L 314.601562 70.546875 C 314.601562 70.546875 317.367188 65.054688 317.664062 63.109375 C 317.882812 61.65625 316.78125 57.734375 316.773438 57.703125 Z M 314.5625 71.976562 C 314.5625 71.976562 315.03125 73.328125 315.875 74.21875 C 316.796875 75.1875 317.257812 75.359375 317.828125 75.195312 C 318.25 75.070312 318.523438 73.984375 318.25 73.554688 C 317.976562 73.117188 317.484375 73.101562 317.3125 73.359375 C 317.015625 73.804688 316.875 73.710938 316.59375 73.390625 C 316.179688 72.929688 315.273438 71.75 315.273438 71.75 Z M 313.140625 71.710938 C 313.140625 71.710938 312.296875 72.867188 311.234375 73.476562 C 310.070312 74.132812 309.578125 74.171875 309.078125 73.84375 C 308.71875 73.601562 308.765625 72.484375 309.148438 72.148438 C 309.539062 71.820312 310.007812 71.945312 310.101562 72.242188 C 310.257812 72.742188 310.421875 72.703125 310.78125 72.476562 C 311.3125 72.15625 312.523438 71.289062 312.523438 71.289062 Z M 313.140625 71.710938 " transform="matrix(0.5,0,0,0.5,0,0)"/>
<path style="fill-rule:nonzero;fill:rgb(100%,80%,0%);fill-opacity:1;stroke-width:0.717;stroke-linecap:butt;stroke-linejoin:round;stroke:rgb(0%,0%,0%);stroke-opacity:1;stroke-miterlimit:4;" d="M 316.789062 71.90625 C 316.710938 72.304688 315.382812 72.382812 313.820312 72.085938 C 312.257812 71.78125 311.054688 71.210938 311.125 70.804688 C 311.195312 70.40625 312.523438 70.320312 314.078125 70.625 C 315.648438 70.929688 316.859375 71.5 316.789062 71.898438 " transform="matrix(0.5,0,0,0.5,0,0)"/>
<path style="fill-rule:evenodd;fill:rgb(80%,65.490196%,8.235294%);fill-opacity:1;stroke-width:0.326;stroke-linecap:butt;stroke-linejoin:miter;stroke:rgb(0%,0%,0%);stroke-opacity:1;stroke-miterlimit:4;" d="M 274.429688 81.171875 C 274.429688 81.171875 274.734375 82.445312 275.460938 81.773438 C 276.195312 81.109375 286.234375 77.15625 300.40625 77.15625 C 314.578125 77.15625 323.882812 81.046875 324.429688 81.289062 C 324.976562 81.53125 325.21875 81.835938 325.710938 81.289062 C 326.195312 80.742188 325.226562 79.890625 325.226562 79.890625 C 325.226562 79.890625 315.367188 75.695312 299.976562 75.757812 C 284.585938 75.8125 274.609375 80.195312 274.609375 80.195312 C 274.609375 80.195312 273.945312 80.679688 274.429688 81.171875 Z M 274.429688 81.171875 " transform="matrix(0.5,0,0,0.5,0,0)"/>
<path style=" stroke:none;fill-rule:evenodd;fill:rgb(0%,0%,0%);fill-opacity:1;" d="M 146.199219 43.53125 C 146.199219 43.53125 146.425781 42.902344 146.820312 42.78125 C 147.136719 42.6875 147.632812 42.996094 147.632812 42.996094 C 147.632812 42.996094 147.035156 42.941406 146.847656 43.046875 C 146.675781 43.144531 146.625 43.429688 146.625 43.429688 C 146.625 43.429688 146.753906 43.203125 147.214844 43.222656 C 147.671875 43.246094 147.722656 43.246094 147.722656 43.246094 C 147.722656 43.246094 146.945312 43.304688 146.765625 43.527344 C 146.585938 43.753906 147.5 43.855469 147.5 43.855469 C 147.5 43.855469 146.101562 43.863281 145.917969 43.777344 C 145.734375 43.695312 145.617188 43.40625 145.304688 43.496094 C 144.992188 43.585938 144.671875 43.863281 144.671875 43.863281 C 144.671875 43.863281 145.027344 43.265625 145.253906 43.261719 C 145.476562 43.257812 145.609375 43.246094 145.808594 43.335938 C 146.011719 43.429688 146.199219 43.53125 146.199219 43.53125 Z M 140.964844 44.667969 C 140.964844 44.667969 141.070312 44.007812 141.4375 43.816406 C 141.730469 43.660156 142.273438 43.875 142.273438 43.875 C 142.273438 43.875 141.675781 43.929688 141.511719 44.070312 C 141.363281 44.195312 141.367188 44.488281 141.367188 44.488281 C 141.367188 44.488281 141.449219 44.238281 141.90625 44.175781 C 142.359375 44.113281 142.410156 44.101562 142.410156 44.101562 C 142.410156 44.101562 141.65625 44.304688 141.523438 44.558594 C 141.386719 44.8125 142.304688 44.742188 142.304688 44.742188 C 142.304688 44.742188 140.929688 45.007812 140.734375 44.960938 C 140.539062 44.910156 140.367188 44.652344 140.078125 44.796875 C 139.789062 44.941406 139.523438 45.273438 139.523438 45.273438 C 139.523438 45.273438 139.765625 44.621094 139.984375 44.574219 C 140.203125 44.527344 140.332031 44.492188 140.546875 44.546875 C 140.761719 44.601562 140.964844 44.667969 140.964844 44.667969 Z M 150.613281 43.300781 C 150.613281 43.300781 150.875 42.6875 151.277344 42.589844 C 151.597656 42.511719 152.074219 42.847656 152.074219 42.847656 C 152.074219 42.847656 151.480469 42.757812 151.289062 42.851562 C 151.113281 42.941406 151.046875 43.222656 151.046875 43.222656 C 151.046875 43.222656 151.1875 43.003906 151.644531 43.050781 C 152.101562 43.097656 152.152344 43.101562 152.152344 43.101562 C 152.152344 43.101562 151.371094 43.117188 151.179688 43.328125 C 150.988281 43.542969 151.894531 43.699219 151.894531 43.699219 C 151.894531 43.699219 150.496094 43.625 150.316406 43.53125 C 150.140625 43.433594 150.039062 43.140625 149.722656 43.210938 C 149.40625 43.28125 149.070312 43.542969 149.070312 43.542969 C 149.070312 43.542969 149.460938 42.964844 149.683594 42.972656 C 149.90625 42.984375 150.039062 42.980469 150.238281 43.082031 C 150.433594 43.1875 150.613281 43.300781 150.613281 43.300781 Z M 155.035156 43.800781 C 155.035156 43.800781 155.367188 43.21875 155.777344 43.171875 C 156.101562 43.128906 156.539062 43.523438 156.539062 43.523438 C 156.539062 43.523438 155.957031 43.363281 155.753906 43.433594 C 155.570312 43.5 155.472656 43.773438 155.472656 43.773438 C 155.472656 43.773438 155.636719 43.570312 156.085938 43.671875 C 156.535156 43.773438 156.585938 43.78125 156.585938 43.78125 C 156.585938 43.78125 155.808594 43.707031 155.59375 43.894531 C 155.375 44.085938 156.257812 44.34375 156.257812 44.34375 C 156.257812 44.34375 154.878906 44.109375 154.714844 43.992188 C 154.546875 43.878906 154.480469 43.574219 154.15625 43.609375 C 153.835938 43.640625 153.472656 43.859375 153.472656 43.859375 C 153.472656 43.859375 153.925781 43.332031 154.148438 43.367188 C 154.371094 43.402344 154.5 43.414062 154.683594 43.539062 C 154.867188 43.664062 155.035156 43.800781 155.035156 43.800781 Z M 159.421875 44.582031 C 159.421875 44.582031 159.734375 44.140625 160.066406 44.132812 C 160.332031 44.125 160.652344 44.46875 160.652344 44.46875 C 160.652344 44.46875 160.199219 44.300781 160.03125 44.34375 C 159.878906 44.382812 159.777344 44.59375 159.777344 44.59375 C 159.777344 44.59375 159.925781 44.445312 160.277344 44.558594 C 160.632812 44.671875 160.671875 44.683594 160.671875 44.683594 C 160.671875 44.683594 160.050781 44.566406 159.863281 44.699219 C 159.675781 44.835938 160.367188 45.109375 160.367188 45.109375 C 160.367188 45.109375 159.277344 44.820312 159.152344 44.714844 C 159.027344 44.609375 158.996094 44.363281 158.734375 44.363281 C 158.472656 44.367188 158.164062 44.515625 158.164062 44.515625 C 158.164062 44.515625 158.566406 44.125 158.742188 44.171875 C 158.917969 44.214844 159.023438 44.234375 159.160156 44.347656 C 159.300781 44.464844 159.421875 44.582031 159.421875 44.582031 Z M 159.421875 44.582031 "/>
<path style="fill-rule:nonzero;fill:rgb(5.882353%,39.607843%,27.058824%);fill-opacity:1;stroke-width:0.435;stroke-linecap:butt;stroke-linejoin:round;stroke:rgb(0%,0%,0%);stroke-opacity:1;stroke-miterlimit:4;" d="M 290.640625 81.078125 C 290.851562 82.125 289.617188 83.257812 287.890625 83.601562 C 286.15625 83.945312 284.585938 83.375 284.375 82.328125 C 284.164062 81.28125 285.398438 80.15625 287.132812 79.804688 C 288.859375 79.460938 290.429688 80.03125 290.640625 81.078125 Z M 290.640625 81.078125 " transform="matrix(0.5,0,0,0.5,0,0)"/>
<path style=" stroke:none;fill-rule:nonzero;fill:rgb(80.784314%,81.176471%,75.686275%);fill-opacity:1;" d="M 143.359375 40.453125 C 143.386719 40.578125 143.25 40.714844 143.0625 40.75 C 142.871094 40.789062 142.695312 40.71875 142.671875 40.589844 C 142.644531 40.464844 142.777344 40.328125 142.96875 40.292969 C 143.160156 40.253906 143.335938 40.324219 143.359375 40.453125 Z M 143.359375 40.453125 "/>
<path style="fill-rule:nonzero;fill:rgb(5.882353%,39.607843%,27.058824%);fill-opacity:1;stroke-width:0.435;stroke-linecap:butt;stroke-linejoin:round;stroke:rgb(0%,0%,0%);stroke-opacity:1;stroke-miterlimit:4;" d="M 315.09375 82.34375 C 314.773438 83.367188 313.148438 83.765625 311.460938 83.234375 C 309.78125 82.703125 308.679688 81.453125 309 80.429688 C 309.3125 79.414062 310.9375 79.015625 312.625 79.539062 C 314.304688 80.070312 315.414062 81.328125 315.09375 82.34375 Z M 315.09375 82.34375 " transform="matrix(0.5,0,0,0.5,0,0)"/>
<path style=" stroke:none;fill-rule:nonzero;fill:rgb(80.784314%,81.176471%,75.686275%);fill-opacity:1;" d="M 155.863281 40.152344 C 155.824219 40.277344 155.644531 40.332031 155.460938 40.273438 C 155.273438 40.214844 155.15625 40.066406 155.195312 39.945312 C 155.234375 39.820312 155.414062 39.765625 155.597656 39.824219 C 155.785156 39.882812 155.902344 40.03125 155.863281 40.152344 Z M 155.863281 40.152344 "/>
<path style="fill-rule:nonzero;fill:rgb(12.156863%,17.647059%,52.54902%);fill-opacity:1;stroke-width:0.619;stroke-linecap:butt;stroke-linejoin:round;stroke:rgb(0%,0%,0%);stroke-opacity:1;stroke-miterlimit:4;" d="M 296.632812 78.71875 L 302.96875 78.71875 L 302.96875 81.90625 L 296.632812 81.90625 Z M 296.632812 78.71875 " transform="matrix(0.5,0,0,0.5,0,0)"/>
<path style=" stroke:none;fill-rule:nonzero;fill:rgb(43.921569%,48.627451%,54.509804%);fill-opacity:1;" d="M 149.648438 39.699219 C 149.648438 39.769531 149.515625 39.828125 149.347656 39.828125 C 149.183594 39.828125 149.046875 39.769531 149.046875 39.699219 C 149.046875 39.625 149.183594 39.566406 149.347656 39.566406 C 149.515625 39.566406 149.648438 39.625 149.648438 39.699219 Z M 149.648438 39.699219 "/>
<path style="fill-rule:evenodd;fill:rgb(62.352941%,7.058824%,3.529412%);fill-opacity:1;stroke-width:0.326;stroke-linecap:butt;stroke-linejoin:miter;stroke:rgb(0%,0%,0%);stroke-opacity:1;stroke-miterlimit:4;" d="M 278.71875 81.90625 L 279.765625 85 L 277.828125 86.046875 C 277.828125 86.046875 276.9375 86.671875 276.046875 86.203125 C 275.15625 85.734375 274.632812 84.320312 275.109375 83.742188 C 276.046875 82.59375 278.71875 81.859375 278.71875 81.90625 Z M 278.71875 81.90625 " transform="matrix(0.5,0,0,0.5,0,0)"/>
<path style=" stroke:none;fill-rule:nonzero;fill:rgb(56.078431%,19.607843%,18.431373%);fill-opacity:1;" d="M 138.546875 42.054688 C 138.546875 42.316406 138.347656 42.527344 138.101562 42.527344 C 137.855469 42.527344 137.65625 42.316406 137.65625 42.054688 C 137.65625 41.792969 137.855469 41.582031 138.101562 41.582031 C 138.347656 41.582031 138.546875 41.792969 138.546875 42.054688 Z M 138.546875 42.054688 "/>
<path style=" stroke:none;fill-rule:nonzero;fill:rgb(88.627451%,64.313725%,58.039216%);fill-opacity:1;" d="M 138.125 41.871094 C 138.066406 41.765625 138.082031 41.632812 138.167969 41.550781 C 138.253906 41.464844 138.386719 41.449219 138.488281 41.511719 C 138.589844 41.574219 138.640625 41.699219 138.605469 41.816406 C 138.570312 41.929688 138.460938 42.007812 138.339844 42 L 138.601562 42.261719 L 138.867188 42.261719 C 138.910156 42.214844 138.976562 42.203125 139.035156 42.234375 C 139.09375 42.269531 139.136719 42.339844 139.152344 42.425781 Z M 138.125 41.871094 "/>
<path style="fill-rule:evenodd;fill:rgb(62.352941%,7.058824%,3.529412%);fill-opacity:1;stroke-width:0.326;stroke-linecap:butt;stroke-linejoin:miter;stroke:rgb(0%,0%,0%);stroke-opacity:1;stroke-miterlimit:4;" d="M 321.171875 82.3125 L 320.132812 85.0625 L 322.59375 86.359375 C 322.59375 86.359375 323.6875 86.84375 324.375 86.242188 C 324.960938 85.71875 325.09375 84.523438 324.625 83.921875 C 324.179688 83.351562 321.132812 82.296875 321.171875 82.3125 Z M 321.171875 82.3125 " transform="matrix(0.5,0,0,0.5,0,0)"/>
<path style=" stroke:none;fill-rule:nonzero;fill:rgb(66.666667%,40.392157%,36.470588%);fill-opacity:1;" d="M 162.066406 42.257812 C 162.066406 42.429688 161.886719 42.566406 161.671875 42.566406 C 161.453125 42.566406 161.277344 42.429688 161.277344 42.257812 C 161.277344 42.089844 161.453125 41.953125 161.671875 41.953125 C 161.886719 41.953125 162.066406 42.089844 162.066406 42.257812 Z M 162.066406 42.257812 "/>
<path style=" stroke:none;fill-rule:nonzero;fill:rgb(88.627451%,64.313725%,58.039216%);fill-opacity:1;" d="M 161.683594 42.214844 C 161.648438 42.113281 161.683594 42 161.769531 41.9375 C 161.855469 41.871094 161.976562 41.875 162.058594 41.941406 C 162.144531 42.007812 162.171875 42.125 162.132812 42.222656 C 162.089844 42.320312 161.988281 42.382812 161.882812 42.367188 L 162.121094 42.609375 L 162.363281 42.609375 C 162.152344 42.65625 162.066406 42.746094 162.148438 42.828125 C 162.230469 42.910156 162.460938 42.964844 162.71875 42.964844 C 162.976562 42.964844 163.203125 42.910156 163.277344 42.828125 C 163.351562 42.746094 163.257812 42.65625 163.046875 42.609375 Z M 161.683594 42.214844 "/>
<path style=" stroke:none;fill-rule:nonzero;fill:rgb(96.078431%,84.705882%,73.72549%);fill-opacity:1;" d="M 152.671875 39.492188 C 152.671875 39.609375 152.570312 39.707031 152.445312 39.707031 C 141.480469 39.765625 132.546875 30.925781 132.488281 19.960938 C 132.429688 8.996094 141.269531 0.0585938 152.234375 0 C 152.234375 -0.117188 152.335938 -0.214844 152.457031 -0.214844 C 152.578125 -0.214844 152.679688 -0.117188 152.679688 0 Z M 154.019531 39.570312 C 154.019531 39.6875 153.917969 39.785156 153.796875 39.785156 C 142.808594 39.84375 133.855469 30.984375 133.796875 20 C 133.738281 9.011719 142.597656 0.0585938 153.582031 0 C 153.582031 -0.117188 153.683594 -0.214844 153.804688 -0.214844 C 153.929688 -0.214844 154.027344 -0.117188 154.027344 0 Z M 153.332031 40.09375 C 153.332031 40.242188 153.207031 40.363281 153.054688 40.363281 C 152.898438 40.363281 152.773438 40.242188 152.773438 40.09375 C 152.773438 39.945312 152.898438 39.824219 153.054688 39.824219 C 153.207031 39.824219 153.332031 39.945312 153.332031 40.09375 Z M 153.984375 40.976562 C 153.984375 41.09375 153.886719 41.1875 153.761719 41.1875 C 142.386719 41.246094 133.121094 32.074219 133.0625 20.699219 C 133.003906 9.328125 142.175781 0.0585938 153.550781 0 C 153.550781 -0.117188 153.648438 -0.214844 153.773438 -0.214844 C 153.894531 -0.214844 153.996094 -0.117188 153.996094 0 Z M 152.683594 40.808594 C 152.683594 40.925781 152.585938 41.019531 152.460938 41.019531 C 141.132812 41.078125 131.902344 31.945312 131.84375 20.617188 C 131.785156 9.289062 140.921875 0.0585938 152.246094 0 C 152.246094 -0.117188 152.347656 -0.214844 152.472656 -0.214844 C 152.59375 -0.214844 152.695312 -0.117188 152.695312 0 Z M 146.15625 39.722656 C 146.160156 39.609375 146.25 39.515625 146.363281 39.511719 C 146.476562 39.503906 146.578125 39.589844 146.589844 39.703125 C 146.605469 39.816406 146.527344 39.921875 146.414062 39.941406 L 146.632812 40.160156 L 146.632812 40.925781 Z M 147.488281 39.496094 C 147.488281 39.378906 147.578125 39.289062 147.695312 39.28125 C 147.808594 39.277344 147.910156 39.359375 147.921875 39.472656 C 147.933594 39.585938 147.859375 39.691406 147.746094 39.714844 L 147.964844 39.929688 L 147.964844 40.695312 Z M 146.949219 40.160156 C 146.949219 40.015625 147.0625 39.898438 147.207031 39.890625 C 147.351562 39.882812 147.476562 39.988281 147.492188 40.132812 C 147.511719 40.277344 147.414062 40.40625 147.273438 40.433594 L 147.546875 40.707031 C 147.695312 40.671875 147.84375 40.761719 147.878906 40.90625 Z M 147.773438 40.871094 C 147.773438 40.753906 147.863281 40.660156 147.980469 40.65625 C 148.09375 40.652344 148.195312 40.734375 148.207031 40.847656 C 148.21875 40.964844 148.144531 41.066406 148.03125 41.089844 L 148.246094 41.304688 L 148.246094 42.070312 Z M 146.46875 41 C 146.46875 40.886719 146.558594 40.792969 146.675781 40.785156 C 146.789062 40.78125 146.886719 40.863281 146.902344 40.980469 C 146.914062 41.09375 146.835938 41.199219 146.722656 41.21875 C 146.699219 41.105469 146.773438 40.988281 146.894531 40.960938 C 147.011719 40.933594 147.132812 41.003906 147.160156 41.117188 Z M 140.476562 40.949219 C 140.480469 40.839844 140.570312 40.75 140.679688 40.742188 C 140.789062 40.734375 140.890625 40.8125 140.910156 40.921875 C 140.929688 41.03125 140.863281 41.136719 140.757812 41.167969 L 140.972656 41.386719 C 141.089844 41.34375 141.21875 41.394531 141.257812 41.503906 Z M 141.761719 40.535156 C 141.765625 40.425781 141.855469 40.335938 141.964844 40.328125 C 142.074219 40.320312 142.175781 40.394531 142.195312 40.507812 C 142.214844 40.617188 142.148438 40.722656 142.039062 40.753906 L 142.257812 40.972656 C 142.375 40.925781 142.5 40.980469 142.542969 41.089844 Z M 141.320312 41.269531 C 141.324219 41.128906 141.433594 41.015625 141.574219 41.007812 C 141.714844 40.996094 141.835938 41.09375 141.863281 41.230469 C 141.886719 41.371094 141.804688 41.503906 141.671875 41.542969 L 141.945312 41.816406 C 142.089844 41.761719 142.25 41.828125 142.300781 41.964844 Z M 142.238281 41.855469 C 142.242188 41.742188 142.332031 41.652344 142.441406 41.644531 C 142.554688 41.640625 142.652344 41.714844 142.671875 41.824219 C 142.691406 41.933594 142.625 42.042969 142.519531 42.074219 L 142.738281 42.289062 C 142.851562 42.246094 142.980469 42.300781 143.023438 42.410156 Z M 140.964844 42.171875 C 141.007812 42.277344 140.949219 42.40625 140.835938 42.449219 C 140.71875 42.492188 140.59375 42.441406 140.550781 42.332031 C 140.539062 69.421875 118.570312 91.371094 91.480469 91.363281 C 64.390625 91.351562 42.4375 69.378906 42.449219 42.289062 C 42.5625 42.246094 42.691406 42.300781 42.734375 42.410156 Z M 158.523438 40.332031 C 158.527344 40.230469 158.597656 40.144531 158.691406 40.117188 C 158.789062 40.089844 158.890625 40.125 158.949219 40.207031 C 159.007812 40.289062 159.007812 40.398438 158.949219 40.480469 C 158.890625 40.5625 158.785156 40.597656 158.6875 40.566406 L 158.925781 40.800781 L 158.925781 41.480469 Z M 159.914062 40.757812 C 159.917969 40.660156 159.988281 40.570312 160.082031 40.542969 C 160.179688 40.515625 160.285156 40.550781 160.339844 40.632812 C 160.398438 40.714844 160.398438 40.828125 160.339844 40.90625 C 160.28125 40.988281 160.175781 41.023438 160.078125 40.992188 L 160.316406 41.230469 L 160.316406 41.90625 Z M 159.066406 41.132812 C 159.070312 41.007812 159.15625 40.898438 159.277344 40.863281 C 159.398438 40.828125 159.527344 40.871094 159.601562 40.976562 C 159.675781 41.078125 159.671875 41.214844 159.597656 41.316406 C 159.527344 41.421875 159.394531 41.464844 159.273438 41.425781 L 159.570312 41.722656 L 159.570312 42.445312 Z M 159.519531 42.21875 C 159.527344 42.117188 159.59375 42.03125 159.691406 42.003906 C 159.785156 41.976562 159.890625 42.011719 159.949219 42.09375 C 160.003906 42.175781 160.003906 42.285156 159.945312 42.367188 C 159.886719 42.449219 159.78125 42.484375 159.6875 42.453125 L 159.921875 42.6875 L 159.921875 43.367188 Z M 158.203125 41.710938 C 158.207031 41.609375 158.273438 41.523438 158.371094 41.496094 C 158.46875 41.464844 158.570312 41.503906 158.628906 41.585938 C 158.6875 41.667969 158.6875 41.777344 158.625 41.859375 C 158.566406 41.941406 158.464844 41.976562 158.367188 41.945312 L 158.601562 42.179688 L 158.601562 42.859375 Z M 158.203125 41.710938 "/>
<path style="fill:none;stroke-width:0.75;stroke-linecap:butt;stroke-linejoin:miter;stroke:rgb(0%,0%,0%);stroke-opacity:1;stroke-miterlimit:4;" d="M 322.476562 55.578125 C 322.476562 55.578125 321.195312 56.78125 319.679688 56.78125 C 318.15625 56.78125 317.273438 56.140625 316.789062 55.820312 C 316.3125 55.5 316.953125 54.539062 316.953125 54.539062 " transform="matrix(0.5,0,0,0.5,0,0)"/>
<path style="fill:none;stroke-width:0.685;stroke-linecap:butt;stroke-linejoin:miter;stroke:rgb(0%,0%,0%);stroke-opacity:1;stroke-miterlimit:4;" d="M 295.5625 57.984375 C 295.5625 57.984375 293.234375 57.585938 292.273438 57.265625 C 291.3125 56.945312 291.554688 56.304688 290.429688 56.382812 C 289.3125 56.460938 288.1875 57.265625 288.429688 58.390625 C 288.671875 59.507812 289.46875 59.671875 290.273438 59.429688 C 291.070312 59.1875 290.828125 57.828125 289.789062 57.90625 C 288.75 57.984375 289.632812 58.867188 289.632812 58.867188 " transform="matrix(0.5,0,0,0.5,0,0)"/>
<path style="fill:none;stroke-width:0.652;stroke-linecap:butt;stroke-linejoin:miter;stroke:rgb(0%,0%,0%);stroke-opacity:1;stroke-miterlimit:4;" d="M 279.53125 56.226562 C 279.53125 56.226562 280.171875 57.1875 281.851562 57.023438 C 283.539062 56.867188 284.179688 55.984375 284.257812 55.578125 C 284.335938 55.179688 284.257812 54.460938 283.9375 54.140625 C 283.617188 53.820312 282.492188 53.65625 282.492188 53.65625 " transform="matrix(0.5,0,0,0.5,0,0)"/>
<path style="fill-rule:nonzero;fill:rgb(80%,0%,0%);fill-opacity:1;stroke-width:1.005513;stroke-linecap:round;stroke-linejoin:round;stroke:rgb(8.627451%,6.666667%,6.666667%);stroke-opacity:1;stroke-miterlimit:4;" d="M 312.195312 169.171875 C 313.757812 167.632812 316.039062 166.960938 317.59375 162.9375 C 318.90625 159.46875 319.898438 153.992188 320.789062 150.695312 C 321.117188 149.53125 321.554688 147.28125 321.953125 145.632812 C 322.296875 144.1875 322.914062 142.695312 323.09375 142.09375 C 323.429688 140.9375 323.546875 139.585938 323.695312 138.640625 C 324.023438 136.585938 324.304688 135.15625 322.757812 135.3125 C 321.132812 135.46875 320.664062 135.710938 319.992188 136.6875 C 319.382812 137.585938 318.585938 138.882812 318.125 140.335938 C 317.484375 142.4375 317.023438 144.328125 316.460938 145.796875 C 315.796875 147.5 315.679688 147.265625 314.71875 149.289062 C 313.398438 147.523438 313.304688 146.109375 312.976562 143.664062 C 312.648438 141.226562 312.382812 138.632812 312.289062 135.84375 C 312.117188 130.601562 311.8125 125.101562 311.75 123.070312 C 311.578125 120.375 311.765625 116.507812 311.132812 114.515625 C 310.835938 113.59375 310.195312 112.3125 308.953125 112.351562 C 307.523438 112.367188 306.601562 113.492188 306.414062 114.664062 C 306.273438 115.59375 306.203125 117.367188 306.148438 118.570312 C 273.40625 117.203125 247.96875 89.546875 249.34375 56.804688 C 250.710938 24.0625 278.359375 -1.367188 311.101562 0 C 311.171875 1.882812 311.117188 7.671875 311.078125 9.546875 C 311.007812 13.023438 310.578125 13.210938 309.929688 13.171875 C 309.4375 12.75 309.6875 6.078125 309.492188 0.3125 C 595.257812 14.765625 815.5 257.640625 802.015625 543.453125 C 788.539062 829.273438 546.414062 1050.335938 260.554688 1037.835938 C -25.304688 1025.328125 -247.195312 783.96875 -235.664062 498.0625 C -224.140625 212.164062 16.46875 -10.554688 302.40625 0 C 302.375 -1.625 302.375 -3.570312 302.203125 -4.828125 C 301.898438 -6.984375 301.265625 -8.367188 299.703125 -8.367188 C 298.65625 -8.367188 297.78125 -8.335938 297.296875 -5.9375 C 297.039062 -4.648438 296.929688 -1.5 296.96875 0.226562 C 297.007812 2.148438 297.015625 3.289062 297.0625 5.9375 C 297.15625 10.78125 297.578125 19.570312 296.421875 19.796875 C 295.40625 19.578125 295.5625 17.671875 295.382812 13.078125 C 295.3125 11.265625 295.15625 8.164062 295.0625 6.070312 C 294.945312 3.570312 294.804688 -0.0703125 294.742188 -1.734375 C 294.578125 -3.273438 294.421875 -5.34375 292.484375 -5.164062 C 291.46875 -5.289062 290.726562 -4.515625 290.289062 -1.773438 C 290.046875 -0.242188 290.210938 5.84375 290.304688 7.867188 C 290.484375 11.90625 290.429688 12.890625 290.453125 15.429688 C 290.476562 17.890625 290.710938 21.242188 289.796875 21.304688 C 288.6875 21.289062 289.007812 19.507812 288.828125 16.6875 C 288.648438 13.921875 288.53125 10.382812 288.554688 11.195312 C 288.554688 9.773438 288.382812 7.679688 288.25 5.929688 C 288.15625 4.5625 288.21875 3.046875 286.734375 3.171875 C 285.226562 3.296875 284.304688 3.804688 283.992188 6.382812 C 283.789062 8.046875 283.734375 11.65625 283.6875 12.96875 C 283.851562 16.296875 283.039062 23.0625 282.640625 25.265625 C 282.523438 26.828125 281.835938 29.851562 281.570312 32.03125 C 281.007812 36.726562 280.789062 39.96875 281.40625 42.78125 C 281.898438 45.234375 282.242188 47.148438 283.195312 49.117188 C 284.070312 50.945312 285.71875 52.695312 286.085938 54.195312 C 286.789062 57.125 286.460938 62.78125 286.460938 65.164062 C 286.460938 67.539062 288.523438 67.664062 292.796875 66.742188 C 299.789062 65.242188 303.609375 68.25 309.382812 66.03125 C 308.648438 59.453125 310.070312 55.5 310.03125 53.125 Z M 312.195312 169.171875 " transform="matrix(0.5,0,0,0.5,0,0)"/>
<path style="fill:none;stroke-width:1.006572;stroke-linecap:butt;stroke-linejoin:miter;stroke:rgb(8.627451%,6.666667%,6.666667%);stroke-opacity:1;stroke-miterlimit:4;" d="M 302.648438 162.8125 C 302.804688 154.6875 310.179688 145.828125 313.007812 144.085938 M 292.148438 149.46875 C 294.328125 148.609375 296.585938 147.992188 298.796875 147.234375 C 301.507812 146.46875 304.125 145.375 306.921875 144.945312 C 308.265625 144.671875 311.484375 143.8125 312.859375 143.71875 " transform="matrix(0.5,0,0,0.5,0,0)"/>
<path style="fill:none;stroke-width:1.006572;stroke-linecap:round;stroke-linejoin:round;stroke:rgb(8.627451%,6.666667%,6.666667%);stroke-opacity:1;stroke-miterlimit:4;" d="M 287.945312 170.570312 C 288.179688 170.984375 288.726562 171.007812 289.5 171.070312 C 290.34375 171.078125 290.476562 171.109375 291.015625 171.101562 C 291.960938 171.09375 292.578125 171.085938 293.523438 171.109375 C 294.242188 171.085938 296.6875 170.617188 298.507812 170.46875 C 299.53125 170.382812 300.34375 170.625 300.867188 170.664062 " transform="matrix(0.5,0,0,0.5,0,0)"/>
<path style="fill:none;stroke-width:1.006572;stroke-linecap:round;stroke-linejoin:round;stroke:rgb(8.627451%,6.666667%,6.666667%);stroke-opacity:1;stroke-miterlimit:4;" d="M 299.601562 170.46875 C 299.757812 170.59375 301.140625 170.585938 302.148438 170.898438 C 303.046875 171.179688 303.671875 171.234375 303.84375 171.304688 C 304.46875 171.367188 304.054688 171.703125 307.554688 171.421875 C 309.726562 171.554688 311.648438 169.679688 312.195312 169.171875 " transform="matrix(0.5,0,0,0.5,0,0)"/>
</g>
</svg>
