<?xml version="1.0" encoding="UTF-8"?>
<svg xmlns="http://www.w3.org/2000/svg" xmlns:xlink="http://www.w3.org/1999/xlink" width="px" height="px" viewBox="0 0 415 249" version="1.1">
<g id="surface1">
<rect x="0" y="0" width="415" height="249" style="fill:rgb(0%,67.058824%,22.352941%);fill-opacity:1;stroke:none;"/>
<path style=" stroke:none;fill-rule:nonzero;fill:rgb(100%,100%,100%);fill-opacity:1;" d="M 0 0 L 415 0 L 415 124.5 L 0 124.5 Z M 0 0 "/>
<path style="fill-rule:nonzero;fill:rgb(82.352941%,6.27451%,20.392157%);fill-opacity:1;stroke-width:1.8;stroke-linecap:butt;stroke-linejoin:miter;stroke:rgb(0%,0%,0%);stroke-opacity:1;stroke-miterlimit:4;" d="M 543.28125 29.53125 C 543.273438 29.554688 543.265625 29.578125 543.25 29.59375 C 543.28125 29.578125 543.3125 29.554688 543.34375 29.53125 Z M 543.25 29.59375 C 491.007812 58.484375 444.25 88.539062 398.28125 126.84375 C 376.21875 146.117188 382.445312 161.476562 381.59375 178.78125 C 382.304688 190.398438 379.085938 201.210938 371.9375 207.71875 C 355.585938 211.023438 339.226562 214.351562 322.875 217.65625 C 321.3125 213.132812 319.757812 208.617188 318.1875 204.09375 C 319.6875 197.15625 325.421875 193.742188 337.5 198.09375 C 338.453125 189.171875 331.273438 185.539062 322.875 182.4375 C 319.992188 180.195312 316.40625 178.46875 316.875 170.75 C 315.460938 153.28125 343.492188 172 343.75 172 C 344.015625 172 342.820312 154.375 329.9375 150.84375 C 322.914062 148.359375 319.945312 140.953125 322.625 135.46875 C 328.242188 124.257812 338.820312 136.351562 346.90625 136.78125 C 346.601562 129.46875 344.523438 124.25 338.21875 118.34375 C 334.828125 116.257812 326.5 114.6875 326.28125 111.1875 C 326.109375 106.4375 334.09375 104.40625 345.0625 105.71875 C 342.773438 99.0625 335.398438 94.75 325.25 91.625 L 319.25 81.1875 C 316.40625 75.929688 315.132812 75.789062 321.71875 65.8125 C 327.632812 61.984375 335.492188 56.578125 341.40625 52.75 L 334.875 51.96875 C 335.742188 44.835938 335.84375 42.4375 337.5 30.59375 C 331.15625 39.265625 323.226562 37.71875 316.09375 41.28125 C 316.09375 41.28125 295.765625 44.890625 289.21875 53.53125 C 288.960938 53.53125 238.09375 50.9375 238.09375 50.9375 C 227.257812 52.445312 217.992188 55.523438 216.1875 66.0625 C 191.398438 68.5625 165.4375 66.351562 146.53125 90.0625 C 159.398438 89.453125 170.671875 86.390625 185.125 88.25 C 185.125 88.25 197.445312 88.484375 200 101.53125 C 200.265625 102.054688 204.1875 102.0625 204.1875 102.0625 C 205.757812 103.28125 207.3125 104.5 208.875 105.71875 C 209.484375 104.070312 210.078125 102.40625 210.6875 100.75 L 214.875 103.625 C 215.3125 101.796875 215.757812 99.984375 216.1875 98.15625 C 217.578125 99.117188 218.953125 100.078125 220.34375 101.03125 C 220.429688 98.859375 220.539062 96.671875 220.625 94.5 L 226.09375 98.40625 L 226.09375 89.8125 C 226.09375 89.8125 246.289062 89.765625 252.4375 102.59375 C 252.703125 102.859375 195.773438 113.054688 140.78125 108.34375 C 146.085938 105.734375 151.382812 103.109375 156.6875 100.5 C 136.640625 96.421875 117.789062 92.742188 100.09375 78.84375 C 106.773438 103.984375 141.273438 133.507812 148.34375 133.375 C 148.34375 133.640625 141.5625 121.125 141.5625 121.125 C 161.476562 121.992188 181.398438 122.851562 201.3125 123.71875 C 203.492188 130.328125 202.523438 137.742188 207.84375 143.5625 C 207.84375 143.5625 204.546875 154.492188 211.875 158.9375 C 212.140625 159.460938 220.625 136.78125 220.625 136.78125 C 220.625 136.78125 223.226562 142.882812 225.84375 146.9375 C 229.640625 127.429688 250.875 124.25 250.875 124.25 C 250.875 124.25 255.3125 134.429688 255.3125 134.6875 C 248.679688 135.648438 240.421875 149.171875 244.875 156.59375 C 240.429688 156.679688 232.523438 169.78125 234.96875 176.9375 C 231.226562 180.664062 221.914062 185.625 224.28125 201.21875 C 216.945312 202.789062 212.609375 216.210938 214.875 230.4375 C 203.523438 241 206.3125 260.398438 216.4375 268.25 C 212.234375 271.992188 209.648438 274.867188 209.65625 279.46875 C 205.664062 277.984375 201.976562 279.226562 200.25 281.84375 C 195.351562 276.820312 188.320312 272.429688 183.3125 277.125 C 182.015625 271.1875 174.28125 264.648438 165.8125 265.40625 C 166.3125 259.140625 163.0625 251.390625 154.09375 248.6875 C 154.09375 248.6875 152.28125 219.328125 143.375 209.8125 C 142.5 204.484375 143.882812 200.867188 151.21875 196.5 C 158.546875 192.59375 160.101562 189.5625 159.5625 178.5 C 162.453125 171.101562 164.640625 163.5625 155.65625 158.4375 C 155.929688 167.234375 153.226562 171.46875 149.65625 175.375 C 145.390625 174.757812 143.898438 179.734375 141.03125 181.90625 C 137.015625 176.492188 149.507812 168.109375 140.25 156.0625 C 139.726562 155.539062 133.789062 140.34375 119.125 140.6875 C 126.09375 144.773438 129.046875 151.640625 129.03125 158.6875 C 124.40625 171.734375 122.0625 181.8125 126.6875 196.78125 C 120.59375 187.65625 117.140625 170.296875 112.09375 167.28125 C 107.671875 166.421875 105.515625 155.960938 88.34375 158.9375 C 95.75 160.929688 98.101562 166.585938 100.09375 171.71875 C 95.554688 174.0625 97.8125 180.242188 101.125 184.5 C 100.492188 194.515625 106.492188 200.367188 115.46875 204.09375 C 113.992188 217.75 112.507812 231.375 111.03125 245.03125 C 107.46875 244.578125 101.984375 258.453125 99.8125 258.875 C 96.328125 261.046875 90.234375 266.882812 97.21875 268.53125 C 95.140625 276.023438 93.21875 280.539062 82.0625 282.09375 C 82.0625 282.09375 93.851562 289.085938 103.625 277.125 C 114.101562 276.867188 110.65625 264.375 115.71875 258.875 C 115.71875 258.617188 118.59375 256.8125 122.78125 245.8125 C 124.617188 255.632812 134.6875 285.703125 157.46875 300.625 C 177.328125 321.882812 193.648438 341.953125 193.46875 370.28125 C 201.21875 363.070312 205.851562 351.65625 209.40625 340.78125 C 220.1875 337.03125 235.601562 335.601562 249.34375 336.21875 C 246.984375 341.179688 244.351562 345.9375 247.75 349.15625 C 238.15625 352.453125 236.054688 359.414062 239.90625 366.375 C 229.796875 373.242188 229.132812 377.65625 228.96875 389.0625 C 210.265625 413.046875 198.71875 412.25 180.1875 406.03125 C 174.101562 402.460938 164.6875 397.320312 160.34375 400.03125 C 152.34375 394.695312 140.835938 393.90625 138.9375 406.03125 C 144.945312 401.054688 148.53125 402.015625 153.3125 406.8125 C 152.351562 409.25 151.546875 411.679688 155.125 413.0625 C 153.5625 414.804688 152.007812 416.546875 150.4375 418.28125 C 141.828125 416.960938 130.242188 417.03125 127.21875 429.5 C 131.640625 425.835938 141.460938 424.976562 149.375 428.46875 C 150.851562 428.992188 152.335938 429.507812 153.8125 430.03125 C 153.984375 432.03125 154.171875 434.03125 154.34375 436.03125 C 154.34375 436.03125 142.609375 434.21875 139.46875 453.25 C 150.46875 441.546875 158.25 444.625 158.25 444.625 C 162.492188 450.828125 178.09375 449.898438 189.3125 439.6875 C 205.078125 430.875 209.671875 443.539062 219.84375 435.25 C 228.28125 428.960938 238.265625 433.140625 245.125 440.46875 C 253.039062 443.4375 261.328125 445.882812 267.84375 440.46875 C 267.84375 440.46875 275.804688 435.390625 283.75 443.59375 C 283.835938 434.34375 277.28125 429.429688 268.375 429.25 L 265.75 426.625 C 257.398438 424.882812 248.023438 425.59375 240.71875 421.40625 C 244.164062 408.34375 249.179688 396.507812 258.96875 386.4375 C 271.054688 373.484375 279.953125 367.585938 295.21875 347.75 C 294.632812 358.960938 303.226562 371.429688 307.75 382.8125 C 307.75 382.8125 316.867188 368.257812 318.1875 356.4375 C 318.445312 356.4375 329.609375 350.632812 334.375 345.6875 C 344.429688 351.929688 360.820312 340.695312 371.40625 331.40625 C 377.929688 333.875 382.882812 333.703125 390.46875 331.40625 C 384.382812 343.796875 393.992188 355.289062 409.25 360.09375 C 410.664062 371.03125 421.710938 373.320312 438.46875 373.40625 C 439.179688 379.84375 449.15625 380.71875 449.15625 380.71875 C 442.851562 383.65625 439.5625 386.609375 439.78125 393.25 C 433.320312 393.296875 428.421875 394.921875 426.71875 402.375 C 417.84375 402.53125 408.796875 403.210938 401.15625 407.59375 C 392.984375 406.328125 383.039062 402.9375 376.625 396.375 C 373.320312 393.59375 372.492188 389.578125 366.71875 388.03125 C 363.0625 383.703125 358.679688 384.671875 357.3125 388.8125 C 353.53125 385.859375 339.34375 384.484375 336.96875 397.9375 C 343.59375 393.09375 349.53125 391.242188 353.6875 397.15625 C 351.421875 401.265625 359.203125 403.609375 365.9375 405.25 C 370.71875 405.546875 379.1875 409.898438 381.84375 417.25 C 375.6875 419.117188 366.351562 418.507812 360.1875 413.84375 C 354.710938 409.265625 347.320312 409.8125 343.25 412.8125 C 337.609375 409.21875 324.179688 416.007812 323.65625 426.875 C 329.3125 421.695312 334.46875 419.1875 339.59375 422.46875 C 337.039062 423.078125 338.015625 423.328125 338.28125 424.8125 L 351.3125 432.375 C 344.921875 434.0625 338.90625 436.617188 341.6875 448.53125 C 341.6875 448.53125 346.898438 438.234375 358.625 442.03125 C 358.890625 441.773438 360.242188 445.710938 363.59375 443.0625 C 368.671875 437.289062 380.273438 434.703125 390.46875 433.6875 C 398.648438 432.710938 406.820312 430.304688 413.9375 434.96875 C 420.28125 431.710938 427.34375 429.515625 434.5625 434.71875 C 443.085938 437.414062 449.3125 447.351562 460.125 442.8125 C 465.507812 439.09375 472.117188 438.898438 478.90625 446.46875 C 478.992188 436.929688 471.835938 433.726562 461.6875 431.59375 C 459.34375 430.203125 457.007812 428.796875 454.65625 427.40625 C 448.132812 426.453125 441.585938 427.609375 435.0625 424.53125 C 469.195312 415.710938 493.125 396.671875 509.96875 369.5 C 515.359375 371.414062 520.734375 373.304688 526.125 375.21875 C 529.953125 375.46875 530.242188 376.796875 538.125 379.15625 C 538.421875 367.546875 533.4375 355.578125 512.5625 354.375 L 485.15625 343.9375 C 479.34375 337.804688 476.710938 324.789062 484.125 317.0625 C 491.382812 310.601562 492.648438 311.375 497.4375 303.5 C 503.257812 302.96875 508.75 308.96875 514.125 308.96875 C 516.679688 316.554688 531.398438 323.265625 540.75 320.96875 C 546.609375 326.15625 557.757812 329.039062 569.96875 324.875 C 576.898438 330.945312 585.929688 333.476562 596.5625 328.78125 C 599.390625 331.609375 605.34375 333.851562 612.21875 332.4375 C 612.742188 332.4375 615.695312 339.976562 623.1875 342.625 C 619.921875 345.804688 621.929688 359.59375 625.28125 364.53125 C 622.992188 369.835938 622.273438 375.492188 624.21875 380.96875 C 616.664062 385.828125 615.125 389.445312 618.5 397.65625 C 608.601562 413.5625 596.757812 415.382812 585.625 410.46875 C 581.625 407.945312 577.625 405.398438 573.625 402.875 C 569.367188 398.703125 565.109375 394.554688 560.84375 390.375 C 558.671875 388.335938 554.1875 387.695312 553.25 392.1875 C 553.25 392.1875 536.851562 388.53125 535.53125 402.375 C 542.328125 395.757812 551.96875 401.585938 551.96875 401.84375 C 551.96875 402.109375 549.671875 403.671875 551.4375 406.3125 C 551.835938 405.984375 563.414062 410.632812 573.71875 415.0625 C 579.320312 417.1875 580.554688 417.851562 583 419.15625 C 511.257812 289.015625 509.71875 131.523438 578.90625 0 C 572.632812 -2.382812 566.515625 -4.28125 564.71875 -3.8125 C 558.882812 -4.359375 552.6875 -5.085938 549.84375 -0.6875 C 543.570312 1.96875 533.757812 4.09375 534.1875 15.75 C 538.429688 8.8125 544.242188 9.101562 551.65625 9.75 C 551.484375 10.273438 551.328125 10.789062 551.15625 11.3125 C 559.203125 14.976562 557.679688 10.3125 565.1875 9.625 C 571.46875 9.046875 580.359375 11.296875 585.0625 12.875 C 579.148438 14.617188 571.109375 13.882812 567.3125 18.09375 C 566.617188 19.484375 564.179688 18.914062 565.25 22.25 C 565.25 22.25 553.71875 21.953125 550.625 37.90625 C 562.351562 30.398438 571.242188 30.625 571.5 30.625 C 571.765625 30.625 575.15625 31.40625 575.15625 31.40625 C 575.15625 31.40625 589.242188 22 589.5 22 C 589.765625 22 603.140625 16.078125 609.3125 22.78125 C 614.703125 25.429688 620.46875 25.601562 626.03125 22.25 C 637 17.476562 647.265625 17.148438 657.34375 23.84375 L 666.46875 29.3125 C 667.773438 28.445312 669.070312 27.554688 670.375 26.6875 C 670.375 26.6875 680.703125 23.773438 688.28125 32.96875 C 685.148438 17.054688 673.78125 16.53125 673.78125 16.53125 C 672.914062 15.75 672.023438 14.96875 671.15625 14.1875 C 665.765625 12.101562 660.390625 9.992188 655 7.90625 C 652.648438 2.078125 646.734375 -2.5625 652.625 -9.5625 C 658.648438 -39.492188 665.84375 -61.960938 654.1875 -92.28125 C 665.0625 -87.585938 673.195312 -73.0625 686.8125 -78.1875 C 686.8125 -90.367188 641.992188 -113.484375 607.75 -132.0625 C 663.84375 -134.929688 731.257812 -176.34375 705.34375 -228.96875 C 709.429688 -241.664062 713.507812 -254.367188 717.59375 -267.0625 C 723.367188 -255.4375 735.046875 -246.578125 745.53125 -242.8125 C 736.890625 -259.3125 731.929688 -309.742188 736.90625 -344.5625 C 714.304688 -316.640625 689.34375 -291.859375 662.8125 -266.6875 C 675.859375 -263.640625 687.265625 -265.78125 699.875 -267.34375 C 696.3125 -260.039062 692.84375 -252.710938 689.28125 -245.40625 C 654.8125 -265.59375 614.335938 -250.445312 614.03125 -223.5 C 615.210938 -192.078125 654.0625 -187.617188 676.46875 -198.5625 C 672.023438 -169.914062 606.1875 -180.46875 606.1875 -180.46875 C 582.796875 -188.53125 560.578125 -187.148438 536 -186.96875 C 541.109375 -202.679688 569.460938 -216.617188 591.0625 -210.46875 C 560.820312 -244.382812 595.335938 -286.476562 636.96875 -299.4375 C 591.59375 -314.40625 630.664062 -348.992188 664.625 -373.78125 C 664.625 -373.78125 566.960938 -332.679688 558.0625 -332.8125 C 530.28125 -334.898438 537.859375 -367.78125 548.4375 -385.46875 Z M 236.71875 69.0625 C 238.992188 69.078125 241.664062 69.296875 243.78125 69.8125 C 248.1875 70.890625 253.546875 71.5 253.46875 72.8125 C 251.429688 76.226562 246.421875 80.34375 241.5 80.09375 C 236.578125 79.84375 233.734375 76.898438 232.09375 69.5 C 232.601562 69.226562 234.445312 69.054688 236.71875 69.0625 Z M 647.8125 184.9375 C 654.21875 184.851562 661.890625 187.5625 669.375 195.5 C 665.773438 205.867188 634.53125 211.195312 632.4375 195.84375 C 631.804688 191.203125 638.453125 185.0625 647.8125 184.9375 Z M 647.8125 184.9375 " transform="matrix(0.5,0,0,0.5,0,0)"/>
<path style="fill:none;stroke-width:1.8;stroke-linecap:butt;stroke-linejoin:round;stroke:rgb(0%,0%,0%);stroke-opacity:1;stroke-miterlimit:4;" d="M 268.976562 159.710938 L 273.71875 166.601562 M 273.5 166.820312 C 273.5 166.820312 273.5 176.078125 275.4375 176.296875 M 271.132812 181.242188 C 271.351562 181.460938 276.085938 189.429688 276.085938 189.429688 M 262.515625 191.585938 C 262.734375 191.585938 268.546875 198.257812 268.546875 198.257812 M 273.601562 193.078125 C 273.601562 193.296875 279.101562 203.648438 279.53125 203.648438 M 266.398438 200.195312 C 266.398438 200.195312 268.335938 212.6875 270.054688 212.257812 M 258.257812 223.085938 L 263.8125 231.429688 M 268.546875 214.195312 C 268.546875 214.195312 271.5625 226.039062 273.929688 224.960938 M 276.296875 207.085938 C 276.515625 207.296875 281.898438 215.0625 283.40625 213.984375 M 282.117188 216.992188 L 287.28125 227.335938 M 273.5 224.960938 C 273.71875 225.398438 277.8125 237.242188 277.8125 237.242188 M 263.59375 231.210938 C 263.59375 231.210938 267.46875 244.351562 270.921875 242.195312 M 262.085938 248.65625 C 262.085938 248.65625 262.304688 255.546875 265.75 255.976562 M 268.117188 245.210938 C 268.117188 245.421875 271.5625 250.164062 271.5625 250.164062 M 277.960938 237.015625 L 280.820312 241.546875 M 287.070312 228.625 L 291.375 234.007812 M 267.085938 166.875 C 267.296875 172.6875 276.523438 164.828125 280.179688 159.867188 M 263.164062 187.0625 C 263.164062 187.0625 273.289062 179.953125 281.039062 169.1875 M 259.9375 204.078125 C 267.039062 202.140625 280.117188 186.320312 282.703125 177.921875 M 258.429688 219.796875 C 260.367188 220.65625 284.796875 203.0625 285.4375 190.140625 M 257.78125 233.367188 C 257.78125 233.148438 280.109375 227.671875 289.375 203.117188 M 256.578125 251.945312 C 256.578125 251.945312 292.242188 230.5625 294.179688 214.84375 M 534.945312 287.851562 C 534.945312 287.851562 532.648438 306.304688 514.125 309.101562 M 540.765625 320.804688 C 540.976562 320.585938 558.421875 301.421875 553.898438 295.601562 M 581.25 302.28125 C 581.25 302.28125 581.03125 315.632812 570.054688 324.890625 M 603 306.15625 C 603 306.15625 603.429688 322.304688 596.539062 328.765625 M 623.03125 315.84375 C 623.03125 315.84375 615.304688 330.976562 612.5 332.484375 M 622.695312 342.65625 C 622.695312 342.65625 632.859375 345.1875 636.09375 338.507812 M 625.328125 364.59375 C 625.328125 364.59375 634.726562 366.289062 639.039062 357.25 M 624.320312 381.53125 C 624.320312 381.53125 631.929688 387.921875 637.101562 379.523438 M 515.148438 257.085938 C 515.148438 257.085938 514.289062 289.820312 560.375 296.492188 C 611.84375 310.710938 636.179688 303.171875 639.195312 360.890625 C 637.257812 382.859375 634.53125 407.664062 618.59375 398.1875 M 466.273438 287.242188 C 466.273438 287.242188 473.59375 300.375 482.421875 299.515625 C 494.054688 296.070312 498.359375 303.179688 498.359375 303.179688 M 434.828125 300.375 C 434.828125 300.375 454.210938 309.851562 470.796875 294.5625 M 436.984375 286.804688 C 438.703125 309.421875 410.921875 322.34375 399.9375 320.1875 M 438.296875 373.460938 C 438.515625 373.460938 453.351562 364.554688 450.335938 358.304688 M 408.773438 360.25 C 409.203125 359.8125 433.75 357.445312 438.273438 348.617188 M 397.359375 324.0625 C 397.359375 323.851562 432.203125 324.164062 434.570312 330.625 M 443.65625 303.390625 C 443.65625 303.390625 409.632812 361.539062 472.515625 361.539062 M 407.695312 302.53125 C 407.695312 302.53125 400.367188 324.28125 390.03125 331.601562 M 371.515625 294.992188 C 371.515625 294.992188 384.148438 319.445312 371.445312 331.5 M 338.5625 301.882812 C 338.78125 302.3125 342.65625 336.554688 334.039062 346.25 M 322.195312 302.960938 C 322.195312 302.960938 323.484375 324.710938 317.023438 332.46875 C 310.5625 340.21875 318.539062 356.320312 318.539062 356.320312 M 240.039062 366.78125 C 240.039062 366.78125 244.664062 374.890625 251.125 372.09375 M 247.898438 349.046875 C 247.898438 349.046875 258.234375 353.570312 261.679688 351.851562 M 259.09375 312.4375 C 259.09375 312.4375 243.804688 316.742188 249.617188 334.835938 C 258.445312 341.945312 267.0625 340.867188 267.0625 340.867188 M 228.945312 389.320312 C 228.726562 389.320312 230.664062 403.53125 240.570312 392.765625 C 247.460938 378.335938 269.21875 337.632812 274.171875 323.632812 M 284.289062 316.960938 C 284.289062 316.960938 273.734375 308.773438 274.171875 320.1875 C 273.953125 327.296875 277.398438 329.015625 277.398438 329.015625 C 277.828125 334.1875 282.351562 341.507812 286.015625 334.835938 C 287.523438 328.375 284.9375 325.570312 284.9375 325.570312 M 290.96875 313.945312 C 281.492188 313.296875 276.320312 334.1875 294.632812 321.054688 M 300.875 306.835938 C 300.875 306.835938 298.507812 310.070312 294.84375 306.625 C 292.90625 303.179688 286.015625 322.132812 298.078125 322.773438 C 300.226562 317.171875 306.90625 315.664062 306.90625 315.664062 M 312.507812 297.789062 C 312.507812 297.789062 307.117188 300.375 305.179688 299.945312 C 298.71875 301.453125 300.015625 316.53125 308.195312 315.664062 C 310.992188 312.4375 314.007812 307.914062 314.007812 307.914062 M 261.71875 278.085938 C 261.507812 278.085938 240.351562 311.351562 273.515625 320.179688 M 530.226562 228.007812 C 530.226562 228.007812 517.304688 238.992188 529.359375 256.648438 C 489.304688 256.007812 467.773438 274.523438 466.046875 287.015625 C 415.007812 283.351562 424.265625 298.429688 407.6875 303.382812 C 385.5 284.859375 352.984375 295.203125 355.132812 313.71875 C 340.273438 292.828125 317.445312 302.953125 314.648438 308.117188 C 311.851562 313.289062 312.929688 282.492188 312.929688 282.492188 C 312.929688 282.492188 298.0625 289.171875 287.726562 301.445312 C 287.945312 293.265625 287.726562 279.90625 287.726562 275.601562 C 275.3125 278.117188 263.320312 278.257812 250.46875 277.96875 M 216.875 268.492188 C 216.875 268.492188 235.390625 278.828125 258.226562 264.835938 M 215.367188 231.234375 C 215.367188 231.234375 229.796875 244.15625 256.929688 240.070312 M 224.414062 201.515625 C 224.414062 201.515625 227.640625 212.070312 258.65625 212.71875 M 234.914062 177.109375 C 234.914062 177.109375 246.59375 191.398438 262.3125 189.242188 M 244.875 156.71875 C 244.875 156.71875 249.390625 164.476562 266.625 165.765625 M 254.992188 134.109375 C 254.992188 134.109375 264.039062 144.015625 274.375 142.296875 M 308.804688 53.59375 C 308.804688 53.59375 312.8125 49.59375 319.492188 51.59375 M 305.914062 74.734375 C 305.914062 74.734375 293.453125 74.289062 294.34375 69.390625 C 295.234375 63.828125 307.476562 59.828125 307.476562 59.828125 C 307.476562 59.828125 323.71875 49.367188 326.164062 45.804688 M 252.734375 102.773438 L 268.53125 133.03125 L 276.09375 121.6875 L 280.101562 129.476562 L 286.554688 118.125 L 297.679688 125.242188 L 293.453125 111.453125 L 302.796875 110.78125 C 302.796875 110.78125 300.351562 104.109375 291.898438 102.773438 C 294.117188 100.992188 301.90625 95.875 301.90625 95.875 C 301.90625 95.875 297.460938 90.757812 290.5625 90.53125 C 292.789062 88.085938 295.898438 82.078125 295.679688 82.078125 C 295.453125 82.078125 288.78125 80.523438 288.78125 80.523438 C 288.78125 80.523438 304.578125 85.640625 316.820312 78.515625 M 286.570312 54.046875 C 286.789062 54.273438 285.679688 60.28125 282.335938 63.84375 M 225.59375 70.742188 C 225.59375 70.742188 235.367188 68.046875 242.6875 69.578125 C 249.929688 71.0625 259.640625 73.632812 259.640625 73.632812 C 259.640625 73.632812 271.210938 72.078125 275 69.40625 M 201.34375 77.195312 C 201.34375 77.195312 200.007812 81.867188 199.5625 84.984375 C 199.5625 87.203125 192.4375 90.101562 192.4375 90.101562 M 205.796875 67.625 C 205.796875 67.625 212.023438 75.414062 212.242188 79.859375 C 212.46875 84.3125 207.570312 87.648438 207.570312 87.648438 M 141.484375 120.804688 L 135.03125 110.351562 L 140.8125 108.34375 M 258.015625 265.0625 C 252.851562 258.390625 261.890625 155.875 281.0625 129.179688 C 274.382812 177.414062 296.5625 226.734375 302.164062 226.515625 M 199.765625 100.53125 C 199.765625 100.53125 208.484375 103.867188 226.578125 89.546875 M 251.023438 124.21875 L 263.992188 124.382812 M 653.484375 43.867188 C 653.484375 43.867188 437.296875 144.890625 434.148438 150.242188 C 470.648438 139.226562 625.476562 113.421875 629.257812 115.625 C 620.132812 117.828125 432.257812 160.9375 423.445312 171.328125 C 470.335938 169.75 568.523438 186.429688 583.9375 202.476562 C 550.578125 194.929688 450.8125 180.140625 420.296875 186.742188 C 442.640625 192.09375 528.234375 247.484375 528.234375 256.296875 C 515.335938 244.023438 412.421875 201.539062 408.335938 205.625 C 431.9375 219.789062 465.296875 272.34375 465.296875 285.242188 C 458.367188 274.234375 398.890625 210.34375 395.429688 214.4375 C 401.726562 223.25 414.195312 298.65625 407.820312 302.15625 C 407.820312 293.03125 384.734375 227.023438 382.84375 225.140625 C 378.125 226.398438 348.695312 305.664062 354.523438 313.039062 C 350.75 286.601562 355.148438 231.429688 362.390625 233.632812 C 349.484375 235.523438 308.3125 289.8125 312.71875 298.3125 C 313.976562 284.78125 315.8125 275.804688 339.101562 230.804688 C 313.296875 232.375 259.796875 266.046875 250.671875 278.007812 C 257.914062 256.609375 303.226562 220.414062 323.054688 217.898438 M 416.367188 139.15625 C 439.21875 126.476562 509.828125 100.59375 556.929688 81.609375 M 372.015625 207.390625 C 372.015625 207.390625 387.59375 207.171875 403.171875 164.890625 C 418.523438 107.039062 540.242188 42.507812 542.695312 30.492188 M 166.023438 265.5625 C 166.023438 265.5625 162.40625 273.265625 157.953125 275.484375 M 183.484375 277.234375 C 183.484375 277.234375 178.648438 286.617188 177.539062 291.0625 M 200.1875 281.820312 C 200.1875 281.820312 204.242188 294.625 200.90625 300.632812 M 153.664062 248.578125 C 141.429688 255.476562 160.625 299.070312 218.703125 303.304688 M 209.359375 279.71875 C 209.359375 279.71875 207.804688 287.5 218.703125 303.078125 C 215.59375 320.4375 231.898438 334.078125 238.351562 336.296875 M 204.6875 123.289062 C 204.6875 123.070312 206.460938 118.617188 206.460938 118.617188 L 208.445312 123.765625 L 211.640625 123.679688 L 213.75 118.523438 L 215.476562 123.695312 L 218.648438 123.695312 L 220.609375 117.953125 L 223.5625 123.390625 L 226.078125 123.523438 L 228.054688 116.890625 L 232.132812 121.640625 L 233.609375 121.0625 L 234.882812 114.4375 L 238.90625 119.070312 L 240.0625 118.398438 L 241.929688 111.859375 L 245.28125 116.71875 L 246.960938 116.171875 L 248.523438 110.679688 L 251.632812 115.726562 M 201.101562 123.875 L 225.375 123.515625 C 233.101562 123.398438 245.820312 112.695312 260.0625 116.03125 M 149.945312 175.804688 C 149.945312 175.804688 153.945312 184.484375 159.507812 179.585938 M 140.59375 181.59375 C 140.59375 181.59375 132.804688 202.507812 142.15625 207.398438 M 129.46875 158.453125 C 129.46875 158.453125 129.46875 163.34375 139.703125 155.78125 M 97.632812 268.367188 C 97.632812 268.367188 105.867188 270.820312 104.53125 277.046875 M 100.742188 172.242188 C 100.742188 172.242188 105.859375 174.6875 110.757812 167.125 M 155.039062 413.015625 C 163.046875 412.570312 164.773438 416.1875 172.0625 416.1875 C 180.460938 416.4375 188.640625 413.015625 199.320312 410.117188 M 268.078125 429.476562 C 267.859375 429.476562 264.296875 437.046875 267.414062 440.828125 M 153.921875 430.148438 C 153.921875 430.148438 166.609375 419.6875 173.28125 426.140625 C 179.734375 428.367188 183.296875 427.921875 183.296875 427.921875 M 160.601562 400.328125 C 160.601562 400.328125 163.71875 408.34375 153.257812 407.226562 M 150.148438 418.796875 C 150.148438 418.796875 156.820312 423.03125 149.257812 428.59375 M 154.148438 436.15625 C 154.148438 436.15625 163.273438 437.492188 157.929688 444.835938 M 448.84375 380.71875 C 448.84375 380.71875 473.617188 383.28125 474.757812 385.132812 C 477.609375 382.140625 499.726562 364.226562 472.53125 361.664062 C 467.976562 380.3125 449.273438 381.007812 448.84375 380.71875 Z M 440.015625 393.109375 C 449.273438 400.515625 445.476562 404.945312 474.53125 385.445312 M 426.773438 402.367188 C 426.773438 402.367188 440.445312 417.03125 450.40625 399.234375 M 400.710938 407.632812 L 382.203125 417.3125 M 348.882812 430.984375 C 348.882812 430.984375 360.132812 421.304688 365.398438 426.429688 C 370.671875 431.554688 393.023438 422.015625 393.023438 422.015625 M 357.28125 388.976562 C 357.28125 388.976562 361.132812 396.671875 353.726562 397.664062 M 342.617188 413.046875 C 342.617188 413.046875 346.515625 420.273438 338.96875 422.265625 M 351.304688 432.695312 C 351.304688 432.695312 362.976562 433.265625 358.851562 442.09375 M 460.523438 431.125 C 460.523438 431.125 454.109375 436.539062 458.8125 442.664062 M 553.5 392.257812 C 553.5 392.257812 560.90625 395.8125 552.078125 401.9375 M 544.671875 414.75 C 544.671875 414.75 550.226562 420.59375 546.523438 425.429688 M 560.195312 437.109375 C 560.195312 437.109375 567.882812 439.242188 567.03125 445.648438 M 667.84375 431.414062 C 667.84375 431.414062 661.429688 436.109375 664.851562 442.234375 M 553.710938 244.265625 C 569.09375 242.414062 591.164062 276.585938 602.40625 283.28125 M 669.679688 195.851562 C 669.679688 195.851562 677.46875 202.65625 670.617188 219.0625 M 684.125 169.695312 C 686.289062 171.382812 694.664062 175.851562 700.195312 186.1875 M 705.507812 118.53125 C 705.507812 118.671875 694.679688 147.71875 694.679688 147.71875 M 717.609375 117.109375 C 717.609375 117.109375 715.46875 143.023438 712.335938 148.289062 M 669.382812 195.515625 C 665.78125 205.882812 634.539062 211.195312 632.445312 195.84375 C 631.382812 188.023438 650.953125 175.96875 669.382812 195.515625 Z M 669.382812 195.515625 " transform="matrix(0.5,0,0,0.5,0,0)"/>
<path style="fill-rule:nonzero;fill:rgb(0%,0%,0%);fill-opacity:1;stroke-width:1.8;stroke-linecap:butt;stroke-linejoin:round;stroke:rgb(0%,0%,0%);stroke-opacity:1;stroke-miterlimit:4;" d="M 236.476562 69.148438 L 248.5 71.375 C 248.5 71.375 240.039062 82.71875 236.476562 69.148438 Z M 236.476562 69.148438 " transform="matrix(0.5,0,0,0.5,0,0)"/>
</g>
</svg>
