<?xml version="1.0" encoding="UTF-8"?>
<svg xmlns="http://www.w3.org/2000/svg" xmlns:xlink="http://www.w3.org/1999/xlink" width="px" height="px" viewBox="0 0 450 300" version="1.1">
<defs>
<clipPath id="clip1">
  <path d="M 14 58 L 241 58 L 241 223 L 14 223 Z M 14 58 "/>
</clipPath>
<clipPath id="clip2">
  <path d="M -66.824219 215.175781 C -66.875 172.46875 -49.414062 131.609375 -18.515625 102.128906 C 12.382812 72.644531 54.019531 57.121094 96.675781 59.175781 L 423.675781 59.175781 C 423.675781 149.472656 350.472656 222.675781 260.175781 222.675781 C 169.875 222.675781 96.675781 149.472656 96.675781 59.175781 Z M -66.824219 215.175781 "/>
</clipPath>
<clipPath id="clip3">
  <path d="M 0 0 L 97 0 L 97 203 L 0 203 Z M 0 0 "/>
</clipPath>
<clipPath id="clip4">
  <path d="M -59.324219 -104.324219 C -16.617188 -104.375 24.242188 -86.914062 53.722656 -56.015625 C 83.203125 -25.117188 98.726562 16.519531 96.675781 59.175781 L 96.675781 386.175781 C 6.375 386.175781 -66.824219 312.972656 -66.824219 222.675781 C -66.824219 132.375 6.375 59.175781 96.675781 59.175781 Z M -59.324219 -104.324219 "/>
</clipPath>
<clipPath id="clip5">
  <path d="M 270 240 L 450 240 L 450 300 L 270 300 Z M 270 240 "/>
</clipPath>
<clipPath id="clip6">
  <path d="M 189.824219 396.824219 C 189.777344 354.117188 207.238281 313.257812 238.136719 283.777344 C 269.035156 254.296875 310.667969 238.773438 353.324219 240.824219 L 680.324219 240.824219 C 680.324219 331.125 607.125 404.324219 516.824219 404.324219 C 426.527344 404.324219 353.324219 331.125 353.324219 240.824219 Z M 189.824219 396.824219 "/>
</clipPath>
<clipPath id="clip7">
  <path d="M 189 158 L 354 158 L 354 300 L 189 300 Z M 189 158 "/>
</clipPath>
<clipPath id="clip8">
  <path d="M 197.324219 77.324219 C 240.03125 77.277344 280.890625 94.738281 310.371094 125.636719 C 339.855469 156.535156 355.378906 198.167969 353.324219 240.824219 L 353.324219 567.824219 C 263.027344 567.824219 189.824219 494.625 189.824219 404.324219 C 189.824219 314.027344 263.027344 240.824219 353.324219 240.824219 Z M 197.324219 77.324219 "/>
</clipPath>
<clipPath id="clip9">
  <path d="M 270 58 L 450 58 L 450 223 L 270 223 Z M 270 58 "/>
</clipPath>
<clipPath id="clip10">
  <path d="M 189.824219 215.175781 C 189.777344 172.46875 207.238281 131.609375 238.136719 102.128906 C 269.035156 72.644531 310.667969 57.121094 353.324219 59.175781 L 680.324219 59.175781 C 680.324219 149.472656 607.125 222.675781 516.824219 222.675781 C 426.527344 222.675781 353.324219 149.472656 353.324219 59.175781 Z M 189.824219 215.175781 "/>
</clipPath>
<clipPath id="clip11">
  <path d="M 189 0 L 354 0 L 354 203 L 189 203 Z M 189 0 "/>
</clipPath>
<clipPath id="clip12">
  <path d="M 197.324219 -104.324219 C 240.03125 -104.375 280.890625 -86.914062 310.371094 -56.015625 C 339.855469 -25.117188 355.378906 16.519531 353.324219 59.175781 L 353.324219 386.175781 C 263.027344 386.175781 189.824219 312.972656 189.824219 222.675781 C 189.824219 132.375 263.027344 59.175781 353.324219 59.175781 Z M 197.324219 -104.324219 "/>
</clipPath>
<clipPath id="clip13">
  <path d="M 14 240 L 241 240 L 241 300 L 14 300 Z M 14 240 "/>
</clipPath>
<clipPath id="clip14">
  <path d="M -66.824219 396.824219 C -66.875 354.117188 -49.414062 313.257812 -18.515625 283.777344 C 12.382812 254.296875 54.019531 238.773438 96.675781 240.824219 L 423.675781 240.824219 C 423.675781 331.125 350.472656 404.324219 260.175781 404.324219 C 169.875 404.324219 96.675781 331.125 96.675781 240.824219 Z M -66.824219 396.824219 "/>
</clipPath>
<clipPath id="clip15">
  <path d="M 0 158 L 97 158 L 97 300 L 0 300 Z M 0 158 "/>
</clipPath>
<clipPath id="clip16">
  <path d="M -59.324219 77.324219 C -16.617188 77.277344 24.242188 94.738281 53.722656 125.636719 C 83.203125 156.535156 98.726562 198.167969 96.675781 240.824219 L 96.675781 567.824219 C 6.375 567.824219 -66.824219 494.625 -66.824219 404.324219 C -66.824219 314.027344 6.375 240.824219 96.675781 240.824219 Z M -59.324219 77.324219 "/>
</clipPath>
</defs>
<g id="surface1">
<rect x="0" y="0" width="450" height="300" style="fill:rgb(100%,100%,100%);fill-opacity:1;stroke:none;"/>
<path style=" stroke:none;fill-rule:nonzero;fill:rgb(100%,0%,0%);fill-opacity:1;" d="M 195 0 L 195 120 L 0 120 L 0 180 L 195 180 L 195 300 L 255 300 L 255 180 L 450 180 L 450 120 L 255 120 L 255 0 Z M 195 0 "/>
<g clip-path="url(#clip1)" clip-rule="nonzero">
<g clip-path="url(#clip2)" clip-rule="nonzero">
<path style=" stroke:none;fill-rule:nonzero;fill:rgb(100%,0%,0%);fill-opacity:1;" d="M 14.175781 170.175781 C 28.46875 208.757812 69.007812 230.910156 109.199219 222.101562 C 149.390625 213.292969 176.949219 176.214844 173.792969 135.191406 C 170.640625 94.167969 137.742188 61.738281 96.675781 59.175781 L 96.675781 -51.824219 C 119.601562 -77.042969 155.679688 -85.566406 187.46875 -73.273438 C 219.257812 -60.980469 240.214844 -30.40625 240.214844 3.675781 C 240.214844 37.757812 219.257812 68.332031 187.46875 80.625 C 155.679688 92.914062 119.601562 84.390625 96.675781 59.175781 Z M 14.175781 170.175781 "/>
</g>
</g>
<g clip-path="url(#clip3)" clip-rule="nonzero">
<g clip-path="url(#clip4)" clip-rule="nonzero">
<path style=" stroke:none;fill-rule:nonzero;fill:rgb(100%,0%,0%);fill-opacity:1;" d="M -14.324219 -23.324219 C -52.90625 -9.03125 -75.0625 31.507812 -66.253906 71.699219 C -57.445312 111.890625 -20.367188 139.449219 20.65625 136.292969 C 61.683594 133.140625 94.113281 100.242188 96.675781 59.175781 L 207.675781 59.175781 C 232.890625 82.101562 241.414062 118.179688 229.125 149.96875 C 216.832031 181.757812 186.257812 202.714844 152.175781 202.714844 C 118.09375 202.714844 87.519531 181.757812 75.226562 149.96875 C 62.933594 118.179688 71.457031 82.101562 96.675781 59.175781 Z M -14.324219 -23.324219 "/>
</g>
</g>
<g clip-path="url(#clip5)" clip-rule="nonzero">
<g clip-path="url(#clip6)" clip-rule="nonzero">
<path style=" stroke:none;fill-rule:nonzero;fill:rgb(100%,0%,0%);fill-opacity:1;" d="M 270.824219 351.824219 C 285.117188 390.40625 325.65625 412.5625 365.847656 403.753906 C 406.039062 394.945312 433.597656 357.867188 430.445312 316.84375 C 427.289062 275.816406 394.390625 243.386719 353.324219 240.824219 L 353.324219 129.824219 C 376.253906 104.609375 412.328125 96.085938 444.117188 108.375 C 475.90625 120.667969 496.867188 151.242188 496.867188 185.324219 C 496.867188 219.40625 475.90625 249.980469 444.117188 262.273438 C 412.328125 274.566406 376.253906 266.042969 353.324219 240.824219 Z M 270.824219 351.824219 "/>
</g>
</g>
<g clip-path="url(#clip7)" clip-rule="nonzero">
<g clip-path="url(#clip8)" clip-rule="nonzero">
<path style=" stroke:none;fill-rule:nonzero;fill:rgb(100%,0%,0%);fill-opacity:1;" d="M 242.324219 158.324219 C 203.742188 172.617188 181.589844 213.15625 190.398438 253.347656 C 199.207031 293.539062 236.285156 321.097656 277.308594 317.945312 C 318.332031 314.789062 350.761719 281.890625 353.324219 240.824219 L 464.324219 240.824219 C 489.542969 263.753906 498.066406 299.828125 485.773438 331.617188 C 473.480469 363.40625 442.90625 384.367188 408.824219 384.367188 C 374.742188 384.367188 344.167969 363.40625 331.875 331.617188 C 319.585938 299.828125 328.109375 263.753906 353.324219 240.824219 Z M 242.324219 158.324219 "/>
</g>
</g>
<g clip-path="url(#clip9)" clip-rule="nonzero">
<g clip-path="url(#clip10)" clip-rule="nonzero">
<path style=" stroke:none;fill-rule:nonzero;fill:rgb(100%,0%,0%);fill-opacity:1;" d="M 270.824219 170.175781 C 285.117188 208.757812 325.65625 230.910156 365.847656 222.101562 C 406.039062 213.292969 433.597656 176.214844 430.445312 135.191406 C 427.289062 94.167969 394.390625 61.738281 353.324219 59.175781 L 353.324219 -51.824219 C 376.253906 -77.042969 412.328125 -85.566406 444.117188 -73.273438 C 475.90625 -60.980469 496.867188 -30.40625 496.867188 3.675781 C 496.867188 37.757812 475.90625 68.332031 444.117188 80.625 C 412.328125 92.914062 376.253906 84.390625 353.324219 59.175781 Z M 270.824219 170.175781 "/>
</g>
</g>
<g clip-path="url(#clip11)" clip-rule="nonzero">
<g clip-path="url(#clip12)" clip-rule="nonzero">
<path style=" stroke:none;fill-rule:nonzero;fill:rgb(100%,0%,0%);fill-opacity:1;" d="M 242.324219 -23.324219 C 203.742188 -9.03125 181.589844 31.507812 190.398438 71.699219 C 199.207031 111.890625 236.285156 139.449219 277.308594 136.292969 C 318.332031 133.140625 350.761719 100.242188 353.324219 59.175781 L 464.324219 59.175781 C 489.542969 82.101562 498.066406 118.179688 485.773438 149.96875 C 473.480469 181.757812 442.90625 202.714844 408.824219 202.714844 C 374.742188 202.714844 344.167969 181.757812 331.875 149.96875 C 319.585938 118.179688 328.109375 82.101562 353.324219 59.175781 Z M 242.324219 -23.324219 "/>
</g>
</g>
<g clip-path="url(#clip13)" clip-rule="nonzero">
<g clip-path="url(#clip14)" clip-rule="nonzero">
<path style=" stroke:none;fill-rule:nonzero;fill:rgb(100%,0%,0%);fill-opacity:1;" d="M 14.175781 351.824219 C 28.46875 390.40625 69.007812 412.5625 109.199219 403.753906 C 149.390625 394.945312 176.949219 357.867188 173.792969 316.84375 C 170.640625 275.816406 137.742188 243.386719 96.675781 240.824219 L 96.675781 129.824219 C 119.601562 104.609375 155.679688 96.085938 187.46875 108.375 C 219.257812 120.667969 240.214844 151.242188 240.214844 185.324219 C 240.214844 219.40625 219.257812 249.980469 187.46875 262.273438 C 155.679688 274.566406 119.601562 266.042969 96.675781 240.824219 Z M 14.175781 351.824219 "/>
</g>
</g>
<g clip-path="url(#clip15)" clip-rule="nonzero">
<g clip-path="url(#clip16)" clip-rule="nonzero">
<path style=" stroke:none;fill-rule:nonzero;fill:rgb(100%,0%,0%);fill-opacity:1;" d="M -14.324219 158.324219 C -52.90625 172.617188 -75.0625 213.15625 -66.253906 253.347656 C -57.445312 293.539062 -20.367188 321.097656 20.65625 317.945312 C 61.683594 314.789062 94.113281 281.890625 96.675781 240.824219 L 207.675781 240.824219 C 232.890625 263.753906 241.414062 299.828125 229.125 331.617188 C 216.832031 363.40625 186.257812 384.367188 152.175781 384.367188 C 118.09375 384.367188 87.519531 363.40625 75.226562 331.617188 C 62.933594 299.828125 71.457031 263.753906 96.675781 240.824219 Z M -14.324219 158.324219 "/>
</g>
</g>
</g>
</svg>
