<?xml version="1.0" encoding="UTF-8"?>
<svg xmlns="http://www.w3.org/2000/svg" xmlns:xlink="http://www.w3.org/1999/xlink" width="px" height="px" viewBox="0 0 450 300" version="1.1">
<g id="surface1">
<path style=" stroke:none;fill-rule:nonzero;fill:rgb(100%,100%,100%);fill-opacity:1;" d="M 0 0 L 450 0 L 450 300 L -450 300 Z M 0 0 "/>
<path style=" stroke:none;fill-rule:nonzero;fill:rgb(90.980392%,6.666667%,17.647059%);fill-opacity:1;" d="M 262.5 0 L 262.5 112.5 L 450 112.5 L 450 187.5 L 262.5 187.5 L 262.5 300 L 187.5 300 L 187.5 187.5 L 0 187.5 L 0 112.5 L 187.5 112.5 L 187.5 0 Z M 262.5 0 "/>
<path style=" stroke:none;fill-rule:nonzero;fill:rgb(97.647059%,86.666667%,8.627451%);fill-opacity:1;" d="M 112.5 175 L 125 162.5 L 212.5 162.5 L 212.5 250 L 200 262.5 L 250 262.5 L 237.5 250 L 237.5 162.5 L 325 162.5 L 337.5 175 L 337.5 125 L 325 137.5 L 237.5 137.5 L 237.5 50 L 250 37.5 L 200 37.5 L 212.5 50 L 212.5 137.5 L 125 137.5 L 112.5 125 Z M 112.5 175 "/>
</g>
</svg>
