<?xml version="1.0" encoding="UTF-8"?>
<svg xmlns="http://www.w3.org/2000/svg" xmlns:xlink="http://www.w3.org/1999/xlink" width="px" height="px" viewBox="0 0 500 250" version="1.1">
<g id="surface1">
<rect x="0" y="0" width="500" height="250" style="fill:rgb(85.490196%,0%,4.705882%);fill-opacity:1;stroke:none;"/>
<path style=" stroke:none;fill-rule:nonzero;fill:rgb(100%,100%,100%);fill-opacity:1;" d="M 0 0 L 500 0 L 500 167.480469 L 0 167.480469 Z M 0 0 "/>
<path style=" stroke:none;fill-rule:nonzero;fill:rgb(0%,0%,0%);fill-opacity:1;" d="M 191.964844 113.578125 L 254.464844 113.578125 L 254.464844 156.539062 L 191.964844 156.539062 Z M 191.964844 113.578125 "/>
<path style="fill-rule:nonzero;fill:rgb(85.490196%,0%,4.705882%);fill-opacity:1;stroke-width:1;stroke-linecap:square;stroke-linejoin:miter;stroke:rgb(0%,0%,0%);stroke-opacity:1;stroke-miterlimit:4;" d="M 229.82 153.864 L 190.752 153.864 L 182.088 159.564 L 182.088 165.604 L 229.82 165.604 M 213.468 128.592 C 219.096 128.592 223.688 133.284 223.688 139.064 L 223.688 153.844 L 231.032 153.844 L 231.032 97.844 L 190.752 97.844 L 190.752 153.844 L 203.248 153.844 L 203.248 139.064 C 203.248 133.508 207.764 128.592 213.468 128.592 Z M 213.468 128.592 " transform="matrix(0.976562,0,0,0.976562,0,0)"/>
<path style=" stroke:none;fill-rule:nonzero;fill:rgb(0%,0%,0%);fill-opacity:1;" d="M 199.734375 58.554688 L 217.824219 58.554688 L 217.824219 91.71875 L 199.734375 91.71875 Z M 199.734375 58.554688 "/>
<path style="fill-rule:nonzero;fill:rgb(85.490196%,0%,4.705882%);fill-opacity:1;stroke-width:1;stroke-linecap:square;stroke-linejoin:miter;stroke:rgb(0%,0%,0%);stroke-opacity:1;stroke-miterlimit:4;" d="M 223 88.656 L 206.792 88.656 L 206.792 82.904 L 194.904 82.904 L 194.904 88.656 L 186.844 88.656 L 186.844 82.904 L 182.032 82.904 L 182.032 93.344 L 223 93.344 M 186.844 93.304 L 221.816 93.304 L 221.816 97.844 L 186.844 97.844 Z M 186.844 93.304 " transform="matrix(0.976562,0,0,0.976562,0,0)"/>
<path style="fill-rule:nonzero;fill:rgb(85.490196%,0%,4.705882%);fill-opacity:1;stroke-width:1;stroke-linecap:square;stroke-linejoin:miter;stroke:rgb(0%,0%,0%);stroke-opacity:1;stroke-miterlimit:4;" d="M 200.72 47.624 L 200.72 82.904 L 206.792 82.904 L 206.792 73.22 C 206.792 69.592 209.352 66.62 212.936 66.44 C 213.052 66.432 213.164 66.44 213.28 66.44 C 194.936 106.988 147.188 124.988 106.64 106.64 C 66.092 88.292 48.092 40.548 66.44 0 L 66.44 9.688 L 72.22 9.688 L 72.22 47.624 Z M 198.532 42.844 L 198.532 47.624 L 227.78 47.624 L 227.78 42.844 Z M 194.78 33.688 L 194.78 42.844 L 229.876 42.844 L 229.876 33.688 L 224.468 33.688 L 224.468 38.344 L 217.936 38.344 L 217.936 33.688 L 207.968 33.688 L 207.968 38.344 L 201.44 38.344 L 201.44 33.688 Z M 182.088 159.564 L 230 159.564 M 261 156.812 L 228.56 156.812 L 218.784 161.532 L 218.784 168.56 L 261 168.56 " transform="matrix(0.976562,0,0,0.976562,0,0)"/>
<path style="fill:none;stroke-width:1;stroke-linecap:butt;stroke-linejoin:miter;stroke:rgb(0%,0%,0%);stroke-opacity:1;stroke-miterlimit:4;" d="M 218.772 161.52 L 262 161.52 " transform="matrix(0.976562,0,0,0.976562,0,0)"/>
<path style=" stroke:none;fill-rule:nonzero;fill:rgb(0%,0%,0%);fill-opacity:1;" d="M 308.035156 113.578125 L 245.535156 113.578125 L 245.535156 156.539062 L 308.035156 156.539062 Z M 308.035156 113.578125 "/>
<path style="fill-rule:nonzero;fill:rgb(85.490196%,0%,4.705882%);fill-opacity:1;stroke-width:1;stroke-linecap:square;stroke-linejoin:miter;stroke:rgb(0%,0%,0%);stroke-opacity:1;stroke-miterlimit:4;" d="M 229.82 153.864 L 190.752 153.864 L 182.088 159.564 L 182.088 165.604 L 229.82 165.604 M 213.468 128.592 C 219.096 128.592 223.688 133.284 223.688 139.064 L 223.688 153.844 L 231.032 153.844 L 231.032 97.844 L 190.752 97.844 L 190.752 153.844 L 203.248 153.844 L 203.248 139.064 C 203.248 133.508 207.764 128.592 213.468 128.592 Z M 213.468 128.592 " transform="matrix(-0.976562,0,0,0.976562,500,0)"/>
<path style=" stroke:none;fill-rule:nonzero;fill:rgb(0%,0%,0%);fill-opacity:1;" d="M 300.265625 58.554688 L 282.175781 58.554688 L 282.175781 91.71875 L 300.265625 91.71875 Z M 300.265625 58.554688 "/>
<path style="fill-rule:nonzero;fill:rgb(85.490196%,0%,4.705882%);fill-opacity:1;stroke-width:1;stroke-linecap:square;stroke-linejoin:miter;stroke:rgb(0%,0%,0%);stroke-opacity:1;stroke-miterlimit:4;" d="M 223 88.656 L 206.792 88.656 L 206.792 82.904 L 194.904 82.904 L 194.904 88.656 L 186.844 88.656 L 186.844 82.904 L 182.032 82.904 L 182.032 93.344 L 223 93.344 M 186.844 93.304 L 221.816 93.304 L 221.816 97.844 L 186.844 97.844 Z M 186.844 93.304 " transform="matrix(-0.976562,0,0,0.976562,500,0)"/>
<path style="fill-rule:nonzero;fill:rgb(85.490196%,0%,4.705882%);fill-opacity:1;stroke-width:1;stroke-linecap:square;stroke-linejoin:miter;stroke:rgb(0%,0%,0%);stroke-opacity:1;stroke-miterlimit:4;" d="M 200.72 47.624 L 200.72 82.904 L 206.792 82.904 L 206.792 73.22 C 206.792 69.592 209.352 66.62 212.936 66.44 C 213.052 66.432 213.164 66.44 213.28 66.44 C 194.936 106.988 147.188 124.988 106.64 106.64 C 66.092 88.292 48.092 40.548 66.44 0 L 66.44 9.688 L 72.22 9.688 L 72.22 47.624 Z M 198.532 42.844 L 198.532 47.624 L 227.78 47.624 L 227.78 42.844 Z M 194.78 33.688 L 194.78 42.844 L 229.876 42.844 L 229.876 33.688 L 224.468 33.688 L 224.468 38.344 L 217.936 38.344 L 217.936 33.688 L 207.968 33.688 L 207.968 38.344 L 201.44 38.344 L 201.44 33.688 Z M 182.088 159.564 L 230 159.564 M 261 156.812 L 228.56 156.812 L 218.784 161.532 L 218.784 168.56 L 261 168.56 " transform="matrix(-0.976562,0,0,0.976562,500,0)"/>
<path style="fill:none;stroke-width:1;stroke-linecap:butt;stroke-linejoin:miter;stroke:rgb(0%,0%,0%);stroke-opacity:1;stroke-miterlimit:4;" d="M 218.772 161.52 L 262 161.52 " transform="matrix(-0.976562,0,0,0.976562,500,0)"/>
<path style="fill-rule:nonzero;fill:rgb(97.254902%,84.705882%,5.490196%);fill-opacity:1;stroke-width:0.768;stroke-linecap:round;stroke-linejoin:miter;stroke:rgb(0%,0%,0%);stroke-opacity:1;stroke-miterlimit:4;" d="M 273.296 150.032 C 270.644 150.916 268.244 152.4 265.828 153.784 C 262.728 155.616 259.72 157.612 256.924 159.884 C 255.94 160.532 254.992 161.244 254.232 162.156 C 253.208 163.032 252.168 164.212 252.368 165.668 C 252.416 166.312 253.24 164.912 253.78 164.844 C 208.26 189.404 151.448 172.412 126.888 126.888 C 102.332 81.368 119.324 24.56 164.844 0 C 166.116 -1.34 167.756 -2.236 169.172 -3.404 C 172.176 -5.648 175.408 -7.572 178.696 -9.368 C 179.844 -9.956 180.996 -10.552 182.22 -10.968 L 181.22 -14.344 Z M 273.296 150.032 " transform="matrix(0.976562,0,0,0.976562,0,0)"/>
<path style="fill-rule:nonzero;fill:rgb(97.254902%,84.705882%,5.490196%);fill-opacity:1;stroke-width:1;stroke-linecap:round;stroke-linejoin:miter;stroke:rgb(0%,0%,0%);stroke-opacity:1;stroke-miterlimit:4;" d="M 260.4 157.392 L 260.4 161.304 M 262.816 155.684 L 262.816 159.568 M 265.232 154.18 L 265.232 158.04 M 267.652 152.696 L 267.652 156.676 " transform="matrix(0.976562,0,0,0.976562,0,0)"/>
<path style="fill-rule:nonzero;fill:rgb(97.254902%,84.705882%,5.490196%);fill-opacity:1;stroke-width:0.768;stroke-linecap:round;stroke-linejoin:miter;stroke:rgb(0%,0%,0%);stroke-opacity:1;stroke-miterlimit:4;" d="M 238.892 150.156 L 237.704 153.468 C 243.24 155.568 248.512 158.348 253.5 161.528 C 255.192 162.68 256.968 163.796 258.296 165.376 C 258.592 166.184 257.784 166.864 256.984 166.62 C 256.252 166.368 255.528 166.088 254.756 166.616 C 253.648 167.12 252.652 168.756 254.332 169.304 C 256.648 170.86 260.412 170.184 261.528 167.46 C 262.108 166.06 262.144 164.264 261.02 163.116 C 258.956 160.752 256.22 159.108 253.596 157.444 C 248.908 154.624 244.024 152.072 238.892 150.156 Z M 238.892 150.156 " transform="matrix(0.976562,0,0,0.976562,0,0)"/>
<path style="fill-rule:nonzero;fill:rgb(97.254902%,84.705882%,5.490196%);fill-opacity:1;stroke-width:1;stroke-linecap:round;stroke-linejoin:miter;stroke:rgb(0%,0%,0%);stroke-opacity:1;stroke-miterlimit:4;" d="M 254.048 158.036 L 253.736 161.376 M 256.832 159.74 L 255.968 163.008 M 259.804 162.012 L 257.996 164.548 M 260.716 168.18 L 258.104 166.78 M 261.528 165.428 L 258.532 165.708 M 257.664 169.764 L 257.46 167.132 M 256.568 166.756 L 254.096 168.576 M 244.676 152.936 L 244.676 156.052 M 250.964 156.244 L 250.964 159.776 M 247.82 154.592 L 247.82 157.912 " transform="matrix(0.976562,0,0,0.976562,0,0)"/>
<path style="fill-rule:nonzero;fill:rgb(97.254902%,84.705882%,5.490196%);fill-opacity:1;stroke-width:1;stroke-linecap:butt;stroke-linejoin:miter;stroke:rgb(0%,0%,0%);stroke-opacity:1;stroke-miterlimit:4;" d="M 235.78 227.564 L 235.78 235.592 L 240.812 235.592 L 240.812 231.564 L 247.656 231.564 L 247.656 235.592 L 253.064 235.592 L 253.064 227.564 Z M 235.78 238.624 L 235.78 246.688 L 253.064 246.688 L 253.064 238.624 L 247.656 238.624 L 247.656 242.656 L 240.812 242.656 L 240.812 238.624 Z M 235.78 238.624 " transform="matrix(0.976562,0,0,0.976562,0,0)"/>
<path style="fill-rule:nonzero;fill:rgb(97.254902%,84.705882%,5.490196%);fill-opacity:1;stroke-width:1;stroke-linecap:butt;stroke-linejoin:miter;stroke:rgb(0%,0%,0%);stroke-opacity:1;stroke-miterlimit:4;" d="M 253.052 193.652 L 258.044 193.652 L 258.044 251.768 L 253.052 251.768 Z M 253.052 193.652 " transform="matrix(0.976562,0,0,0.976562,0,0)"/>
<path style="fill-rule:nonzero;fill:rgb(97.254902%,84.705882%,5.490196%);fill-opacity:1;stroke-width:1;stroke-linecap:butt;stroke-linejoin:miter;stroke:rgb(0%,0%,0%);stroke-opacity:1;stroke-miterlimit:4;" d="M 253.052 198.68 L 258.044 198.68 L 258.044 248.74 L 253.052 248.74 Z M 253.052 198.68 " transform="matrix(0.976562,0,0,0.976562,0,0)"/>
<path style="fill-rule:nonzero;fill:rgb(97.254902%,84.705882%,5.490196%);fill-opacity:1;stroke-width:1.024;stroke-linecap:butt;stroke-linejoin:miter;stroke:rgb(0%,0%,0%);stroke-opacity:1;stroke-miterlimit:4;" d="M 255.548 179.408 L 266.172 185.592 L 255.548 191.752 L 244.924 185.592 Z M 241.328 183.376 L 238.548 183.376 L 238.548 187.812 L 241.328 187.812 L 255.548 196.064 L 269.768 187.812 L 272.544 187.812 L 272.544 183.376 L 269.768 183.376 L 255.548 175.124 Z M 241.328 183.376 " transform="matrix(0.976562,0,0,0.976562,0,0)"/>
<path style="fill-rule:nonzero;fill:rgb(97.254902%,84.705882%,5.490196%);fill-opacity:1;stroke-width:1.024;stroke-linecap:butt;stroke-linejoin:miter;stroke:rgb(0%,0%,0%);stroke-opacity:1;stroke-miterlimit:4;" d="M 255.344 164.28 C 252.924 164.62 251.12 167.012 251.248 169.416 C 251.26 173.152 251.232 176.892 251.264 180.628 C 251.392 183.036 253.496 185.196 255.94 185.216 C 257.924 185.404 259.92 184.244 260.752 182.436 L 259.032 181.404 C 258.588 182.588 257.308 183.324 256.06 183.188 C 254.428 183.232 253.104 181.644 253.248 180.052 C 253.26 176.34 253.232 172.624 253.264 168.912 C 253.356 167.396 254.8 166.16 256.312 166.312 C 256.94 166.132 257.8 166.988 258.188 166.252 C 258.772 165.42 257.772 164.772 257.216 164.312 C 256.604 164.228 255.964 164.304 255.344 164.28 Z M 261.124 168.188 C 260.728 168.932 259.908 169.376 259.248 169.768 L 259.248 177.28 L 261.248 178.436 C 261.244 175.232 261.268 172.028 261.24 168.828 C 261.208 168.628 261.232 168.328 261.124 168.188 Z M 261.124 168.188 " transform="matrix(0.976562,0,0,0.976562,0,0)"/>
<path style=" stroke:none;fill-rule:nonzero;fill:rgb(0%,0%,0%);fill-opacity:1;" d="M 235.160156 37.453125 L 263.800781 37.453125 L 263.800781 89.460938 L 235.160156 89.460938 Z M 235.160156 37.453125 "/>
<path style="fill-rule:nonzero;fill:rgb(85.490196%,0%,4.705882%);fill-opacity:1;stroke-width:1;stroke-linecap:butt;stroke-linejoin:miter;stroke:rgb(0%,0%,0%);stroke-opacity:1;stroke-miterlimit:4;" d="M 238.752 38.376 L 238.752 82.936 L 248.064 82.936 L 248.064 69.72 C 248.064 66.672 250.016 62.44 256 62.44 C 261.984 62.44 263.936 66.672 263.936 69.72 L 263.936 82.936 L 273.248 82.936 L 273.248 38.372 Z M 254.564 43.376 L 257.44 43.376 L 257.44 58.624 L 254.564 58.624 Z M 246.312 46.376 L 249.22 46.376 L 249.22 57.532 L 246.312 57.532 Z M 262.78 46.376 L 265.688 46.376 L 265.688 57.532 L 262.78 57.532 Z M 235.592 31.968 L 235.592 38.312 L 276.408 38.312 L 276.408 31.968 Z M 231.752 24.592 L 231.752 31.968 L 280.248 31.968 L 280.248 24.592 L 274.156 24.592 L 274.156 28.656 L 267.28 28.656 L 267.28 24.592 L 259.436 24.592 L 259.436 28.656 L 252.56 28.656 L 252.56 24.592 L 244.72 24.592 L 244.72 28.656 L 237.844 28.656 L 237.844 24.592 Z M 222.752 97.844 L 222.752 102.44 L 289.248 102.44 L 289.248 97.844 Z M 222.752 97.844 " transform="matrix(0.976562,0,0,0.976562,0,0)"/>
<path style="fill-rule:nonzero;fill:rgb(85.490196%,0%,4.705882%);fill-opacity:1;stroke-width:1;stroke-linecap:butt;stroke-linejoin:miter;stroke:rgb(0%,0%,0%);stroke-opacity:1;stroke-miterlimit:4;" d="M 220.032 82.904 L 220.032 97.844 L 291.968 97.844 L 291.968 82.904 L 285.156 82.904 L 285.156 88.656 L 276.096 88.656 L 276.096 82.904 L 263.936 82.904 L 263.936 88.656 L 248.064 88.656 L 248.064 82.904 L 235.904 82.904 L 235.904 88.656 L 226.844 88.656 L 226.844 82.904 Z M 220.032 82.904 " transform="matrix(0.976562,0,0,0.976562,0,0)"/>
<path style="fill-rule:nonzero;fill:rgb(85.490196%,0%,4.705882%);fill-opacity:1;stroke-width:1;stroke-linecap:butt;stroke-linejoin:round;stroke:rgb(0%,0%,0%);stroke-opacity:1;stroke-miterlimit:4;" d="M 228.688 102.44 L 228.688 156.78 L 241.532 156.78 L 241.532 136.436 C 241.532 126.856 247.928 122.344 256 122.344 C 263.76 122.344 270.468 126.856 270.468 136.44 L 270.468 156.78 L 283.312 156.78 L 283.312 102.436 Z M 228.688 102.44 " transform="matrix(0.976562,0,0,0.976562,0,0)"/>
</g>
</svg>
