<?xml version="1.0" encoding="UTF-8"?>
<svg xmlns="http://www.w3.org/2000/svg" xmlns:xlink="http://www.w3.org/1999/xlink" width="px" height="px" viewBox="0 0 225 150" version="1.1">
<g id="surface1">
<rect x="0" y="0" width="225" height="150" style="fill:rgb(0%,0%,0%);fill-opacity:1;stroke:none;"/>
<path style=" stroke:none;fill-rule:nonzero;fill:rgb(0%,14.117647%,53.333333%);fill-opacity:1;" d="M 0 0 L 225 0 L 225 50.0625 L 0 50.0625 Z M 0 0 "/>
<path style=" stroke:none;fill-rule:nonzero;fill:rgb(0%,50.196078%,0%);fill-opacity:1;" d="M 62.519531 76.96875 C 62.617188 76.875 64.179688 77.390625 66.035156 78.113281 C 67.886719 78.835938 70.28125 79.515625 71.3125 79.582031 C 73.128906 79.664062 79.558594 82.726562 79.496094 83.460938 C 79.484375 84.152344 69.761719 81.179688 66.355469 79.445312 C 62.265625 77.410156 62.167969 77.308594 62.519531 76.96875 Z M 62.519531 76.96875 "/>
<path style=" stroke:none;fill-rule:nonzero;fill:rgb(0%,50.196078%,0%);fill-opacity:1;" d="M 74.503906 78.386719 C 75.285156 80.296875 78.0625 81.605469 81.789062 81.929688 C 84.308594 82.105469 83.152344 81.019531 79.628906 79.734375 C 77.972656 79.207031 76.046875 78.207031 75.226562 77.613281 C 73.785156 76.496094 73.785156 76.496094 74.503906 78.386719 Z M 39.40625 64.074219 C 41.421875 67.0625 43.714844 69.21875 48.15625 72.207031 C 51.421875 74.433594 54.269531 76.171875 54.40625 76.03125 C 54.683594 75.683594 38.433594 60.597656 37.324219 60.179688 C 36.90625 60.039062 37.808594 61.777344 39.40625 64.074219 Z M 81.214844 79.992188 C 82.722656 80.695312 84.648438 81.25 85.621094 81.28125 C 86.765625 81.320312 86.460938 81.039062 84.320312 80.203125 C 82.644531 79.550781 80.640625 78.449219 79.75 77.765625 C 78.15625 76.460938 78.15625 76.460938 78.320312 77.609375 C 78.417969 78.265625 79.621094 79.285156 81.214844 79.992188 Z M 71.835938 66.425781 C 72.808594 70.320312 76.835938 77.480469 78.226562 77.757812 C 79.476562 77.96875 79.476562 77.898438 78.433594 76.714844 C 76.699219 74.699219 72.949219 67.332031 72.949219 65.941406 C 72.949219 65.175781 72.601562 64.617188 72.183594 64.617188 C 71.699219 64.617188 71.558594 65.3125 71.835938 66.425781 Z M 30.097656 61.542969 C 30.074219 61.679688 31.375 62.6875 33.007812 63.824219 C 34.644531 64.960938 36.546875 66.566406 37.179688 67.382812 C 38.261719 68.84375 44.390625 72.46875 44.964844 72.007812 C 45.53125 71.609375 37.632812 65.203125 34.292969 63.34375 C 30.320312 61.089844 30.179688 61.066406 30.097656 61.542969 Z M 32.335938 66.894531 C 32.335938 67.03125 33.792969 67.796875 35.597656 68.632812 C 37.402344 69.464844 39.554688 70.71875 40.320312 71.414062 C 41.640625 72.664062 48.304688 75.167969 48.792969 74.609375 C 49.277344 74.125 40.390625 69.1875 36.777344 67.9375 C 32.472656 66.40625 32.335938 66.40625 32.335938 66.894531 Z M 63.304688 69.347656 C 65.945312 74.214844 68.652344 77.410156 69.765625 77.0625 C 70.320312 76.855469 69.070312 74.839844 66.359375 71.570312 C 63.929688 68.71875 61.847656 66.21875 61.640625 66.007812 C 61.429688 65.800781 62.195312 67.332031 63.304688 69.347656 Z M 66.71875 67.449219 C 66.71875 68.214844 69.425781 73.5 71.023438 75.722656 C 71.925781 76.972656 72.96875 77.667969 74.148438 77.667969 C 75.886719 77.667969 75.886719 77.667969 73.246094 74.679688 C 71.71875 73.082031 69.703125 70.648438 68.664062 69.328125 C 67.621094 68.003906 66.71875 67.171875 66.71875 67.449219 Z M 60.332031 69.695312 C 60.332031 70.738281 65.410156 77.691406 66.195312 77.691406 C 66.554688 77.691406 65.695312 76.019531 64.195312 74.003906 C 60.835938 69.417969 60.332031 68.929688 60.332031 69.695312 Z M 55.539062 88.855469 C 50.953125 90.660156 49.984375 91.285156 49.984375 92.261719 C 49.984375 92.675781 50.46875 92.609375 51.234375 91.980469 C 51.859375 91.355469 54.148438 90.523438 56.234375 90.035156 C 58.316406 89.550781 60.816406 88.714844 61.789062 88.226562 L 63.523438 87.324219 L 61.441406 87.324219 C 60.328125 87.394531 57.621094 88.089844 55.539062 88.855469 Z M 42.523438 77.042969 C 45.949219 80.160156 57.402344 86.050781 63.203125 87.78125 C 64.777344 88.246094 67.328125 88.351562 68.769531 88.046875 L 71.457031 87.511719 L 68.804688 86.109375 C 64.527344 83.898438 57.5 79.207031 54.976562 76.945312 C 52.230469 74.46875 52.320312 75.324219 55.113281 78.742188 C 56.207031 80.121094 59.433594 82.496094 62.265625 83.980469 C 65.121094 85.53125 67.113281 86.949219 66.789062 87.066406 C 65.9375 87.375 58.105469 82.90625 52.148438 78.714844 C 45.675781 74.117188 45.40625 73.992188 47.816406 76.964844 C 48.996094 78.382812 51.179688 80.324219 52.765625 81.226562 C 54.308594 82.21875 55.363281 83.089844 55.039062 83.210938 C 54.386719 83.449219 50.328125 81.226562 45.027344 77.832031 C 43.550781 76.816406 41.539062 75.550781 40.667969 74.980469 C 39.707031 74.371094 40.566406 75.316406 42.523438 77.042969 Z M 43.027344 76.070312 L 40.25 76.972656 L 42.335938 77.320312 C 43.445312 77.601562 44.902344 77.460938 45.597656 77.113281 C 46.222656 76.765625 47.472656 76.488281 48.375 76.417969 C 49.902344 76.417969 49.902344 76.347656 48.585938 75.792969 C 46.847656 75.027344 46.429688 75.027344 43.027344 76.070312 Z M 46.453125 77.957031 C 45.269531 78.863281 45.339844 78.929688 47.910156 78.515625 C 49.4375 78.304688 51.660156 77.886719 52.769531 77.609375 C 54.578125 77.125 54.4375 77.054688 51.3125 76.984375 C 49.230469 76.914062 47.285156 77.332031 46.453125 77.957031 Z M 29.199219 70.648438 C 40.65625 72.734375 63.644531 80.449219 62.253906 81.773438 C 61.90625 82.121094 55.449219 80.519531 54.546875 79.894531 C 54.199219 79.546875 50.796875 79.6875 47.046875 80.171875 C 40.03125 80.9375 38.851562 81.5625 38.992188 84.414062 C 39.058594 85.804688 39.058594 85.804688 39.40625 84.414062 C 40.03125 81.839844 41.074219 81.285156 45.03125 81.285156 C 49.335938 81.285156 61.144531 83.023438 66.351562 84.414062 C 73.296875 86.359375 73.503906 86.359375 71.210938 85.109375 C 68.226562 83.441406 63.710938 80.382812 62.878906 79.476562 C 61.351562 77.738281 33.644531 70.089844 29.617188 70.230469 C 27.742188 70.371094 27.671875 70.371094 29.199219 70.648438 Z M 34.46875 74.351562 C 33.632812 74.976562 32.730469 76.4375 32.523438 77.621094 C 32.105469 79.636719 32.105469 79.636719 33.21875 78.316406 C 36.132812 74.628906 36.34375 74.492188 39.953125 74.421875 C 42.871094 74.351562 43.285156 74.214844 41.898438 73.796875 C 38.980469 72.890625 36.066406 73.101562 34.46875 74.351562 Z M 69.863281 78.644531 C 70.417969 79.617188 75.835938 82.328125 76.253906 81.910156 C 76.460938 81.703125 75.835938 81.144531 75.003906 80.660156 C 74.101562 80.171875 72.917969 79.40625 72.433594 78.851562 C 71.320312 77.808594 69.238281 77.601562 69.863281 78.644531 Z M 70.28125 85.25 C 70.835938 86.222656 76.253906 88.933594 76.667969 88.515625 C 76.878906 88.308594 76.253906 87.75 75.421875 87.265625 C 74.515625 86.777344 73.335938 86.015625 72.851562 85.457031 C 71.738281 84.414062 69.65625 84.207031 70.28125 85.25 Z M 74.019531 82.050781 C 72.722656 82.554688 71.421875 83.460938 71.015625 84.109375 C 70.539062 84.875 70.941406 84.882812 72.613281 84.042969 C 73.925781 83.386719 75.816406 82.847656 76.855469 82.757812 C 78.796875 82.664062 78.796875 82.664062 77.558594 81.890625 C 76.855469 81.445312 75.351562 81.492188 74.019531 82.050781 Z M 66.023438 87.042969 C 62.066406 90.59375 61.191406 93.074219 62.457031 96.753906 L 63.554688 99.90625 L 63.246094 96.714844 C 62.777344 92.335938 63.957031 90.347656 68.746094 86.886719 C 71 85.277344 72.789062 83.816406 72.746094 83.683594 C 72.511719 82.957031 68.035156 85.144531 66.023438 87.042969 Z M 41.519531 58.621094 C 43.671875 62.722656 52.421875 72.175781 57.285156 75.792969 C 58.601562 76.765625 60.964844 77.738281 62.421875 77.949219 L 65.132812 78.363281 L 63.117188 76.140625 C 59.851562 72.59375 54.851562 65.78125 53.257812 62.789062 C 51.519531 59.523438 51.3125 60.355469 52.769531 64.527344 C 53.324219 66.199219 55.546875 69.535156 57.699219 71.898438 C 59.855469 74.332031 61.242188 76.347656 60.894531 76.347656 C 59.992188 76.347656 54.160156 69.464844 49.992188 63.484375 C 45.480469 56.949219 45.269531 56.742188 46.519531 60.355469 C 47.144531 62.09375 48.535156 64.667969 49.714844 66.058594 C 50.824219 67.519531 51.519531 68.699219 51.171875 68.699219 C 50.480469 68.699219 47.421875 65.222656 43.605469 60.21875 C 42.5625 58.757812 41.105469 56.878906 40.480469 56.046875 C 39.785156 55.144531 40.269531 56.324219 41.519531 58.621094 Z M 63.921875 78.085938 C 63.921875 78.574219 64.960938 79.824219 66.210938 80.796875 C 69.894531 83.578125 79.683594 88.238281 80.933594 87.75 C 81.699219 87.472656 80.515625 86.707031 77.183594 85.457031 C 71.351562 83.164062 66.003906 80.105469 66.003906 79.0625 C 66.003906 78.503906 68.296875 78.433594 73.988281 78.78125 C 82.53125 79.269531 85.101562 78.296875 77.324219 77.601562 C 69.128906 76.765625 63.921875 76.972656 63.921875 78.085938 Z M 45.589844 85.527344 C 42.601562 86.222656 41.003906 87.265625 41.003906 88.515625 C 41.003906 89.003906 41.28125 88.933594 41.628906 88.375 C 42.183594 87.472656 47.878906 85.804688 48.433594 86.359375 C 48.574219 86.5 48.367188 87.542969 47.949219 88.585938 C 47.53125 89.628906 47.394531 90.671875 47.601562 90.878906 C 47.8125 91.15625 48.15625 90.601562 48.367188 89.835938 C 49.199219 86.847656 51.769531 85.941406 57.949219 86.5 C 61.074219 86.777344 64.546875 87.125 65.65625 87.195312 C 66.835938 87.265625 68.433594 87.679688 69.269531 88.167969 C 71.074219 89.140625 78.085938 89.210938 77.460938 88.238281 C 77.253906 87.890625 75.933594 87.402344 74.476562 87.195312 C 73.085938 86.984375 70.171875 86.289062 68.019531 85.734375 C 63.710938 84.621094 49.960938 84.484375 45.589844 85.527344 Z M 70.945312 93.550781 C 65.710938 92.617188 63.222656 93.453125 61.105469 96.71875 L 59.300781 99.523438 L 61.621094 97.320312 C 64.777344 94.25 67.074219 93.957031 72.746094 95.605469 C 75.398438 96.390625 77.648438 96.90625 77.726562 96.789062 C 78.15625 96.15625 73.679688 93.972656 70.945312 93.550781 Z M 64.167969 91.613281 C 54.515625 94.257812 53.40625 95.230469 54.792969 99.609375 C 55.351562 101.277344 55.351562 101.210938 55.417969 99.054688 C 55.488281 97.871094 56.113281 96.203125 56.808594 95.507812 C 58.058594 94.257812 63.683594 92.65625 70.558594 91.546875 C 72.226562 91.335938 73.335938 90.851562 73.128906 90.503906 C 72.570312 89.597656 70.351562 89.875 64.167969 91.613281 Z M 72.375 95.011719 C 67.511719 97.167969 65.914062 99.253906 65.984375 103.144531 L 66.054688 106.484375 L 66.75 103.355469 C 67.652344 99.042969 69.386719 97.515625 75.011719 95.707031 C 77.652344 94.871094 79.804688 94.039062 79.804688 93.898438 C 79.804688 93.132812 74.871094 93.828125 72.375 95.011719 Z M 71.449219 100.980469 C 70.617188 102.09375 69.992188 103.554688 69.992188 104.320312 C 69.992188 105.222656 70.339844 105.015625 71.3125 103.414062 C 72.074219 102.164062 73.394531 100.703125 74.226562 100.078125 C 75.824219 98.964844 75.824219 98.964844 74.367188 98.964844 C 73.535156 98.964844 72.285156 99.800781 71.449219 100.980469 Z M 183.167969 132.804688 C 163.074219 90.683594 163.675781 41.617188 184.800781 0 C 182.628906 -0.644531 173.519531 -4.722656 165.71875 -8.253906 C 157.859375 -11.808594 146.683594 -16.363281 144.585938 -17.648438 C 142.980469 -18.632812 143.125 -19.46875 145.089844 -18.738281 C 147.054688 -18.003906 154.632812 -14.449219 159.996094 -12.097656 C 166.210938 -9.324219 181.8125 -3.25 185.761719 -1.632812 Z M 143.316406 114.996094 C 145.457031 116.203125 156.785156 120.367188 164.761719 123.648438 C 172.679688 126.902344 181.925781 130.660156 184.121094 131.226562 C 177.640625 202.5625 123.148438 260.175781 52.289062 270.617188 C -18.574219 281.054688 -87.367188 241.605469 -114.144531 175.171875 C -140.917969 108.738281 -118.710938 32.609375 -60.417969 -9.007812 C -2.121094 -50.625 77.09375 -46.902344 131.226562 0 C 127.226562 -1.480469 111.421875 -7.003906 105.113281 -9.558594 C 99.671875 -11.722656 91.976562 -15.007812 89.984375 -15.671875 C 87.996094 -16.335938 87.878906 -15.496094 89.519531 -14.566406 Z M 141.0625 117.363281 C 139.136719 116.527344 138.949219 117.355469 140.5 118.421875 C 142.527344 119.816406 153.449219 124.949219 161.113281 128.914062 C 168.714844 132.847656 177.601562 137.394531 179.738281 138.15625 C 179.96875 137.792969 180.308594 137.285156 180.78125 136.574219 C 176.925781 134.75 161.660156 127.871094 155.597656 124.773438 C 150.367188 122.144531 142.984375 118.199219 141.0625 117.363281 Z M 164.097656 113.363281 C 158.410156 111.980469 150.328125 109.796875 148.265625 109.417969 C 146.203125 109.039062 146.207031 109.886719 147.960938 110.578125 C 150.246094 111.476562 162.042969 114.019531 170.398438 116.15625 C 178.691406 118.277344 188.371094 120.707031 190.621094 120.964844 C 190.769531 120.5625 190.984375 119.988281 191.285156 119.191406 C 187.117188 118.28125 170.699219 115.015625 164.097656 113.363281 Z M 160.554688 117.757812 C 155.007812 115.882812 147.148438 113.003906 145.128906 112.445312 C 143.105469 111.886719 143.035156 112.730469 144.722656 113.570312 C 146.921875 114.667969 158.449219 118.230469 166.589844 121.085938 C 174.667969 123.921875 184.097656 127.191406 186.316406 127.644531 C 183.5 199.308594 131.898438 259.691406 61.546875 273.644531 C -8.804688 287.597656 -79.542969 251.480469 -109.496094 186.3125 C -139.453125 121.144531 -120.804688 43.941406 -64.40625 -0.371094 C -8.007812 -44.679688 71.417969 -44.527344 127.644531 0 C 123.570312 -1.269531 107.496094 -5.957031 101.066406 -8.175781 Z M 162.5625 115.660156 C 156.921875 114.082031 148.925781 111.613281 146.878906 111.164062 C 144.828125 110.710938 144.800781 111.558594 146.53125 112.3125 C 148.785156 113.289062 160.484375 116.242188 168.761719 118.671875 C 176.976562 121.078125 186.5625 123.847656 188.804688 124.183594 C 188.964844 123.789062 189.199219 123.21875 189.53125 122.433594 C 185.394531 121.382812 169.101562 117.542969 162.5625 115.660156 Z M 162.5625 115.660156 "/>
<path style=" stroke:none;fill-rule:nonzero;fill:rgb(98.823529%,86.666667%,3.529412%);fill-opacity:1;" d="M 116.273438 133.203125 L 118.523438 134.8125 C 121.746094 137.0625 123.519531 140.1875 123.34375 143.414062 L 123.226562 146.078125 L 124.285156 143.457031 C 125.441406 140.710938 125.28125 136.558594 123.914062 133.484375 L 123.117188 131.691406 L 125.652344 132.792969 C 129.269531 134.324219 131.65625 137.011719 132.152344 140.203125 L 132.589844 142.832031 L 133.082031 140.046875 C 133.644531 137.125 132.625 133.097656 130.648438 130.371094 L 129.496094 128.78125 L 132.203125 129.335938 C 136.0625 130.078125 138.953125 132.210938 140.101562 135.230469 L 141.074219 137.710938 L 140.976562 134.886719 C 140.921875 131.90625 139.085938 128.179688 136.589844 125.925781 L 135.132812 124.613281 L 137.894531 124.589844 C 141.824219 124.511719 145.09375 125.996094 146.84375 128.710938 L 148.3125 130.9375 L 147.628906 128.191406 C 146.957031 125.292969 144.390625 122.027344 141.476562 120.34375 L 139.777344 119.359375 L 142.476562 118.761719 C 146.304688 117.867188 149.808594 118.640625 152.085938 120.929688 L 153.984375 122.800781 L 152.746094 120.261719 C 151.484375 117.5625 148.296875 114.902344 145.097656 113.863281 L 143.230469 113.257812 L 145.746094 112.109375 C 149.304688 110.4375 152.894531 110.464844 155.597656 112.230469 L 157.84375 113.664062 L 156.105469 111.4375 C 154.3125 109.0625 150.640625 107.125 147.292969 106.773438 L 145.34375 106.566406 L 147.566406 104.921875 C 150.699219 102.546875 154.214844 101.824219 157.226562 102.988281 L 159.722656 103.925781 L 157.558594 102.105469 C 155.308594 100.15625 151.316406 99.023438 147.972656 99.378906 L 146.019531 99.582031 L 147.851562 97.511719 C 150.425781 94.535156 153.714844 93.097656 156.902344 93.609375 L 159.535156 94.007812 L 157.039062 92.679688 C 154.4375 91.238281 150.296875 90.964844 147.097656 92.003906 L 145.230469 92.609375 L 146.59375 90.203125 C 148.492188 86.757812 151.410156 84.664062 154.632812 84.503906 L 157.292969 84.34375 L 154.578125 83.5625 C 151.730469 82.699219 147.625 83.289062 144.710938 84.972656 L 143.011719 85.957031 L 143.84375 83.316406 C 144.984375 79.550781 147.40625 76.898438 150.523438 76.070312 L 153.09375 75.359375 L 150.273438 75.160156 C 147.3125 74.90625 143.417969 76.339844 140.917969 78.59375 L 139.460938 79.90625 L 139.726562 77.152344 C 140.058594 73.234375 141.875 70.132812 144.753906 68.671875 L 147.121094 67.445312 L 144.324219 67.835938 C 141.371094 68.203125 137.859375 70.417969 135.882812 73.144531 L 134.730469 74.730469 L 134.417969 71.980469 C 133.929688 68.078125 135.0625 64.667969 137.578125 62.640625 L 139.632812 60.945312 L 136.980469 61.914062 C 134.167969 62.886719 131.195312 65.785156 129.824219 68.859375 L 129.027344 70.65625 L 128.152344 68.03125 C 126.863281 64.3125 127.265625 60.742188 129.300781 58.234375 L 130.960938 56.148438 L 128.566406 57.648438 C 126.019531 59.183594 123.710938 62.636719 123.011719 65.929688 L 122.601562 67.851562 L 121.199219 65.46875 C 119.167969 62.101562 118.820312 58.523438 120.289062 55.648438 L 121.480469 53.261719 L 119.449219 55.226562 C 117.277344 57.261719 115.734375 61.117188 115.734375 64.484375 L 115.734375 66.449219 L 113.871094 64.410156 C 111.183594 61.539062 110.097656 58.109375 110.941406 54.992188 L 111.609375 52.410156 L 110.03125 54.753906 C 108.328125 57.195312 107.621094 61.292969 108.320312 64.585938 L 108.726562 66.507812 L 106.480469 64.898438 C 103.253906 62.648438 101.480469 59.523438 101.65625 56.296875 L 101.777344 53.632812 L 100.71875 56.253906 C 99.558594 58.996094 99.71875 63.148438 101.085938 66.226562 L 101.882812 68.019531 L 99.351562 66.917969 C 95.730469 65.386719 93.347656 62.699219 92.847656 59.507812 L 92.410156 56.878906 L 91.921875 59.660156 C 91.359375 62.585938 92.375 66.613281 94.351562 69.339844 L 95.507812 70.925781 L 92.796875 70.375 C 88.941406 69.632812 86.050781 67.5 84.898438 64.480469 L 83.925781 61.996094 L 84.023438 64.824219 C 84.082031 67.800781 85.914062 71.53125 88.414062 73.78125 L 89.871094 75.097656 L 87.105469 75.121094 C 83.179688 75.195312 79.910156 73.710938 78.15625 71 L 76.6875 68.773438 L 77.371094 71.515625 C 78.046875 74.417969 80.613281 77.683594 83.523438 79.367188 L 85.222656 80.347656 L 82.523438 80.945312 C 78.699219 81.839844 75.191406 81.066406 72.914062 78.777344 L 71.015625 76.90625 L 72.253906 79.449219 C 73.515625 82.144531 76.707031 84.804688 79.902344 85.847656 L 81.769531 86.453125 L 79.253906 87.597656 C 75.695312 89.269531 72.105469 89.246094 69.402344 87.480469 L 67.15625 86.042969 L 68.898438 88.273438 C 70.691406 90.648438 74.363281 92.585938 77.707031 92.9375 L 79.65625 93.140625 L 77.433594 94.785156 C 74.300781 97.164062 70.785156 97.882812 67.773438 96.71875 L 65.28125 95.785156 L 67.445312 97.601562 C 69.691406 99.550781 73.683594 100.683594 77.03125 100.332031 L 78.980469 100.125 L 77.148438 102.195312 C 74.578125 105.171875 71.285156 106.609375 68.101562 106.097656 L 65.464844 105.703125 L 67.960938 107.03125 C 70.5625 108.46875 74.707031 108.746094 77.902344 107.703125 L 79.769531 107.097656 L 78.40625 109.503906 C 76.511719 112.949219 73.589844 115.042969 70.367188 115.207031 L 67.710938 115.363281 L 70.425781 116.144531 C 73.269531 117.011719 77.378906 116.417969 80.289062 114.734375 L 81.988281 113.75 L 81.15625 116.390625 C 80.015625 120.15625 77.597656 122.808594 74.476562 123.640625 L 71.910156 124.351562 L 74.726562 124.546875 C 77.691406 124.800781 81.585938 123.367188 84.085938 121.113281 L 85.542969 119.800781 L 85.273438 122.554688 C 84.941406 126.472656 83.125 129.574219 80.246094 131.035156 L 77.882812 132.261719 L 80.679688 131.871094 C 83.628906 131.503906 87.140625 129.289062 89.117188 126.5625 L 90.273438 124.976562 L 90.582031 127.726562 C 91.070312 131.628906 89.9375 135.039062 87.425781 137.066406 L 85.367188 138.761719 L 88.023438 137.792969 C 90.832031 136.820312 93.808594 133.921875 95.175781 130.847656 L 95.972656 129.054688 L 96.851562 131.675781 C 98.136719 135.394531 97.738281 138.964844 95.699219 141.472656 L 94.039062 143.558594 L 96.4375 142.058594 C 98.984375 140.523438 101.292969 137.070312 101.992188 133.777344 L 102.398438 131.855469 L 103.800781 134.238281 C 105.832031 137.605469 106.183594 141.183594 104.710938 144.0625 L 103.519531 146.445312 L 105.550781 144.480469 C 107.722656 142.449219 109.265625 138.589844 109.265625 135.222656 L 109.265625 133.257812 L 111.132812 135.300781 C 113.816406 138.167969 114.902344 141.597656 114.0625 144.714844 L 113.390625 147.296875 L 114.972656 144.953125 C 116.671875 142.511719 117.378906 138.417969 116.679688 135.121094 L 116.273438 133.203125 "/>
<path style=" stroke:none;fill-rule:nonzero;fill:rgb(98.823529%,86.666667%,3.529412%);fill-opacity:1;" d="M 109.351562 5.605469 C 106.601562 10.132812 106.277344 13.757812 108.152344 20.015625 C 109.054688 22.9375 110.046875 27.296875 110.460938 29.660156 C 111.015625 32.996094 110.960938 33.316406 111.039062 34.039062 C 111.730469 34.039062 113.308594 34.042969 114.039062 34.039062 C 114.144531 32.882812 114.230469 31.550781 114.476562 29.714844 C 114.761719 27.578125 115.613281 23.105469 116.53125 20 C 118.363281 13.792969 118.238281 9.984375 115.390625 5.671875 C 114.351562 4.074219 112.960938 2.753906 112.335938 2.753906 C 111.710938 2.753906 110.296875 3.976562 109.351562 5.605469 Z M 122.84375 18.421875 C 118.953125 20.089844 116.613281 24.710938 115.335938 31.078125 C 115.101562 32.273438 115.042969 32.695312 114.925781 34.042969 C 115.765625 34.042969 116.097656 34.050781 116.917969 34.046875 C 117.097656 33.140625 117.226562 32.660156 117.625 31.375 C 119.191406 26.398438 123.816406 24.402344 123.605469 29.0625 C 123.535156 30.347656 122.996094 31.066406 122.390625 31.753906 C 123.136719 31.566406 124.722656 30.828125 126.007812 30.097656 C 133.160156 25.785156 130.34375 15.222656 122.84375 18.421875 Z M 106.953125 35.664062 C 110.089844 35.679688 115.515625 35.703125 118.121094 35.691406 C 118.121094 35.019531 118.132812 35.363281 118.136719 34.820312 C 116.21875 34.804688 108.875 34.832031 106.964844 34.832031 C 106.972656 35.179688 106.960938 35.351562 106.953125 35.664062 Z M 107.875 39.34375 C 106.742188 40.566406 104.976562 41.476562 104.976562 41.476562 C 104.976562 41.476562 106.539062 41.652344 107.996094 41.546875 C 109.457031 41.441406 110.265625 41.257812 111.125 40.839844 C 110.890625 42.578125 110.878906 44.257812 110.878906 44.257812 C 111.089844 46.496094 111.332031 47.070312 111.816406 48.160156 C 112.472656 49.070312 112.855469 49.074219 113.339844 48.113281 C 113.863281 47.039062 114.207031 45.933594 114.316406 44.25 C 114.277344 42.984375 114.207031 42.40625 113.90625 40.863281 C 114.917969 41.300781 115.554688 41.414062 117.058594 41.546875 C 118.597656 41.6875 120.015625 41.617188 120.015625 41.617188 C 120.015625 41.617188 117.933594 40.574219 117.019531 39.292969 C 116.117188 38.027344 116.308594 38.242188 115.652344 36.609375 C 114.851562 36.574219 110.804688 36.609375 109.519531 36.609375 C 108.816406 38.097656 108.742188 38.40625 107.875 39.34375 Z M 102.15625 18.421875 C 106.046875 20.089844 108.386719 24.707031 109.664062 31.074219 C 109.898438 32.269531 109.957031 32.691406 110.074219 34.039062 C 109.234375 34.042969 108.902344 34.046875 108.082031 34.042969 C 107.902344 33.136719 107.773438 32.65625 107.375 31.371094 C 105.808594 26.394531 101.183594 24.398438 101.394531 29.058594 C 101.464844 30.34375 102.003906 31.0625 102.609375 31.753906 C 101.863281 31.566406 100.277344 30.824219 98.992188 30.09375 C 91.839844 25.785156 94.65625 15.222656 102.15625 18.421875 Z M 102.15625 18.421875 "/>
<path style=" stroke:none;fill-rule:nonzero;fill:rgb(98.823529%,86.666667%,3.529412%);fill-opacity:1;" d="M 39.976562 5.605469 C 37.226562 10.132812 36.902344 13.757812 38.777344 20.015625 C 39.679688 22.9375 40.671875 27.296875 41.085938 29.660156 C 41.640625 32.996094 41.585938 33.316406 41.664062 34.039062 C 42.355469 34.039062 43.933594 34.042969 44.664062 34.039062 C 44.769531 32.882812 44.855469 31.550781 45.101562 29.714844 C 45.386719 27.578125 46.238281 23.105469 47.15625 20 C 48.988281 13.792969 48.863281 9.984375 46.015625 5.671875 C 44.976562 4.074219 43.585938 2.753906 42.960938 2.753906 C 42.335938 2.753906 40.921875 3.976562 39.976562 5.605469 Z M 53.46875 18.421875 C 49.578125 20.089844 47.238281 24.710938 45.960938 31.078125 C 45.726562 32.273438 45.667969 32.695312 45.550781 34.042969 C 46.390625 34.042969 46.722656 34.050781 47.542969 34.046875 C 47.722656 33.140625 47.851562 32.660156 48.25 31.375 C 49.816406 26.398438 54.441406 24.402344 54.230469 29.0625 C 54.160156 30.347656 53.621094 31.066406 53.015625 31.753906 C 53.761719 31.566406 55.347656 30.828125 56.632812 30.097656 C 63.785156 25.785156 60.96875 15.222656 53.46875 18.421875 Z M 37.578125 35.664062 C 40.714844 35.679688 46.140625 35.703125 48.746094 35.691406 C 48.746094 35.019531 48.757812 35.363281 48.761719 34.820312 C 46.84375 34.804688 39.5 34.832031 37.589844 34.832031 C 37.597656 35.179688 37.585938 35.351562 37.578125 35.664062 Z M 38.5 39.34375 C 37.367188 40.566406 35.601562 41.476562 35.601562 41.476562 C 35.601562 41.476562 37.164062 41.652344 38.621094 41.546875 C 40.082031 41.441406 40.890625 41.257812 41.75 40.839844 C 41.515625 42.578125 41.503906 44.257812 41.503906 44.257812 C 41.714844 46.496094 41.957031 47.070312 42.441406 48.160156 C 43.097656 49.070312 43.480469 49.074219 43.964844 48.113281 C 44.488281 47.039062 44.832031 45.933594 44.941406 44.25 C 44.902344 42.984375 44.832031 42.40625 44.53125 40.863281 C 45.542969 41.300781 46.179688 41.414062 47.683594 41.546875 C 49.222656 41.6875 50.640625 41.617188 50.640625 41.617188 C 50.640625 41.617188 48.558594 40.574219 47.644531 39.292969 C 46.742188 38.027344 46.933594 38.242188 46.277344 36.609375 C 45.476562 36.574219 41.429688 36.609375 40.144531 36.609375 C 39.441406 38.097656 39.367188 38.40625 38.5 39.34375 Z M 32.78125 18.421875 C 36.671875 20.089844 39.011719 24.707031 40.289062 31.074219 C 40.523438 32.269531 40.582031 32.691406 40.699219 34.039062 C 39.859375 34.042969 39.527344 34.046875 38.707031 34.042969 C 38.527344 33.136719 38.398438 32.65625 38 31.371094 C 36.433594 26.394531 31.808594 24.398438 32.019531 29.058594 C 32.089844 30.34375 32.628906 31.0625 33.234375 31.753906 C 32.488281 31.566406 30.902344 30.824219 29.617188 30.09375 C 22.464844 25.785156 25.28125 15.222656 32.78125 18.421875 Z M 32.78125 18.421875 "/>
<path style=" stroke:none;fill-rule:nonzero;fill:rgb(98.823529%,86.666667%,3.529412%);fill-opacity:1;" d="M 178.726562 5.605469 C 175.976562 10.132812 175.652344 13.757812 177.527344 20.015625 C 178.429688 22.9375 179.421875 27.296875 179.835938 29.660156 C 180.390625 32.996094 180.335938 33.316406 180.414062 34.039062 C 181.105469 34.039062 182.683594 34.042969 183.414062 34.039062 C 183.519531 32.882812 183.605469 31.550781 183.851562 29.714844 C 184.136719 27.578125 184.988281 23.105469 185.90625 20 C 187.738281 13.792969 187.613281 9.984375 184.765625 5.671875 C 183.726562 4.074219 182.335938 2.753906 181.710938 2.753906 C 181.085938 2.753906 179.671875 3.976562 178.726562 5.605469 Z M 192.21875 18.421875 C 188.328125 20.089844 185.988281 24.710938 184.710938 31.078125 C 184.476562 32.273438 184.417969 32.695312 184.300781 34.042969 C 185.140625 34.042969 185.472656 34.050781 186.292969 34.046875 C 186.472656 33.140625 186.601562 32.660156 187 31.375 C 188.566406 26.398438 193.191406 24.402344 192.980469 29.0625 C 192.910156 30.347656 192.371094 31.066406 191.765625 31.753906 C 192.511719 31.566406 194.097656 30.828125 195.382812 30.097656 C 202.535156 25.785156 199.71875 15.222656 192.21875 18.421875 Z M 176.328125 35.664062 C 179.464844 35.679688 184.890625 35.703125 187.496094 35.691406 C 187.496094 35.019531 187.507812 35.363281 187.511719 34.820312 C 185.59375 34.804688 178.25 34.832031 176.339844 34.832031 C 176.347656 35.179688 176.335938 35.351562 176.328125 35.664062 Z M 177.25 39.34375 C 176.117188 40.566406 174.351562 41.476562 174.351562 41.476562 C 174.351562 41.476562 175.914062 41.652344 177.371094 41.546875 C 178.832031 41.441406 179.640625 41.257812 180.5 40.839844 C 180.265625 42.578125 180.253906 44.257812 180.253906 44.257812 C 180.464844 46.496094 180.707031 47.070312 181.191406 48.160156 C 181.847656 49.070312 182.230469 49.074219 182.714844 48.113281 C 183.238281 47.039062 183.582031 45.933594 183.691406 44.25 C 183.652344 42.984375 183.582031 42.40625 183.28125 40.863281 C 184.292969 41.300781 184.929688 41.414062 186.433594 41.546875 C 187.972656 41.6875 189.390625 41.617188 189.390625 41.617188 C 189.390625 41.617188 187.308594 40.574219 186.394531 39.292969 C 185.492188 38.027344 185.683594 38.242188 185.027344 36.609375 C 184.226562 36.574219 180.179688 36.609375 178.894531 36.609375 C 178.191406 38.097656 178.117188 38.40625 177.25 39.34375 Z M 171.53125 18.421875 C 175.421875 20.089844 177.761719 24.707031 179.039062 31.074219 C 179.273438 32.269531 179.332031 32.691406 179.449219 34.039062 C 178.609375 34.042969 178.277344 34.046875 177.457031 34.042969 C 177.277344 33.136719 177.148438 32.65625 176.75 31.371094 C 175.183594 26.394531 170.558594 24.398438 170.769531 29.058594 C 170.839844 30.34375 171.378906 31.0625 171.984375 31.753906 C 171.238281 31.566406 169.652344 30.824219 168.367188 30.09375 C 161.214844 25.785156 164.03125 15.222656 171.53125 18.421875 Z M 171.53125 18.421875 "/>
</g>
</svg>
