<?xml version="1.0" encoding="UTF-8"?>
<svg xmlns="http://www.w3.org/2000/svg" xmlns:xlink="http://www.w3.org/1999/xlink" width="px" height="px" viewBox="0 0 600 400" version="1.1">
<g id="surface1">
<rect x="0" y="0" width="600" height="400" style="fill:rgb(89.019608%,12.941176%,9.411765%);fill-opacity:1;stroke:none;"/>
<path style=" stroke:none;fill-rule:nonzero;fill:rgb(100%,100%,100%);fill-opacity:1;" d="M 0 0 L 600 0 L 600 266.667969 L 0 266.667969 Z M 0 0 "/>
<path style=" stroke:none;fill-rule:nonzero;fill:rgb(24.313725%,60.392157%,0%);fill-opacity:1;" d="M 0 0 L 600 0 L 600 133.332031 L 0 133.332031 Z M 0 0 "/>
<path style=" stroke:none;fill-rule:nonzero;fill:rgb(0%,45.098039%,80.784314%);fill-opacity:1;" d="M 0 0 L 0 400 L 150 200 Z M 0 0 "/>
<path style="fill-rule:nonzero;fill:rgb(100%,100%,100%);fill-opacity:1;stroke-width:4.8;stroke-linecap:butt;stroke-linejoin:miter;stroke:rgb(0%,0%,0%);stroke-opacity:1;stroke-miterlimit:4;" d="M 1608 958.804688 L 1990.992188 958.804688 L 1990.992188 1360.007812 C 1990.992188 1495.007812 1815 1390.992188 1800 1462.992188 C 1774.007812 1389 1609.007812 1495.992188 1609.007812 1351.992188 C 1609.007812 1212 1608 958.804688 1608 958.804688 Z M 1608 958.804688 " transform="matrix(0.166667,0,0,0.166667,0,0)"/>
<path style="fill-rule:nonzero;fill:rgb(45.098039%,27.058824%,16.862745%);fill-opacity:1;stroke-width:1;stroke-linecap:butt;stroke-linejoin:miter;stroke:rgb(0%,0%,0%);stroke-opacity:1;stroke-miterlimit:4;" d="M 1827 1399.007812 C 1827 1399.007812 1822.007812 1404 1813.007812 1399.992188 C 1804.007812 1396.007812 1803 1143 1803 1143 C 1822.992188 1120.992188 1839 1114.007812 1839 1114.007812 L 1851 1123.992188 C 1806 1147.007812 1810.007812 1180.007812 1813.992188 1237.007812 C 1815 1258.007812 1815 1285.007812 1819.992188 1311 C 1827 1344 1840.992188 1372.007812 1842 1393.007812 C 1843.007812 1405.992188 1827 1399.007812 1827 1399.007812 Z M 1827 1399.007812 " transform="matrix(0.166667,0,0,0.166667,0,0)"/>
<path style="fill-rule:nonzero;fill:rgb(45.098039%,27.058824%,16.862745%);fill-opacity:1;stroke-width:1;stroke-linecap:butt;stroke-linejoin:miter;stroke:rgb(0%,0%,0%);stroke-opacity:1;stroke-miterlimit:4;" d="M 1795.992188 1108.007812 L 1813.992188 1108.007812 C 1798.992188 1252.992188 1812 1339.007812 1812 1381.007812 C 1812 1395 1819.992188 1399.992188 1819.007812 1399.992188 C 1801.007812 1420.007812 1792.007812 1399.007812 1792.007812 1399.007812 Z M 1795.992188 1108.007812 " transform="matrix(0.166667,0,0,0.166667,0,0)"/>
<path style="fill-rule:nonzero;fill:rgb(63.921569%,40%,16.078431%);fill-opacity:1;stroke-width:1;stroke-linecap:butt;stroke-linejoin:miter;stroke:rgb(0%,0%,0%);stroke-opacity:1;stroke-miterlimit:4;" d="M 1768.007812 1399.007812 C 1750.992188 1407 1749 1390.992188 1750.007812 1389 C 1786.992188 1314 1803 1149 1768.992188 1131 L 1771.007812 1114.992188 C 1783.992188 1119 1795.992188 1135.992188 1795.992188 1135.992188 C 1801.007812 1321.007812 1795.992188 1396.992188 1792.992188 1399.992188 C 1774.992188 1419 1768.007812 1396.992188 1767 1395 " transform="matrix(0.166667,0,0,0.166667,0,0)"/>
<path style="fill:none;stroke-width:1;stroke-linecap:butt;stroke-linejoin:miter;stroke:rgb(0%,0%,0%);stroke-opacity:1;stroke-miterlimit:4;" d="M 1767 1396.007812 C 1764 1380 1792.992188 1339.007812 1791 1296 M 1816.007812 1330.992188 C 1825.007812 1356 1828.992188 1378.007812 1827 1399.007812 " transform="matrix(0.166667,0,0,0.166667,0,0)"/>
<path style="fill-rule:nonzero;fill:rgb(0%,60.392157%,23.137255%);fill-opacity:1;stroke-width:1;stroke-linecap:butt;stroke-linejoin:miter;stroke:rgb(0%,0%,0%);stroke-opacity:1;stroke-miterlimit:4;" d="M 1855.007812 1039.992188 C 1861.007812 1033.007812 1861.007812 1033.007812 1872 1033.007812 C 1873.992188 1018.007812 1899 1018.007812 1900.992188 1036.992188 C 1921.007812 1033.007812 1924.992188 1045.007812 1917 1057.007812 C 1936.007812 1051.992188 1953 1057.007812 1948.007812 1078.992188 C 1981.992188 1087.992188 1969.007812 1111.992188 1954.007812 1117.007812 C 1951.992188 1132.007812 1938 1137 1918.992188 1131 C 1894.992188 1147.992188 1881 1141.992188 1870.007812 1125 C 1843.007812 1129.007812 1840.992188 1123.007812 1828.992188 1108.007812 C 1807.992188 1117.007812 1804.007812 1117.007812 1786.007812 1105.992188 C 1785 1120.007812 1780.007812 1116 1771.007812 1114.992188 C 1771.992188 1132.992188 1765.007812 1141.007812 1749 1135.007812 C 1761 1159.992188 1729.992188 1171.007812 1714.992188 1150.007812 C 1701 1150.992188 1699.992188 1147.007812 1693.007812 1141.992188 C 1687.007812 1162.007812 1665 1159.007812 1660.992188 1147.992188 C 1633.007812 1144.007812 1636.007812 1129.007812 1659 1128 C 1660.992188 1111.992188 1675.007812 1114.992188 1684.007812 1117.007812 C 1684.992188 1107 1690.992188 1108.992188 1696.007812 1111.007812 C 1693.007812 1104 1695 1099.992188 1704 1098 C 1690.992188 1081.007812 1699.007812 1075.007812 1711.992188 1069.007812 C 1705.007812 1053 1717.007812 1054.007812 1726.007812 1053 C 1725 1036.007812 1729.992188 1033.007812 1747.992188 1030.992188 C 1746 1024.992188 1749 1020 1759.007812 1020 C 1753.007812 1003.007812 1761 999.09375 1779 1002 C 1782 977.296875 1834.992188 988.992188 1831.007812 1023 C 1846.007812 1024.992188 1851 1027.992188 1855.007812 1039.992188 Z M 1855.007812 1039.992188 " transform="matrix(0.166667,0,0,0.166667,0,0)"/>
<path style="fill:none;stroke-width:1;stroke-linecap:butt;stroke-linejoin:miter;stroke:rgb(0%,0%,0%);stroke-opacity:1;stroke-miterlimit:4;" d="M 1747.992188 1030.992188 C 1752 1033.007812 1756.992188 1030.992188 1758 1042.007812 C 1765.992188 1027.992188 1776 1036.007812 1776 1051.992188 M 1831.007812 1023 C 1827 1029 1812 1029 1813.992188 1045.007812 C 1809 1038 1798.992188 1036.007812 1795.007812 1042.992188 M 1855.007812 1039.992188 C 1855.007812 1044 1854 1056 1849.992188 1062 M 1917 1057.007812 C 1918.007812 1057.992188 1903.007812 1057.007812 1896 1062 M 1954.007812 1117.007812 C 1950 1114.992188 1942.007812 1110 1936.007812 1117.992188 C 1936.007812 1114.007812 1936.007812 1102.992188 1924.992188 1102.992188 M 1918.992188 1131 C 1918.992188 1120.992188 1917 1117.992188 1915.007812 1114.992188 M 1885.992188 1117.007812 C 1878 1111.007812 1870.007812 1120.007812 1870.007812 1125 M 1828.007812 1108.007812 C 1828.007812 1104 1825.007812 1096.007812 1831.992188 1093.007812 M 1714.007812 1150.007812 C 1716 1140 1723.007812 1140 1722 1135.007812 C 1720.992188 1126.992188 1711.992188 1120.007812 1701 1131 M 1722 1135.007812 C 1728 1132.992188 1734 1134 1735.992188 1137 M 1705.007812 1098 C 1708.992188 1093.992188 1719 1095 1725 1098 M 1725 1074 C 1729.992188 1074 1738.992188 1072.007812 1741.992188 1081.007812 C 1753.007812 1063.992188 1761 1066.007812 1762.992188 1069.992188 M 1783.007812 1068 C 1791 1065 1804.992188 1072.992188 1813.007812 1087.007812 C 1816.992188 1075.992188 1822.992188 1078.007812 1828.992188 1077 M 1867.007812 1087.007812 C 1879.992188 1081.007812 1888.007812 1093.007812 1891.992188 1098 C 1897.992188 1090.007812 1903.007812 1090.007812 1909.007812 1090.007812 M 1746 1111.007812 C 1749 1105.992188 1756.007812 1105.007812 1761 1108.007812 C 1759.992188 1099.007812 1765.992188 1095 1770 1096.992188 " transform="matrix(0.166667,0,0,0.166667,0,0)"/>
<path style="fill-rule:nonzero;fill:rgb(100%,84.313725%,0%);fill-opacity:1;stroke-width:3.5;stroke-linecap:butt;stroke-linejoin:miter;stroke:rgb(0%,0%,0%);stroke-opacity:1;stroke-miterlimit:4;" d="M 1786.992188 902.601562 L 1765.007812 903.609375 L 1753.992188 923.296875 L 1741.992188 904.5 L 1720.007812 905.390625 L 1729.992188 885.609375 L 1717.992188 866.789062 L 1741.007812 865.804688 L 1750.992188 846.09375 L 1762.992188 864.890625 L 1785 864 L 1774.992188 883.804688 Z M 1693.007812 909.890625 L 1671 915.304688 L 1665 936.609375 L 1648.992188 920.601562 L 1627.992188 925.804688 L 1633.992188 904.5 L 1618.992188 888.304688 L 1639.992188 883.007812 L 1645.992188 861.609375 L 1662 877.59375 L 1684.007812 872.390625 L 1677 893.789062 Z M 1602 928.59375 L 1582.007812 938.507812 L 1581 960.703125 L 1561.992188 948.492188 L 1542 958.289062 L 1543.992188 936.09375 L 1525.007812 923.789062 L 1545 913.804688 L 1546.992188 891.609375 L 1564.992188 903.796875 L 1585.007812 894 L 1584 916.195312 Z M 1816.007812 902.601562 L 1837.992188 903.609375 L 1848 923.296875 L 1860 904.5 L 1882.007812 905.390625 L 1872 885.609375 L 1884 866.789062 L 1861.992188 865.804688 L 1851 846.09375 L 1839 864.890625 L 1816.992188 864 L 1827 883.804688 Z M 1909.992188 909.890625 L 1930.992188 915.304688 L 1936.992188 936.609375 L 1953 920.601562 L 1974 925.804688 L 1968 904.5 L 1984.007812 888.304688 L 1962 883.007812 L 1956 861.609375 L 1939.992188 877.59375 L 1918.992188 872.390625 L 1924.992188 893.789062 Z M 1999.992188 928.59375 L 2020.007812 938.507812 L 2020.992188 960.703125 L 2040 948.492188 L 2059.992188 958.289062 L 2059.007812 936.09375 L 2077.007812 923.789062 L 2056.992188 913.804688 L 2056.007812 891.609375 L 2037 903.796875 L 2017.007812 894 L 2019 916.195312 Z M 1999.992188 928.59375 " transform="matrix(0.166667,0,0,0.166667,0,0)"/>
<path style="fill-rule:nonzero;fill:rgb(100%,100%,100%);fill-opacity:1;stroke-width:3.5;stroke-linecap:butt;stroke-linejoin:miter;stroke:rgb(0%,0%,0%);stroke-opacity:1;stroke-miterlimit:4;" d="M 2026.992188 1351.992188 L 2052 1387.992188 L 2074.992188 1354.007812 L 2059.007812 1324.992188 Z M 1867.992188 1456.992188 L 1870.007812 1492.992188 C 1870.007812 1492.992188 1879.992188 1492.992188 1888.992188 1489.992188 C 1897.007812 1486.992188 1903.992188 1480.992188 1903.992188 1480.992188 L 1903.007812 1462.007812 Z M 1734 1456.992188 L 1732.007812 1492.007812 C 1732.007812 1492.007812 1723.007812 1492.007812 1714.007812 1489.992188 C 1705.992188 1488 1699.007812 1483.007812 1699.007812 1483.007812 L 1689 1459.007812 Z M 1573.007812 1351.992188 L 1546.992188 1387.992188 L 1519.007812 1342.007812 L 1540.007812 1320 Z M 1573.007812 1351.992188 " transform="matrix(0.166667,0,0,0.166667,0,0)"/>
<path style="fill-rule:nonzero;fill:rgb(100%,100%,100%);fill-opacity:1;stroke-width:3.5;stroke-linecap:butt;stroke-linejoin:miter;stroke:rgb(0%,0%,0%);stroke-opacity:1;stroke-miterlimit:4;" d="M 1698 1528.992188 C 1698 1563 1903.992188 1563 1903.992188 1528.992188 L 1903.992188 1480.992188 C 1903.992188 1506 1698 1501.007812 1698 1480.992188 Z M 1698 1528.992188 " transform="matrix(0.166667,0,0,0.166667,0,0)"/>
<path style="fill-rule:nonzero;fill:rgb(100%,100%,100%);fill-opacity:1;stroke-width:3.5;stroke-linecap:butt;stroke-linejoin:miter;stroke:rgb(0%,0%,0%);stroke-opacity:1;stroke-miterlimit:4;" d="M 1513.992188 1417.992188 C 1531.992188 1510.007812 1698 1512 1698 1512 L 1698 1480.992188 C 1693.992188 1468.992188 1701 1465.007812 1728 1461 C 1738.992188 1459.992188 1734 1444.007812 1734 1444.007812 C 1734 1444.007812 1662 1456.992188 1611 1437 C 1542 1408.992188 1531.992188 1354.992188 1531.992188 1354.992188 C 1531.992188 1354.992188 1527 1396.992188 1513.992188 1417.992188 Z M 2086.992188 1417.992188 C 2070 1510.007812 1903.992188 1512 1903.992188 1512 L 1903.992188 1480.992188 C 1906.992188 1468.992188 1900.007812 1465.007812 1873.007812 1461 C 1861.992188 1459.992188 1867.992188 1444.007812 1867.992188 1444.007812 C 1867.992188 1444.007812 1939.992188 1456.992188 1990.992188 1437 C 2059.007812 1408.992188 2067 1354.992188 2067 1354.992188 C 2067 1354.992188 2074.007812 1396.992188 2086.992188 1417.992188 Z M 2086.992188 1417.992188 " transform="matrix(0.166667,0,0,0.166667,0,0)"/>
<path style="fill-rule:nonzero;fill:rgb(100%,100%,100%);fill-opacity:1;stroke-width:3.5;stroke-linecap:butt;stroke-linejoin:miter;stroke:rgb(0%,0%,0%);stroke-opacity:1;stroke-miterlimit:4;" d="M 1527 1383 C 1480.992188 1357.992188 1516.992188 1332 1521 1258.007812 C 1528.007812 1303.007812 1579.007812 1321.992188 1573.007812 1351.007812 C 1552.007812 1351.992188 1542 1320 1531.992188 1354.992188 Z M 2074.007812 1383 C 2119.992188 1357.007812 2082 1332 2077.992188 1258.007812 C 2071.007812 1303.007812 2020.992188 1321.992188 2026.992188 1351.007812 C 2047.007812 1351.992188 2056.992188 1320 2067 1354.992188 L 2074.007812 1381.992188 Z M 2074.007812 1383 " transform="matrix(0.166667,0,0,0.166667,0,0)"/>
<path style=" stroke:none;fill-rule:nonzero;fill:rgb(0%,0%,0%);fill-opacity:1;" d="M 259.167969 236.167969 L 260 236.832031 L 258.167969 238.832031 C 257.433594 239.632812 257.253906 240.164062 257.765625 240.652344 C 258.398438 241.253906 258.84375 241.046875 259.5 240.332031 L 261.5 238.167969 L 262.167969 238.832031 L 260.167969 241.164062 C 259.082031 242.429688 258.078125 242.140625 257.230469 241.351562 C 256.496094 240.664062 256.074219 239.667969 257.15625 238.441406 L 259.171875 236.175781 Z M 262.5 239 L 263.332031 239.5 L 263.167969 243.5 L 265 240.667969 L 265.832031 241.167969 L 263.167969 245.5 L 262.167969 245 L 262.332031 241 L 260.5 243.832031 L 259.667969 243.332031 Z M 264 246 L 266.332031 241.332031 L 267.167969 241.832031 L 265 246.332031 Z M 267.667969 242 L 265.828125 246.828125 L 267.667969 247.5 C 269.382812 248.125 270.1875 247.371094 270.730469 245.921875 C 271.28125 244.445312 271.042969 243.359375 269.328125 242.671875 Z M 268.328125 243.171875 C 270.050781 243.769531 270.15625 244.425781 269.6875 245.609375 C 269.230469 246.734375 268.808594 247.175781 267.167969 246.328125 Z M 273.167969 243.832031 L 270.167969 248.332031 L 271.328125 248.671875 L 271.996094 247.503906 L 273.996094 248.003906 L 274.167969 249.171875 L 275.328125 249.332031 L 274.167969 244.003906 Z M 273.496094 245.003906 L 273.828125 247.003906 L 272.496094 246.832031 Z M 276.015625 244.265625 L 275.835938 249.433594 L 277.796875 249.46875 C 279.621094 249.503906 280.140625 248.535156 280.183594 246.984375 C 280.230469 245.410156 279.648438 244.460938 277.800781 244.367188 Z M 277.015625 245.164062 C 278.84375 245.171875 279.15625 245.753906 279.09375 247.027344 C 279.03125 248.242188 278.765625 248.792969 276.945312 248.523438 Z M 293.5 251.5 L 293.5 256.828125 L 294.671875 256.828125 L 294.671875 254.828125 C 294.671875 254.828125 295.671875 254.890625 296.5 254.671875 C 297.15625 254.5 297.609375 254.078125 297.625 253.046875 C 297.640625 252.03125 297.050781 251.5 296.03125 251.5 L 293.496094 251.5 Z M 294.671875 252.328125 L 295.84375 252.34375 C 296.824219 252.34375 296.640625 253.828125 295.875 253.828125 L 294.671875 253.828125 Z M 299.5 251.5 L 297.328125 256.828125 L 298.5 256.828125 L 299 255.5 L 301.171875 255.5 L 301.671875 256.828125 L 302.828125 256.828125 L 300.664062 251.496094 L 299.496094 251.496094 Z M 300 252.671875 L 300.828125 254.671875 L 299.328125 254.671875 Z M 302.832031 255.832031 L 305.667969 252.332031 L 303.167969 252.332031 L 303.167969 251.5 L 307.167969 251.5 L 307.167969 252.332031 L 304.167969 255.832031 L 307.167969 255.832031 L 307.167969 256.832031 L 302.832031 256.832031 Z M 319.667969 245.5 L 320.667969 245.332031 L 321.167969 248.332031 C 321.34375 249.398438 320.855469 250.128906 320.097656 250.40625 C 319.234375 250.726562 318.128906 250.433594 318 249 L 318.832031 248.832031 C 319.027344 249.691406 319.371094 249.765625 319.773438 249.632812 C 320.089844 249.523438 320.253906 249.023438 320.167969 248.5 Z M 321.332031 245.199219 L 322.320312 245.011719 L 322.777344 247.507812 C 322.972656 248.578125 323.308594 249.03125 324 248.910156 C 324.863281 248.761719 324.957031 248.277344 324.773438 247.324219 L 324.160156 244.664062 L 325.171875 244.511719 L 325.839844 247.28125 C 326.234375 248.902344 325.386719 249.542969 324.25 249.753906 C 323.261719 249.941406 322.207031 249.6875 321.863281 248.089844 Z M 326.5 247.5 L 327.332031 247.167969 C 327.742188 247.902344 328.378906 247.863281 328.875 247.644531 C 329.566406 247.339844 329.644531 246.738281 329.304688 246.535156 C 328.816406 246.242188 327.65625 246.65625 327.035156 246.425781 C 326.285156 246.15625 325.964844 245.734375 326.003906 245.089844 C 326.050781 244.3125 326.734375 243.882812 327.476562 243.652344 C 328.3125 243.394531 329.132812 243.484375 329.667969 244.5 L 328.667969 244.832031 C 328.339844 244.285156 327.921875 244.3125 327.550781 244.488281 C 327.238281 244.632812 326.753906 244.910156 327.011719 245.355469 C 327.226562 245.71875 328.449219 245.480469 329.097656 245.507812 C 329.765625 245.535156 330.304688 245.980469 330.394531 246.621094 C 330.519531 247.519531 330.1875 248.003906 329.152344 248.40625 C 327.875 248.902344 326.722656 248.347656 326.5 247.5 Z M 331 243.332031 L 329.667969 244 L 329.332031 243.167969 L 333 241.667969 L 333.332031 242.332031 L 332 243 L 333.5 246.667969 L 332.667969 247.167969 Z M 333.167969 241.5 L 334 241 L 336.332031 245.332031 L 335.5 245.832031 Z M 338.832031 241.832031 L 339.832031 241.5 C 340.304688 242.488281 339.597656 244.285156 337.871094 244.25 C 335.34375 244.195312 335.070312 241.410156 335.46875 240.492188 C 336.136719 238.949219 338.003906 238.980469 338.832031 239.832031 L 338 240.5 C 337.472656 239.820312 336.296875 240.25 336.21875 240.871094 C 336.089844 241.890625 336.539062 242.835938 337.445312 243.285156 C 338.21875 243.667969 339.40625 242.710938 338.832031 241.832031 Z M 338.332031 238.332031 L 339.167969 237.667969 L 342.167969 241.667969 L 341.332031 242.332031 Z M 341.5 235.832031 L 340.671875 236.503906 L 342.5 241.503906 L 343.328125 240.671875 L 342.828125 239.671875 L 344.328125 238.332031 L 345.328125 238.832031 L 346.171875 238.171875 Z M 341.828125 237.003906 L 343.5 237.832031 L 342.5 238.832031 Z M 341.828125 237.003906 "/>
</g>
</svg>
