<?xml version="1.0" encoding="UTF-8"?>
<svg xmlns="http://www.w3.org/2000/svg" xmlns:xlink="http://www.w3.org/1999/xlink" width="px" height="px" viewBox="0 0 410 220" version="1.1">
<g id="surface1">
<rect x="0" y="0" width="410" height="220" style="fill:rgb(77.647059%,12.941176%,22.352941%);fill-opacity:1;stroke:none;"/>
<path style=" stroke:none;fill-rule:evenodd;fill:rgb(0%,16.078431%,48.235294%);fill-opacity:1;" d="M 10 10 L 400 10 L 400 210 L 10 210 Z M 10 10 "/>
<path style=" stroke:none;fill-rule:evenodd;fill:rgb(57.254902%,85.882353%,98.823529%);fill-opacity:1;" d="M 205.109375 54.078125 C 205.109375 54.078125 170.863281 81.332031 170.863281 109.636719 C 170.863281 137.949219 205.109375 165.921875 205.109375 165.921875 C 205.109375 165.921875 239.136719 139.984375 239.136719 109.636719 C 239.136719 79.292969 205.109375 54.078125 205.109375 54.078125 Z M 205.109375 54.078125 "/>
<path style=" stroke:none;fill-rule:evenodd;fill:rgb(0%,54.901961%,90.588235%);fill-opacity:1;" d="M 174.652344 126.914062 C 183.5625 148.320312 205.109375 165.921875 205.109375 165.921875 C 205.109375 165.921875 227.039062 149.207031 235.6875 126.914062 "/>
<path style=" stroke:none;fill-rule:evenodd;fill:rgb(61.176471%,51.764706%,19.215686%);fill-opacity:1;" d="M 235.808594 120.738281 C 230.527344 124.515625 200.820312 122.699219 200.820312 122.699219 L 199.15625 126.929688 L 234.53125 127.039062 C 234.679688 126.460938 235.03125 125.769531 235.15625 125.183594 Z M 235.808594 120.738281 "/>
<path style=" stroke:none;fill-rule:evenodd;fill:rgb(100%,87.058824%,32.156863%);fill-opacity:1;" d="M 182.648438 138.242188 C 184.152344 138.292969 185.652344 138.609375 186.996094 139.332031 C 189.402344 140.59375 190.796875 140.582031 193.390625 140.625 C 196.105469 140.664062 198.234375 142.664062 201.167969 142.746094 C 206.570312 142.898438 208.839844 145.582031 204.640625 145.578125 C 202.65625 145.578125 198.402344 144.246094 196.347656 144.523438 C 193.21875 144.839844 191.414062 145.078125 189.101562 146.917969 C 186.898438 144.273438 184.695312 141.363281 182.648438 138.242188 Z M 193.335938 151.710938 C 194.675781 150.796875 195.597656 150.078125 196.898438 150.039062 C 199.425781 149.964844 200.289062 148.398438 203.207031 148.402344 C 206.527344 149.011719 211.023438 148.003906 213.65625 147.417969 C 218.328125 146.34375 216.113281 143.074219 213.285156 141.886719 C 210.996094 140.90625 206.710938 141.835938 204.050781 140.867188 C 202.039062 140.078125 203.699219 138.828125 204.78125 138.558594 C 205.875 138.359375 207.046875 138.71875 208.40625 138.941406 C 210.832031 139.15625 213.878906 138.929688 216.011719 138.597656 C 220.414062 137.921875 220.234375 136.628906 222.359375 136.601562 C 223.910156 136.527344 225.09375 136.066406 226.152344 135.3125 C 227.394531 134.480469 228.6875 132.777344 230.195312 132.847656 L 231.078125 132.886719 C 221.789062 150.855469 205.101562 162.65625 205.101562 162.65625 C 205.101562 162.65625 199.710938 158.527344 193.335938 151.710938 Z M 193.335938 151.710938 "/>
<path style=" stroke:none;fill-rule:evenodd;fill:rgb(54.901961%,25.882353%,0%);fill-opacity:1;" d="M 214.695312 138.546875 C 215.269531 140.777344 215.878906 141.535156 218.222656 142.109375 C 220.535156 142.679688 224.070312 140.433594 221.878906 138.25 C 219.796875 136.21875 217.601562 135.699219 215.734375 133.875 C 212.835938 131 208.863281 125.0625 206.972656 119.449219 C 204.910156 113.3125 205.265625 96.03125 205.359375 87.277344 C 205.363281 87.175781 205.609375 87.113281 205.640625 87.074219 C 205.773438 86.878906 205.902344 87.136719 205.691406 85.851562 C 205.636719 85.523438 205.378906 85.183594 205.378906 84.851562 C 205.378906 84.257812 203.332031 85.5 202.789062 86.558594 C 202.667969 86.800781 203.183594 87.488281 203.183594 87.625 C 203.253906 96.023438 202.347656 112.605469 204.578125 120.109375 C 205.960938 124.757812 208.476562 128.347656 210.753906 131.667969 C 212.121094 133.792969 214.097656 136.089844 214.695312 138.546875 Z M 214.695312 138.546875 "/>
<path style=" stroke:none;fill-rule:nonzero;fill:rgb(100%,100%,100%);fill-opacity:1;" d="M 189.140625 113.960938 C 189.113281 113.957031 189.007812 113.945312 188.910156 113.929688 C 188.195312 113.84375 187.4375 113.542969 186.878906 113.128906 C 186.085938 112.535156 185.558594 111.589844 185.382812 110.425781 C 185.335938 110.101562 185.335938 109.265625 185.386719 108.945312 C 185.523438 108.046875 185.855469 107.257812 186.328125 106.679688 C 186.464844 106.507812 186.734375 106.246094 186.898438 106.125 C 187.285156 105.828125 187.785156 105.597656 188.3125 105.46875 C 188.691406 105.375 188.925781 105.347656 189.378906 105.335938 C 190.007812 105.320312 190.453125 105.375 190.953125 105.542969 C 191.589844 105.75 192.085938 106.09375 192.4375 106.558594 C 192.671875 106.871094 192.976562 107.566406 193.023438 107.890625 C 193.042969 108.066406 192.972656 108.195312 192.820312 108.261719 C 192.769531 108.28125 192.523438 108.355469 192.269531 108.425781 C 191.761719 108.558594 191.691406 108.5625 191.578125 108.46875 C 191.503906 108.40625 191.476562 108.355469 191.410156 108.148438 C 191.378906 108.0625 191.304688 107.886719 191.242188 107.757812 C 191.148438 107.5625 191.105469 107.503906 190.976562 107.375 C 190.847656 107.242188 190.789062 107.203125 190.59375 107.109375 C 190.164062 106.898438 189.679688 106.828125 189.125 106.894531 C 188.714844 106.945312 188.273438 107.109375 187.996094 107.320312 C 187.378906 107.785156 187.03125 108.703125 187.070312 109.789062 C 187.117188 111.269531 187.742188 112.082031 189.035156 112.339844 C 189.28125 112.390625 189.824219 112.390625 190.085938 112.339844 C 190.472656 112.269531 191.039062 112.046875 191.355469 111.84375 L 191.472656 111.773438 L 191.472656 110.828125 L 190.457031 110.820312 L 189.4375 110.816406 L 189.371094 110.769531 C 189.335938 110.742188 189.289062 110.695312 189.261719 110.65625 C 189.21875 110.59375 189.21875 110.585938 189.21875 110.03125 C 189.21875 109.476562 189.21875 109.46875 189.265625 109.40625 C 189.289062 109.371094 189.339844 109.320312 189.375 109.296875 L 189.441406 109.25 L 191.183594 109.253906 L 192.929688 109.257812 L 192.992188 109.304688 C 193.027344 109.328125 193.078125 109.382812 193.105469 109.425781 L 193.148438 109.496094 L 193.152344 110.945312 C 193.15625 112.484375 193.152344 112.546875 193.0625 112.65625 C 193.035156 112.691406 192.914062 112.789062 192.796875 112.875 C 191.972656 113.480469 191.09375 113.84375 190.191406 113.945312 C 189.960938 113.972656 189.285156 113.980469 189.140625 113.960938 Z M 198.265625 114.039062 C 197.351562 113.96875 196.664062 113.695312 196.160156 113.210938 C 195.664062 112.734375 195.417969 112.132812 195.308594 111.136719 C 195.277344 110.859375 195.277344 110.566406 195.277344 108.308594 C 195.28125 105.878906 195.285156 105.789062 195.320312 105.714844 C 195.34375 105.671875 195.390625 105.613281 195.429688 105.582031 L 195.5 105.53125 L 196.101562 105.523438 C 196.679688 105.519531 196.703125 105.519531 196.789062 105.5625 C 196.839844 105.589844 196.894531 105.636719 196.921875 105.679688 L 196.96875 105.753906 L 196.976562 108.363281 C 196.980469 110.660156 196.984375 110.992188 197.011719 111.175781 C 197.089844 111.648438 197.164062 111.824219 197.386719 112.042969 C 197.664062 112.320312 197.953125 112.421875 198.5 112.441406 C 199.003906 112.457031 199.351562 112.398438 199.648438 112.253906 C 199.988281 112.089844 200.144531 111.824219 200.261719 111.222656 C 200.304688 110.996094 200.304688 110.960938 200.320312 108.386719 C 200.339844 105.472656 200.324219 105.714844 200.484375 105.59375 L 200.554688 105.539062 L 201.179688 105.539062 C 201.875 105.542969 201.855469 105.539062 201.964844 105.6875 L 202.023438 105.757812 L 202.023438 108.097656 C 202.027344 110.445312 202.015625 110.9375 201.953125 111.378906 C 201.820312 112.320312 201.507812 112.914062 200.90625 113.378906 C 200.703125 113.539062 200.621094 113.589844 200.421875 113.6875 C 200.117188 113.84375 199.765625 113.945312 199.367188 114.003906 C 199.160156 114.03125 198.476562 114.054688 198.265625 114.039062 Z M 206.433594 113.910156 C 206.40625 113.90625 206.347656 113.863281 206.300781 113.816406 C 206.203125 113.722656 206.179688 113.632812 206.207031 113.511719 C 206.242188 113.363281 209.199219 105.734375 209.246094 105.675781 C 209.339844 105.550781 209.363281 105.546875 210.054688 105.546875 C 210.746094 105.546875 210.773438 105.554688 210.867188 105.675781 C 210.894531 105.710938 211.625 107.488281 212.496094 109.625 C 213.882812 113.019531 214.078125 113.519531 214.078125 113.613281 C 214.078125 113.726562 214.035156 113.804688 213.925781 113.882812 C 213.863281 113.929688 213.859375 113.929688 213.167969 113.925781 L 212.476562 113.925781 L 212.398438 113.867188 C 212.304688 113.792969 212.304688 113.800781 211.855469 112.628906 C 211.652344 112.097656 211.476562 111.640625 211.464844 111.625 C 211.449219 111.589844 211.363281 111.585938 210.078125 111.585938 C 208.789062 111.582031 208.703125 111.585938 208.691406 111.617188 C 208.683594 111.636719 208.511719 112.113281 208.304688 112.675781 C 208.101562 113.238281 207.914062 113.726562 207.890625 113.761719 C 207.871094 113.796875 207.824219 113.847656 207.789062 113.871094 C 207.726562 113.917969 207.714844 113.917969 207.101562 113.917969 C 206.761719 113.921875 206.460938 113.917969 206.433594 113.910156 Z M 210.859375 110.007812 C 210.832031 109.921875 210.097656 107.960938 210.078125 107.914062 C 210.070312 107.894531 210.0625 107.902344 210.046875 107.945312 C 210.011719 108.046875 209.261719 110.046875 209.253906 110.0625 C 209.246094 110.070312 209.613281 110.078125 210.066406 110.082031 L 210.890625 110.082031 Z M 217.125 113.902344 C 217.035156 113.878906 216.941406 113.777344 216.917969 113.683594 C 216.90625 113.632812 216.902344 112.335938 216.910156 109.675781 L 216.921875 105.746094 L 216.976562 105.675781 C 217.082031 105.539062 217.074219 105.539062 218.019531 105.542969 C 218.808594 105.542969 218.875 105.546875 218.941406 105.578125 C 218.976562 105.601562 219.027344 105.644531 219.050781 105.679688 C 219.074219 105.710938 219.515625 107.007812 220.027344 108.550781 C 220.542969 110.097656 220.96875 111.363281 220.976562 111.363281 C 220.980469 111.363281 221.417969 110.109375 221.949219 108.574219 C 222.554688 106.828125 222.933594 105.75 222.96875 105.703125 C 223.074219 105.550781 223.0625 105.550781 223.929688 105.554688 C 224.667969 105.554688 224.703125 105.554688 224.773438 105.59375 C 224.8125 105.617188 224.867188 105.671875 224.894531 105.710938 L 224.945312 105.785156 L 224.941406 109.738281 C 224.933594 113.460938 224.929688 113.691406 224.894531 113.753906 C 224.878906 113.789062 224.828125 113.84375 224.785156 113.871094 L 224.714844 113.929688 L 224.109375 113.925781 C 223.511719 113.925781 223.507812 113.925781 223.441406 113.878906 C 223.40625 113.855469 223.359375 113.804688 223.332031 113.769531 L 223.285156 113.707031 L 223.28125 111.4375 L 223.273438 109.171875 L 223.167969 109.472656 C 223.109375 109.640625 222.75 110.667969 222.371094 111.757812 C 221.703125 113.667969 221.675781 113.746094 221.597656 113.824219 C 221.550781 113.875 221.492188 113.910156 221.453125 113.917969 C 221.414062 113.925781 221.164062 113.933594 220.890625 113.933594 C 220.417969 113.929688 220.394531 113.929688 220.308594 113.886719 C 220.257812 113.859375 220.199219 113.8125 220.175781 113.777344 C 220.15625 113.742188 219.785156 112.679688 219.359375 111.414062 C 218.933594 110.148438 218.574219 109.113281 218.566406 109.113281 C 218.558594 109.113281 218.550781 110.136719 218.546875 111.394531 C 218.542969 113.945312 218.554688 113.757812 218.394531 113.863281 L 218.3125 113.917969 L 217.75 113.917969 C 217.441406 113.921875 217.160156 113.914062 217.125 113.902344 Z M 217.125 113.902344 "/>
<path style=" stroke:none;fill-rule:nonzero;fill:rgb(74.117647%,2.745098%,15.686275%);fill-opacity:1;" d="M 189.085938 113.613281 C 188.0625 113.496094 187.140625 113.039062 186.585938 112.378906 C 186.117188 111.824219 185.8125 111.089844 185.714844 110.265625 C 185.683594 109.996094 185.683594 109.351562 185.71875 109.089844 C 185.835938 108.195312 186.191406 107.355469 186.699219 106.78125 C 187.566406 105.796875 189.367188 105.398438 190.828125 105.871094 C 191.75 106.167969 192.300781 106.730469 192.613281 107.695312 C 192.65625 107.832031 192.6875 107.945312 192.683594 107.949219 C 192.671875 107.957031 191.886719 108.171875 191.828125 108.183594 C 191.792969 108.1875 191.777344 108.15625 191.726562 108.003906 C 191.578125 107.578125 191.359375 107.222656 191.113281 107.027344 C 190.578125 106.597656 189.820312 106.441406 188.933594 106.574219 C 188.367188 106.664062 187.804688 106.953125 187.480469 107.328125 C 186.996094 107.890625 186.753906 108.578125 186.726562 109.484375 C 186.695312 110.386719 186.859375 111.070312 187.234375 111.636719 C 187.84375 112.5625 189.265625 112.972656 190.53125 112.59375 C 190.933594 112.472656 191.375 112.265625 191.6875 112.042969 L 191.828125 111.941406 L 191.832031 111.214844 L 191.832031 110.484375 L 190.691406 110.480469 L 189.546875 110.480469 L 189.546875 109.585938 L 191.179688 109.59375 L 192.8125 109.59375 L 192.808594 111.015625 L 192.808594 112.4375 L 192.628906 112.566406 C 191.894531 113.109375 191.15625 113.4375 190.367188 113.574219 C 190.078125 113.625 189.382812 113.644531 189.085938 113.613281 Z M 198.132812 113.679688 C 197.394531 113.601562 196.816406 113.363281 196.40625 112.964844 C 196.035156 112.605469 195.824219 112.15625 195.710938 111.503906 C 195.632812 111.035156 195.625 110.792969 195.628906 108.300781 L 195.632812 105.855469 L 196.132812 105.859375 L 196.632812 105.859375 L 196.636719 108.464844 C 196.640625 111.234375 196.640625 111.191406 196.746094 111.609375 C 196.878906 112.140625 197.277344 112.535156 197.84375 112.699219 C 198.296875 112.832031 198.910156 112.835938 199.425781 112.707031 C 200.035156 112.554688 200.367188 112.222656 200.53125 111.601562 C 200.660156 111.121094 200.660156 111.167969 200.671875 108.40625 L 200.683594 105.867188 L 201.683594 105.867188 L 201.679688 108.222656 C 201.675781 109.582031 201.664062 110.710938 201.652344 110.894531 C 201.566406 112.089844 201.257812 112.734375 200.535156 113.222656 C 200.25 113.417969 199.859375 113.566406 199.433594 113.644531 C 199.25 113.679688 198.34375 113.703125 198.132812 113.679688 Z M 206.589844 113.464844 C 206.613281 113.402344 207.28125 111.675781 208.070312 109.621094 L 209.515625 105.890625 L 210.054688 105.886719 L 210.597656 105.882812 L 212.148438 109.699219 C 213.003906 111.800781 213.707031 113.535156 213.714844 113.554688 C 213.730469 113.589844 213.695312 113.59375 213.164062 113.59375 L 212.597656 113.589844 L 212.5 113.335938 C 212.445312 113.195312 212.246094 112.671875 212.054688 112.175781 L 211.710938 111.273438 L 210.082031 111.265625 L 208.453125 111.253906 L 208.027344 112.417969 L 207.605469 113.582031 L 206.542969 113.582031 Z M 211.378906 110.394531 C 211.371094 110.375 211.148438 109.777344 210.882812 109.070312 C 210.621094 108.367188 210.320312 107.546875 210.222656 107.246094 C 210.125 106.949219 210.039062 106.703125 210.035156 106.695312 C 210.03125 106.691406 209.992188 106.820312 209.953125 106.984375 C 209.820312 107.53125 209.695312 107.90625 209.230469 109.132812 C 208.980469 109.804688 208.765625 110.371094 208.757812 110.390625 C 208.746094 110.425781 208.816406 110.429688 210.066406 110.429688 C 211.3125 110.433594 211.386719 110.429688 211.378906 110.394531 Z M 217.257812 109.726562 L 217.265625 105.871094 L 218.019531 105.878906 L 218.777344 105.886719 L 219.796875 108.957031 C 220.355469 110.644531 220.847656 112.132812 220.886719 112.265625 C 220.925781 112.390625 220.960938 112.496094 220.96875 112.492188 C 220.972656 112.484375 221.097656 112.121094 221.246094 111.679688 C 221.398438 111.238281 221.910156 109.757812 222.382812 108.386719 L 223.246094 105.894531 L 223.921875 105.890625 L 224.601562 105.886719 L 224.59375 109.738281 L 224.585938 113.59375 L 224.105469 113.589844 L 223.628906 113.589844 L 223.632812 110.351562 C 223.636719 108.574219 223.632812 107.128906 223.621094 107.136719 C 223.609375 107.148438 223.136719 108.496094 222.566406 110.128906 C 222 111.761719 221.496094 113.207031 221.449219 113.339844 L 221.359375 113.585938 L 220.457031 113.585938 L 219.359375 110.324219 C 218.753906 108.527344 218.25 107.046875 218.242188 107.027344 C 218.230469 107.011719 218.21875 108.476562 218.214844 110.289062 L 218.207031 113.578125 L 217.253906 113.578125 Z M 217.257812 109.726562 "/>
<path style=" stroke:none;fill-rule:evenodd;fill:rgb(6.27451%,58.039216%,12.941176%);fill-opacity:1;" d="M 183.824219 84.796875 C 183.96875 84.996094 183.949219 85.859375 183.949219 85.859375 C 184.066406 85.933594 186 84.214844 186 84.292969 C 186 84.65625 186.042969 85.398438 186.042969 85.398438 C 186.042969 85.398438 188.042969 83.496094 188.128906 83.699219 C 188.21875 83.921875 188.121094 85.023438 188.121094 85.023438 C 188.121094 85.023438 189.449219 83.558594 189.695312 83.292969 C 189.871094 83.105469 189.839844 83.53125 189.859375 84.222656 C 189.863281 84.34375 192.039062 82.617188 192.171875 82.585938 C 192.453125 82.523438 192.539062 83.484375 192.523438 83.722656 C 192.511719 83.902344 194.535156 82.570312 194.445312 82.746094 L 194.59375 83.769531 C 195.15625 83.691406 196.5 83.191406 197.304688 83.320312 C 197.566406 83.363281 197.550781 83.492188 197.320312 83.585938 C 193.433594 85.160156 190.441406 87.535156 188.699219 90.839844 C 188.105469 91.96875 187.921875 92.949219 188.078125 93.199219 C 188.078125 93.199219 188.777344 91.695312 189.566406 91.457031 C 189.671875 91.425781 189.742188 92.421875 189.851562 92.363281 C 189.851562 92.363281 190.449219 90.855469 190.878906 90.300781 C 190.992188 90.152344 191.1875 91.09375 191.308594 90.953125 C 191.308594 90.953125 191.621094 89.945312 192.226562 89.242188 C 192.3125 89.140625 192.46875 90.195312 192.566406 90.105469 C 193.195312 89.527344 193.785156 88.070312 194.023438 87.964844 C 194.1875 87.835938 194.214844 89.171875 194.371094 89.058594 C 194.371094 89.058594 195.269531 87.253906 195.808594 86.929688 C 196.152344 86.714844 196.136719 87.914062 196.136719 87.914062 C 196.820312 87.238281 197.574219 86.117188 197.933594 85.632812 C 198.097656 85.410156 198.007812 87.105469 198.183594 87.171875 C 198.40625 87.261719 199.882812 85.875 200.046875 85.84375 C 200.15625 85.824219 200.285156 86.238281 200 86.574219 C 199.976562 86.597656 198.175781 88.675781 198.175781 88.675781 C 198.527344 88.738281 198.664062 88.640625 198.914062 88.707031 C 199.660156 88.90625 197.515625 90.136719 197.550781 90.367188 C 197.550781 90.367188 198.585938 90.347656 198.238281 90.546875 C 197.988281 90.691406 196.625 92.453125 196.625 92.390625 C 196.625 92.355469 197.308594 92.40625 197.304688 92.601562 C 197.300781 92.964844 196.171875 94.847656 196.160156 94.835938 C 196.097656 94.773438 196.765625 94.753906 196.855469 94.9375 C 197.023438 95.28125 195.695312 96.800781 195.953125 97.0625 C 195.992188 97.097656 196.710938 97.070312 197.035156 97.144531 C 197.1875 97.179688 197.625 99.90625 197.515625 99.796875 C 197.488281 99.769531 197.980469 97.238281 198.273438 96.46875 C 198.457031 96 199.035156 97.171875 199.085938 97.066406 C 199.058594 97.066406 198.96875 95.402344 199.046875 94.644531 C 199.070312 94.433594 199.488281 94.867188 199.484375 94.664062 C 199.46875 94.207031 199.429688 93.714844 199.523438 93.265625 C 199.597656 92.929688 199.953125 93.875 200.089844 93.621094 C 200.089844 93.621094 199.660156 91.972656 199.839844 91.507812 C 199.957031 91.203125 200.246094 92.25 200.433594 92.289062 C 200.433594 92.289062 200.328125 91.007812 200.527344 90.679688 L 201.125 91.320312 C 201.253906 91.117188 201.230469 89.121094 201.351562 88.933594 C 201.453125 88.777344 202.074219 89.679688 202.167969 89.539062 C 202.25 89.410156 201.902344 87.929688 201.980469 87.8125 C 202.089844 87.644531 202.773438 88.222656 202.785156 88.214844 C 203.0625 87.933594 203.054688 87.234375 203.171875 86.976562 C 203.484375 86.277344 205.285156 86.183594 205.496094 86.683594 C 205.601562 86.925781 205.527344 87.238281 205.488281 87.613281 C 205.503906 87.628906 206.386719 87.691406 206.394531 87.625 C 206.394531 87.625 206.289062 88.449219 206.351562 89.359375 C 206.363281 89.480469 207.25 89.328125 207.261719 89.449219 C 207.34375 90.308594 207.144531 90.386719 207.144531 90.386719 C 207.152344 90.449219 207.746094 90.296875 207.753906 90.363281 C 207.820312 90.777344 207.683594 91.289062 207.417969 91.777344 C 207.378906 91.847656 208.265625 91.707031 208.28125 91.789062 C 208.386719 92.433594 208.40625 92.941406 208.296875 93.851562 C 208.289062 93.921875 209.164062 93.210938 209.175781 93.28125 C 209.308594 94.046875 209.15625 94.871094 209.234375 95.660156 C 209.253906 95.84375 209.816406 95.113281 209.867188 95.324219 C 209.917969 95.535156 209.742188 97.046875 209.828125 97.128906 C 209.828125 97.128906 210.765625 97.082031 210.851562 97.164062 C 211.59375 97.863281 211.453125 99.082031 211.453125 99.082031 C 211.65625 98.933594 211.578125 97.460938 211.375 96.117188 C 211.351562 95.972656 212.09375 96.027344 212.074219 95.898438 C 212.074219 95.898438 211.257812 95.40625 210.988281 94.039062 C 210.929688 93.746094 211.777344 93.804688 211.777344 93.804688 C 211.542969 93.265625 211.128906 93.164062 210.78125 92.644531 C 210.667969 92.476562 211.65625 92.398438 211.65625 92.347656 C 211.660156 91.832031 210.820312 91.589844 210.386719 91.050781 C 210.203125 90.824219 211.292969 90.8125 211.292969 90.8125 C 210.972656 90.367188 209.921875 90.171875 209.382812 89.585938 C 209.089844 89.265625 210.449219 88.953125 210.433594 88.898438 C 210.285156 88.425781 209.003906 88.277344 208.386719 87.746094 C 208.257812 87.636719 209.195312 87.269531 209.195312 87.269531 C 209.101562 87.066406 207.058594 85.722656 208.097656 85.847656 C 208.535156 85.898438 209.425781 86.523438 209.496094 86.429688 C 209.496094 86.429688 209.457031 85.644531 209.546875 85.550781 C 209.890625 85.195312 211.070312 87.058594 211.46875 86.984375 C 211.46875 86.984375 211.617188 85.648438 211.796875 85.613281 C 212.230469 85.53125 212.753906 87.554688 213.179688 87.554688 C 213.238281 87.554688 213.269531 86.386719 213.488281 86.320312 C 213.734375 86.25 214.011719 87.632812 214.328125 87.9375 C 214.617188 88.21875 214.621094 86.859375 214.792969 87.117188 C 215.082031 87.535156 215.152344 88.40625 215.546875 88.789062 C 215.804688 89.039062 215.851562 87.585938 216.136719 87.78125 C 216.464844 88.007812 216.386719 88.757812 216.761719 89.128906 C 216.9375 89.304688 217.058594 88.171875 217.261719 88.335938 C 217.4375 88.484375 217.558594 89.871094 217.753906 90.089844 C 218 90.367188 218.28125 89.359375 218.539062 89.519531 C 218.71875 89.636719 218.675781 90.835938 218.847656 91.09375 C 219.195312 91.625 219.375 90.449219 219.605469 90.628906 C 219.765625 90.753906 220.117188 92.132812 220.261719 92.242188 C 220.582031 92.488281 220.761719 91.613281 221.007812 91.738281 C 221.183594 91.824219 221.542969 93.601562 221.691406 93.554688 C 221.789062 93.523438 222.027344 89.507812 220.480469 87.8125 C 217.960938 85.050781 213.449219 83.453125 209.769531 83.414062 C 209.769531 83.414062 211.617188 83.046875 211.667969 82.738281 C 211.765625 82.128906 212.683594 82.203125 213.324219 82.339844 C 213.4375 82.367188 213.378906 81.261719 213.394531 81.257812 C 213.964844 81.242188 214.476562 81.582031 215.027344 81.914062 C 215.195312 82.019531 214.679688 80.808594 214.863281 80.914062 C 215.566406 81.320312 216.347656 81.4375 216.820312 81.929688 C 216.945312 82.0625 216.679688 81 216.679688 81 C 217.027344 80.914062 217.722656 81.421875 217.996094 81.894531 C 218.128906 82.128906 217.988281 80.65625 218.089844 80.917969 C 218.089844 80.917969 219.316406 81.335938 219.449219 81.851562 C 219.449219 81.851562 219.546875 80.917969 219.710938 80.964844 C 220.203125 81.09375 220.636719 81.921875 221.019531 82.042969 C 221.019531 82.042969 220.859375 81.210938 220.984375 81.242188 C 221.90625 81.476562 222.910156 82.046875 222.90625 82.042969 C 222.386719 80.742188 220.414062 79.378906 216.949219 79.015625 C 216.3125 78.949219 213.726562 78.84375 211.539062 79.351562 C 209.742188 79.765625 208.324219 80.003906 208.617188 79.71875 C 209.804688 78.558594 211.722656 78.417969 212.25 78.144531 C 212.625 77.953125 210.976562 77.316406 211.304688 77.226562 C 211.628906 77.148438 213.101562 77.027344 213.101562 77.027344 C 213.421875 76.777344 212.03125 76.289062 212.238281 75.925781 C 212.65625 75.199219 215.113281 75.859375 215.324219 75.582031 C 215.390625 75.492188 214.265625 74.824219 214.3125 74.726562 C 214.492188 74.359375 216.679688 75 216.734375 74.679688 C 216.734375 74.679688 216.070312 74.183594 215.597656 73.777344 C 215.539062 73.726562 217.550781 73.1875 217.550781 73.1875 C 217.511719 73.148438 217.207031 72.933594 216.746094 72.753906 C 216.324219 72.589844 218.511719 72.019531 218.511719 72.019531 C 215.742188 70.753906 208.550781 74.355469 207.125 78.09375 C 206.753906 78.988281 206.742188 78.019531 206.820312 77.261719 C 206.894531 76.449219 206.996094 75.738281 206.90625 74.988281 C 206.882812 74.769531 206.320312 75.578125 206.28125 75.363281 C 206.136719 74.570312 206.5625 73.699219 206.367188 72.816406 C 206.304688 72.519531 205.558594 73.691406 205.460938 73.394531 C 205.191406 72.582031 205.667969 71.4375 205.472656 70.3125 C 205.398438 69.875 204.691406 71.253906 204.457031 70.859375 C 204.179688 70.402344 204.300781 68.714844 204.171875 68.460938 C 204.066406 68.257812 203.4375 69.269531 203.386719 69.078125 C 202.535156 65.984375 203.664062 65.601562 202.03125 67.34375 C 201.976562 67.40625 201.613281 65.515625 201.550781 65.578125 C 200.882812 67.011719 199.785156 64.558594 199.410156 64.789062 C 199.132812 64.960938 200.175781 65.910156 200.1875 66.335938 C 200.191406 66.542969 199.226562 66.554688 199.226562 66.554688 C 199.246094 66.910156 201.0625 67.898438 201.121094 68.289062 C 201.167969 68.605469 199.835938 68.527344 199.835938 68.527344 C 199.878906 68.960938 201.390625 69.371094 201.476562 69.832031 C 201.523438 70.085938 200.765625 70.140625 200.789062 70.398438 C 200.832031 70.792969 202.253906 71.574219 202.300781 71.976562 C 202.332031 72.253906 201.390625 72.371094 201.367188 72.632812 C 201.339844 72.949219 203.257812 74.003906 203.261719 74.300781 C 203.261719 74.722656 202.496094 74.507812 202.148438 74.71875 C 201.660156 75.015625 203.71875 76.214844 203.804688 76.558594 C 203.875 76.859375 202.984375 76.59375 202.953125 76.867188 C 202.914062 77.226562 203.960938 77.769531 204.203125 78.386719 C 204.441406 78.996094 204.195312 79.148438 203.851562 78.90625 C 203.164062 78.421875 200.378906 75.464844 199.640625 74.679688 C 198.566406 73.53125 196.371094 72.25 194.179688 72.175781 C 193.949219 72.246094 195.359375 73.242188 195.367188 73.601562 C 195.367188 73.695312 194.734375 73.832031 194.761719 73.859375 C 195.152344 74.25 196.363281 74.710938 196.363281 74.710938 L 196.015625 75.339844 C 196.097656 75.519531 196.671875 75.570312 197.589844 75.871094 C 197.589844 75.871094 196.902344 76.300781 196.953125 76.339844 C 197.441406 76.730469 198.386719 77.015625 198.386719 77.015625 L 197.457031 77.328125 C 197.398438 77.507812 199.546875 78.367188 199.546875 78.367188 C 199.546875 78.367188 198.875 78.945312 198.90625 78.976562 C 199.070312 79.140625 200.648438 79.503906 200.648438 79.503906 C 200.675781 79.53125 199.535156 79.886719 199.542969 79.894531 C 199.957031 80.308594 201.097656 80.441406 201.363281 81.125 C 201.363281 81.125 201.519531 81.515625 201.066406 81.441406 C 199.292969 80.796875 196.539062 79.464844 191.207031 79.988281 C 185.75 80.699219 181.597656 85.4375 181.667969 85.910156 C 181.667969 85.910156 183.617188 84.511719 183.824219 84.796875 Z M 183.824219 84.796875 "/>
<path style=" stroke:none;fill-rule:evenodd;fill:rgb(54.901961%,25.882353%,0%);fill-opacity:1;" d="M 204.53125 84.515625 C 204.167969 83.949219 203.4375 83.769531 202.902344 84.113281 C 202.367188 84.457031 202.230469 85.195312 202.59375 85.765625 C 202.960938 86.332031 203.691406 86.511719 204.226562 86.167969 C 204.761719 85.824219 204.898438 85.082031 204.53125 84.515625 Z M 204.53125 84.515625 "/>
<path style=" stroke:none;fill-rule:evenodd;fill:rgb(54.901961%,25.882353%,0%);fill-opacity:1;" d="M 204.375 85.527344 C 204.792969 84.882812 205.628906 84.675781 206.238281 85.070312 C 206.851562 85.460938 207.007812 86.304688 206.589844 86.953125 C 206.171875 87.601562 205.339844 87.808594 204.726562 87.414062 C 204.117188 87.023438 203.957031 86.175781 204.375 85.527344 Z M 204.375 85.527344 "/>
<path style=" stroke:none;fill-rule:evenodd;fill:rgb(54.901961%,25.882353%,0%);fill-opacity:1;" d="M 202.742188 86.574219 C 203.1875 85.878906 204.078125 85.660156 204.730469 86.082031 C 205.382812 86.5 205.550781 87.402344 205.105469 88.09375 C 204.660156 88.785156 203.769531 89.007812 203.117188 88.585938 C 202.464844 88.164062 202.296875 87.265625 202.742188 86.574219 Z M 202.742188 86.574219 "/>
<path style=" stroke:none;fill-rule:evenodd;fill:rgb(0%,0%,0%);fill-opacity:1;" d="M 193.132812 131.726562 L 194.871094 131.726562 L 194.871094 133.027344 L 193.132812 133.027344 Z M 193.132812 131.726562 "/>
<path style=" stroke:none;fill-rule:evenodd;fill:rgb(54.901961%,25.882353%,0%);fill-opacity:1;" d="M 184.449219 132.5625 C 184.449219 132.5625 195.855469 133.433594 202.851562 131.929688 C 202.851562 131.929688 203.441406 132.328125 202.59375 133.316406 C 201.75 134.300781 199.613281 134.511719 198.441406 134.722656 C 198.441406 134.722656 198.15625 135.355469 198.179688 135.6875 C 198.207031 136.015625 198.921875 135.980469 199.273438 135.910156 L 199.625 135.839844 C 199.625 135.839844 199.460938 137.070312 195.140625 137.234375 C 193.726562 137.289062 189.050781 137.386719 188.0625 136.003906 C 188.0625 136.003906 188.917969 136.074219 189.140625 136.003906 C 189.363281 135.933594 189.203125 135.042969 189.121094 134.910156 C 189.039062 134.78125 186.089844 134.910156 184.542969 133.476562 C 184.160156 133.070312 183.976562 132.636719 183.976562 132.480469 C 183.976562 132.46875 184.449219 132.5625 184.449219 132.5625 Z M 190.394531 134.957031 C 190.394531 134.957031 193.515625 135.355469 197.109375 134.957031 C 197.109375 134.957031 197.203125 135.636719 197.039062 135.898438 C 196.875 136.15625 192.730469 136.355469 190.640625 135.992188 C 190.300781 135.882812 190.292969 135.472656 190.394531 134.957031 Z M 190.394531 134.957031 "/>
<path style=" stroke:none;fill-rule:evenodd;fill:rgb(99.215686%,97.647059%,100%);fill-opacity:1;" d="M 186.035156 132.007812 C 186.035156 132.007812 190.269531 127.507812 188.972656 118.113281 C 188.972656 118.113281 193.382812 119.25 197.878906 125.738281 C 197.878906 125.738281 199.191406 127.054688 200.730469 131.753906 Z M 186.035156 132.007812 "/>
<path style=" stroke:none;fill-rule:evenodd;fill:rgb(77.647059%,12.941176%,22.352941%);fill-opacity:1;" d="M 205.117188 50.8125 C 205.117188 50.8125 168.867188 77.796875 168.867188 109.617188 C 168.867188 141.4375 205.117188 169.183594 205.117188 169.183594 C 205.117188 169.183594 241.132812 143.726562 241.132812 109.617188 C 241.132812 75.507812 205.117188 50.8125 205.117188 50.8125 Z M 205.101562 57.34375 C 205.101562 57.34375 172.855469 81.351562 172.855469 109.65625 C 172.855469 137.96875 205.101562 162.65625 205.101562 162.65625 C 205.101562 162.65625 237.144531 140.003906 237.144531 109.65625 C 237.144531 79.3125 205.101562 57.34375 205.101562 57.34375 Z M 205.101562 57.34375 "/>
</g>
</svg>
