<?xml version="1.0" encoding="UTF-8"?>
<svg xmlns="http://www.w3.org/2000/svg" xmlns:xlink="http://www.w3.org/1999/xlink" width="px" height="px" viewBox="0 0 600 300" version="1.1">
<g id="surface1">
<rect x="0" y="0" width="600" height="300" style="fill:rgb(98.823529%,81.960784%,8.627451%);fill-opacity:1;stroke:none;"/>
<path style=" stroke:none;fill-rule:nonzero;fill:rgb(0%,61.960784%,28.627451%);fill-opacity:1;" d="M 0 150 L 600 150 L 600 300 L 0 300 Z M 0 150 "/>
<path style=" stroke:none;fill-rule:nonzero;fill:rgb(80.784314%,6.666667%,14.901961%);fill-opacity:1;" d="M 0 0 L 200 0 L 200 300 L 0 300 Z M 0 0 "/>
<path style=" stroke:none;fill-rule:nonzero;fill:rgb(0%,0%,0%);fill-opacity:1;" d="M 100 100 L 84.550781 147.554688 L 108.324219 155.277344 "/>
<path style=" stroke:none;fill-rule:nonzero;fill:rgb(0%,0%,0%);fill-opacity:1;" d="M 100 100 L 115.449219 147.554688 L 91.675781 155.277344 "/>
<path style=" stroke:none;fill-rule:nonzero;fill:rgb(0%,0%,0%);fill-opacity:1;" d="M 147.554688 134.550781 L 97.554688 134.550781 L 97.554688 159.550781 "/>
<path style=" stroke:none;fill-rule:nonzero;fill:rgb(0%,0%,0%);fill-opacity:1;" d="M 147.554688 134.550781 L 107.101562 163.9375 L 92.40625 143.714844 "/>
<path style=" stroke:none;fill-rule:nonzero;fill:rgb(0%,0%,0%);fill-opacity:1;" d="M 129.390625 190.449219 L 113.9375 142.898438 L 90.160156 150.625 "/>
<path style=" stroke:none;fill-rule:nonzero;fill:rgb(0%,0%,0%);fill-opacity:1;" d="M 129.390625 190.449219 L 88.9375 161.0625 L 103.632812 140.835938 "/>
<path style=" stroke:none;fill-rule:nonzero;fill:rgb(0%,0%,0%);fill-opacity:1;" d="M 70.609375 190.449219 L 111.0625 161.0625 L 96.367188 140.835938 "/>
<path style=" stroke:none;fill-rule:nonzero;fill:rgb(0%,0%,0%);fill-opacity:1;" d="M 70.609375 190.449219 L 86.0625 142.898438 L 109.839844 150.625 "/>
<path style=" stroke:none;fill-rule:nonzero;fill:rgb(0%,0%,0%);fill-opacity:1;" d="M 52.445312 134.550781 L 92.898438 163.9375 L 107.59375 143.714844 "/>
<path style=" stroke:none;fill-rule:nonzero;fill:rgb(0%,0%,0%);fill-opacity:1;" d="M 52.445312 134.550781 L 102.445312 134.550781 L 102.445312 159.550781 "/>
</g>
</svg>
