<?xml version="1.0" encoding="UTF-8"?>
<svg xmlns="http://www.w3.org/2000/svg" xmlns:xlink="http://www.w3.org/1999/xlink" width="px" height="px" viewBox="0 0 450 300" version="1.1">
<g id="surface1">
<rect x="0" y="0" width="450" height="300" style="fill:rgb(87.058824%,16.078431%,6.27451%);fill-opacity:1;stroke:none;"/>
<path style=" stroke:none;fill-rule:nonzero;fill:rgb(100%,100%,100%);fill-opacity:1;" d="M 224.980469 149.957031 C 172.351562 127.714844 195.679688 59.164062 246.015625 62.613281 C 235.835938 67.84375 234.359375 77.609375 240.171875 86.65625 C 246.683594 96.785156 239.574219 113.082031 230.769531 117.039062 C 216.304688 123.550781 213.40625 140.914062 224.980469 149.957031 Z M 224.980469 149.957031 "/>
<path style=" stroke:none;fill-rule:nonzero;fill:rgb(87.058824%,16.078431%,6.27451%);fill-opacity:1;" d="M 222.136719 100.460938 L 219.175781 105.105469 L 218.105469 99.699219 L 212.765625 98.320312 L 217.578125 95.625 L 217.242188 90.125 L 221.285156 93.871094 L 226.410156 91.847656 L 224.105469 96.855469 L 227.609375 101.105469 Z M 225.28125 149.378906 C 218.914062 146.113281 213.78125 139.300781 211.546875 131.164062 C 208.988281 121.828125 210.460938 111.792969 215.585938 103.644531 L 214.484375 102.949219 C 209.164062 111.414062 207.636719 121.820312 210.289062 131.507812 C 212.65625 140.117188 217.898438 147.054688 224.683594 150.539062 Z M 225.28125 149.378906 "/>
<path style=" stroke:none;fill-rule:nonzero;fill:rgb(100%,100%,100%);fill-opacity:1;" d="M 225.035156 149.96875 C 229.925781 93.039062 302.328125 94.046875 314.605469 142.984375 C 306.480469 134.917969 296.738281 136.53125 289.933594 144.855469 C 282.3125 154.179688 264.617188 152.453125 258.128906 145.304688 C 247.464844 133.554688 230.058594 136.167969 225.035156 149.96875 Z M 225.035156 149.96875 "/>
<path style=" stroke:none;fill-rule:nonzero;fill:rgb(87.058824%,16.078431%,6.27451%);fill-opacity:1;" d="M 271.230469 131.96875 L 265.894531 130.589844 L 270.707031 127.898438 L 270.371094 122.394531 L 274.417969 126.136719 L 279.546875 124.117188 L 277.234375 129.121094 L 280.742188 133.375 L 275.269531 132.726562 L 272.304688 137.371094 Z M 225.675781 150.074219 C 226.816406 143.011719 231.707031 136.023438 238.757812 131.382812 C 246.84375 126.066406 256.84375 124.363281 266.175781 126.722656 L 266.5 125.457031 C 256.804688 123.015625 246.4375 124.777344 238.042969 130.296875 C 230.582031 135.207031 225.605469 142.335938 224.390625 149.867188 Z M 225.675781 150.074219 "/>
<path style=" stroke:none;fill-rule:nonzero;fill:rgb(100%,100%,100%);fill-opacity:1;" d="M 225.039062 150.023438 C 280.695312 137.082031 302.109375 206.253906 259.363281 233.050781 C 264.523438 222.832031 259.980469 214.066406 249.957031 210.164062 C 238.734375 205.796875 234.910156 188.433594 239.703125 180.058594 C 247.582031 166.285156 239.71875 150.535156 225.039062 150.023438 Z M 225.039062 150.023438 "/>
<path style=" stroke:none;fill-rule:nonzero;fill:rgb(87.058824%,16.078431%,6.27451%);fill-opacity:1;" d="M 256.4375 188.394531 L 256.097656 182.894531 L 260.144531 186.640625 L 265.277344 184.617188 L 262.964844 189.628906 L 266.46875 193.878906 L 261 193.226562 L 258.039062 197.875 L 256.960938 192.472656 L 251.628906 191.089844 Z M 225.136719 150.667969 C 232.207031 149.566406 240.363281 152.0625 246.957031 157.332031 C 254.511719 163.378906 259.222656 172.363281 259.863281 181.96875 L 261.164062 181.882812 C 260.492188 171.910156 255.609375 162.59375 247.769531 156.3125 C 240.796875 150.738281 232.476562 148.207031 224.9375 149.378906 Z M 225.136719 150.667969 "/>
<path style=" stroke:none;fill-rule:nonzero;fill:rgb(100%,100%,100%);fill-opacity:1;" d="M 224.988281 150.046875 C 254.496094 198.976562 195.328125 240.71875 156.632812 208.34375 C 167.945312 210.097656 174.878906 203.0625 175.492188 192.328125 C 176.175781 180.304688 191.507812 171.300781 200.957031 173.273438 C 216.492188 176.507812 229.039062 164.164062 224.988281 150.046875 Z M 224.988281 150.046875 "/>
<path style=" stroke:none;fill-rule:nonzero;fill:rgb(87.058824%,16.078431%,6.27451%);fill-opacity:1;" d="M 198.199219 191.761719 L 203.324219 189.742188 L 201.011719 194.746094 L 204.523438 199 L 199.042969 198.351562 L 196.082031 203 L 195.015625 197.59375 L 189.675781 196.214844 L 194.484375 193.519531 L 194.152344 188.023438 Z M 224.410156 150.335938 C 227.636719 156.722656 227.789062 165.25 224.8125 173.148438 C 221.394531 182.203125 214.304688 189.457031 205.367188 193.035156 L 205.851562 194.246094 C 215.128906 190.527344 222.484375 183.003906 226.03125 173.605469 C 229.179688 165.25 229.015625 156.554688 225.574219 149.75 Z M 224.410156 150.335938 "/>
<path style=" stroke:none;fill-rule:nonzero;fill:rgb(100%,100%,100%);fill-opacity:1;" d="M 224.953125 150.003906 C 187.535156 193.1875 129.550781 149.816406 148.382812 103.007812 C 150.214844 114.308594 159.042969 118.730469 169.445312 115.996094 C 181.089844 112.929688 194.390625 124.730469 195.4375 134.328125 C 197.160156 150.097656 212.777344 158.21875 224.953125 150.003906 Z M 224.953125 150.003906 "/>
<path style=" stroke:none;fill-rule:nonzero;fill:rgb(87.058824%,16.078431%,6.27451%);fill-opacity:1;" d="M 177 137.414062 L 180.503906 141.667969 L 175.03125 141.015625 L 172.070312 145.667969 L 170.992188 140.257812 L 165.660156 138.875 L 170.46875 136.1875 L 170.132812 130.6875 L 174.179688 134.425781 L 179.304688 132.410156 Z M 224.496094 149.542969 C 219.421875 154.585938 211.359375 157.363281 202.929688 156.976562 C 193.261719 156.523438 184.167969 152.023438 178.003906 144.628906 L 177 145.460938 C 183.40625 153.136719 192.832031 157.804688 202.867188 158.273438 C 211.789062 158.6875 220.003906 155.84375 225.414062 150.46875 Z M 224.496094 149.542969 "/>
</g>
</svg>
