<?xml version="1.0" encoding="UTF-8"?>
<svg xmlns="http://www.w3.org/2000/svg" xmlns:xlink="http://www.w3.org/1999/xlink" width="px" height="px" viewBox="0 0 300 150" version="1.1">
<g id="surface1">
<rect x="0" y="0" width="300" height="150" style="fill:rgb(81.176471%,7.843137%,16.862745%);fill-opacity:1;stroke:none;"/>
<path style="fill-rule:nonzero;fill:rgb(97.647059%,86.666667%,8.627451%);fill-opacity:1;stroke-width:1;stroke-linecap:butt;stroke-linejoin:miter;stroke:rgb(0%,0%,0%);stroke-opacity:1;stroke-miterlimit:4;" d="M 225.96875 126.34375 C 226.1875 126.570312 228.828125 128.164062 228.875 128.078125 C 228.921875 127.984375 235.773438 126.40625 235.726562 126.492188 C 235.6875 126.585938 231.890625 131.09375 232.0625 131.1875 C 232.242188 131.28125 236.03125 135.820312 236.117188 135.859375 C 236.210938 135.90625 228.9375 135.265625 228.9375 135.265625 L 224.132812 139.140625 L 223.054688 134.109375 C 223.054688 134.109375 217.007812 131.976562 216.921875 131.929688 C 216.835938 131.890625 222.09375 130.148438 222.09375 130.148438 L 223.664062 126.046875 C 223.664062 126.046875 225.703125 126.429688 225.96875 126.34375 Z M 225.96875 126.34375 " transform="matrix(0.5,0,0,0.5,0,0)"/>
<path style="fill-rule:nonzero;fill:rgb(100%,100%,100%);fill-opacity:1;stroke-width:1.3;stroke-linecap:butt;stroke-linejoin:miter;stroke:rgb(0%,0%,0%);stroke-opacity:1;stroke-miterlimit:4;" d="M 314.46875 136.203125 C 314.476562 131.960938 306.132812 112.78125 304.757812 109.828125 C 302.195312 106.632812 299.492188 101.5625 298.328125 97.179688 C 297.578125 92.765625 295.210938 89.296875 291.882812 88.125 C 288.039062 86.078125 284.28125 86.882812 280.664062 87.195312 C 278.898438 87.570312 277.375 88.53125 276.523438 89.9375 C 274.570312 92.734375 273.507812 92.523438 272.15625 93.71875 C 261.046875 95.453125 250.539062 101.1875 242.539062 105.101562 C 238.304688 108.039062 234.710938 109.742188 233.046875 110.101562 C 228.53125 110.117188 225.25 107.984375 223.679688 106.84375 L 208.34375 92.898438 C 203.914062 89.59375 202.820312 94.367188 203.671875 95.09375 C 205.148438 98.273438 201.945312 100.210938 214.109375 111.664062 L 218.710938 121.125 C 218.710938 121.125 218.460938 123.71875 218.671875 123.828125 C 220.890625 129.117188 224.421875 127.796875 226.085938 126.3125 L 229.695312 123.023438 C 229.695312 123.023438 236.859375 120.757812 236.96875 120.546875 C 244.648438 121.6875 264.4375 117.914062 267.695312 116.367188 C 270.640625 114.71875 270.828125 116.117188 273.375 114.039062 C 275.5 112.632812 274.328125 113.75 278.265625 110.15625 C 279.476562 109.117188 280.4375 110.804688 280.65625 111.984375 C 280.882812 123.148438 282.25 130.289062 283.265625 141.421875 L 300 150 Z M 314.46875 136.203125 " transform="matrix(0.5,0,0,0.5,0,0)"/>
<path style=" stroke:none;fill-rule:nonzero;fill:rgb(97.647059%,86.666667%,8.627451%);fill-opacity:1;" d="M 108.917969 51.140625 C 108.996094 51.207031 107.539062 55.957031 107.539062 55.957031 C 107.539062 55.957031 106.191406 54.617188 106.203125 54.59375 L 107.144531 49.605469 Z M 108.917969 51.140625 "/>
<path style="fill:none;stroke-width:1.13;stroke-linecap:butt;stroke-linejoin:miter;stroke:rgb(0%,0%,0%);stroke-opacity:1;stroke-miterlimit:4;" d="M 217.921875 101.929688 C 217.789062 102.570312 217.226562 105.429688 216.960938 106.21875 C 216.742188 107.078125 216.546875 107.953125 216.398438 108.820312 C 216.125 109.773438 216.007812 110.390625 215.710938 111.367188 C 215.617188 112.203125 215.4375 112.984375 215.226562 113.820312 M 213.375 97.578125 C 213.4375 97.695312 213.648438 98.5625 213.679688 99.117188 C 213.578125 99.695312 213.421875 101.78125 213.195312 102.484375 C 184.890625 101.835938 162.476562 78.367188 163.132812 50.0625 C 163.78125 21.765625 187.257812 -0.648438 215.554688 0 C 215.335938 0.859375 215.25 1.421875 215 2.296875 C 214.9375 3.0625 214.804688 3.773438 214.632812 4.523438 " transform="matrix(0.5,0,0,0.5,0,0)"/>
<path style="fill:none;stroke-width:1;stroke-linecap:butt;stroke-linejoin:miter;stroke:rgb(0%,0%,0%);stroke-opacity:1;stroke-miterlimit:4;" d="M 262.226562 96.632812 C 265.804688 100.617188 266.914062 107.085938 266.265625 110.710938 M 248.382812 120.21875 L 248.445312 120.101562 C 248.242188 120.484375 248.40625 120.265625 248.023438 119.398438 C 247.617188 118.953125 247.328125 116.773438 247.953125 115.570312 C 248.195312 114.960938 248.59375 114.03125 248.898438 113.453125 C 248.984375 113.289062 249.226562 113.125 249.3125 112.953125 M 222.796875 106.78125 L 222.734375 106.90625 L 222.476562 107.398438 C 222.140625 108.046875 221.6875 108.632812 221.382812 109.203125 C 221.054688 109.828125 220.554688 110.359375 220.234375 110.984375 C 219.820312 111.5625 219.453125 112.335938 219.023438 112.9375 C 218.617188 113.65625 218.171875 114.164062 217.78125 114.921875 C 217.4375 115.523438 217.164062 115.796875 216.8125 116.476562 L 217.78125 114.921875 C 217.4375 115.523438 217.164062 115.796875 216.8125 116.476562 M 209.804688 94.65625 C 209.867188 94.773438 210.109375 95.585938 210.15625 96.109375 C 210.078125 96.648438 209.992188 98.585938 209.796875 99.242188 C 209.648438 99.960938 209.523438 100.695312 209.445312 101.429688 C 209.257812 102.21875 209.195312 102.742188 208.976562 103.554688 C 208.945312 104.265625 208.835938 104.921875 208.695312 105.625 M 225.390625 117.554688 C 224.554688 116.671875 224.0625 116.992188 223.523438 116.953125 C 222.921875 117.0625 221.835938 117.5625 220.734375 118.671875 C 220.328125 119.109375 219.992188 119.429688 219.460938 119.90625 C 219.21875 120.28125 219.023438 120.421875 218.757812 120.648438 M 288.476562 87.757812 L 288.414062 87.882812 C 288.617188 87.492188 288.46875 87.71875 288.648438 88.640625 C 288.890625 89.28125 288.921875 89.726562 289.1875 90.34375 M 275.421875 91.21875 C 275.375 91.304688 275.265625 100.335938 275.640625 101.5 C 275.75 102.242188 275.953125 102.867188 276.054688 103.765625 C 276.0625 104.296875 276.1875 104.75 276.226562 105.273438 C 276.53125 105.851562 276.59375 106.429688 276.90625 106.890625 C 277.0625 107.53125 277.570312 107.554688 277.84375 108.148438 C 278.226562 108.5625 278.851562 109.289062 279.234375 109.617188 M 269.140625 115.953125 C 268.867188 115.859375 268.148438 115.296875 267.539062 114.992188 C 266.851562 114.601562 265.15625 112.578125 265.078125 111.15625 " transform="matrix(0.5,0,0,0.5,0,0)"/>
<path style="fill:none;stroke-width:1;stroke-linecap:butt;stroke-linejoin:miter;stroke:rgb(0%,0%,0%);stroke-opacity:1;stroke-miterlimit:4;" d="M 275.898438 103.132812 C 275.882812 103.171875 274.960938 104.078125 273.453125 105.609375 C 271.523438 107.390625 266.28125 110.460938 265.65625 110.710938 C 265.046875 110.984375 264.296875 111.640625 263.703125 111.734375 C 263.015625 112.007812 262.328125 112.109375 261.6875 112.265625 C 260.890625 112.429688 260.21875 112.578125 259.609375 112.609375 C 257.765625 113.414062 248.054688 113.101562 247.554688 112.992188 C 216.351562 113.015625 191.039062 87.742188 191.015625 56.539062 C 190.992188 25.335938 216.265625 0.0234375 247.46875 0 C 247 0.109375 246.453125 0.0625 245.828125 0.101562 C 245.078125 0.0390625 244.640625 0.1875 244.007812 0.257812 C 243.507812 0.523438 242.679688 0.796875 242.109375 1.171875 C 241.34375 1.484375 240.875 1.914062 240.34375 2.148438 C 239.789062 2.609375 232.226562 7.015625 231.867188 7.210938 C 231.070312 7.5625 228.226562 8.40625 227.507812 6.40625 C 227.328125 5.617188 226.96875 4.804688 226.945312 4.203125 C 226.710938 3.484375 226.84375 2.710938 226.882812 2.039062 C 227.546875 -1.367188 228.640625 -2.710938 228.9375 -3.296875 L 229.265625 -3.914062 M 297.882812 96.4375 L 297.820312 96.5625 C 297.992188 96.226562 297.914062 96.40625 297.4375 97 C 296.945312 97.390625 296.351562 98.007812 295.90625 98.414062 C 295.460938 98.859375 295.03125 99.484375 294.632812 99.648438 C 294.234375 100.179688 293.726562 100.34375 293.171875 100.632812 C 265.382812 100.382812 243.0625 77.648438 243.3125 49.859375 C 243.5625 22.070312 266.296875 -0.25 294.085938 0 C 293.265625 0.4375 292.757812 0.851562 291.992188 1.289062 C 291.523438 1.882812 291.046875 2.257812 290.648438 2.960938 C 290.257812 3.609375 289.867188 4.171875 289.492188 4.890625 L 288.585938 6.632812 L 289.492188 4.890625 L 288.585938 6.632812 M 291.570312 144.226562 L 291.695312 143.976562 C 291.460938 144.4375 291.546875 144.3125 291.765625 143.539062 C 291.773438 142.601562 291.992188 141.476562 292 140.65625 C 292.140625 139.78125 292.28125 138.84375 292.289062 137.960938 C 292.242188 136.929688 292.242188 136 292.085938 135.007812 C 292.078125 134.09375 291.96875 133.140625 291.9375 132.242188 C 291.921875 131.351562 291.859375 130.59375 291.664062 129.726562 C 291.648438 129.085938 291.609375 128.195312 291.445312 127.40625 C 291.53125 126.78125 291.359375 126.203125 291.226562 125.703125 C 290.984375 124.742188 290.890625 124.179688 290.632812 123.1875 C 290.484375 122.65625 290.328125 121.96875 290.101562 121.171875 C 290.015625 120.414062 289.609375 119.429688 289.445312 118.773438 C 289.21875 118.296875 288.992188 117.648438 288.90625 117.070312 C 288.671875 116.546875 288.335938 115.90625 288.242188 115.304688 C 287.992188 114.851562 287.734375 114.140625 287.453125 113.476562 C 287.21875 112.921875 287.046875 112.242188 286.796875 111.703125 C 286.539062 111.023438 286.226562 110.445312 286.070312 109.75 C 285.828125 109.515625 285.773438 109.257812 285.640625 109.054688 " transform="matrix(0.5,0,0,0.5,0,0)"/>
<path style="fill-rule:nonzero;fill:rgb(97.647059%,86.666667%,8.627451%);fill-opacity:1;stroke-width:1;stroke-linecap:butt;stroke-linejoin:miter;stroke:rgb(0%,0%,0%);stroke-opacity:1;stroke-miterlimit:4;" d="M 289.890625 91.734375 C 289.046875 93.671875 286.867188 96.492188 286.835938 96.554688 L 284.765625 100.695312 C 283.851562 102.960938 284.4375 103.867188 284.828125 104.523438 C 285.65625 105.976562 285.804688 106.765625 286.414062 107.875 C 286.640625 109.257812 284.1875 109.726562 284.15625 109.78125 C 279.046875 111.554688 276.453125 106.65625 276.429688 106.40625 C 275.734375 103.828125 275.820312 103.40625 277.390625 102.875 C 279.1875 102.460938 279.90625 102.4375 280.796875 101.796875 C 282.476562 100.53125 283.664062 96.726562 283.695312 96.664062 C 283.726562 96.601562 283.945312 94.5 283.945312 94.5 C 284.078125 93.484375 283.609375 92.5625 284.132812 90.960938 C 284.804688 89.40625 285.203125 88.984375 286.796875 88.867188 C 288.867188 88.679688 290.476562 90.148438 289.890625 91.734375 Z M 289.890625 91.734375 " transform="matrix(0.5,0,0,0.5,0,0)"/>
<path style="fill-rule:nonzero;fill:rgb(97.647059%,86.666667%,8.627451%);fill-opacity:1;stroke-width:1;stroke-linecap:butt;stroke-linejoin:miter;stroke:rgb(0%,0%,0%);stroke-opacity:1;stroke-miterlimit:4;" d="M 225.973109 126.344164 C 226.193111 126.568969 228.826274 128.16099 228.877261 128.077427 C 228.917575 127.991004 235.777059 126.403228 235.729978 126.493557 C 235.682898 126.583887 231.889835 131.092235 232.063729 131.190301 C 232.240481 131.277696 236.034101 135.817188 236.124431 135.864268 C 236.204088 135.908489 228.941249 135.266383 228.941249 135.266383 L 224.133703 139.142594 L 223.057947 134.107454 C 223.057947 134.107454 217.011403 131.978284 216.921074 131.931203 C 216.83465 131.890889 222.095491 130.143558 222.095491 130.143558 L 223.669344 126.041425 C 223.669344 126.041425 225.705056 126.426756 225.973109 126.344164 Z M 225.973109 126.344164 " transform="matrix(-0.25,0.433013,-0.433013,-0.25,289.951905,-17.403811)"/>
<path style="fill-rule:nonzero;fill:rgb(100%,100%,100%);fill-opacity:1;stroke-width:1.3;stroke-linecap:butt;stroke-linejoin:miter;stroke:rgb(0%,0%,0%);stroke-opacity:1;stroke-miterlimit:4;" d="M 314.471134 136.205365 C 314.475501 131.962928 306.13492 112.782243 304.75349 109.827036 C 302.195552 106.630933 299.493604 101.560397 298.327743 97.181692 C 297.579346 92.760429 295.212103 89.300869 291.879201 88.121864 C 288.039533 86.080739 284.279378 86.880459 280.665341 87.198888 C 278.89561 87.571124 277.374627 88.530454 276.521387 89.943224 C 274.567637 92.731105 273.508522 92.521665 272.16304 93.722471 C 261.045289 95.450336 250.539422 101.191142 242.538087 105.098048 C 238.307785 108.036574 234.710591 109.743551 233.048346 110.098834 C 228.530809 110.11798 225.248874 107.980376 223.682713 106.845831 L 208.347693 92.894173 C 203.9142 89.590138 202.818162 94.36362 203.670266 95.089506 C 205.149633 98.276845 201.94396 100.208831 214.104941 111.662894 L 218.712188 121.127254 C 218.712188 121.127254 218.458212 123.718605 218.674793 123.82811 C 220.889322 129.116911 224.422354 127.798802 226.083456 126.31654 L 229.693937 123.023201 C 229.693937 123.023201 236.855639 120.755758 236.96905 120.545942 C 244.646923 121.688158 264.434203 117.913858 267.697779 116.363412 C 270.637287 114.720413 270.829554 116.115931 273.375652 114.041527 C 275.503186 112.632773 274.327896 113.753361 278.266481 110.153316 C 279.471208 109.114965 280.437099 110.803561 280.658448 111.983824 C 280.880655 123.149948 282.250672 130.288513 283.265397 141.421067 L 300 150 Z M 314.471134 136.205365 " transform="matrix(-0.25,0.433013,-0.433013,-0.25,289.951905,-17.403811)"/>
<path style=" stroke:none;fill-rule:nonzero;fill:rgb(97.647059%,86.666667%,8.627451%);fill-opacity:1;" d="M 191.203125 51.351562 C 191.105469 51.386719 187.722656 47.75 187.722656 47.75 C 187.722656 47.75 189.554688 47.253906 189.570312 47.273438 L 193.417969 50.585938 Z M 191.203125 51.351562 "/>
<path style="fill:none;stroke-width:1.13;stroke-linecap:butt;stroke-linejoin:miter;stroke:rgb(0%,0%,0%);stroke-opacity:1;stroke-miterlimit:4;" d="M 217.920274 101.927494 C 217.787481 102.57249 217.220745 105.434624 216.959682 106.216826 C 216.738729 107.084123 216.545886 107.953234 216.39859 108.82311 C 216.12665 109.773972 216.013109 110.389812 215.711246 111.36697 C 215.614171 112.198831 215.437438 112.986471 215.225063 113.821752 M 213.378432 97.576418 C 213.431307 97.69925 213.647347 98.557818 213.680841 99.115831 C 213.582644 99.695749 213.41752 101.784746 213.193912 102.491196 C 184.894314 101.834228 162.477884 78.367209 163.130946 50.060844 C 163.787913 21.761245 187.254933 -0.655184 215.554532 0.00178362 C 215.336438 0.858409 215.247866 1.423749 214.995943 2.299905 C 214.940229 3.062781 214.800952 3.77467 214.628892 4.523528 " transform="matrix(-0.25,0.433013,-0.433013,-0.25,289.951905,-17.403811)"/>
<path style="fill:none;stroke-width:1;stroke-linecap:butt;stroke-linejoin:miter;stroke:rgb(0%,0%,0%);stroke-opacity:1;stroke-miterlimit:4;" d="M 262.226003 96.636018 C 265.803937 100.614432 266.917114 107.089386 266.266554 110.712582 M 248.384743 120.224752 L 248.447168 120.0985 C 248.246361 120.485068 248.401414 120.269253 248.016714 119.399807 C 247.615492 118.95487 247.330576 116.773881 247.955105 115.574347 C 248.194618 114.957946 248.590716 114.034634 248.895309 113.452828 C 248.979844 113.286747 249.225226 113.118012 249.313668 112.958698 M 222.796725 106.780006 L 222.730394 106.899492 L 222.470023 107.401641 C 222.137601 108.044619 221.68674 108.638705 221.381101 109.203073 C 221.054398 109.824707 220.557709 110.355041 220.234913 110.983441 C 219.817881 111.557995 219.45505 112.335805 219.018767 112.939515 C 218.620781 113.656432 218.175358 114.166188 217.779465 114.917981 C 217.434278 115.523224 217.160299 115.79868 216.812533 116.477581 L 217.779465 114.917981 C 217.434278 115.523224 217.160299 115.79868 216.812533 116.477581 M 209.801359 94.661996 C 209.867765 94.777015 210.108776 95.585083 210.157614 96.107173 C 210.081528 96.647262 209.991313 98.584757 209.792676 99.240706 C 209.650538 99.963267 209.522979 100.695454 209.45164 101.431266 C 209.25747 102.219952 209.191009 102.745463 208.973681 103.556541 C 208.949703 104.265009 208.835395 104.926397 208.695071 105.620848 M 225.393271 117.558604 C 224.555951 116.670824 224.057373 116.994762 223.519378 116.953552 C 222.92391 117.062796 221.834052 117.565731 220.731373 118.67146 C 220.327311 119.11223 219.989581 119.433514 219.457735 119.902955 C 219.214241 120.278086 219.022985 120.415571 218.760445 120.648338 M 288.476287 87.759094 L 288.413862 87.885346 C 288.614668 87.498777 288.470287 87.717452 288.651733 88.6411 C 288.892949 89.277648 288.923022 89.720361 289.191301 90.341285 M 275.418503 91.220473 C 275.374282 91.30013 275.269165 100.336812 275.643549 101.500889 C 275.751542 102.250438 275.956835 102.871642 276.055764 103.761741 C 276.060101 104.300503 276.185176 104.751515 276.223342 105.270745 C 276.531169 105.850793 276.59382 106.428057 276.904993 106.888899 C 277.059019 107.530681 277.567858 107.552641 277.848622 108.148314 C 278.230313 108.559421 278.858583 109.288242 279.235041 109.61216 M 269.139816 115.954843 C 268.868061 115.85915 268.15135 115.289644 267.54534 114.990005 C 266.853673 114.604503 265.160474 112.578047 265.078553 111.154905 " transform="matrix(-0.25,0.433013,-0.433013,-0.25,289.951905,-17.403811)"/>
<path style="fill:none;stroke-width:1;stroke-linecap:butt;stroke-linejoin:miter;stroke:rgb(0%,0%,0%);stroke-opacity:1;stroke-miterlimit:4;" d="M 275.898878 103.130631 C 275.876767 103.17046 274.958298 104.079625 273.450511 105.608686 C 271.531055 107.393467 266.28287 110.459592 265.650228 110.707574 C 265.050649 110.981573 264.295811 111.642906 263.699297 111.734713 C 263.015388 112.003272 262.328824 112.110985 261.687043 112.265011 C 260.892226 112.435224 260.225194 112.576765 259.604196 112.610539 C 257.765629 113.410424 248.051654 113.10095 247.555019 112.990754 C 216.349442 113.019233 191.038206 87.741387 191.013633 56.542575 C 190.985154 25.336998 216.263 0.0257619 247.461812 0.00118889 C 247.002988 0.112732 246.45432 0.068662 245.833322 0.102436 C 245.077212 0.0428158 244.644685 0.184282 244.012248 0.260745 C 243.506624 0.525603 242.67254 0.799677 242.114117 1.176209 C 241.338346 1.488784 240.870252 1.912397 240.338331 2.147333 C 239.785141 2.611055 232.233716 7.015978 231.860549 7.213384 C 231.069433 7.561881 228.222329 8.411801 227.506979 6.407154 C 227.330001 5.616244 226.963019 4.808737 226.940963 4.208036 C 226.711952 3.483252 226.844183 2.712284 226.880927 2.04155 C 227.544047 -1.372391 228.635979 -2.715485 228.940571 -3.297291 L 229.260508 -3.915019 M 297.880618 96.438498 L 297.818193 96.56475 C 297.994029 96.228682 297.913401 96.401529 297.434429 96.993801 C 296.950711 97.390351 296.343955 98.011294 295.90969 98.415376 C 295.460081 98.85538 295.028751 99.483294 294.629287 99.650777 C 294.230459 100.178737 293.722461 100.345734 293.176243 100.63403 C 265.3804 100.380844 243.064151 77.649841 243.310572 49.857905 C 243.567665 22.068828 266.294761 -0.254187 294.083838 0.00290612 C 293.269845 0.43678 292.752297 0.852861 291.994525 1.290361 C 291.526226 1.885493 291.048227 2.260698 290.649193 2.960178 C 290.257692 3.610203 289.860957 4.173038 289.491081 4.891768 L 288.590836 6.629373 L 289.491081 4.891768 L 288.590836 6.629373 M 291.567935 144.22336 L 291.696691 143.977621 C 291.454523 144.433175 291.538292 144.312642 291.768385 143.5393 C 291.768085 142.60128 291.994682 141.478133 292.004568 140.651505 C 292.141191 139.778769 292.2843 138.839141 292.291046 137.9602 C 292.236058 136.927458 292.24357 136.002969 292.086048 135.011382 C 292.076122 134.08794 291.970147 133.138761 291.94097 132.244476 C 291.922465 131.35305 291.856114 130.597501 291.660371 129.727214 C 291.649754 129.083824 291.607045 128.197351 291.447505 127.405394 C 291.535796 126.777069 291.357847 126.203226 291.222866 125.703807 C 290.983107 124.741658 290.886627 124.183926 290.634103 123.184041 C 290.479591 122.650793 290.330237 121.970229 290.103805 121.171787 C 290.016109 120.410519 289.61055 119.42682 289.448711 118.771507 C 289.220822 118.298666 288.995997 117.643633 288.909143 117.071322 C 288.671348 116.550073 288.33513 115.905227 288.243323 115.308712 C 287.995136 114.84759 287.732295 114.142337 287.45411 113.473006 C 287.218127 112.923647 287.044569 112.248036 286.795055 111.70649 C 286.537168 111.02544 286.22934 110.445392 286.072174 109.751297 C 285.826921 109.514007 285.769579 109.258439 285.64172 109.052604 " transform="matrix(-0.25,0.433013,-0.433013,-0.25,289.951905,-17.403811)"/>
<path style="fill-rule:nonzero;fill:rgb(97.647059%,86.666667%,8.627451%);fill-opacity:1;stroke-width:1;stroke-linecap:butt;stroke-linejoin:miter;stroke:rgb(0%,0%,0%);stroke-opacity:1;stroke-miterlimit:4;" d="M 289.887455 91.734558 C 289.044271 93.664746 286.868781 96.490437 286.834186 96.555516 L 284.765307 100.690862 C 283.848055 102.96151 284.434478 103.86785 284.830822 104.523088 C 285.653228 105.978787 285.802096 106.767884 286.414611 107.875666 C 286.644614 109.258418 284.187273 109.720929 284.152678 109.786008 C 279.044105 111.562701 276.453345 106.653497 276.42802 106.406507 C 275.734349 103.830035 275.820622 103.40134 277.391976 102.873004 C 279.183818 102.46094 279.903724 102.44223 280.792346 101.793867 C 282.473821 100.534392 283.666208 96.724667 283.694037 96.663494 C 283.728633 96.598415 283.952836 94.502372 283.952836 94.502372 C 284.081086 93.490133 283.608916 92.562934 284.125041 90.95689 C 284.802295 89.411177 285.207403 88.987845 286.796064 88.864487 C 288.870893 88.676947 290.478285 90.148531 289.887455 91.734558 Z M 289.887455 91.734558 " transform="matrix(-0.25,0.433013,-0.433013,-0.25,289.951905,-17.403811)"/>
<path style="fill-rule:nonzero;fill:rgb(97.647059%,86.666667%,8.627451%);fill-opacity:1;stroke-width:1;stroke-linecap:butt;stroke-linejoin:miter;stroke:rgb(0%,0%,0%);stroke-opacity:1;stroke-miterlimit:4;" d="M 225.970571 126.347732 C 226.191469 126.5745 228.825954 128.167689 228.869969 128.075827 C 228.92075 127.987872 235.777866 126.407875 235.727084 126.495831 C 235.686975 126.580927 231.887636 131.099074 232.064595 131.183199 C 232.244412 131.277996 236.028616 135.817313 236.120478 135.861328 C 236.208433 135.91211 228.938718 135.26925 228.938718 135.26925 L 224.131552 139.142381 L 223.05798 134.111237 C 223.05798 134.111237 217.008117 131.980533 216.920161 131.929751 C 216.835065 131.889642 222.098846 130.147506 222.098846 130.147506 L 223.664657 126.044818 C 223.664657 126.044818 225.706629 126.429894 225.970571 126.347732 Z M 225.970571 126.347732 " transform="matrix(-0.25,-0.433013,0.433013,-0.25,160.048095,242.403811)"/>
<path style="fill-rule:nonzero;fill:rgb(100%,100%,100%);fill-opacity:1;stroke-width:1.3;stroke-linecap:butt;stroke-linejoin:miter;stroke:rgb(0%,0%,0%);stroke-opacity:1;stroke-miterlimit:4;" d="M 314.468002 136.20631 C 314.481074 131.964919 306.133006 112.783572 304.752688 109.830603 C 302.19706 106.63208 299.494717 101.562675 298.332964 97.184265 C 297.57647 92.760178 295.211967 89.293116 291.883723 88.120304 C 288.037034 86.079839 284.282352 86.880014 280.665511 87.191442 C 278.892415 87.575035 277.375503 88.530529 276.524221 89.942493 C 274.571807 92.730422 273.509703 92.523166 272.160329 93.719725 C 261.044591 95.457123 250.536089 101.189633 242.541619 105.098961 C 238.308391 108.040501 234.709583 109.742569 233.049973 110.101473 C 228.537109 110.121108 225.2529 107.9814 223.683304 106.840645 L 208.342649 92.895814 C 203.917259 89.592063 202.822327 94.363542 203.67084 95.097 C 205.149991 98.26941 201.94646 100.208713 214.10817 111.659638 L 218.716376 121.131116 C 218.716376 121.131116 218.4597 123.716317 218.673347 123.830645 C 220.890213 129.11592 224.420446 127.798253 226.087964 126.316277 L 229.694829 123.022128 C 229.694829 123.022128 236.859286 120.753549 236.969708 120.546668 C 244.64711 121.686518 264.432122 117.917871 267.699815 116.367436 C 270.633609 114.723456 270.823162 116.113891 273.373192 114.04086 C 275.505533 112.628786 274.331866 113.755388 278.264688 110.16229 C 279.47581 109.111439 280.438275 110.803777 280.661732 111.979237 C 280.87652 123.15409 282.244046 130.285464 283.26621 141.421274 L 300 150 Z M 314.468002 136.20631 " transform="matrix(-0.25,-0.433013,0.433013,-0.25,160.048095,242.403811)"/>
<path style=" stroke:none;fill-rule:nonzero;fill:rgb(97.647059%,86.666667%,8.627451%);fill-opacity:1;" d="M 149.878906 122.507812 C 149.898438 122.40625 154.738281 121.296875 154.738281 121.296875 C 154.738281 121.296875 154.25 123.128906 154.226562 123.132812 L 149.433594 124.808594 Z M 149.878906 122.507812 "/>
<path style="fill:none;stroke-width:1.13;stroke-linecap:butt;stroke-linejoin:miter;stroke:rgb(0%,0%,0%);stroke-opacity:1;stroke-miterlimit:4;" d="M 217.922974 101.927204 C 217.786386 102.570032 217.226144 105.431024 216.961976 106.216701 C 216.742029 107.082035 216.54238 107.959088 216.396091 108.821843 C 216.129269 109.768368 216.011165 110.394805 215.71128 111.367346 C 215.615492 112.205131 215.435654 112.985369 215.224566 113.819734 M 213.371428 97.576338 C 213.437759 97.695824 213.651947 98.559215 213.681439 99.117508 C 213.580007 99.699444 213.41667 101.779226 213.195471 102.490479 C 184.89395 101.838277 162.481111 78.361577 163.133313 50.060055 C 163.785515 21.758534 187.251543 -0.651445 215.553065 0.000756979 C 215.337024 0.859325 215.247311 1.420964 215.002113 2.298783 C 214.942528 3.058238 214.801753 3.770818 214.626868 4.526853 " transform="matrix(-0.25,-0.433013,0.433013,-0.25,160.048095,242.403811)"/>
<path style="fill:none;stroke-width:1;stroke-linecap:butt;stroke-linejoin:miter;stroke:rgb(0%,0%,0%);stroke-opacity:1;stroke-miterlimit:4;" d="M 262.223507 96.633931 C 265.806699 100.61516 266.912602 107.090304 266.264665 110.712564 M 248.389252 120.220563 L 248.448892 120.101638 C 248.243674 120.488336 248.40069 120.263251 248.021749 119.403971 C 247.614828 118.952529 247.328966 116.775782 247.950621 115.574044 C 248.19079 114.954934 248.596069 114.034221 248.89713 113.450267 C 248.980208 113.290747 249.221274 113.123209 249.308258 112.956923 M 222.797878 106.780499 L 222.727565 106.902283 L 222.473378 107.405048 C 222.13716 108.049894 221.682017 108.6351 221.378096 109.208382 C 221.057503 109.826166 220.553186 110.355918 220.228687 110.980467 C 219.819092 111.564907 219.454203 112.337538 219.026123 112.938369 C 218.622732 113.652687 218.171776 114.168142 217.779824 114.925148 C 217.436074 115.52054 217.167384 115.798425 216.811635 116.4771 L 217.779824 114.925148 C 217.436074 115.52054 217.167384 115.798425 216.811635 116.4771 M 209.804813 94.660147 C 209.864378 94.775727 210.105909 95.591757 210.158839 96.109456 C 210.074078 96.64689 209.992773 98.58459 209.796058 99.23781 C 209.64747 99.963922 209.523086 100.694986 209.451016 101.429191 C 209.2566 102.219055 209.19709 102.744004 208.980283 103.557025 C 208.948041 104.269119 208.838516 104.927573 208.698787 105.622715 M 225.392462 117.552171 C 224.556229 116.672444 224.060566 116.999707 223.517132 116.956588 C 222.922636 117.064411 221.832196 117.562482 220.733233 118.669068 C 220.332011 119.114004 219.994336 119.43325 219.458283 119.908595 C 219.219236 120.275763 219.017999 120.42119 218.759215 120.650667 M 288.475315 87.758215 L 288.411769 87.883906 C 288.616987 87.497207 288.463877 87.715526 288.649674 88.643716 C 288.894906 89.281461 288.921053 89.720549 289.191536 90.345809 M 275.418697 91.216691 C 275.378588 91.301787 275.266638 100.33944 275.641317 101.502977 C 275.754298 102.244789 275.951122 102.872628 276.058589 103.764615 C 276.058158 104.296611 276.185026 104.748744 276.223378 105.276068 C 276.52511 105.847202 276.595197 106.428932 276.907116 106.888673 C 277.061253 107.527951 277.570858 107.551539 277.846294 108.152595 C 278.224338 108.560302 278.852924 109.28406 279.232296 109.611344 M 269.138732 115.953284 C 268.861053 115.856113 268.14939 115.291875 267.541232 114.985861 C 266.853977 114.598095 265.15843 112.581744 265.079504 111.155948 " transform="matrix(-0.25,-0.433013,0.433013,-0.25,160.048095,242.403811)"/>
<path style="fill:none;stroke-width:1;stroke-linecap:butt;stroke-linejoin:miter;stroke:rgb(0%,0%,0%);stroke-opacity:1;stroke-miterlimit:4;" d="M 275.900546 103.132103 C 275.877109 103.172698 274.958319 104.076589 273.452415 105.606767 C 271.528692 107.391877 266.283225 110.461668 265.652245 110.710806 C 265.051189 110.986242 264.294368 111.640844 263.700918 111.731229 C 263.012672 112.001431 262.333846 112.114692 261.687803 112.264922 C 260.897303 112.430983 260.22029 112.572354 259.612543 112.609378 C 257.768778 113.412247 248.053701 113.098629 247.556095 112.991758 C 216.347377 113.015593 191.039328 87.741046 191.011587 56.539094 C 190.990612 25.341048 216.2623 0.0223266 247.460345 0.00135171 C 247.002493 0.106875 246.459058 0.0637564 245.833873 0.0997339 C 245.074418 0.0401485 244.642582 0.178735 244.007491 0.26312 C 243.512109 0.527398 242.676547 0.802758 242.111899 1.171383 C 241.343995 1.485806 240.874068 1.909118 240.338091 2.149958 C 239.785647 2.606819 232.23374 7.015231 231.864609 7.217084 C 231.070409 7.561429 228.226404 8.409265 227.513378 6.409887 C 227.32988 5.61834 226.969143 4.805655 226.94565 4.20572 C 226.712417 3.484692 226.842801 2.711986 226.879715 2.038674 C 227.539296 -1.369379 228.638334 -2.710469 228.939396 -3.294423 L 229.263895 -3.918972 M 297.880851 96.436098 L 297.817304 96.56179 C 297.991273 96.229218 297.911054 96.39941 297.430661 96.997101 C 296.952155 97.388397 296.347603 98.013637 295.906833 98.417698 C 295.463969 98.856636 295.030937 99.48167 294.635789 99.65046 C 294.23324 100.175821 293.722794 100.34119 293.173004 100.637204 C 265.383311 100.379739 243.06211 77.650569 243.312809 49.85697 C 243.566368 22.074043 266.299444 -0.253924 294.082371 -0.000365516 C 293.261593 0.436889 292.760696 0.851342 291.996138 1.284971 C 291.526417 1.879802 291.048958 2.25366 290.649473 2.961212 C 290.257036 3.609684 289.865925 4.177733 289.490644 4.890238 L 288.5846 6.631428 L 289.490644 4.890238 L 288.5846 6.631428 M 291.571897 144.222902 L 291.698991 143.97152 C 291.45757 144.436549 291.54532 144.31581 291.770706 143.534806 C 291.7671 142.603551 291.992075 141.479508 291.999627 140.653927 C 292.143057 139.7805 292.280001 138.840181 292.290693 137.962286 C 292.237148 136.93003 292.240308 136.002681 292.086807 135.002927 C 292.071483 134.091969 291.971062 133.140903 291.94116 132.239571 C 291.920882 131.352817 291.854496 130.592801 291.668419 129.727597 C 291.64416 129.082115 291.606445 128.194314 291.451056 127.400955 C 291.530378 126.77919 291.354617 126.208618 291.220217 125.70703 C 290.9842 124.740824 290.891722 124.182251 290.636453 123.186888 C 290.482803 122.656144 290.3279 121.971319 290.10276 121.173773 C 290.018936 120.41271 289.612446 119.429272 289.448684 118.775416 C 289.222141 118.292799 288.991487 117.645428 288.906822 117.073323 C 288.668841 116.548017 288.33642 115.905039 288.239269 115.307683 C 287.997102 114.852129 287.727946 114.146445 287.456698 113.475637 C 287.216904 112.922222 287.047423 112.247021 286.793051 111.703231 C 286.543146 111.026704 286.227882 110.447758 286.07012 109.75226 C 285.828924 109.513774 285.770966 109.254784 285.642977 109.054594 " transform="matrix(-0.25,-0.433013,0.433013,-0.25,160.048095,242.403811)"/>
<path style="fill-rule:nonzero;fill:rgb(97.647059%,86.666667%,8.627451%);fill-opacity:1;stroke-width:1;stroke-linecap:butt;stroke-linejoin:miter;stroke:rgb(0%,0%,0%);stroke-opacity:1;stroke-miterlimit:4;" d="M 289.888881 91.731722 C 289.041075 93.668916 286.8695 96.492693 286.834344 96.553585 L 284.762554 100.688906 C 283.849313 102.958186 284.431509 103.871667 284.829776 104.525598 C 285.659578 105.978964 285.801435 106.76451 286.41376 107.875808 C 286.646001 109.254804 284.1855 109.719643 284.157109 109.784441 C 279.045316 111.560202 276.455619 106.655064 276.428631 106.404934 C 275.732708 103.829058 275.82472 103.404063 277.386263 102.871266 C 279.185657 102.45775 279.907657 102.441584 280.793309 101.798215 C 282.479236 100.534353 283.666777 96.727473 283.695167 96.662674 C 283.730323 96.601782 283.950926 94.500936 283.950926 94.500936 C 284.078526 93.483053 283.608769 92.56232 284.128526 90.95895 C 284.799224 89.406641 285.202259 88.989814 286.798808 88.865135 C 288.871414 88.681527 290.481249 90.14321 289.888881 91.731722 Z M 289.888881 91.731722 " transform="matrix(-0.25,-0.433013,0.433013,-0.25,160.048095,242.403811)"/>
<path style="fill-rule:nonzero;fill:rgb(97.647059%,86.666667%,8.627451%);fill-opacity:1;stroke-width:1.3;stroke-linecap:butt;stroke-linejoin:miter;stroke:rgb(0%,0%,0%);stroke-opacity:1;stroke-miterlimit:4;" d="M 304.617188 169.367188 C 302.84375 168.46875 301.492188 168.289062 300.84375 168.726562 C 299.820312 162.976562 298.914062 157.226562 297.59375 151.5 C 286.695312 146.960938 284.390625 145.921875 280.820312 144.367188 C 282.484375 143.28125 283.320312 142.203125 283.265625 141.421875 C 288.757812 143.40625 294.1875 145.5 299.8125 147.21875 C 309.1875 140.054688 311.234375 138.578125 314.367188 136.257812 C 314.476562 138.25 314.992188 139.507812 315.695312 139.851562 C 311.234375 143.609375 306.703125 147.273438 302.40625 151.28125 C 303.921875 162.984375 304.179688 165.5 304.617188 169.367188 Z M 304.617188 169.367188 " transform="matrix(0.5,0,0,0.5,0,0)"/>
</g>
</svg>
