<?xml version="1.0" encoding="UTF-8"?>
<svg xmlns="http://www.w3.org/2000/svg" xmlns:xlink="http://www.w3.org/1999/xlink" width="px" height="px" viewBox="0 0 675 450" version="1.1">
<g id="surface1">
<rect x="0" y="0" width="675" height="450" style="fill:rgb(100%,60%,20%);fill-opacity:1;stroke:none;"/>
<path style=" stroke:none;fill-rule:nonzero;fill:rgb(100%,100%,100%);fill-opacity:1;" d="M 0 150 L 675 150 L 675 450 L 0 450 Z M 0 150 "/>
<path style=" stroke:none;fill-rule:nonzero;fill:rgb(7.058824%,53.333333%,2.745098%);fill-opacity:1;" d="M 0 300 L 675 300 L 675 450 L 0 450 Z M 0 300 "/>
<path style=" stroke:none;fill-rule:nonzero;fill:rgb(0%,0%,53.333333%);fill-opacity:1;" d="M 397.5 225 C 397.5 258.136719 370.636719 285 337.5 285 C 304.363281 285 277.5 258.136719 277.5 225 C 277.5 191.863281 304.363281 165 337.5 165 C 370.636719 165 397.5 191.863281 397.5 225 Z M 397.5 225 "/>
<path style=" stroke:none;fill-rule:nonzero;fill:rgb(100%,100%,100%);fill-opacity:1;" d="M 390 225 C 390 253.996094 366.496094 277.5 337.5 277.5 C 308.503906 277.5 285 253.996094 285 225 C 285 196.003906 308.503906 172.5 337.5 172.5 C 366.496094 172.5 390 196.003906 390 225 Z M 390 225 "/>
<path style=" stroke:none;fill-rule:nonzero;fill:rgb(0%,0%,53.333333%);fill-opacity:1;" d="M 348 225 C 348 230.800781 343.300781 235.5 337.5 235.5 C 331.699219 235.5 327 230.800781 327 225 C 327 219.199219 331.699219 214.5 337.5 214.5 C 343.300781 214.5 348 219.199219 348 225 Z M 348 225 "/>
<path style=" stroke:none;fill-rule:nonzero;fill:rgb(0%,0%,53.333333%);fill-opacity:1;" d="M 392.152344 232.195312 C 391.964844 233.632812 390.644531 234.644531 389.207031 234.457031 C 387.769531 234.265625 386.757812 232.949219 386.949219 231.511719 C 387.136719 230.074219 388.457031 229.0625 389.894531 229.25 C 391.332031 229.4375 392.34375 230.757812 392.152344 232.195312 Z M 392.152344 232.195312 "/>
<path style=" stroke:none;fill-rule:nonzero;fill:rgb(0%,0%,53.333333%);fill-opacity:1;" d="M 337.5 277.5 L 339.300781 246 L 337.5 231 L 335.699219 246 Z M 337.5 277.5 "/>
<path style=" stroke:none;fill-rule:nonzero;fill:rgb(0%,0%,53.333333%);fill-opacity:1;" d="M 388.429688 246.09375 C 387.875 247.433594 386.339844 248.070312 385 247.515625 C 383.660156 246.960938 383.023438 245.425781 383.578125 244.085938 C 384.132812 242.746094 385.667969 242.109375 387.007812 242.664062 C 388.347656 243.21875 388.984375 244.757812 388.429688 246.09375 Z M 388.429688 246.09375 "/>
<path style=" stroke:none;fill-rule:nonzero;fill:rgb(0%,0%,53.333333%);fill-opacity:1;" d="M 323.910156 275.710938 L 333.804688 245.75 L 335.945312 230.796875 L 330.324219 244.820312 Z M 323.910156 275.710938 "/>
<path style=" stroke:none;fill-rule:nonzero;fill:rgb(0%,0%,53.333333%);fill-opacity:1;" d="M 381.234375 258.558594 C 380.351562 259.707031 378.703125 259.925781 377.554688 259.042969 C 376.402344 258.160156 376.1875 256.511719 377.070312 255.363281 C 377.953125 254.210938 379.597656 253.996094 380.75 254.878906 C 381.898438 255.761719 382.117188 257.40625 381.234375 258.558594 Z M 381.234375 258.558594 "/>
<path style=" stroke:none;fill-rule:nonzero;fill:rgb(0%,0%,53.333333%);fill-opacity:1;" d="M 311.25 270.464844 L 328.558594 244.085938 L 334.5 230.195312 L 325.441406 242.285156 Z M 311.25 270.464844 "/>
<path style=" stroke:none;fill-rule:nonzero;fill:rgb(0%,0%,53.333333%);fill-opacity:1;" d="M 371.058594 268.734375 C 369.90625 269.617188 368.261719 269.398438 367.378906 268.25 C 366.496094 267.097656 366.710938 265.453125 367.863281 264.570312 C 369.011719 263.6875 370.660156 263.902344 371.542969 265.054688 C 372.425781 266.203125 372.207031 267.851562 371.058594 268.734375 Z M 371.058594 268.734375 "/>
<path style=" stroke:none;fill-rule:nonzero;fill:rgb(0%,0%,53.333333%);fill-opacity:1;" d="M 300.375 262.125 L 323.921875 241.121094 L 333.257812 229.242188 L 321.378906 238.578125 Z M 300.375 262.125 "/>
<path style=" stroke:none;fill-rule:nonzero;fill:rgb(0%,0%,53.333333%);fill-opacity:1;" d="M 358.59375 275.929688 C 357.257812 276.484375 355.71875 275.847656 355.164062 274.507812 C 354.609375 273.167969 355.246094 271.632812 356.585938 271.078125 C 357.925781 270.523438 359.460938 271.160156 360.015625 272.5 C 360.570312 273.839844 359.933594 275.375 358.59375 275.929688 Z M 358.59375 275.929688 "/>
<path style=" stroke:none;fill-rule:nonzero;fill:rgb(0%,0%,53.333333%);fill-opacity:1;" d="M 292.035156 251.25 L 320.214844 237.058594 L 332.304688 228 L 318.414062 233.941406 Z M 292.035156 251.25 "/>
<path style=" stroke:none;fill-rule:nonzero;fill:rgb(0%,0%,53.333333%);fill-opacity:1;" d="M 344.695312 279.652344 C 343.257812 279.84375 341.9375 278.832031 341.75 277.394531 C 341.5625 275.957031 342.574219 274.636719 344.011719 274.449219 C 345.449219 274.257812 346.765625 275.269531 346.957031 276.707031 C 347.144531 278.144531 346.132812 279.464844 344.695312 279.652344 Z M 344.695312 279.652344 "/>
<path style=" stroke:none;fill-rule:nonzero;fill:rgb(0%,0%,53.333333%);fill-opacity:1;" d="M 286.789062 238.589844 L 317.679688 232.175781 L 331.703125 226.554688 L 316.75 228.695312 Z M 286.789062 238.589844 "/>
<path style=" stroke:none;fill-rule:nonzero;fill:rgb(0%,0%,53.333333%);fill-opacity:1;" d="M 330.304688 279.652344 C 328.867188 279.464844 327.855469 278.144531 328.042969 276.707031 C 328.234375 275.269531 329.550781 274.257812 330.988281 274.449219 C 332.425781 274.636719 333.4375 275.957031 333.25 277.394531 C 333.0625 278.832031 331.742188 279.84375 330.304688 279.652344 Z M 330.304688 279.652344 "/>
<path style=" stroke:none;fill-rule:nonzero;fill:rgb(0%,0%,53.333333%);fill-opacity:1;" d="M 285 225 L 316.5 226.800781 L 331.5 225 L 316.5 223.199219 Z M 285 225 "/>
<path style=" stroke:none;fill-rule:nonzero;fill:rgb(0%,0%,53.333333%);fill-opacity:1;" d="M 316.40625 275.929688 C 315.066406 275.375 314.429688 273.839844 314.984375 272.5 C 315.539062 271.160156 317.074219 270.523438 318.414062 271.078125 C 319.753906 271.632812 320.390625 273.167969 319.835938 274.507812 C 319.28125 275.847656 317.742188 276.484375 316.40625 275.929688 Z M 316.40625 275.929688 "/>
<path style=" stroke:none;fill-rule:nonzero;fill:rgb(0%,0%,53.333333%);fill-opacity:1;" d="M 286.789062 211.410156 L 316.75 221.304688 L 331.703125 223.445312 L 317.679688 217.824219 Z M 286.789062 211.410156 "/>
<path style=" stroke:none;fill-rule:nonzero;fill:rgb(0%,0%,53.333333%);fill-opacity:1;" d="M 303.941406 268.734375 C 302.792969 267.851562 302.574219 266.203125 303.457031 265.054688 C 304.339844 263.902344 305.988281 263.6875 307.136719 264.570312 C 308.289062 265.453125 308.503906 267.097656 307.621094 268.25 C 306.738281 269.398438 305.09375 269.617188 303.941406 268.734375 Z M 303.941406 268.734375 "/>
<path style=" stroke:none;fill-rule:nonzero;fill:rgb(0%,0%,53.333333%);fill-opacity:1;" d="M 292.035156 198.75 L 318.414062 216.058594 L 332.304688 222 L 320.214844 212.941406 Z M 292.035156 198.75 "/>
<path style=" stroke:none;fill-rule:nonzero;fill:rgb(0%,0%,53.333333%);fill-opacity:1;" d="M 293.765625 258.558594 C 292.882812 257.40625 293.101562 255.761719 294.25 254.878906 C 295.402344 253.996094 297.046875 254.210938 297.929688 255.363281 C 298.8125 256.511719 298.597656 258.160156 297.445312 259.042969 C 296.296875 259.925781 294.648438 259.707031 293.765625 258.558594 Z M 293.765625 258.558594 "/>
<path style=" stroke:none;fill-rule:nonzero;fill:rgb(0%,0%,53.333333%);fill-opacity:1;" d="M 300.375 187.875 L 321.378906 211.421875 L 333.257812 220.757812 L 323.921875 208.878906 Z M 300.375 187.875 "/>
<path style=" stroke:none;fill-rule:nonzero;fill:rgb(0%,0%,53.333333%);fill-opacity:1;" d="M 286.570312 246.09375 C 286.015625 244.757812 286.652344 243.21875 287.992188 242.664062 C 289.332031 242.109375 290.867188 242.746094 291.421875 244.085938 C 291.976562 245.425781 291.339844 246.960938 290 247.515625 C 288.660156 248.070312 287.125 247.433594 286.570312 246.09375 Z M 286.570312 246.09375 "/>
<path style=" stroke:none;fill-rule:nonzero;fill:rgb(0%,0%,53.333333%);fill-opacity:1;" d="M 311.25 179.535156 L 325.441406 207.714844 L 334.5 219.804688 L 328.558594 205.914062 Z M 311.25 179.535156 "/>
<path style=" stroke:none;fill-rule:nonzero;fill:rgb(0%,0%,53.333333%);fill-opacity:1;" d="M 282.847656 232.195312 C 282.65625 230.757812 283.667969 229.4375 285.105469 229.25 C 286.542969 229.0625 287.863281 230.074219 288.050781 231.511719 C 288.242188 232.949219 287.230469 234.265625 285.792969 234.457031 C 284.355469 234.644531 283.035156 233.632812 282.847656 232.195312 Z M 282.847656 232.195312 "/>
<path style=" stroke:none;fill-rule:nonzero;fill:rgb(0%,0%,53.333333%);fill-opacity:1;" d="M 323.910156 174.289062 L 330.324219 205.179688 L 335.945312 219.203125 L 333.804688 204.25 Z M 323.910156 174.289062 "/>
<path style=" stroke:none;fill-rule:nonzero;fill:rgb(0%,0%,53.333333%);fill-opacity:1;" d="M 282.847656 217.804688 C 283.035156 216.367188 284.355469 215.355469 285.792969 215.542969 C 287.230469 215.734375 288.242188 217.050781 288.050781 218.488281 C 287.863281 219.925781 286.542969 220.9375 285.105469 220.75 C 283.667969 220.5625 282.65625 219.242188 282.847656 217.804688 Z M 282.847656 217.804688 "/>
<path style=" stroke:none;fill-rule:nonzero;fill:rgb(0%,0%,53.333333%);fill-opacity:1;" d="M 337.5 172.5 L 335.699219 204 L 337.5 219 L 339.300781 204 Z M 337.5 172.5 "/>
<path style=" stroke:none;fill-rule:nonzero;fill:rgb(0%,0%,53.333333%);fill-opacity:1;" d="M 286.570312 203.90625 C 287.125 202.566406 288.660156 201.929688 290 202.484375 C 291.339844 203.039062 291.976562 204.574219 291.421875 205.914062 C 290.867188 207.253906 289.332031 207.890625 287.992188 207.335938 C 286.652344 206.78125 286.015625 205.242188 286.570312 203.90625 Z M 286.570312 203.90625 "/>
<path style=" stroke:none;fill-rule:nonzero;fill:rgb(0%,0%,53.333333%);fill-opacity:1;" d="M 351.089844 174.289062 L 341.195312 204.25 L 339.054688 219.203125 L 344.675781 205.179688 Z M 351.089844 174.289062 "/>
<path style=" stroke:none;fill-rule:nonzero;fill:rgb(0%,0%,53.333333%);fill-opacity:1;" d="M 293.765625 191.441406 C 294.648438 190.292969 296.296875 190.074219 297.445312 190.957031 C 298.597656 191.839844 298.8125 193.488281 297.929688 194.636719 C 297.046875 195.789062 295.402344 196.003906 294.25 195.121094 C 293.101562 194.238281 292.882812 192.59375 293.765625 191.441406 Z M 293.765625 191.441406 "/>
<path style=" stroke:none;fill-rule:nonzero;fill:rgb(0%,0%,53.333333%);fill-opacity:1;" d="M 363.75 179.535156 L 346.441406 205.914062 L 340.5 219.804688 L 349.558594 207.714844 Z M 363.75 179.535156 "/>
<path style=" stroke:none;fill-rule:nonzero;fill:rgb(0%,0%,53.333333%);fill-opacity:1;" d="M 303.941406 181.265625 C 305.09375 180.382812 306.738281 180.601562 307.621094 181.75 C 308.503906 182.902344 308.289062 184.546875 307.136719 185.429688 C 305.988281 186.3125 304.339844 186.097656 303.457031 184.945312 C 302.574219 183.796875 302.792969 182.148438 303.941406 181.265625 Z M 303.941406 181.265625 "/>
<path style=" stroke:none;fill-rule:nonzero;fill:rgb(0%,0%,53.333333%);fill-opacity:1;" d="M 374.625 187.875 L 351.078125 208.878906 L 341.742188 220.757812 L 353.621094 211.421875 Z M 374.625 187.875 "/>
<path style=" stroke:none;fill-rule:nonzero;fill:rgb(0%,0%,53.333333%);fill-opacity:1;" d="M 316.40625 174.070312 C 317.742188 173.515625 319.28125 174.152344 319.835938 175.492188 C 320.390625 176.832031 319.753906 178.367188 318.414062 178.921875 C 317.074219 179.476562 315.539062 178.839844 314.984375 177.5 C 314.429688 176.160156 315.066406 174.625 316.40625 174.070312 Z M 316.40625 174.070312 "/>
<path style=" stroke:none;fill-rule:nonzero;fill:rgb(0%,0%,53.333333%);fill-opacity:1;" d="M 382.964844 198.75 L 354.785156 212.941406 L 342.695312 222 L 356.585938 216.058594 Z M 382.964844 198.75 "/>
<path style=" stroke:none;fill-rule:nonzero;fill:rgb(0%,0%,53.333333%);fill-opacity:1;" d="M 330.304688 170.347656 C 331.742188 170.15625 333.0625 171.167969 333.25 172.605469 C 333.4375 174.042969 332.425781 175.363281 330.988281 175.550781 C 329.550781 175.742188 328.234375 174.730469 328.042969 173.292969 C 327.855469 171.855469 328.867188 170.535156 330.304688 170.347656 Z M 330.304688 170.347656 "/>
<path style=" stroke:none;fill-rule:nonzero;fill:rgb(0%,0%,53.333333%);fill-opacity:1;" d="M 388.210938 211.410156 L 357.320312 217.824219 L 343.296875 223.445312 L 358.25 221.304688 Z M 388.210938 211.410156 "/>
<path style=" stroke:none;fill-rule:nonzero;fill:rgb(0%,0%,53.333333%);fill-opacity:1;" d="M 344.695312 170.347656 C 346.132812 170.535156 347.144531 171.855469 346.957031 173.292969 C 346.765625 174.730469 345.449219 175.742188 344.011719 175.550781 C 342.574219 175.363281 341.5625 174.042969 341.75 172.605469 C 341.9375 171.167969 343.257812 170.15625 344.695312 170.347656 Z M 344.695312 170.347656 "/>
<path style=" stroke:none;fill-rule:nonzero;fill:rgb(0%,0%,53.333333%);fill-opacity:1;" d="M 390 225 L 358.5 223.199219 L 343.5 225 L 358.5 226.800781 Z M 390 225 "/>
<path style=" stroke:none;fill-rule:nonzero;fill:rgb(0%,0%,53.333333%);fill-opacity:1;" d="M 358.59375 174.070312 C 359.933594 174.625 360.570312 176.160156 360.015625 177.5 C 359.460938 178.839844 357.925781 179.476562 356.585938 178.921875 C 355.246094 178.367188 354.609375 176.832031 355.164062 175.492188 C 355.71875 174.152344 357.257812 173.515625 358.59375 174.070312 Z M 358.59375 174.070312 "/>
<path style=" stroke:none;fill-rule:nonzero;fill:rgb(0%,0%,53.333333%);fill-opacity:1;" d="M 388.210938 238.589844 L 358.25 228.695312 L 343.296875 226.554688 L 357.320312 232.175781 Z M 388.210938 238.589844 "/>
<path style=" stroke:none;fill-rule:nonzero;fill:rgb(0%,0%,53.333333%);fill-opacity:1;" d="M 371.058594 181.265625 C 372.207031 182.148438 372.425781 183.796875 371.542969 184.945312 C 370.660156 186.097656 369.011719 186.3125 367.863281 185.429688 C 366.710938 184.546875 366.496094 182.902344 367.378906 181.75 C 368.261719 180.601562 369.90625 180.382812 371.058594 181.265625 Z M 371.058594 181.265625 "/>
<path style=" stroke:none;fill-rule:nonzero;fill:rgb(0%,0%,53.333333%);fill-opacity:1;" d="M 382.964844 251.25 L 356.585938 233.941406 L 342.695312 228 L 354.785156 237.058594 Z M 382.964844 251.25 "/>
<path style=" stroke:none;fill-rule:nonzero;fill:rgb(0%,0%,53.333333%);fill-opacity:1;" d="M 381.234375 191.441406 C 382.117188 192.59375 381.898438 194.238281 380.75 195.121094 C 379.597656 196.003906 377.953125 195.789062 377.070312 194.636719 C 376.1875 193.488281 376.402344 191.839844 377.554688 190.957031 C 378.703125 190.074219 380.351562 190.292969 381.234375 191.441406 Z M 381.234375 191.441406 "/>
<path style=" stroke:none;fill-rule:nonzero;fill:rgb(0%,0%,53.333333%);fill-opacity:1;" d="M 374.625 262.125 L 353.621094 238.578125 L 341.742188 229.242188 L 351.078125 241.121094 Z M 374.625 262.125 "/>
<path style=" stroke:none;fill-rule:nonzero;fill:rgb(0%,0%,53.333333%);fill-opacity:1;" d="M 388.429688 203.90625 C 388.984375 205.242188 388.347656 206.78125 387.007812 207.335938 C 385.667969 207.890625 384.132812 207.253906 383.578125 205.914062 C 383.023438 204.574219 383.660156 203.039062 385 202.484375 C 386.339844 201.929688 387.875 202.566406 388.429688 203.90625 Z M 388.429688 203.90625 "/>
<path style=" stroke:none;fill-rule:nonzero;fill:rgb(0%,0%,53.333333%);fill-opacity:1;" d="M 363.75 270.464844 L 349.558594 242.285156 L 340.5 230.195312 L 346.441406 244.085938 Z M 363.75 270.464844 "/>
<path style=" stroke:none;fill-rule:nonzero;fill:rgb(0%,0%,53.333333%);fill-opacity:1;" d="M 392.152344 217.804688 C 392.34375 219.242188 391.332031 220.5625 389.894531 220.75 C 388.457031 220.9375 387.136719 219.925781 386.949219 218.488281 C 386.757812 217.050781 387.769531 215.734375 389.207031 215.542969 C 390.644531 215.355469 391.964844 216.367188 392.152344 217.804688 Z M 392.152344 217.804688 "/>
<path style=" stroke:none;fill-rule:nonzero;fill:rgb(0%,0%,53.333333%);fill-opacity:1;" d="M 351.089844 275.710938 L 344.675781 244.820312 L 339.054688 230.796875 L 341.195312 245.75 Z M 351.089844 275.710938 "/>
</g>
</svg>
