<?xml version="1.0" encoding="UTF-8"?>
<svg xmlns="http://www.w3.org/2000/svg" xmlns:xlink="http://www.w3.org/1999/xlink" width="px" height="px" viewBox="0 0 300 150" version="1.1">
<defs>
<clipPath id="clip1">
  <path d="M 0 0 L 150 0 L 150 75 L 0 75 Z M 0 0 "/>
</clipPath>
<clipPath id="clip2">
  <path d="M 0 0 L 150 0 L 150 75 L 0 75 Z M 0 0 "/>
</clipPath>
<clipPath id="clip3">
  <path d="M 0 0 L 0 37.5 L 175 37.5 L 175 75 L 150 75 Z M 150 0 L 75 0 L 75 100 L 0 100 L 0 75 Z M 150 0 "/>
</clipPath>
<clipPath id="clip4">
  <path d="M 0 0 L 150 0 L 150 75 L 0 75 Z M 0 0 "/>
</clipPath>
</defs>
<g id="surface1">
<rect x="0" y="0" width="300" height="150" style="fill:rgb(100%,100%,100%);fill-opacity:1;stroke:none;"/>
<path style=" stroke:none;fill-rule:nonzero;fill:rgb(0.392157%,12.941176%,41.176471%);fill-opacity:1;" d="M 300 130.441406 C 296.636719 132.464844 293.75 137.191406 284.820312 137.191406 C 266.964844 137.191406 262.5 127.238281 249.105469 127.238281 C 240.179688 127.238281 235.714844 137.191406 226.785156 137.191406 C 208.929688 137.191406 204.464844 127.238281 191.070312 127.238281 C 182.144531 127.238281 177.679688 137.191406 168.75 137.191406 C 150.894531 137.191406 146.429688 127.238281 133.035156 127.238281 C 124.105469 127.238281 119.644531 137.191406 110.714844 137.191406 C 92.859375 137.191406 88.394531 127.238281 75 127.238281 C 66.070312 127.238281 61.605469 137.191406 52.679688 137.191406 C 34.820312 137.191406 30.355469 127.238281 16.964844 127.238281 C 8.035156 127.238281 5.355469 134.328125 0 134.328125 L 0 147.140625 C 5.355469 147.140625 8.035156 140.050781 16.964844 140.050781 C 30.355469 140.050781 34.820312 150 52.679688 150 C 61.605469 150 66.070312 140.050781 75 140.050781 C 88.390625 140.050781 92.859375 150 110.714844 150 C 119.644531 150 124.105469 140.050781 133.035156 140.050781 C 146.429688 140.050781 150.894531 150 168.75 150 C 177.679688 150 182.144531 140.050781 191.070312 140.050781 C 204.464844 140.050781 208.929688 150 226.785156 150 C 235.714844 150 240.179688 140.050781 249.105469 140.050781 C 262.5 140.050781 266.964844 150 284.820312 150 C 293.75 150 296.636719 147.179688 300 145.15625 Z M 300 130.441406 "/>
<path style=" stroke:none;fill-rule:nonzero;fill:rgb(0.392157%,12.941176%,41.176471%);fill-opacity:1;" d="M 300 105.5625 C 296.636719 107.585938 293.75 112.3125 284.820312 112.3125 C 266.964844 112.3125 262.5 102.363281 249.105469 102.363281 C 240.179688 102.363281 235.714844 112.3125 226.785156 112.3125 C 208.929688 112.3125 204.464844 102.363281 191.070312 102.363281 C 182.144531 102.363281 177.679688 112.3125 168.75 112.3125 C 150.894531 112.3125 146.429688 102.363281 133.035156 102.363281 C 124.105469 102.363281 119.644531 112.3125 110.714844 112.3125 C 92.859375 112.3125 88.394531 102.363281 75 102.363281 C 66.070312 102.363281 61.605469 112.3125 52.679688 112.3125 C 34.820312 112.3125 30.355469 102.363281 16.964844 102.363281 C 8.035156 102.363281 5.355469 109.453125 0 109.453125 L 0 122.261719 C 5.355469 122.261719 8.035156 115.171875 16.964844 115.171875 C 30.355469 115.171875 34.820312 125.125 52.679688 125.125 C 61.605469 125.125 66.070312 115.171875 75 115.171875 C 88.390625 115.171875 92.859375 125.125 110.714844 125.125 C 119.644531 125.125 124.105469 115.171875 133.035156 115.171875 C 146.429688 115.171875 150.894531 125.125 168.75 125.125 C 177.679688 125.125 182.144531 115.171875 191.070312 115.171875 C 204.464844 115.171875 208.929688 125.125 226.785156 125.125 C 235.714844 125.125 240.179688 115.171875 249.105469 115.171875 C 262.5 115.171875 266.964844 125.125 284.820312 125.125 C 293.75 125.125 296.636719 122.304688 300 120.28125 Z M 300 105.5625 "/>
<path style=" stroke:none;fill-rule:nonzero;fill:rgb(0.392157%,12.941176%,41.176471%);fill-opacity:1;" d="M 300 80.6875 C 296.636719 82.710938 293.75 87.4375 284.820312 87.4375 C 266.964844 87.4375 262.5 77.484375 249.105469 77.484375 C 240.179688 77.484375 235.714844 87.4375 226.785156 87.4375 C 208.929688 87.4375 204.464844 77.484375 191.070312 77.484375 C 182.144531 77.484375 177.679688 87.4375 168.75 87.4375 C 150.894531 87.4375 146.429688 77.484375 133.035156 77.484375 C 124.105469 77.484375 119.644531 87.4375 110.714844 87.4375 C 92.859375 87.4375 88.394531 77.484375 75 77.484375 C 66.070312 77.484375 61.605469 87.4375 52.679688 87.4375 C 34.820312 87.4375 30.355469 77.484375 16.964844 77.484375 C 8.035156 77.484375 5.355469 84.574219 0 84.574219 L 0 97.386719 C 5.355469 97.386719 8.035156 90.296875 16.964844 90.296875 C 30.355469 90.296875 34.820312 100.246094 52.679688 100.246094 C 61.605469 100.246094 66.070312 90.296875 75 90.296875 C 88.390625 90.296875 92.859375 100.246094 110.714844 100.246094 C 119.644531 100.246094 124.105469 90.296875 133.035156 90.296875 C 146.429688 90.296875 150.894531 100.246094 168.75 100.246094 C 177.679688 100.246094 182.144531 90.296875 191.070312 90.296875 C 204.464844 90.296875 208.929688 100.246094 226.785156 100.246094 C 235.714844 100.246094 240.179688 90.296875 249.105469 90.296875 C 262.5 90.296875 266.964844 100.246094 284.820312 100.246094 C 293.75 100.246094 296.636719 97.425781 300 95.40625 Z M 300 80.6875 "/>
<path style=" stroke:none;fill-rule:nonzero;fill:rgb(0.392157%,12.941176%,41.176471%);fill-opacity:1;" d="M 300 55.808594 C 296.636719 57.832031 293.75 62.558594 284.820312 62.558594 C 266.964844 62.558594 262.5 52.609375 249.105469 52.609375 C 240.179688 52.609375 235.714844 62.558594 226.785156 62.558594 C 208.929688 62.558594 204.464844 52.609375 191.070312 52.609375 C 182.144531 52.609375 177.679688 62.558594 168.75 62.558594 C 150.894531 62.558594 146.429688 52.609375 133.035156 52.609375 C 124.105469 52.609375 119.644531 62.558594 110.714844 62.558594 C 92.859375 62.558594 88.394531 52.609375 75 52.609375 C 66.070312 52.609375 61.605469 62.558594 52.679688 62.558594 C 34.820312 62.558594 30.355469 52.609375 16.964844 52.609375 C 8.035156 52.609375 5.355469 59.699219 0 59.699219 L 0 72.511719 C 5.355469 72.511719 8.035156 65.417969 16.964844 65.417969 C 30.355469 65.417969 34.820312 75.371094 52.679688 75.371094 C 61.605469 75.371094 66.070312 65.417969 75 65.417969 C 88.390625 65.417969 92.859375 75.371094 110.714844 75.371094 C 119.644531 75.371094 124.105469 65.417969 133.035156 65.417969 C 146.429688 65.417969 150.894531 75.371094 168.75 75.371094 C 177.679688 75.371094 182.144531 65.417969 191.070312 65.417969 C 204.464844 65.417969 208.929688 75.371094 226.785156 75.371094 C 235.714844 75.371094 240.179688 65.417969 249.105469 65.417969 C 262.5 65.417969 266.964844 75.371094 284.820312 75.371094 C 293.75 75.371094 296.636719 72.550781 300 70.527344 Z M 300 55.808594 "/>
<path style=" stroke:none;fill-rule:nonzero;fill:rgb(0.392157%,12.941176%,41.176471%);fill-opacity:1;" d="M 300 30.933594 C 296.636719 32.957031 293.75 37.683594 284.820312 37.683594 C 266.964844 37.683594 262.5 27.730469 249.105469 27.730469 C 240.179688 27.730469 235.714844 37.683594 226.785156 37.683594 C 208.929688 37.683594 204.464844 27.730469 191.070312 27.730469 C 182.144531 27.730469 177.679688 37.683594 168.75 37.683594 C 150.894531 37.683594 146.429688 27.730469 133.035156 27.730469 C 124.105469 27.730469 119.644531 37.683594 110.714844 37.683594 C 92.859375 37.683594 88.394531 27.730469 75 27.730469 C 66.070312 27.730469 61.605469 37.683594 52.679688 37.683594 C 34.820312 37.683594 30.355469 27.730469 16.964844 27.730469 C 8.035156 27.730469 5.355469 34.824219 0 34.824219 L 0 47.632812 C 5.355469 47.632812 8.035156 40.542969 16.964844 40.542969 C 30.355469 40.542969 34.820312 50.492188 52.679688 50.492188 C 61.605469 50.492188 66.070312 40.542969 75 40.542969 C 88.390625 40.542969 92.859375 50.492188 110.714844 50.492188 C 119.644531 50.492188 124.105469 40.542969 133.035156 40.542969 C 146.429688 40.542969 150.894531 50.492188 168.75 50.492188 C 177.679688 50.492188 182.144531 40.542969 191.070312 40.542969 C 204.464844 40.542969 208.929688 50.492188 226.785156 50.492188 C 235.714844 50.492188 240.179688 40.542969 249.105469 40.542969 C 262.5 40.542969 266.964844 50.492188 284.820312 50.492188 C 293.75 50.492188 296.636719 47.671875 300 45.652344 Z M 300 30.933594 "/>
<path style=" stroke:none;fill-rule:nonzero;fill:rgb(0.392157%,12.941176%,41.176471%);fill-opacity:1;" d="M 300 6.054688 C 296.636719 8.078125 293.75 12.804688 284.820312 12.804688 C 266.964844 12.804688 262.5 2.855469 249.105469 2.855469 C 240.179688 2.855469 235.714844 12.804688 226.785156 12.804688 C 208.929688 12.804688 204.464844 2.855469 191.070312 2.855469 C 182.144531 2.855469 177.679688 12.804688 168.75 12.804688 C 150.894531 12.804688 146.429688 2.855469 133.035156 2.855469 C 124.105469 2.855469 119.644531 12.804688 110.714844 12.804688 C 92.859375 12.804688 88.394531 2.855469 75 2.855469 C 66.070312 2.855469 61.605469 12.804688 52.679688 12.804688 C 34.820312 12.804688 30.355469 2.855469 16.964844 2.855469 C 8.035156 2.855469 5.355469 9.945312 0 9.945312 L 0 22.757812 C 5.355469 22.757812 8.035156 15.664062 16.964844 15.664062 C 30.355469 15.664062 34.820312 25.617188 52.679688 25.617188 C 61.605469 25.617188 66.070312 15.664062 75 15.664062 C 88.390625 15.664062 92.859375 25.617188 110.714844 25.617188 C 119.644531 25.617188 124.105469 15.664062 133.035156 15.664062 C 146.429688 15.664062 150.894531 25.617188 168.75 25.617188 C 177.679688 25.617188 182.144531 15.664062 191.070312 15.664062 C 204.464844 15.664062 208.929688 25.617188 226.785156 25.617188 C 235.714844 25.617188 240.179688 15.664062 249.105469 15.664062 C 262.5 15.664062 266.964844 25.617188 284.820312 25.617188 C 293.75 25.617188 296.636719 22.796875 300 20.773438 Z M 300 6.054688 "/>
<path style=" stroke:none;fill-rule:nonzero;fill:rgb(100%,100%,100%);fill-opacity:1;" d="M 0 0 L 150 0 L 150 76 L 0 76 Z M 0 0 "/>
<path style=" stroke:none;fill-rule:nonzero;fill:rgb(0.392157%,12.941176%,41.176471%);fill-opacity:1;" d="M 0 0 L 150 0 L 150 75 L 0 75 Z M 0 0 "/>
<path style=" stroke:none;fill-rule:nonzero;fill:rgb(0%,0%,0%);fill-opacity:1;" d="M 0 0 L 150 75 M 150 0 L 0 75 "/>
<g clip-path="url(#clip1)" clip-rule="nonzero">
<path style="fill:none;stroke-width:30;stroke-linecap:butt;stroke-linejoin:miter;stroke:rgb(100%,100%,100%);stroke-opacity:1;stroke-miterlimit:4;" d="M 0 0 L 300 150 M 300 0 L 0 150 " transform="matrix(0.5,0,0,0.5,0,0)"/>
</g>
<g clip-path="url(#clip2)" clip-rule="nonzero">
<g clip-path="url(#clip3)" clip-rule="nonzero">
<path style="fill-rule:nonzero;fill:rgb(0%,0%,0%);fill-opacity:1;stroke-width:20;stroke-linecap:butt;stroke-linejoin:miter;stroke:rgb(78.431373%,6.27451%,18.039216%);stroke-opacity:1;stroke-miterlimit:4;" d="M 0 0 L 300 150 M 300 0 L 0 150 " transform="matrix(0.5,0,0,0.5,0,0)"/>
</g>
</g>
<g clip-path="url(#clip4)" clip-rule="nonzero">
<path style="fill-rule:nonzero;fill:rgb(0%,0%,0%);fill-opacity:1;stroke-width:50;stroke-linecap:butt;stroke-linejoin:miter;stroke:rgb(100%,100%,100%);stroke-opacity:1;stroke-miterlimit:4;" d="M 150 0 L 150 200 M 0 75 L 350 75 " transform="matrix(0.5,0,0,0.5,0,0)"/>
<path style="fill-rule:nonzero;fill:rgb(0%,0%,0%);fill-opacity:1;stroke-width:30;stroke-linecap:butt;stroke-linejoin:miter;stroke:rgb(78.431373%,6.27451%,18.039216%);stroke-opacity:1;stroke-miterlimit:4;" d="M 150 0 L 150 200 M 0 75 L 350 75 " transform="matrix(0.5,0,0,0.5,0,0)"/>
</g>
<path style="fill-rule:nonzero;fill:rgb(63.529412%,26.27451%,0%);fill-opacity:1;stroke-width:6.935;stroke-linecap:butt;stroke-linejoin:miter;stroke:rgb(100%,100%,100%);stroke-opacity:1;stroke-miterlimit:4;" d="M 814.942125 -301.172283 L 797.243696 407.489948 C 797.243696 444.776509 877.338776 444.776509 885.800434 407.489948 L 868.102005 -301.172283 Z M 814.942125 -301.172283 " transform="matrix(0.060475,0,0,0.14363,173.9195,83.023)"/>
<path style="fill-rule:nonzero;fill:rgb(0%,42.745098%,0%);fill-opacity:1;stroke-width:8.25;stroke-linecap:butt;stroke-linejoin:miter;stroke:rgb(100%,100%,100%);stroke-opacity:1;stroke-miterlimit:4;" d="M 673.206544 325.161208 L 690.921148 396.033919 L 726.367786 342.859439 L 708.659998 431.430427 L 744.106047 396.032222 L 708.66126 484.623558 L 744.084242 449.149006 L 708.688618 537.757341 L 744.085504 502.342137 L 708.666224 608.6504 L 744.089206 573.175848 L 708.669926 679.484112 L 744.066812 644.068907 L 690.937892 803.531302 L 673.252498 821.209231 L 655.489992 803.512651 L 637.800896 750.356868 L 602.373539 644.028302 L 637.797193 679.523156 L 602.369836 573.19459 L 637.819588 608.630097 L 602.366134 502.360879 L 637.766721 537.779386 L 602.364872 449.167748 L 637.814623 484.603255 L 602.337513 396.033964 L 637.787265 431.469471 L 620.096317 342.896832 L 655.522412 396.032267 Z M 673.206544 325.161208 " transform="matrix(-0.0689673,0.0197553,-0.0303271,-0.0571331,290.575613,82.867899)"/>
<path style="fill:none;stroke-width:1;stroke-linecap:butt;stroke-linejoin:miter;stroke:rgb(0%,0%,0%);stroke-opacity:1;stroke-miterlimit:4;" d="M 496.040544 549.213208 L 496.086498 1045.261231 M 425.207539 868.080302 L 496.082796 974.427519 L 566.900812 868.120907 " transform="matrix(-0.0689673,0.0197553,-0.0303271,-0.0571331,285.151798,99.16865)"/>
<path style="fill:none;stroke-width:1;stroke-linecap:butt;stroke-linejoin:miter;stroke:rgb(0%,0%,0%);stroke-opacity:1;stroke-miterlimit:4;" d="M 425.203836 797.24659 L 496.056026 903.51746 L 566.923206 797.227848 " transform="matrix(-0.0689673,0.0197553,-0.0303271,-0.0571331,285.151798,99.16865)"/>
<path style="fill:none;stroke-width:1;stroke-linecap:butt;stroke-linejoin:miter;stroke:rgb(0%,0%,0%);stroke-opacity:1;stroke-miterlimit:4;" d="M 425.200134 726.412879 L 496.052324 832.683749 L 566.919504 726.394137 " transform="matrix(-0.0689673,0.0197553,-0.0303271,-0.0571331,285.151798,99.16865)"/>
<path style="fill:none;stroke-width:1;stroke-linecap:butt;stroke-linejoin:miter;stroke:rgb(0%,0%,0%);stroke-opacity:1;stroke-miterlimit:4;" d="M 425.198872 673.219748 L 496.074718 761.79069 L 566.918242 673.201006 " transform="matrix(-0.0689673,0.0197553,-0.0303271,-0.0571331,285.151798,99.16865)"/>
<path style="fill:none;stroke-width:1;stroke-linecap:butt;stroke-linejoin:miter;stroke:rgb(0%,0%,0%);stroke-opacity:1;stroke-miterlimit:4;" d="M 425.171513 620.085964 L 496.04736 708.656906 L 566.940047 620.084222 " transform="matrix(-0.0689673,0.0197553,-0.0303271,-0.0571331,285.151798,99.16865)"/>
<path style="fill:none;stroke-width:1;stroke-linecap:butt;stroke-linejoin:miter;stroke:rgb(0%,0%,0%);stroke-opacity:1;stroke-miterlimit:4;" d="M 442.930317 566.948832 L 496.045508 673.240051 L 549.201786 566.911439 " transform="matrix(-0.0689673,0.0197553,-0.0303271,-0.0571331,285.151798,99.16865)"/>
<path style="fill-rule:nonzero;fill:rgb(0%,42.745098%,0%);fill-opacity:1;stroke-width:8.25;stroke-linecap:butt;stroke-linejoin:miter;stroke:rgb(100%,100%,100%);stroke-opacity:1;stroke-miterlimit:4;" d="M 673.233932 325.169852 L 690.939575 396.005817 L 726.378829 342.887275 L 708.665125 431.435408 L 744.072104 396.037953 L 708.642543 484.599526 L 744.094165 449.166272 L 708.664604 537.727844 L 744.071582 502.330389 L 708.683992 608.613906 L 744.09097 573.216451 L 708.673777 679.463311 L 744.080755 644.065856 L 708.648519 750.385171 L 690.954724 803.52693 L 673.251235 821.225657 L 655.493408 803.517153 L 637.800133 750.366475 L 602.339338 644.064263 L 637.780746 679.480414 L 602.349553 573.214857 L 637.790961 608.631008 L 602.330166 502.328796 L 637.801176 537.781603 L 602.352748 449.164678 L 637.794156 484.580829 L 602.375331 396.000561 L 637.772095 431.452511 L 620.069127 342.858803 L 655.50786 396.032697 Z M 673.233932 325.169852 " transform="matrix(0.0518653,-0.0531067,0.0646803,0.042887,138.851225,51.088883)"/>
<path style="fill:none;stroke-width:1;stroke-linecap:butt;stroke-linejoin:miter;stroke:rgb(0%,0%,0%);stroke-opacity:1;stroke-miterlimit:4;" d="M 496.067932 549.221852 L 496.085235 1045.277657 M 425.173338 868.116263 L 496.065848 974.391596 L 566.914755 868.117856 " transform="matrix(0.0518653,-0.0531067,0.0646803,0.042887,133.548239,32.071267)"/>
<path style="fill:none;stroke-width:1;stroke-linecap:butt;stroke-linejoin:miter;stroke:rgb(0%,0%,0%);stroke-opacity:1;stroke-miterlimit:4;" d="M 425.183553 797.266857 L 496.076062 903.54219 L 566.92497 797.268451 " transform="matrix(0.0518653,-0.0531067,0.0646803,0.042887,133.548239,32.071267)"/>
<path style="fill:none;stroke-width:1;stroke-linecap:butt;stroke-linejoin:miter;stroke:rgb(0%,0%,0%);stroke-opacity:1;stroke-miterlimit:4;" d="M 425.164166 726.380796 L 496.056675 832.656129 L 566.905582 726.382389 " transform="matrix(0.0518653,-0.0531067,0.0646803,0.042887,133.548239,32.071267)"/>
<path style="fill:none;stroke-width:1;stroke-linecap:butt;stroke-linejoin:miter;stroke:rgb(0%,0%,0%);stroke-opacity:1;stroke-miterlimit:4;" d="M 425.186748 673.216678 L 496.06689 761.806724 L 566.928165 673.218272 " transform="matrix(0.0518653,-0.0531067,0.0646803,0.042887,133.548239,32.071267)"/>
<path style="fill:none;stroke-width:1;stroke-linecap:butt;stroke-linejoin:miter;stroke:rgb(0%,0%,0%);stroke-opacity:1;stroke-miterlimit:4;" d="M 425.209331 620.052561 L 496.044828 708.678405 L 566.906104 620.089953 " transform="matrix(0.0518653,-0.0531067,0.0646803,0.042887,133.548239,32.071267)"/>
<path style="fill:none;stroke-width:1;stroke-linecap:butt;stroke-linejoin:miter;stroke:rgb(0%,0%,0%);stroke-opacity:1;stroke-miterlimit:4;" d="M 442.903127 566.910803 L 496.035135 673.235375 L 549.212829 566.939275 " transform="matrix(0.0518653,-0.0531067,0.0646803,0.042887,133.548239,32.071267)"/>
<path style="fill-rule:nonzero;fill:rgb(0%,42.745098%,0%);fill-opacity:1;stroke-width:8.25;stroke-linecap:butt;stroke-linejoin:miter;stroke:rgb(100%,100%,100%);stroke-opacity:1;stroke-miterlimit:4;" d="M 673.221371 325.179395 L 690.932463 396.014585 L 726.365013 342.858715 L 708.686666 431.445599 L 744.101097 396.046893 L 708.675823 484.62989 L 744.112012 449.187584 L 708.63635 537.747628 L 744.122927 502.328275 L 708.650904 608.601883 L 744.065334 573.203176 L 708.643699 679.499737 L 744.079887 644.057431 L 708.658253 750.353992 L 690.972629 803.513748 L 673.229341 821.223425 L 655.529164 803.528927 L 637.79308 750.340749 L 602.349543 644.030946 L 637.778527 679.486495 L 602.385378 573.199644 L 637.763973 608.63224 L 602.370824 502.345389 L 637.821566 537.757338 L 602.381667 449.161099 L 637.810651 484.616647 L 602.370752 396.020408 L 637.799736 431.475956 L 620.056375 342.860651 L 655.488998 396.029763 Z M 673.221371 325.179395 " transform="matrix(0.0332524,0.0631642,-0.073,0.0315218,260.10969,-16.38705)"/>
<path style="fill:none;stroke-width:1;stroke-linecap:butt;stroke-linejoin:miter;stroke:rgb(0%,0%,0%);stroke-opacity:1;stroke-miterlimit:4;" d="M 496.055371 549.231395 L 496.063341 1045.275425 M 425.183543 868.082946 L 496.048787 974.42117 L 566.913887 868.109431 " transform="matrix(0.0332524,0.0631642,-0.073,0.0315218,282.356671,-12.259022)"/>
<path style="fill:none;stroke-width:1;stroke-linecap:butt;stroke-linejoin:miter;stroke:rgb(0%,0%,0%);stroke-opacity:1;stroke-miterlimit:4;" d="M 425.219378 797.251644 L 496.055992 903.523316 L 566.899334 797.255176 " transform="matrix(0.0332524,0.0631642,-0.073,0.0315218,282.356671,-12.259022)"/>
<path style="fill:none;stroke-width:1;stroke-linecap:butt;stroke-linejoin:miter;stroke:rgb(0%,0%,0%);stroke-opacity:1;stroke-miterlimit:4;" d="M 425.204824 726.397389 L 496.041438 832.669061 L 566.956927 726.380275 " transform="matrix(0.0332524,0.0631642,-0.073,0.0315218,282.356671,-12.259022)"/>
<path style="fill:none;stroke-width:1;stroke-linecap:butt;stroke-linejoin:miter;stroke:rgb(0%,0%,0%);stroke-opacity:1;stroke-miterlimit:4;" d="M 425.215667 673.213099 L 496.077273 761.837759 L 566.946012 673.239584 " transform="matrix(0.0332524,0.0631642,-0.073,0.0315218,282.356671,-12.259022)"/>
<path style="fill:none;stroke-width:1;stroke-linecap:butt;stroke-linejoin:miter;stroke:rgb(0%,0%,0%);stroke-opacity:1;stroke-miterlimit:4;" d="M 425.204752 620.072408 L 496.088116 708.653469 L 566.935097 620.098893 " transform="matrix(0.0332524,0.0631642,-0.073,0.0315218,282.356671,-12.259022)"/>
<path style="fill:none;stroke-width:1;stroke-linecap:butt;stroke-linejoin:miter;stroke:rgb(0%,0%,0%);stroke-opacity:1;stroke-miterlimit:4;" d="M 442.890375 566.912651 L 496.08084 673.226341 L 549.199013 566.910715 " transform="matrix(0.0332524,0.0631642,-0.073,0.0315218,282.356671,-12.259022)"/>
<path style="fill-rule:nonzero;fill:rgb(0%,42.745098%,0%);fill-opacity:1;stroke-width:8.25;stroke-linecap:butt;stroke-linejoin:miter;stroke:rgb(100%,100%,100%);stroke-opacity:1;stroke-miterlimit:4;" d="M 673.238352 325.180888 L 690.960351 396.025209 L 726.386851 342.891282 L 708.63981 431.463156 L 744.08758 396.032415 L 708.655987 484.604428 L 744.103757 449.173688 L 708.672164 537.745701 L 744.119933 502.31496 L 708.661978 608.621873 L 744.109747 573.191132 L 708.651791 679.498045 L 744.099561 644.067304 L 708.641605 750.374217 L 690.97323 803.515628 L 673.236375 821.21133 L 655.530553 803.508282 L 637.803885 750.327813 L 602.354794 644.077258 L 637.766438 679.483354 L 602.36498 573.201086 L 637.802563 608.646518 L 602.375166 502.324914 L 637.812749 537.770346 L 602.358989 449.183642 L 637.796573 484.629073 L 602.342812 396.04237 L 637.780396 431.487801 L 620.058821 342.869246 L 655.517674 396.017863 Z M 673.238352 325.180888 " transform="matrix(-0.0459446,0.056988,-0.069009,-0.0375794,311.383785,44.103586)"/>
<path style="fill:none;stroke-width:1;stroke-linecap:butt;stroke-linejoin:miter;stroke:rgb(0%,0%,0%);stroke-opacity:1;stroke-miterlimit:4;" d="M 496.072352 549.232888 L 496.070375 1045.26333 M 425.188794 868.129258 L 496.080561 974.387158 L 566.933561 868.119304 " transform="matrix(-0.0459446,0.056988,-0.069009,-0.0375794,318.705568,62.619655)"/>
<path style="fill:none;stroke-width:1;stroke-linecap:butt;stroke-linejoin:miter;stroke:rgb(0%,0%,0%);stroke-opacity:1;stroke-miterlimit:4;" d="M 425.19898 797.253086 L 496.043115 903.542699 L 566.943747 797.243132 " transform="matrix(-0.0459446,0.056988,-0.069009,-0.0375794,318.705568,62.619655)"/>
<path style="fill:none;stroke-width:1;stroke-linecap:butt;stroke-linejoin:miter;stroke:rgb(0%,0%,0%);stroke-opacity:1;stroke-miterlimit:4;" d="M 425.209166 726.376914 L 496.053301 832.666527 L 566.953933 726.36696 " transform="matrix(-0.0459446,0.056988,-0.069009,-0.0375794,318.705568,62.619655)"/>
<path style="fill:none;stroke-width:1;stroke-linecap:butt;stroke-linejoin:miter;stroke:rgb(0%,0%,0%);stroke-opacity:1;stroke-miterlimit:4;" d="M 425.192989 673.235642 L 496.063487 761.790356 L 566.937757 673.225688 " transform="matrix(-0.0459446,0.056988,-0.069009,-0.0375794,318.705568,62.619655)"/>
<path style="fill:none;stroke-width:1;stroke-linecap:butt;stroke-linejoin:miter;stroke:rgb(0%,0%,0%);stroke-opacity:1;stroke-miterlimit:4;" d="M 425.176812 620.09437 L 496.04731 708.649083 L 566.92158 620.084415 " transform="matrix(-0.0459446,0.056988,-0.069009,-0.0375794,318.705568,62.619655)"/>
<path style="fill:none;stroke-width:1;stroke-linecap:butt;stroke-linejoin:miter;stroke:rgb(0%,0%,0%);stroke-opacity:1;stroke-miterlimit:4;" d="M 442.892821 566.921246 L 496.052403 673.210997 L 549.220851 566.943282 " transform="matrix(-0.0459446,0.056988,-0.069009,-0.0375794,318.705568,62.619655)"/>
<path style="fill-rule:nonzero;fill:rgb(0%,42.745098%,0%);fill-opacity:1;stroke-width:8.25;stroke-linecap:butt;stroke-linejoin:miter;stroke:rgb(100%,100%,100%);stroke-opacity:1;stroke-miterlimit:4;" d="M 673.242343 325.167316 L 690.932432 396.011318 L 726.38182 342.865281 L 708.670397 431.448275 L 744.11813 396.025359 L 708.665433 484.617637 L 744.113166 449.19472 L 708.660469 537.786999 L 744.063635 502.324886 L 708.647409 608.598392 L 744.095142 573.175476 L 708.64079 679.490875 L 744.088523 644.067958 L 708.672296 750.341465 L 690.926057 803.52011 L 673.221254 821.210622 L 655.481634 803.496786 L 637.78989 750.375904 L 602.361836 644.094945 L 637.796509 679.483422 L 602.368455 573.202463 L 637.765003 608.632832 L 602.375075 502.30998 L 637.816188 537.779546 L 602.341913 449.182511 L 637.821153 484.610184 L 602.346877 396.013149 L 637.787991 431.482715 L 620.054991 342.876396 L 655.532576 396.02719 Z M 673.242343 325.167316 " transform="matrix(-0.0455499,-0.0486827,0.0517907,-0.0443058,212.40358,119.412496)"/>
<path style="fill:none;stroke-width:1;stroke-linecap:butt;stroke-linejoin:miter;stroke:rgb(0%,0%,0%);stroke-opacity:1;stroke-miterlimit:4;" d="M 496.076343 549.219316 L 496.055254 1045.262622 M 425.233962 868.105053 L 496.023747 974.412032 L 566.922523 868.119958 " transform="matrix(-0.0455499,-0.0486827,0.0517907,-0.0443058,192.729873,120.714383)"/>
<path style="fill:none;stroke-width:1;stroke-linecap:butt;stroke-linejoin:miter;stroke:rgb(0%,0%,0%);stroke-opacity:1;stroke-miterlimit:4;" d="M 425.202455 797.254463 L 496.074933 903.558746 L 566.929142 797.227476 " transform="matrix(-0.0455499,-0.0486827,0.0517907,-0.0443058,192.729873,120.714383)"/>
<path style="fill:none;stroke-width:1;stroke-linecap:butt;stroke-linejoin:miter;stroke:rgb(0%,0%,0%);stroke-opacity:1;stroke-miterlimit:4;" d="M 425.209075 726.36198 L 496.081552 832.666264 L 566.897635 726.376886 " transform="matrix(-0.0455499,-0.0486827,0.0517907,-0.0443058,192.729873,120.714383)"/>
<path style="fill:none;stroke-width:1;stroke-linecap:butt;stroke-linejoin:miter;stroke:rgb(0%,0%,0%);stroke-opacity:1;stroke-miterlimit:4;" d="M 425.175913 673.234511 L 496.050045 761.815674 L 566.947166 673.24672 " transform="matrix(-0.0455499,-0.0486827,0.0517907,-0.0443058,192.729873,120.714383)"/>
<path style="fill:none;stroke-width:1;stroke-linecap:butt;stroke-linejoin:miter;stroke:rgb(0%,0%,0%);stroke-opacity:1;stroke-miterlimit:4;" d="M 425.180877 620.065149 L 496.05501 708.646312 L 566.95213 620.077359 " transform="matrix(-0.0455499,-0.0486827,0.0517907,-0.0443058,192.729873,120.714383)"/>
<path style="fill:none;stroke-width:1;stroke-linecap:butt;stroke-linejoin:miter;stroke:rgb(0%,0%,0%);stroke-opacity:1;stroke-miterlimit:4;" d="M 442.888991 566.928396 L 496.058319 673.200071 L 549.21582 566.917281 " transform="matrix(-0.0455499,-0.0486827,0.0517907,-0.0443058,192.729873,120.714383)"/>
<path style="fill-rule:nonzero;fill:rgb(0%,42.745098%,0%);fill-opacity:1;stroke-width:8.25;stroke-linecap:butt;stroke-linejoin:miter;stroke:rgb(100%,100%,100%);stroke-opacity:1;stroke-miterlimit:4;" d="M 744.085629 425.19494 L 772.717303 496.081582 L 814.989472 442.890109 L 804.777825 531.501185 L 832.683897 496.062745 L 814.950405 584.668029 L 840.224293 549.188556 L 814.968955 637.788049 L 850.396872 602.3554 L 814.986236 708.655909 L 850.414153 673.22326 L 814.961883 779.510734 L 850.389801 744.078086 L 814.979164 850.378594 L 797.257848 903.556466 L 779.53907 921.238656 L 761.800473 903.548667 L 744.106048 850.376031 L 708.685202 744.085994 L 744.088767 779.508171 L 708.667921 673.218134 L 744.11312 708.653346 L 708.65064 602.350274 L 744.095839 637.785486 L 698.47806 549.18343 L 744.077288 584.665466 L 690.937665 496.057619 L 733.904709 531.498622 L 708.658981 442.879748 L 744.10291 496.0628 Z M 744.085629 425.19494 " transform="matrix(-0.0794206,-0.0187416,-0.046006,0.0598651,329.157273,7.963705)"/>
<path style="fill:none;stroke-width:1;stroke-linecap:butt;stroke-linejoin:miter;stroke:rgb(0%,0%,0%);stroke-opacity:1;stroke-miterlimit:4;" d="M 467.21127 584.617433 L 496.069664 708.689265 L 496.07407 1045.254656 " transform="matrix(-0.0794206,-0.0187416,-0.046006,0.0598651,312.34978,-4.773124)"/>
<path style="fill:none;stroke-width:1;stroke-linecap:butt;stroke-linejoin:miter;stroke:rgb(0%,0%,0%);stroke-opacity:1;stroke-miterlimit:4;" d="M 436.240719 885.842069 L 496.056789 974.386796 L 556.737507 885.850336 " transform="matrix(-0.0794206,-0.0187416,-0.046006,0.0598651,312.34978,-4.773124)"/>
<path style="fill:none;stroke-width:1;stroke-linecap:butt;stroke-linejoin:miter;stroke:rgb(0%,0%,0%);stroke-opacity:1;stroke-miterlimit:4;" d="M 434.510282 814.959888 L 496.081142 903.53197 L 556.720225 814.982476 " transform="matrix(-0.0794206,-0.0187416,-0.046006,0.0598651,312.34978,-4.773124)"/>
<path style="fill:none;stroke-width:1;stroke-linecap:butt;stroke-linejoin:miter;stroke:rgb(0%,0%,0%);stroke-opacity:1;stroke-miterlimit:4;" d="M 435.370396 744.105705 L 496.063861 832.66411 L 555.867184 744.113973 " transform="matrix(-0.0794206,-0.0187416,-0.046006,0.0598651,312.34978,-4.773124)"/>
<path style="fill:none;stroke-width:1;stroke-linecap:butt;stroke-linejoin:miter;stroke:rgb(0%,0%,0%);stroke-opacity:1;stroke-miterlimit:4;" d="M 432.834925 690.915487 L 496.088214 761.809284 L 549.194544 690.933571 " transform="matrix(-0.0794206,-0.0187416,-0.046006,0.0598651,312.34978,-4.773124)"/>
<path style="fill:none;stroke-width:1;stroke-linecap:butt;stroke-linejoin:miter;stroke:rgb(0%,0%,0%);stroke-opacity:1;stroke-miterlimit:4;" d="M 425.179266 637.818842 L 496.069664 708.689265 L 541.455617 637.810857 " transform="matrix(-0.0794206,-0.0187416,-0.046006,0.0598651,312.34978,-4.773124)"/>
<path style="fill:none;stroke-width:1;stroke-linecap:butt;stroke-linejoin:miter;stroke:rgb(0%,0%,0%);stroke-opacity:1;stroke-miterlimit:4;" d="M 436.112858 593.217118 L 489.251684 680.128193 L 524.596952 584.638865 " transform="matrix(-0.0794206,-0.0187416,-0.046006,0.0598651,312.34978,-4.773124)"/>
<path style="fill-rule:nonzero;fill:rgb(0%,42.745098%,0%);fill-opacity:1;stroke-width:8.25;stroke-linecap:butt;stroke-linejoin:miter;stroke:rgb(100%,100%,100%);stroke-opacity:1;stroke-miterlimit:4;" d="M 744.096966 425.222733 L 772.749942 496.055987 L 814.973452 442.933952 L 804.772252 531.480105 L 832.67464 496.060244 L 814.969129 584.643671 L 840.207235 549.189985 L 814.947551 637.824327 L 850.404112 602.353551 L 814.971328 708.644849 L 850.376013 673.242748 L 814.943229 779.534045 L 850.397775 744.118303 L 814.964991 850.409601 L 797.224676 903.534553 L 779.545249 921.283817 L 761.833033 903.519573 L 744.081984 850.406922 L 708.681621 744.099305 L 744.110082 779.517725 L 708.659859 673.223749 L 744.088321 708.64217 L 708.638097 602.348194 L 744.114405 637.808007 L 698.489067 549.22602 L 744.086122 584.640992 L 690.958487 496.041246 L 733.889245 531.477426 L 708.648941 442.929935 L 744.070881 496.056896 Z M 744.096966 425.222733 " transform="matrix(0.0791356,0.0196159,0.00289675,0.0716976,160.383696,-32.552303)"/>
<path style="fill:none;stroke-width:1;stroke-linecap:butt;stroke-linejoin:miter;stroke:rgb(0%,0%,0%);stroke-opacity:1;stroke-miterlimit:4;" d="M 467.183937 584.657596 L 496.062626 708.658332 L 496.080249 1045.299817 " transform="matrix(0.0791356,0.0196159,0.00289675,0.0716976,182.456617,-35.883531)"/>
<path style="fill:none;stroke-width:1;stroke-linecap:butt;stroke-linejoin:miter;stroke:rgb(0%,0%,0%);stroke-opacity:1;stroke-miterlimit:4;" d="M 436.21827 885.808625 L 496.058487 974.424261 L 556.75766 885.846292 " transform="matrix(0.0791356,0.0196159,0.00289675,0.0716976,182.456617,-35.883531)"/>
<path style="fill:none;stroke-width:1;stroke-linecap:butt;stroke-linejoin:miter;stroke:rgb(0%,0%,0%);stroke-opacity:1;stroke-miterlimit:4;" d="M 434.517356 814.956614 L 496.086586 903.535065 L 556.735898 814.970737 " transform="matrix(0.0791356,0.0196159,0.00289675,0.0716976,182.456617,-35.883531)"/>
<path style="fill:none;stroke-width:1;stroke-linecap:butt;stroke-linejoin:miter;stroke:rgb(0%,0%,0%);stroke-opacity:1;stroke-miterlimit:4;" d="M 435.383016 744.110679 L 496.064824 832.659509 L 555.87456 744.106954 " transform="matrix(0.0791356,0.0196159,0.00289675,0.0716976,182.456617,-35.883531)"/>
<path style="fill:none;stroke-width:1;stroke-linecap:butt;stroke-linejoin:miter;stroke:rgb(0%,0%,0%);stroke-opacity:1;stroke-miterlimit:4;" d="M 432.838019 690.923947 L 496.041048 761.838988 L 549.231402 690.9518 " transform="matrix(0.0791356,0.0196159,0.00289675,0.0716976,182.456617,-35.883531)"/>
<path style="fill:none;stroke-width:1;stroke-linecap:butt;stroke-linejoin:miter;stroke:rgb(0%,0%,0%);stroke-opacity:1;stroke-miterlimit:4;" d="M 425.207717 637.766457 L 496.062626 708.658332 L 541.453532 637.7802 " transform="matrix(0.0791356,0.0196159,0.00289675,0.0716976,182.456617,-35.883531)"/>
<path style="fill:none;stroke-width:1;stroke-linecap:butt;stroke-linejoin:miter;stroke:rgb(0%,0%,0%);stroke-opacity:1;stroke-miterlimit:4;" d="M 436.116603 593.266337 L 489.258842 680.118654 L 524.59192 584.642136 " transform="matrix(0.0791356,0.0196159,0.00289675,0.0716976,182.456617,-35.883531)"/>
<path style="fill-rule:nonzero;fill:rgb(0%,42.745098%,0%);fill-opacity:1;stroke-width:8.25;stroke-linecap:butt;stroke-linejoin:miter;stroke:rgb(100%,100%,100%);stroke-opacity:1;stroke-miterlimit:4;" d="M 354.325613 531.516403 L 442.92693 620.062924 L 460.652637 566.904002 L 460.652934 655.52926 L 496.076726 620.08278 L 478.332472 708.650735 L 513.756264 673.204255 L 496.076927 761.817664 L 531.500719 726.371184 L 513.784385 832.693031 L 549.208177 797.246552 L 513.756762 903.564396 L 549.236001 868.110071 L 531.519667 974.431918 L 513.784491 1027.537541 L 496.077329 1045.28743 L 478.323798 1027.582834 L 460.63479 974.408059 L 407.47419 892.102617 L 442.927332 903.532691 L 407.503339 797.244287 L 442.899508 832.669172 L 389.740434 726.376765 L 425.19205 761.793804 L 372.051426 673.201991 L 425.192145 708.684178 L 354.316441 620.088361 L 407.503138 655.509404 L 336.590436 584.622026 L 407.466237 620.108217 Z M 354.325613 531.516403 " transform="matrix(0.0101156,-0.0687225,0.0714913,0.0122093,145.745106,71.919292)"/>
<path style="fill:none;stroke-width:1;stroke-linecap:butt;stroke-linejoin:miter;stroke:rgb(0%,0%,0%);stroke-opacity:1;stroke-miterlimit:4;" d="M 378.938934 559.997875 L 442.917853 655.525256 L 460.652838 708.638886 L 469.48744 753.88707 L 478.36967 832.677179 L 487.662634 903.541081 L 496.077329 1045.28743 " transform="matrix(0.0101156,-0.0687225,0.0714913,0.0122093,145.745106,71.919292)"/>
<path style="fill:none;stroke-width:1;stroke-linecap:butt;stroke-linejoin:miter;stroke:rgb(0%,0%,0%);stroke-opacity:1;stroke-miterlimit:4;" d="M 425.192251 903.528688 L 488.883255 974.399745 L 539.591713 885.8119 " transform="matrix(0.0101156,-0.0687225,0.0714913,0.0122093,145.745106,71.919292)"/>
<path style="fill:none;stroke-width:1;stroke-linecap:butt;stroke-linejoin:miter;stroke:rgb(0%,0%,0%);stroke-opacity:1;stroke-miterlimit:4;" d="M 417.073634 814.959337 L 487.662634 903.541081 L 538.426539 814.945391 " transform="matrix(0.0101156,-0.0687225,0.0714913,0.0122093,145.745106,71.919292)"/>
<path style="fill:none;stroke-width:1;stroke-linecap:butt;stroke-linejoin:miter;stroke:rgb(0%,0%,0%);stroke-opacity:1;stroke-miterlimit:4;" d="M 407.501138 752.440193 L 478.36967 832.677179 L 524.306941 744.108756 M 372.069972 637.792958 L 460.652838 708.638886 L 486.432438 637.784609 " transform="matrix(0.0101156,-0.0687225,0.0714913,0.0122093,145.745106,71.919292)"/>
<path style="fill:none;stroke-width:1;stroke-linecap:butt;stroke-linejoin:miter;stroke:rgb(0%,0%,0%);stroke-opacity:1;stroke-miterlimit:4;" d="M 360.604126 602.369717 L 442.917853 655.525256 L 453.421862 602.350013 M 389.75898 690.967733 L 470.842913 761.836566 L 504.805749 690.971837 " transform="matrix(0.0101156,-0.0687225,0.0714913,0.0122093,145.745106,71.919292)"/>
<path style="fill-rule:nonzero;fill:rgb(61.568627%,61.568627%,61.568627%);fill-opacity:1;stroke-width:0.255357;stroke-linecap:butt;stroke-linejoin:miter;stroke:rgb(0%,0%,0%);stroke-opacity:1;stroke-miterlimit:4;" d="M 425.304688 222.460938 L 450.265625 217.976562 L 476.265625 222.460938 L 464.203125 227.476562 L 441.945312 227.835938 Z M 425.304688 222.460938 " transform="matrix(0.5,0,0,0.5,0,0)"/>
<path style="fill-rule:nonzero;fill:rgb(78.431373%,6.27451%,18.039216%);fill-opacity:1;stroke-width:0.412675;stroke-linecap:butt;stroke-linejoin:miter;stroke:rgb(0%,0%,0%);stroke-opacity:1;stroke-miterlimit:4;" d="M 450.453125 182.117188 C 446.09375 183.640625 441.257812 179.984375 433.390625 185.945312 C 433.390625 185.945312 419.671875 180.078125 418.632812 193.640625 C 418.585938 194.1875 420.804688 197.492188 421.109375 197.257812 C 422.835938 195.9375 420.289062 198.546875 420.289062 198.921875 C 420.289062 199.296875 420.546875 199.507812 420.632812 199.679688 C 420.710938 199.851562 420.921875 200.101562 420.96875 200.820312 C 421.007812 201.53125 419.414062 203.484375 420.085938 204.203125 C 420.757812 204.921875 420.804688 206.984375 420.804688 207.578125 C 420.804688 208.164062 421.226562 209.8125 421.515625 210.148438 C 421.8125 210.484375 422.320312 211.328125 422.320312 212.046875 C 422.320312 212.757812 422.609375 214.742188 422.484375 215.242188 C 422.359375 215.75 423.242188 216.382812 424.046875 216.632812 C 424.84375 216.890625 435.179688 217.070312 449.671875 216.8125 C 464.171875 216.5625 469.007812 218.859375 475 216.679688 C 475.929688 216.34375 476.09375 215.585938 476.015625 215.164062 C 475.929688 214.742188 476.015625 213.390625 476.265625 213.054688 C 476.515625 212.71875 478.203125 210.023438 477.867188 209.515625 C 478.179688 209.226562 480.546875 210.882812 479.039062 209.40625 C 478.65625 209.023438 479.257812 205.046875 479.46875 204.203125 C 479.679688 203.367188 479.992188 201.78125 480.382812 201.492188 C 480.773438 201.195312 479.726562 200.101562 479.796875 199.90625 C 479.875 199.703125 480.15625 199.085938 480.546875 198.804688 C 480.546875 198.804688 481.28125 195.375 480.828125 193.695312 C 480.382812 192.007812 478.734375 184.421875 468.453125 185.945312 C 468.453125 185.945312 454.6875 180.648438 450.453125 182.117188 Z M 450.453125 182.117188 " transform="matrix(0.5,0,0,0.5,0,0)"/>
<path style="fill-rule:nonzero;fill:rgb(96.862745%,85.098039%,9.019608%);fill-opacity:1;stroke-width:1.241;stroke-linecap:butt;stroke-linejoin:miter;stroke:rgb(0%,0%,0%);stroke-opacity:1;stroke-miterlimit:4;" d="M 49.753671 0.131021 C 44.676571 1.030963 34.602118 29.371737 37.121982 38.866732 C 38.906239 45.463672 41.631553 50.007989 43.186383 52.799993 C 39.803614 48.098087 31.774449 39.04662 20.915901 39.044636 C 7.259665 39.027289 5.526032 68.974185 5.863377 70.909856 C 5.863377 70.909856 5.856418 70.948509 5.856418 70.948509 L 5.912946 70.951978 C 6.497386 70.245305 12.037632 57.883973 25.580813 57.894382 C 34.440017 57.890915 41.403938 64.92296 43.955388 67.893368 C 43.950998 68.870123 43.960526 69.769571 43.970054 70.669018 C 41.971459 73.516525 40.704081 80.238843 34.503063 88.651526 C 27.007048 98.860626 4.134134 99.879996 0.284154 99.995461 L 49.836387 99.988037 C 49.836387 99.988037 49.949442 99.994974 49.949442 99.994974 C 50.00597 99.998443 50.00597 99.998443 50.00597 99.998443 C 50.062498 100.001912 50.119025 100.005381 50.175553 100.00885 L 99.727786 100.001426 C 95.863032 99.881498 72.560595 98.842298 65.079362 88.652027 C 58.88167 80.221005 58.02969 73.524953 56.02264 70.705197 C 56.020071 69.767095 56.074029 68.832463 56.07146 67.894361 C 58.606639 64.923459 65.532024 57.883982 74.447756 57.883984 C 87.934409 57.890924 93.478821 70.268116 94.095378 70.97033 L 94.151906 70.973799 C 94.151906 70.973799 94.158865 70.935145 94.158865 70.935145 C 94.158865 70.935145 94.165824 70.896491 94.165824 70.896491 C 94.513769 68.963794 92.700937 39.033746 79.044701 39.016399 C 68.186153 39.014415 60.206656 48.099577 56.79305 52.775218 C 58.382034 49.980736 61.079089 44.205936 62.555125 38.864258 C 65.093198 29.210684 55.06641 0.144402 49.986741 0.106243 C 49.923254 0.141428 49.817158 0.0958362 49.753671 0.131021 Z M 43.32813 52.965016 C 43.640316 53.453146 43.966421 53.863968 44.242956 54.232667 C 44.235997 54.271321 44.731576 57.232808 44.788104 57.236277 C 44.774186 57.313585 47.415777 67.402265 47.401859 67.479573 C 47.125324 67.110874 43.675967 53.572577 43.32813 52.965016 Z M 56.701728 52.965018 C 56.364275 53.569606 52.671132 67.099477 52.375433 67.47214 C 52.382391 67.433486 55.765917 54.353587 55.779835 54.276279 C 55.779835 54.276279 55.357054 57.25957 55.364013 57.220916 C 55.596226 56.883438 56.328624 53.450175 56.701728 52.965018 Z M 56.701728 52.965018 " transform="matrix(0.0683483,-0.00613384,0.0123048,0.0999527,213.023591,95.725679)"/>
<path style="fill-rule:nonzero;fill:rgb(96.862745%,85.098039%,9.019608%);fill-opacity:1;stroke-width:1.241;stroke-linecap:butt;stroke-linejoin:miter;stroke:rgb(0%,0%,0%);stroke-opacity:1;stroke-miterlimit:4;" d="M 42.011716 67.578685 C 42.011716 67.578685 46.005264 65.713385 50.00395 65.724288 C 54.002636 65.735191 58.013419 67.583643 58.013419 67.583643 L 57.977552 72.544728 C 57.977552 72.544728 54.030256 70.661091 50.024611 70.688842 C 46.025924 70.677939 41.975849 72.53977 41.975849 72.53977 Z M 42.011716 67.578685 " transform="matrix(0.0683483,-0.00613384,0.0123048,0.0999527,213.023591,95.725679)"/>
<path style="fill-rule:nonzero;fill:rgb(96.862745%,85.098039%,9.019608%);fill-opacity:1;stroke-width:1;stroke-linecap:butt;stroke-linejoin:miter;stroke:rgb(0%,0%,0%);stroke-opacity:1;stroke-miterlimit:4;" d="M 49.752618 0.110078 C 44.653638 1.033514 34.590242 29.383933 37.12698 38.871085 C 38.890592 45.462467 41.650189 49.986668 43.212721 52.778901 C 39.804256 48.113127 31.815587 39.03321 20.921322 39.029263 C 7.273885 39.017019 5.502604 68.985987 5.863418 70.903196 C 5.863418 70.903196 5.868365 70.941726 5.868365 70.941726 C 5.868365 70.941726 5.873312 70.980256 5.873312 70.980256 L 5.930051 70.975613 C 6.52683 70.264884 12.043878 57.86042 25.577836 57.881951 C 34.461487 57.855766 41.388683 64.920075 43.950411 67.90308 C 43.955653 68.837085 43.960896 69.77109 43.966138 70.705095 C 41.976198 73.515507 40.712834 80.198869 34.516057 88.648681 C 26.995077 98.842121 4.138688 99.894986 0.255673 100.018086 L 49.792993 100.01332 C 49.849732 100.008677 49.906472 100.004033 49.963211 99.99939 C 49.963211 99.99939 50.01995 99.994747 50.01995 99.994747 C 50.07669 99.990103 50.133429 99.98546 50.190169 99.980817 L 99.732435 100.01458 C 95.876479 99.901857 72.521063 98.854151 65.074759 88.639675 C 58.892153 80.229585 58.031425 73.525379 56.005084 70.693233 C 56.056582 69.754585 56.056286 68.85911 56.051044 67.925106 C 58.588591 64.914139 65.540737 57.88203 74.429335 57.894375 C 87.958347 57.877376 93.500836 70.233326 94.110425 70.962134 C 94.110425 70.962134 94.167164 70.95749 94.162218 70.918961 C 94.487223 68.984561 92.706033 39.033773 79.058596 39.021529 C 68.22107 39.012939 60.211253 48.078342 56.803419 52.795789 C 58.334496 49.983993 61.088221 44.190969 62.52472 38.856155 C 65.129157 29.220808 55.088745 0.140603 49.984522 0.130034 C 49.927783 0.134677 49.809357 0.105434 49.752618 0.110078 Z M 43.294194 52.966908 C 43.642198 53.44458 43.985256 53.883722 44.204941 54.255091 C 44.204941 54.255091 44.756056 57.207964 44.761003 57.246494 C 44.76595 57.285024 47.386782 67.427185 47.391729 67.465715 C 47.115304 67.098989 43.657038 53.560169 43.294194 52.966908 Z M 56.709727 52.959195 C 56.330012 53.574291 52.673442 67.07241 52.382473 67.48557 C 52.372579 67.40851 55.799866 54.357436 55.789972 54.280377 C 55.789972 54.280377 55.366624 57.235128 55.366624 57.235128 C 55.605801 56.865142 56.315172 53.458701 56.709727 52.959195 Z M 56.709727 52.959195 " transform="matrix(0.0681296,0.00821054,-0.00874691,0.100328,230.10743,95.182023)"/>
<path style="fill-rule:nonzero;fill:rgb(96.862745%,85.098039%,9.019608%);fill-opacity:1;stroke-width:1;stroke-linecap:butt;stroke-linejoin:miter;stroke:rgb(0%,0%,0%);stroke-opacity:1;stroke-miterlimit:4;" d="M 42.01865 67.593953 C 42.01865 67.593953 46.019498 65.709146 49.979039 65.735522 C 53.990372 65.718725 58.01219 67.569938 58.01219 67.569938 L 58.016289 72.514314 C 58.016289 72.514314 53.994471 70.663102 49.983138 70.679899 C 46.023597 70.653523 42.022748 72.538329 42.022748 72.538329 Z M 42.01865 67.593953 " transform="matrix(0.0681296,0.00821054,-0.00874691,0.100328,230.10743,95.182023)"/>
<path style="fill-rule:nonzero;fill:rgb(96.862745%,85.098039%,9.019608%);fill-opacity:1;stroke-width:0.715;stroke-linecap:butt;stroke-linejoin:miter;stroke:rgb(0%,0%,0%);stroke-opacity:1;stroke-miterlimit:4;" d="M 24.305606 134.54769 L 33.990993 122.732086 C 33.990993 122.732086 34.899885 123.925007 33.990993 122.732086 C 14.13737 97.05587 13.114866 82.343171 15.358694 74.873209 C 17.602523 67.403248 22.061777 59.336827 33.990993 49.367411 C 45.920208 39.426398 54.157048 44.964962 65.347788 44.964962 C 76.510125 44.964962 79.492429 47.436014 89.177816 48.685741 C 98.863203 49.935469 124.965462 51.185196 124.965462 51.185196 L 124.965462 44.340099 C 124.965462 44.340099 125.987966 44.538919 124.965462 44.340099 C 113.433887 42.181479 98.863203 44.340099 89.177816 41.840644 C 79.492429 39.369592 71.283993 38.744728 60.860131 38.744728 C 50.436268 38.744728 42.937904 35.705619 36.234821 40.051262 C 29.531739 44.396904 21.323302 51.866865 15.358694 58.087099 C 9.394087 64.307333 6.411783 76.7478 7.150258 84.814222 C 7.917136 92.909047 10.89944 99.754145 15.358694 105.945975 C 19.846352 112.166209 19.079474 117.136716 20.584827 121.510761 C 22.061777 125.856404 24.305606 135.172553 24.305606 134.54769 Z M 239.258707 134.54769 L 229.57332 122.732086 C 229.57332 122.732086 228.664428 123.925007 229.57332 122.732086 C 249.426943 97.05587 250.421044 82.343171 248.205619 74.873209 C 245.96179 67.403248 241.502536 59.336827 229.57332 49.367411 C 217.644105 39.426398 209.407266 44.964962 198.216525 44.964962 C 187.054188 44.964962 184.071884 47.436014 174.386497 48.685741 C 164.672708 49.935469 138.598851 51.185196 138.598851 51.185196 L 138.598851 44.340099 C 138.598851 44.340099 137.576347 44.538919 138.598851 44.340099 C 150.130426 42.181479 164.672708 44.340099 174.386497 41.840644 C 184.071884 39.369592 192.251918 38.744728 202.704183 38.744728 C 213.128045 38.744728 220.626409 35.705619 227.329492 40.051262 C 234.032575 44.396904 242.241011 51.866865 248.205619 58.087099 C 254.170226 64.307333 257.15253 76.7478 256.385652 84.814222 C 255.647177 92.909047 252.664873 99.754145 248.205619 105.945975 C 243.717962 112.166209 244.48484 117.136716 242.979486 121.510761 C 241.502536 125.856404 239.258707 135.172553 239.258707 134.54769 Z M 239.258707 134.54769 " transform="matrix(0.13753,0,0,0.13753,206.876,81.898)"/>
<path style="fill-rule:nonzero;fill:rgb(96.862745%,85.098039%,9.019608%);fill-opacity:1;stroke-width:0.835;stroke-linecap:butt;stroke-linejoin:miter;stroke:rgb(0%,0%,0%);stroke-opacity:1;stroke-miterlimit:4;" d="M 115.564104 38.687923 L 150.102023 38.687923 L 150.102023 109.581546 L 115.564104 109.581546 Z M 115.564104 38.687923 " transform="matrix(0.13753,0,0,0.13753,206.876,81.898)"/>
<path style="fill-rule:nonzero;fill:rgb(96.862745%,85.098039%,9.019608%);fill-opacity:1;stroke-width:0.5;stroke-linecap:butt;stroke-linejoin:miter;stroke:rgb(0%,0%,0%);stroke-opacity:1;stroke-miterlimit:4;" d="M 119.682524 -23.798444 C 119.682524 -23.798444 123.403303 -20.759334 126.271995 -16.868138 C 129.112285 -12.976941 131.100487 -8.233658 131.100487 -8.233658 C 131.100487 -8.233658 126.357204 -10.221861 122.466007 -13.06215 C 118.546408 -15.930842 115.535701 -19.651621 115.535701 -19.651621 L 115.535701 6.649458 C 115.535701 6.649458 118.546408 2.928679 122.466007 0.0883898 C 126.357204 -2.780302 131.100487 -4.768505 131.100487 -4.768505 C 131.100487 -4.768505 129.566731 -0.848906 128.57263 3.894378 C 127.69214 8.126409 120.392596 17.95381 120.392596 17.95381 L 141.694767 19.373955 C 141.694767 19.373955 138.172808 8.126409 136.72426 3.894378 C 135.190504 -0.678488 134.56564 -4.768505 134.56564 -4.768505 C 134.56564 -4.768505 139.337326 -2.780302 143.228523 0.0883898 C 147.119719 2.928679 150.130426 6.649458 150.130426 6.649458 L 150.130426 -19.651621 C 150.130426 -19.651621 147.119719 -15.930842 143.228523 -13.06215 C 139.337326 -10.221861 134.56564 -8.233658 134.56564 -8.233658 C 134.56564 -8.233658 136.553843 -12.976941 139.422535 -16.868138 C 142.262824 -20.759334 145.983604 -23.798444 145.983604 -23.798444 Z M 119.682524 -23.798444 " transform="matrix(0.13753,0,0,0.13753,206.876,81.898)"/>
<path style="fill-rule:nonzero;fill:rgb(96.862745%,85.098039%,9.019608%);fill-opacity:1;stroke-width:0.5;stroke-linecap:butt;stroke-linejoin:miter;stroke:rgb(0%,0%,0%);stroke-opacity:1;stroke-miterlimit:4;" d="M 149.988412 23.066331 C 153.851205 16.363248 161.775613 13.068512 169.273977 15.085118 C 176.743938 17.101723 181.97007 23.890015 181.97007 31.644005 C 181.97007 39.397995 176.743938 46.186287 169.273977 48.202892 C 161.775613 50.219498 153.851205 46.924762 149.988412 40.221679 Z M 149.988412 23.066331 " transform="matrix(0.13753,0,0,0.13753,206.876,81.898)"/>
<path style="fill-rule:nonzero;fill:rgb(96.862745%,85.098039%,9.019608%);fill-opacity:1;stroke-width:0.5;stroke-linecap:butt;stroke-linejoin:miter;stroke:rgb(0%,0%,0%);stroke-opacity:1;stroke-miterlimit:4;" d="M 116.075356 25.537383 L 150.187232 25.537383 C 150.187232 25.537383 150.670081 18.947911 148.199029 16.47686 L 137.60475 16.47686 L 137.434333 6.592653 L 127.379708 6.592653 L 127.209291 16.47686 C 127.209291 16.47686 120.080164 16.817694 116.785429 16.817694 C 115.308478 20.879308 115.535701 21.220143 115.535701 21.220143 Z M 116.075356 25.537383 " transform="matrix(0.13753,0,0,0.13753,206.876,81.898)"/>
<path style="fill-rule:nonzero;fill:rgb(96.862745%,85.098039%,9.019608%);fill-opacity:1;stroke-width:0.75;stroke-linecap:butt;stroke-linejoin:miter;stroke:rgb(0%,0%,0%);stroke-opacity:1;stroke-miterlimit:4;" d="M 110.877627 107.224106 C 110.877627 107.224106 117.09786 112.279821 121.869547 118.784083 C 126.61283 125.288346 129.935969 133.212754 129.935969 133.212754 C 129.935969 133.212754 122.011561 129.889615 115.507298 125.146332 C 109.003036 120.374646 103.947321 114.154412 103.947321 114.154412 L 103.947321 158.065286 C 103.947321 158.065286 109.003036 151.873455 115.507298 147.101769 C 122.011561 142.330083 129.935969 139.006944 129.935969 139.006944 C 129.935969 139.006944 126.61283 146.959754 121.869547 153.435614 C 117.09786 159.939877 110.877627 164.995592 110.877627 164.995592 L 154.788501 164.995592 C 154.788501 164.995592 148.568267 159.939877 143.824984 153.435614 C 139.053297 146.959754 135.730159 139.006944 135.730159 139.006944 C 135.730159 139.006944 143.682969 142.330083 150.158829 147.101769 C 156.663092 151.873455 161.718807 158.065286 161.718807 158.065286 L 161.718807 114.154412 C 161.718807 114.154412 156.663092 120.374646 150.158829 125.146332 C 143.682969 129.889615 135.730159 133.212754 135.730159 133.212754 C 135.730159 133.212754 139.053297 125.288346 143.824984 118.784083 C 148.568267 112.279821 154.788501 107.224106 154.788501 107.224106 Z M 27.231104 181.781702 L 48.874109 177.975714 C 48.874109 177.975714 41.858594 174.056115 36.036001 168.489148 C 30.213408 162.922181 25.583736 155.679443 25.583736 155.679443 C 25.583736 155.679443 33.96259 157.554034 41.205328 161.132798 C 48.419663 164.68316 54.497882 169.937695 54.497882 169.937695 L 46.857504 126.680088 C 46.857504 126.680088 42.966307 133.6672 37.39934 139.518196 C 31.80397 145.340789 24.561232 149.970461 24.561232 149.970461 C 24.561232 149.970461 26.464226 141.591607 30.014588 134.348869 C 33.593352 127.106131 38.819485 121.056315 38.819485 121.056315 L 17.204883 124.862303 Z M 226.846643 121.056315 C 226.846643 121.056315 232.072775 127.106131 235.65154 134.348869 C 239.201901 141.591607 241.104895 149.970461 241.104895 149.970461 C 241.104895 149.970461 233.862157 145.340789 228.29519 139.518196 C 222.69982 133.6672 218.808624 126.680088 218.808624 126.680088 L 211.168245 169.937695 C 211.168245 169.937695 217.246464 164.68316 224.460799 161.132798 C 231.703537 157.554034 240.110794 155.679443 240.110794 155.679443 C 240.110794 155.679443 235.452719 162.922181 229.630126 168.489148 C 223.807533 174.056115 216.792018 177.975714 216.792018 177.975714 L 238.435023 181.781702 L 248.461245 124.862303 Z M 226.846643 121.056315 " transform="matrix(0.13753,0,0,0.13753,206.876,81.898)"/>
<path style="fill-rule:nonzero;fill:rgb(96.862745%,85.098039%,9.019608%);fill-opacity:1;stroke-width:0.75;stroke-linecap:butt;stroke-linejoin:miter;stroke:rgb(0%,0%,0%);stroke-opacity:1;stroke-miterlimit:4;" d="M 27.458327 179.537874 L 27.600342 211.036683 C 27.600342 211.036683 80.259307 193.114457 132.918272 193.114457 C 185.548835 193.114457 238.2078 211.036683 238.2078 211.036683 L 238.2078 179.537874 C 238.2078 179.537874 185.520432 161.615647 132.833064 161.615647 C 80.145695 161.615647 27.458327 179.537874 27.458327 179.537874 Z M 27.458327 179.537874 " transform="matrix(0.13753,0,0,0.13753,206.876,81.898)"/>
<path style="fill-rule:nonzero;fill:rgb(100%,100%,100%);fill-opacity:1;stroke-width:1;stroke-linecap:butt;stroke-linejoin:miter;stroke:rgb(0%,0%,0%);stroke-opacity:1;stroke-miterlimit:4;" d="M 2.006911 723.06154 C 4.756007 718.293576 10.34011 715.974025 15.666485 717.391528 C 20.949905 718.809031 24.644004 723.61995 24.644004 729.118144 C 24.644004 734.616337 20.949905 739.384302 15.666485 740.801805 C 10.34011 742.262262 4.756007 739.942712 2.006911 735.174747 Z M 2.006911 723.06154 " transform="matrix(0.090939,0,0,0.090939,209.797962,32.34319)"/>
<path style="fill-rule:nonzero;fill:rgb(100%,100%,100%);fill-opacity:1;stroke-width:1;stroke-linecap:butt;stroke-linejoin:miter;stroke:rgb(0%,0%,0%);stroke-opacity:1;stroke-miterlimit:4;" d="M 2.005629 723.047228 C 4.754725 718.279263 10.338828 716.002668 15.665203 717.420171 C 20.948623 718.837674 24.642722 723.605638 24.642722 729.103832 C 24.642722 734.602025 20.948623 739.412944 15.665203 740.830447 C 10.338828 742.24795 4.754725 739.9284 2.005629 735.160435 Z M 2.005629 723.047228 " transform="matrix(0.090939,0,0,0.090939,208.384016,29.828867)"/>
<path style="fill-rule:nonzero;fill:rgb(100%,100%,100%);fill-opacity:1;stroke-width:1;stroke-linecap:butt;stroke-linejoin:miter;stroke:rgb(0%,0%,0%);stroke-opacity:1;stroke-miterlimit:4;" d="M 2.024961 723.065706 C 4.774058 718.297741 10.35816 715.978191 15.64158 717.395694 C 20.967955 718.813197 24.619099 723.624116 24.619099 729.122309 C 24.619099 734.620503 20.967955 739.388467 15.64158 740.80597 C 10.35816 742.223473 4.774058 739.946877 2.024961 735.178913 Z M 2.024961 723.065706 " transform="matrix(0.090939,0,0,0.090939,208.08929,26.881874)"/>
<path style="fill-rule:nonzero;fill:rgb(100%,100%,100%);fill-opacity:1;stroke-width:1;stroke-linecap:butt;stroke-linejoin:miter;stroke:rgb(0%,0%,0%);stroke-opacity:1;stroke-miterlimit:4;" d="M 2.011432 723.072303 C 4.760528 718.304339 10.344631 715.984788 15.671006 717.402291 C 20.954426 718.819794 24.648525 723.630714 24.648525 729.128907 C 24.648525 734.584146 20.954426 739.395065 15.671006 740.812568 C 10.344631 742.230071 4.760528 739.910521 2.011432 735.185511 Z M 2.011432 723.072303 " transform="matrix(0.090939,0,0,0.090939,208.973332,24.131274)"/>
<path style="fill-rule:nonzero;fill:rgb(100%,100%,100%);fill-opacity:1;stroke-width:1;stroke-linecap:butt;stroke-linejoin:miter;stroke:rgb(0%,0%,0%);stroke-opacity:1;stroke-miterlimit:4;" d="M 2.018363 723.047689 C 4.76746 718.279725 10.351562 716.003129 15.634983 717.420632 C 20.961357 718.838135 24.655456 723.6061 24.655456 729.104293 C 24.655456 734.602486 20.961357 739.413406 15.634983 740.830909 C 10.351562 742.248412 4.76746 739.928861 2.018363 735.160897 Z M 2.018363 723.047689 " transform="matrix(0.090939,0,0,0.090939,210.83989,21.871794)"/>
<path style="fill-rule:nonzero;fill:rgb(100%,100%,100%);fill-opacity:1;stroke-width:1;stroke-linecap:butt;stroke-linejoin:miter;stroke:rgb(0%,0%,0%);stroke-opacity:1;stroke-miterlimit:4;" d="M 2.023645 723.062868 C 4.772742 718.294903 10.356844 715.975353 15.640265 717.392856 C 20.966639 718.810359 24.660738 723.621278 24.660738 729.119472 C 24.660738 734.617665 20.966639 739.38563 15.640265 740.803133 C 10.356844 742.220636 4.772742 739.94404 2.023645 735.176075 Z M 2.023645 723.062868 " transform="matrix(0.090939,0,0,0.090939,213.394097,20.300101)"/>
<path style="fill-rule:nonzero;fill:rgb(100%,100%,100%);fill-opacity:1;stroke-width:1;stroke-linecap:butt;stroke-linejoin:miter;stroke:rgb(0%,0%,0%);stroke-opacity:1;stroke-miterlimit:4;" d="M 2.011107 723.050988 C 4.760204 718.283024 10.344307 715.963473 15.670682 717.423931 C 20.954102 718.841434 24.6482 723.609398 24.6482 729.107592 C 24.6482 734.605785 20.954102 739.416705 15.670682 740.834207 C 10.344307 742.25171 4.760204 739.93216 2.011107 735.164196 Z M 2.011107 723.050988 " transform="matrix(0.090939,0,0,0.090939,216.242893,20.496494)"/>
<path style="fill-rule:nonzero;fill:rgb(100%,100%,100%);fill-opacity:1;stroke-width:1;stroke-linecap:butt;stroke-linejoin:miter;stroke:rgb(0%,0%,0%);stroke-opacity:1;stroke-miterlimit:4;" d="M 1.99857 723.062709 C 4.747666 718.294744 10.374724 715.975194 15.658144 717.392697 C 20.941564 718.8102 24.635663 723.621119 24.635663 729.119313 C 24.635663 734.617506 20.941564 739.385471 15.658144 740.802974 C 10.374724 742.263431 4.747666 739.943881 1.99857 735.175916 Z M 1.99857 723.062709 " transform="matrix(0.090939,0,0,0.090939,219.09169,20.968084)"/>
<path style="fill-rule:nonzero;fill:rgb(100%,100%,100%);fill-opacity:1;stroke-width:1;stroke-linecap:butt;stroke-linejoin:miter;stroke:rgb(0%,0%,0%);stroke-opacity:1;stroke-miterlimit:4;" d="M 2.027474 723.043377 C 4.776571 718.318367 10.360673 715.998817 15.644094 717.41632 C 20.970469 718.833823 24.621613 723.644742 24.621613 729.099981 C 24.621613 734.598174 20.970469 739.409093 15.644094 740.826596 C 10.360673 742.244099 4.776571 739.924549 2.027474 735.156584 Z M 2.027474 723.043377 " transform="matrix(0.090939,0,0,0.090939,221.940624,21.262811)"/>
<path style="fill-rule:nonzero;fill:rgb(100%,100%,100%);fill-opacity:1;stroke-width:1;stroke-linecap:butt;stroke-linejoin:miter;stroke:rgb(0%,0%,0%);stroke-opacity:1;stroke-miterlimit:4;" d="M 2.003412 723.06154 C 4.752509 718.293576 10.336612 715.974025 15.662986 717.391528 C 20.946407 718.809031 24.640505 723.61995 24.640505 729.118144 C 24.640505 734.616337 20.946407 739.384302 15.662986 740.801805 C 10.336612 742.262262 4.752509 739.942712 2.003412 735.174747 Z M 2.003412 723.06154 " transform="matrix(-0.090939,0,0,0.090939,240.201719,32.34319)"/>
<path style="fill-rule:nonzero;fill:rgb(100%,100%,100%);fill-opacity:1;stroke-width:1;stroke-linecap:butt;stroke-linejoin:miter;stroke:rgb(0%,0%,0%);stroke-opacity:1;stroke-miterlimit:4;" d="M 2.00213 723.047228 C 4.751227 718.279263 10.33533 716.002668 15.661705 717.420171 C 20.945125 718.837674 24.639224 723.605638 24.639224 729.103832 C 24.639224 734.602025 20.945125 739.412944 15.661705 740.830447 C 10.33533 742.24795 4.751227 739.9284 2.00213 735.160435 Z M 2.00213 723.047228 " transform="matrix(-0.090939,0,0,0.090939,241.615665,29.828867)"/>
<path style="fill-rule:nonzero;fill:rgb(100%,100%,100%);fill-opacity:1;stroke-width:1;stroke-linecap:butt;stroke-linejoin:miter;stroke:rgb(0%,0%,0%);stroke-opacity:1;stroke-miterlimit:4;" d="M 2.021462 723.065706 C 4.770559 718.297741 10.354662 715.978191 15.638082 717.395694 C 20.964457 718.813197 24.658556 723.624116 24.658556 729.122309 C 24.658556 734.620503 20.964457 739.388467 15.638082 740.80597 C 10.354662 742.223473 4.770559 739.946877 2.021462 735.178913 Z M 2.021462 723.065706 " transform="matrix(-0.090939,0,0,0.090939,241.910392,26.881874)"/>
<path style="fill-rule:nonzero;fill:rgb(100%,100%,100%);fill-opacity:1;stroke-width:1;stroke-linecap:butt;stroke-linejoin:miter;stroke:rgb(0%,0%,0%);stroke-opacity:1;stroke-miterlimit:4;" d="M 2.007933 723.072303 C 4.75703 718.304339 10.341133 715.984788 15.667507 717.402291 C 20.950928 718.819794 24.645026 723.630714 24.645026 729.128907 C 24.645026 734.584146 20.950928 739.395065 15.667507 740.812568 C 10.341133 742.230071 4.75703 739.910521 2.007933 735.185511 Z M 2.007933 723.072303 " transform="matrix(-0.090939,0,0,0.090939,241.026349,24.131274)"/>
<path style="fill-rule:nonzero;fill:rgb(100%,100%,100%);fill-opacity:1;stroke-width:1;stroke-linecap:butt;stroke-linejoin:miter;stroke:rgb(0%,0%,0%);stroke-opacity:1;stroke-miterlimit:4;" d="M 2.014865 723.047689 C 4.763961 718.279725 10.348064 716.003129 15.674439 717.420632 C 20.957859 718.838135 24.651958 723.6061 24.651958 729.104293 C 24.651958 734.602486 20.957859 739.413406 15.674439 740.830909 C 10.348064 742.248412 4.763961 739.928861 2.014865 735.160897 Z M 2.014865 723.047689 " transform="matrix(-0.090939,0,0,0.090939,239.159792,21.871794)"/>
<path style="fill-rule:nonzero;fill:rgb(100%,100%,100%);fill-opacity:1;stroke-width:1;stroke-linecap:butt;stroke-linejoin:miter;stroke:rgb(0%,0%,0%);stroke-opacity:1;stroke-miterlimit:4;" d="M 2.021659 723.062868 C 4.770756 718.294903 10.354858 715.975353 15.638279 717.392856 C 20.964653 718.810359 24.658752 723.621278 24.658752 729.119472 C 24.658752 734.617665 20.964653 739.38563 15.638279 740.803133 C 10.354858 742.220636 4.770756 739.94404 2.021659 735.176075 Z M 2.021659 723.062868 " transform="matrix(-0.090939,0,0,0.090939,236.605723,20.300101)"/>
<path style="fill-rule:nonzero;fill:rgb(100%,100%,100%);fill-opacity:1;stroke-width:1;stroke-linecap:butt;stroke-linejoin:miter;stroke:rgb(0%,0%,0%);stroke-opacity:1;stroke-miterlimit:4;" d="M 2.007609 723.050988 C 4.756706 718.283024 10.340808 715.963473 15.667183 717.423931 C 20.950603 718.841434 24.644702 723.609398 24.644702 729.107592 C 24.644702 734.605785 20.950603 739.416705 15.667183 740.834207 C 10.340808 742.25171 4.756706 739.93216 2.007609 735.164196 Z M 2.007609 723.050988 " transform="matrix(-0.090939,0,0,0.090939,233.756789,20.496494)"/>
<path style="fill-rule:nonzero;fill:rgb(100%,100%,100%);fill-opacity:1;stroke-width:1;stroke-linecap:butt;stroke-linejoin:miter;stroke:rgb(0%,0%,0%);stroke-opacity:1;stroke-miterlimit:4;" d="M 2.038026 723.062709 C 4.744168 718.294744 10.371225 715.975194 15.654645 717.392697 C 20.938066 718.8102 24.632164 723.621119 24.632164 729.119313 C 24.632164 734.617506 20.938066 739.385471 15.654645 740.802974 C 10.371225 742.263431 4.744168 739.943881 2.038026 735.175916 Z M 2.038026 723.062709 " transform="matrix(-0.090939,0,0,0.090939,230.907992,20.968084)"/>
<path style="fill-rule:nonzero;fill:rgb(100%,100%,100%);fill-opacity:1;stroke-width:1;stroke-linecap:butt;stroke-linejoin:miter;stroke:rgb(0%,0%,0%);stroke-opacity:1;stroke-miterlimit:4;" d="M 2.025488 723.043377 C 4.774585 718.318367 10.358687 715.998817 15.642108 717.41632 C 20.968482 718.833823 24.619627 723.644742 24.619627 729.099981 C 24.619627 734.598174 20.968482 739.409093 15.642108 740.826596 C 10.358687 742.244099 4.774585 739.924549 2.025488 735.156584 Z M 2.025488 723.043377 " transform="matrix(-0.090939,0,0,0.090939,228.059196,21.262811)"/>
<path style="fill-rule:nonzero;fill:rgb(100%,100%,100%);fill-opacity:1;stroke-width:1;stroke-linecap:butt;stroke-linejoin:miter;stroke:rgb(0%,0%,0%);stroke-opacity:1;stroke-miterlimit:4;" d="M 2.009406 723.050296 C 4.758503 718.282332 10.342606 715.962781 15.668981 717.423239 C 20.952401 718.840742 24.6465 723.608707 24.6465 729.1069 C 24.6465 734.605093 20.952401 739.416013 15.668981 740.833516 C 10.342606 742.251019 4.758503 739.931468 2.009406 735.163504 Z M 2.009406 723.050296 " transform="matrix(0.090939,0,0,0.090939,226.06336,29.86765)"/>
<path style="fill-rule:nonzero;fill:rgb(100%,100%,100%);fill-opacity:1;stroke-width:1;stroke-linecap:butt;stroke-linejoin:miter;stroke:rgb(0%,0%,0%);stroke-opacity:1;stroke-miterlimit:4;" d="M 2.009406 723.043255 C 4.758503 718.318246 10.342606 715.998695 15.668981 717.416198 C 20.952401 718.833701 24.6465 723.64462 24.6465 729.099859 C 24.6465 734.598053 20.952401 739.408972 15.668981 740.826475 C 10.342606 742.243978 4.758503 739.924427 2.009406 735.156463 Z M 2.009406 723.043255 " transform="matrix(0.090939,0,0,0.090939,226.06336,27.903447)"/>
<path style="fill-rule:nonzero;fill:rgb(100%,100%,100%);fill-opacity:1;stroke-width:1;stroke-linecap:butt;stroke-linejoin:miter;stroke:rgb(0%,0%,0%);stroke-opacity:1;stroke-miterlimit:4;" d="M 2.009406 723.058434 C 4.758503 718.29047 10.342606 715.970919 15.668981 717.388422 C 20.952401 718.805925 24.6465 723.616844 24.6465 729.115038 C 24.6465 734.613231 20.952401 739.381196 15.668981 740.841653 C 10.342606 742.259156 4.758503 739.939606 2.009406 735.171642 Z M 2.009406 723.058434 " transform="matrix(0.090939,0,0,0.090939,226.06336,26.331754)"/>
<path style="fill-rule:nonzero;fill:rgb(100%,100%,100%);fill-opacity:1;stroke-width:1;stroke-linecap:butt;stroke-linejoin:miter;stroke:rgb(0%,0%,0%);stroke-opacity:1;stroke-miterlimit:4;" d="M 2.009406 723.066204 C 4.758503 718.29824 10.342606 715.97869 15.668981 717.396193 C 20.952401 718.813696 24.6465 723.624615 24.6465 729.122808 C 24.6465 734.578047 20.952401 739.388966 15.668981 740.806469 C 10.342606 742.223972 4.758503 739.904422 2.009406 735.179412 Z M 2.009406 723.066204 " transform="matrix(0.090939,0,0,0.090939,226.06336,24.897454)"/>
<path style="fill-rule:nonzero;fill:rgb(100%,100%,100%);fill-opacity:1;stroke-width:1;stroke-linecap:butt;stroke-linejoin:miter;stroke:rgb(0%,0%,0%);stroke-opacity:1;stroke-miterlimit:4;" d="M 2.009406 723.062868 C 4.758503 718.294903 10.342606 715.975353 15.668981 717.392856 C 20.952401 718.810359 24.6465 723.621278 24.6465 729.119472 C 24.6465 734.617665 20.952401 739.38563 15.668981 740.803133 C 10.342606 742.220636 4.758503 739.94404 2.009406 735.176075 Z M 2.009406 723.062868 " transform="matrix(0.090939,0,0,0.090939,226.06336,20.300101)"/>
<path style="fill-rule:nonzero;fill:rgb(100%,100%,100%);fill-opacity:1;stroke-width:1;stroke-linecap:butt;stroke-linejoin:miter;stroke:rgb(0%,0%,0%);stroke-opacity:1;stroke-miterlimit:4;" d="M 2.009406 723.050988 C 4.758503 718.283024 10.342606 715.963473 15.668981 717.423931 C 20.952401 718.841434 24.6465 723.609398 24.6465 729.107592 C 24.6465 734.605785 20.952401 739.416705 15.668981 740.834207 C 10.342606 742.25171 4.758503 739.93216 2.009406 735.164196 Z M 2.009406 723.050988 " transform="matrix(0.090939,0,0,0.090939,226.06336,20.496494)"/>
<path style="fill-rule:nonzero;fill:rgb(100%,100%,100%);fill-opacity:1;stroke-width:1;stroke-linecap:butt;stroke-linejoin:miter;stroke:rgb(0%,0%,0%);stroke-opacity:1;stroke-miterlimit:4;" d="M 2.009406 723.06998 C 4.758503 718.302016 10.342606 715.982465 15.668981 717.399968 C 20.952401 718.817471 24.6465 723.628391 24.6465 729.126584 C 24.6465 734.581823 20.952401 739.392742 15.668981 740.810245 C 10.342606 742.227748 4.758503 739.908198 2.009406 735.183188 Z M 2.009406 723.06998 " transform="matrix(0.090939,0,0,0.090939,226.06336,21.518204)"/>
<path style="fill-rule:nonzero;fill:rgb(100%,100%,100%);fill-opacity:1;stroke-width:1;stroke-linecap:butt;stroke-linejoin:miter;stroke:rgb(0%,0%,0%);stroke-opacity:1;stroke-miterlimit:4;" d="M 2.009406 723.065191 C 4.758503 718.297226 10.342606 715.977676 15.668981 717.395179 C 20.952401 718.812682 24.6465 723.623601 24.6465 729.121795 C 24.6465 734.619988 20.952401 739.387953 15.668981 740.805456 C 10.342606 742.222959 4.758503 739.946363 2.009406 735.178398 Z M 2.009406 723.065191 " transform="matrix(0.090939,0,0,0.090939,226.06336,22.913171)"/>
<path style="fill-rule:nonzero;fill:rgb(100%,100%,100%);fill-opacity:1;stroke-width:1;stroke-linecap:butt;stroke-linejoin:miter;stroke:rgb(0%,0%,0%);stroke-opacity:1;stroke-miterlimit:4;" d="M 143.571911 136.292064 C 145.900949 132.23045 150.701038 130.242247 155.217098 131.463572 C 159.761561 132.684896 162.885879 136.774913 162.885879 141.46139 C 162.885879 146.147868 159.761561 150.266287 155.217098 151.487612 C 150.701038 152.680533 145.900949 150.720734 143.571911 146.65912 Z M 143.571911 136.292064 " transform="matrix(0.13753,0,0,0.13753,206.813149,81.62294)"/>
<path style="fill-rule:nonzero;fill:rgb(100%,100%,100%);fill-opacity:1;stroke-width:1;stroke-linecap:butt;stroke-linejoin:miter;stroke:rgb(0%,0%,0%);stroke-opacity:1;stroke-miterlimit:4;" d="M 143.55708 136.280376 C 145.91452 132.218763 150.686206 130.258963 155.230669 131.451884 C 159.746729 132.673209 162.89945 136.791629 162.89945 141.478106 C 162.89945 146.164584 159.746729 150.2546 155.230669 151.475925 C 150.686206 152.697249 145.91452 150.709047 143.55708 146.647433 Z M 143.55708 136.280376 " transform="matrix(0.13753,0,0,0.13753,191.924564,84.206579)"/>
<path style="fill-rule:nonzero;fill:rgb(100%,100%,100%);fill-opacity:1;stroke-width:1;stroke-linecap:butt;stroke-linejoin:miter;stroke:rgb(0%,0%,0%);stroke-opacity:1;stroke-miterlimit:4;" d="M 143.561088 136.280376 C 145.918528 132.218763 150.690214 130.258963 155.234677 131.451884 C 159.750737 132.673209 162.903459 136.791629 162.903459 141.478106 C 162.903459 146.164584 159.750737 150.2546 155.234677 151.475925 C 150.690214 152.697249 145.918528 150.709047 143.561088 146.647433 Z M 143.561088 136.280376 " transform="matrix(0.13753,0,0,0.13753,221.631044,84.206579)"/>
<path style="fill-rule:nonzero;fill:rgb(0.392157%,12.941176%,41.176471%);fill-opacity:1;stroke-width:0.213051;stroke-linecap:butt;stroke-linejoin:miter;stroke:rgb(0%,0%,0%);stroke-opacity:1;stroke-miterlimit:4;" d="M 446.148438 210.40625 L 454.953125 210.40625 L 454.953125 214.242188 L 446.148438 214.242188 Z M 446.148438 210.40625 " transform="matrix(0.5,0,0,0.5,0,0)"/>
<path style="fill-rule:nonzero;fill:rgb(24.313725%,50.980392%,14.509804%);fill-opacity:1;stroke-width:1.5;stroke-linecap:butt;stroke-linejoin:miter;stroke:rgb(0%,0%,0%);stroke-opacity:1;stroke-miterlimit:4;" d="M 16.042929 233.120883 C 33.095901 233.123063 46.964779 238.273857 46.960416 244.617054 C 46.956053 250.960251 33.131231 256.116803 16.032669 256.111346 Z M 16.042929 233.120883 " transform="matrix(-0.0859,-0.00872,0.00302,0.12131,230.76,78.485)"/>
<path style="fill-rule:nonzero;fill:rgb(78.431373%,6.27451%,18.039216%);fill-opacity:1;stroke-width:0.275116;stroke-linecap:butt;stroke-linejoin:miter;stroke:rgb(0%,0%,0%);stroke-opacity:1;stroke-miterlimit:4;" d="M 421.359375 215.265625 L 419.148438 217.46875 L 421.710938 218.953125 L 427.664062 217.351562 L 426.601562 213.984375 Z M 479.742188 215.265625 L 481.945312 217.46875 L 479.390625 218.953125 L 473.4375 217.351562 L 474.5 213.984375 Z M 479.742188 215.265625 " transform="matrix(0.5,0,0,0.5,0,0)"/>
<path style="fill-rule:nonzero;fill:rgb(24.313725%,50.980392%,14.509804%);fill-opacity:1;stroke-width:1.5;stroke-linecap:butt;stroke-linejoin:miter;stroke:rgb(0%,0%,0%);stroke-opacity:1;stroke-miterlimit:4;" d="M 16.052047 233.121539 C 33.105019 233.123718 46.928308 238.271236 46.923945 244.614432 C 46.965171 250.960906 33.094759 256.114181 16.041787 256.112001 Z M 16.052047 233.121539 " transform="matrix(0.0859,-0.00872,-0.00302,0.12131,219.79,78.485)"/>
<path style="fill-rule:nonzero;fill:rgb(100%,100%,100%);fill-opacity:1;stroke-width:1;stroke-linecap:butt;stroke-linejoin:miter;stroke:rgb(0%,0%,0%);stroke-opacity:1;stroke-miterlimit:4;" d="M 126.203467 214.692595 C 127.159483 213.027277 129.133193 212.194618 131.014386 212.718885 C 132.895578 213.212312 134.190826 214.90847 134.190826 216.85134 C 134.190826 218.794211 132.895578 220.459529 131.014386 220.983796 C 129.133193 221.477224 127.159483 220.644565 126.203467 218.979247 Z M 126.203467 214.692595 " transform="matrix(0.126665,0,0,0.126665,206.135532,78.149712)"/>
<path style="fill-rule:nonzero;fill:rgb(100%,100%,100%);fill-opacity:1;stroke-width:1;stroke-linecap:butt;stroke-linejoin:miter;stroke:rgb(0%,0%,0%);stroke-opacity:1;stroke-miterlimit:4;" d="M 126.193554 214.71837 C 127.180409 213.022213 129.154119 212.220393 131.004473 212.713821 C 132.885665 213.207248 134.180912 214.903405 134.180912 216.846276 C 134.180912 218.789147 132.885665 220.485305 131.004473 220.978732 C 129.154119 221.47216 127.180409 220.67034 126.193554 218.974183 Z M 126.193554 214.71837 " transform="matrix(0.126665,0,0,0.126665,206.304756,79.876916)"/>
<path style="fill-rule:nonzero;fill:rgb(100%,100%,100%);fill-opacity:1;stroke-width:1;stroke-linecap:butt;stroke-linejoin:miter;stroke:rgb(0%,0%,0%);stroke-opacity:1;stroke-miterlimit:4;" d="M 126.204257 214.719271 C 127.160273 213.023114 129.133983 212.221294 131.015176 212.714722 C 132.896368 213.208149 134.191616 214.904307 134.191616 216.847178 C 134.191616 218.790049 132.896368 220.486206 131.015176 220.979633 C 129.133983 221.473061 127.160273 220.671241 126.204257 218.975084 Z M 126.204257 214.719271 " transform="matrix(0.126665,0,0,0.126665,199.361994,79.36899)"/>
<path style="fill-rule:nonzero;fill:rgb(100%,100%,100%);fill-opacity:1;stroke-width:1;stroke-linecap:butt;stroke-linejoin:miter;stroke:rgb(0%,0%,0%);stroke-opacity:1;stroke-miterlimit:4;" d="M 126.192443 214.714387 C 127.179298 213.01823 129.153008 212.216411 131.003361 212.709838 C 132.884554 213.203266 134.179801 214.899423 134.179801 216.842294 C 134.179801 218.785165 132.884554 220.481322 131.003361 220.974749 C 129.153008 221.468177 127.179298 220.666357 126.192443 218.9702 Z M 126.192443 214.714387 " transform="matrix(0.126665,0,0,0.126665,200.039272,80.994608)"/>
<path style="fill-rule:nonzero;fill:rgb(100%,100%,100%);fill-opacity:1;stroke-width:1;stroke-linecap:butt;stroke-linejoin:miter;stroke:rgb(0%,0%,0%);stroke-opacity:1;stroke-miterlimit:4;" d="M 126.212064 214.692595 C 127.16808 213.027277 129.14179 212.194618 131.022983 212.718885 C 132.873336 213.212312 134.199423 214.90847 134.199423 216.85134 C 134.199423 218.794211 132.873336 220.459529 131.022983 220.983796 C 129.14179 221.477224 127.16808 220.644565 126.212064 218.979247 Z M 126.212064 214.692595 " transform="matrix(-0.126665,0,0,0.126665,244.388995,78.149712)"/>
<path style="fill-rule:nonzero;fill:rgb(100%,100%,100%);fill-opacity:1;stroke-width:1;stroke-linecap:butt;stroke-linejoin:miter;stroke:rgb(0%,0%,0%);stroke-opacity:1;stroke-miterlimit:4;" d="M 126.201151 214.71837 C 127.157167 213.022213 129.130877 212.220393 131.012069 212.713821 C 132.893262 213.207248 134.188509 214.903405 134.188509 216.846276 C 134.188509 218.789147 132.893262 220.485305 131.012069 220.978732 C 129.130877 221.47216 127.157167 220.67034 126.201151 218.974183 Z M 126.201151 214.71837 " transform="matrix(-0.126665,0,0,0.126665,244.219644,79.876916)"/>
<path style="fill-rule:nonzero;fill:rgb(100%,100%,100%);fill-opacity:1;stroke-width:1;stroke-linecap:butt;stroke-linejoin:miter;stroke:rgb(0%,0%,0%);stroke-opacity:1;stroke-miterlimit:4;" d="M 126.211854 214.719271 C 127.16787 213.023114 129.14158 212.221294 131.022773 212.714722 C 132.873126 213.208149 134.199212 214.904307 134.199212 216.847178 C 134.199212 218.790049 132.873126 220.486206 131.022773 220.979633 C 129.14158 221.473061 127.16787 220.671241 126.211854 218.975084 Z M 126.211854 214.719271 " transform="matrix(-0.126665,0,0,0.126665,251.162406,79.36899)"/>
<path style="fill-rule:nonzero;fill:rgb(100%,100%,100%);fill-opacity:1;stroke-width:1;stroke-linecap:butt;stroke-linejoin:miter;stroke:rgb(0%,0%,0%);stroke-opacity:1;stroke-miterlimit:4;" d="M 126.200039 214.714387 C 127.156055 213.01823 129.129765 212.216411 131.010958 212.709838 C 132.892151 213.203266 134.187398 214.899423 134.187398 216.842294 C 134.187398 218.785165 132.892151 220.481322 131.010958 220.974749 C 129.129765 221.468177 127.156055 220.666357 126.200039 218.9702 Z M 126.200039 214.714387 " transform="matrix(-0.126665,0,0,0.126665,250.485128,80.994608)"/>
<path style="fill-rule:nonzero;fill:rgb(100%,100%,100%);fill-opacity:1;stroke-width:0.434208;stroke-linecap:butt;stroke-linejoin:miter;stroke:rgb(0%,0%,0%);stroke-opacity:1;stroke-miterlimit:4;" d="M 472.429688 228.265625 C 473.257812 228.125 478.25 226.9375 479.304688 226.304688 C 478.625 225.078125 477.40625 224.117188 478.351562 224.523438 C 478.859375 224.742188 479.265625 223.054688 477.789062 221.765625 C 473.484375 223.171875 463.171875 225.75 450.21875 225.75 C 436.953125 225.75 426.515625 223.039062 422.210938 221.632812 C 420.734375 222.921875 421.195312 224.382812 421.101562 224.929688 C 421.101562 224.9375 421.109375 225.617188 421.375 226.164062 C 422.835938 227.75 427.554688 228.53125 428.382812 228.671875 C 432.273438 229.351562 436.164062 230.367188 450.203125 230.367188 C 463.203125 230.367188 468.539062 228.945312 472.429688 228.265625 Z M 472.429688 228.265625 " transform="matrix(0.5,0,0,0.5,0,0)"/>
<path style="fill-rule:nonzero;fill:rgb(100%,100%,100%);fill-opacity:1;stroke-width:1.578;stroke-linecap:butt;stroke-linejoin:miter;stroke:rgb(0%,0%,0%);stroke-opacity:1;stroke-miterlimit:4;" d="M 132.913273 289.648622 C 129.902567 290.188277 110.759016 296.948166 106.924626 299.277203 C 106.953028 299.277203 106.924626 299.305606 106.924626 299.334009 C 107.26546 301.322212 103.62989 310.581555 108.998037 315.268032 C 124.619628 310.127109 168.530502 294.846352 215.622501 294.846352 C 263.850614 294.846352 303.785083 310.127109 319.406675 315.268032 C 324.803225 310.581555 321.139251 301.322212 321.480086 299.334009 C 321.480086 299.305606 321.451683 299.277203 321.480086 299.277203 C 317.645695 296.948166 298.502145 290.188277 295.491438 289.648622 C 281.346797 287.205973 266.719307 278.060241 215.650903 278.060241 C 168.416891 278.060241 147.057915 287.205973 132.913273 289.648622 Z M 132.913273 289.648622 " transform="matrix(0.13753,0,0,0.13753,195.697,69.8365)"/>
<path style="fill-rule:nonzero;fill:rgb(0%,0%,0%);fill-opacity:1;stroke-width:1;stroke-linecap:butt;stroke-linejoin:miter;stroke:rgb(0%,0%,0%);stroke-opacity:1;stroke-miterlimit:4;" d="M 115.520397 301.582153 C 115.934837 300.821789 116.795832 300.470632 117.632337 300.699677 C 118.428294 300.924141 119.002022 301.661623 118.988062 302.512079 C 119.014651 303.367117 118.443021 304.064876 117.597034 304.283198 C 116.791596 304.506102 115.924549 304.183917 115.518017 303.420483 Z M 115.520397 301.582153 " transform="matrix(0.0951214,-0.00984202,0.0107476,0.0871078,197.856184,86.12071)"/>
<path style="fill-rule:nonzero;fill:rgb(0%,0%,0%);fill-opacity:1;stroke-width:1;stroke-linecap:butt;stroke-linejoin:miter;stroke:rgb(0%,0%,0%);stroke-opacity:1;stroke-miterlimit:4;" d="M 115.517689 301.573826 C 115.932128 300.813462 116.793124 300.462304 117.629629 300.69135 C 118.425586 300.915814 118.999314 301.653296 118.985354 302.503752 C 119.011942 303.35879 118.43531 304.100828 117.629871 304.323731 C 116.783885 304.542053 115.92184 304.17559 115.515308 303.412156 Z M 115.517689 301.573826 " transform="matrix(0.0951214,-0.00984202,0.0107476,0.0871078,197.653406,86.566721)"/>
<path style="fill-rule:nonzero;fill:rgb(0%,0%,0%);fill-opacity:1;stroke-width:1;stroke-linecap:butt;stroke-linejoin:miter;stroke:rgb(0%,0%,0%);stroke-opacity:1;stroke-miterlimit:4;" d="M 115.517337 301.566672 C 115.931777 300.806309 116.792772 300.455151 117.629278 300.684197 C 118.425234 300.908661 118.998962 301.646143 118.985003 302.496599 C 119.011591 303.351637 118.434958 304.093675 117.62952 304.316578 C 116.783533 304.5349 115.921489 304.168437 115.509954 303.449281 Z M 115.517337 301.566672 " transform="matrix(0.0951214,-0.00984202,0.0107476,0.0871078,198.044141,86.809528)"/>
<path style="fill-rule:nonzero;fill:rgb(0%,0%,0%);fill-opacity:1;stroke-width:1;stroke-linecap:butt;stroke-linejoin:miter;stroke:rgb(0%,0%,0%);stroke-opacity:1;stroke-miterlimit:4;" d="M 113.520225 303.668926 L 122.042783 300.509526 L 117.853586 302.903914 L 120.552365 302.805568 L 118.060237 303.980251 L 122.050786 304.251898 Z M 113.520225 303.668926 " transform="matrix(0.190395,-0.0196998,0.0215124,0.174355,183.783326,60.930745)"/>
<path style="fill-rule:nonzero;fill:rgb(0%,0%,0%);fill-opacity:1;stroke-width:1;stroke-linecap:butt;stroke-linejoin:miter;stroke:rgb(0%,0%,0%);stroke-opacity:1;stroke-miterlimit:4;" d="M 115.50765 301.539322 C 115.917087 300.823237 116.778082 300.47208 117.614587 300.701125 C 118.410544 300.925589 118.984272 301.663071 119.010861 302.518109 C 119.001904 303.324287 118.425271 304.066324 117.619833 304.289228 C 116.814395 304.512131 115.947347 304.189947 115.500267 303.421931 Z M 115.50765 301.539322 " transform="matrix(0.0951214,-0.00984202,0.0107476,0.0871078,203.576607,84.48369)"/>
<path style="fill-rule:nonzero;fill:rgb(0%,0%,0%);fill-opacity:1;stroke-width:1;stroke-linecap:butt;stroke-linejoin:miter;stroke:rgb(0%,0%,0%);stroke-opacity:1;stroke-miterlimit:4;" d="M 115.499939 301.575274 C 115.914379 300.81491 116.775374 300.463753 117.611879 300.692798 C 118.448384 300.921844 118.981564 301.654744 119.008152 302.509782 C 118.994193 303.360238 118.41756 304.102276 117.612122 304.325179 C 116.811686 304.503804 115.944639 304.18162 115.497559 303.413604 Z M 115.499939 301.575274 " transform="matrix(0.0951214,-0.00984202,0.0107476,0.0871078,203.373829,84.929702)"/>
<path style="fill-rule:nonzero;fill:rgb(0%,0%,0%);fill-opacity:1;stroke-width:1;stroke-linecap:butt;stroke-linejoin:miter;stroke:rgb(0%,0%,0%);stroke-opacity:1;stroke-miterlimit:4;" d="M 115.499587 301.568121 C 115.914027 300.807757 116.815571 300.461181 117.611528 300.685645 C 118.448033 300.91469 118.981213 301.647591 119.007801 302.502629 C 118.993841 303.353085 118.417208 304.095123 117.61177 304.318026 C 116.806332 304.540929 115.944287 304.174467 115.492204 303.450729 Z M 115.499587 301.568121 " transform="matrix(0.0951214,-0.00984202,0.0107476,0.0871078,203.764564,85.172509)"/>
<path style="fill-rule:nonzero;fill:rgb(0%,0%,0%);fill-opacity:1;stroke-width:1;stroke-linecap:butt;stroke-linejoin:miter;stroke:rgb(0%,0%,0%);stroke-opacity:1;stroke-miterlimit:4;" d="M 113.511357 303.669649 L 122.033916 300.510249 L 117.867476 302.884805 L 120.543497 302.806292 L 118.051369 303.980974 L 122.062176 304.25491 Z M 113.511357 303.669649 " transform="matrix(0.190395,-0.0196998,0.0215124,0.174355,189.503749,59.293725)"/>
<path style="fill-rule:nonzero;fill:rgb(0%,0%,0%);fill-opacity:1;stroke-width:1;stroke-linecap:butt;stroke-linejoin:miter;stroke:rgb(0%,0%,0%);stroke-opacity:1;stroke-miterlimit:4;" d="M 115.522773 301.551507 C 115.936829 300.816372 116.805049 300.460594 117.614616 300.696411 C 118.419333 300.88814 118.998279 301.651983 119.00929 302.50195 C 119.020301 303.351918 118.439129 304.067572 117.596926 304.284935 C 116.800139 304.540233 115.935456 304.178306 115.523627 303.433944 Z M 115.522773 301.551507 " transform="matrix(0.0947119,0.0132157,-0.0104185,0.0871483,217.106581,81.041239)"/>
<path style="fill-rule:nonzero;fill:rgb(0%,0%,0%);fill-opacity:1;stroke-width:1;stroke-linecap:butt;stroke-linejoin:miter;stroke:rgb(0%,0%,0%);stroke-opacity:1;stroke-miterlimit:4;" d="M 115.514827 301.578161 C 115.928882 300.843026 116.797103 300.487249 117.60182 300.678978 C 118.451953 300.908643 118.985483 301.63455 118.996494 302.484517 C 119.007505 303.334485 118.431183 304.094227 117.629546 304.305438 C 116.787343 304.5228 115.922661 304.160873 115.510831 303.416511 Z M 115.514827 301.578161 " transform="matrix(0.0947119,0.0132157,-0.0104185,0.0871483,216.802923,81.42574)"/>
<path style="fill-rule:nonzero;fill:rgb(0%,0%,0%);fill-opacity:1;stroke-width:1;stroke-linecap:butt;stroke-linejoin:miter;stroke:rgb(0%,0%,0%);stroke-opacity:1;stroke-miterlimit:4;" d="M 115.503684 301.566503 C 115.917739 300.831368 116.78596 300.475591 117.636093 300.705255 C 118.44081 300.896985 119.019756 301.660827 118.990201 302.516946 C 118.996362 303.322826 118.420039 304.082568 117.618403 304.293779 C 116.7762 304.511142 115.911517 304.149214 115.504538 303.44894 Z M 115.503684 301.566503 " transform="matrix(0.0947119,0.0132157,-0.0104185,0.0871483,217.12417,81.755028)"/>
<path style="fill-rule:nonzero;fill:rgb(0%,0%,0%);fill-opacity:1;stroke-width:1;stroke-linecap:butt;stroke-linejoin:miter;stroke:rgb(0%,0%,0%);stroke-opacity:1;stroke-miterlimit:4;" d="M 113.51314 303.665034 L 122.047186 300.512215 L 117.858466 302.894116 L 120.549809 302.821888 L 118.060681 303.983129 L 122.04647 304.252051 Z M 113.51314 303.665034 " transform="matrix(0.189575,0.0264525,-0.0208537,0.174436,209.47338,53.214624)"/>
<path style="fill-rule:nonzero;fill:rgb(0%,0%,0%);fill-opacity:1;stroke-width:1;stroke-linecap:butt;stroke-linejoin:miter;stroke:rgb(0%,0%,0%);stroke-opacity:1;stroke-miterlimit:4;" d="M 115.507364 301.553815 C 115.916801 300.83773 116.777796 300.486572 117.619304 300.671339 C 118.415261 300.895804 118.988989 301.633285 119.015577 302.488323 C 119.001618 303.338779 118.424985 304.080817 117.619547 304.303721 C 116.814108 304.526624 115.952064 304.160161 115.499981 303.436424 Z M 115.507364 301.553815 " transform="matrix(0.0951214,0.00984202,0.0107476,-0.0871078,217.256166,135.341794)"/>
<path style="fill-rule:nonzero;fill:rgb(0%,0%,0%);fill-opacity:1;stroke-width:1;stroke-linecap:butt;stroke-linejoin:miter;stroke:rgb(0%,0%,0%);stroke-opacity:1;stroke-miterlimit:4;" d="M 115.504655 301.545488 C 115.914092 300.829403 116.775088 300.478245 117.611593 300.707291 C 118.453101 300.892058 118.986281 301.624958 119.012869 302.479996 C 118.998909 303.330452 118.422276 304.07249 117.616838 304.295393 C 116.8114 304.518297 115.949355 304.151834 115.497272 303.428097 Z M 115.504655 301.545488 " transform="matrix(0.0951214,0.00984202,0.0107476,-0.0871078,217.053388,134.895782)"/>
<path style="fill-rule:nonzero;fill:rgb(0%,0%,0%);fill-opacity:1;stroke-width:1;stroke-linecap:butt;stroke-linejoin:miter;stroke:rgb(0%,0%,0%);stroke-opacity:1;stroke-miterlimit:4;" d="M 115.504304 301.538335 C 115.913741 300.82225 116.774736 300.471092 117.611241 300.700138 C 118.447747 300.929183 118.980926 301.662084 119.007515 302.517121 C 118.998558 303.323299 118.421925 304.065337 117.616487 304.28824 C 116.811049 304.511143 115.944001 304.188959 115.496921 303.420943 Z M 115.504304 301.538335 " transform="matrix(0.0951214,0.00984202,0.0107476,-0.0871078,217.444123,134.652975)"/>
<path style="fill-rule:nonzero;fill:rgb(0%,0%,0%);fill-opacity:1;stroke-width:1;stroke-linecap:butt;stroke-linejoin:miter;stroke:rgb(0%,0%,0%);stroke-opacity:1;stroke-miterlimit:4;" d="M 113.511214 303.67689 L 122.036272 300.495368 L 117.867332 302.892046 L 120.543354 302.813532 L 118.051226 303.988215 L 122.062033 304.262151 Z M 113.511214 303.67689 " transform="matrix(0.190395,0.0196998,0.0215124,-0.174355,203.183308,160.531759)"/>
<path style="fill-rule:nonzero;fill:rgb(0%,0%,0%);fill-opacity:1;stroke-width:1;stroke-linecap:butt;stroke-linejoin:miter;stroke:rgb(0%,0%,0%);stroke-opacity:1;stroke-miterlimit:4;" d="M 115.50974 301.551688 C 115.919177 300.835603 116.780172 300.484446 117.62168 300.669213 C 118.417637 300.893677 118.991365 301.631159 119.017954 302.486196 C 119.003994 303.336653 118.427361 304.07869 117.621923 304.301594 C 116.775936 304.519916 115.913892 304.153453 115.502357 303.434297 Z M 115.50974 301.551688 " transform="matrix(0.0951214,0.00984202,0.0107476,-0.0871078,223.0294,136.849397)"/>
<path style="fill-rule:nonzero;fill:rgb(0%,0%,0%);fill-opacity:1;stroke-width:1;stroke-linecap:butt;stroke-linejoin:miter;stroke:rgb(0%,0%,0%);stroke-opacity:1;stroke-miterlimit:4;" d="M 115.507031 301.543361 C 115.916468 300.827276 116.777464 300.476119 117.613969 300.705164 C 118.414929 300.88535 118.983654 301.66711 119.015245 302.477869 C 119.001285 303.328326 118.424652 304.070363 117.619214 304.293267 C 116.813776 304.51617 115.951731 304.149707 115.499648 303.42597 Z M 115.507031 301.543361 " transform="matrix(0.0951214,0.00984202,0.0107476,-0.0871078,222.826622,136.403386)"/>
<path style="fill-rule:nonzero;fill:rgb(0%,0%,0%);fill-opacity:1;stroke-width:1;stroke-linecap:butt;stroke-linejoin:miter;stroke:rgb(0%,0%,0%);stroke-opacity:1;stroke-miterlimit:4;" d="M 115.501677 301.580487 C 115.916117 300.820123 116.777112 300.468965 117.613617 300.698011 C 118.450123 300.927056 118.983302 301.659957 119.009891 302.514995 C 119.000934 303.321172 118.424301 304.06321 117.618863 304.286113 C 116.813425 304.509017 115.946377 304.186833 115.499297 303.418816 Z M 115.501677 301.580487 " transform="matrix(0.0951214,0.00984202,0.0107476,-0.0871078,223.217358,136.160579)"/>
<path style="fill-rule:nonzero;fill:rgb(0%,0%,0%);fill-opacity:1;stroke-width:1;stroke-linecap:butt;stroke-linejoin:miter;stroke:rgb(0%,0%,0%);stroke-opacity:1;stroke-miterlimit:4;" d="M 113.512401 303.675828 L 122.037459 300.494306 L 117.86852 302.890983 L 120.544541 302.81247 L 118.052413 303.987153 L 122.06322 304.261088 Z M 113.512401 303.675828 " transform="matrix(0.190395,0.0196998,0.0215124,-0.174355,208.956542,162.039363)"/>
</g>
</svg>
