<?xml version="1.0" encoding="UTF-8"?>
<svg xmlns="http://www.w3.org/2000/svg" xmlns:xlink="http://www.w3.org/1999/xlink" width="px" height="px" viewBox="0 0 450 300" version="1.1">
<g id="surface1">
<rect x="0" y="0" width="450" height="300" style="fill:rgb(80.784314%,6.666667%,14.901961%);fill-opacity:1;stroke:none;"/>
<path style=" stroke:none;fill-rule:nonzero;fill:rgb(100%,100%,100%);fill-opacity:1;" d="M 0 100 L 450 100 L 450 300 L 0 300 Z M 0 100 "/>
<path style=" stroke:none;fill-rule:nonzero;fill:rgb(0%,0%,0%);fill-opacity:1;" d="M 0 200 L 450 200 L 450 300 L 0 300 Z M 0 200 "/>
<path style=" stroke:none;fill-rule:nonzero;fill:rgb(0%,47.843137%,23.921569%);fill-opacity:1;" d="M 268.871094 131.285156 C 268.261719 130.964844 267.574219 130.445312 267.34375 130.132812 C 267 129.652344 267.199219 129.632812 268.617188 130.019531 C 271.15625 130.707031 272.792969 130.4375 274.417969 129.0625 L 275.851562 127.855469 L 277.539062 128.714844 C 278.464844 129.183594 279.453125 129.507812 279.738281 129.433594 C 280.464844 129.238281 281.980469 127.296875 281.933594 126.625 C 281.871094 125.792969 282.574219 126.003906 282.914062 126.914062 C 283.585938 128.699219 282.605469 130.746094 280.871094 131.203125 C 280.023438 131.421875 279.242188 131.34375 277.957031 130.898438 C 276.382812 130.347656 276.113281 130.355469 275.324219 130.960938 C 273.554688 132.316406 271.085938 132.445312 268.871094 131.289062 Z M 275.152344 125.546875 C 274.535156 124.761719 273.792969 121.796875 274.035156 121.070312 C 274.246094 120.441406 274.472656 120.304688 275.035156 120.496094 C 276.039062 120.808594 276.273438 121.5 276.121094 123.847656 C 276.003906 125.761719 275.722656 126.265625 275.152344 125.546875 Z M 201.226562 123.425781 C 201.027344 124.851562 203.773438 128.429688 205.015625 129.074219 C 204.171875 129.453125 203.121094 129.28125 202.347656 129.707031 C 198.027344 134.027344 182.238281 149.421875 179.355469 153.097656 C 187.898438 153.269531 197.367188 152.984375 205.371094 152.617188 C 205.363281 146.8125 210.867188 146.515625 214.546875 144.402344 C 216.441406 147.386719 221.199219 147.160156 221.792969 151.648438 L 221.804688 170.96875 L 148.84375 170.96875 C 147.5625 176.636719 142.445312 180.960938 135.316406 179.179688 C 137.523438 176.875 141.234375 176.085938 142.566406 172.902344 C 143.6875 165.933594 140.328125 161.628906 138.152344 157.675781 C 141.75 156.367188 142.292969 156.042969 145.949219 153.585938 C 143.382812 161.378906 152.628906 160.523438 159.476562 160.347656 C 159.695312 157.699219 159.585938 154.574219 157.542969 154.1875 C 160.164062 153.234375 160.601562 152.910156 164.789062 149.359375 L 164.789062 159.859375 L 215.308594 159.75 C 215.308594 156.464844 216.179688 151.183594 213.578125 151.183594 C 211.09375 151.183594 213.460938 157.945312 211.53125 157.945312 L 172.519531 157.945312 L 172.492188 151.238281 C 174.136719 149.59375 173.949219 149.726562 185.246094 138.429688 C 186.371094 137.304688 194.296875 130.144531 201.234375 123.417969 Z M 298.738281 123.136719 C 301.460938 124.605469 303.621094 126.640625 306.953125 127.488281 C 306.566406 128.867188 305.335938 129.414062 305.015625 130.867188 L 305.015625 160.320312 C 308.738281 161.140625 309.523438 159.03125 311.296875 157.90625 C 311.78125 162.621094 314.785156 167.246094 314.675781 170.933594 L 298.734375 170.933594 L 298.738281 123.117188 Z M 277.484375 138.917969 L 283.285156 133.835938 L 283.285156 159.546875 L 287.460938 159.539062 L 287.332031 130.703125 C 289.027344 129.007812 292.34375 126.542969 293.175781 124.835938 L 293.175781 170.886719 L 256.558594 170.902344 C 256.019531 161.34375 255.925781 151.445312 267.070312 153.574219 L 267.070312 149.671875 C 266.742188 149.015625 266.121094 149.832031 265.976562 148.964844 C 267.746094 147.195312 268.34375 146.742188 273.136719 142.558594 L 273.222656 159.53125 L 277.445312 159.535156 C 277.445312 159.535156 277.484375 139.578125 277.484375 138.917969 Z M 263.742188 159.285156 C 264.527344 160.460938 267.195312 160.441406 267.070312 158.457031 C 266.632812 156.824219 263.113281 157.445312 263.742188 159.285156 Z M 263.742188 159.285156 "/>
<path style=" stroke:none;fill-rule:nonzero;fill:rgb(0%,47.843137%,23.921569%);fill-opacity:1;" d="M 159.976562 176.386719 C 159.976562 177.621094 158.976562 178.621094 157.742188 178.621094 C 156.507812 178.621094 155.507812 177.621094 155.507812 176.386719 C 155.507812 175.152344 156.507812 174.152344 157.742188 174.152344 C 158.976562 174.152344 159.976562 175.152344 159.976562 176.386719 Z M 159.976562 176.386719 "/>
<path style=" stroke:none;fill-rule:nonzero;fill:rgb(0%,47.843137%,23.921569%);fill-opacity:1;" d="M 226.746094 123.1875 C 229.46875 124.652344 231.625 126.679688 234.960938 127.535156 C 234.574219 128.914062 233.34375 129.460938 233.023438 130.914062 L 233.023438 160.375 C 236.746094 161.199219 237.53125 159.085938 239.304688 157.960938 C 239.785156 162.679688 242.792969 167.296875 242.683594 170.992188 L 226.742188 170.992188 L 226.746094 123.171875 Z M 226.746094 123.1875 "/>
</g>
</svg>
