<?xml version="1.0" encoding="UTF-8"?>
<svg xmlns="http://www.w3.org/2000/svg" xmlns:xlink="http://www.w3.org/1999/xlink" width="px" height="px" viewBox="0 0 315 180" version="1.1">
<g id="surface1">
<rect x="0" y="0" width="315" height="180" style="fill:rgb(85.490196%,0%,0%);fill-opacity:1;stroke:none;"/>
<path style=" stroke:none;fill-rule:nonzero;fill:rgb(100%,100%,100%);fill-opacity:1;" d="M 0 0 L 315 0 L 315 120 L 0 120 Z M 0 0 "/>
<path style=" stroke:none;fill-rule:nonzero;fill:rgb(13.72549%,62.352941%,25.098039%);fill-opacity:1;" d="M 0 0 L 315 0 L 315 60 L 0 60 Z M 0 0 "/>
<path style="fill:none;stroke-width:2;stroke-linecap:butt;stroke-linejoin:miter;stroke:rgb(100%,100%,100%);stroke-opacity:1;stroke-miterlimit:4;" d="M -0.00111607 0.997768 L 25.997768 0.997768 M 0.997768 9.998884 L 0.997768 4.998884 L 9 4.998884 L 9 9 L 17.002232 9 L 17.002232 4.998884 L 12.002232 4.998884 M 4 9 L 5.997768 9 M 25.997768 9 L 20.997768 9 L 20.997768 4.998884 L 29 4.998884 M 29 -0.00111607 L 29 9 L 37.002232 9 L 37.002232 -0.00111607 M 33.001116 -0.00111607 L 33.001116 9 " transform="matrix(0.7,0,0,0.7,4.2,50.2)"/>
<path style="fill:none;stroke-width:2;stroke-linecap:butt;stroke-linejoin:miter;stroke:rgb(100%,100%,100%);stroke-opacity:1;stroke-miterlimit:4;" d="M -0.000558036 7 L 9.000558 7 M 9.999442 7 L 19.000558 7 " transform="matrix(1.4,0,0,1.4,4.2,50.2)"/>
<path style="fill:none;stroke-width:2;stroke-linecap:butt;stroke-linejoin:miter;stroke:rgb(100%,100%,100%);stroke-opacity:1;stroke-miterlimit:4;" d="M -0.000558036 7 L 9.000558 7 M 9.999442 7 L 19.000558 7 " transform="matrix(1.4,0,0,1.4,4.2,110.2)"/>
<path style="fill:none;stroke-width:2;stroke-linecap:butt;stroke-linejoin:miter;stroke:rgb(100%,100%,100%);stroke-opacity:1;stroke-miterlimit:4;" d="M -0.00111607 1 L 25.997768 1 M 0.997768 10.001116 L 0.997768 5.001116 L 9 5.001116 L 9 9.002232 L 17.002232 9.002232 L 17.002232 5.001116 L 12.002232 5.001116 M 4 9.002232 L 5.997768 9.002232 M 25.997768 9.002232 L 20.997768 9.002232 L 20.997768 5.001116 L 29 5.001116 M 29 0.00111607 L 29 9.002232 L 37.002232 9.002232 L 37.002232 0.00111607 M 33.001116 0.00111607 L 33.001116 9.002232 " transform="matrix(0.7,0,0,0.7,4.2,122.8)"/>
<path style="fill:none;stroke-width:2;stroke-linecap:butt;stroke-linejoin:miter;stroke:rgb(100%,100%,100%);stroke-opacity:1;stroke-miterlimit:4;" d="M -0.00111607 0.997768 L 25.997768 0.997768 M 0.997768 9.998884 L 0.997768 4.998884 L 9 4.998884 L 9 9 L 17.002232 9 L 17.002232 4.998884 L 12.002232 4.998884 M 4 9 L 5.997768 9 M 25.997768 9 L 20.997768 9 L 20.997768 4.998884 L 29 4.998884 M 29 -0.00111607 L 29 9 L 37.002232 9 L 37.002232 -0.00111607 M 33.001116 -0.00111607 L 33.001116 9 " transform="matrix(0.7,0,0,0.7,32.2,50.2)"/>
<path style="fill:none;stroke-width:2;stroke-linecap:butt;stroke-linejoin:miter;stroke:rgb(100%,100%,100%);stroke-opacity:1;stroke-miterlimit:4;" d="M -0.000558036 7 L 9.000558 7 M 9.999442 7 L 19.000558 7 " transform="matrix(1.4,0,0,1.4,32.2,50.2)"/>
<path style="fill:none;stroke-width:2;stroke-linecap:butt;stroke-linejoin:miter;stroke:rgb(100%,100%,100%);stroke-opacity:1;stroke-miterlimit:4;" d="M -0.000558036 7 L 9.000558 7 M 9.999442 7 L 19.000558 7 " transform="matrix(1.4,0,0,1.4,32.2,110.2)"/>
<path style="fill:none;stroke-width:2;stroke-linecap:butt;stroke-linejoin:miter;stroke:rgb(100%,100%,100%);stroke-opacity:1;stroke-miterlimit:4;" d="M -0.00111607 1 L 25.997768 1 M 0.997768 10.001116 L 0.997768 5.001116 L 9 5.001116 L 9 9.002232 L 17.002232 9.002232 L 17.002232 5.001116 L 12.002232 5.001116 M 4 9.002232 L 5.997768 9.002232 M 25.997768 9.002232 L 20.997768 9.002232 L 20.997768 5.001116 L 29 5.001116 M 29 0.00111607 L 29 9.002232 L 37.002232 9.002232 L 37.002232 0.00111607 M 33.001116 0.00111607 L 33.001116 9.002232 " transform="matrix(0.7,0,0,0.7,32.2,122.8)"/>
<path style="fill:none;stroke-width:2;stroke-linecap:butt;stroke-linejoin:miter;stroke:rgb(100%,100%,100%);stroke-opacity:1;stroke-miterlimit:4;" d="M -0.00111607 0.997768 L 25.997768 0.997768 M 0.997768 9.998884 L 0.997768 4.998884 L 9 4.998884 L 9 9 L 17.002232 9 L 17.002232 4.998884 L 12.002232 4.998884 M 4 9 L 5.997768 9 M 25.997768 9 L 20.997768 9 L 20.997768 4.998884 L 29 4.998884 M 29 -0.00111607 L 29 9 L 37.002232 9 L 37.002232 -0.00111607 M 33.001116 -0.00111607 L 33.001116 9 " transform="matrix(0.7,0,0,0.7,60.2,50.2)"/>
<path style="fill:none;stroke-width:2;stroke-linecap:butt;stroke-linejoin:miter;stroke:rgb(100%,100%,100%);stroke-opacity:1;stroke-miterlimit:4;" d="M -0.000558036 7 L 9.000558 7 M 9.999442 7 L 19.000558 7 " transform="matrix(1.4,0,0,1.4,60.2,50.2)"/>
<path style="fill:none;stroke-width:2;stroke-linecap:butt;stroke-linejoin:miter;stroke:rgb(100%,100%,100%);stroke-opacity:1;stroke-miterlimit:4;" d="M -0.000558036 7 L 9.000558 7 M 9.999442 7 L 19.000558 7 " transform="matrix(1.4,0,0,1.4,60.2,110.2)"/>
<path style="fill:none;stroke-width:2;stroke-linecap:butt;stroke-linejoin:miter;stroke:rgb(100%,100%,100%);stroke-opacity:1;stroke-miterlimit:4;" d="M -0.00111607 1 L 25.997768 1 M 0.997768 10.001116 L 0.997768 5.001116 L 9 5.001116 L 9 9.002232 L 17.002232 9.002232 L 17.002232 5.001116 L 12.002232 5.001116 M 4 9.002232 L 5.997768 9.002232 M 25.997768 9.002232 L 20.997768 9.002232 L 20.997768 5.001116 L 29 5.001116 M 29 0.00111607 L 29 9.002232 L 37.002232 9.002232 L 37.002232 0.00111607 M 33.001116 0.00111607 L 33.001116 9.002232 " transform="matrix(0.7,0,0,0.7,60.2,122.8)"/>
<path style="fill:none;stroke-width:2;stroke-linecap:butt;stroke-linejoin:miter;stroke:rgb(100%,100%,100%);stroke-opacity:1;stroke-miterlimit:4;" d="M -0.00111607 0.997768 L 25.997768 0.997768 M 0.997768 9.998884 L 0.997768 4.998884 L 9 4.998884 L 9 9 L 17.002232 9 L 17.002232 4.998884 L 12.002232 4.998884 M 4 9 L 5.997768 9 M 25.997768 9 L 20.997768 9 L 20.997768 4.998884 L 29 4.998884 M 29 -0.00111607 L 29 9 L 37.002232 9 L 37.002232 -0.00111607 M 33.001116 -0.00111607 L 33.001116 9 " transform="matrix(0.7,0,0,0.7,88.2,50.2)"/>
<path style="fill:none;stroke-width:2;stroke-linecap:butt;stroke-linejoin:miter;stroke:rgb(100%,100%,100%);stroke-opacity:1;stroke-miterlimit:4;" d="M -0.000558036 7 L 9.000558 7 M 9.999442 7 L 19.000558 7 " transform="matrix(1.4,0,0,1.4,88.2,50.2)"/>
<path style="fill:none;stroke-width:2;stroke-linecap:butt;stroke-linejoin:miter;stroke:rgb(100%,100%,100%);stroke-opacity:1;stroke-miterlimit:4;" d="M -0.000558036 7 L 9.000558 7 M 9.999442 7 L 19.000558 7 " transform="matrix(1.4,0,0,1.4,88.2,110.2)"/>
<path style="fill:none;stroke-width:2;stroke-linecap:butt;stroke-linejoin:miter;stroke:rgb(100%,100%,100%);stroke-opacity:1;stroke-miterlimit:4;" d="M -0.00111607 1 L 25.997768 1 M 0.997768 10.001116 L 0.997768 5.001116 L 9 5.001116 L 9 9.002232 L 17.002232 9.002232 L 17.002232 5.001116 L 12.002232 5.001116 M 4 9.002232 L 5.997768 9.002232 M 25.997768 9.002232 L 20.997768 9.002232 L 20.997768 5.001116 L 29 5.001116 M 29 0.00111607 L 29 9.002232 L 37.002232 9.002232 L 37.002232 0.00111607 M 33.001116 0.00111607 L 33.001116 9.002232 " transform="matrix(0.7,0,0,0.7,88.2,122.8)"/>
<path style="fill:none;stroke-width:2;stroke-linecap:butt;stroke-linejoin:miter;stroke:rgb(100%,100%,100%);stroke-opacity:1;stroke-miterlimit:4;" d="M -0.00111607 0.997768 L 25.997768 0.997768 M 0.997768 9.998884 L 0.997768 4.998884 L 9 4.998884 L 9 9 L 17.002232 9 L 17.002232 4.998884 L 12.002232 4.998884 M 4 9 L 5.997768 9 M 25.997768 9 L 20.997768 9 L 20.997768 4.998884 L 29 4.998884 M 29 -0.00111607 L 29 9 L 37.002232 9 L 37.002232 -0.00111607 M 33.001116 -0.00111607 L 33.001116 9 " transform="matrix(0.7,0,0,0.7,116.2,50.2)"/>
<path style="fill:none;stroke-width:2;stroke-linecap:butt;stroke-linejoin:miter;stroke:rgb(100%,100%,100%);stroke-opacity:1;stroke-miterlimit:4;" d="M -0.000558036 7 L 9.000558 7 M 9.999442 7 L 19.000558 7 " transform="matrix(1.4,0,0,1.4,116.2,50.2)"/>
<path style="fill:none;stroke-width:2;stroke-linecap:butt;stroke-linejoin:miter;stroke:rgb(100%,100%,100%);stroke-opacity:1;stroke-miterlimit:4;" d="M -0.000558036 7 L 9.000558 7 M 9.999442 7 L 19.000558 7 " transform="matrix(1.4,0,0,1.4,116.2,110.2)"/>
<path style="fill:none;stroke-width:2;stroke-linecap:butt;stroke-linejoin:miter;stroke:rgb(100%,100%,100%);stroke-opacity:1;stroke-miterlimit:4;" d="M -0.00111607 1 L 25.997768 1 M 0.997768 10.001116 L 0.997768 5.001116 L 9 5.001116 L 9 9.002232 L 17.002232 9.002232 L 17.002232 5.001116 L 12.002232 5.001116 M 4 9.002232 L 5.997768 9.002232 M 25.997768 9.002232 L 20.997768 9.002232 L 20.997768 5.001116 L 29 5.001116 M 29 0.00111607 L 29 9.002232 L 37.002232 9.002232 L 37.002232 0.00111607 M 33.001116 0.00111607 L 33.001116 9.002232 " transform="matrix(0.7,0,0,0.7,116.2,122.8)"/>
<path style="fill:none;stroke-width:2;stroke-linecap:butt;stroke-linejoin:miter;stroke:rgb(100%,100%,100%);stroke-opacity:1;stroke-miterlimit:4;" d="M -0.00111607 0.997768 L 25.997768 0.997768 M 0.997768 9.998884 L 0.997768 4.998884 L 9 4.998884 L 9 9 L 17.002232 9 L 17.002232 4.998884 L 12.002232 4.998884 M 4 9 L 5.997768 9 M 25.997768 9 L 20.997768 9 L 20.997768 4.998884 L 29 4.998884 M 29 -0.00111607 L 29 9 L 37.002232 9 L 37.002232 -0.00111607 M 33.001116 -0.00111607 L 33.001116 9 " transform="matrix(0.7,0,0,0.7,144.2,50.2)"/>
<path style="fill:none;stroke-width:2;stroke-linecap:butt;stroke-linejoin:miter;stroke:rgb(100%,100%,100%);stroke-opacity:1;stroke-miterlimit:4;" d="M -0.000558036 7 L 9.000558 7 M 9.999442 7 L 19.000558 7 " transform="matrix(1.4,0,0,1.4,144.2,50.2)"/>
<path style="fill:none;stroke-width:2;stroke-linecap:butt;stroke-linejoin:miter;stroke:rgb(100%,100%,100%);stroke-opacity:1;stroke-miterlimit:4;" d="M -0.000558036 7 L 9.000558 7 M 9.999442 7 L 19.000558 7 " transform="matrix(1.4,0,0,1.4,144.2,110.2)"/>
<path style="fill:none;stroke-width:2;stroke-linecap:butt;stroke-linejoin:miter;stroke:rgb(100%,100%,100%);stroke-opacity:1;stroke-miterlimit:4;" d="M -0.00111607 1 L 25.997768 1 M 0.997768 10.001116 L 0.997768 5.001116 L 9 5.001116 L 9 9.002232 L 17.002232 9.002232 L 17.002232 5.001116 L 12.002232 5.001116 M 4 9.002232 L 5.997768 9.002232 M 25.997768 9.002232 L 20.997768 9.002232 L 20.997768 5.001116 L 29 5.001116 M 29 0.00111607 L 29 9.002232 L 37.002232 9.002232 L 37.002232 0.00111607 M 33.001116 0.00111607 L 33.001116 9.002232 " transform="matrix(0.7,0,0,0.7,144.2,122.8)"/>
<path style="fill:none;stroke-width:2;stroke-linecap:butt;stroke-linejoin:miter;stroke:rgb(100%,100%,100%);stroke-opacity:1;stroke-miterlimit:4;" d="M -0.00111607 0.997768 L 25.997768 0.997768 M 0.997768 9.998884 L 0.997768 4.998884 L 9 4.998884 L 9 9 L 17.002232 9 L 17.002232 4.998884 L 12.002232 4.998884 M 4 9 L 5.997768 9 M 25.997768 9 L 20.997768 9 L 20.997768 4.998884 L 29 4.998884 M 29 -0.00111607 L 29 9 L 37.002232 9 L 37.002232 -0.00111607 M 33.001116 -0.00111607 L 33.001116 9 " transform="matrix(0.7,0,0,0.7,172.2,50.2)"/>
<path style="fill:none;stroke-width:2;stroke-linecap:butt;stroke-linejoin:miter;stroke:rgb(100%,100%,100%);stroke-opacity:1;stroke-miterlimit:4;" d="M -0.000558036 7 L 9.000558 7 M 9.999442 7 L 19.000558 7 " transform="matrix(1.4,0,0,1.4,172.2,50.2)"/>
<path style="fill:none;stroke-width:2;stroke-linecap:butt;stroke-linejoin:miter;stroke:rgb(100%,100%,100%);stroke-opacity:1;stroke-miterlimit:4;" d="M -0.000558036 7 L 9.000558 7 M 9.999442 7 L 19.000558 7 " transform="matrix(1.4,0,0,1.4,172.2,110.2)"/>
<path style="fill:none;stroke-width:2;stroke-linecap:butt;stroke-linejoin:miter;stroke:rgb(100%,100%,100%);stroke-opacity:1;stroke-miterlimit:4;" d="M -0.00111607 1 L 25.997768 1 M 0.997768 10.001116 L 0.997768 5.001116 L 9 5.001116 L 9 9.002232 L 17.002232 9.002232 L 17.002232 5.001116 L 12.002232 5.001116 M 4 9.002232 L 5.997768 9.002232 M 25.997768 9.002232 L 20.997768 9.002232 L 20.997768 5.001116 L 29 5.001116 M 29 0.00111607 L 29 9.002232 L 37.002232 9.002232 L 37.002232 0.00111607 M 33.001116 0.00111607 L 33.001116 9.002232 " transform="matrix(0.7,0,0,0.7,172.2,122.8)"/>
<path style="fill:none;stroke-width:2;stroke-linecap:butt;stroke-linejoin:miter;stroke:rgb(100%,100%,100%);stroke-opacity:1;stroke-miterlimit:4;" d="M -0.00111607 0.997768 L 25.997768 0.997768 M 0.997768 9.998884 L 0.997768 4.998884 L 9 4.998884 L 9 9 L 17.002232 9 L 17.002232 4.998884 L 12.002232 4.998884 M 4 9 L 5.997768 9 M 25.997768 9 L 20.997768 9 L 20.997768 4.998884 L 29 4.998884 M 29 -0.00111607 L 29 9 L 37.002232 9 L 37.002232 -0.00111607 M 33.001116 -0.00111607 L 33.001116 9 " transform="matrix(0.7,0,0,0.7,200.2,50.2)"/>
<path style="fill:none;stroke-width:2;stroke-linecap:butt;stroke-linejoin:miter;stroke:rgb(100%,100%,100%);stroke-opacity:1;stroke-miterlimit:4;" d="M -0.000558036 7 L 9.000558 7 M 9.999442 7 L 19.000558 7 " transform="matrix(1.4,0,0,1.4,200.2,50.2)"/>
<path style="fill:none;stroke-width:2;stroke-linecap:butt;stroke-linejoin:miter;stroke:rgb(100%,100%,100%);stroke-opacity:1;stroke-miterlimit:4;" d="M -0.000558036 7 L 9.000558 7 M 9.999442 7 L 19.000558 7 " transform="matrix(1.4,0,0,1.4,200.2,110.2)"/>
<path style="fill:none;stroke-width:2;stroke-linecap:butt;stroke-linejoin:miter;stroke:rgb(100%,100%,100%);stroke-opacity:1;stroke-miterlimit:4;" d="M -0.00111607 1 L 25.997768 1 M 0.997768 10.001116 L 0.997768 5.001116 L 9 5.001116 L 9 9.002232 L 17.002232 9.002232 L 17.002232 5.001116 L 12.002232 5.001116 M 4 9.002232 L 5.997768 9.002232 M 25.997768 9.002232 L 20.997768 9.002232 L 20.997768 5.001116 L 29 5.001116 M 29 0.00111607 L 29 9.002232 L 37.002232 9.002232 L 37.002232 0.00111607 M 33.001116 0.00111607 L 33.001116 9.002232 " transform="matrix(0.7,0,0,0.7,200.2,122.8)"/>
<path style="fill:none;stroke-width:2;stroke-linecap:butt;stroke-linejoin:miter;stroke:rgb(100%,100%,100%);stroke-opacity:1;stroke-miterlimit:4;" d="M -0.00111607 0.997768 L 25.997768 0.997768 M 0.997768 9.998884 L 0.997768 4.998884 L 9 4.998884 L 9 9 L 17.002232 9 L 17.002232 4.998884 L 12.002232 4.998884 M 4 9 L 5.997768 9 M 25.997768 9 L 20.997768 9 L 20.997768 4.998884 L 29 4.998884 M 29 -0.00111607 L 29 9 L 37.002232 9 L 37.002232 -0.00111607 M 33.001116 -0.00111607 L 33.001116 9 " transform="matrix(0.7,0,0,0.7,228.2,50.2)"/>
<path style="fill:none;stroke-width:2;stroke-linecap:butt;stroke-linejoin:miter;stroke:rgb(100%,100%,100%);stroke-opacity:1;stroke-miterlimit:4;" d="M -0.000558036 7 L 9.000558 7 M 9.999442 7 L 19.000558 7 " transform="matrix(1.4,0,0,1.4,228.2,50.2)"/>
<path style="fill:none;stroke-width:2;stroke-linecap:butt;stroke-linejoin:miter;stroke:rgb(100%,100%,100%);stroke-opacity:1;stroke-miterlimit:4;" d="M -0.000558036 7 L 9.000558 7 M 9.999442 7 L 19.000558 7 " transform="matrix(1.4,0,0,1.4,228.2,110.2)"/>
<path style="fill:none;stroke-width:2;stroke-linecap:butt;stroke-linejoin:miter;stroke:rgb(100%,100%,100%);stroke-opacity:1;stroke-miterlimit:4;" d="M -0.00111607 1 L 25.997768 1 M 0.997768 10.001116 L 0.997768 5.001116 L 9 5.001116 L 9 9.002232 L 17.002232 9.002232 L 17.002232 5.001116 L 12.002232 5.001116 M 4 9.002232 L 5.997768 9.002232 M 25.997768 9.002232 L 20.997768 9.002232 L 20.997768 5.001116 L 29 5.001116 M 29 0.00111607 L 29 9.002232 L 37.002232 9.002232 L 37.002232 0.00111607 M 33.001116 0.00111607 L 33.001116 9.002232 " transform="matrix(0.7,0,0,0.7,228.2,122.8)"/>
<path style="fill:none;stroke-width:2;stroke-linecap:butt;stroke-linejoin:miter;stroke:rgb(100%,100%,100%);stroke-opacity:1;stroke-miterlimit:4;" d="M -0.00111607 0.997768 L 25.997768 0.997768 M 0.997768 9.998884 L 0.997768 4.998884 L 9 4.998884 L 9 9 L 17.002232 9 L 17.002232 4.998884 L 12.002232 4.998884 M 4 9 L 5.997768 9 M 25.997768 9 L 20.997768 9 L 20.997768 4.998884 L 29 4.998884 M 29 -0.00111607 L 29 9 L 37.002232 9 L 37.002232 -0.00111607 M 33.001116 -0.00111607 L 33.001116 9 " transform="matrix(0.7,0,0,0.7,256.2,50.2)"/>
<path style="fill:none;stroke-width:2;stroke-linecap:butt;stroke-linejoin:miter;stroke:rgb(100%,100%,100%);stroke-opacity:1;stroke-miterlimit:4;" d="M -0.000558036 7 L 9.000558 7 M 9.999442 7 L 19.000558 7 " transform="matrix(1.4,0,0,1.4,256.2,50.2)"/>
<path style="fill:none;stroke-width:2;stroke-linecap:butt;stroke-linejoin:miter;stroke:rgb(100%,100%,100%);stroke-opacity:1;stroke-miterlimit:4;" d="M -0.000558036 7 L 9.000558 7 M 9.999442 7 L 19.000558 7 " transform="matrix(1.4,0,0,1.4,256.2,110.2)"/>
<path style="fill:none;stroke-width:2;stroke-linecap:butt;stroke-linejoin:miter;stroke:rgb(100%,100%,100%);stroke-opacity:1;stroke-miterlimit:4;" d="M -0.00111607 1 L 25.997768 1 M 0.997768 10.001116 L 0.997768 5.001116 L 9 5.001116 L 9 9.002232 L 17.002232 9.002232 L 17.002232 5.001116 L 12.002232 5.001116 M 4 9.002232 L 5.997768 9.002232 M 25.997768 9.002232 L 20.997768 9.002232 L 20.997768 5.001116 L 29 5.001116 M 29 0.00111607 L 29 9.002232 L 37.002232 9.002232 L 37.002232 0.00111607 M 33.001116 0.00111607 L 33.001116 9.002232 " transform="matrix(0.7,0,0,0.7,256.2,122.8)"/>
<path style="fill:none;stroke-width:2;stroke-linecap:butt;stroke-linejoin:miter;stroke:rgb(100%,100%,100%);stroke-opacity:1;stroke-miterlimit:4;" d="M -0.00111607 0.997768 L 25.997768 0.997768 M 0.997768 9.998884 L 0.997768 4.998884 L 9 4.998884 L 9 9 L 17.002232 9 L 17.002232 4.998884 L 12.002232 4.998884 M 4 9 L 5.997768 9 M 25.997768 9 L 20.997768 9 L 20.997768 4.998884 L 29 4.998884 M 29 -0.00111607 L 29 9 L 37.002232 9 L 37.002232 -0.00111607 M 33.001116 -0.00111607 L 33.001116 9 " transform="matrix(0.7,0,0,0.7,284.2,50.2)"/>
<path style="fill:none;stroke-width:2;stroke-linecap:butt;stroke-linejoin:miter;stroke:rgb(100%,100%,100%);stroke-opacity:1;stroke-miterlimit:4;" d="M -0.000558036 7 L 9.000558 7 M 9.999442 7 L 19.000558 7 " transform="matrix(1.4,0,0,1.4,284.2,50.2)"/>
<path style="fill:none;stroke-width:2;stroke-linecap:butt;stroke-linejoin:miter;stroke:rgb(100%,100%,100%);stroke-opacity:1;stroke-miterlimit:4;" d="M -0.000558036 7 L 9.000558 7 M 9.999442 7 L 19.000558 7 " transform="matrix(1.4,0,0,1.4,284.2,110.2)"/>
<path style="fill:none;stroke-width:2;stroke-linecap:butt;stroke-linejoin:miter;stroke:rgb(100%,100%,100%);stroke-opacity:1;stroke-miterlimit:4;" d="M -0.00111607 1 L 25.997768 1 M 0.997768 10.001116 L 0.997768 5.001116 L 9 5.001116 L 9 9.002232 L 17.002232 9.002232 L 17.002232 5.001116 L 12.002232 5.001116 M 4 9.002232 L 5.997768 9.002232 M 25.997768 9.002232 L 20.997768 9.002232 L 20.997768 5.001116 L 29 5.001116 M 29 0.00111607 L 29 9.002232 L 37.002232 9.002232 L 37.002232 0.00111607 M 33.001116 0.00111607 L 33.001116 9.002232 " transform="matrix(0.7,0,0,0.7,284.2,122.8)"/>
<path style=" stroke:none;fill-rule:nonzero;fill:rgb(85.490196%,0%,0%);fill-opacity:1;" d="M 145.171875 108.808594 C 140.847656 99.695312 143.792969 88.792969 152.113281 83.09375 C 160.429688 77.390625 171.660156 78.582031 178.601562 85.898438 C 185.542969 93.21875 186.132812 104.496094 180 112.5 "/>
<path style=" stroke:none;fill-rule:nonzero;fill:rgb(85.490196%,0%,0%);fill-opacity:1;" d="M 171.40625 104.871094 C 167.363281 97.542969 169.183594 88.371094 175.71875 83.144531 C 182.257812 77.917969 191.605469 78.15625 197.867188 83.710938 C 204.125 89.265625 205.476562 98.523438 201.0625 105.632812 C 196.648438 112.742188 187.757812 115.644531 180 112.5 M 157.5 112.5 L 156.375 90 L 157.5 72.292969 C 168.601562 66.078125 182.640625 70.042969 188.855469 81.144531 C 195.066406 92.25 191.101562 106.285156 180 112.5 L 180 87.75 L 179.101562 110.09375 Z M 157.050781 70.875 L 157.5 71.300781 C 168.875 65.089844 183.136719 69.273438 189.347656 80.652344 C 195.5625 92.027344 191.375 106.285156 180 112.5 "/>
<path style=" stroke:none;fill-rule:nonzero;fill:rgb(85.490196%,0%,0%);fill-opacity:1;" d="M 169.828125 108.808594 C 174.152344 99.695312 171.207031 88.792969 162.886719 83.09375 C 154.570312 77.390625 143.339844 78.582031 136.398438 85.898438 C 129.457031 93.21875 128.867188 104.496094 135 112.5 "/>
<path style=" stroke:none;fill-rule:nonzero;fill:rgb(85.490196%,0%,0%);fill-opacity:1;" d="M 143.59375 104.871094 C 147.636719 97.542969 145.816406 88.371094 139.28125 83.144531 C 132.742188 77.917969 123.394531 78.15625 117.132812 83.710938 C 110.875 89.265625 109.523438 98.523438 113.9375 105.632812 C 118.351562 112.742188 127.242188 115.644531 135 112.5 M 157.5 112.5 L 158.625 90 L 157.5 72.292969 C 146.398438 66.078125 132.359375 70.042969 126.144531 81.144531 C 119.933594 92.25 123.898438 106.285156 135 112.5 L 135 87.75 L 135.898438 110.09375 Z M 157.949219 70.875 L 157.5 71.300781 C 146.125 65.089844 131.863281 69.273438 125.652344 80.652344 C 119.4375 92.027344 123.625 106.285156 135 112.5 "/>
</g>
</svg>
