<?xml version="1.0" encoding="UTF-8"?>
<svg xmlns="http://www.w3.org/2000/svg" xmlns:xlink="http://www.w3.org/1999/xlink" width="px" height="px" viewBox="0 0 450 300" version="1.1">
<g id="surface1">
<rect x="0" y="0" width="450" height="300" style="fill:rgb(100%,100%,100%);fill-opacity:1;stroke:none;"/>
<path style=" stroke:none;fill-rule:nonzero;fill:rgb(0%,0%,0%);fill-opacity:1;" d="M 0 0 L 450 0 L 450 90 L 0 90 Z M 0 0 "/>
<path style=" stroke:none;fill-rule:nonzero;fill:rgb(73.333333%,0%,0%);fill-opacity:1;" d="M 0 105 L 450 105 L 450 195 L 0 195 Z M 0 105 "/>
<path style=" stroke:none;fill-rule:nonzero;fill:rgb(0%,40%,0%);fill-opacity:1;" d="M 0 210 L 450 210 L 450 300 L 0 300 Z M 0 210 "/>
<path style=" stroke:none;fill-rule:nonzero;fill:rgb(0%,0%,0%);fill-opacity:1;" d="M 171.414062 239.0625 L 174.660156 240.9375 L 262.25 89.234375 C 267.371094 87.859375 270.183594 82.988281 272.996094 78.117188 C 274.871094 74.871094 282.371094 61.878906 285.621094 45 C 272.628906 56.253906 265.128906 69.246094 263.253906 72.492188 C 260.441406 77.363281 257.628906 82.234375 259 87.359375 Z M 171.414062 239.0625 "/>
<path style=" stroke:none;fill-rule:nonzero;fill:rgb(100%,100%,100%);fill-opacity:1;" d="M 171.414062 239.0625 L 174.660156 240.9375 L 262.25 89.234375 C 267.371094 87.859375 270.183594 82.988281 272.996094 78.117188 C 274.871094 74.871094 282.371094 61.878906 285.621094 45 C 272.628906 56.253906 265.128906 69.246094 263.253906 72.492188 C 260.441406 77.363281 257.628906 82.234375 259 87.359375 Z M 171.414062 239.0625 "/>
<path style=" stroke:none;fill-rule:nonzero;fill:rgb(0%,0%,0%);fill-opacity:1;" d="M 278.585938 239.0625 L 275.339844 240.9375 L 187.75 89.234375 C 182.628906 87.859375 179.816406 82.988281 177.003906 78.117188 C 175.128906 74.871094 167.628906 61.878906 164.378906 45 C 177.371094 56.253906 184.871094 69.246094 186.746094 72.492188 C 189.558594 77.363281 192.371094 82.234375 191 87.359375 Z M 278.585938 239.0625 "/>
<path style=" stroke:none;fill-rule:nonzero;fill:rgb(100%,100%,100%);fill-opacity:1;" d="M 278.585938 239.0625 L 275.339844 240.9375 L 187.75 89.234375 C 182.628906 87.859375 179.816406 82.988281 177.003906 78.117188 C 175.128906 74.871094 167.628906 61.878906 164.378906 45 C 177.371094 56.253906 184.871094 69.246094 186.746094 72.492188 C 189.558594 77.363281 192.371094 82.234375 191 87.359375 Z M 278.585938 239.0625 "/>
<path style=" stroke:none;fill-rule:nonzero;fill:rgb(73.333333%,0%,0%);fill-opacity:1;" d="M 189.375 195 C 195 210 213.75 240 225 240 C 236.25 240 255 210 260.625 195 L 260.625 105 C 255 90 236.25 60 225 60 C 213.75 60 195 90 189.375 105 Z M 189.375 195 "/>
<path style=" stroke:none;fill-rule:nonzero;fill:rgb(0%,0%,0%);fill-opacity:1;" d="M 260.625 195 C 266.25 180 270 165 270 150 C 270 135 266.25 120 260.625 105 C 255 120 251.25 135 251.25 150 C 251.25 165 255 180 260.625 195 Z M 260.625 195 "/>
<path style=" stroke:none;fill-rule:nonzero;fill:rgb(0%,0%,0%);fill-opacity:1;" d="M 189.375 195 C 183.75 180 180 165 180 150 C 180 135 183.75 120 189.375 105 C 195 120 198.75 135 198.75 150 C 198.75 165 195 180 189.375 195 Z M 189.375 195 "/>
<path style=" stroke:none;fill-rule:nonzero;fill:rgb(100%,100%,100%);fill-opacity:1;" d="M 232.5 150 C 232.5 143.785156 229.140625 138.75 225 138.75 C 220.859375 138.75 217.5 143.785156 217.5 150 C 217.5 156.214844 220.859375 161.25 225 161.25 C 229.140625 161.25 232.5 156.214844 232.5 150 Z M 232.5 150 "/>
<path style=" stroke:none;fill-rule:nonzero;fill:rgb(100%,100%,100%);fill-opacity:1;" d="M 226.875 160.96875 C 226.875 160.96875 234.375 175.96875 234.375 200.34375 C 234.375 224.71875 226.875 239.71875 226.875 239.71875 Z M 226.875 160.96875 "/>
<path style=" stroke:none;fill-rule:nonzero;fill:rgb(100%,100%,100%);fill-opacity:1;" d="M 223.125 139.03125 C 223.125 139.03125 215.625 124.03125 215.625 99.65625 C 215.625 75.28125 223.125 60.28125 223.125 60.28125 Z M 223.125 139.03125 "/>
<path style=" stroke:none;fill-rule:nonzero;fill:rgb(100%,100%,100%);fill-opacity:1;" d="M 223.125 160.96875 C 223.125 160.96875 215.625 175.96875 215.625 200.34375 C 215.625 224.71875 223.125 239.71875 223.125 239.71875 Z M 223.125 160.96875 "/>
<path style=" stroke:none;fill-rule:nonzero;fill:rgb(100%,100%,100%);fill-opacity:1;" d="M 226.875 139.03125 C 226.875 139.03125 234.375 124.03125 234.375 99.65625 C 234.375 75.28125 226.875 60.28125 226.875 60.28125 Z M 226.875 139.03125 "/>
</g>
</svg>
