<?xml version="1.0" encoding="UTF-8"?>
<svg xmlns="http://www.w3.org/2000/svg" xmlns:xlink="http://www.w3.org/1999/xlink" width="px" height="px" viewBox="0 0 500 300" version="1.1">
<g id="surface1">
<rect x="0" y="0" width="500" height="300" style="fill:rgb(100%,0%,0%);fill-opacity:1;stroke:none;"/>
<path style=" stroke:none;fill-rule:nonzero;fill:rgb(100%,100%,0%);fill-opacity:1;" d="M 227.433594 129.636719 C 221.847656 126.164062 215.917969 123.285156 209.820312 120.914062 C 204.570312 128.703125 201.523438 138.019531 201.523438 148.09375 C 201.523438 153.089844 202.285156 157.917969 203.726562 162.488281 C 206.265625 156.648438 209.484375 150.972656 213.378906 145.554688 C 187.792969 184.101562 137.980469 198.332031 95.894531 179.121094 C 53.804688 159.90625 31.925781 112.953125 44.285156 68.367188 C 56.644531 23.78125 99.582031 -5.203125 145.554688 0 Z M 212.53125 117.359375 C 219.136719 119.644531 225.488281 122.609375 231.582031 126.078125 C 232.9375 124.894531 234.378906 123.878906 235.734375 122.863281 C 229.296875 119.304688 222.4375 116.425781 215.410156 114.226562 C 214.394531 115.242188 213.378906 116.257812 212.53125 117.359375 Z M 218.460938 111.347656 C 226.078125 113.378906 233.363281 116.171875 240.21875 119.8125 C 241.828125 118.796875 243.4375 117.867188 244.960938 116.933594 C 237.679688 113.210938 229.972656 110.5 222.015625 108.550781 C 192.039062 107.78125 168.363281 82.855469 169.136719 52.878906 C 169.90625 22.902344 194.832031 -0.773438 224.808594 0 Z M 225.65625 106.265625 C 234.039062 107.960938 242.167969 110.667969 249.789062 114.394531 C 257.492188 110.667969 265.621094 107.960938 273.921875 106.265625 C 266.890625 102.117188 258.59375 99.746094 249.789062 99.746094 C 240.984375 99.746094 232.769531 102.117188 225.65625 106.265625 Z M 277.5625 108.636719 C 316.839844 146.5 320.453125 208.183594 285.859375 250.371094 C 292.800781 246.730469 300.085938 243.9375 307.621094 241.90625 C 306.519531 240.886719 305.335938 239.957031 304.0625 239.195312 Z M 284.164062 114.308594 C 277.136719 116.425781 270.363281 119.304688 263.84375 122.863281 C 299.054688 161.792969 296.039062 221.898438 257.109375 257.109375 C 218.175781 292.320312 158.074219 289.304688 122.863281 250.371094 C 128.875 246.902344 135.222656 243.9375 141.828125 241.652344 C 140.980469 240.550781 140.050781 239.535156 138.949219 238.601562 Z M 289.753906 121 C 324.375 155.988281 328.054688 211.089844 298.390625 250.371094 C 303.554688 255.027344 308.214844 260.363281 312.449219 266.289062 C 355.980469 294.367188 371.691406 350.53125 349.042969 397.117188 C 326.398438 443.707031 272.527344 466.046875 223.558594 449.160156 C 174.585938 432.269531 145.9375 381.472656 156.828125 330.828125 C 167.714844 280.183594 214.707031 245.644531 266.289062 250.371094 C 267.644531 245.714844 268.40625 240.972656 268.40625 235.976562 C 268.40625 225.902344 265.359375 216.585938 260.109375 208.882812 Z M 285.605469 154.191406 C 280.523438 145.976562 274.429688 138.695312 267.65625 132.515625 C 266.128906 133.617188 264.523438 134.714844 263.082031 135.816406 C 274.511719 146.484375 283.742188 159.863281 289.585938 175.445312 C 290.941406 173.414062 292.210938 171.296875 293.226562 169.179688 C 291.109375 164.097656 288.570312 159.101562 285.605469 154.191406 Z M 258.761719 132.175781 C 260.289062 131.074219 261.8125 129.972656 263.421875 128.957031 C 262.066406 127.773438 260.625 126.671875 259.1875 125.570312 C 257.578125 126.585938 255.96875 127.601562 254.359375 128.703125 L 254.445312 128.703125 C 255.886719 129.804688 257.324219 130.992188 258.761719 132.175781 Z M 249.789062 125.402344 C 251.398438 124.386719 253.089844 123.371094 254.613281 122.4375 C 253.007812 121.421875 251.398438 120.40625 249.789062 119.476562 C 248.179688 120.40625 246.65625 121.421875 245.046875 122.4375 C 246.65625 123.371094 248.179688 124.386719 249.789062 125.402344 Z M 245.214844 128.703125 C 243.605469 127.601562 242.082031 126.585938 240.472656 125.570312 L 236.15625 128.875 C 237.765625 129.972656 239.289062 130.992188 240.8125 132.089844 C 277.371094 145.804688 300.242188 182.269531 296.671875 221.148438 C 293.101562 260.03125 263.972656 291.71875 225.53125 298.546875 C 187.085938 305.371094 148.828125 285.648438 132.089844 250.371094 Z M 249.789062 132.089844 C 248.347656 133.191406 246.910156 134.378906 245.386719 135.648438 C 246.910156 136.832031 248.347656 138.101562 249.789062 139.371094 C 251.226562 138.101562 252.667969 136.832031 254.191406 135.648438 C 252.75 134.460938 251.3125 133.191406 249.789062 132.089844 Z M 249.789062 147.925781 C 275.121094 175.546875 284.148438 214.414062 273.582031 250.371094 C 270.449219 256.300781 267.992188 262.480469 266.128906 268.660156 C 273.242188 272.640625 281.457031 275.011719 290.261719 275.011719 C 299.070312 275.011719 307.28125 272.640625 314.394531 268.660156 C 312.53125 262.480469 310.078125 256.300781 306.945312 250.371094 C 302.371094 241.480469 296.78125 233.523438 290.261719 226.578125 Z M 221.847656 180.015625 C 227.347656 165.960938 235.476562 153.683594 245.46875 143.523438 C 244.03125 142.167969 242.589844 140.898438 241.066406 139.542969 C 229.46875 150.804688 220.152344 164.777344 214.480469 180.949219 C 238.164062 176.988281 261.046875 191.4375 267.65625 214.523438 C 274.265625 237.605469 262.496094 261.976562 240.304688 271.152344 C 218.113281 280.328125 192.570312 271.386719 180.949219 250.371094 C 181.625 248.425781 182.386719 246.476562 183.148438 244.53125 Z M 254.105469 143.523438 C 264.097656 153.683594 272.226562 165.960938 277.816406 180.015625 C 278.578125 181.964844 279.253906 183.910156 279.933594 185.859375 C 281.796875 184.335938 283.574219 182.726562 285.183594 180.949219 C 279.425781 164.777344 270.109375 150.804688 258.507812 139.542969 C 256.984375 140.898438 255.546875 142.167969 254.105469 143.523438 Z M 209.992188 175.445312 C 215.835938 159.863281 225.0625 146.570312 236.578125 135.902344 C 261.695312 170.363281 260.300781 217.457031 233.191406 250.371094 C 226.417969 256.636719 220.320312 263.917969 215.242188 272.132812 C 219.296875 264.296875 224.300781 256.988281 230.144531 250.371094 C 231.160156 252.574219 232.429688 254.605469 233.785156 256.636719 Z M 250.042969 95.851562 C 279.847656 95.851562 304.148438 120.152344 304.148438 149.957031 C 304.148438 179.761719 279.847656 204.066406 250.042969 204.066406 C 220.238281 204.066406 195.933594 179.761719 195.933594 149.957031 C 195.933594 120.152344 220.238281 95.851562 250.042969 95.851562 Z M 273.921875 83.996094 C 272.398438 85.773438 270.703125 88.0625 269.007812 91.703125 C 268.585938 90.769531 268.585938 89.671875 268.839844 88.484375 C 269.261719 84.589844 270.363281 82.21875 272.398438 78.914062 C 273.074219 77.730469 273.75 76.714844 274.089844 75.445312 C 275.359375 71.632812 275.105469 66.554688 272.3125 62.574219 C 272.734375 67.0625 271.378906 70.789062 269.855469 73.074219 C 269.601562 73.496094 269.347656 73.75 269.007812 74.089844 C 267.402344 75.699219 265.621094 77.308594 263.335938 81.03125 C 262.066406 83.066406 260.796875 85.519531 259.609375 89.414062 C 259.101562 88.570312 258.933594 87.554688 259.019531 86.367188 C 258.847656 82.386719 259.527344 79.933594 260.964844 76.292969 C 261.472656 75.023438 261.980469 73.921875 262.152344 72.566406 C 262.742188 68.671875 261.726562 63.675781 258.339844 60.203125 C 259.441406 64.523438 258.761719 68.417969 257.578125 70.957031 C 257.324219 71.378906 257.15625 71.71875 256.902344 72.058594 C 255.546875 73.921875 254.105469 75.78125 252.328125 79.761719 C 251.480469 82.050781 250.550781 84.675781 250.042969 88.652344 C 249.363281 87.890625 249.027344 86.875 248.941406 85.691406 C 248.179688 81.796875 248.433594 79.253906 249.28125 75.445312 C 249.617188 74.175781 249.957031 72.988281 249.871094 71.632812 C 249.871094 67.65625 248.09375 62.914062 244.199219 59.949219 C 245.976562 64.097656 245.894531 68.078125 245.132812 70.789062 C 244.960938 71.125 244.792969 71.550781 244.621094 71.886719 C 243.605469 74.003906 242.421875 76.039062 241.320312 80.269531 C 240.8125 82.640625 240.304688 85.4375 240.390625 89.414062 C 239.710938 88.738281 239.203125 87.808594 238.867188 86.707031 C 237.511719 82.894531 237.339844 80.441406 237.679688 76.460938 C 237.765625 75.105469 237.847656 73.921875 237.679688 72.652344 C 237.003906 68.671875 234.460938 64.265625 230.226562 61.980469 C 232.597656 65.792969 233.109375 69.773438 232.769531 72.480469 L 232.515625 73.75 C 231.835938 75.953125 230.992188 78.152344 230.566406 82.558594 C 230.398438 84.929688 230.3125 87.722656 231.074219 91.703125 C 230.226562 91.109375 229.636719 90.261719 229.128906 89.246094 C 227.179688 85.691406 226.671875 83.234375 226.332031 79.339844 C 226.25 77.984375 226.164062 76.800781 225.65625 75.53125 C 224.472656 71.71875 221.253906 67.738281 216.679688 66.214844 C 219.644531 69.515625 220.828125 73.328125 220.828125 76.121094 C 220.828125 76.546875 220.828125 76.96875 220.746094 77.390625 C 220.40625 79.679688 219.984375 82.050781 220.238281 86.367188 C 220.492188 88.738281 220.828125 91.53125 222.183594 95.34375 C 221.253906 94.917969 220.492188 94.15625 219.8125 93.226562 C 217.359375 90.09375 216.511719 87.722656 215.578125 83.910156 C 215.242188 82.558594 214.988281 81.457031 214.308594 80.1875 C 212.53125 76.714844 208.722656 73.242188 203.980469 72.398438 C 207.367188 75.273438 209.144531 78.917969 209.652344 81.625 C 209.738281 82.050781 209.738281 82.472656 209.738281 82.894531 C 209.824219 85.183594 209.738281 87.554688 210.667969 91.871094 C 211.261719 94.15625 212.023438 96.867188 213.972656 100.339844 C 213.039062 100.085938 212.191406 99.492188 211.347656 98.644531 C 208.382812 95.933594 207.113281 93.734375 205.671875 90.09375 C 205.164062 88.824219 204.65625 87.722656 203.894531 86.621094 C 201.523438 83.488281 197.289062 80.695312 192.378906 80.609375 C 196.273438 82.894531 198.558594 86.113281 199.492188 88.738281 L 199.746094 90.007812 C 200.167969 92.292969 200.421875 94.664062 202.03125 98.730469 C 202.964844 100.929688 204.234375 103.472656 206.6875 106.605469 C 205.671875 106.519531 204.742188 106.011719 203.808594 105.335938 C 200.507812 103.132812 198.898438 101.101562 196.78125 97.796875 C 196.105469 96.613281 195.511719 95.597656 194.496094 94.664062 C 191.703125 91.871094 187.046875 89.753906 182.21875 90.433594 C 186.367188 92.125 189.160156 95.003906 190.515625 97.460938 C 190.6875 97.796875 190.855469 98.222656 191.023438 98.644531 C 191.785156 100.761719 192.378906 103.046875 194.582031 106.859375 C 195.851562 108.890625 197.460938 111.175781 200.421875 113.972656 C 199.40625 113.972656 198.390625 113.632812 197.375 113.125 C 193.734375 111.429688 191.871094 109.738281 189.332031 106.773438 C 188.398438 105.757812 187.636719 104.828125 186.535156 103.980469 C 183.320312 101.695312 178.40625 100.339844 173.75 101.777344 C 178.152344 102.792969 181.371094 105.164062 182.980469 107.367188 C 183.320312 107.707031 183.488281 108.042969 183.65625 108.46875 C 184.757812 110.5 185.773438 112.699219 188.570312 116.003906 C 190.09375 117.867188 192.039062 119.898438 195.34375 122.183594 C 194.410156 122.355469 193.394531 122.183594 192.210938 121.761719 C 188.398438 120.746094 186.28125 119.304688 183.320312 116.765625 C 182.304688 115.917969 181.371094 115.15625 180.1875 114.480469 C 176.628906 112.699219 171.550781 112.191406 167.148438 114.308594 C 171.632812 114.5625 175.191406 116.511719 177.222656 118.375 C 177.476562 118.714844 177.730469 118.96875 177.984375 119.390625 C 179.425781 121.167969 180.695312 123.199219 183.996094 126.078125 C 185.773438 127.601562 188.0625 129.296875 191.703125 131.074219 C 190.769531 131.414062 189.671875 131.414062 188.570312 131.160156 C 184.589844 130.738281 182.304688 129.636719 178.914062 127.601562 C 177.730469 126.925781 176.714844 126.25 175.445312 125.910156 C 171.632812 124.640625 166.636719 124.894531 162.660156 127.6875 C 167.0625 127.265625 170.871094 128.621094 173.160156 130.144531 C 173.496094 130.398438 173.835938 130.652344 174.089844 130.992188 C 175.78125 132.597656 177.390625 134.378906 181.03125 136.664062 C 183.066406 137.933594 185.605469 139.289062 189.414062 140.390625 C 188.570312 140.898438 187.554688 141.066406 186.367188 141.066406 C 182.386719 141.152344 179.933594 140.472656 176.292969 139.035156 C 175.023438 138.527344 173.921875 138.019531 172.566406 137.847656 C 168.671875 137.257812 163.675781 138.273438 160.203125 141.660156 C 164.523438 140.558594 168.5 141.234375 170.957031 142.421875 C 171.378906 142.675781 171.71875 142.84375 172.058594 143.097656 C 173.921875 144.453125 175.78125 145.894531 179.847656 147.671875 C 182.050781 148.519531 184.675781 149.449219 188.652344 149.957031 C 187.890625 150.636719 186.875 150.972656 185.773438 151.058594 C 181.796875 151.90625 179.339844 151.566406 175.445312 150.71875 C 174.175781 150.382812 172.988281 150.128906 171.632812 150.128906 C 167.65625 150.128906 162.914062 151.90625 160.035156 155.800781 C 164.097656 154.023438 168.078125 154.105469 170.789062 154.867188 C 171.210938 155.039062 171.550781 155.207031 171.972656 155.378906 C 174.003906 156.394531 176.121094 157.578125 180.355469 158.679688 C 182.640625 159.1875 185.4375 159.695312 189.414062 159.609375 C 188.738281 160.289062 187.808594 160.796875 186.707031 161.132812 C 182.980469 162.488281 180.441406 162.660156 176.546875 162.320312 C 175.191406 162.234375 174.003906 162.152344 172.652344 162.320312 C 168.753906 162.996094 164.351562 165.539062 162.066406 169.855469 C 165.792969 167.402344 169.769531 166.890625 172.566406 167.230469 C 172.988281 167.316406 173.328125 167.402344 173.75 167.484375 C 175.953125 168.246094 178.152344 169.007812 182.558594 169.433594 C 184.929688 169.601562 187.722656 169.6875 191.703125 168.925781 C 191.109375 169.773438 190.261719 170.363281 189.246094 170.871094 C 185.773438 172.820312 183.234375 173.328125 179.339844 173.667969 C 177.984375 173.835938 176.800781 173.921875 175.53125 174.34375 C 171.71875 175.527344 167.824219 178.746094 166.214844 183.320312 C 169.601562 180.355469 173.414062 179.253906 176.207031 179.171875 C 176.628906 179.171875 177.054688 179.171875 177.476562 179.253906 C 179.679688 179.59375 182.050781 180.015625 186.453125 179.761719 C 188.824219 179.59375 191.617188 179.171875 195.34375 177.816406 C 195.003906 178.746094 194.242188 179.507812 193.226562 180.1875 C 190.09375 182.640625 187.722656 183.488281 183.910156 184.421875 C 182.640625 184.757812 181.457031 185.011719 180.269531 185.691406 C 176.714844 187.46875 173.328125 191.277344 172.480469 196.019531 C 175.273438 192.632812 178.914062 190.855469 181.625 190.347656 C 182.050781 190.261719 182.472656 190.261719 182.894531 190.261719 C 185.183594 190.175781 187.636719 190.261719 191.871094 189.332031 C 194.15625 188.738281 196.867188 187.976562 200.421875 186.027344 C 200.167969 186.960938 199.492188 187.890625 198.644531 188.652344 C 195.933594 191.617188 193.734375 192.886719 190.09375 194.328125 C 188.90625 194.917969 187.808594 195.34375 186.707031 196.105469 C 183.488281 198.476562 180.695312 202.710938 180.609375 207.621094 C 182.894531 203.726562 186.199219 201.441406 188.824219 200.507812 C 189.246094 200.421875 189.585938 200.339844 190.007812 200.253906 C 192.292969 199.832031 194.664062 199.578125 198.730469 197.96875 C 200.929688 197.035156 203.472656 195.765625 206.6875 193.394531 C 206.519531 194.328125 206.097656 195.257812 205.335938 196.191406 C 203.132812 199.492188 201.183594 201.101562 197.796875 203.21875 C 196.699219 203.894531 195.679688 204.488281 194.664062 205.503906 C 191.871094 208.296875 189.839844 212.953125 190.515625 217.78125 C 192.125 213.632812 195.003906 210.839844 197.460938 209.484375 C 197.882812 209.3125 198.222656 209.144531 198.644531 208.976562 C 200.847656 208.296875 203.132812 207.621094 206.859375 205.417969 C 208.890625 204.148438 211.175781 202.539062 213.972656 199.578125 C 214.054688 200.59375 213.71875 201.609375 213.125 202.625 C 211.429688 206.265625 209.738281 208.128906 206.773438 210.667969 C 205.757812 211.601562 204.828125 212.363281 204.0625 213.464844 C 201.777344 216.679688 200.421875 221.59375 201.863281 226.25 C 202.792969 221.847656 205.164062 218.628906 207.453125 217.019531 C 207.789062 216.765625 208.128906 216.511719 208.46875 216.34375 C 210.5 215.242188 212.699219 214.226562 216.089844 211.429688 C 217.867188 209.90625 219.898438 207.960938 222.183594 204.65625 C 222.355469 205.589844 222.183594 206.6875 221.847656 207.789062 C 220.746094 211.601562 219.390625 213.71875 216.765625 216.679688 C 215.917969 217.695312 215.15625 218.628906 214.5625 219.898438 C 212.785156 223.453125 212.191406 228.449219 214.308594 232.851562 C 214.648438 228.367188 216.511719 224.808594 218.460938 222.863281 C 218.714844 222.523438 219.050781 222.269531 219.390625 222.015625 C 221.253906 220.574219 223.199219 219.304688 226.078125 216.003906 C 227.601562 214.226562 229.296875 211.9375 231.074219 208.296875 C 231.414062 209.230469 231.414062 210.328125 231.246094 211.429688 C 230.738281 215.410156 229.71875 217.695312 227.6875 221.085938 C 226.925781 222.269531 226.332031 223.285156 225.910156 224.554688 C 224.726562 228.367188 224.980469 233.445312 227.773438 237.425781 C 227.347656 232.9375 228.621094 229.128906 230.226562 226.839844 C 230.484375 226.503906 230.738281 226.164062 230.992188 225.910156 C 232.597656 224.21875 234.378906 222.609375 236.75 218.96875 C 237.933594 216.933594 239.289062 214.394531 240.390625 210.585938 C 240.898438 211.429688 241.066406 212.445312 241.066406 213.632812 C 241.234375 217.613281 240.558594 220.066406 239.035156 223.707031 C 238.527344 224.976562 238.101562 226.078125 237.847656 227.433594 C 237.257812 231.328125 238.273438 236.324219 241.660156 239.796875 C 240.558594 235.476562 241.234375 231.5 242.507812 229.042969 C 242.675781 228.621094 242.84375 228.28125 243.097656 227.941406 C 244.453125 226.078125 245.976562 224.21875 247.671875 220.152344 C 248.601562 217.949219 249.535156 215.324219 250.042969 211.347656 C 250.636719 212.109375 250.972656 213.125 251.144531 214.226562 C 251.90625 218.203125 251.652344 220.660156 250.71875 224.554688 C 250.382812 225.824219 250.128906 227.011719 250.128906 228.367188 C 250.128906 232.34375 251.988281 237.085938 255.886719 239.964844 C 254.105469 235.902344 254.105469 231.921875 254.953125 229.210938 C 255.039062 228.789062 255.207031 228.449219 255.378906 228.027344 C 256.394531 225.996094 257.578125 223.878906 258.679688 219.644531 C 259.1875 217.359375 259.695312 214.5625 259.609375 210.585938 C 260.371094 211.261719 260.796875 212.191406 261.132812 213.292969 C 262.574219 217.019531 262.660156 219.558594 262.40625 223.539062 C 262.234375 224.808594 262.152344 225.996094 262.40625 227.347656 C 262.996094 231.328125 265.539062 235.734375 269.855469 238.019531 C 267.484375 234.207031 266.890625 230.226562 267.316406 227.519531 C 267.316406 227.09375 267.402344 226.671875 267.570312 226.25 C 268.246094 224.046875 269.09375 221.847656 269.515625 217.441406 C 269.601562 215.070312 269.6875 212.277344 269.007812 208.296875 C 269.773438 208.890625 270.449219 209.738281 270.957031 210.753906 C 272.90625 214.226562 273.410156 216.765625 273.75 220.660156 C 273.835938 222.015625 273.921875 223.199219 274.34375 224.46875 C 275.613281 228.28125 278.746094 232.175781 283.402344 233.785156 C 280.441406 230.398438 279.253906 226.585938 279.171875 223.792969 C 279.171875 223.371094 279.171875 222.945312 279.253906 222.523438 C 279.59375 220.320312 280.101562 217.949219 279.761719 213.546875 C 279.59375 211.175781 279.171875 208.382812 277.898438 204.65625 C 278.746094 205.082031 279.507812 205.757812 280.1875 206.773438 C 282.640625 209.90625 283.574219 212.277344 284.503906 216.089844 C 284.757812 217.359375 285.097656 218.542969 285.691406 219.730469 C 287.554688 223.285156 291.277344 226.671875 296.105469 227.519531 C 292.632812 224.726562 290.855469 221.085938 290.347656 218.375 C 290.261719 217.949219 290.261719 217.527344 290.261719 217.105469 C 290.261719 214.816406 290.347656 212.445312 289.414062 208.128906 C 288.824219 205.84375 287.976562 203.132812 286.027344 199.578125 C 287.046875 199.832031 287.890625 200.507812 288.652344 201.355469 C 291.617188 204.066406 292.886719 206.265625 294.410156 209.90625 C 294.917969 211.09375 295.34375 212.191406 296.191406 213.292969 C 298.558594 216.511719 302.792969 219.304688 307.621094 219.390625 C 303.808594 217.105469 301.523438 213.800781 300.59375 211.175781 C 300.421875 210.753906 300.339844 210.414062 300.253906 209.992188 C 299.914062 207.707031 299.578125 205.335938 297.96875 201.269531 C 297.035156 199.070312 295.851562 196.527344 293.394531 193.394531 C 294.410156 193.480469 295.34375 193.902344 296.273438 194.664062 C 299.578125 196.867188 301.183594 198.816406 303.21875 202.203125 C 303.894531 203.300781 304.574219 204.402344 305.503906 205.335938 C 308.296875 208.128906 312.953125 210.160156 317.78125 209.484375 C 313.632812 207.875 310.839844 204.996094 309.566406 202.539062 C 309.3125 202.117188 309.144531 201.777344 309.058594 201.355469 C 308.296875 199.152344 307.621094 196.867188 305.417969 193.140625 C 304.148438 191.109375 302.539062 188.824219 299.660156 186.027344 C 300.59375 186.027344 301.609375 186.28125 302.710938 186.875 C 306.265625 188.570312 308.214844 190.261719 310.753906 193.226562 C 311.601562 194.242188 312.363281 195.171875 313.464844 195.9375 C 316.679688 198.304688 321.59375 199.578125 326.25 198.222656 C 321.929688 197.207031 318.714844 194.835938 317.019531 192.546875 C 316.765625 192.210938 316.511719 191.871094 316.34375 191.53125 C 315.242188 189.5 314.308594 187.300781 311.515625 183.910156 C 309.90625 182.132812 307.960938 180.101562 304.65625 177.816406 C 305.671875 177.644531 306.6875 177.816406 307.789062 178.152344 C 311.601562 179.253906 313.71875 180.695312 316.765625 183.234375 C 317.78125 184.082031 318.714844 184.84375 319.898438 185.4375 C 323.453125 187.214844 328.449219 187.808594 332.851562 185.691406 C 328.367188 185.351562 324.894531 183.488281 322.863281 181.539062 C 322.523438 181.285156 322.269531 180.949219 322.015625 180.609375 C 320.660156 178.746094 319.304688 176.800781 316.089844 173.921875 C 314.226562 172.398438 311.9375 170.703125 308.382812 168.925781 C 309.3125 168.585938 310.328125 168.585938 311.515625 168.753906 C 315.410156 169.261719 317.78125 170.28125 321.085938 172.398438 C 322.269531 173.074219 323.285156 173.667969 324.554688 174.089844 C 328.367188 175.273438 333.445312 175.019531 337.425781 172.226562 C 332.9375 172.652344 329.210938 171.378906 326.925781 169.773438 L 325.910156 169.007812 C 324.300781 167.402344 322.691406 165.621094 318.96875 163.25 C 316.933594 162.066406 314.480469 160.710938 310.585938 159.609375 C 311.429688 159.101562 312.53125 158.933594 313.632812 158.933594 C 317.695312 158.765625 320.152344 159.441406 323.707031 160.964844 C 324.976562 161.472656 326.078125 161.898438 327.433594 162.152344 C 331.328125 162.742188 336.324219 161.726562 339.796875 158.339844 C 335.476562 159.441406 331.582031 158.765625 329.042969 157.492188 C 328.703125 157.324219 328.28125 157.15625 327.941406 156.902344 C 326.078125 155.546875 324.21875 154.105469 320.238281 152.328125 C 318.035156 151.480469 315.324219 150.550781 311.347656 149.957031 C 312.109375 149.363281 313.125 149.027344 314.308594 148.855469 C 318.203125 148.09375 320.746094 148.347656 324.554688 149.28125 C 325.824219 149.617188 327.011719 149.871094 328.367188 149.871094 C 332.34375 149.871094 337.085938 148.011719 340.050781 144.199219 C 335.902344 145.894531 331.921875 145.894531 329.296875 145.046875 C 328.875 144.960938 328.449219 144.792969 328.113281 144.621094 C 325.996094 143.605469 323.960938 142.421875 319.730469 141.320312 C 317.359375 140.8125 314.648438 140.304688 310.585938 140.390625 C 311.261719 139.628906 312.191406 139.203125 313.292969 138.867188 C 317.105469 137.425781 319.644531 137.339844 323.539062 137.59375 C 324.894531 137.765625 326.078125 137.847656 327.433594 137.59375 C 331.328125 137.003906 335.734375 134.460938 338.019531 130.144531 C 334.207031 132.515625 330.3125 133.109375 327.519531 132.769531 C 327.09375 132.683594 326.671875 132.597656 326.25 132.429688 C 324.046875 131.753906 321.847656 130.90625 317.527344 130.484375 C 315.15625 130.398438 312.277344 130.3125 308.382812 131.074219 C 308.890625 130.226562 309.738281 129.550781 310.839844 129.042969 C 314.308594 127.09375 316.765625 126.589844 320.660156 126.25 C 322.015625 126.164062 323.199219 126.078125 324.46875 125.65625 C 328.28125 124.386719 332.261719 121.253906 333.785156 116.597656 C 330.484375 119.558594 326.671875 120.746094 323.878906 120.828125 C 323.453125 120.828125 323.03125 120.828125 322.609375 120.746094 C 320.320312 120.40625 317.949219 119.898438 313.632812 120.238281 C 311.261719 120.40625 308.46875 120.828125 304.65625 122.183594 C 305.082031 121.253906 305.84375 120.492188 306.773438 119.8125 C 309.90625 117.359375 312.277344 116.425781 316.089844 115.496094 C 317.441406 115.242188 318.542969 114.902344 319.8125 114.308594 C 323.285156 112.445312 326.757812 108.722656 327.601562 103.894531 C 324.726562 107.367188 321.167969 109.144531 318.375 109.652344 C 317.949219 109.738281 317.527344 109.738281 317.105469 109.738281 C 314.816406 109.738281 312.445312 109.652344 308.214844 110.585938 C 305.84375 111.175781 303.132812 112.023438 299.660156 113.972656 C 299.914062 112.953125 300.507812 112.109375 301.355469 111.347656 C 304.066406 108.382812 306.265625 107.113281 309.90625 105.589844 C 311.175781 105.082031 312.277344 104.65625 313.378906 103.808594 C 316.511719 101.441406 319.304688 97.207031 319.390625 92.378906 C 317.105469 96.191406 313.886719 98.476562 311.261719 99.40625 C 310.839844 99.578125 310.414062 99.660156 309.992188 99.746094 C 307.707031 100.167969 305.335938 100.421875 301.269531 102.03125 C 299.152344 102.964844 296.613281 104.148438 293.394531 106.605469 C 293.480469 105.671875 293.988281 104.65625 294.664062 103.726562 C 296.867188 100.421875 298.898438 98.816406 302.203125 96.78125 C 303.386719 96.105469 304.402344 95.425781 305.335938 94.496094 C 308.128906 91.703125 310.246094 87.046875 309.566406 82.21875 C 307.875 86.367188 304.996094 89.160156 302.539062 90.515625 C 302.203125 90.6875 301.777344 90.855469 301.441406 90.941406 C 299.238281 91.703125 296.953125 92.378906 293.140625 94.582031 C 291.109375 95.851562 288.824219 97.460938 286.027344 100.339844 C 286.027344 99.40625 286.367188 98.390625 286.875 97.375 C 288.570312 93.734375 290.261719 91.871094 293.226562 89.246094 C 294.242188 88.398438 295.171875 87.636719 296.019531 86.535156 C 298.304688 83.320312 299.660156 78.40625 298.222656 73.75 C 297.207031 78.070312 294.835938 81.285156 292.632812 82.980469 C 292.292969 83.234375 291.957031 83.488281 291.53125 83.65625 C 289.5 84.757812 287.300781 85.691406 283.996094 88.484375 C 282.132812 90.09375 280.101562 92.039062 277.898438 95.34375 C 277.644531 94.410156 277.816406 93.3125 278.238281 92.210938 C 279.339844 88.398438 280.695312 86.28125 283.234375 83.234375 C 284.082031 82.21875 284.929688 81.371094 285.519531 80.101562 C 287.300781 76.546875 287.808594 71.550781 285.691406 67.148438 C 285.4375 71.632812 283.574219 75.105469 281.625 77.136719 C 281.285156 77.476562 281.03125 77.730469 280.695312 77.984375 C 278.832031 79.339844 276.800781 80.695312 273.921875 83.996094 Z M 273.921875 83.996094 "/>
</g>
</svg>
