<?xml version="1.0" encoding="UTF-8"?>
<svg xmlns="http://www.w3.org/2000/svg" xmlns:xlink="http://www.w3.org/1999/xlink" width="px" height="px" viewBox="0 0 312 200" version="1.1">
<g id="surface1">
<rect x="0" y="0" width="312" height="200" style="fill:rgb(1.176471%,18.039216%,63.137255%);fill-opacity:1;stroke:none;"/>
<path style=" stroke:none;fill-rule:nonzero;fill:rgb(87.843137%,0%,14.509804%);fill-opacity:1;" d="M 0 50 L 312 50 L 312 150 L 0 150 Z M 0 50 "/>
<path style="fill-rule:nonzero;fill:rgb(100%,100%,100%);fill-opacity:1;stroke-width:0.96;stroke-linecap:butt;stroke-linejoin:bevel;stroke:rgb(0%,0%,0%);stroke-opacity:1;stroke-miterlimit:4;" d="M 139.016856 623.457437 L 252.816122 623.457437 L 252.816122 667.2465 L 139.016856 667.2465 Z M 139.016856 623.457437 " transform="matrix(0.4992,0,0,0.5,58.477786,-217.467)"/>
<path style="fill-rule:nonzero;fill:rgb(100%,100%,100%);fill-opacity:1;stroke-width:0.96;stroke-linecap:butt;stroke-linejoin:bevel;stroke:rgb(0%,0%,0%);stroke-opacity:1;stroke-miterlimit:4;" d="M 246.947357 647.637125 L 250.539041 647.637125 L 250.539041 664.137125 L 246.947357 664.137125 Z M 139.016856 639.488687 L 252.816122 639.488687 L 252.816122 644.582437 L 139.016856 644.582437 Z M 139.016856 632.59025 L 252.816122 632.59025 L 252.816122 637.082437 L 139.016856 637.082437 Z M 139.016856 632.59025 " transform="matrix(0.4992,0,0,0.5,58.477786,-217.467)"/>
<path style="fill-rule:nonzero;fill:rgb(100%,100%,100%);fill-opacity:1;stroke-width:0.945;stroke-linecap:butt;stroke-linejoin:bevel;stroke:rgb(0%,0%,0%);stroke-opacity:1;stroke-miterlimit:4;" d="M 139.016856 625.699625 L 252.816122 625.699625 L 252.816122 630.051187 L 139.016856 630.051187 Z M 139.016856 625.699625 " transform="matrix(0.4992,0,0,0.5,58.477786,-217.467)"/>
<path style="fill-rule:nonzero;fill:rgb(100%,100%,100%);fill-opacity:1;stroke-width:0.96;stroke-linecap:butt;stroke-linejoin:bevel;stroke:rgb(0%,0%,0%);stroke-opacity:1;stroke-miterlimit:4;" d="M 168.978857 647.637125 L 172.562717 647.637125 L 172.562717 664.137125 L 168.978857 664.137125 Z M 217.971308 647.637125 L 221.555167 647.637125 L 221.555167 664.137125 L 217.971308 664.137125 Z M 139.916733 647.637125 L 143.508417 647.637125 L 143.508417 664.137125 L 139.916733 664.137125 Z M 146.951426 647.637125 L 150.535285 647.637125 L 150.535285 664.137125 L 146.951426 664.137125 Z M 154.447795 647.637125 L 158.039479 647.637125 L 158.039479 664.137125 L 154.447795 664.137125 Z M 161.951989 647.637125 L 165.535849 647.637125 L 165.535849 664.137125 L 161.951989 664.137125 Z M 224.77125 647.637125 L 228.355109 647.637125 L 228.355109 664.137125 L 224.77125 664.137125 Z M 232.267619 647.637125 L 235.859304 647.637125 L 235.859304 664.137125 L 232.267619 664.137125 Z M 239.771814 647.637125 L 243.355673 647.637125 L 243.355673 664.137125 L 239.771814 664.137125 Z M 239.771814 647.637125 " transform="matrix(0.4992,0,0,0.5,58.477786,-217.467)"/>
<path style="fill-rule:nonzero;fill:rgb(100%,100%,100%);fill-opacity:1;stroke-width:0.96;stroke-linecap:butt;stroke-linejoin:miter;stroke:rgb(0%,0%,0%);stroke-opacity:1;stroke-miterlimit:4;" d="M 94.508142 669.551187 C 96.268771 668.65275 98.279801 666.566812 98.937103 664.230875 L 292.003822 664.230875 C 292.661124 666.566812 294.672154 668.65275 296.432784 669.551187 Z M 94.508142 669.551187 " transform="matrix(0.4992,0,0,0.5,58.477786,-217.467)"/>
<path style="fill-rule:nonzero;fill:rgb(100%,100%,100%);fill-opacity:1;stroke-width:0.96;stroke-linecap:butt;stroke-linejoin:miter;stroke:rgb(0%,0%,0%);stroke-opacity:1;stroke-miterlimit:4;" d="M 193.001669 556.801187 C 193.001669 556.801187 192.852994 552.691812 195.24745 552.644937 C 197.649731 552.684 197.501055 556.801187 197.501055 556.801187 Z M 180.512937 611.34025 L 180.512937 605.801187 C 180.426862 603.035562 177.750705 602.832437 177.672455 600.816812 C 177.672455 600.816812 177.328154 597.793375 178.126306 596.410562 C 179.206159 600.457437 181.178064 599.71525 181.178064 598.051187 C 181.178064 596.598062 180.066911 595.2465 177.77418 591.723062 C 177.038628 590.59025 177.492479 587.059 178.517557 585.793375 C 178.916633 588.863687 179.370484 590.34025 180.692912 590.34025 C 181.491065 590.34025 182.148366 589.816812 182.148366 588.27775 C 182.148366 586.316812 180.825938 585.332437 180.176461 583.551187 C 179.417434 581.473062 179.941711 579.355875 181.201539 578.168375 C 181.741465 581.199625 181.57714 582.410562 182.930868 582.410562 C 185.638325 581.551187 182.930868 577.6215 182.343992 576.629312 C 181.678865 575.473062 183.243869 573.168375 183.243869 573.168375 C 184.104621 575.863687 184.386322 576.082437 185.317499 575.832437 C 186.491252 575.512125 186.334752 573.77775 184.902773 572.363687 C 184.002896 571.480875 184.096796 570.15275 185.067099 569.09025 C 186.045226 570.9965 187.289404 570.879312 187.40678 569.754312 L 186.624278 565.355875 L 203.878447 565.355875 L 203.02552 569.605875 C 202.782944 570.824625 204.418373 571.09025 205.443451 569.09025 C 206.413753 570.15275 206.507654 571.480875 205.607776 572.3715 C 204.175798 573.77775 204.019297 575.512125 205.19305 575.832437 C 206.124228 576.082437 206.398103 575.863687 207.26668 573.168375 C 207.26668 573.168375 208.667359 574.738687 208.158733 576.629312 C 207.579681 577.6215 204.864399 581.551187 207.579681 582.410562 C 208.925585 582.410562 208.769084 581.199625 209.309011 578.168375 C 210.568839 579.355875 211.093115 581.473062 210.334088 583.551187 C 209.684612 585.332437 208.354358 586.316812 208.354358 588.27775 C 208.354358 589.816812 209.01166 590.34025 209.817637 590.34025 C 211.140065 590.34025 211.593917 588.8715 211.992993 585.801187 C 213.01807 587.059 213.464096 590.59025 212.736369 591.723062 C 210.443639 595.2465 209.324661 596.598062 209.324661 598.051187 C 209.324661 599.71525 211.296566 600.457437 212.384244 596.410562 C 213.182396 597.793375 212.83027 600.816812 212.83027 600.816812 C 212.759845 602.832437 210.075863 603.035562 209.997612 605.801187 L 209.997612 611.34025 Z M 187.727605 565.316812 L 187.336354 562.191812 L 203.174195 562.191812 L 202.775119 565.316812 Z M 188.791808 562.129312 L 188.447507 559.559 L 202.055217 559.559 L 201.710916 562.129312 Z M 190.951514 559.473062 L 190.724588 556.90275 L 199.778136 556.90275 L 199.551211 559.473062 Z M 223.973098 669.551187 C 221.946418 668.769937 218.996386 666.629312 218.996386 664.480875 L 218.996386 640.184 L 221.633417 636.824625 L 168.853657 636.824625 L 171.388964 640.184 L 171.388964 664.480875 C 171.388964 666.629312 169.362283 668.769937 167.335603 669.551187 Z M 223.973098 669.551187 " transform="matrix(0.4992,0,0,0.5,58.477786,-217.467)"/>
<path style="fill-rule:nonzero;fill:rgb(100%,100%,100%);fill-opacity:1;stroke-width:0.96;stroke-linecap:butt;stroke-linejoin:bevel;stroke:rgb(0%,0%,0%);stroke-opacity:1;stroke-miterlimit:4;" d="M 178.243681 647.637125 L 181.82754 647.637125 L 181.82754 664.137125 L 178.243681 664.137125 Z M 208.557809 647.637125 L 212.149493 647.637125 L 212.149493 664.137125 L 208.557809 664.137125 Z M 208.557809 647.637125 " transform="matrix(0.4992,0,0,0.5,58.477786,-217.467)"/>
<path style="fill-rule:nonzero;fill:rgb(100%,100%,100%);fill-opacity:1;stroke-width:0.96;stroke-linecap:butt;stroke-linejoin:miter;stroke:rgb(0%,0%,0%);stroke-opacity:1;stroke-miterlimit:4;" d="M 167.90683 609.168375 L 167.90683 636.824625 L 221.930768 636.824625 L 221.930768 630.8715 L 222.009018 609.168375 C 219.802363 610.035562 219.411112 612.035562 219.411112 612.035562 L 219.411112 623.816812 L 170.661237 623.816812 L 170.661237 612.043375 C 170.661237 612.043375 170.12131 610.035562 167.914655 609.168375 Z M 167.90683 609.168375 " transform="matrix(0.4992,0,0,0.5,58.477786,-217.467)"/>
<path style="fill-rule:nonzero;fill:rgb(100%,100%,100%);fill-opacity:1;stroke-width:0.96;stroke-linecap:butt;stroke-linejoin:miter;stroke:rgb(0%,0%,0%);stroke-opacity:1;stroke-miterlimit:4;" d="M 214.598724 669.551187 C 212.83027 668.769937 208.988185 666.629312 208.988185 664.480875 L 208.988185 637.293375 C 209.363786 635.769937 211.421766 634.879312 212.744195 633.934 L 176.929078 633.934 C 178.627107 634.832437 180.528587 635.582437 181.209364 637.293375 L 181.209364 664.480875 C 181.209364 666.629312 178.173256 668.769937 176.404801 669.551187 Z M 214.598724 669.551187 " transform="matrix(0.4992,0,0,0.5,58.477786,-217.467)"/>
<path style="fill-rule:nonzero;fill:rgb(100%,100%,100%);fill-opacity:1;stroke-width:0.96;stroke-linecap:butt;stroke-linejoin:miter;stroke:rgb(0%,0%,0%);stroke-opacity:1;stroke-miterlimit:4;" d="M 219.411112 634.223062 L 219.411112 614.629312 L 214.496999 614.629312 L 214.496999 612.723062 L 175.661425 612.723062 L 175.661425 614.629312 L 170.747312 614.629312 L 170.747312 634.223062 Z M 206.859779 669.551187 C 205.13045 668.769937 202.610794 666.629312 202.610794 664.480875 L 202.610794 641.262125 L 204.034947 639.15275 L 186.342577 639.15275 L 187.758906 641.262125 L 187.758906 664.480875 C 187.758906 666.629312 185.239249 668.769937 183.50992 669.551187 Z M 206.859779 669.551187 " transform="matrix(0.4992,0,0,0.5,58.477786,-217.467)"/>
<path style="fill-rule:nonzero;fill:rgb(100%,100%,100%);fill-opacity:1;stroke-width:0.981;stroke-linecap:butt;stroke-linejoin:miter;stroke:rgb(0%,0%,0%);stroke-opacity:1;stroke-miterlimit:4;" d="M 190.708938 639.160562 L 199.676411 639.160562 L 199.676411 669.535562 L 190.708938 669.535562 Z M 190.708938 639.160562 " transform="matrix(0.4992,0,0,0.5,58.477786,-217.467)"/>
<path style="fill-rule:nonzero;fill:rgb(100%,100%,100%);fill-opacity:1;stroke-width:0.96;stroke-linecap:butt;stroke-linejoin:bevel;stroke:rgb(0%,0%,0%);stroke-opacity:1;stroke-miterlimit:4;" d="M 204.379248 632.480875 C 204.402723 630.480875 210.216713 630.387125 213.213696 628.684 L 177.257729 628.684 C 180.254711 630.387125 185.935676 630.52775 185.935676 632.480875 L 187.148554 636.363687 L 202.031742 636.957437 Z M 204.379248 632.480875 " transform="matrix(0.4992,0,0,0.5,58.477786,-217.467)"/>
<path style="fill-rule:nonzero;fill:rgb(100%,100%,100%);fill-opacity:1;stroke-width:0.96;stroke-linecap:butt;stroke-linejoin:miter;stroke:rgb(0%,0%,0%);stroke-opacity:1;stroke-miterlimit:4;" d="M 211.406116 611.34025 C 211.406116 606.441812 211.617392 604.551187 213.119795 604.551187 L 213.119795 620.137125 C 209.426386 621.473062 206.797179 626.184 206.797179 626.184 L 183.58817 626.184 C 183.58817 626.184 180.951138 621.473062 177.257729 620.137125 L 177.257729 604.551187 C 179.112258 604.551187 179.127908 606.52775 179.127908 611.34025 Z M 213.119795 609.332437 C 213.119795 603.71525 217.971308 603.082437 217.971308 603.082437 L 217.971308 608.082437 C 216.124603 607.9965 215.232551 609.660562 215.232551 612.1215 C 215.232551 614.59025 216.719305 614.629312 216.719305 614.629312 L 216.719305 628.816812 L 213.119795 628.816812 Z M 213.119795 609.332437 " transform="matrix(0.4992,0,0,0.5,58.477786,-217.467)"/>
<path style="fill-rule:nonzero;fill:rgb(100%,100%,100%);fill-opacity:1;stroke-width:0.96;stroke-linecap:butt;stroke-linejoin:miter;stroke:rgb(0%,0%,0%);stroke-opacity:1;stroke-miterlimit:4;" d="M 177.281204 609.332437 C 177.281204 603.71525 172.429691 603.082437 172.429691 603.082437 L 172.429691 608.082437 C 174.276396 607.9965 175.168448 609.660562 175.168448 612.1215 C 175.168448 614.59025 173.681695 614.629312 173.681695 614.629312 L 173.681695 628.816812 L 177.281204 628.816812 Z M 177.281204 609.332437 " transform="matrix(0.4992,0,0,0.5,58.477786,-217.467)"/>
<path style="fill:none;stroke-width:0.8;stroke-linecap:butt;stroke-linejoin:miter;stroke:rgb(0%,0%,0%);stroke-opacity:1;stroke-miterlimit:4;" d="M 186.843378 570.6215 L 203.964522 570.6215 M 184.808873 575.973062 L 205.732977 575.973062 M 182.782193 582.457437 L 207.681407 582.457437 M 180.661612 590.387125 L 210.193238 590.387125 M 179.980836 599.426187 L 210.404514 599.426187 " transform="matrix(0.4992,0,0,0.5,58.477786,-217.467)"/>
<path style="fill:none;stroke-width:0.96;stroke-linecap:butt;stroke-linejoin:miter;stroke:rgb(0%,0%,0%);stroke-opacity:1;stroke-miterlimit:4;" d="M 170.747312 628.918375 L 219.411112 628.918375 M 186.193902 628.926187 L 204.222748 628.926187 L 204.222748 635.559 L 186.193902 635.559 Z M 186.193902 628.926187 " transform="matrix(0.4992,0,0,0.5,58.477786,-217.467)"/>
<path style="fill-rule:nonzero;fill:rgb(100%,100%,100%);fill-opacity:1;stroke-width:0.96;stroke-linecap:butt;stroke-linejoin:miter;stroke:rgb(0%,0%,0%);stroke-opacity:1;stroke-miterlimit:4;" d="M 183.932471 614.238687 C 186.921628 617.832437 186.639928 623.918375 186.608628 627.512125 L 203.948872 627.512125 C 203.917572 623.918375 203.643696 617.832437 206.632854 614.238687 Z M 193.682446 573.113687 L 191.30364 571.887125 L 191.30364 568.387125 C 192.273942 568.676187 193.369445 568.801187 193.47117 570.348062 C 193.807646 568.137125 194.417998 568.2465 195.380475 567.387125 C 196.335128 568.2465 196.945479 568.137125 197.281955 570.348062 C 197.391505 568.801187 198.479183 568.676187 199.45731 568.387125 L 199.45731 571.887125 L 197.078504 573.105875 Z M 193.682446 573.113687 " transform="matrix(0.4992,0,0,0.5,58.477786,-217.467)"/>
<path style="fill-rule:nonzero;fill:rgb(100%,100%,100%);fill-opacity:1;stroke-width:0.96;stroke-linecap:butt;stroke-linejoin:miter;stroke:rgb(0%,0%,0%);stroke-opacity:1;stroke-miterlimit:4;" d="M 193.51812 578.848062 L 189.57431 576.137125 L 189.57431 572.910562 C 190.959339 573.230875 192.508693 573.363687 192.665193 575.066812 C 193.142519 572.637125 194.011097 571.387125 195.380475 570.441812 C 196.742029 571.387125 197.610606 572.637125 198.095757 575.066812 C 198.244432 573.363687 199.793786 573.230875 201.178815 572.910562 L 201.178815 576.137125 L 197.235005 578.848062 Z M 193.51812 578.848062 " transform="matrix(0.4992,0,0,0.5,58.477786,-217.467)"/>
<path style="fill-rule:nonzero;fill:rgb(100%,100%,100%);fill-opacity:1;stroke-width:0.96;stroke-linecap:butt;stroke-linejoin:miter;stroke:rgb(0%,0%,0%);stroke-opacity:1;stroke-miterlimit:4;" d="M 193.23642 587.801187 L 188.705733 583.816812 L 188.705733 579.082437 C 190.294212 579.551187 192.078317 579.738687 192.250467 582.238687 C 192.806043 578.676187 193.807646 576.832437 195.37265 575.449625 C 196.945479 576.832437 197.947082 578.676187 198.494833 582.230875 C 198.674808 579.738687 200.458913 579.551187 202.047392 579.074625 L 202.047392 583.809 L 197.508881 587.793375 Z M 201.609191 593.09025 L 197.508881 598.762125 L 192.860819 598.762125 L 188.752683 593.09025 Z M 186.389527 602.6215 C 188.439682 603.738687 189.198709 605.980875 189.41781 610.176187 L 200.967539 610.176187 C 201.18664 605.980875 201.945667 603.7465 204.003647 602.6215 Z M 186.389527 602.6215 " transform="matrix(0.4992,0,0,0.5,58.477786,-217.467)"/>
<path style="fill-rule:nonzero;fill:rgb(100%,100%,100%);fill-opacity:1;stroke-width:0.96;stroke-linecap:butt;stroke-linejoin:bevel;stroke:rgb(0%,0%,0%);stroke-opacity:1;stroke-miterlimit:4;" d="M 204.167973 593.09025 L 204.167973 587.387125 C 202.219543 587.926187 200.959714 589.074625 200.396313 590.644937 C 200.396313 588.754312 197.900132 584.387125 195.18485 582.21525 C 192.461743 584.644937 189.926436 588.598062 189.981211 590.644937 C 189.519535 589.15275 188.157982 587.926187 186.209552 587.387125 L 186.209552 593.09025 Z M 204.167973 593.09025 " transform="matrix(0.4992,0,0,0.5,58.477786,-217.467)"/>
<path style="fill-rule:nonzero;fill:rgb(100%,100%,100%);fill-opacity:1;stroke-width:0.96;stroke-linecap:butt;stroke-linejoin:bevel;stroke:rgb(0%,0%,0%);stroke-opacity:1;stroke-miterlimit:4;" d="M 205.03655 602.6215 L 205.03655 596.918375 C 202.900319 597.457437 201.515291 598.605875 200.897114 600.176187 C 200.897114 598.285562 198.166182 593.918375 195.192675 591.7465 C 192.203517 594.176187 189.43346 598.129312 189.488235 600.176187 C 188.979609 598.684 187.48503 597.457437 185.348799 596.918375 L 185.348799 602.6215 Z M 205.03655 602.6215 " transform="matrix(0.4992,0,0,0.5,58.477786,-217.467)"/>
<path style="fill-rule:nonzero;fill:rgb(100%,100%,100%);fill-opacity:1;stroke-width:0.96;stroke-linecap:butt;stroke-linejoin:bevel;stroke:rgb(0%,0%,0%);stroke-opacity:1;stroke-miterlimit:4;" d="M 207.438831 614.316812 L 207.438831 607.7465 C 204.778324 608.426187 203.127245 610.394937 202.289968 611.543375 C 202.289968 607.980875 198.267907 602.551187 195.192675 600.77775 C 192.031366 602.598062 188.087556 608.207437 188.087556 611.543375 C 187.226804 610.40275 185.5992 608.426187 182.938693 607.7465 L 182.938693 614.316812 Z M 207.438831 614.316812 " transform="matrix(0.4992,0,0,0.5,58.477786,-217.467)"/>
<path style="fill-rule:nonzero;fill:rgb(100%,100%,100%);fill-opacity:1;stroke-width:0.96;stroke-linecap:butt;stroke-linejoin:bevel;stroke:rgb(0%,0%,0%);stroke-opacity:1;stroke-miterlimit:4;" d="M 205.999027 628.918375 L 205.999027 622.160562 C 203.651521 623.074625 202.955094 625.34025 202.211718 626.8715 C 202.501243 620.012125 198.353983 612.644937 195.192675 610.77775 C 192.023541 612.644937 187.798031 620.176187 188.165807 626.8715 C 187.40678 625.348062 186.726003 623.074625 184.378497 622.160562 L 184.378497 628.918375 Z M 205.999027 628.918375 " transform="matrix(0.4992,0,0,0.5,58.477786,-217.467)"/>
<path style="fill-rule:nonzero;fill:rgb(100%,100%,100%);fill-opacity:1;stroke-width:0.96;stroke-linecap:butt;stroke-linejoin:miter;stroke:rgb(0%,0%,0%);stroke-opacity:1;stroke-miterlimit:4;" d="M 204.363598 639.160562 L 204.363598 632.394937 C 201.898717 632.980875 201.750041 633.887125 200.967539 635.40275 C 201.257065 631.309 198.361808 626.637125 195.192675 624.762125 C 192.031366 626.637125 189.128284 631.309 189.41781 635.40275 C 188.643133 633.887125 188.541408 632.980875 186.029576 632.394937 L 186.029576 639.160562 Z M 204.363598 639.160562 " transform="matrix(0.4992,0,0,0.5,58.477786,-217.467)"/>
<path style="fill-rule:nonzero;fill:rgb(100%,100%,100%);fill-opacity:1;stroke-width:0.96;stroke-linecap:butt;stroke-linejoin:miter;stroke:rgb(0%,0%,0%);stroke-opacity:1;stroke-miterlimit:4;" d="M 98.937103 664.230875 L 98.937103 643.793375 C 98.264151 641.184 96.057496 638.887125 94.398592 638.426187 L 94.398592 620.426187 L 98.131126 622.457437 L 102.403587 641.262125 L 102.403587 664.230875 Z M 98.937103 664.230875 " transform="matrix(0.4992,0,0,0.5,58.477786,-217.467)"/>
<path style="fill-rule:nonzero;fill:rgb(100%,100%,100%);fill-opacity:1;stroke-width:0.96;stroke-linecap:butt;stroke-linejoin:miter;stroke:rgb(0%,0%,0%);stroke-opacity:1;stroke-miterlimit:4;" d="M 98.937103 664.309 L 98.937103 643.793375 C 98.264151 641.191812 96.057496 638.887125 94.398592 638.426187 L 94.398592 619.184 C 96.902598 619.184 98.131126 622.457437 98.131126 622.457437 L 102.403587 641.262125 L 102.403587 664.15275 Z M 98.937103 664.309 " transform="matrix(0.4992,0,0,0.5,58.477786,-217.467)"/>
<path style="fill-rule:nonzero;fill:rgb(100%,100%,100%);fill-opacity:1;stroke-width:0.96;stroke-linecap:butt;stroke-linejoin:miter;stroke:rgb(0%,0%,0%);stroke-opacity:1;stroke-miterlimit:4;" d="M 96.276596 669.551187 C 98.005926 668.769937 100.525582 666.629312 100.525582 664.480875 L 100.525582 638.934 L 99.336179 636.824625 L 142.858941 636.824625 L 141.160911 638.934 L 141.160911 664.480875 C 141.160911 666.629312 142.890241 668.769937 144.61957 669.551187 Z M 96.276596 669.551187 " transform="matrix(0.4992,0,0,0.5,58.477786,-217.467)"/>
<path style="fill-rule:nonzero;fill:rgb(100%,100%,100%);fill-opacity:1;stroke-width:0.96;stroke-linecap:butt;stroke-linejoin:miter;stroke:rgb(0%,0%,0%);stroke-opacity:1;stroke-miterlimit:4;" d="M 135.839898 669.551187 C 134.110568 668.769937 131.590912 666.629312 131.590912 664.480875 L 131.590912 640.184 L 135.213896 636.824625 L 105.61967 636.824625 L 109.242655 640.184 L 109.242655 664.480875 C 109.242655 666.629312 106.722998 668.769937 104.993669 669.551187 Z M 135.839898 669.551187 " transform="matrix(0.4992,0,0,0.5,58.477786,-217.467)"/>
<path style="fill-rule:nonzero;fill:rgb(100%,100%,100%);fill-opacity:1;stroke-width:0.96;stroke-linecap:butt;stroke-linejoin:miter;stroke:rgb(0%,0%,0%);stroke-opacity:1;stroke-miterlimit:4;" d="M 131.692637 669.551187 C 129.963308 668.769937 127.443651 666.629312 127.443651 664.480875 L 127.443651 642.512125 L 129.806807 639.15275 L 111.011109 639.15275 L 113.38209 642.512125 L 113.38209 664.480875 C 113.38209 666.629312 110.862434 668.769937 109.133104 669.551187 Z M 131.692637 669.551187 " transform="matrix(0.4992,0,0,0.5,58.477786,-217.467)"/>
<path style="fill-rule:nonzero;fill:rgb(100%,100%,100%);fill-opacity:1;stroke-width:0.96;stroke-linecap:butt;stroke-linejoin:miter;stroke:rgb(0%,0%,0%);stroke-opacity:1;stroke-miterlimit:4;" d="M 115.917397 639.160562 L 124.90052 639.160562 L 124.90052 669.551187 L 115.917397 669.551187 Z M 115.917397 639.160562 " transform="matrix(0.4992,0,0,0.5,58.477786,-217.467)"/>
<path style="fill-rule:nonzero;fill:rgb(100%,100%,100%);fill-opacity:1;stroke-width:0.96;stroke-linecap:butt;stroke-linejoin:bevel;stroke:rgb(0%,0%,0%);stroke-opacity:1;stroke-miterlimit:4;" d="M 103.70254 647.637125 L 107.2864 647.637125 L 107.2864 664.137125 L 103.70254 664.137125 Z M 134.447044 647.637125 L 138.038728 647.637125 L 138.038728 664.137125 L 134.447044 664.137125 Z M 100.642958 619.816812 L 104.962369 619.816812 L 104.962369 636.730875 L 100.642958 636.730875 Z M 100.642958 616.637125 L 104.938894 616.637125 L 104.938894 619.77775 L 100.642958 619.77775 Z M 100.642958 616.637125 " transform="matrix(0.4992,0,0,0.5,58.477786,-217.467)"/>
<path style="fill-rule:nonzero;fill:rgb(100%,100%,100%);fill-opacity:1;stroke-width:1.034;stroke-linecap:butt;stroke-linejoin:bevel;stroke:rgb(0%,0%,0%);stroke-opacity:1;stroke-miterlimit:4;" d="M 136.168548 623.457437 L 142.326839 623.457437 L 142.326839 636.512125 L 136.168548 636.512125 Z M 136.168548 623.457437 " transform="matrix(0.4992,0,0,0.5,58.477786,-217.467)"/>
<path style="fill-rule:nonzero;fill:rgb(100%,100%,100%);fill-opacity:1;stroke-width:0.96;stroke-linecap:butt;stroke-linejoin:miter;stroke:rgb(0%,0%,0%);stroke-opacity:1;stroke-miterlimit:4;" d="M 104.891943 636.598062 L 104.891943 607.660562 C 106.120472 607.660562 106.308272 611.90275 109.140929 611.90275 C 110.612033 611.90275 110.455533 610.144937 109.626081 608.71525 C 108.898354 607.441812 107.990651 605.691812 109.219179 602.434 C 110.064282 604.926187 112.333537 605.723062 111.918811 604.15275 C 111.19891 601.46525 109.117454 601.02775 110.674633 596.855875 C 111.21456 600.332437 113.452515 600.184 112.904764 598.160562 C 112.294412 595.879312 111.034584 594.941812 112.591763 591.730875 C 113.46034 595.379312 114.641918 595.168375 114.641918 592.90275 C 114.641918 589.551187 114.516718 585.941812 118.843954 584.605875 C 118.843954 584.605875 119.094355 581.535562 120.659359 581.535562 C 122.216538 581.535562 122.474763 584.605875 122.474763 584.605875 C 126.801999 585.941812 126.676799 589.551187 126.676799 592.90275 C 126.676799 595.168375 127.850552 595.379312 128.726954 591.730875 C 130.284133 594.941812 129.01648 595.879312 128.406129 598.160562 C 127.866202 600.184 130.096333 600.332437 130.636259 596.855875 C 132.193438 601.02775 130.119808 601.46525 129.399906 604.160562 C 128.98518 605.723062 131.246611 604.926187 132.091713 602.434 C 133.320241 605.691812 132.420364 607.441812 131.684812 608.71525 C 130.863185 610.144937 130.706684 611.90275 132.177788 611.90275 C 135.00262 611.90275 135.190421 607.660562 136.426774 607.660562 L 136.426774 636.605875 Z M 98.123301 614.738687 L 98.123301 636.816812 L 100.635133 636.816812 L 100.635133 614.684 C 99.72743 614.230875 98.882328 614.160562 98.123301 614.738687 Z M 98.123301 614.738687 " transform="matrix(0.4992,0,0,0.5,58.477786,-217.467)"/>
<path style="fill-rule:nonzero;fill:rgb(100%,100%,100%);fill-opacity:1;stroke-width:0.96;stroke-linecap:butt;stroke-linejoin:miter;stroke:rgb(0%,0%,0%);stroke-opacity:1;stroke-miterlimit:4;" d="M 98.201551 629.02775 C 101.315909 630.6215 104.398967 632.46525 105.181469 636.824625 L 98.201551 636.824625 Z M 141.372187 622.418375 L 141.372187 636.824625 L 143.406692 636.824625 L 143.406692 622.387125 C 142.772865 622.082437 141.904288 622.035562 141.372187 622.418375 Z M 141.372187 622.418375 " transform="matrix(0.4992,0,0,0.5,58.477786,-217.467)"/>
<path style="fill-rule:nonzero;fill:rgb(100%,100%,100%);fill-opacity:1;stroke-width:0.96;stroke-linecap:butt;stroke-linejoin:miter;stroke:rgb(0%,0%,0%);stroke-opacity:1;stroke-miterlimit:4;" d="M 143.406692 628.918375 C 140.300159 630.512125 137.217101 632.355875 136.434599 636.71525 L 143.406692 636.71525 Z M 122.826889 595.269937 L 124.642294 593.7465 L 124.642294 591.793375 C 123.977167 591.855875 123.617216 592.082437 123.12424 592.730875 C 122.709514 591.434 121.793987 590.426187 120.565459 589.793375 C 119.33693 590.426187 118.421403 591.387125 118.006677 592.684 C 117.513701 592.035562 117.15375 591.855875 116.488623 591.793375 L 116.488623 593.7465 L 118.304028 595.269937 Z M 122.826889 595.269937 " transform="matrix(0.4992,0,0,0.5,58.477786,-217.467)"/>
<path style="fill-rule:nonzero;fill:rgb(100%,100%,100%);fill-opacity:1;stroke-width:0.96;stroke-linecap:butt;stroke-linejoin:miter;stroke:rgb(0%,0%,0%);stroke-opacity:1;stroke-miterlimit:4;" d="M 123.797192 600.160562 L 124.642294 598.332437 L 124.642294 595.793375 C 123.977167 595.863687 123.617216 596.09025 123.12424 596.7465 C 122.709514 595.434 121.793987 594.410562 120.565459 593.769937 C 119.33693 594.410562 118.421403 595.387125 117.998852 596.699625 C 117.513701 596.051187 117.15375 595.863687 116.488623 595.793375 L 116.488623 598.34025 L 117.333725 600.160562 Z M 123.797192 600.160562 " transform="matrix(0.4992,0,0,0.5,58.477786,-217.467)"/>
<path style="fill-rule:nonzero;fill:rgb(100%,100%,100%);fill-opacity:1;stroke-width:0.96;stroke-linecap:butt;stroke-linejoin:miter;stroke:rgb(0%,0%,0%);stroke-opacity:1;stroke-miterlimit:4;" d="M 123.930217 606.793375 L 126.622024 603.504312 L 126.622024 600.262125 C 125.636072 600.3715 125.10397 600.762125 124.376243 601.863687 C 123.750242 599.644937 122.396513 599.160562 120.565459 598.082437 C 118.742229 599.160562 117.380675 599.566812 116.762499 601.785562 C 116.034772 600.684 115.494846 600.3715 114.508893 600.262125 L 114.508893 603.504312 L 117.2007 606.793375 Z M 123.930217 606.793375 " transform="matrix(0.4992,0,0,0.5,58.477786,-217.467)"/>
<path style="fill-rule:nonzero;fill:rgb(100%,100%,100%);fill-opacity:1;stroke-width:0.96;stroke-linecap:butt;stroke-linejoin:miter;stroke:rgb(0%,0%,0%);stroke-opacity:1;stroke-miterlimit:4;" d="M 124.720544 613.301187 C 124.720544 613.301187 127.858377 610.559 128.046178 609.059 L 128.046178 605.59025 C 126.8333 605.730875 125.675197 606.043375 124.783144 607.473062 C 124.016292 604.598062 122.819064 603.801187 120.565459 602.410562 C 118.311853 603.801187 117.12245 604.598062 116.355598 607.473062 C 115.45572 606.043375 114.305443 605.730875 113.092564 605.59025 L 113.092564 609.051187 C 113.483815 610.559 116.418198 613.301187 116.418198 613.301187 Z M 124.720544 613.301187 " transform="matrix(0.4992,0,0,0.5,58.477786,-217.467)"/>
<path style="fill-rule:nonzero;fill:rgb(100%,100%,100%);fill-opacity:1;stroke-width:0.96;stroke-linecap:butt;stroke-linejoin:miter;stroke:rgb(0%,0%,0%);stroke-opacity:1;stroke-miterlimit:4;" d="M 126.058623 625.316812 C 126.058623 625.316812 130.362384 620.559 130.456284 618.707437 L 130.456284 613.301187 C 128.852155 613.519937 127.326276 614.629312 126.136873 616.848062 C 125.127445 612.3715 123.546791 609.254312 120.573284 607.082437 C 117.591951 609.254312 116.011297 612.3715 115.001869 616.848062 C 113.812466 614.629312 112.286587 613.519937 110.674633 613.293375 L 110.674633 618.699625 C 110.987634 620.559 115.080119 625.316812 115.080119 625.316812 Z M 126.058623 625.316812 " transform="matrix(0.4992,0,0,0.5,58.477786,-217.467)"/>
<path style="fill-rule:nonzero;fill:rgb(100%,100%,100%);fill-opacity:1;stroke-width:0.96;stroke-linecap:butt;stroke-linejoin:miter;stroke:rgb(0%,0%,0%);stroke-opacity:1;stroke-miterlimit:4;" d="M 126.058623 632.426187 C 126.058623 632.426187 129.736382 628.691812 130.456284 627.066812 L 130.456284 621.660562 C 128.852155 621.879312 127.326276 622.988687 126.136873 625.207437 C 125.127445 620.730875 123.546791 618.168375 120.573284 616.004312 C 117.591951 618.168375 116.011297 620.730875 115.001869 625.207437 C 113.812466 622.988687 112.286587 621.879312 110.674633 621.660562 L 110.674633 627.066812 C 111.613636 628.684 115.080119 632.426187 115.080119 632.426187 Z M 126.058623 632.426187 " transform="matrix(0.4992,0,0,0.5,58.477786,-217.467)"/>
<path style="fill-rule:nonzero;fill:rgb(100%,100%,100%);fill-opacity:1;stroke-width:0.96;stroke-linecap:butt;stroke-linejoin:miter;stroke:rgb(0%,0%,0%);stroke-opacity:1;stroke-miterlimit:4;" d="M 127.537551 636.559 C 126.465524 631.894937 125.542171 628.426187 120.377658 624.918375 C 115.213145 628.426187 114.289792 631.894937 113.217765 636.559 Z M 127.537551 636.559 " transform="matrix(0.4992,0,0,0.5,58.477786,-217.467)"/>
<path style="fill-rule:nonzero;fill:rgb(100%,100%,100%);fill-opacity:1;stroke-width:0.96;stroke-linecap:butt;stroke-linejoin:miter;stroke:rgb(0%,0%,0%);stroke-opacity:1;stroke-miterlimit:4;" d="M 130.198058 639.160562 L 130.198058 632.394937 C 127.850552 633.316812 125.729972 634.676187 124.94747 636.191812 C 124.078893 632.441812 122.396513 630.785562 120.299408 628.512125 C 118.202302 630.785562 116.801624 632.441812 115.925222 636.191812 C 115.14272 634.676187 113.022139 633.316812 110.674633 632.394937 L 110.674633 639.160562 Z M 130.198058 639.160562 " transform="matrix(0.4992,0,0,0.5,58.477786,-217.467)"/>
<path style="fill-rule:nonzero;fill:rgb(100%,100%,100%);fill-opacity:1;stroke-width:0.96;stroke-linecap:butt;stroke-linejoin:miter;stroke:rgb(0%,0%,0%);stroke-opacity:1;stroke-miterlimit:4;" d="M 98.931803 664.230875 L 98.931803 643.793375 C 98.266676 641.184 96.052196 638.887125 94.393291 638.426187 L 94.393291 620.426187 L 98.133651 622.457437 L 102.406112 641.262125 L 102.406112 664.230875 Z M 98.931803 664.230875 " transform="matrix(-0.4992,0,0,0.5,253.535194,-217.467)"/>
<path style="fill-rule:nonzero;fill:rgb(100%,100%,100%);fill-opacity:1;stroke-width:0.96;stroke-linecap:butt;stroke-linejoin:miter;stroke:rgb(0%,0%,0%);stroke-opacity:1;stroke-miterlimit:4;" d="M 98.931803 664.309 L 98.931803 643.793375 C 98.266676 641.191812 96.052196 638.887125 94.393291 638.426187 L 94.393291 619.184 C 96.905123 619.184 98.133651 622.457437 98.133651 622.457437 L 102.406112 641.262125 L 102.406112 664.15275 Z M 98.931803 664.309 " transform="matrix(-0.4992,0,0,0.5,253.535194,-217.467)"/>
<path style="fill-rule:nonzero;fill:rgb(100%,100%,100%);fill-opacity:1;stroke-width:0.96;stroke-linecap:butt;stroke-linejoin:miter;stroke:rgb(0%,0%,0%);stroke-opacity:1;stroke-miterlimit:4;" d="M 96.271296 669.551187 C 98.008451 668.769937 100.528107 666.629312 100.528107 664.480875 L 100.528107 638.934 L 99.338704 636.824625 L 142.861466 636.824625 L 141.163436 638.934 L 141.163436 664.480875 C 141.163436 666.629312 142.892766 668.769937 144.622095 669.551187 Z M 96.271296 669.551187 " transform="matrix(-0.4992,0,0,0.5,253.535194,-217.467)"/>
<path style="fill-rule:nonzero;fill:rgb(100%,100%,100%);fill-opacity:1;stroke-width:0.96;stroke-linecap:butt;stroke-linejoin:miter;stroke:rgb(0%,0%,0%);stroke-opacity:1;stroke-miterlimit:4;" d="M 135.842423 669.551187 C 134.113093 668.769937 131.593437 666.629312 131.593437 664.480875 L 131.593437 640.184 L 135.208596 636.824625 L 105.622195 636.824625 L 109.245179 640.184 L 109.245179 664.480875 C 109.245179 666.629312 106.725523 668.769937 104.988369 669.551187 Z M 135.842423 669.551187 " transform="matrix(-0.4992,0,0,0.5,253.535194,-217.467)"/>
<path style="fill-rule:nonzero;fill:rgb(100%,100%,100%);fill-opacity:1;stroke-width:0.96;stroke-linecap:butt;stroke-linejoin:miter;stroke:rgb(0%,0%,0%);stroke-opacity:1;stroke-miterlimit:4;" d="M 131.687337 669.551187 C 129.958008 668.769937 127.438351 666.629312 127.438351 664.480875 L 127.438351 642.512125 L 129.809332 639.15275 L 111.013634 639.15275 L 113.384615 642.512125 L 113.384615 664.480875 C 113.384615 666.629312 110.864959 668.769937 109.135629 669.551187 Z M 131.687337 669.551187 " transform="matrix(-0.4992,0,0,0.5,253.535194,-217.467)"/>
<path style="fill-rule:nonzero;fill:rgb(100%,100%,100%);fill-opacity:1;stroke-width:0.96;stroke-linecap:butt;stroke-linejoin:miter;stroke:rgb(0%,0%,0%);stroke-opacity:1;stroke-miterlimit:4;" d="M 115.919922 639.160562 L 124.903045 639.160562 L 124.903045 669.551187 L 115.919922 669.551187 Z M 115.919922 639.160562 " transform="matrix(-0.4992,0,0,0.5,253.535194,-217.467)"/>
<path style="fill-rule:nonzero;fill:rgb(100%,100%,100%);fill-opacity:1;stroke-width:0.96;stroke-linecap:butt;stroke-linejoin:bevel;stroke:rgb(0%,0%,0%);stroke-opacity:1;stroke-miterlimit:4;" d="M 103.69724 647.637125 L 107.288924 647.637125 L 107.288924 664.137125 L 103.69724 664.137125 Z M 134.449569 647.637125 L 138.033428 647.637125 L 138.033428 664.137125 L 134.449569 664.137125 Z M 100.637657 619.816812 L 104.957069 619.816812 L 104.957069 636.730875 L 100.637657 636.730875 Z M 100.637657 616.637125 L 104.933593 616.637125 L 104.933593 619.77775 L 100.637657 619.77775 Z M 100.637657 616.637125 " transform="matrix(-0.4992,0,0,0.5,253.535194,-217.467)"/>
<path style="fill-rule:nonzero;fill:rgb(100%,100%,100%);fill-opacity:1;stroke-width:1.034;stroke-linecap:butt;stroke-linejoin:bevel;stroke:rgb(0%,0%,0%);stroke-opacity:1;stroke-miterlimit:4;" d="M 136.171073 623.457437 L 142.329364 623.457437 L 142.329364 636.512125 L 136.171073 636.512125 Z M 136.171073 623.457437 " transform="matrix(-0.4992,0,0,0.5,253.535194,-217.467)"/>
<path style="fill-rule:nonzero;fill:rgb(100%,100%,100%);fill-opacity:1;stroke-width:0.96;stroke-linecap:butt;stroke-linejoin:miter;stroke:rgb(0%,0%,0%);stroke-opacity:1;stroke-miterlimit:4;" d="M 104.886643 636.598062 L 104.886643 607.660562 C 106.122996 607.660562 106.310797 611.90275 109.143454 611.90275 C 110.606733 611.90275 110.450233 610.144937 109.628605 608.71525 C 108.893054 607.441812 107.993176 605.691812 109.221704 602.434 C 110.066807 604.926187 112.336062 605.723062 111.913511 604.15275 C 111.193609 601.46525 109.119979 601.02775 110.677158 596.855875 C 111.217085 600.332437 113.447215 600.184 112.907289 598.160562 C 112.296937 595.879312 111.037109 594.941812 112.594288 591.730875 C 113.462865 595.379312 114.644443 595.168375 114.644443 592.90275 C 114.644443 589.551187 114.511418 585.941812 118.846479 584.605875 C 118.846479 584.605875 119.09688 581.535562 120.661884 581.535562 C 122.219063 581.535562 122.469463 584.605875 122.469463 584.605875 C 126.804524 585.941812 126.671499 589.551187 126.671499 592.90275 C 126.671499 595.168375 127.853077 595.379312 128.721654 591.730875 C 130.286658 594.941812 129.019005 595.879312 128.408654 598.160562 C 127.868727 600.184 130.098858 600.332437 130.638784 596.855875 C 132.195963 601.02775 130.122333 601.46525 129.402431 604.160562 C 128.97988 605.723062 131.249136 604.926187 132.094238 602.434 C 133.322766 605.691812 132.422889 607.441812 131.687337 608.71525 C 130.857885 610.144937 130.701384 611.90275 132.180313 611.90275 C 135.005145 611.90275 135.192946 607.660562 136.421474 607.660562 L 136.421474 636.605875 Z M 98.125826 614.738687 L 98.125826 636.816812 L 100.637657 636.816812 L 100.637657 614.684 C 99.729955 614.230875 98.877028 614.160562 98.125826 614.738687 Z M 98.125826 614.738687 " transform="matrix(-0.4992,0,0,0.5,253.535194,-217.467)"/>
<path style="fill-rule:nonzero;fill:rgb(100%,100%,100%);fill-opacity:1;stroke-width:0.96;stroke-linecap:butt;stroke-linejoin:miter;stroke:rgb(0%,0%,0%);stroke-opacity:1;stroke-miterlimit:4;" d="M 98.204076 629.02775 C 101.318434 630.6215 104.401492 632.46525 105.176169 636.824625 L 98.204076 636.824625 Z M 141.366887 622.418375 L 141.366887 636.824625 L 143.401392 636.824625 L 143.401392 622.387125 C 142.767565 622.082437 141.898988 622.035562 141.366887 622.418375 Z M 141.366887 622.418375 " transform="matrix(-0.4992,0,0,0.5,253.535194,-217.467)"/>
<path style="fill-rule:nonzero;fill:rgb(100%,100%,100%);fill-opacity:1;stroke-width:0.96;stroke-linecap:butt;stroke-linejoin:miter;stroke:rgb(0%,0%,0%);stroke-opacity:1;stroke-miterlimit:4;" d="M 143.409217 628.918375 C 140.294859 630.512125 137.211801 632.355875 136.437124 636.71525 L 143.409217 636.71525 Z M 122.829414 595.269937 L 124.644819 593.7465 L 124.644819 591.793375 C 123.979692 591.855875 123.619741 592.082437 123.126765 592.730875 C 122.712039 591.434 121.796512 590.426187 120.567983 589.793375 C 119.339455 590.426187 118.416103 591.387125 118.001377 592.684 C 117.516226 592.035562 117.14845 591.855875 116.483323 591.793375 L 116.483323 593.7465 L 118.298728 595.269937 Z M 122.829414 595.269937 " transform="matrix(-0.4992,0,0,0.5,253.535194,-217.467)"/>
<path style="fill-rule:nonzero;fill:rgb(100%,100%,100%);fill-opacity:1;stroke-width:0.96;stroke-linecap:butt;stroke-linejoin:miter;stroke:rgb(0%,0%,0%);stroke-opacity:1;stroke-miterlimit:4;" d="M 123.799717 600.160562 L 124.644819 598.332437 L 124.644819 595.793375 C 123.979692 595.863687 123.619741 596.09025 123.126765 596.7465 C 122.712039 595.434 121.796512 594.410562 120.567983 593.769937 C 119.33163 594.410562 118.416103 595.387125 118.001377 596.699625 C 117.508401 596.051187 117.14845 595.863687 116.483323 595.793375 L 116.483323 598.34025 L 117.328425 600.160562 Z M 123.799717 600.160562 " transform="matrix(-0.4992,0,0,0.5,253.535194,-217.467)"/>
<path style="fill-rule:nonzero;fill:rgb(100%,100%,100%);fill-opacity:1;stroke-width:0.96;stroke-linecap:butt;stroke-linejoin:miter;stroke:rgb(0%,0%,0%);stroke-opacity:1;stroke-miterlimit:4;" d="M 123.932742 606.793375 L 126.624549 603.504312 L 126.624549 600.262125 C 125.638596 600.3715 125.09867 600.762125 124.370943 601.863687 C 123.752767 599.644937 122.391213 599.160562 120.567983 598.082437 C 118.744754 599.160562 117.3832 599.566812 116.757199 601.785562 C 116.029472 600.684 115.49737 600.3715 114.511418 600.262125 L 114.511418 603.504312 L 117.203225 606.793375 Z M 123.932742 606.793375 " transform="matrix(-0.4992,0,0,0.5,253.535194,-217.467)"/>
<path style="fill-rule:nonzero;fill:rgb(100%,100%,100%);fill-opacity:1;stroke-width:0.96;stroke-linecap:butt;stroke-linejoin:miter;stroke:rgb(0%,0%,0%);stroke-opacity:1;stroke-miterlimit:4;" d="M 124.723069 613.301187 C 124.723069 613.301187 127.860902 610.559 128.048703 609.059 L 128.048703 605.59025 C 126.827999 605.730875 125.677722 606.043375 124.777844 607.473062 C 124.018817 604.598062 122.821589 603.801187 120.567983 602.410562 C 118.314378 603.801187 117.11715 604.598062 116.358123 607.473062 C 115.458245 606.043375 114.307967 605.730875 113.087264 605.59025 L 113.087264 609.051187 C 113.48634 610.559 116.412898 613.301187 116.412898 613.301187 Z M 124.723069 613.301187 " transform="matrix(-0.4992,0,0,0.5,253.535194,-217.467)"/>
<path style="fill-rule:nonzero;fill:rgb(100%,100%,100%);fill-opacity:1;stroke-width:0.96;stroke-linecap:butt;stroke-linejoin:miter;stroke:rgb(0%,0%,0%);stroke-opacity:1;stroke-miterlimit:4;" d="M 126.061148 625.316812 C 126.061148 625.316812 130.357084 620.559 130.458809 618.707437 L 130.458809 613.301187 C 128.846855 613.519937 127.328801 614.629312 126.139398 616.848062 C 125.12997 612.3715 123.549316 609.254312 120.567983 607.082437 C 117.586651 609.254312 116.013822 612.3715 114.996569 616.848062 C 113.807166 614.629312 112.289112 613.519937 110.677158 613.293375 L 110.677158 618.699625 C 110.982334 620.559 115.074819 625.316812 115.074819 625.316812 Z M 126.061148 625.316812 " transform="matrix(-0.4992,0,0,0.5,253.535194,-217.467)"/>
<path style="fill-rule:nonzero;fill:rgb(100%,100%,100%);fill-opacity:1;stroke-width:0.96;stroke-linecap:butt;stroke-linejoin:miter;stroke:rgb(0%,0%,0%);stroke-opacity:1;stroke-miterlimit:4;" d="M 126.061148 632.426187 C 126.061148 632.426187 129.738907 628.691812 130.458809 627.066812 L 130.458809 621.660562 C 128.846855 621.879312 127.328801 622.988687 126.139398 625.207437 C 125.12997 620.730875 123.549316 618.168375 120.567983 616.004312 C 117.586651 618.168375 116.013822 620.730875 114.996569 625.207437 C 113.807166 622.988687 112.289112 621.879312 110.677158 621.660562 L 110.677158 627.066812 C 111.608336 628.684 115.074819 632.426187 115.074819 632.426187 Z M 126.061148 632.426187 " transform="matrix(-0.4992,0,0,0.5,253.535194,-217.467)"/>
<path style="fill-rule:nonzero;fill:rgb(100%,100%,100%);fill-opacity:1;stroke-width:0.96;stroke-linecap:butt;stroke-linejoin:miter;stroke:rgb(0%,0%,0%);stroke-opacity:1;stroke-miterlimit:4;" d="M 127.540076 636.559 C 126.468049 631.894937 125.544696 628.426187 120.380183 624.918375 C 115.207845 628.426187 114.284492 631.894937 113.212465 636.559 Z M 127.540076 636.559 " transform="matrix(-0.4992,0,0,0.5,253.535194,-217.467)"/>
<path style="fill-rule:nonzero;fill:rgb(100%,100%,100%);fill-opacity:1;stroke-width:0.96;stroke-linecap:butt;stroke-linejoin:miter;stroke:rgb(0%,0%,0%);stroke-opacity:1;stroke-miterlimit:4;" d="M 130.200583 639.160562 L 130.200583 632.394937 C 127.853077 633.316812 125.732497 634.676187 124.949995 636.191812 C 124.081417 632.441812 122.391213 630.785562 120.294108 628.512125 C 118.204827 630.785562 116.796324 632.441812 115.919922 636.191812 C 115.13742 634.676187 113.024664 633.316812 110.669333 632.394937 L 110.669333 639.160562 Z M 130.200583 639.160562 " transform="matrix(-0.4992,0,0,0.5,253.535194,-217.467)"/>
<path style="fill-rule:nonzero;fill:rgb(100%,100%,100%);fill-opacity:1;stroke-width:0.96;stroke-linecap:butt;stroke-linejoin:miter;stroke:rgb(0%,0%,0%);stroke-opacity:1;stroke-miterlimit:4;" d="M 89.414054 669.27775 L 89.414054 675.449625 L 301.299946 675.449625 L 301.299946 669.27775 Z M 85.579794 675.512125 L 85.579794 683.559 L 305.134206 683.559 L 305.134206 675.512125 Z M 305.134206 683.559 L 85.579794 683.6215 L 79.155453 683.559 L 79.155453 694.184 L 311.558547 694.184 L 311.558547 683.559 Z M 72.691986 694.2465 L 72.691986 706.762125 L 318.022014 706.762125 L 318.022014 694.2465 Z M 318.022014 706.762125 L 318.022014 706.77775 L 72.691986 706.77775 L 72.691986 706.762125 L 66.228519 706.762125 L 66.228519 719.269937 L 324.485481 719.269937 L 324.485481 706.762125 Z M 318.022014 706.762125 " transform="matrix(0.4992,0,0,0.5,58.477786,-217.467)"/>
<path style="fill-rule:nonzero;fill:rgb(100%,100%,100%);fill-opacity:1;stroke-width:1.045;stroke-linecap:butt;stroke-linejoin:miter;stroke:rgb(0%,0%,0%);stroke-opacity:1;stroke-miterlimit:4;" d="M 112.411788 669.309 L 128.413954 669.309 L 128.413954 719.2465 L 112.411788 719.2465 Z M 112.411788 669.309 " transform="matrix(0.4992,0,0,0.5,58.477786,-217.467)"/>
<path style="fill-rule:nonzero;fill:rgb(100%,100%,100%);fill-opacity:1;stroke-width:1.043;stroke-linecap:butt;stroke-linejoin:miter;stroke:rgb(0%,0%,0%);stroke-opacity:1;stroke-miterlimit:4;" d="M 115.948697 669.309 L 124.86922 669.309 L 124.86922 719.2465 L 115.948697 719.2465 Z M 115.948697 669.309 " transform="matrix(0.4992,0,0,0.5,58.477786,-217.467)"/>
<path style="fill-rule:nonzero;fill:rgb(100%,100%,100%);fill-opacity:1;stroke-width:1.045;stroke-linecap:butt;stroke-linejoin:miter;stroke:rgb(0%,0%,0%);stroke-opacity:1;stroke-miterlimit:4;" d="M 187.078129 669.309 L 203.08812 669.309 L 203.08812 719.2465 L 187.078129 719.2465 Z M 187.078129 669.309 " transform="matrix(0.4992,0,0,0.5,58.477786,-217.467)"/>
<path style="fill-rule:nonzero;fill:rgb(100%,100%,100%);fill-opacity:1;stroke-width:1.043;stroke-linecap:butt;stroke-linejoin:miter;stroke:rgb(0%,0%,0%);stroke-opacity:1;stroke-miterlimit:4;" d="M 190.732413 669.309 L 199.645111 669.309 L 199.645111 719.2465 L 190.732413 719.2465 Z M 190.732413 669.309 " transform="matrix(0.4992,0,0,0.5,58.477786,-217.467)"/>
<path style="fill-rule:nonzero;fill:rgb(100%,100%,100%);fill-opacity:1;stroke-width:1.045;stroke-linecap:butt;stroke-linejoin:miter;stroke:rgb(0%,0%,0%);stroke-opacity:1;stroke-miterlimit:4;" d="M 262.190496 669.309 L 278.192662 669.309 L 278.192662 719.2465 L 262.190496 719.2465 Z M 262.190496 669.309 " transform="matrix(0.4992,0,0,0.5,58.477786,-217.467)"/>
<path style="fill-rule:nonzero;fill:rgb(100%,100%,100%);fill-opacity:1;stroke-width:1.043;stroke-linecap:butt;stroke-linejoin:miter;stroke:rgb(0%,0%,0%);stroke-opacity:1;stroke-miterlimit:4;" d="M 265.727405 669.309 L 274.647928 669.309 L 274.647928 719.2465 L 265.727405 719.2465 Z M 265.727405 669.309 " transform="matrix(0.4992,0,0,0.5,58.477786,-217.467)"/>
<path style="fill:none;stroke-width:0.96;stroke-linecap:butt;stroke-linejoin:miter;stroke:rgb(0%,0%,0%);stroke-opacity:1;stroke-miterlimit:4;" d="M 98.937103 664.230875 L 292.003822 664.230875 M 115.792196 712.973062 L 125.033545 712.973062 M 115.792196 706.723062 L 125.033545 706.723062 M 115.792196 700.473062 L 125.033545 700.473062 M 115.792196 694.223062 L 125.033545 694.223062 M 115.792196 687.973062 L 125.033545 687.973062 M 115.792196 681.723062 L 125.033545 681.723062 M 115.792196 675.473062 L 125.033545 675.473062 M 190.771538 712.980875 L 199.37906 712.980875 M 190.771538 706.730875 L 199.37906 706.730875 M 190.771538 700.473062 L 199.37906 700.473062 M 190.771538 694.223062 L 199.37906 694.223062 M 190.771538 687.96525 L 199.37906 687.96525 M 190.771538 681.71525 L 199.37906 681.71525 M 190.771538 675.457437 L 199.37906 675.457437 M 265.570905 712.973062 L 274.812253 712.973062 M 265.570905 706.723062 L 274.812253 706.723062 M 265.570905 700.473062 L 274.812253 700.473062 M 265.570905 694.223062 L 274.812253 694.223062 M 265.570905 687.973062 L 274.812253 687.973062 M 265.570905 681.723062 L 274.812253 681.723062 M 265.570905 675.473062 L 274.812253 675.473062 " transform="matrix(0.4992,0,0,0.5,58.477786,-217.467)"/>
</g>
</svg>
