<?xml version="1.0" encoding="UTF-8"?>
<svg xmlns="http://www.w3.org/2000/svg" xmlns:xlink="http://www.w3.org/1999/xlink" width="px" height="px" viewBox="0 0 300 150" version="1.1">
<g id="surface1">
<path style=" stroke:none;fill-rule:nonzero;fill:rgb(78.431373%,6.27451%,6.27451%);fill-opacity:1;" d="M 0 0 L 300 0 L 300 81 L 0 81 Z M 0 0 "/>
<path style="fill-rule:nonzero;fill:rgb(97.254902%,81.568627%,0%);fill-opacity:1;stroke-width:0.46;stroke-linecap:butt;stroke-linejoin:miter;stroke:rgb(0%,0%,0%);stroke-opacity:1;stroke-miterlimit:22.9256;" d="M 305.75 27.34375 C 286.671875 19.453125 274.992188 18 261.9375 17.867188 C 243.039062 18 234.023438 26.117188 216 26.867188 C 223.140625 34.5625 249.023438 36.4375 259.929688 26.34375 C 276.148438 28.03125 279.828125 32.40625 284.179688 37.859375 C 277.40625 36.789062 269.609375 34.84375 263.140625 42 C 257.679688 43.101562 255.148438 42 245.8125 42 C 241.453125 42 239.9375 44.140625 240 48 C 242.820312 44.101562 262.3125 46.398438 267.09375 48 C 270.757812 49.226562 274.65625 54.320312 279.3125 55.148438 C 291.5 57.320312 308.992188 50.953125 325.117188 46.609375 L 360 42 L 336.070312 42 L 366 36 L 333.460938 36 C 332.773438 35.210938 331.117188 34.1875 329.796875 33.320312 C 338.171875 27.929688 345.570312 18.132812 347.460938 13.398438 C 362.546875 13.25 372.289062 11.851562 384 9.109375 C 306.820312 0.570312 324.390625 9.78125 305.75 27.34375 Z M 305.75 27.34375 " transform="matrix(0.5,0,0,0.5,0,0)"/>
<path style="fill-rule:nonzero;fill:rgb(0%,0%,0%);fill-opacity:1;stroke-width:0.15;stroke-linecap:butt;stroke-linejoin:miter;stroke:rgb(0%,0%,0%);stroke-opacity:1;stroke-miterlimit:22.926;" d="M 270.0625 39.890625 C 270.890625 39.890625 271.5625 40.5625 271.5625 41.390625 C 271.5625 42.21875 270.890625 42.890625 270.0625 42.890625 C 269.242188 42.890625 268.5625 42.21875 268.5625 41.390625 C 268.5625 40.5625 269.242188 39.890625 270.0625 39.890625 Z M 270.0625 39.890625 " transform="matrix(0.5,0,0,0.5,0,0)"/>
<path style="fill:none;stroke-width:0.46;stroke-linecap:butt;stroke-linejoin:miter;stroke:rgb(0%,0%,0%);stroke-opacity:1;stroke-miterlimit:22.9256;" d="M 290.132812 38.289062 C 290.132812 38.289062 283.859375 42 279.703125 42 M 325.117188 46.609375 C 325.117188 46.609375 330.851562 42 336.070312 42 M 233.820312 24.601562 C 233.820312 24.601562 238.476562 22.15625 240.679688 21.507812 M 253.132812 21.117188 C 253.132812 21.117188 260.523438 17.929688 268.75 18.09375 M 273.109375 21.898438 C 273.109375 21.898438 282.796875 20.273438 291.75 22.257812 M 284.25 24.242188 C 284.25 24.242188 292.289062 22.890625 300 25.070312 M 292.523438 26.6875 C 292.523438 26.6875 300.710938 26.796875 304.78125 28.382812 M 216 26.867188 C 216 26.867188 227.492188 30.007812 236.828125 25.523438 M 217.460938 28.226562 C 217.460938 28.226562 232.382812 31.90625 239.203125 25.078125 M 222.460938 30.8125 C 222.460938 30.8125 233.703125 34.429688 242.539062 25.09375 M 232.898438 33.078125 C 232.898438 33.078125 241.976562 30.476562 245.421875 25.132812 M 240 33.226562 C 240 33.226562 246.09375 29.007812 248.28125 25.25 M 318.460938 28.46875 C 318.460938 28.46875 320.84375 31.460938 329.796875 33.320312 M 320.039062 27.0625 C 320.039062 27.0625 323.890625 30.90625 331.90625 31.851562 M 321.976562 25.25 C 321.976562 25.25 325.890625 28.609375 334.398438 29.859375 M 323.90625 23.320312 C 323.90625 23.320312 329.890625 27.3125 336.703125 27.773438 M 326.273438 20.796875 C 326.273438 20.796875 330.460938 24.710938 338.773438 25.679688 M 328.03125 18.789062 C 328.03125 18.789062 332.9375 23.007812 340.65625 23.59375 M 329.757812 16.6875 C 329.757812 16.6875 332.773438 20.171875 342.703125 21.078125 M 331.523438 14.421875 C 331.523438 14.421875 334.867188 18.101562 344.296875 18.898438 M 332.890625 12.546875 C 332.890625 12.546875 338.789062 17 345.617188 16.90625 M 334.0625 10.851562 C 334.0625 10.851562 341.859375 15.53125 346.507812 15.382812 M 335.476562 8.6875 C 335.476562 8.6875 341.679688 12.546875 347.460938 13.398438 M 308.84375 30.382812 C 308.84375 30.382812 311.34375 32.273438 313.679688 32.1875 M 310.28125 28.976562 C 310.28125 28.976562 312.453125 30.828125 315.429688 30.820312 M 312.03125 27.257812 C 312.03125 27.257812 314.492188 29.5625 317.4375 29.140625 M 313.6875 25.601562 C 313.6875 25.601562 316.632812 27.601562 319.257812 27.539062 M 315.53125 23.710938 C 315.53125 23.710938 317.710938 25.601562 321.15625 25.78125 M 317.171875 21.632812 C 317.171875 21.632812 319.726562 23.898438 322.992188 23.976562 M 318.898438 20.132812 C 318.898438 20.132812 321.382812 21.71875 324.890625 22.023438 M 320.46875 18.382812 C 320.46875 18.382812 323.820312 19.5625 326.890625 19.851562 M 322.28125 16.242188 C 322.28125 16.242188 324.59375 17.859375 328.6875 17.757812 M 323.90625 14.101562 C 323.90625 14.101562 326.648438 15.921875 330.171875 15.960938 M 325.109375 12.070312 C 325.109375 12.070312 328.789062 14.132812 331.960938 13.671875 M 326.453125 9.640625 C 326.453125 9.640625 328.78125 12.1875 333.117188 12.101562 M 327.390625 8.539062 C 327.390625 8.539062 331.570312 10.890625 334.398438 10.289062 M 329.15625 7.210938 C 329.15625 7.210938 332.328125 9.140625 335.226562 9.0625 M 332.382812 6.242188 C 332.382812 6.242188 338.03125 9.117188 345.671875 6 M 337.1875 8.289062 C 337.1875 8.289062 348.609375 10.90625 353.5625 6.328125 M 346.148438 8.96875 C 346.148438 8.96875 354 9.789062 362.78125 7.007812 M 351.367188 9.023438 C 351.367188 9.023438 363.289062 11.421875 384 9.109375 M 243.242188 32.960938 C 243.242188 32.960938 248.570312 29.453125 250.78125 25.40625 M 247.226562 32.3125 C 247.226562 32.3125 251.523438 28.148438 252.773438 25.570312 M 251.1875 31.242188 C 251.1875 31.242188 254.71875 28.070312 255.5 25.851562 M 233.953125 25.65625 C 233.953125 25.65625 241.609375 23.992188 259.929688 26.34375 M 241.03125 22.601562 C 241.03125 22.601562 247.453125 19.492188 253.171875 18.539062 M 247.40625 21.3125 C 247.40625 21.3125 252.101562 19.101562 259.023438 18 M 258.070312 20.890625 C 258.070312 20.890625 264.5625 18.117188 272.5 18.382812 M 266.28125 20.9375 C 266.28125 20.9375 275.179688 18.953125 283.382812 20.070312 M 290.109375 25.289062 C 290.109375 25.289062 296.898438 24.976562 304.710938 26.921875 M 278.5 22.5625 C 278.5 22.5625 288.226562 22.039062 294.898438 23.273438 M 338.671875 8.570312 C 338.671875 8.570312 342.03125 11.476562 351.390625 13.328125 M 343.953125 9.039062 C 343.953125 9.039062 349.210938 12.03125 357.507812 13.070312 M 349.46875 9.078125 C 349.46875 9.078125 356.851562 12.289062 364.648438 12.492188 M 357.640625 9.78125 C 357.640625 9.78125 365.15625 11.59375 374.476562 11.101562 M 262.40625 20.78125 C 262.40625 20.78125 267.507812 18.679688 276.546875 18.851562 M 296.039062 28.421875 C 296.039062 28.421875 299.101562 28.046875 302.898438 29.859375 " transform="matrix(0.5,0,0,0.5,0,0)"/>
<path style="fill:none;stroke-width:0.46;stroke-linecap:butt;stroke-linejoin:miter;stroke:rgb(0%,0%,0%);stroke-opacity:1;stroke-miterlimit:22.9256;" d="M 284.179688 37.859375 C 286.289062 38.1875 288.296875 38.4375 290.132812 38.289062 C 297.289062 34.382812 302.179688 30.710938 305.75 27.34375 " transform="matrix(0.5,0,0,0.5,0,0)"/>
<path style="fill-rule:nonzero;fill:rgb(97.254902%,81.568627%,0%);fill-opacity:1;stroke-width:0.46;stroke-linecap:butt;stroke-linejoin:miter;stroke:rgb(0%,0%,0%);stroke-opacity:1;stroke-miterlimit:22.926;" d="M 290.632273 105.865389 C 261.392978 186.12756 172.637522 227.483237 92.377855 198.251343 C 12.125589 169.016945 -29.232592 80.254088 0.00180587 0.00182159 " transform="matrix(0.160257,-0.473622,0.473622,0.160257,28.03791,195.086501)"/>
<path style="fill-rule:nonzero;fill:rgb(97.254902%,81.568627%,0%);fill-opacity:1;stroke-width:0.46;stroke-linecap:butt;stroke-linejoin:miter;stroke:rgb(0%,0%,0%);stroke-opacity:1;stroke-miterlimit:22.926;" d="M 290.631538 105.869304 L 299.997529 63.00197 L 309.367511 105.867158 " transform="matrix(0.0461332,-0.497867,0.497867,0.0461332,58.492772,220.163382)"/>
<path style="fill-rule:nonzero;fill:rgb(97.254902%,81.568627%,0%);fill-opacity:1;stroke-width:0.46;stroke-linecap:butt;stroke-linejoin:miter;stroke:rgb(0%,0%,0%);stroke-opacity:1;stroke-miterlimit:22.926;" d="M 290.630445 105.873713 C 261.395816 186.12079 172.635578 227.488711 92.377497 198.253095 C 12.125411 169.01247 -29.237502 80.258227 -0.00188532 0.000146231 " transform="matrix(0.320551,-0.383728,0.383728,0.320551,-6.026796,143.112511)"/>
<path style="fill-rule:nonzero;fill:rgb(97.254902%,81.568627%,0%);fill-opacity:1;stroke-width:0.46;stroke-linecap:butt;stroke-linejoin:miter;stroke:rgb(0%,0%,0%);stroke-opacity:1;stroke-miterlimit:22.926;" d="M 290.63226 105.87267 L 300.001053 62.996926 L 309.369838 105.871002 " transform="matrix(0.222896,-0.447568,0.447568,0.222896,13.310585,177.498763)"/>
<path style="fill-rule:nonzero;fill:rgb(97.254902%,81.568627%,0%);fill-opacity:1;stroke-width:0.46;stroke-linecap:butt;stroke-linejoin:miter;stroke:rgb(0%,0%,0%);stroke-opacity:1;stroke-miterlimit:22.926;" d="M 290.630344 105.868865 C 261.395364 186.122468 172.633976 227.484363 92.380373 198.249383 C 12.126771 169.014403 -29.235125 80.253015 -0.000144815 -0.000587348 " transform="matrix(0.437496,-0.242069,0.242069,0.437496,-19.011513,82.371316)"/>
<path style="fill-rule:nonzero;fill:rgb(97.254902%,81.568627%,0%);fill-opacity:1;stroke-width:0.46;stroke-linecap:butt;stroke-linejoin:miter;stroke:rgb(0%,0%,0%);stroke-opacity:1;stroke-miterlimit:22.926;" d="M 290.634092 105.870268 L 300.002223 62.999215 L 309.370154 105.867755 " transform="matrix(0.369486,-0.336868,0.336868,0.369486,-13.39728,121.420374)"/>
<path style="fill-rule:nonzero;fill:rgb(97.254902%,81.568627%,0%);fill-opacity:1;stroke-width:0.46;stroke-linecap:butt;stroke-linejoin:miter;stroke:rgb(0%,0%,0%);stroke-opacity:1;stroke-miterlimit:22.926;" d="M 290.625796 105.872283 C 261.397316 186.124353 172.633137 227.487044 92.382123 198.250824 C 12.12337 169.013546 -29.232638 80.258164 -0.00310077 -0.00164639 " transform="matrix(0.495402,-0.0676503,0.0676503,0.495402,-9.174134,21.012325)"/>
<path style="fill-rule:nonzero;fill:rgb(97.254902%,81.568627%,0%);fill-opacity:1;stroke-width:0.46;stroke-linecap:butt;stroke-linejoin:miter;stroke:rgb(0%,0%,0%);stroke-opacity:1;stroke-miterlimit:22.926;" d="M 290.63175 105.871583 L 300.000423 63.001712 L 309.367722 105.865827 " transform="matrix(0.466238,-0.180617,0.180617,0.466238,-18.047532,59.452036)"/>
<path style="fill-rule:nonzero;fill:rgb(97.254902%,81.568627%,0%);fill-opacity:1;stroke-width:0.46;stroke-linecap:butt;stroke-linejoin:miter;stroke:rgb(0%,0%,0%);stroke-opacity:1;stroke-miterlimit:22.926;" d="M 290.631381 105.868702 C 261.392009 186.122039 172.633916 227.488465 92.38058 198.249093 C 12.129054 169.017321 -29.237372 80.259228 0.000188539 -0.00170788 " transform="matrix(0.48638,0.115908,-0.115908,0.48638,22.167679,-32.647629)"/>
<path style="fill-rule:nonzero;fill:rgb(97.254902%,81.568627%,0%);fill-opacity:1;stroke-width:0.46;stroke-linecap:butt;stroke-linejoin:miter;stroke:rgb(0%,0%,0%);stroke-opacity:1;stroke-miterlimit:22.926;" d="M 290.629313 105.867842 L 300.00132 63 L 309.3715 105.866533 " transform="matrix(0.5,0.0000349066,-0.0000349066,0.5,0.00544579,-0.0104718)"/>
<path style="fill-rule:nonzero;fill:rgb(97.254902%,81.568627%,0%);fill-opacity:1;stroke-width:0.46;stroke-linecap:butt;stroke-linejoin:miter;stroke:rgb(0%,0%,0%);stroke-opacity:1;stroke-miterlimit:22.926;" d="M 290.631996 105.868848 C 261.394964 186.126093 172.63556 227.486383 92.378315 198.249351 C 12.125504 169.018751 -29.234786 80.259347 0.00224645 0.00210252 " transform="matrix(0.411697,0.283735,-0.283735,0.411697,70.753578,-71.345253)"/>
<path style="fill-rule:nonzero;fill:rgb(97.254902%,81.568627%,0%);fill-opacity:1;stroke-width:0.46;stroke-linecap:butt;stroke-linejoin:miter;stroke:rgb(0%,0%,0%);stroke-opacity:1;stroke-miterlimit:22.926;" d="M 290.626743 105.868322 L 300.002823 63.001712 L 309.37 105.87191 " transform="matrix(0.466244,0.180601,-0.180601,0.466244,38.300543,-48.914267)"/>
<path style="fill-rule:nonzero;fill:rgb(97.254902%,81.568627%,0%);fill-opacity:1;stroke-width:0.46;stroke-linecap:butt;stroke-linejoin:miter;stroke:rgb(0%,0%,0%);stroke-opacity:1;stroke-miterlimit:22.926;" d="M 290.631328 105.873215 C 261.394766 186.122353 172.635914 227.485318 92.375922 198.250817 C 12.126783 169.014254 -29.236182 80.255403 0.00477736 -0.000193463 " transform="matrix(0.281374,0.413315,-0.413315,0.281374,130.064982,-89.888639)"/>
<path style="fill-rule:nonzero;fill:rgb(97.254902%,81.568627%,0%);fill-opacity:1;stroke-width:0.46;stroke-linecap:butt;stroke-linejoin:miter;stroke:rgb(0%,0%,0%);stroke-opacity:1;stroke-miterlimit:22.926;" d="M 290.631596 105.867428 L 300.001023 62.999215 L 309.367658 105.870595 " transform="matrix(0.369498,0.336855,-0.336855,0.369498,91.699855,-80.69812)"/>
<path style="fill-rule:nonzero;fill:rgb(97.254902%,81.568627%,0%);fill-opacity:1;stroke-width:0.46;stroke-linecap:butt;stroke-linejoin:miter;stroke:rgb(0%,0%,0%);stroke-opacity:1;stroke-miterlimit:22.926;" d="M 290.628886 105.872723 C 261.393766 186.122332 172.635087 227.48665 92.377868 198.249764 C 12.128259 169.014644 -29.236059 80.255965 0.000827558 -0.00125419 " transform="matrix(0.113037,0.487055,-0.487055,0.113037,192.069608,-85.750261)"/>
<path style="fill-rule:nonzero;fill:rgb(97.254902%,81.568627%,0%);fill-opacity:1;stroke-width:0.46;stroke-linecap:butt;stroke-linejoin:miter;stroke:rgb(0%,0%,0%);stroke-opacity:1;stroke-miterlimit:22.926;" d="M 290.633639 105.868799 L 299.999949 63.00389 L 309.371216 105.867851 " transform="matrix(0.222833,0.447599,-0.447599,0.222833,152.97552,-91.041848)"/>
<path style="fill-rule:nonzero;fill:rgb(97.254902%,81.568627%,0%);fill-opacity:1;stroke-width:0.46;stroke-linecap:butt;stroke-linejoin:miter;stroke:rgb(0%,0%,0%);stroke-opacity:1;stroke-miterlimit:22.926;" d="M 290.628262 105.867379 C 261.392604 186.126156 172.63406 227.489036 92.383017 198.252277 C 12.12424 169.01662 -29.23864 80.258076 -0.00298243 -0.000701392 " transform="matrix(-0.0704852,0.495007,-0.495007,-0.0704852,248.36663,-59.506386)"/>
<path style="fill-rule:nonzero;fill:rgb(97.254902%,81.568627%,0%);fill-opacity:1;stroke-width:0.46;stroke-linecap:butt;stroke-linejoin:miter;stroke:rgb(0%,0%,0%);stroke-opacity:1;stroke-miterlimit:22.926;" d="M 290.62646 105.86611 L 299.997938 63.001249 L 309.370212 105.869631 " transform="matrix(0.0461505,0.497866,-0.497866,0.0461505,213.821868,-78.559155)"/>
<path style="fill-rule:nonzero;fill:rgb(97.254902%,81.568627%,0%);fill-opacity:1;stroke-width:0.46;stroke-linecap:butt;stroke-linejoin:miter;stroke:rgb(0%,0%,0%);stroke-opacity:1;stroke-miterlimit:22.926;" d="M 351 156 C 351 184.164062 328.164062 207 300 207 C 271.835938 207 249 184.164062 249 156 C 249 127.835938 271.835938 105 300 105 C 328.164062 105 351 127.835938 351 156 Z M 351 156 " transform="matrix(0.5,0,0,0.5,0,0)"/>
<path style=" stroke:none;fill-rule:nonzero;fill:rgb(9.411765%,18.823529%,43.921569%);fill-opacity:1;" d="M 0 81 L 300 81 L 300 150 L 0 150 Z M 0 81 "/>
<path style="fill:none;stroke-width:24;stroke-linecap:butt;stroke-linejoin:miter;stroke:rgb(100%,100%,100%);stroke-opacity:1;stroke-miterlimit:4;" d="M -36 168 C -16 160 4 160 24 168 C 44 176 64 176 84 168 C 104 160 124 160 144 168 C 164 176 184 176 204 168 C 224 160 245 160 267 168 C 289 176 311 176 333 168 C 355 160 376 160 396 168 C 416 176 436 176 456 168 C 476 160 496 160 516 168 C 536 176 556 176 576 168 C 596 160 616 160 636 168 " transform="matrix(0.5,0,0,0.5,0,0)"/>
<path style="fill:none;stroke-width:24;stroke-linecap:butt;stroke-linejoin:miter;stroke:rgb(100%,100%,100%);stroke-opacity:1;stroke-miterlimit:4;" d="M -36 168 C -16 160 4 160 24 168 C 44 176 64 176 84 168 C 104 160 124 160 144 168 C 164 176 184 176 204 168 C 224 160 245 160 267 168 C 289 176 311 176 333 168 C 355 160 376 160 396 168 C 416 176 436 176 456 168 C 476 160 496 160 516 168 C 536 176 556 176 576 168 C 596 160 616 160 636 168 " transform="matrix(0.5,0,0,0.5,0,24)"/>
<path style="fill:none;stroke-width:24;stroke-linecap:butt;stroke-linejoin:miter;stroke:rgb(100%,100%,100%);stroke-opacity:1;stroke-miterlimit:4;" d="M -36 168 C -16 160 4 160 24 168 C 44 176 64 176 84 168 C 104 160 124 160 144 168 C 164 176 184 176 204 168 C 224 160 245 160 267 168 C 289 176 311 176 333 168 C 355 160 376 160 396 168 C 416 176 436 176 456 168 C 476 160 496 160 516 168 C 536 176 556 176 576 168 C 596 160 616 160 636 168 " transform="matrix(0.5,0,0,0.5,0,48)"/>
</g>
</svg>
