<?xml version="1.0" encoding="UTF-8"?>
<svg xmlns="http://www.w3.org/2000/svg" xmlns:xlink="http://www.w3.org/1999/xlink" width="px" height="px" viewBox="0 0 500 300" version="1.1">
<g id="surface1">
<rect x="0" y="0" width="500" height="300" style="fill:rgb(22.745098%,45.882353%,76.862745%);fill-opacity:1;stroke:none;"/>
<path style=" stroke:none;fill-rule:nonzero;fill:rgb(80.784314%,6.666667%,14.901961%);fill-opacity:1;" d="M 0 0 L 500 0 L 500 225 L 0 225 Z M 0 0 "/>
<path style=" stroke:none;fill-rule:nonzero;fill:rgb(100%,100%,100%);fill-opacity:1;" d="M 0 0 L 500 0 L 500 150 L 0 150 Z M 0 0 "/>
<path style=" stroke:none;fill-rule:nonzero;fill:rgb(100%,77.647059%,11.764706%);fill-opacity:1;" d="M 0 0 L 500 0 L 500 75 L 0 75 Z M 0 0 "/>
<path style=" stroke:none;fill-rule:nonzero;fill:rgb(23.921569%,55.686275%,20%);fill-opacity:1;" d="M 0 300 L 250 150 L 0 0 Z M 0 300 "/>
<path style=" stroke:none;fill-rule:nonzero;fill:rgb(100%,100%,100%);fill-opacity:1;" d="M 152.5 150 C 152.5 187.277344 122.277344 217.5 85 217.5 C 47.722656 217.5 17.5 187.277344 17.5 150 C 17.5 112.722656 47.722656 82.5 85 82.5 C 122.277344 82.5 152.5 112.722656 152.5 150 Z M 152.5 150 "/>
<path style=" stroke:none;fill-rule:nonzero;fill:rgb(23.921569%,55.686275%,20%);fill-opacity:1;" d="M 182.5 150 C 182.5 187.277344 152.277344 217.5 115 217.5 C 77.722656 217.5 47.5 187.277344 47.5 150 C 47.5 112.722656 77.722656 82.5 115 82.5 C 152.277344 82.5 182.5 112.722656 182.5 150 Z M 182.5 150 "/>
<path style=" stroke:none;fill-rule:nonzero;fill:rgb(100%,100%,100%);fill-opacity:1;" d="M 100.011719 89.199219 L 107.371094 111.789062 L 88.113281 97.839844 L 111.886719 97.839844 L 92.628906 111.789062 Z M 100.011719 89.199219 "/>
<path style=" stroke:none;fill-rule:nonzero;fill:rgb(100%,100%,100%);fill-opacity:1;" d="M 100.011719 121.40625 L 107.371094 143.996094 L 88.113281 130.046875 L 111.886719 130.046875 L 92.628906 143.996094 Z M 100.011719 121.40625 "/>
<path style=" stroke:none;fill-rule:nonzero;fill:rgb(100%,100%,100%);fill-opacity:1;" d="M 100.011719 153.617188 L 107.371094 176.203125 L 88.113281 162.257812 L 111.886719 162.257812 L 92.628906 176.203125 Z M 100.011719 153.617188 "/>
<path style=" stroke:none;fill-rule:nonzero;fill:rgb(100%,100%,100%);fill-opacity:1;" d="M 100.011719 185.824219 L 107.371094 208.414062 L 88.113281 194.464844 L 111.886719 194.464844 L 92.628906 208.414062 Z M 100.011719 185.824219 "/>
</g>
</svg>
