<?xml version="1.0" encoding="UTF-8"?>
<svg xmlns="http://www.w3.org/2000/svg" xmlns:xlink="http://www.w3.org/1999/xlink" width="px" height="px" viewBox="0 0 450 300" version="1.1">
<g id="surface1">
<rect x="0" y="0" width="450" height="300" style="fill:rgb(100%,100%,100%);fill-opacity:1;stroke:none;"/>
<path style="fill-rule:nonzero;fill:rgb(0%,0%,0%);fill-opacity:1;stroke-width:2;stroke-linecap:butt;stroke-linejoin:miter;stroke:rgb(0%,0%,0%);stroke-opacity:1;stroke-miterlimit:4;" d="M -6.000093 -24.999825 L 6.000152 -25.000157 M -5.99975 -21.999937 L 5.999975 -21.999923 M -5.999927 -18.999702 L 6.000318 -19.000035 " transform="matrix(3.46687,-5.200318,5.200318,3.46687,225,150)"/>
<path style="fill-rule:nonzero;fill:rgb(0%,0%,0%);fill-opacity:1;stroke-width:2;stroke-linecap:butt;stroke-linejoin:miter;stroke:rgb(0%,0%,0%);stroke-opacity:1;stroke-miterlimit:4;" d="M -6.000318 -24.999965 L 5.999927 -25.000298 M -5.999975 -22.000077 L 5.99975 -22.000063 M -6.000152 -18.999843 L 6.000093 -19.000175 " transform="matrix(3.46687,-5.200318,5.200318,3.46687,453.814011,302.542284)"/>
<path style="fill-rule:nonzero;fill:rgb(0%,0%,0%);fill-opacity:1;stroke-width:1;stroke-linecap:butt;stroke-linejoin:miter;stroke:rgb(100%,100%,100%);stroke-opacity:1;stroke-miterlimit:4;" d="M -0.0000200356 17.000174 L 0.000141523 27.000205 " transform="matrix(3.46687,-5.200318,5.200318,3.46687,225,150)"/>
<path style=" stroke:none;fill-rule:nonzero;fill:rgb(80.392157%,18.039216%,22.745098%);fill-opacity:1;" d="M 266.601562 87.597656 C 301.066406 110.574219 310.378906 157.136719 287.402344 191.601562 C 264.425781 226.066406 217.863281 235.378906 183.398438 212.402344 C 148.933594 189.425781 139.621094 142.863281 162.597656 108.398438 C 185.574219 73.933594 232.136719 64.621094 266.601562 87.597656 Z M 266.601562 87.597656 "/>
<path style=" stroke:none;fill-rule:nonzero;fill:rgb(0%,27.843137%,62.745098%);fill-opacity:1;" d="M 162.597656 108.398438 C 151.109375 125.628906 155.765625 148.914062 172.996094 160.402344 C 190.230469 171.890625 213.511719 167.230469 225 150 C 219.253906 121.28125 237.882812 93.339844 266.601562 87.597656 C 295.324219 81.851562 323.261719 100.476562 329.007812 129.199219 Z M 162.597656 108.398438 "/>
<path style="fill-rule:nonzero;fill:rgb(0%,0%,0%);fill-opacity:1;stroke-width:2;stroke-linecap:butt;stroke-linejoin:miter;stroke:rgb(0%,0%,0%);stroke-opacity:1;stroke-miterlimit:4;" d="M -6.000152 -25.000157 L 6.000093 -24.999825 M -5.999975 -21.999923 L 5.99975 -21.999937 M -6.000318 -19.000035 L 5.999927 -18.999702 " transform="matrix(-3.46687,-5.200318,5.200318,-3.46687,225,150)"/>
<path style="fill-rule:nonzero;fill:rgb(0%,0%,0%);fill-opacity:1;stroke-width:2;stroke-linecap:butt;stroke-linejoin:miter;stroke:rgb(0%,0%,0%);stroke-opacity:1;stroke-miterlimit:4;" d="M -5.999927 -25.000298 L 6.000318 -24.999965 M -5.99975 -22.000063 L 5.999975 -22.000077 M -6.000093 -19.000175 L 6.000152 -18.999843 " transform="matrix(-3.46687,-5.200318,5.200318,-3.46687,453.814011,-2.542284)"/>
<path style="fill-rule:nonzero;fill:rgb(0%,0%,0%);fill-opacity:1;stroke-width:1;stroke-linecap:butt;stroke-linejoin:miter;stroke:rgb(100%,100%,100%);stroke-opacity:1;stroke-miterlimit:4;" d="M -0.00020104 -23.500047 L -0.0000241601 -20.499812 M 0.0000200356 17.000174 L 0.0000241601 20.499812 M 0.00020104 23.500047 L -0.000142112 26.499935 " transform="matrix(-3.46687,-5.200318,5.200318,-3.46687,225,150)"/>
</g>
</svg>
