<?xml version="1.0" encoding="UTF-8"?>
<svg xmlns="http://www.w3.org/2000/svg" xmlns:xlink="http://www.w3.org/1999/xlink" width="px" height="px" viewBox="0 0 500 300" version="1.1">
<g id="surface1">
<rect x="0" y="0" width="500" height="300" style="fill:rgb(0%,16.862745%,49.803922%);fill-opacity:1;stroke:none;"/>
<path style=" stroke:none;fill-rule:nonzero;fill:rgb(80.784314%,6.666667%,14.901961%);fill-opacity:1;" d="M 0 150 L 500 150 L 500 300 L 0 300 Z M 0 150 "/>
<path style=" stroke:none;fill-rule:nonzero;fill:rgb(100%,84.705882%,23.921569%);fill-opacity:1;" d="M 108.1875 61.144531 L 107.269531 92.394531 L 75.558594 92.394531 C 71.660156 84.808594 68.4375 78.367188 68.4375 69.644531 C 68.4375 62.347656 74.179688 56.546875 82.453125 56.546875 C 91.214844 56.546875 100.839844 59.5 108.1875 61.144531 Z M 108.1875 61.144531 "/>
<path style="fill-rule:nonzero;fill:rgb(100%,84.705882%,23.921569%);fill-opacity:1;stroke-width:1.5;stroke-linecap:round;stroke-linejoin:round;stroke:rgb(0%,0%,0%);stroke-opacity:1;stroke-miterlimit:4;" d="M 144.453125 125.15625 L 144.453125 161.234375 M 149.546875 121.476562 L 149.546875 169.515625 M 154.640625 118.953125 L 154.640625 176.179688 M 159.734375 117.773438 L 159.734375 162.648438 M 164.828125 117.546875 L 164.828125 162.875 M 169.921875 115.96875 L 169.921875 162.851562 M 175.015625 115.96875 L 175.015625 162.851562 M 180.109375 116.421875 L 180.109375 163.3125 M 185.203125 116.882812 L 185.203125 163.765625 M 190.296875 119.867188 L 190.296875 166.757812 M 195.390625 120.328125 L 195.390625 173.1875 M 200.484375 120.328125 L 200.484375 167.21875 M 205.578125 120.328125 L 205.578125 167.21875 " transform="matrix(0.5,0,0,0.5,0,0)"/>
<path style="fill-rule:nonzero;fill:rgb(0%,0%,0%);fill-opacity:1;stroke-width:1.5;stroke-linecap:round;stroke-linejoin:round;stroke:rgb(0%,0%,0%);stroke-opacity:1;stroke-miterlimit:4;" d="M 176.398438 117.921875 C 187.15625 119.695312 210.804688 130.757812 208.101562 145.726562 C 204.28125 166.9375 191.898438 158.421875 175.476562 155.375 L 163.070312 159.515625 C 158.625 164.046875 152.09375 168.195312 147.671875 162.726562 L 140.320312 162.726562 L 140.320312 191.453125 L 221.664062 191.453125 L 221.664062 122.0625 Z M 176.398438 117.921875 " transform="matrix(0.5,0,0,0.5,0,0)"/>
<path style="fill-rule:nonzero;fill:rgb(100%,84.705882%,23.921569%);fill-opacity:1;stroke-width:2;stroke-linecap:round;stroke-linejoin:round;stroke:rgb(0%,0%,0%);stroke-opacity:1;stroke-miterlimit:4;" d="M 217.757812 112.984375 C 217.757812 115.710938 215.546875 117.921875 212.8125 117.921875 C 210.085938 117.921875 207.875 115.710938 207.875 112.984375 C 207.875 110.257812 210.085938 108.046875 212.8125 108.046875 C 215.546875 108.046875 217.757812 110.257812 217.757812 112.984375 Z M 217.757812 112.984375 " transform="matrix(0.5,0,0,0.5,0,0)"/>
<path style="fill-rule:nonzero;fill:rgb(100%,84.705882%,23.921569%);fill-opacity:1;stroke-width:2;stroke-linecap:round;stroke-linejoin:round;stroke:rgb(0%,0%,0%);stroke-opacity:1;stroke-miterlimit:4;" d="M 206.65625 110.3125 C 206.65625 113.039062 204.4375 115.25 201.710938 115.25 C 198.984375 115.25 196.773438 113.039062 196.773438 110.3125 C 196.773438 107.585938 198.984375 105.367188 201.710938 105.367188 C 204.4375 105.367188 206.65625 107.585938 206.65625 110.3125 Z M 206.65625 110.3125 " transform="matrix(0.5,0,0,0.5,0,0)"/>
<path style="fill-rule:nonzero;fill:rgb(100%,84.705882%,23.921569%);fill-opacity:1;stroke-width:2;stroke-linecap:round;stroke-linejoin:round;stroke:rgb(0%,0%,0%);stroke-opacity:1;stroke-miterlimit:4;" d="M 195.390625 107.484375 C 195.390625 110.210938 193.179688 112.421875 190.453125 112.421875 C 187.71875 112.421875 185.507812 110.210938 185.507812 107.484375 C 185.507812 104.75 187.71875 102.539062 190.453125 102.539062 C 193.179688 102.539062 195.390625 104.75 195.390625 107.484375 Z M 195.390625 107.484375 " transform="matrix(0.5,0,0,0.5,0,0)"/>
<path style="fill-rule:nonzero;fill:rgb(100%,84.705882%,23.921569%);fill-opacity:1;stroke-width:2;stroke-linecap:round;stroke-linejoin:round;stroke:rgb(0%,0%,0%);stroke-opacity:1;stroke-miterlimit:4;" d="M 184.085938 105.59375 C 184.085938 108.328125 181.875 110.539062 179.140625 110.539062 C 176.414062 110.539062 174.203125 108.328125 174.203125 105.59375 C 174.203125 102.867188 176.414062 100.65625 179.140625 100.65625 C 181.875 100.65625 184.085938 102.867188 184.085938 105.59375 Z M 184.085938 105.59375 " transform="matrix(0.5,0,0,0.5,0,0)"/>
<path style="fill-rule:nonzero;fill:rgb(100%,84.705882%,23.921569%);fill-opacity:1;stroke-width:2;stroke-linecap:round;stroke-linejoin:round;stroke:rgb(0%,0%,0%);stroke-opacity:1;stroke-miterlimit:4;" d="M 172.773438 104.484375 C 172.773438 107.210938 170.5625 109.421875 167.835938 109.421875 C 165.109375 109.421875 162.898438 107.210938 162.898438 104.484375 C 162.898438 101.75 165.109375 99.539062 167.835938 99.539062 C 170.5625 99.539062 172.773438 101.75 172.773438 104.484375 Z M 172.773438 104.484375 " transform="matrix(0.5,0,0,0.5,0,0)"/>
<path style="fill-rule:nonzero;fill:rgb(100%,84.705882%,23.921569%);fill-opacity:1;stroke-width:2;stroke-linecap:round;stroke-linejoin:round;stroke:rgb(0%,0%,0%);stroke-opacity:1;stroke-miterlimit:4;" d="M 161.6875 105.109375 C 161.6875 107.84375 159.476562 110.054688 156.75 110.054688 C 154.023438 110.054688 151.8125 107.84375 151.8125 105.109375 C 151.8125 102.382812 154.023438 100.171875 156.75 100.171875 C 159.476562 100.171875 161.6875 102.382812 161.6875 105.109375 Z M 161.6875 105.109375 " transform="matrix(0.5,0,0,0.5,0,0)"/>
<path style="fill-rule:nonzero;fill:rgb(100%,84.705882%,23.921569%);fill-opacity:1;stroke-width:2;stroke-linecap:round;stroke-linejoin:round;stroke:rgb(0%,0%,0%);stroke-opacity:1;stroke-miterlimit:4;" d="M 151.117188 108.734375 C 151.117188 111.460938 148.90625 113.671875 146.179688 113.671875 C 143.453125 113.671875 141.242188 111.460938 141.242188 108.734375 C 141.242188 106 143.453125 103.789062 146.179688 103.789062 C 148.90625 103.789062 151.117188 106 151.117188 108.734375 Z M 151.117188 108.734375 " transform="matrix(0.5,0,0,0.5,0,0)"/>
<path style="fill-rule:nonzero;fill:rgb(100%,84.705882%,23.921569%);fill-opacity:1;stroke-width:2;stroke-linecap:round;stroke-linejoin:round;stroke:rgb(0%,0%,0%);stroke-opacity:1;stroke-miterlimit:4;" d="M 142.21875 115.28125 C 142.21875 118.007812 140.007812 120.21875 137.273438 120.21875 C 134.546875 120.21875 132.335938 118.007812 132.335938 115.28125 C 132.335938 112.554688 134.546875 110.34375 137.273438 110.34375 C 140.007812 110.34375 142.21875 112.554688 142.21875 115.28125 Z M 142.21875 115.28125 " transform="matrix(0.5,0,0,0.5,0,0)"/>
<path style="fill-rule:nonzero;fill:rgb(100%,84.705882%,23.921569%);fill-opacity:1;stroke-width:2;stroke-linecap:round;stroke-linejoin:round;stroke:rgb(0%,0%,0%);stroke-opacity:1;stroke-miterlimit:4;" d="M 135.898438 124.414062 C 135.898438 127.140625 133.6875 129.351562 130.953125 129.351562 C 128.226562 129.351562 126.015625 127.140625 126.015625 124.414062 C 126.015625 121.6875 128.226562 119.476562 130.953125 119.476562 C 133.6875 119.476562 135.898438 121.6875 135.898438 124.414062 Z M 135.898438 124.414062 " transform="matrix(0.5,0,0,0.5,0,0)"/>
<path style="fill-rule:nonzero;fill:rgb(100%,84.705882%,23.921569%);fill-opacity:1;stroke-width:2;stroke-linecap:round;stroke-linejoin:round;stroke:rgb(0%,0%,0%);stroke-opacity:1;stroke-miterlimit:4;" d="M 132.851562 135.15625 C 132.851562 137.882812 130.640625 140.09375 127.914062 140.09375 C 125.1875 140.09375 122.96875 137.882812 122.96875 135.15625 C 122.96875 132.429688 125.1875 130.21875 127.914062 130.21875 C 130.640625 130.21875 132.851562 132.429688 132.851562 135.15625 Z M 132.851562 135.15625 " transform="matrix(0.5,0,0,0.5,0,0)"/>
<path style="fill-rule:nonzero;fill:rgb(100%,84.705882%,23.921569%);fill-opacity:1;stroke-width:2;stroke-linecap:round;stroke-linejoin:round;stroke:rgb(0%,0%,0%);stroke-opacity:1;stroke-miterlimit:4;" d="M 132.96875 146.304688 C 132.96875 149.03125 130.757812 151.242188 128.023438 151.242188 C 125.296875 151.242188 123.085938 149.03125 123.085938 146.304688 C 123.085938 143.570312 125.296875 141.359375 128.023438 141.359375 C 130.757812 141.359375 132.96875 143.570312 132.96875 146.304688 Z M 132.96875 146.304688 " transform="matrix(0.5,0,0,0.5,0,0)"/>
<path style="fill-rule:nonzero;fill:rgb(100%,84.705882%,23.921569%);fill-opacity:1;stroke-width:2;stroke-linecap:round;stroke-linejoin:round;stroke:rgb(0%,0%,0%);stroke-opacity:1;stroke-miterlimit:4;" d="M 135.09375 157.21875 C 135.09375 159.945312 132.882812 162.15625 130.148438 162.15625 C 127.421875 162.15625 125.210938 159.945312 125.210938 157.21875 C 125.210938 154.484375 127.421875 152.273438 130.148438 152.273438 C 132.882812 152.273438 135.09375 154.484375 135.09375 157.21875 Z M 135.09375 157.21875 " transform="matrix(0.5,0,0,0.5,0,0)"/>
<path style="fill-rule:nonzero;fill:rgb(100%,84.705882%,23.921569%);fill-opacity:1;stroke-width:2;stroke-linecap:round;stroke-linejoin:round;stroke:rgb(0%,0%,0%);stroke-opacity:1;stroke-miterlimit:4;" d="M 215 119.53125 L 214.539062 125.96875 C 202.25 124.078125 184.820312 117.234375 168.585938 117.234375 C 153.578125 117.234375 141.929688 123.234375 141.929688 138.375 C 141.929688 153.289062 148.242188 166.859375 156.632812 180.65625 L 147.90625 184.789062 C 140.101562 169.617188 133.65625 156.734375 133.65625 139.289062 C 133.65625 124.695312 145.140625 110.34375 164.90625 110.34375 C 182.429688 110.34375 200.296875 116.242188 215 119.53125 Z M 215 119.53125 " transform="matrix(0.5,0,0,0.5,0,0)"/>
<path style=" stroke:none;fill-rule:nonzero;fill:rgb(100%,84.705882%,23.921569%);fill-opacity:1;" d="M 113.78125 61.144531 L 114.699219 92.394531 L 146.410156 92.394531 C 150.308594 84.808594 153.53125 78.367188 153.53125 69.644531 C 153.53125 62.347656 147.789062 56.546875 139.515625 56.546875 C 130.757812 56.546875 121.132812 59.5 113.78125 61.144531 Z M 113.78125 61.144531 "/>
<path style="fill-rule:nonzero;fill:rgb(100%,84.705882%,23.921569%);fill-opacity:1;stroke-width:1.5;stroke-linecap:round;stroke-linejoin:round;stroke:rgb(0%,0%,0%);stroke-opacity:1;stroke-miterlimit:4;" d="M 144.453625 125.15625 L 144.453625 161.234375 M 149.547375 121.476562 L 149.547375 169.515625 M 154.641125 118.953125 L 154.641125 176.179688 M 159.734875 117.773438 L 159.734875 162.648438 M 164.828625 117.546875 L 164.828625 162.875 M 169.922375 115.96875 L 169.922375 162.851562 M 175.016125 115.96875 L 175.016125 162.851562 M 180.109875 116.421875 L 180.109875 163.3125 M 185.203625 116.882812 L 185.203625 163.765625 M 190.297375 119.867188 L 190.297375 166.757812 M 195.391125 120.328125 L 195.391125 173.1875 M 200.484875 120.328125 L 200.484875 167.21875 M 205.578625 120.328125 L 205.578625 167.21875 " transform="matrix(-0.5,0,0,0.5,221.969,0)"/>
<path style="fill-rule:nonzero;fill:rgb(0%,0%,0%);fill-opacity:1;stroke-width:1.5;stroke-linecap:round;stroke-linejoin:round;stroke:rgb(0%,0%,0%);stroke-opacity:1;stroke-miterlimit:4;" d="M 176.391125 117.921875 C 187.15675 119.695312 210.805187 130.757812 208.102062 145.726562 C 204.28175 166.9375 191.898937 158.421875 175.477062 155.375 L 163.070812 159.515625 C 158.6255 164.046875 152.086437 168.195312 147.672375 162.726562 L 140.320812 162.726562 L 140.320812 191.453125 L 221.664562 191.453125 L 221.664562 122.0625 Z M 176.391125 117.921875 " transform="matrix(-0.5,0,0,0.5,221.969,0)"/>
<path style="fill-rule:nonzero;fill:rgb(100%,84.705882%,23.921569%);fill-opacity:1;stroke-width:2;stroke-linecap:round;stroke-linejoin:round;stroke:rgb(0%,0%,0%);stroke-opacity:1;stroke-miterlimit:4;" d="M 217.758312 112.984375 C 217.758312 115.710938 215.539562 117.921875 212.813 117.921875 C 210.086437 117.921875 207.8755 115.710938 207.8755 112.984375 C 207.8755 110.257812 210.086437 108.046875 212.813 108.046875 C 215.539562 108.046875 217.758312 110.257812 217.758312 112.984375 Z M 217.758312 112.984375 " transform="matrix(-0.5,0,0,0.5,221.969,0)"/>
<path style="fill-rule:nonzero;fill:rgb(100%,84.705882%,23.921569%);fill-opacity:1;stroke-width:2;stroke-linecap:round;stroke-linejoin:round;stroke:rgb(0%,0%,0%);stroke-opacity:1;stroke-miterlimit:4;" d="M 206.65675 110.3125 C 206.65675 113.039062 204.438 115.25 201.711437 115.25 C 198.984875 115.25 196.773937 113.039062 196.773937 110.3125 C 196.773937 107.585938 198.984875 105.367188 201.711437 105.367188 C 204.438 105.367188 206.65675 107.585938 206.65675 110.3125 Z M 206.65675 110.3125 " transform="matrix(-0.5,0,0,0.5,221.969,0)"/>
<path style="fill-rule:nonzero;fill:rgb(100%,84.705882%,23.921569%);fill-opacity:1;stroke-width:2;stroke-linecap:round;stroke-linejoin:round;stroke:rgb(0%,0%,0%);stroke-opacity:1;stroke-miterlimit:4;" d="M 195.391125 107.484375 C 195.391125 110.210938 193.180187 112.421875 190.453625 112.421875 C 187.71925 112.421875 185.508312 110.210938 185.508312 107.484375 C 185.508312 104.75 187.71925 102.539062 190.453625 102.539062 C 193.180187 102.539062 195.391125 104.75 195.391125 107.484375 Z M 195.391125 107.484375 " transform="matrix(-0.5,0,0,0.5,221.969,0)"/>
<path style="fill-rule:nonzero;fill:rgb(100%,84.705882%,23.921569%);fill-opacity:1;stroke-width:2;stroke-linecap:round;stroke-linejoin:round;stroke:rgb(0%,0%,0%);stroke-opacity:1;stroke-miterlimit:4;" d="M 184.086437 105.59375 C 184.086437 108.328125 181.867687 110.539062 179.141125 110.539062 C 176.414562 110.539062 174.203625 108.328125 174.203625 105.59375 C 174.203625 102.867188 176.414562 100.65625 179.141125 100.65625 C 181.867687 100.65625 184.086437 102.867188 184.086437 105.59375 Z M 184.086437 105.59375 " transform="matrix(-0.5,0,0,0.5,221.969,0)"/>
<path style="fill-rule:nonzero;fill:rgb(100%,84.705882%,23.921569%);fill-opacity:1;stroke-width:2;stroke-linecap:round;stroke-linejoin:round;stroke:rgb(0%,0%,0%);stroke-opacity:1;stroke-miterlimit:4;" d="M 172.773937 104.484375 C 172.773937 107.210938 170.563 109.421875 167.836437 109.421875 C 165.109875 109.421875 162.898937 107.210938 162.898937 104.484375 C 162.898937 101.75 165.109875 99.539062 167.836437 99.539062 C 170.563 99.539062 172.773937 101.75 172.773937 104.484375 Z M 172.773937 104.484375 " transform="matrix(-0.5,0,0,0.5,221.969,0)"/>
<path style="fill-rule:nonzero;fill:rgb(100%,84.705882%,23.921569%);fill-opacity:1;stroke-width:2;stroke-linecap:round;stroke-linejoin:round;stroke:rgb(0%,0%,0%);stroke-opacity:1;stroke-miterlimit:4;" d="M 161.688 105.109375 C 161.688 107.84375 159.477062 110.054688 156.7505 110.054688 C 154.023937 110.054688 151.805187 107.84375 151.805187 105.109375 C 151.805187 102.382812 154.023937 100.171875 156.7505 100.171875 C 159.477062 100.171875 161.688 102.382812 161.688 105.109375 Z M 161.688 105.109375 " transform="matrix(-0.5,0,0,0.5,221.969,0)"/>
<path style="fill-rule:nonzero;fill:rgb(100%,84.705882%,23.921569%);fill-opacity:1;stroke-width:2;stroke-linecap:round;stroke-linejoin:round;stroke:rgb(0%,0%,0%);stroke-opacity:1;stroke-miterlimit:4;" d="M 151.117687 108.734375 C 151.117687 111.460938 148.90675 113.671875 146.180187 113.671875 C 143.453625 113.671875 141.242687 111.460938 141.242687 108.734375 C 141.242687 106 143.453625 103.789062 146.180187 103.789062 C 148.90675 103.789062 151.117687 106 151.117687 108.734375 Z M 151.117687 108.734375 " transform="matrix(-0.5,0,0,0.5,221.969,0)"/>
<path style="fill-rule:nonzero;fill:rgb(100%,84.705882%,23.921569%);fill-opacity:1;stroke-width:2;stroke-linecap:round;stroke-linejoin:round;stroke:rgb(0%,0%,0%);stroke-opacity:1;stroke-miterlimit:4;" d="M 142.21925 115.28125 C 142.21925 118.007812 140.0005 120.21875 137.273937 120.21875 C 134.547375 120.21875 132.336437 118.007812 132.336437 115.28125 C 132.336437 112.554688 134.547375 110.34375 137.273937 110.34375 C 140.0005 110.34375 142.21925 112.554688 142.21925 115.28125 Z M 142.21925 115.28125 " transform="matrix(-0.5,0,0,0.5,221.969,0)"/>
<path style="fill-rule:nonzero;fill:rgb(100%,84.705882%,23.921569%);fill-opacity:1;stroke-width:2;stroke-linecap:round;stroke-linejoin:round;stroke:rgb(0%,0%,0%);stroke-opacity:1;stroke-miterlimit:4;" d="M 135.898937 124.414062 C 135.898937 127.140625 133.688 129.351562 130.953625 129.351562 C 128.227062 129.351562 126.016125 127.140625 126.016125 124.414062 C 126.016125 121.6875 128.227062 119.476562 130.953625 119.476562 C 133.688 119.476562 135.898937 121.6875 135.898937 124.414062 Z M 135.898937 124.414062 " transform="matrix(-0.5,0,0,0.5,221.969,0)"/>
<path style="fill-rule:nonzero;fill:rgb(100%,84.705882%,23.921569%);fill-opacity:1;stroke-width:2;stroke-linecap:round;stroke-linejoin:round;stroke:rgb(0%,0%,0%);stroke-opacity:1;stroke-miterlimit:4;" d="M 132.852062 135.15625 C 132.852062 137.882812 130.641125 140.09375 127.914562 140.09375 C 125.180187 140.09375 122.96925 137.882812 122.96925 135.15625 C 122.96925 132.429688 125.180187 130.21875 127.914562 130.21875 C 130.641125 130.21875 132.852062 132.429688 132.852062 135.15625 Z M 132.852062 135.15625 " transform="matrix(-0.5,0,0,0.5,221.969,0)"/>
<path style="fill-rule:nonzero;fill:rgb(100%,84.705882%,23.921569%);fill-opacity:1;stroke-width:2;stroke-linecap:round;stroke-linejoin:round;stroke:rgb(0%,0%,0%);stroke-opacity:1;stroke-miterlimit:4;" d="M 132.96925 146.304688 C 132.96925 149.03125 130.758312 151.242188 128.023937 151.242188 C 125.297375 151.242188 123.086437 149.03125 123.086437 146.304688 C 123.086437 143.570312 125.297375 141.359375 128.023937 141.359375 C 130.758312 141.359375 132.96925 143.570312 132.96925 146.304688 Z M 132.96925 146.304688 " transform="matrix(-0.5,0,0,0.5,221.969,0)"/>
<path style="fill-rule:nonzero;fill:rgb(100%,84.705882%,23.921569%);fill-opacity:1;stroke-width:2;stroke-linecap:round;stroke-linejoin:round;stroke:rgb(0%,0%,0%);stroke-opacity:1;stroke-miterlimit:4;" d="M 135.09425 157.21875 C 135.09425 159.945312 132.883312 162.15625 130.148937 162.15625 C 127.422375 162.15625 125.211437 159.945312 125.211437 157.21875 C 125.211437 154.484375 127.422375 152.273438 130.148937 152.273438 C 132.883312 152.273438 135.09425 154.484375 135.09425 157.21875 Z M 135.09425 157.21875 " transform="matrix(-0.5,0,0,0.5,221.969,0)"/>
<path style="fill-rule:nonzero;fill:rgb(100%,84.705882%,23.921569%);fill-opacity:1;stroke-width:2;stroke-linecap:round;stroke-linejoin:round;stroke:rgb(0%,0%,0%);stroke-opacity:1;stroke-miterlimit:4;" d="M 215.0005 119.53125 L 214.539562 125.96875 C 202.2505 124.078125 184.820812 117.234375 168.586437 117.234375 C 153.578625 117.234375 141.930187 123.234375 141.930187 138.375 C 141.930187 153.289062 148.242687 166.859375 156.633312 180.65625 L 147.90675 184.789062 C 140.102062 169.617188 133.65675 156.734375 133.65675 139.289062 C 133.65675 124.695312 145.141125 110.34375 164.90675 110.34375 C 182.422375 110.34375 200.297375 116.242188 215.0005 119.53125 Z M 215.0005 119.53125 " transform="matrix(-0.5,0,0,0.5,221.969,0)"/>
<path style="fill-rule:nonzero;fill:rgb(100%,84.705882%,23.921569%);fill-opacity:1;stroke-width:2;stroke-linecap:round;stroke-linejoin:round;stroke:rgb(0%,0%,0%);stroke-opacity:1;stroke-miterlimit:4;" d="M 221.96875 53.125 L 216.8125 62.78125 L 221.96875 72.40625 L 227.125 62.78125 Z M 221.96875 77.5 L 216.8125 87.125 L 221.96875 96.78125 L 227.125 87.125 Z M 203.585938 74.953125 L 211.71875 80.109375 L 219.820312 74.953125 L 211.71875 69.796875 Z M 224.109375 74.953125 L 232.21875 80.109375 L 240.351562 74.953125 L 232.21875 69.796875 Z M 224.109375 74.953125 " transform="matrix(0.5,0,0,0.5,0,0)"/>
<path style="fill-rule:nonzero;fill:rgb(100%,84.705882%,23.921569%);fill-opacity:1;stroke-width:2;stroke-linecap:round;stroke-linejoin:round;stroke:rgb(0%,0%,0%);stroke-opacity:1;stroke-miterlimit:4;" d="M 225.875 75.070312 C 225.875 77.226562 224.125 78.976562 221.96875 78.976562 C 219.8125 78.976562 218.0625 77.226562 218.0625 75.070312 C 218.0625 72.914062 219.8125 71.164062 221.96875 71.164062 C 224.125 71.164062 225.875 72.914062 225.875 75.070312 Z M 225.875 75.070312 " transform="matrix(0.5,0,0,0.5,0,0)"/>
<path style="fill-rule:nonzero;fill:rgb(100%,84.705882%,23.921569%);fill-opacity:1;stroke-width:2;stroke-linecap:round;stroke-linejoin:round;stroke:rgb(0%,0%,0%);stroke-opacity:1;stroke-miterlimit:4;" d="M 232.421875 100 C 232.421875 105.773438 227.742188 110.453125 221.96875 110.453125 C 216.195312 110.453125 211.515625 105.773438 211.515625 100 C 211.515625 94.226562 216.195312 89.546875 221.96875 89.546875 C 227.742188 89.546875 232.421875 94.226562 232.421875 100 Z M 232.421875 100 " transform="matrix(0.5,0,0,0.5,0,0)"/>
<path style="fill:none;stroke-width:1.5;stroke-linecap:round;stroke-linejoin:round;stroke:rgb(0%,0%,0%);stroke-opacity:1;stroke-miterlimit:4;" d="M 219.34375 89.875 C 219.34375 92.992188 219.320312 94.796875 219.3125 96.5 C 216.796875 96.609375 214.304688 96.875 211.875 97.28125 M 232.0625 97.28125 C 217.132812 85.617188 208.34375 67.773438 208.195312 48.828125 C 208.039062 29.882812 216.546875 11.90625 231.28125 0 L 231.28125 -6.625 M 218.5 6.0625 C 187.703125 16.523438 154.085938 1.148438 141.859375 -29 C 129.640625 -59.140625 143.054688 -93.59375 172.445312 -107.53125 C 201.835938 -121.476562 236.992188 -110.070312 252.609375 -81.53125 C 268.226562 -53 258.867188 -17.234375 231.28125 0 C 234.734375 0 238.109375 0.296875 241.40625 0.84375 " transform="matrix(0.5,0,0,0.5,0,0)"/>
<path style="fill-rule:nonzero;fill:rgb(100%,84.705882%,23.921569%);fill-opacity:1;stroke-width:2;stroke-linecap:round;stroke-linejoin:round;stroke:rgb(0%,0%,0%);stroke-opacity:1;stroke-miterlimit:4;" d="M 211.75 117.6875 C 210.757812 134.773438 208.742188 152.164062 202.09375 164.8125 L 212.90625 160.4375 C 216.679688 146.109375 217.476562 127.59375 218.625 118.84375 Z M 232.1875 117.6875 L 225.3125 118.84375 C 226.460938 127.59375 227.257812 146.109375 231.03125 160.4375 L 241.84375 164.8125 C 235.195312 152.164062 233.179688 134.773438 232.1875 117.6875 Z M 232.1875 117.6875 " transform="matrix(0.5,0,0,0.5,0,0)"/>
<path style="fill-rule:nonzero;fill:rgb(100%,84.705882%,23.921569%);fill-opacity:1;stroke-width:2;stroke-linecap:round;stroke-linejoin:round;stroke:rgb(0%,0%,0%);stroke-opacity:1;stroke-miterlimit:4;" d="M 221.953125 154.6875 C 209.039062 154.6875 199.554688 160.773438 198.984375 176.28125 C 195.828125 170.726562 182.476562 153.257812 170.015625 155.59375 C 162.609375 156.984375 156.0625 167.257812 157.171875 179.03125 C 151.039062 161.398438 133.0625 158.515625 119.953125 168.9375 C 131.59375 178.507812 136.773438 206.773438 146.578125 219.03125 L 297.328125 219.03125 C 307.132812 206.773438 312.34375 178.507812 323.984375 168.9375 C 310.875 158.515625 292.898438 161.398438 286.765625 179.03125 C 287.882812 167.257812 281.296875 156.984375 273.890625 155.59375 C 261.429688 153.257812 248.109375 170.726562 244.953125 176.28125 C 244.382812 160.773438 234.867188 154.6875 221.953125 154.6875 Z M 221.953125 154.6875 " transform="matrix(0.5,0,0,0.5,0,0)"/>
<path style="fill-rule:nonzero;fill:rgb(0%,0%,0%);fill-opacity:1;stroke-width:1.5;stroke-linecap:round;stroke-linejoin:round;stroke:rgb(0%,0%,0%);stroke-opacity:1;stroke-miterlimit:4;" d="M 297.109375 219.023438 C 297.109375 224.609375 263.445312 230.742188 221.96875 230.742188 C 180.492188 230.742188 146.828125 224.609375 146.828125 219.023438 C 146.828125 213.445312 180.492188 210.523438 221.96875 210.523438 C 263.445312 210.523438 297.109375 213.445312 297.109375 219.023438 Z M 297.109375 219.023438 " transform="matrix(0.5,0,0,0.5,0,0)"/>
<path style="fill-rule:nonzero;fill:rgb(100%,84.705882%,23.921569%);fill-opacity:1;stroke-width:1.5;stroke-linecap:round;stroke-linejoin:round;stroke:rgb(0%,0%,0%);stroke-opacity:1;stroke-miterlimit:4;" d="M 225.476562 114.445312 C 225.476562 116.382812 223.90625 117.945312 221.96875 117.945312 C 220.03125 117.945312 218.46875 116.382812 218.46875 114.445312 C 218.46875 112.507812 220.03125 110.9375 221.96875 110.9375 C 223.90625 110.9375 225.476562 112.507812 225.476562 114.445312 Z M 225.476562 114.445312 " transform="matrix(0.5,0,0,0.5,0,0)"/>
<path style="fill-rule:nonzero;fill:rgb(100%,84.705882%,23.921569%);fill-opacity:1;stroke-width:1.5;stroke-linecap:round;stroke-linejoin:round;stroke:rgb(0%,0%,0%);stroke-opacity:1;stroke-miterlimit:4;" d="M 225.703125 122.023438 C 225.703125 124.085938 224.03125 125.757812 221.96875 125.757812 C 219.90625 125.757812 218.234375 124.085938 218.234375 122.023438 C 218.234375 119.960938 219.90625 118.296875 221.96875 118.296875 C 224.03125 118.296875 225.703125 119.960938 225.703125 122.023438 Z M 225.703125 122.023438 " transform="matrix(0.5,0,0,0.5,0,0)"/>
<path style="fill-rule:nonzero;fill:rgb(100%,84.705882%,23.921569%);fill-opacity:1;stroke-width:1.5;stroke-linecap:round;stroke-linejoin:round;stroke:rgb(0%,0%,0%);stroke-opacity:1;stroke-miterlimit:4;" d="M 226.046875 130.1875 C 226.046875 132.4375 224.21875 134.265625 221.96875 134.265625 C 219.71875 134.265625 217.890625 132.4375 217.890625 130.1875 C 217.890625 127.929688 219.71875 126.101562 221.96875 126.101562 C 224.21875 126.101562 226.046875 127.929688 226.046875 130.1875 Z M 226.046875 130.1875 " transform="matrix(0.5,0,0,0.5,0,0)"/>
<path style="fill-rule:nonzero;fill:rgb(100%,84.705882%,23.921569%);fill-opacity:1;stroke-width:1.5;stroke-linecap:round;stroke-linejoin:round;stroke:rgb(0%,0%,0%);stroke-opacity:1;stroke-miterlimit:4;" d="M 226.625 139.257812 C 226.625 141.828125 224.539062 143.914062 221.96875 143.914062 C 219.398438 143.914062 217.3125 141.828125 217.3125 139.257812 C 217.3125 136.6875 219.398438 134.609375 221.96875 134.609375 C 224.539062 134.609375 226.625 136.6875 226.625 139.257812 Z M 226.625 139.257812 " transform="matrix(0.5,0,0,0.5,0,0)"/>
<path style="fill-rule:nonzero;fill:rgb(100%,84.705882%,23.921569%);fill-opacity:1;stroke-width:1.5;stroke-linecap:round;stroke-linejoin:round;stroke:rgb(0%,0%,0%);stroke-opacity:1;stroke-miterlimit:4;" d="M 227.078125 149.367188 C 227.078125 152.195312 224.789062 154.484375 221.96875 154.484375 C 219.148438 154.484375 216.859375 152.195312 216.859375 149.367188 C 216.859375 146.546875 219.148438 144.257812 221.96875 144.257812 C 224.789062 144.257812 227.078125 146.546875 227.078125 149.367188 Z M 227.078125 149.367188 " transform="matrix(0.5,0,0,0.5,0,0)"/>
<path style=" stroke:none;fill-rule:nonzero;fill:rgb(0%,0%,0%);fill-opacity:1;" d="M 109.96875 79.601562 C 109.691406 79.597656 109.429688 79.832031 109.5 80.273438 C 109.582031 80.796875 109.683594 81.773438 109.78125 82.429688 C 109.890625 83.175781 110.328125 82.996094 110.4375 82.414062 C 110.546875 81.835938 110.503906 81.460938 110.53125 80.382812 C 110.546875 79.84375 110.246094 79.605469 109.96875 79.601562 Z M 112 79.601562 C 111.722656 79.605469 111.421875 79.84375 111.4375 80.382812 C 111.464844 81.460938 111.421875 81.835938 111.53125 82.414062 C 111.640625 82.996094 112.078125 83.175781 112.1875 82.429688 C 112.285156 81.773438 112.386719 80.796875 112.46875 80.273438 C 112.539062 79.832031 112.277344 79.597656 112 79.601562 Z M 108.15625 79.882812 C 107.902344 79.917969 107.640625 80.175781 107.65625 80.445312 C 107.683594 80.945312 107.820312 81.542969 107.875 82.289062 C 107.929688 83.066406 108.476562 82.765625 108.53125 82.320312 C 108.585938 81.878906 108.648438 81.226562 108.59375 80.367188 C 108.574219 80.046875 108.433594 79.90625 108.265625 79.882812 C 86.207031 79.882812 68.324219 62 68.324219 39.941406 C 68.324219 17.882812 86.207031 0 108.265625 0 Z M 113.703125 79.882812 C 113.535156 79.90625 113.394531 80.046875 113.375 80.367188 C 113.320312 81.226562 113.382812 81.878906 113.4375 82.320312 C 113.492188 82.765625 114.039062 83.066406 114.09375 82.289062 C 114.148438 81.539062 114.285156 80.945312 114.3125 80.445312 C 114.328125 80.175781 114.066406 79.917969 113.8125 79.882812 C 91.753906 79.882812 73.871094 62 73.871094 39.941406 C 73.871094 17.882812 91.753906 0 113.8125 0 Z M 105.984375 80.757812 C 105.753906 80.820312 105.539062 81.097656 105.609375 81.414062 C 105.746094 82.050781 105.875 82.753906 105.875 83.398438 C 105.875 83.953125 106.347656 83.753906 106.375 83.367188 C 83.351562 89.722656 59.539062 76.210938 53.1875 53.1875 C 46.835938 30.164062 60.347656 6.351562 83.367188 0 C 83.367188 -0.558594 83.132812 -0.714844 82.898438 -0.65625 Z M 115.828125 80.757812 C 115.664062 80.804688 115.515625 80.996094 115.515625 81.414062 C 115.515625 82.160156 115.566406 82.980469 115.59375 83.367188 C 115.621094 83.753906 116.09375 83.953125 116.09375 83.398438 C 116.09375 82.753906 116.222656 82.050781 116.359375 81.414062 C 116.429688 81.097656 116.214844 80.820312 115.984375 80.757812 C 93.683594 80.757812 75.605469 62.679688 75.605469 40.378906 C 75.605469 18.078125 93.683594 0 115.984375 0 Z M 86.28125 80.84375 C 86.003906 80.835938 85.808594 81.210938 86 81.625 C 86.304688 82.289062 86.628906 82.707031 86.9375 83.421875 C 87.214844 84.058594 87.636719 83.660156 87.5 83.21875 C 87.363281 82.777344 87.210938 82.285156 86.796875 81.34375 C 86.640625 80.992188 86.449219 80.851562 86.28125 80.84375 Z M 135.6875 80.84375 C 135.523438 80.851562 135.328125 80.992188 135.171875 81.34375 C 134.757812 82.285156 134.605469 82.777344 134.46875 83.21875 C 134.332031 83.660156 134.753906 84.058594 135.03125 83.421875 C 135.339844 82.707031 135.664062 82.289062 135.96875 81.625 C 136.160156 81.210938 135.964844 80.835938 135.6875 80.84375 Z M 88.28125 80.875 C 88.078125 80.9375 87.953125 81.195312 88.078125 81.5 C 88.328125 82.109375 88.6875 82.734375 88.9375 83.390625 C 89.160156 83.972656 89.652344 83.808594 89.484375 83.28125 C 89.320312 82.757812 89.269531 82.449219 88.9375 81.453125 C 88.773438 80.957031 88.484375 80.8125 88.28125 80.875 Z M 133.53125 80.875 C 133.355469 80.914062 133.15625 81.082031 133.03125 81.453125 C 132.699219 82.449219 132.648438 82.757812 132.484375 83.28125 C 132.320312 83.808594 132.808594 83.972656 133.03125 83.390625 C 133.28125 82.734375 133.640625 82.109375 133.890625 81.5 C 134.015625 81.195312 133.890625 80.9375 133.6875 80.875 C 111.355469 80.875 93.25 62.769531 93.25 40.4375 C 93.25 18.105469 111.355469 0 133.6875 0 Z M 90.78125 81.359375 C 90.523438 81.410156 90.324219 81.800781 90.5 82.28125 C 90.722656 82.890625 91.035156 83.464844 91.3125 84.15625 C 91.589844 84.847656 92.046875 84.710938 91.9375 84.265625 C 91.828125 83.824219 91.691406 83.089844 91.359375 81.984375 C 91.214844 81.5 90.980469 81.320312 90.78125 81.359375 Z M 131.1875 81.359375 C 130.988281 81.320312 130.753906 81.5 130.609375 81.984375 C 130.277344 83.089844 130.140625 83.824219 130.03125 84.265625 C 129.921875 84.710938 130.378906 84.847656 130.65625 84.15625 C 130.933594 83.464844 131.246094 82.890625 131.46875 82.28125 C 131.644531 81.800781 131.445312 81.410156 131.1875 81.359375 Z M 84.59375 81.703125 C 84.316406 81.734375 84.0625 82.1875 84.234375 82.53125 C 84.511719 83.085938 84.6875 83.273438 84.953125 83.859375 C 85.230469 84.46875 85.53125 83.996094 85.421875 83.609375 C 85.3125 83.222656 85.167969 82.773438 85.03125 82.21875 C 84.929688 81.816406 84.761719 81.6875 84.59375 81.703125 Z M 137.375 81.703125 C 137.207031 81.6875 137.039062 81.816406 136.9375 82.21875 C 136.800781 82.773438 136.65625 83.222656 136.546875 83.609375 C 136.4375 83.996094 136.738281 84.46875 137.015625 83.859375 C 137.28125 83.273438 137.457031 83.085938 137.734375 82.53125 C 137.90625 82.1875 137.652344 81.734375 137.375 81.703125 Z M 103.859375 83.101562 C 103.566406 83.101562 103.253906 83.488281 103.359375 83.851562 C 103.523438 84.433594 103.78125 84.949219 103.96875 85.695312 C 104.132812 86.359375 104.605469 86.03125 104.578125 85.585938 C 104.550781 85.144531 104.472656 84.542969 104.28125 83.601562 C 104.207031 83.25 104.035156 83.101562 103.859375 83.101562 Z M 118.109375 83.101562 C 117.933594 83.101562 117.761719 83.25 117.6875 83.601562 C 117.492188 84.542969 117.417969 85.144531 117.390625 85.585938 C 117.363281 86.03125 117.835938 86.359375 118 85.695312 C 118.1875 84.949219 118.445312 84.433594 118.609375 83.851562 C 118.714844 83.488281 118.402344 83.101562 118.109375 83.101562 Z M 110.984375 83.695312 C 110.625 83.695312 110.574219 84.179688 110.5625 84.570312 C 110.519531 85.859375 109.988281 87.105469 109.53125 87.726562 C 109.074219 88.351562 108.402344 88.183594 107.78125 87.851562 C 107.160156 87.519531 106.789062 87.273438 106.125 86.773438 C 105.460938 86.277344 104.957031 86.566406 105.75 87.695312 C 108.058594 90.988281 110.5625 93.800781 110.5625 99.164062 C 110.5625 99.859375 110.683594 100.070312 110.984375 100.070312 C 111.285156 100.070312 111.421875 99.859375 111.421875 99.164062 C 111.421875 93.800781 113.910156 90.988281 116.21875 87.695312 C 117.011719 86.566406 116.507812 86.277344 115.84375 86.773438 C 115.179688 87.273438 114.808594 87.519531 114.1875 87.851562 C 113.566406 88.183594 112.894531 88.351562 112.4375 87.726562 C 111.980469 87.105469 111.449219 85.859375 111.40625 84.570312 C 111.394531 84.179688 111.34375 83.695312 110.984375 83.695312 Z M 93.34375 82.890625 C 70.453125 82.886719 51.902344 64.328125 51.90625 41.4375 C 51.910156 18.546875 70.46875 -0.00390625 93.359375 0 C 93.226562 0.0429688 93.136719 0.203125 93.1875 0.484375 C 93.28125 0.984375 93.628906 1.96875 93.765625 2.4375 C 93.902344 2.90625 94.480469 2.808594 94.34375 2.171875 C 94.207031 1.535156 94.214844 1.34375 94.046875 0.625 C 93.957031 0.230469 93.671875 -0.0078125 93.453125 -0.015625 Z M 128.625 82.890625 C 128.40625 82.898438 128.121094 83.140625 128.03125 83.53125 C 127.867188 84.25 127.871094 84.441406 127.734375 85.078125 C 127.597656 85.714844 128.175781 85.816406 128.3125 85.34375 C 128.449219 84.875 128.796875 83.890625 128.890625 83.390625 C 128.941406 83.113281 128.851562 82.949219 128.71875 82.90625 C 105.824219 82.910156 87.261719 64.355469 87.257812 41.460938 C 87.253906 18.566406 105.808594 0.00390625 128.703125 0 Z M 82.859375 83.09375 C 82.570312 83.117188 82.363281 83.480469 82.65625 84.015625 C 82.972656 84.59375 83.515625 85.320312 83.765625 85.734375 C 84.015625 86.148438 84.445312 85.871094 84.140625 85.34375 C 83.835938 84.820312 83.734375 84.214844 83.375 83.46875 C 83.238281 83.191406 83.03125 83.082031 82.859375 83.09375 Z M 139.109375 83.09375 C 138.933594 83.082031 138.726562 83.191406 138.59375 83.46875 C 138.234375 84.214844 138.132812 84.820312 137.828125 85.34375 C 137.523438 85.871094 137.953125 86.148438 138.203125 85.734375 C 138.453125 85.320312 138.996094 84.59375 139.3125 84.015625 C 139.605469 83.480469 139.398438 83.117188 139.109375 83.09375 Z M 67.015625 84.757812 C 66.679688 84.742188 66.578125 85.34375 66.890625 85.742188 C 67.347656 86.324219 67.664062 86.632812 68.1875 87.101562 C 68.601562 87.476562 68.722656 86.992188 68.515625 86.617188 C 68.308594 86.246094 68.007812 85.867188 67.59375 85.242188 C 67.367188 84.902344 67.167969 84.765625 67.015625 84.757812 Z M 154.953125 84.757812 C 154.800781 84.765625 154.601562 84.902344 154.375 85.242188 C 153.960938 85.867188 153.660156 86.246094 153.453125 86.617188 C 153.246094 86.992188 153.367188 87.476562 153.78125 87.101562 C 154.304688 86.632812 154.621094 86.324219 155.078125 85.742188 C 155.390625 85.34375 155.285156 84.742188 154.953125 84.757812 Z M 69.53125 85.257812 C 69.265625 85.261719 69.089844 85.460938 69.296875 85.914062 C 69.59375 86.570312 69.984375 87.308594 70.234375 87.804688 C 70.484375 88.304688 71.242188 88.472656 70.9375 87.695312 C 70.632812 86.921875 70.574219 86.523438 70.296875 85.804688 C 70.160156 85.445312 69.796875 85.253906 69.53125 85.257812 Z M 152.4375 85.257812 C 152.171875 85.253906 151.808594 85.445312 151.671875 85.804688 C 151.394531 86.523438 151.335938 86.921875 151.03125 87.695312 C 150.726562 88.472656 151.484375 88.304688 151.734375 87.804688 C 151.984375 87.308594 152.375 86.570312 152.671875 85.914062 C 152.878906 85.460938 152.703125 85.261719 152.4375 85.257812 Z M 64.65625 85.429688 C 64.269531 85.433594 64.238281 85.824219 64.578125 86.070312 C 65.035156 86.402344 65.578125 86.773438 66.109375 87.195312 C 66.730469 87.695312 66.972656 87.238281 66.640625 86.820312 C 66.308594 86.40625 65.984375 85.988281 65.15625 85.570312 C 64.949219 85.46875 64.785156 85.429688 64.65625 85.429688 Z M 157.3125 85.429688 C 157.183594 85.429688 157.019531 85.46875 156.8125 85.570312 C 155.984375 85.988281 155.660156 86.40625 155.328125 86.820312 C 154.996094 87.238281 155.238281 87.695312 155.859375 87.195312 C 156.390625 86.773438 156.933594 86.402344 157.390625 86.070312 C 157.734375 85.824219 157.699219 85.433594 157.3125 85.429688 Z M 102.484375 85.789062 C 102.269531 85.820312 102.082031 86.066406 102.171875 86.382812 C 102.335938 86.964844 102.527344 87.578125 102.640625 88.179688 C 102.75 88.761719 103.421875 88.769531 103.3125 88.242188 C 103.203125 87.71875 103.148438 87.0625 102.953125 86.257812 C 102.878906 85.957031 102.730469 85.8125 102.578125 85.789062 C 78.886719 85.789062 59.683594 66.585938 59.683594 42.894531 C 59.683594 19.203125 78.886719 0 102.578125 0 Z M 119.390625 85.789062 C 119.238281 85.8125 119.089844 85.957031 119.015625 86.257812 C 118.824219 87.0625 118.765625 87.71875 118.65625 88.242188 C 118.546875 88.769531 119.21875 88.761719 119.328125 88.179688 C 119.441406 87.578125 119.632812 86.964844 119.796875 86.382812 C 119.886719 86.066406 119.699219 85.820312 119.484375 85.789062 C 95.792969 85.789062 76.589844 66.585938 76.589844 42.894531 C 76.589844 19.203125 95.792969 0 119.484375 0 Z M 87.4375 84.796875 C 87.265625 84.84375 87.167969 85.171875 87.296875 85.625 C 88.003906 88.15625 88.21875 89.488281 88.09375 90.109375 C 87.96875 90.734375 87.628906 90.816406 87.171875 90.609375 C 62.152344 90.832031 41.6875 70.726562 41.46875 45.703125 C 41.25 20.683594 61.355469 0.21875 86.375 0 C 85.960938 -0.289062 85.527344 0.0585938 86.125 0.546875 C 89.152344 3.035156 91.25 5.878906 92.0625 9.328125 C 92.226562 10.03125 92.671875 10.117188 92.546875 9.328125 C 91.859375 4.984375 91.730469 1.410156 92.765625 -0.828125 C 93.15625 -1.671875 92.761719 -2.476562 92.140625 -1.109375 C 91.726562 -0.195312 91.054688 0.164062 90.515625 -0.625 C 89.976562 -1.414062 88.863281 -3.515625 88.53125 -4.46875 C 88.40625 -4.828125 88.253906 -4.992188 88.125 -5.015625 C 89.511719 -5.015625 90.632812 -3.894531 90.632812 -2.507812 C 90.632812 -1.121094 89.511719 0 88.125 0 Z M 134.453125 84.796875 C 134.324219 84.820312 134.171875 84.988281 134.046875 85.34375 C 133.714844 86.296875 132.601562 88.402344 132.0625 89.1875 C 131.523438 89.976562 130.851562 89.617188 130.4375 88.703125 C 129.816406 87.335938 129.421875 88.144531 129.8125 88.984375 C 130.847656 91.226562 130.71875 94.796875 130.03125 99.140625 C 129.90625 99.929688 130.351562 99.847656 130.515625 99.140625 C 131.328125 95.691406 133.425781 92.847656 136.453125 90.359375 C 137.050781 89.871094 136.617188 89.523438 136.203125 89.8125 C 135.789062 90.101562 135.253906 90.402344 134.796875 90.609375 C 134.339844 90.816406 134 90.734375 133.875 90.109375 C 133.75 89.488281 133.96875 88.15625 134.671875 85.625 C 134.800781 85.171875 134.699219 84.84375 134.53125 84.796875 C 111.113281 84.796875 92.132812 65.816406 92.132812 42.398438 C 92.132812 18.984375 111.113281 0 134.53125 0 Z M 72.21875 86.007812 C 71.945312 86.011719 71.71875 86.203125 71.84375 86.617188 C 72.042969 87.28125 72.457031 88 72.59375 88.414062 C 72.730469 88.832031 73.175781 88.636719 73.09375 88.054688 C 73.011719 87.476562 72.96875 87.128906 72.859375 86.492188 C 72.804688 86.175781 72.492188 86.003906 72.21875 86.007812 Z M 149.75 86.007812 C 149.476562 86.003906 149.164062 86.175781 149.109375 86.492188 C 149 87.128906 148.957031 87.476562 148.875 88.054688 C 148.792969 88.636719 149.238281 88.828125 149.375 88.414062 C 149.511719 88 149.925781 87.28125 150.125 86.617188 C 150.25 86.203125 150.023438 86.011719 149.75 86.007812 Z M 81.609375 85.140625 C 81.292969 85.085938 81.246094 85.902344 81.515625 86.234375 C 81.875 86.679688 82.375 87.210938 82.875 87.8125 C 83.289062 88.3125 83.546875 87.867188 83.296875 87.453125 C 83.046875 87.039062 82.679688 86.597656 82.015625 85.546875 C 81.847656 85.285156 81.714844 85.160156 81.609375 85.140625 Z M 140.359375 85.140625 C 140.253906 85.160156 140.121094 85.285156 139.953125 85.546875 C 139.289062 86.597656 138.921875 87.039062 138.671875 87.453125 C 138.421875 87.867188 138.679688 88.3125 139.09375 87.8125 C 139.59375 87.210938 140.09375 86.679688 140.453125 86.234375 C 140.722656 85.902344 140.675781 85.085938 140.359375 85.140625 Z M 74.359375 87.117188 C 74.164062 87.105469 73.996094 87.265625 74.078125 87.664062 C 74.195312 88.222656 74.363281 88.6875 74.5 89.210938 C 74.636719 89.738281 75 89.648438 75 89.148438 C 75 88.652344 74.910156 88.097656 74.828125 87.570312 C 74.785156 87.308594 74.554688 87.132812 74.359375 87.117188 Z M 147.609375 87.117188 C 147.414062 87.132812 147.183594 87.308594 147.140625 87.570312 C 147.058594 88.097656 146.96875 88.652344 146.96875 89.148438 C 146.96875 89.648438 147.332031 89.738281 147.46875 89.210938 C 147.605469 88.6875 147.773438 88.222656 147.890625 87.664062 C 147.972656 87.265625 147.804688 87.105469 147.609375 87.117188 Z M 80.90625 87.828125 C 80.597656 87.875 80.324219 88.175781 80.6875 88.640625 C 81.269531 89.386719 81.902344 89.910156 82.125 90.1875 C 82.347656 90.464844 82.90625 90.363281 82.546875 89.78125 C 82.179688 89.1875 81.625 88.472656 81.375 88.03125 C 81.28125 87.867188 81.09375 87.800781 80.90625 87.828125 Z M 140.9375 87.828125 C 140.800781 87.84375 140.664062 87.90625 140.59375 88.03125 C 140.34375 88.472656 139.789062 89.1875 139.421875 89.78125 C 139.0625 90.363281 139.621094 90.464844 139.84375 90.1875 C 140.066406 89.910156 140.699219 89.386719 141.28125 88.640625 C 141.644531 88.175781 141.371094 87.875 141.0625 87.828125 C 116.808594 87.828125 97.148438 68.167969 97.148438 43.914062 C 97.148438 19.660156 116.808594 0 141.0625 0 Z M 70.578125 89.914062 C 70.335938 89.894531 70.25 90.089844 70.578125 90.539062 C 71.324219 91.5625 72.148438 93.113281 72.203125 93.773438 C 72.257812 94.4375 71.929688 94.429688 71.625 94.429688 C 70.710938 94.429688 70.265625 93.765625 69.4375 93.570312 C 68.609375 93.378906 68.488281 93.816406 69.078125 94.242188 C 72.121094 96.457031 75.167969 98.921875 76.390625 101.164062 C 76.886719 102.078125 77.558594 102.410156 77.1875 101.539062 C 76.042969 98.871094 75.765625 96.613281 76.015625 95.242188 C 76.265625 93.875 76.605469 92.953125 76.5625 92.164062 C 76.519531 91.378906 76.074219 91.429688 75.890625 92.164062 C 75.765625 92.664062 75.527344 93.324219 75.359375 93.570312 C 75.195312 93.820312 74.527344 93.960938 73.890625 93.101562 C 73.253906 92.246094 71.652344 90.59375 71.125 90.179688 C 70.929688 90.027344 70.726562 89.929688 70.578125 89.914062 Z M 151.390625 89.914062 C 151.242188 89.929688 151.039062 90.027344 150.84375 90.179688 C 150.320312 90.597656 148.714844 92.246094 148.078125 93.101562 C 147.441406 93.960938 146.773438 93.820312 146.609375 93.570312 C 146.445312 93.324219 146.203125 92.664062 146.078125 92.164062 C 145.894531 91.429688 145.449219 91.378906 145.40625 92.164062 C 145.363281 92.953125 145.703125 93.875 145.953125 95.242188 C 146.203125 96.613281 145.925781 98.871094 144.78125 101.539062 C 144.40625 102.410156 145.082031 102.078125 145.578125 101.164062 C 146.800781 98.921875 149.847656 96.457031 152.890625 94.242188 C 153.480469 93.816406 153.359375 93.378906 152.53125 93.570312 C 151.703125 93.765625 151.257812 94.429688 150.34375 94.429688 C 150.039062 94.429688 149.710938 94.4375 149.765625 93.773438 C 149.820312 93.113281 150.644531 91.5625 151.390625 90.539062 C 151.71875 90.089844 151.636719 89.894531 151.390625 89.914062 Z M 151.390625 89.914062 "/>
<path style="fill-rule:nonzero;fill:rgb(100%,84.705882%,23.921569%);fill-opacity:1;stroke-width:1.5;stroke-linecap:round;stroke-linejoin:round;stroke:rgb(0%,0%,0%);stroke-opacity:1;stroke-miterlimit:4;" d="M 150.125 212.648438 L 152.078125 218.828125 M 154.140625 211.484375 L 155.867188 217.71875 M 158.46875 210.765625 L 159.65625 217.132812 M 162.492188 209.960938 L 163.757812 216.3125 M 167.648438 209.453125 L 168.679688 215.84375 M 173.132812 209.460938 L 174.242188 215.84375 M 178.484375 207.648438 L 179.289062 214.078125 M 183.523438 207.976562 L 184.320312 214.398438 M 188.398438 207.328125 L 189.195312 213.75 M 193.289062 206.820312 L 193.726562 213.28125 M 198.515625 206.820312 L 198.898438 213.28125 M 203.257812 206.492188 L 203.585938 212.960938 M 208.484375 206.164062 L 208.757812 212.640625 M 214.492188 206.007812 L 214.765625 212.476562 M 293.8125 212.648438 L 291.859375 218.828125 M 289.804688 211.484375 L 288.070312 217.71875 M 285.46875 210.765625 L 284.28125 217.132812 M 281.445312 209.960938 L 280.179688 216.3125 M 276.289062 209.453125 L 275.257812 215.84375 M 270.804688 209.460938 L 269.695312 215.84375 M 265.453125 207.648438 L 264.648438 214.078125 M 260.414062 207.976562 L 259.609375 214.398438 M 255.546875 207.328125 L 254.742188 213.75 M 250.648438 206.820312 L 250.210938 213.28125 M 245.421875 206.820312 L 245.039062 213.28125 M 240.679688 206.492188 L 240.351562 212.960938 M 235.453125 206.164062 L 235.179688 212.640625 M 229.445312 206.007812 L 229.171875 212.476562 M 221.96875 205.585938 L 221.96875 212.703125 " transform="matrix(0.5,0,0,0.5,0,0)"/>
</g>
</svg>
