<?xml version="1.0" encoding="UTF-8"?>
<svg xmlns="http://www.w3.org/2000/svg" xmlns:xlink="http://www.w3.org/1999/xlink" width="px" height="px" viewBox="0 0 600 300" version="1.1">
<g id="surface1">
<rect x="0" y="0" width="600" height="300" style="fill:rgb(100%,74.509804%,16.078431%);fill-opacity:1;stroke:none;"/>
<path style=" stroke:none;fill-rule:nonzero;fill:rgb(92.156863%,45.490196%,0%);fill-opacity:1;" d="M 25 25 L 190 25 L 190 275 L 25 275 Z M 25 25 "/>
<path style=" stroke:none;fill-rule:nonzero;fill:rgb(0%,32.54902%,30.588235%);fill-opacity:1;" d="M 25 25 L 107.5 25 L 107.5 275 L 25 275 Z M 25 25 "/>
<path style=" stroke:none;fill-rule:nonzero;fill:rgb(55.294118%,8.235294%,22.745098%);fill-opacity:1;" d="M 215 25 L 577.5 25 L 577.5 275 L 215 275 Z M 215 25 "/>
<path style="fill-rule:nonzero;fill:rgb(100%,74.509804%,16.078431%);fill-opacity:1;stroke-width:2.126;stroke-linecap:butt;stroke-linejoin:miter;stroke:rgb(0%,0%,0%);stroke-opacity:1;stroke-miterlimit:4;" d="M 1086.101562 466.0625 C 1086.101562 466.0625 1092.898438 479.898438 1100.40625 485.539062 C 1111.539062 493.898438 1134.351562 493.289062 1144.039062 503.039062 C 1155.640625 514.53125 1143.140625 529.71875 1143.242188 531.039062 L 1143.875 539.0625 C 1143.875 539.0625 1136.054688 539.15625 1132.757812 539.671875 C 1127.804688 540.4375 1125.875 544.46875 1116.648438 543.875 C 1093.460938 542.367188 1094.398438 521.476562 1093.085938 503.625 C 1091.921875 496.828125 1089.226562 487.960938 1087.695312 481.164062 C 1086.382812 475.335938 1086.101562 466.0625 1086.101562 466.0625 Z M 1086.101562 466.0625 " transform="matrix(0.5,0,0,0.5,0,0)"/>
<path style="fill-rule:nonzero;fill:rgb(100%,74.509804%,16.078431%);fill-opacity:1;stroke-width:2.126;stroke-linecap:butt;stroke-linejoin:miter;stroke:rgb(0%,0%,0%);stroke-opacity:1;stroke-miterlimit:4;" d="M 1086.101562 466.0625 C 1086.101562 466.0625 1092.898438 479.898438 1100.40625 485.539062 C 1111.539062 493.898438 1134.351562 493.289062 1144.039062 503.039062 C 1155.640625 514.53125 1143.140625 529.71875 1143.242188 531.039062 L 1143.875 539.0625 C 1143.875 539.0625 1136.054688 539.15625 1132.757812 539.671875 C 1127.804688 540.4375 1125.875 544.46875 1116.648438 543.875 C 1093.460938 542.367188 1094.398438 521.476562 1093.085938 503.625 C 1091.921875 496.828125 1089.226562 487.960938 1087.695312 481.164062 C 1086.382812 475.335938 1086.101562 466.0625 1086.101562 466.0625 Z M 1086.101562 466.0625 " transform="matrix(-0.5,0,0,0.5,792.5,0)"/>
<path style="fill-rule:nonzero;fill:rgb(100%,74.509804%,16.078431%);fill-opacity:1;stroke-width:2.126;stroke-linecap:butt;stroke-linejoin:miter;stroke:rgb(0%,0%,0%);stroke-opacity:1;stroke-miterlimit:4;" d="M 1086.101562 466.0625 C 1086.101562 466.0625 1092.898438 479.898438 1100.40625 485.539062 C 1111.539062 493.898438 1134.351562 493.289062 1144.039062 503.039062 C 1155.640625 514.53125 1143.140625 529.71875 1143.242188 531.039062 L 1143.875 539.0625 C 1143.875 539.0625 1136.054688 539.15625 1132.757812 539.671875 C 1127.804688 540.4375 1125.875 544.46875 1116.648438 543.875 C 1093.460938 542.367188 1094.398438 521.476562 1093.085938 503.625 C 1091.921875 496.828125 1089.226562 487.960938 1087.695312 481.164062 C 1086.382812 475.335938 1086.101562 466.0625 1086.101562 466.0625 Z M 1086.101562 466.0625 " transform="matrix(0.5,0,0,-0.5,0,300)"/>
<path style="fill-rule:nonzero;fill:rgb(100%,74.509804%,16.078431%);fill-opacity:1;stroke-width:2.126;stroke-linecap:butt;stroke-linejoin:miter;stroke:rgb(0%,0%,0%);stroke-opacity:1;stroke-miterlimit:4;" d="M 1086.101562 466.0625 C 1086.101562 466.0625 1092.898438 479.898438 1100.40625 485.539063 C 1111.539062 493.898438 1134.351562 493.289063 1144.039062 503.039063 C 1155.640625 514.53125 1143.140625 529.71875 1143.242188 531.039062 L 1143.875 539.0625 C 1143.875 539.0625 1136.054688 539.15625 1132.757812 539.671875 C 1127.804688 540.4375 1125.875 544.46875 1116.648438 543.875 C 1093.460938 542.367188 1094.398438 521.476562 1093.085938 503.625 C 1091.921875 496.828125 1089.226562 487.960938 1087.695312 481.164063 C 1086.382812 475.335938 1086.101562 466.0625 1086.101562 466.0625 Z M 1086.101562 466.0625 " transform="matrix(-0.5,0.000000000000000061,-0.000000000000000061,-0.5,792.5,300)"/>
<path style="fill-rule:nonzero;fill:rgb(100%,74.509804%,16.078431%);fill-opacity:1;stroke-width:5.56;stroke-linecap:butt;stroke-linejoin:miter;stroke:rgb(0%,0%,0%);stroke-opacity:1;stroke-miterlimit:4;" d="M 681.539062 479.5625 L 685.898438 477.046875 L 687.765625 479.5625 C 690.25 482.921875 697.125 482.882812 701.6875 479.484375 L 705.171875 476.890625 L 708.09375 479.484375 C 711.9375 482.90625 719.109375 482.90625 723.6875 479.5 C 726.890625 477.109375 727.335938 477.0625 729.460938 478.882812 C 730.71875 479.960938 734.429688 481.195312 737.695312 481.617188 C 743.578125 482.382812 743.664062 482.34375 747.109375 477.179688 C 749.992188 472.851562 750.445312 471.101562 749.757812 466.90625 C 749.296875 464.132812 748.804688 459.65625 748.664062 456.960938 C 748.398438 452.09375 748.429688 452.0625 755.523438 449.59375 C 759.4375 448.226562 763.976562 446.398438 765.601562 445.53125 C 768.429688 444.007812 776.242188 434.828125 776.242188 433.023438 C 776.242188 432.539062 773.1875 431.804688 769.460938 431.390625 C 754.625 429.726562 752.117188 421.757812 761.757812 406.96875 C 777.484375 382.835938 786.976562 359.34375 787.039062 344.375 C 787.0625 337.679688 787.445312 335.4375 788.304688 336.890625 C 791.820312 342.835938 785.523438 367.765625 775.992188 385.671875 L 772.148438 392.882812 L 775.8125 392.039062 C 777.828125 391.570312 789.671875 386.578125 802.140625 380.929688 C 836.257812 365.476562 847.96875 362.453125 870.046875 363.382812 C 888.546875 364.15625 896.421875 367.773438 909.484375 381.46875 C 916.40625 388.726562 923.070312 393.921875 935.257812 401.546875 C 961.234375 417.8125 962.320312 419.21875 963.554688 438.335938 C 964.804688 457.710938 964.179688 458.765625 949.53125 462 C 937.007812 464.765625 929.15625 470.601562 927.046875 478.71875 C 925.921875 483.046875 928.289062 483.171875 934.601562 479.117188 L 939.234375 476.140625 L 941.289062 479.117188 C 943.992188 483.023438 949.742188 483.039062 954.515625 479.148438 L 958.125 476.210938 L 961.8125 479.148438 C 967.539062 483.71875 975.15625 482.609375 977.3125 476.898438 C 977.726562 475.804688 978.828125 476.15625 981.0625 478.09375 C 985.242188 481.734375 995.976562 483.289062 997.132812 480.429688 C 997.570312 479.34375 996.734375 476.648438 995.265625 474.445312 C 989.023438 465.085938 987.070312 460.617188 986.992188 455.523438 C 986.875 448.4375 988.992188 445.023438 997.046875 439.257812 C 1006.84375 432.257812 1009.867188 423.226562 1002.421875 423.226562 C 997.820312 423.226562 993.1875 419.15625 990.234375 412.539062 C 984.226562 399.078125 985.40625 383.984375 994.421875 358.882812 C 1003.578125 333.382812 1004.59375 328.679688 1004.632812 311.625 C 1004.664062 297.835938 1004.3125 295.453125 1001.179688 287.890625 C 999.257812 283.265625 995.367188 276.382812 992.523438 272.59375 L 987.367188 265.703125 L 993.992188 260.21875 C 1014.226562 243.453125 1010.085938 216.015625 985.726562 205.445312 C 978.28125 202.210938 976.414062 201.929688 963.359375 202.015625 C 955.523438 202.070312 943.578125 203.101562 936.8125 204.304688 C 929.914062 205.539062 918.234375 206.523438 910.226562 206.5625 C 897.5 206.609375 895.34375 206.296875 890.4375 203.6875 C 885.328125 200.96875 884.445312 199.671875 883.445312 193.382812 C 883.242188 192.085938 882.335938 190.796875 881.4375 190.515625 C 879.695312 189.96875 871.664062 196.9375 870.476562 200.023438 C 869.890625 201.546875 869.414062 201.445312 867.695312 199.414062 C 866.5625 198.0625 864.96875 194.960938 864.15625 192.523438 C 862.132812 186.390625 864.625 181.789062 871.835938 178.34375 L 877.429688 175.671875 L 874.132812 173.617188 C 867.320312 169.398438 855.742188 172.289062 851.554688 179.257812 C 850.375 181.226562 849.078125 182.84375 848.6875 182.851562 C 848.289062 182.851562 846.039062 180.96875 843.6875 178.671875 C 834.890625 170.078125 837.921875 157.375 849.671875 153.492188 C 855.945312 151.421875 861.492188 153 862.648438 157.179688 C 864.40625 163.5625 869.890625 155.171875 868.90625 147.601562 C 868.25 142.5625 868.351562 142.382812 871.835938 142.382812 C 876.679688 142.382812 887 148.75 890.195312 153.703125 C 893.898438 159.460938 893.632812 168.53125 889.546875 175.289062 L 886.34375 180.59375 L 890.539062 179.75 C 896.679688 178.523438 902.648438 174.703125 905.664062 170.078125 C 908.859375 165.1875 909.203125 155.664062 906.375 150.523438 C 903.632812 145.546875 903.945312 144.75 908 146.4375 C 914.898438 149.296875 918.585938 152.453125 921.351562 157.867188 C 923.835938 162.742188 923.976562 163.953125 922.632812 169.023438 C 921.796875 172.15625 919.945312 176.265625 918.515625 178.171875 C 916.289062 181.132812 916.210938 181.632812 917.984375 181.632812 C 921.296875 181.632812 928.195312 178.5 930.648438 175.890625 C 931.882812 174.578125 933.6875 171.328125 934.65625 168.679688 L 936.421875 163.867188 L 938.445312 167.53125 C 941.304688 172.726562 946.867188 177.398438 953.648438 180.304688 C 960.9375 183.429688 963.976562 183.609375 960.164062 180.6875 C 957.59375 178.710938 952.851562 164.804688 954.289062 163.445312 C 955.132812 162.648438 965.03125 170.265625 976.34375 180.414062 C 987.03125 190.015625 993.757812 193.15625 1003.578125 193.15625 C 1016.125 193.15625 1023.429688 182.234375 1017.789062 171.90625 C 1014.507812 165.890625 1007.179688 165.054688 1002.898438 170.210938 C 1000.929688 172.578125 1000.382812 174.46875 1000.960938 176.953125 C 1001.671875 180 1001.390625 180.40625 998.617188 180.40625 C 994.96875 180.40625 987.78125 175.742188 975.015625 165.085938 C 955.539062 148.835938 931.882812 135.0625 914.796875 130.03125 C 903.835938 126.804688 880.414062 125.546875 869.273438 127.585938 C 857.210938 129.789062 842.9375 136.695312 835.171875 144.085938 C 821.398438 157.179688 821.179688 174.601562 834.585938 190.46875 L 838.429688 195.015625 L 835.828125 199.054688 C 832.046875 204.929688 832.367188 212.835938 836.632812 218.664062 C 838.507812 221.226562 840.398438 223.328125 840.84375 223.328125 C 841.273438 223.328125 841.757812 221.679688 841.90625 219.664062 C 842.28125 214.5625 844.46875 211.148438 848.226562 209.796875 C 851.601562 208.578125 853.789062 209.15625 869.273438 215.335938 C 885.5625 221.835938 912.351562 222.28125 940.835938 216.53125 C 954.796875 213.710938 971.265625 213.875 978.507812 216.90625 C 991.789062 222.46875 994.867188 236.945312 985.101562 247.929688 C 980.882812 252.6875 976.804688 254.625 963.125 258.382812 C 952.710938 261.234375 950.242188 261.429688 926.578125 261.1875 C 906.359375 260.984375 899.09375 261.375 890.84375 263.101562 C 881.882812 264.96875 876.375 265.15625 850.054688 264.492188 L 819.625 263.726562 L 822.992188 266.523438 C 824.851562 268.0625 827.476562 269.953125 828.820312 270.726562 C 831.117188 272.039062 831.039062 272.21875 827.632812 273.484375 C 825.625 274.226562 821.171875 274.835938 817.742188 274.835938 L 811.5 274.835938 L 810.65625 280.140625 C 810.195312 283.0625 810.234375 286.46875 810.734375 287.710938 C 811.476562 289.546875 811.203125 289.8125 809.265625 289.109375 C 807.953125 288.632812 804.296875 287.695312 801.140625 287.023438 C 797.984375 286.351562 793.734375 284.992188 791.695312 283.992188 C 788.273438 282.3125 787.890625 282.359375 786.632812 284.59375 C 785.507812 286.585938 774.929688 294.453125 773.375 294.453125 C 773.125 294.453125 772.804688 292.9375 772.65625 291.085938 C 772.515625 289.226562 770.984375 284.398438 769.265625 280.351562 C 767.546875 276.304688 765.75 271.890625 765.273438 270.546875 C 764.5625 268.507812 764.234375 268.40625 763.367188 269.929688 C 762.796875 270.945312 761.960938 273.703125 761.515625 276.0625 C 761.0625 278.421875 759.46875 282.257812 757.96875 284.585938 L 755.25 288.8125 L 753.507812 285.195312 C 751.640625 281.3125 748.546875 277.289062 747.429688 277.289062 C 747.046875 277.289062 746.40625 278.53125 745.992188 280.046875 C 745.140625 283.21875 737.796875 292.007812 736.007812 292.007812 C 735.34375 292.007812 734.804688 289.523438 734.804688 286.484375 C 734.804688 283.453125 734.21875 280.96875 733.507812 280.96875 C 732.796875 280.96875 732.210938 281.75 732.210938 282.710938 C 732.210938 285.046875 725.945312 292.007812 723.84375 292.007812 C 722.921875 292.007812 721.445312 292.828125 720.5625 293.84375 C 718.25 296.484375 716.359375 296.109375 717.328125 293.210938 C 717.78125 291.851562 717.492188 288.679688 716.671875 286.15625 L 714.734375 280.203125 C 714.429688 279.25 712.179688 279.5 707.429688 281.023438 C 699.742188 283.492188 697.164062 283.054688 701.117188 279.960938 C 702.5625 278.828125 704.757812 274.90625 706 271.25 C 707.242188 267.585938 709.070312 264.34375 710.070312 264.03125 C 711.46875 263.601562 711.390625 264.132812 709.75 266.359375 C 708.570312 267.945312 707.609375 270.09375 707.601562 271.125 C 707.601562 272.148438 706.710938 274.59375 705.640625 276.546875 C 704.5625 278.507812 703.882812 280.296875 704.132812 280.53125 C 704.382812 280.773438 707.304688 279.65625 710.632812 278.070312 L 716.671875 275.171875 L 716.703125 277.757812 C 716.710938 279.1875 717.445312 282.945312 718.320312 286.117188 L 719.914062 291.890625 L 724.023438 289.992188 C 728.234375 288.0625 732.210938 281.171875 732.210938 275.828125 C 732.210938 273.195312 733.726562 273.59375 734.34375 276.40625 C 734.53125 277.226562 735.476562 280.320312 736.453125 283.273438 L 738.234375 288.640625 L 741.054688 285.25 C 742.601562 283.390625 744.546875 279.726562 745.367188 277.125 C 746.796875 272.59375 749.046875 270.648438 749.046875 273.9375 C 749.046875 276.304688 755.507812 284.796875 756.757812 284.070312 C 757.359375 283.71875 758.5625 280.53125 759.421875 276.984375 C 761.21875 269.617188 764.117188 264.601562 765.960938 265.679688 C 766.648438 266.085938 766.921875 266.875 766.5625 267.429688 C 766.195312 267.984375 767.6875 272.78125 769.867188 278.078125 C 772.046875 283.375 774.242188 288.710938 774.734375 289.929688 C 775.53125 291.898438 776.25 291.609375 780.929688 287.476562 C 783.84375 284.90625 786.484375 282.03125 786.804688 281.085938 C 787.28125 279.65625 787.929688 279.703125 790.65625 281.398438 C 794.460938 283.757812 807.257812 287.5625 808.25 286.625 C 808.617188 286.273438 809 282.914062 809.09375 279.15625 L 809.257812 272.328125 L 812.9375 273.09375 C 814.96875 273.507812 819.21875 273.484375 822.398438 273.03125 L 828.179688 272.210938 L 823.03125 268.679688 C 820.195312 266.734375 817.335938 264.21875 816.664062 263.09375 C 815.953125 261.890625 813.429688 260.867188 810.578125 260.625 C 802.859375 259.96875 789.1875 252.296875 789.1875 248.625 C 789.1875 247.9375 791.085938 249.109375 793.398438 251.234375 C 798.53125 255.9375 805.671875 258.890625 811.898438 258.890625 L 816.5625 258.890625 L 813.671875 255.054688 C 812.015625 252.851562 810.53125 248.671875 810.1875 245.234375 C 809.625 239.75 809.046875 238.882812 803.328125 234.90625 C 799.890625 232.515625 795.632812 228.929688 793.867188 226.945312 L 790.648438 223.328125 L 789.015625 227.617188 C 788.109375 229.976562 787.007812 231.914062 786.5625 231.914062 C 786.117188 231.914062 784.390625 230.53125 782.71875 228.84375 C 781.039062 227.15625 779.335938 225.789062 778.929688 225.796875 C 778.515625 225.804688 777.039062 228.070312 775.632812 230.84375 L 773.085938 235.875 L 771.117188 232.976562 C 770.039062 231.375 767.476562 228.554688 765.4375 226.703125 C 763.390625 224.84375 762.320312 223.328125 763.046875 223.328125 C 763.78125 223.328125 766.296875 225.257812 768.648438 227.617188 L 772.929688 231.914062 L 774.671875 228.765625 C 775.703125 226.898438 776.085938 224.03125 775.617188 221.71875 C 774.9375 218.335938 775.03125 218.140625 776.328125 220.257812 C 777.15625 221.609375 779.65625 224.195312 781.890625 226.007812 L 785.953125 229.304688 L 788.757812 224.171875 C 791.546875 219.0625 791.5625 219.046875 792.835938 222.101562 C 794.53125 226.179688 806.8125 236.25 817.273438 242.132812 C 818.882812 243.039062 818.203125 239.921875 815.226562 232.75 C 814.4375 230.851562 813.796875 227.429688 813.796875 225.148438 C 813.796875 221.757812 812.8125 220.242188 808.476562 216.945312 C 802.21875 212.1875 800.195312 208.796875 799.015625 201.109375 C 798.539062 198 797.445312 194.539062 796.578125 193.421875 C 795.304688 191.757812 795.09375 192.6875 795.4375 198.46875 C 795.664062 202.359375 795.15625 207.203125 794.3125 209.226562 L 792.765625 212.90625 L 791.570312 209.835938 C 790.914062 208.148438 788.007812 205.21875 785.117188 203.320312 C 782.226562 201.421875 780.195312 199.554688 780.609375 199.164062 C 781.015625 198.773438 783.992188 200.5 787.21875 203.007812 C 792.132812 206.820312 793.21875 207.234375 793.898438 205.554688 C 794.695312 203.578125 793.898438 194.992188 792.351562 188.992188 C 791.578125 185.992188 791.648438 186.007812 795.34375 189.703125 C 798.070312 192.429688 799.578125 195.679688 800.75 201.351562 C 802.234375 208.5625 802.976562 209.765625 809.640625 215.609375 C 813.648438 219.125 817.125 221.804688 817.382812 221.5625 C 817.640625 221.320312 818.140625 212.234375 818.507812 201.367188 C 819.203125 180.523438 818.414062 175.5625 813.390625 169.125 L 810.8125 165.820312 L 814.867188 161.445312 C 820.15625 155.742188 822.585938 151.164062 823.640625 144.929688 L 824.5 139.851562 L 819.921875 144.1875 C 816.171875 147.734375 814.382812 148.523438 810.046875 148.523438 C 805.75 148.523438 804.070312 147.796875 801.179688 144.71875 C 797.703125 141.015625 791.546875 137.453125 785.625 135.71875 C 783.4375 135.078125 782.710938 135.359375 782.710938 136.835938 C 782.710938 137.921875 781.507812 141.046875 780.03125 143.789062 L 777.34375 148.773438 L 771.71875 143.210938 C 768.273438 139.804688 764.179688 137.148438 761.132812 136.351562 C 753.351562 134.304688 752.929688 134.507812 752.929688 140.304688 C 752.929688 149.09375 749.179688 150.734375 742.421875 144.890625 C 737.265625 140.4375 733 139.46875 723.226562 140.539062 L 715.6875 141.367188 L 717.046875 144.773438 C 718.179688 147.617188 717.921875 148.820312 715.492188 152.046875 C 711.554688 157.289062 706.429688 159.554688 698.546875 159.554688 C 694.914062 159.554688 690.367188 160.3125 688.445312 161.226562 C 686.523438 162.148438 681.742188 163.203125 677.828125 163.578125 C 673.90625 163.953125 669.734375 164.625 668.546875 165.0625 C 666.695312 165.757812 666.484375 165.1875 667.085938 160.96875 C 668 154.507812 663.492188 149.742188 656.460938 149.742188 C 647.335938 149.742188 643.132812 157.90625 646.703125 168.671875 C 647.390625 170.742188 648.289062 174.007812 648.703125 175.929688 C 649.132812 177.921875 653.234375 183.210938 658.273438 188.242188 C 663.117188 193.101562 667.703125 198.148438 668.460938 199.46875 C 669.210938 200.789062 671.695312 202.90625 673.984375 204.171875 L 678.148438 206.476562 L 677.601562 202.023438 C 676.992188 197.132812 678.0625 196.367188 680.664062 199.820312 C 681.59375 201.054688 683.960938 203.046875 685.921875 204.25 C 689.007812 206.148438 689.476562 206.1875 689.476562 204.539062 C 689.476562 203.492188 690.109375 201.085938 690.875 199.1875 L 692.273438 195.734375 L 694.703125 200.429688 C 696.03125 203.015625 700.367188 208.890625 704.335938 213.476562 C 712.039062 222.390625 716.726562 232.351562 714.304688 234.640625 C 713.328125 235.570312 710.671875 235.5 705.171875 234.398438 C 700.90625 233.539062 695.632812 233.085938 693.445312 233.390625 C 688.992188 234.007812 688.640625 233.429688 691.382812 230 C 694.273438 226.375 693.8125 225.78125 688.132812 225.78125 C 681.554688 225.78125 665.226562 222.625 658.960938 220.148438 C 652.867188 217.734375 651.460938 218.335938 649.671875 224.117188 C 648.859375 226.71875 647.382812 231.429688 646.382812 234.59375 L 644.570312 240.335938 L 651.15625 239.703125 C 654.789062 239.351562 659.453125 238.554688 661.523438 237.9375 C 663.601562 237.3125 665.484375 236.984375 665.710938 237.203125 C 665.945312 237.421875 665.015625 239.664062 663.65625 242.1875 L 661.1875 246.78125 L 665.296875 245.945312 C 667.554688 245.484375 670.960938 244.359375 672.859375 243.4375 C 676.15625 241.84375 676.421875 241.960938 679.023438 246.132812 C 682.226562 251.273438 684.78125 251.0625 685.351562 245.617188 C 685.9375 239.984375 687.796875 240.8125 691.28125 248.28125 C 694.632812 255.453125 698.117188 257.992188 698.789062 253.734375 C 699.007812 252.320312 700.8125 250.023438 702.796875 248.625 C 706.8125 245.796875 709.835938 246.648438 711.570312 251.085938 C 713.367188 255.679688 709.359375 260.421875 697.71875 267.476562 C 674.390625 281.617188 660.828125 300.953125 656.960938 325.601562 C 653.46875 347.835938 664.375 370.8125 686.25 387.3125 C 696.71875 395.210938 713.351562 403.546875 712.296875 400.359375 C 707.804688 386.859375 707.953125 361.09375 712.546875 356.742188 C 713.234375 356.09375 712.992188 358.78125 712.015625 362.71875 C 708.375 377.390625 709.953125 389.078125 719.296875 416.484375 C 727.75 441.265625 726.578125 451.851562 714.617188 458.851562 C 710.78125 461.101562 708.304688 461.476562 697.976562 461.351562 C 686.773438 461.210938 685.546875 461.4375 681.953125 464.304688 C 678.460938 467.085938 673.9375 476.210938 673.9375 480.46875 C 673.9375 482.773438 676.5 482.46875 681.539062 479.5625 Z M 681.539062 479.5625 " transform="matrix(0.5,0,0,0.5,0,0)"/>
<path style="fill-rule:nonzero;fill:rgb(100%,74.509804%,16.078431%);fill-opacity:1;stroke-width:5.56;stroke-linecap:butt;stroke-linejoin:miter;stroke:rgb(0%,0%,0%);stroke-opacity:1;stroke-miterlimit:4;" d="M 863.453125 479.0625 L 868.148438 476.039062 L 871.34375 479.0625 C 875.523438 483.015625 880.414062 482.929688 884.4375 478.820312 C 886.1875 477.03125 887.765625 475.789062 887.9375 476.0625 C 888.101562 476.335938 888.890625 477.664062 889.671875 479.015625 C 890.664062 480.726562 892.710938 481.578125 896.398438 481.84375 C 900.835938 482.15625 902.03125 481.726562 903.796875 479.171875 L 905.898438 476.132812 L 910.523438 479.109375 C 923.195312 487.25 929.945312 478.710938 924.28125 461.695312 C 921.40625 453.046875 922.984375 448.1875 932.265625 437.179688 C 936.179688 432.53125 939.382812 427.578125 939.390625 426.164062 C 939.390625 423.914062 938.664062 423.609375 933.453125 423.710938 C 928.476562 423.8125 927.015625 423.273438 924.390625 420.390625 C 920.125 415.695312 920.382812 410.3125 925.148438 404.34375 L 928.960938 399.578125 L 922.195312 394.992188 C 918.484375 392.46875 911.773438 386.5 907.296875 381.726562 C 897.242188 371.007812 887.359375 365.921875 874.328125 364.765625 L 865.585938 363.992188 L 865.59375 370.609375 C 865.617188 379.132812 869.609375 387.320312 880.523438 401.203125 C 892.929688 416.976562 893.789062 419.421875 894.296875 440.046875 L 894.71875 457.484375 L 891.132812 460.890625 C 887.890625 463.96875 886.421875 464.367188 875.953125 464.96875 C 865.992188 465.539062 863.898438 466.054688 860.976562 468.648438 C 857.09375 472.085938 855.929688 473.960938 854.734375 478.710938 C 854.03125 481.476562 854.3125 482.078125 856.3125 482.078125 C 857.648438 482.078125 860.867188 480.71875 863.445312 479.0625 Z M 596.820312 433.976562 C 597.929688 432.476562 598.835938 430.0625 598.835938 428.601562 C 598.835938 426.398438 599.820312 425.804688 604.664062 425.117188 L 610.5 424.289062 L 606.609375 421.1875 C 601.992188 417.507812 601.5625 414.632812 605.632812 414.625 C 609.6875 414.625 616.5625 410.414062 617.601562 407.296875 C 618.085938 405.851562 617.78125 403.914062 616.914062 402.921875 C 614.640625 400.328125 610.367188 400.71875 609.570312 403.59375 C 608.71875 406.6875 607.289062 406.695312 604.046875 403.625 C 599.171875 399.007812 599.0625 389.453125 603.820312 383.890625 C 606.0625 381.273438 606.046875 381.101562 603.1875 378.390625 C 600.109375 375.476562 597.914062 369.71875 599.359375 368.351562 C 599.820312 367.914062 602.25 368.257812 604.757812 369.117188 C 608.320312 370.34375 609.734375 370.359375 611.203125 369.203125 C 615.648438 365.703125 610.828125 361.210938 603.695312 362.203125 C 600.820312 362.601562 599.632812 362.203125 599.226562 360.710938 C 598.914062 359.578125 596.398438 358.109375 593.570312 357.390625 C 588.515625 356.117188 588.476562 356.132812 588.476562 359.609375 C 588.476562 363.429688 586.296875 364.148438 582.15625 361.703125 C 578.789062 359.710938 575.523438 361.257812 575.523438 364.84375 C 575.523438 368.1875 578.890625 369.835938 584.914062 369.445312 C 589.539062 369.148438 589.710938 372.585938 585.320312 377.523438 L 582.164062 381.078125 L 584.664062 384.671875 C 588.367188 389.992188 588.054688 398.828125 584.007812 403.21875 L 580.835938 406.65625 L 578.757812 403.898438 C 575.867188 400.0625 571.90625 400.320312 570.820312 404.414062 C 570.117188 407.09375 570.703125 408.320312 574.054688 411.15625 C 576.3125 413.070312 579.601562 414.632812 581.375 414.632812 C 585.75 414.632812 585.578125 418.070312 581.03125 421.554688 L 577.46875 424.273438 L 582.976562 425.125 C 586 425.59375 588.476562 426.476562 588.476562 427.085938 C 588.476562 429.429688 592.289062 436.703125 593.515625 436.703125 C 594.226562 436.703125 595.710938 435.476562 596.820312 433.976562 Z M 596.820312 433.976562 " transform="matrix(0.5,0,0,0.5,0,0)"/>
<path style="fill-rule:nonzero;fill:rgb(100%,74.509804%,16.078431%);fill-opacity:1;stroke-width:5.56;stroke-linecap:butt;stroke-linejoin:miter;stroke:rgb(0%,0%,0%);stroke-opacity:1;stroke-miterlimit:4;" d="M 668.476562 402.921875 C 673.476562 400.953125 684.304688 391.789062 684.304688 389.523438 C 684.304688 388.8125 681.3125 385.523438 677.664062 382.21875 C 669.984375 375.273438 661.625 363.5625 659.460938 356.71875 C 658.328125 353.148438 652.875 347.046875 637.507812 332.140625 L 617.0625 312.304688 L 611.164062 313.804688 C 607.929688 314.617188 603.96875 315.3125 602.382812 315.335938 C 599.632812 315.382812 599.6875 315.539062 603.335938 318.359375 L 607.179688 321.335938 L 612.578125 318.34375 C 617.804688 315.4375 617.992188 315.421875 618.640625 317.757812 C 619.015625 319.125 618.203125 321.5 616.757812 323.242188 C 615.351562 324.929688 614.554688 326.84375 614.984375 327.492188 C 615.40625 328.148438 614.0625 329.507812 611.984375 330.523438 C 608.148438 332.40625 605.484375 338.59375 608.515625 338.59375 C 611.242188 338.59375 617.25 331.179688 616.554688 328.671875 C 616.203125 327.382812 616.375 326.0625 616.9375 325.734375 C 619.28125 324.359375 619.132812 330.1875 616.757812 333.046875 C 615.351562 334.734375 614.554688 336.648438 614.984375 337.304688 C 615.40625 337.953125 614.0625 339.320312 611.984375 340.335938 C 608.171875 342.203125 605.484375 348.40625 608.484375 348.40625 C 611.429688 348.40625 617.34375 341.320312 616.609375 338.664062 C 616.226562 337.28125 616.375 335.875 616.9375 335.546875 C 618.515625 334.617188 619.367188 339.21875 618.039062 341.46875 C 617.320312 342.679688 617.328125 344.320312 618.054688 345.632812 C 619.359375 347.992188 618.03125 352.539062 615.617188 353.953125 C 614.585938 354.554688 615.289062 355.742188 617.796875 357.640625 C 621.429688 360.382812 621.5 360.671875 621.5 372.773438 C 621.5 382.882812 621.90625 385.492188 623.765625 387.25 C 625.851562 389.226562 626.03125 389.234375 626.03125 387.34375 C 626.03125 385.273438 629.664062 382.742188 632.632812 382.742188 C 633.507812 382.742188 638.984375 387.382812 644.796875 393.054688 C 650.648438 398.757812 656.773438 403.617188 658.507812 403.921875 C 660.226562 404.234375 662.09375 404.5625 662.648438 404.648438 C 663.210938 404.742188 665.828125 403.960938 668.476562 402.921875 Z M 605.960938 354 C 605.960938 350.742188 599.234375 347.257812 591.195312 346.359375 C 584.703125 345.632812 584.59375 345.671875 584.59375 348.914062 C 584.59375 351.601562 585.617188 352.65625 590.09375 354.609375 C 597.296875 357.742188 605.960938 357.414062 605.960938 354 Z M 605.960938 354 " transform="matrix(0.5,0,0,0.5,0,0)"/>
<path style="fill-rule:nonzero;fill:rgb(100%,74.509804%,16.078431%);fill-opacity:1;stroke-width:5.56;stroke-linecap:butt;stroke-linejoin:miter;stroke:rgb(0%,0%,0%);stroke-opacity:1;stroke-miterlimit:4;" d="M 613.328125 353.703125 C 616.609375 350.726562 618.164062 347.1875 616.1875 347.1875 C 613.921875 347.1875 607.898438 352.59375 607.898438 354.625 C 607.898438 357.804688 609.015625 357.617188 613.328125 353.703125 Z M 606.34375 344.0625 C 606.617188 342.21875 605.476562 340.992188 602.070312 339.453125 C 594.71875 336.132812 585.921875 334.59375 583.804688 336.257812 C 579.898438 339.320312 582.5 343.4375 588.804688 344.179688 C 591.34375 344.476562 594.78125 345.25 596.453125 345.898438 C 601.296875 347.78125 605.90625 346.921875 606.34375 344.0625 Z M 606.34375 334.210938 C 606.734375 331.585938 605.054688 330.648438 591.359375 325.828125 C 581.140625 322.226562 576.609375 323.921875 579.875 330.132812 C 581.015625 332.296875 582.929688 333.28125 587.210938 333.921875 C 590.398438 334.398438 594.757812 335.335938 596.890625 336 C 602.601562 337.773438 605.898438 337.148438 606.34375 334.210938 Z M 613.203125 324.976562 C 615.265625 322.882812 616.953125 320.414062 616.953125 319.484375 C 616.953125 316.476562 608.796875 321.796875 607.757812 325.484375 C 606.507812 329.898438 608.53125 329.710938 613.203125 324.976562 Z M 606.34375 324.359375 C 606.789062 321.367188 601.820312 318.671875 592.046875 316.601562 C 584.875 315.078125 581.710938 315.9375 582.25 319.273438 C 582.539062 321.09375 584.929688 322.421875 591.703125 324.53125 C 602.546875 327.921875 605.8125 327.882812 606.34375 324.359375 Z M 615.898438 310.453125 C 628.421875 304.875 629.507812 290.8125 617.695312 287.125 C 612.796875 285.59375 609.664062 286.414062 607.789062 289.742188 C 606.351562 292.28125 607.3125 296.90625 609.273438 296.90625 C 609.9375 296.90625 610.484375 297.765625 610.484375 298.804688 C 610.484375 303.6875 591.359375 305.898438 583.515625 301.929688 C 580.765625 300.53125 579.5625 296.90625 581.859375 296.90625 C 583.570312 296.90625 584.757812 293.210938 583.882812 290.601562 C 582.6875 287.039062 579.101562 285.804688 573.898438 287.171875 C 562.15625 290.242188 562.484375 304.03125 574.4375 309.890625 C 584.242188 314.6875 605.726562 314.976562 615.898438 310.453125 Z M 615.898438 310.453125 " transform="matrix(0.5,0,0,0.5,0,0)"/>
<path style="fill-rule:nonzero;fill:rgb(100%,74.509804%,16.078431%);fill-opacity:1;stroke-width:5.56;stroke-linecap:butt;stroke-linejoin:miter;stroke:rgb(0%,0%,0%);stroke-opacity:1;stroke-miterlimit:4;" d="M 608.109375 299.640625 C 608.835938 298.953125 608.523438 297.898438 607.304688 296.945312 C 604.640625 294.851562 604.78125 291.734375 607.703125 288.171875 C 609.898438 285.5 610.171875 281.492188 610.929688 241.101562 C 612.226562 171.484375 617.40625 119.132812 624.226562 106.570312 C 626.945312 101.570312 626.5625 101.546875 619.546875 106.320312 C 610.5 112.476562 603.617188 120.484375 597.515625 131.953125 C 586 153.609375 582 182.734375 582 244.914062 C 582 280.21875 582.242188 284.835938 584.25 288.15625 C 586.15625 291.3125 586.265625 292.476562 584.921875 295.84375 C 584.046875 298.023438 583.65625 300.109375 584.046875 300.476562 C 586.617188 302.914062 605.34375 302.265625 608.109375 299.648438 Z M 713.34375 233.257812 C 713.734375 232.65625 712.867188 229.625 711.414062 226.515625 C 709.148438 221.671875 708.234375 220.859375 705.015625 220.859375 C 694.914062 220.859375 678.671875 216.351562 661.929688 208.890625 C 652.265625 204.578125 648.921875 203.585938 647.765625 204.6875 C 644.804688 207.484375 649.726562 214.132812 657.335938 217.632812 C 664.09375 220.734375 682.96875 224.539062 691.585938 224.539062 C 696.578125 224.539062 696.695312 224.765625 693.851562 228.875 L 691.765625 231.898438 L 697.414062 232.046875 C 700.523438 232.125 704.8125 232.609375 706.953125 233.125 C 712.5 234.460938 712.554688 234.46875 713.34375 233.257812 Z M 713.34375 233.257812 " transform="matrix(0.5,0,0,0.5,0,0)"/>
<path style="fill-rule:nonzero;fill:rgb(0%,0%,0%);fill-opacity:1;stroke-width:5.56;stroke-linecap:butt;stroke-linejoin:miter;stroke:rgb(0%,0%,0%);stroke-opacity:1;stroke-miterlimit:4;" d="M 772.351562 264.632812 C 772.351562 262.828125 767.0625 257.953125 761.710938 254.8125 C 757.507812 252.34375 756.8125 252.273438 756.804688 254.28125 C 756.789062 257.335938 754.070312 265.015625 753.007812 265.015625 C 752.40625 265.015625 751.515625 263.515625 751.03125 261.679688 C 750.539062 259.851562 748.507812 256.234375 746.5 253.648438 L 742.851562 248.953125 L 740.015625 253.304688 C 737.367188 257.359375 732.78125 261.335938 730.75 261.335938 C 730.257812 261.335938 730.164062 259.195312 730.539062 256.585938 C 730.9375 253.75 730.625 251.5 729.765625 251 C 728.96875 250.53125 728.320312 250.695312 728.320312 251.359375 C 728.320312 252.882812 721.953125 260.109375 720.609375 260.109375 C 720.054688 260.109375 719.273438 258.039062 718.882812 255.507812 C 718.484375 252.976562 717.8125 248.976562 717.390625 246.617188 C 716.96875 244.257812 717.867188 245.859375 719.40625 250.179688 L 722.195312 258.023438 L 725.25 253.242188 C 726.929688 250.609375 728.3125 247.734375 728.3125 246.851562 C 728.3125 245.96875 728.890625 245.578125 729.578125 245.984375 C 730.273438 246.390625 731.234375 249.554688 731.71875 253.015625 L 732.601562 259.304688 L 735.96875 255.617188 C 737.8125 253.585938 739.984375 250.867188 740.78125 249.578125 C 742.210938 247.273438 742.289062 247.273438 745.132812 249.6875 C 746.71875 251.03125 749.164062 254.257812 750.5625 256.851562 C 751.960938 259.453125 753.296875 261.382812 753.523438 261.148438 C 753.75 260.914062 754.265625 258.234375 754.664062 255.203125 C 755.0625 252.171875 755.414062 249.570312 755.453125 249.4375 C 755.648438 248.679688 765.585938 255.140625 769.265625 258.414062 C 771.625 260.515625 773.867188 261.9375 774.25 261.578125 C 774.632812 261.21875 774.9375 258.117188 774.9375 254.6875 C 774.9375 249.367188 774.375 247.945312 771.125 245.039062 C 767.382812 241.695312 767.28125 241.679688 765.898438 244.125 C 764.109375 247.296875 761.992188 247.34375 761.992188 244.210938 C 761.992188 241.921875 754.921875 233.125 753.085938 233.125 C 752.609375 233.125 751.125 235.0625 749.78125 237.421875 C 748.4375 239.78125 746.992188 241.710938 746.570312 241.710938 C 744.757812 241.695312 734.796875 230.59375 734.804688 228.585938 C 734.804688 226.992188 735.476562 227.398438 737.21875 230.0625 C 738.546875 232.085938 741.195312 235.109375 743.109375 236.773438 C 746.984375 240.15625 748.390625 239.328125 749.882812 232.820312 C 750.3125 230.96875 751.054688 229.445312 751.53125 229.445312 C 753.1875 229.445312 761.859375 238.65625 763.078125 241.710938 L 764.304688 244.78125 L 765.226562 241.40625 C 766.367188 237.28125 767.617188 237.132812 769.421875 240.890625 C 770.179688 242.460938 773.914062 245.734375 777.726562 248.15625 L 784.65625 252.5625 L 786.046875 248.132812 C 786.804688 245.695312 787.820312 244.296875 788.296875 245.015625 C 789 246.101562 787.195312 253.4375 785.84375 255.023438 C 785.640625 255.257812 783.390625 253.953125 780.851562 252.117188 L 776.234375 248.78125 L 776.21875 254.75 C 776.203125 258.03125 775.851562 261.960938 775.421875 263.476562 C 774.578125 266.445312 772.351562 267.28125 772.351562 264.632812 Z M 737.820312 217.03125 C 729.585938 210.15625 728.335938 208.585938 728.523438 205.328125 L 728.71875 201.859375 L 729.25 205.210938 C 729.5625 207.164062 731.757812 210.09375 734.523438 212.25 L 739.25 215.945312 L 742.15625 212.585938 C 743.757812 210.734375 745.085938 208.53125 745.117188 207.6875 C 745.179688 205.484375 745.578125 205.671875 751.148438 210.507812 C 756.101562 214.804688 756.179688 214.828125 756.914062 212.039062 C 757.328125 210.492188 757.179688 207.570312 756.59375 205.546875 C 754.976562 200 755.289062 199.164062 757.742188 202.507812 C 758.960938 204.179688 760.929688 206.53125 762.109375 207.75 C 764.15625 209.859375 764.28125 209.835938 765.046875 207.132812 C 765.484375 205.585938 765.851562 202.742188 765.859375 200.828125 L 765.882812 197.335938 L 770.34375 202.398438 C 774.515625 207.125 774.898438 207.296875 776.171875 205.046875 C 776.921875 203.71875 777.546875 200.53125 777.554688 197.953125 C 777.570312 194.632812 777.921875 193.796875 778.765625 195.0625 C 780.179688 197.171875 779.195312 202.929688 776.585938 207.835938 L 774.71875 211.351562 L 772.257812 207.523438 C 769.117188 202.632812 768.070312 202.710938 766.054688 207.992188 C 764.148438 212.984375 762.914062 213.359375 761.054688 209.523438 C 759.851562 207.046875 759.625 207.34375 758.773438 212.5625 L 757.828125 218.359375 L 746.46875 209.546875 L 743.914062 212.445312 C 742.515625 214.046875 741.34375 216.039062 741.320312 216.882812 C 741.265625 218.710938 739.90625 218.765625 737.820312 217.03125 Z M 811.039062 191.429688 C 808.046875 188.726562 805.976562 186.15625 806.453125 185.703125 C 806.929688 185.257812 807.460938 185.132812 807.640625 185.421875 C 807.8125 185.710938 810.265625 188.289062 813.078125 191.148438 C 819.5625 197.71875 818.226562 197.90625 811.039062 191.429688 Z M 713.507812 181.351562 C 710.78125 177.664062 710.976562 175.226562 714.289062 171.226562 C 716.6875 168.34375 717.78125 167.953125 721.96875 168.484375 C 724.65625 168.820312 730.429688 171.195312 734.8125 173.757812 C 739.867188 176.710938 745.09375 178.6875 749.148438 179.179688 C 752.648438 179.609375 755.523438 179.765625 755.523438 179.539062 C 755.523438 179.3125 754.0625 176.9375 752.28125 174.265625 C 748.054688 167.921875 748.203125 167.242188 752.96875 171.039062 C 757.867188 174.945312 763.71875 176.085938 776.804688 175.6875 L 783.195312 175.492188 L 779.492188 171.828125 C 774.304688 166.695312 775.898438 166.234375 781.625 171.210938 C 787 175.875 786.664062 176.203125 775.359375 177.328125 C 770.554688 177.8125 765.382812 177.460938 761.085938 176.367188 C 754.664062 174.734375 754.414062 174.757812 755.632812 176.914062 C 756.335938 178.15625 757.46875 179.171875 758.15625 179.171875 C 758.84375 179.171875 759.40625 179.796875 759.40625 180.570312 C 759.40625 182.929688 745.523438 180.851562 738.890625 177.492188 C 723.742188 169.828125 721.835938 169.15625 718.226562 170.296875 C 716.226562 170.929688 714.21875 172.78125 713.523438 174.632812 C 711.210938 180.820312 719.992188 185.632812 723.609375 180.164062 C 724.65625 178.578125 724.414062 177.492188 722.570312 175.5625 C 720.046875 172.921875 720.28125 172.546875 723.6875 173.78125 C 726.109375 174.664062 726.4375 180.476562 724.179688 182.601562 C 721.609375 185.046875 715.726562 184.351562 713.507812 181.351562 Z M 713.507812 181.351562 " transform="matrix(0.5,0,0,0.5,0,0)"/>
<path style="fill-rule:nonzero;fill:rgb(0%,0%,0%);fill-opacity:1;stroke-width:5.56;stroke-linecap:butt;stroke-linejoin:miter;stroke:rgb(0%,0%,0%);stroke-opacity:1;stroke-miterlimit:4;" d="M 773.1875 166.070312 C 771.296875 164.273438 772.78125 163.835938 781.273438 163.679688 C 791.78125 163.484375 798.164062 161.734375 805.695312 156.976562 C 811.726562 153.171875 813.367188 153.921875 807.640625 157.867188 C 802.414062 161.46875 794.265625 164.242188 786.398438 165.085938 C 782.585938 165.492188 778.25 166.0625 776.75 166.351562 C 775.257812 166.632812 773.648438 166.507812 773.1875 166.070312 Z M 773.1875 166.070312 " transform="matrix(0.5,0,0,0.5,0,0)"/>
<path style=" stroke:none;fill-rule:nonzero;fill:rgb(100%,74.509804%,16.078431%);fill-opacity:1;" d="M 340.769531 239.78125 L 342.949219 238.523438 L 343.882812 239.78125 C 345.125 241.460938 348.5625 241.441406 350.84375 239.742188 L 352.585938 238.445312 L 354.046875 239.742188 C 355.96875 241.453125 359.554688 241.453125 361.84375 239.75 C 363.445312 238.554688 363.667969 238.53125 364.730469 239.441406 C 365.359375 239.980469 367.214844 240.597656 368.847656 240.808594 C 371.789062 241.191406 371.832031 241.171875 373.554688 238.589844 C 374.996094 236.425781 375.222656 235.550781 374.878906 233.453125 C 374.648438 232.066406 374.402344 229.828125 374.332031 228.480469 C 374.199219 226.046875 374.214844 226.03125 377.761719 224.796875 C 379.71875 224.113281 381.988281 223.199219 382.800781 222.765625 C 384.214844 222.003906 388.121094 217.414062 388.121094 216.511719 C 388.121094 216.269531 386.59375 215.902344 384.730469 215.695312 C 377.3125 214.863281 376.058594 210.878906 380.878906 203.484375 C 388.742188 191.417969 393.488281 179.671875 393.519531 172.1875 C 393.53125 168.839844 393.722656 167.71875 394.152344 168.445312 C 395.910156 171.417969 392.761719 183.882812 387.996094 192.835938 L 386.074219 196.441406 L 387.90625 196.019531 C 388.914062 195.785156 394.835938 193.289062 401.070312 190.464844 C 418.128906 182.738281 423.984375 181.226562 435.023438 181.691406 C 444.273438 182.078125 448.210938 183.886719 454.742188 190.734375 C 458.203125 194.363281 461.535156 196.960938 467.628906 200.773438 C 480.617188 208.90625 481.160156 209.609375 481.777344 219.167969 C 482.402344 228.855469 482.089844 229.382812 474.765625 231 C 468.503906 232.382812 464.578125 235.300781 463.523438 239.359375 C 462.960938 241.523438 464.144531 241.585938 467.300781 239.558594 L 469.617188 238.070312 L 470.644531 239.558594 C 471.996094 241.511719 474.871094 241.519531 477.257812 239.574219 L 479.0625 238.105469 L 480.90625 239.574219 C 483.769531 241.859375 487.578125 241.304688 488.65625 238.449219 C 488.863281 237.902344 489.414062 238.078125 490.53125 239.046875 C 492.621094 240.867188 497.988281 241.644531 498.566406 240.214844 C 498.785156 239.671875 498.367188 238.324219 497.632812 237.222656 C 494.511719 232.542969 493.535156 230.308594 493.496094 227.761719 C 493.4375 224.21875 494.496094 222.511719 498.523438 219.628906 C 503.421875 216.128906 504.933594 211.613281 501.210938 211.613281 C 498.910156 211.613281 496.59375 209.578125 495.117188 206.269531 C 492.113281 199.539062 492.703125 191.992188 497.210938 179.441406 C 501.789062 166.691406 502.296875 164.339844 502.316406 155.8125 C 502.332031 148.917969 502.15625 147.726562 500.589844 143.945312 C 499.628906 141.632812 497.683594 138.191406 496.261719 136.296875 L 493.683594 132.851562 L 496.996094 130.109375 C 507.113281 121.726562 505.042969 108.007812 492.863281 102.722656 C 489.140625 101.105469 488.207031 100.964844 481.679688 101.007812 C 477.761719 101.035156 471.789062 101.550781 468.40625 102.152344 C 464.957031 102.769531 459.117188 103.261719 455.113281 103.28125 C 448.75 103.304688 447.671875 103.148438 445.21875 101.84375 C 442.664062 100.484375 442.222656 99.835938 441.722656 96.691406 C 441.621094 96.042969 441.167969 95.398438 440.71875 95.257812 C 439.847656 94.984375 435.832031 98.46875 435.238281 100.011719 C 434.945312 100.773438 434.707031 100.722656 433.847656 99.707031 C 433.28125 99.03125 432.484375 97.480469 432.078125 96.261719 C 431.066406 93.195312 432.3125 90.894531 435.917969 89.171875 L 438.714844 87.835938 L 437.066406 86.808594 C 433.660156 84.699219 427.871094 86.144531 425.777344 89.628906 C 425.1875 90.613281 424.539062 91.421875 424.34375 91.425781 C 424.144531 91.425781 423.019531 90.484375 421.84375 89.335938 C 417.445312 85.039062 418.960938 78.6875 424.835938 76.746094 C 427.972656 75.710938 430.746094 76.5 431.324219 78.589844 C 432.203125 81.78125 434.945312 77.585938 434.453125 73.800781 C 434.125 71.28125 434.175781 71.191406 435.917969 71.191406 C 438.339844 71.191406 443.5 74.375 445.097656 76.851562 C 446.949219 79.730469 446.816406 84.265625 444.773438 87.644531 L 443.171875 90.296875 L 445.269531 89.875 C 448.339844 89.261719 451.324219 87.351562 452.832031 85.039062 C 454.429688 82.59375 454.601562 77.832031 453.1875 75.261719 C 451.816406 72.773438 451.972656 72.375 454 73.21875 C 457.449219 74.648438 459.292969 76.226562 460.675781 78.933594 C 461.917969 81.371094 461.988281 81.976562 461.316406 84.511719 C 460.898438 86.078125 459.972656 88.132812 459.257812 89.085938 C 458.144531 90.566406 458.105469 90.816406 458.992188 90.816406 C 460.648438 90.816406 464.097656 89.25 465.324219 87.945312 C 465.941406 87.289062 466.84375 85.664062 467.328125 84.339844 L 468.210938 81.933594 L 469.222656 83.765625 C 470.652344 86.363281 473.433594 88.699219 476.824219 90.152344 C 480.46875 91.714844 481.988281 91.804688 480.082031 90.34375 C 478.796875 89.355469 476.425781 82.402344 477.144531 81.722656 C 477.566406 81.324219 482.515625 85.132812 488.171875 90.207031 C 493.515625 95.007812 496.878906 96.578125 501.789062 96.578125 C 508.0625 96.578125 511.714844 91.117188 508.894531 85.953125 C 507.253906 82.945312 503.589844 82.527344 501.449219 85.105469 C 500.464844 86.289062 500.191406 87.234375 500.480469 88.476562 C 500.835938 90 500.695312 90.203125 499.308594 90.203125 C 497.484375 90.203125 493.890625 87.871094 487.507812 82.542969 C 477.769531 74.417969 465.941406 67.53125 457.398438 65.015625 C 451.917969 63.402344 440.207031 62.773438 434.636719 63.792969 C 428.605469 64.894531 421.46875 68.347656 417.585938 72.042969 C 410.699219 78.589844 410.589844 87.300781 417.292969 95.234375 L 419.214844 97.507812 L 417.914062 99.527344 C 416.023438 102.464844 416.183594 106.417969 418.316406 109.332031 C 419.253906 110.613281 420.199219 111.664062 420.421875 111.664062 C 420.636719 111.664062 420.878906 110.839844 420.953125 109.832031 C 421.140625 107.28125 422.234375 105.574219 424.113281 104.898438 C 425.800781 104.289062 426.894531 104.578125 434.636719 107.667969 C 442.78125 110.917969 456.175781 111.140625 470.417969 108.265625 C 477.398438 106.855469 485.632812 106.9375 489.253906 108.453125 C 495.894531 111.234375 497.433594 118.472656 492.550781 123.964844 C 490.441406 126.34375 488.402344 127.3125 481.5625 129.191406 C 476.355469 130.617188 475.121094 130.714844 463.289062 130.59375 C 453.179688 130.492188 449.546875 130.6875 445.421875 131.550781 C 440.941406 132.484375 438.1875 132.578125 425.027344 132.246094 L 409.8125 131.863281 L 411.496094 133.261719 C 412.425781 134.03125 413.738281 134.976562 414.410156 135.363281 C 415.558594 136.019531 415.519531 136.109375 413.816406 136.742188 C 412.8125 137.113281 410.585938 137.417969 408.871094 137.417969 L 405.75 137.417969 L 405.328125 140.070312 C 405.097656 141.53125 405.117188 143.234375 405.367188 143.855469 C 405.738281 144.773438 405.601562 144.90625 404.632812 144.554688 C 403.976562 144.316406 402.148438 143.847656 400.570312 143.511719 C 398.992188 143.175781 396.867188 142.496094 395.847656 141.996094 C 394.136719 141.15625 393.945312 141.179688 393.316406 142.296875 C 392.753906 143.292969 387.464844 147.226562 386.6875 147.226562 C 386.5625 147.226562 386.402344 146.46875 386.328125 145.542969 C 386.257812 144.613281 385.492188 142.199219 384.632812 140.175781 C 383.773438 138.152344 382.875 135.945312 382.636719 135.273438 C 382.28125 134.253906 382.117188 134.203125 381.683594 134.964844 C 381.398438 135.472656 380.980469 136.851562 380.757812 138.03125 C 380.53125 139.210938 379.734375 141.128906 378.984375 142.292969 L 377.625 144.40625 L 376.753906 142.597656 C 375.820312 140.65625 374.273438 138.644531 373.714844 138.644531 C 373.523438 138.644531 373.203125 139.265625 372.996094 140.023438 C 372.570312 141.609375 368.898438 146.003906 368.003906 146.003906 C 367.671875 146.003906 367.402344 144.761719 367.402344 143.242188 C 367.402344 141.726562 367.109375 140.484375 366.753906 140.484375 C 366.398438 140.484375 366.105469 140.875 366.105469 141.355469 C 366.105469 142.523438 362.972656 146.003906 361.921875 146.003906 C 361.460938 146.003906 360.722656 146.414062 360.28125 146.921875 C 359.125 148.242188 358.179688 148.054688 358.664062 146.605469 C 358.890625 145.925781 358.746094 144.339844 358.335938 143.078125 L 357.367188 140.101562 C 357.214844 139.625 356.089844 139.75 353.714844 140.511719 C 349.871094 141.746094 348.582031 141.527344 350.558594 139.980469 C 351.28125 139.414062 352.378906 137.453125 353 135.625 C 353.621094 133.792969 354.535156 132.171875 355.035156 132.015625 C 355.734375 131.800781 355.695312 132.066406 354.875 133.179688 C 354.285156 133.972656 353.804688 135.046875 353.800781 135.5625 C 353.800781 136.074219 353.355469 137.296875 352.820312 138.273438 C 352.28125 139.253906 351.941406 140.148438 352.066406 140.265625 C 352.191406 140.386719 353.652344 139.828125 355.316406 139.035156 L 358.335938 137.585938 L 358.351562 138.878906 C 358.355469 139.59375 358.722656 141.472656 359.160156 143.058594 L 359.957031 145.945312 L 362.011719 144.996094 C 364.117188 144.03125 366.105469 140.585938 366.105469 137.914062 C 366.105469 136.597656 366.863281 136.796875 367.171875 138.203125 C 367.265625 138.613281 367.738281 140.160156 368.226562 141.636719 L 369.117188 144.320312 L 370.527344 142.625 C 371.300781 141.695312 372.273438 139.863281 372.683594 138.5625 C 373.398438 136.296875 374.523438 135.324219 374.523438 136.96875 C 374.523438 138.152344 377.753906 142.398438 378.378906 142.035156 C 378.679688 141.859375 379.28125 140.265625 379.710938 138.492188 C 380.609375 134.808594 382.058594 132.300781 382.980469 132.839844 C 383.324219 133.042969 383.460938 133.4375 383.28125 133.714844 C 383.097656 133.992188 383.84375 136.390625 384.933594 139.039062 C 386.023438 141.6875 387.121094 144.355469 387.367188 144.964844 C 387.765625 145.949219 388.125 145.804688 390.464844 143.738281 C 391.921875 142.453125 393.242188 141.015625 393.402344 140.542969 C 393.640625 139.828125 393.964844 139.851562 395.328125 140.699219 C 397.230469 141.878906 403.628906 143.78125 404.125 143.3125 C 404.308594 143.136719 404.5 141.457031 404.546875 139.578125 L 404.628906 136.164062 L 406.46875 136.546875 C 407.484375 136.753906 409.609375 136.742188 411.199219 136.515625 L 414.089844 136.105469 L 411.515625 134.339844 C 410.097656 133.367188 408.667969 132.109375 408.332031 131.546875 C 407.976562 130.945312 406.714844 130.433594 405.289062 130.3125 C 401.429688 129.984375 394.59375 126.148438 394.59375 124.3125 C 394.59375 123.96875 395.542969 124.554688 396.699219 125.617188 C 399.265625 127.96875 402.835938 129.445312 405.949219 129.445312 L 408.28125 129.445312 L 406.835938 127.527344 C 406.007812 126.425781 405.265625 124.335938 405.09375 122.617188 C 404.8125 119.875 404.523438 119.441406 401.664062 117.453125 C 399.945312 116.257812 397.816406 114.464844 396.933594 113.472656 L 395.324219 111.664062 L 394.507812 113.808594 C 394.054688 114.988281 393.503906 115.957031 393.28125 115.957031 C 393.058594 115.957031 392.195312 115.265625 391.359375 114.421875 C 390.519531 113.578125 389.667969 112.894531 389.464844 112.898438 C 389.257812 112.902344 388.519531 114.035156 387.816406 115.421875 L 386.542969 117.9375 L 385.558594 116.488281 C 385.019531 115.6875 383.738281 114.277344 382.71875 113.351562 C 381.695312 112.421875 381.160156 111.664062 381.523438 111.664062 C 381.890625 111.664062 383.148438 112.628906 384.324219 113.808594 L 386.464844 115.957031 L 387.335938 114.382812 C 387.851562 113.449219 388.042969 112.015625 387.808594 110.859375 C 387.46875 109.167969 387.515625 109.070312 388.164062 110.128906 C 388.578125 110.804688 389.828125 112.097656 390.945312 113.003906 L 392.976562 114.652344 L 394.378906 112.085938 C 395.773438 109.53125 395.78125 109.523438 396.417969 111.050781 C 397.265625 113.089844 403.40625 118.125 408.636719 121.066406 C 409.441406 121.519531 409.101562 119.960938 407.613281 116.375 C 407.21875 115.425781 406.898438 113.714844 406.898438 112.574219 C 406.898438 110.878906 406.40625 110.121094 404.238281 108.472656 C 401.109375 106.09375 400.097656 104.398438 399.507812 100.554688 C 399.269531 99 398.722656 97.269531 398.289062 96.710938 C 397.652344 95.878906 397.546875 96.34375 397.71875 99.234375 C 397.832031 101.179688 397.578125 103.601562 397.15625 104.613281 L 396.382812 106.453125 L 395.785156 104.917969 C 395.457031 104.074219 394.003906 102.609375 392.558594 101.660156 C 391.113281 100.710938 390.097656 99.777344 390.304688 99.582031 C 390.507812 99.386719 391.996094 100.25 393.609375 101.503906 C 396.066406 103.410156 396.609375 103.617188 396.949219 102.777344 C 397.347656 101.789062 396.949219 97.496094 396.175781 94.496094 C 395.789062 92.996094 395.824219 93.003906 397.671875 94.851562 C 399.035156 96.214844 399.789062 97.839844 400.375 100.675781 C 401.117188 104.28125 401.488281 104.882812 404.820312 107.804688 C 406.824219 109.5625 408.5625 110.902344 408.691406 110.78125 C 408.820312 110.660156 409.070312 106.117188 409.253906 100.683594 C 409.601562 90.261719 409.207031 87.78125 406.695312 84.5625 L 405.40625 82.910156 L 407.433594 80.722656 C 410.078125 77.871094 411.292969 75.582031 411.820312 72.464844 L 412.25 69.925781 L 409.960938 72.09375 C 408.085938 73.867188 407.191406 74.261719 405.023438 74.261719 C 402.875 74.261719 402.035156 73.898438 400.589844 72.359375 C 398.851562 70.507812 395.773438 68.726562 392.8125 67.859375 C 391.71875 67.539062 391.355469 67.679688 391.355469 68.417969 C 391.355469 68.960938 390.753906 70.523438 390.015625 71.894531 L 388.671875 74.386719 L 385.859375 71.605469 C 384.136719 69.902344 382.089844 68.574219 380.566406 68.175781 C 376.675781 67.152344 376.464844 67.253906 376.464844 70.152344 C 376.464844 74.546875 374.589844 75.367188 371.210938 72.445312 C 368.632812 70.21875 366.5 69.734375 361.613281 70.269531 L 357.84375 70.683594 L 358.523438 72.386719 C 359.089844 73.808594 358.960938 74.410156 357.746094 76.023438 C 355.777344 78.644531 353.214844 79.777344 349.273438 79.777344 C 347.457031 79.777344 345.183594 80.15625 344.222656 80.613281 C 343.261719 81.074219 340.871094 81.601562 338.914062 81.789062 C 336.953125 81.976562 334.867188 82.3125 334.273438 82.53125 C 333.347656 82.878906 333.242188 82.59375 333.542969 80.484375 C 334 77.253906 331.746094 74.871094 328.230469 74.871094 C 323.667969 74.871094 321.566406 78.953125 323.351562 84.335938 C 323.695312 85.371094 324.144531 87.003906 324.351562 87.964844 C 324.566406 88.960938 326.617188 91.605469 329.136719 94.121094 C 331.558594 96.550781 333.851562 99.074219 334.230469 99.734375 C 334.605469 100.394531 335.847656 101.453125 336.992188 102.085938 L 339.074219 103.238281 L 338.800781 101.011719 C 338.496094 98.566406 339.03125 98.183594 340.332031 99.910156 C 340.796875 100.527344 341.980469 101.523438 342.960938 102.125 C 344.503906 103.074219 344.738281 103.09375 344.738281 102.269531 C 344.738281 101.746094 345.054688 100.542969 345.4375 99.59375 L 346.136719 97.867188 L 347.351562 100.214844 C 348.015625 101.507812 350.183594 104.445312 352.167969 106.738281 C 356.019531 111.195312 358.363281 116.175781 357.152344 117.320312 C 356.664062 117.785156 355.335938 117.75 352.585938 117.199219 C 350.453125 116.769531 347.816406 116.542969 346.722656 116.695312 C 344.496094 117.003906 344.320312 116.714844 345.691406 115 C 347.136719 113.1875 346.90625 112.890625 344.066406 112.890625 C 340.777344 112.890625 332.613281 111.3125 329.480469 110.074219 C 326.433594 108.867188 325.730469 109.167969 324.835938 112.058594 C 324.429688 113.359375 323.691406 115.714844 323.191406 117.296875 L 322.285156 120.167969 L 325.578125 119.851562 C 327.394531 119.675781 329.726562 119.277344 330.761719 118.96875 C 331.800781 118.65625 332.742188 118.492188 332.855469 118.601562 C 332.972656 118.710938 332.507812 119.832031 331.828125 121.09375 L 330.59375 123.390625 L 332.648438 122.972656 C 333.777344 122.742188 335.480469 122.179688 336.429688 121.71875 C 338.078125 120.921875 338.210938 120.980469 339.511719 123.066406 C 341.113281 125.636719 342.390625 125.53125 342.675781 122.808594 C 342.96875 119.992188 343.898438 120.40625 345.640625 124.140625 C 347.316406 127.726562 349.058594 128.996094 349.394531 126.867188 C 349.503906 126.160156 350.40625 125.011719 351.398438 124.3125 C 353.40625 122.898438 354.917969 123.324219 355.785156 125.542969 C 356.683594 127.839844 354.679688 130.210938 348.859375 133.738281 C 337.195312 140.808594 330.414062 150.476562 328.480469 162.800781 C 326.734375 173.917969 332.1875 185.40625 343.125 193.65625 C 348.359375 197.605469 356.675781 201.773438 356.148438 200.179688 C 353.902344 193.429688 353.976562 180.546875 356.273438 178.371094 C 356.617188 178.046875 356.496094 179.390625 356.007812 181.359375 C 354.1875 188.695312 354.976562 194.539062 359.648438 208.242188 C 363.875 220.632812 363.289062 225.925781 357.308594 229.425781 C 355.390625 230.550781 354.152344 230.738281 348.988281 230.675781 C 343.386719 230.605469 342.773438 230.71875 340.976562 232.152344 C 339.230469 233.542969 336.96875 238.105469 336.96875 240.234375 C 336.96875 241.386719 338.25 241.234375 340.769531 239.78125 Z M 340.769531 239.78125 "/>
<path style=" stroke:none;fill-rule:nonzero;fill:rgb(100%,74.509804%,16.078431%);fill-opacity:1;" d="M 431.726562 239.53125 L 434.074219 238.019531 L 435.671875 239.53125 C 437.761719 241.507812 440.207031 241.464844 442.21875 239.410156 C 443.09375 238.515625 443.882812 237.894531 443.96875 238.03125 C 444.050781 238.167969 444.445312 238.832031 444.835938 239.507812 C 445.332031 240.363281 446.355469 240.789062 448.199219 240.921875 C 450.417969 241.078125 451.015625 240.863281 451.898438 239.585938 L 452.949219 238.066406 L 455.261719 239.554688 C 461.597656 243.625 464.972656 239.355469 462.140625 230.847656 C 460.703125 226.523438 461.492188 224.09375 466.132812 218.589844 C 468.089844 216.265625 469.691406 213.789062 469.695312 213.082031 C 469.695312 211.957031 469.332031 211.804688 466.726562 211.855469 C 464.238281 211.90625 463.507812 211.636719 462.195312 210.195312 C 460.0625 207.847656 460.191406 205.15625 462.574219 202.171875 L 464.480469 199.789062 L 461.097656 197.496094 C 459.242188 196.234375 455.886719 193.25 453.648438 190.863281 C 448.621094 185.503906 443.679688 182.960938 437.164062 182.382812 L 432.792969 181.996094 L 432.796875 185.304688 C 432.808594 189.566406 434.804688 193.660156 440.261719 200.601562 C 446.464844 208.488281 446.894531 209.710938 447.148438 220.023438 L 447.359375 228.742188 L 445.566406 230.445312 C 443.945312 231.984375 443.210938 232.183594 437.976562 232.484375 C 432.996094 232.769531 431.949219 233.027344 430.488281 234.324219 C 428.546875 236.042969 427.964844 236.980469 427.367188 239.355469 C 427.015625 240.738281 427.15625 241.039062 428.15625 241.039062 C 428.824219 241.039062 430.433594 240.359375 431.722656 239.53125 Z M 298.410156 216.988281 C 298.964844 216.238281 299.417969 215.03125 299.417969 214.300781 C 299.417969 213.199219 299.910156 212.902344 302.332031 212.558594 L 305.25 212.144531 L 303.304688 210.59375 C 300.996094 208.753906 300.78125 207.316406 302.816406 207.3125 C 304.84375 207.3125 308.28125 205.207031 308.800781 203.648438 C 309.042969 202.925781 308.890625 201.957031 308.457031 201.460938 C 307.320312 200.164062 305.183594 200.359375 304.785156 201.796875 C 304.359375 203.34375 303.644531 203.347656 302.023438 201.8125 C 299.585938 199.503906 299.53125 194.726562 301.910156 191.945312 C 303.03125 190.636719 303.023438 190.550781 301.59375 189.195312 C 300.054688 187.738281 298.957031 184.859375 299.679688 184.175781 C 299.910156 183.957031 301.125 184.128906 302.378906 184.558594 C 304.160156 185.171875 304.867188 185.179688 305.601562 184.601562 C 307.824219 182.851562 305.414062 180.605469 301.847656 181.101562 C 300.410156 181.300781 299.816406 181.101562 299.613281 180.355469 C 299.457031 179.789062 298.199219 179.054688 296.785156 178.695312 C 294.257812 178.058594 294.238281 178.066406 294.238281 179.804688 C 294.238281 181.714844 293.148438 182.074219 291.078125 180.851562 C 289.394531 179.855469 287.761719 180.628906 287.761719 182.421875 C 287.761719 184.09375 289.445312 184.917969 292.457031 184.722656 C 294.769531 184.574219 294.855469 186.292969 292.660156 188.761719 L 291.082031 190.539062 L 292.332031 192.335938 C 294.183594 194.996094 294.027344 199.414062 292.003906 201.609375 L 290.417969 203.328125 L 289.378906 201.949219 C 287.933594 200.03125 285.953125 200.160156 285.410156 202.207031 C 285.058594 203.546875 285.351562 204.160156 287.027344 205.578125 C 288.15625 206.535156 289.800781 207.316406 290.6875 207.316406 C 292.875 207.316406 292.789062 209.035156 290.515625 210.777344 L 288.734375 212.136719 L 291.488281 212.5625 C 293 212.796875 294.238281 213.238281 294.238281 213.542969 C 294.238281 214.714844 296.144531 218.351562 296.757812 218.351562 C 297.113281 218.351562 297.855469 217.738281 298.410156 216.988281 Z M 298.410156 216.988281 "/>
<path style=" stroke:none;fill-rule:nonzero;fill:rgb(100%,74.509804%,16.078431%);fill-opacity:1;" d="M 334.238281 201.460938 C 336.738281 200.476562 342.152344 195.894531 342.152344 194.761719 C 342.152344 194.40625 340.65625 192.761719 338.832031 191.109375 C 334.992188 187.636719 330.8125 181.78125 329.730469 178.359375 C 329.164062 176.574219 326.4375 173.523438 318.753906 166.070312 L 308.53125 156.152344 L 305.582031 156.902344 C 303.964844 157.308594 301.984375 157.65625 301.191406 157.667969 C 299.816406 157.691406 299.84375 157.769531 301.667969 159.179688 L 303.589844 160.667969 L 306.289062 159.171875 C 308.902344 157.71875 308.996094 157.710938 309.320312 158.878906 C 309.507812 159.5625 309.101562 160.75 308.378906 161.621094 C 307.675781 162.464844 307.277344 163.421875 307.492188 163.746094 C 307.703125 164.074219 307.03125 164.753906 305.992188 165.261719 C 304.074219 166.203125 302.742188 169.296875 304.257812 169.296875 C 305.621094 169.296875 308.625 165.589844 308.277344 164.335938 C 308.101562 163.691406 308.1875 163.03125 308.46875 162.867188 C 309.640625 162.179688 309.566406 165.09375 308.378906 166.523438 C 307.675781 167.367188 307.277344 168.324219 307.492188 168.652344 C 307.703125 168.976562 307.03125 169.660156 305.992188 170.167969 C 304.085938 171.101562 302.742188 174.203125 304.242188 174.203125 C 305.714844 174.203125 308.671875 170.660156 308.304688 169.332031 C 308.113281 168.640625 308.1875 167.9375 308.46875 167.773438 C 309.257812 167.308594 309.683594 169.609375 309.019531 170.734375 C 308.660156 171.339844 308.664062 172.160156 309.027344 172.816406 C 309.679688 173.996094 309.015625 176.269531 307.808594 176.976562 C 307.292969 177.277344 307.644531 177.871094 308.898438 178.820312 C 310.714844 180.191406 310.75 180.335938 310.75 186.386719 C 310.75 191.441406 310.953125 192.746094 311.882812 193.625 C 312.925781 194.613281 313.015625 194.617188 313.015625 193.671875 C 313.015625 192.636719 314.832031 191.371094 316.316406 191.371094 C 316.753906 191.371094 319.492188 193.691406 322.398438 196.527344 C 325.324219 199.378906 328.386719 201.808594 329.253906 201.960938 C 330.113281 202.117188 331.046875 202.28125 331.324219 202.324219 C 331.605469 202.371094 332.914062 201.980469 334.238281 201.460938 Z M 302.980469 177 C 302.980469 175.371094 299.617188 173.628906 295.597656 173.179688 C 292.351562 172.816406 292.296875 172.835938 292.296875 174.457031 C 292.296875 175.800781 292.808594 176.328125 295.046875 177.304688 C 298.648438 178.871094 302.980469 178.707031 302.980469 177 Z M 302.980469 177 "/>
<path style=" stroke:none;fill-rule:nonzero;fill:rgb(100%,74.509804%,16.078431%);fill-opacity:1;" d="M 306.664062 176.851562 C 308.304688 175.363281 309.082031 173.59375 308.09375 173.59375 C 306.960938 173.59375 303.949219 176.296875 303.949219 177.3125 C 303.949219 178.902344 304.507812 178.808594 306.664062 176.851562 Z M 303.171875 172.03125 C 303.308594 171.109375 302.738281 170.496094 301.035156 169.726562 C 297.359375 168.066406 292.960938 167.296875 291.902344 168.128906 C 289.949219 169.660156 291.25 171.71875 294.402344 172.089844 C 295.671875 172.238281 297.390625 172.625 298.226562 172.949219 C 300.648438 173.890625 302.953125 173.460938 303.171875 172.03125 Z M 303.171875 167.105469 C 303.367188 165.792969 302.527344 165.324219 295.679688 162.914062 C 290.570312 161.113281 288.304688 161.960938 289.9375 165.066406 C 290.507812 166.148438 291.464844 166.640625 293.605469 166.960938 C 295.199219 167.199219 297.378906 167.667969 298.445312 168 C 301.300781 168.886719 302.949219 168.574219 303.171875 167.105469 Z M 306.601562 162.488281 C 307.632812 161.441406 308.476562 160.207031 308.476562 159.742188 C 308.476562 158.238281 304.398438 160.898438 303.878906 162.742188 C 303.253906 164.949219 304.265625 164.855469 306.601562 162.488281 Z M 303.171875 162.179688 C 303.394531 160.683594 300.910156 159.335938 296.023438 158.300781 C 292.4375 157.539062 290.855469 157.96875 291.125 159.636719 C 291.269531 160.546875 292.464844 161.210938 295.851562 162.265625 C 301.273438 163.960938 302.90625 163.941406 303.171875 162.179688 Z M 307.949219 155.226562 C 314.210938 152.4375 314.753906 145.40625 308.847656 143.5625 C 306.398438 142.796875 304.832031 143.207031 303.894531 144.871094 C 303.175781 146.140625 303.65625 148.453125 304.636719 148.453125 C 304.96875 148.453125 305.242188 148.882812 305.242188 149.402344 C 305.242188 151.84375 295.679688 152.949219 291.757812 150.964844 C 290.382812 150.265625 289.78125 148.453125 290.929688 148.453125 C 291.785156 148.453125 292.378906 146.605469 291.941406 145.300781 C 291.34375 143.519531 289.550781 142.902344 286.949219 143.585938 C 281.078125 145.121094 281.242188 152.015625 287.21875 154.945312 C 292.121094 157.34375 302.863281 157.488281 307.949219 155.226562 Z M 307.949219 155.226562 "/>
<path style=" stroke:none;fill-rule:nonzero;fill:rgb(100%,74.509804%,16.078431%);fill-opacity:1;" d="M 304.054688 149.820312 C 304.417969 149.476562 304.261719 148.949219 303.652344 148.472656 C 302.320312 147.425781 302.390625 145.867188 303.851562 144.085938 C 304.949219 142.75 305.085938 140.746094 305.464844 120.550781 C 306.113281 85.742188 308.703125 59.566406 312.113281 53.285156 C 313.472656 50.785156 313.28125 50.773438 309.773438 53.160156 C 305.25 56.238281 301.808594 60.242188 298.757812 65.976562 C 293 76.804688 291 91.367188 291 122.457031 C 291 140.109375 291.121094 142.417969 292.125 144.078125 C 293.078125 145.65625 293.132812 146.238281 292.460938 147.921875 C 292.023438 149.011719 291.828125 150.054688 292.023438 150.238281 C 293.308594 151.457031 302.671875 151.132812 304.054688 149.824219 Z M 356.671875 116.628906 C 356.867188 116.328125 356.433594 114.8125 355.707031 113.257812 C 354.574219 110.835938 354.117188 110.429688 352.507812 110.429688 C 347.457031 110.429688 339.335938 108.175781 330.964844 104.445312 C 326.132812 102.289062 324.460938 101.792969 323.882812 102.34375 C 322.402344 103.742188 324.863281 107.066406 328.667969 108.816406 C 332.046875 110.367188 341.484375 112.269531 345.792969 112.269531 C 348.289062 112.269531 348.347656 112.382812 346.925781 114.4375 L 345.882812 115.949219 L 348.707031 116.023438 C 350.261719 116.0625 352.40625 116.304688 353.476562 116.5625 C 356.25 117.230469 356.277344 117.234375 356.671875 116.628906 Z M 356.671875 116.628906 "/>
<path style=" stroke:none;fill-rule:nonzero;fill:rgb(0%,0%,0%);fill-opacity:1;" d="M 386.175781 132.316406 C 386.175781 131.414062 383.53125 128.976562 380.855469 127.40625 C 378.753906 126.171875 378.40625 126.136719 378.402344 127.140625 C 378.394531 128.667969 377.035156 132.507812 376.503906 132.507812 C 376.203125 132.507812 375.757812 131.757812 375.515625 130.839844 C 375.269531 129.925781 374.253906 128.117188 373.25 126.824219 L 371.425781 124.476562 L 370.007812 126.652344 C 368.683594 128.679688 366.390625 130.667969 365.375 130.667969 C 365.128906 130.667969 365.082031 129.597656 365.269531 128.292969 C 365.46875 126.875 365.3125 125.75 364.882812 125.5 C 364.484375 125.265625 364.160156 125.347656 364.160156 125.679688 C 364.160156 126.441406 360.976562 130.054688 360.304688 130.054688 C 360.027344 130.054688 359.636719 129.019531 359.441406 127.753906 C 359.242188 126.488281 358.90625 124.488281 358.695312 123.308594 C 358.484375 122.128906 358.933594 122.929688 359.703125 125.089844 L 361.097656 129.011719 L 362.625 126.621094 C 363.464844 125.304688 364.15625 123.867188 364.15625 123.425781 C 364.15625 122.984375 364.445312 122.789062 364.789062 122.992188 C 365.136719 123.195312 365.617188 124.777344 365.859375 126.507812 L 366.300781 129.652344 L 367.984375 127.808594 C 368.90625 126.792969 369.992188 125.433594 370.390625 124.789062 C 371.105469 123.636719 371.144531 123.636719 372.566406 124.84375 C 373.359375 125.515625 374.582031 127.128906 375.28125 128.425781 C 375.980469 129.726562 376.648438 130.691406 376.761719 130.574219 C 376.875 130.457031 377.132812 129.117188 377.332031 127.601562 C 377.53125 126.085938 377.707031 124.785156 377.726562 124.71875 C 377.824219 124.339844 382.792969 127.570312 384.632812 129.207031 C 385.8125 130.257812 386.933594 130.96875 387.125 130.789062 C 387.316406 130.609375 387.46875 129.058594 387.46875 127.34375 C 387.46875 124.683594 387.1875 123.972656 385.5625 122.519531 C 383.691406 120.847656 383.640625 120.839844 382.949219 122.0625 C 382.054688 123.648438 380.996094 123.671875 380.996094 122.105469 C 380.996094 120.960938 377.460938 116.5625 376.542969 116.5625 C 376.304688 116.5625 375.5625 117.53125 374.890625 118.710938 C 374.21875 119.890625 373.496094 120.855469 373.285156 120.855469 C 372.378906 120.847656 367.398438 115.296875 367.402344 114.292969 C 367.402344 113.496094 367.738281 113.699219 368.609375 115.03125 C 369.273438 116.042969 370.597656 117.554688 371.554688 118.386719 C 373.492188 120.078125 374.195312 119.664062 374.941406 116.410156 C 375.15625 115.484375 375.527344 114.722656 375.765625 114.722656 C 376.59375 114.722656 380.929688 119.328125 381.539062 120.855469 L 382.152344 122.390625 L 382.613281 120.703125 C 383.183594 118.640625 383.808594 118.566406 384.710938 120.445312 C 385.089844 121.230469 386.957031 122.867188 388.863281 124.078125 L 392.328125 126.28125 L 393.023438 124.066406 C 393.402344 122.847656 393.910156 122.148438 394.148438 122.507812 C 394.5 123.050781 393.597656 126.71875 392.921875 127.511719 C 392.820312 127.628906 391.695312 126.976562 390.425781 126.058594 L 388.117188 124.390625 L 388.109375 127.375 C 388.101562 129.015625 387.925781 130.980469 387.710938 131.738281 C 387.289062 133.222656 386.175781 133.640625 386.175781 132.316406 Z M 368.910156 108.515625 C 364.792969 105.078125 364.167969 104.292969 364.261719 102.664062 L 364.359375 100.929688 L 364.625 102.605469 C 364.78125 103.582031 365.878906 105.046875 367.261719 106.125 L 369.625 107.972656 L 371.078125 106.292969 C 371.878906 105.367188 372.542969 104.265625 372.558594 103.84375 C 372.589844 102.742188 372.789062 102.835938 375.574219 105.253906 C 378.050781 107.402344 378.089844 107.414062 378.457031 106.019531 C 378.664062 105.246094 378.589844 103.785156 378.296875 102.773438 C 377.488281 100 377.644531 99.582031 378.871094 101.253906 C 379.480469 102.089844 380.464844 103.265625 381.054688 103.875 C 382.078125 104.929688 382.140625 104.917969 382.523438 103.566406 C 382.742188 102.792969 382.925781 101.371094 382.929688 100.414062 L 382.941406 98.667969 L 385.171875 101.199219 C 387.257812 103.5625 387.449219 103.648438 388.085938 102.523438 C 388.460938 101.859375 388.773438 100.265625 388.777344 98.976562 C 388.785156 97.316406 388.960938 96.898438 389.382812 97.53125 C 390.089844 98.585938 389.597656 101.464844 388.292969 103.917969 L 387.359375 105.675781 L 386.128906 103.761719 C 384.558594 101.316406 384.035156 101.355469 383.027344 103.996094 C 382.074219 106.492188 381.457031 106.679688 380.527344 104.761719 C 379.925781 103.523438 379.8125 103.671875 379.386719 106.28125 L 378.914062 109.179688 L 373.234375 104.773438 L 371.957031 106.222656 C 371.257812 107.023438 370.671875 108.019531 370.660156 108.441406 C 370.632812 109.355469 369.953125 109.382812 368.910156 108.515625 Z M 405.519531 95.714844 C 404.023438 94.363281 402.988281 93.078125 403.226562 92.851562 C 403.464844 92.628906 403.730469 92.566406 403.820312 92.710938 C 403.90625 92.855469 405.132812 94.144531 406.539062 95.574219 C 409.78125 98.859375 409.113281 98.953125 405.519531 95.714844 Z M 356.753906 90.675781 C 355.390625 88.832031 355.488281 87.613281 357.144531 85.613281 C 358.34375 84.171875 358.890625 83.976562 360.984375 84.242188 C 362.328125 84.410156 365.214844 85.597656 367.40625 86.878906 C 369.933594 88.355469 372.546875 89.34375 374.574219 89.589844 C 376.324219 89.804688 377.761719 89.882812 377.761719 89.769531 C 377.761719 89.65625 377.03125 88.46875 376.140625 87.132812 C 374.027344 83.960938 374.101562 83.621094 376.484375 85.519531 C 378.933594 87.472656 381.859375 88.042969 388.402344 87.84375 L 391.597656 87.746094 L 389.746094 85.914062 C 387.152344 83.347656 387.949219 83.117188 390.8125 85.605469 C 393.5 87.9375 393.332031 88.101562 387.679688 88.664062 C 385.277344 88.90625 382.691406 88.730469 380.542969 88.183594 C 377.332031 87.367188 377.207031 87.378906 377.816406 88.457031 C 378.167969 89.078125 378.734375 89.585938 379.078125 89.585938 C 379.421875 89.585938 379.703125 89.898438 379.703125 90.285156 C 379.703125 91.464844 372.761719 90.425781 369.445312 88.746094 C 361.871094 84.914062 360.917969 84.578125 359.113281 85.148438 C 358.113281 85.464844 357.109375 86.390625 356.761719 87.316406 C 355.605469 90.410156 359.996094 92.816406 361.804688 90.082031 C 362.328125 89.289062 362.207031 88.746094 361.285156 87.78125 C 360.023438 86.460938 360.140625 86.273438 361.84375 86.890625 C 363.054688 87.332031 363.21875 90.238281 362.089844 91.300781 C 360.804688 92.523438 357.863281 92.175781 356.753906 90.675781 Z M 356.753906 90.675781 "/>
<path style=" stroke:none;fill-rule:nonzero;fill:rgb(0%,0%,0%);fill-opacity:1;" d="M 386.59375 83.035156 C 385.648438 82.136719 386.390625 81.917969 390.636719 81.839844 C 395.890625 81.742188 399.082031 80.867188 402.847656 78.488281 C 405.863281 76.585938 406.683594 76.960938 403.820312 78.933594 C 401.207031 80.734375 397.132812 82.121094 393.199219 82.542969 C 391.292969 82.746094 389.125 83.03125 388.375 83.175781 C 387.628906 83.316406 386.824219 83.253906 386.59375 83.035156 Z M 386.59375 83.035156 "/>
</g>
</svg>
