<?xml version="1.0" encoding="UTF-8"?>
<svg xmlns="http://www.w3.org/2000/svg" xmlns:xlink="http://www.w3.org/1999/xlink" width="px" height="px" viewBox="0 0 450 300" version="1.1">
<g id="surface1">
<rect x="0" y="0" width="450" height="300" style="fill:rgb(0%,58.431373%,26.27451%);fill-opacity:1;stroke:none;"/>
<path style=" stroke:none;fill-rule:nonzero;fill:rgb(100%,100%,100%);fill-opacity:1;" d="M 0 0 L 450 0 L 450 210 L 0 210 Z M 0 0 "/>
<path style=" stroke:none;fill-rule:nonzero;fill:rgb(0%,12.54902%,62.352941%);fill-opacity:1;" d="M 0 0 L 450 0 L 450 90 L 0 90 Z M 0 0 "/>
<path style=" stroke:none;fill-rule:nonzero;fill:rgb(0%,0%,0%);fill-opacity:1;" d="M 225.226562 95.058594 L 224.75 95.070312 C 223.714844 95.089844 222.800781 95.640625 222.128906 96.148438 C 195.574219 95.867188 174.28125 74.117188 174.5625 47.566406 C 174.84375 21.015625 196.597656 -0.28125 223.148438 0 L 223.042969 0.117188 C 219.515625 0.738281 216.300781 2.261719 213.738281 4.75 C 210.34375 8.046875 208.179688 12.898438 207.5 19.082031 C 206.804688 25.421875 208.539062 32.488281 210.355469 38.105469 C 212.171875 43.726562 214.160156 47.910156 214.160156 47.910156 L 214.511719 48.65625 L 191.636719 79.460938 L 187.035156 77.867188 L 178.753906 95.535156 L 179.128906 95.773438 C 179.128906 95.773438 198.800781 108.09375 227.324219 107.757812 C 258.59375 107.382812 275.671875 95.191406 275.671875 95.191406 L 276.019531 94.945312 L 267.453125 77.492188 L 263.375 79.265625 L 239.636719 47.863281 L 239.820312 47.933594 C 239.820312 47.933594 241.902344 43.65625 243.765625 37.925781 C 245.628906 32.191406 247.378906 24.988281 246.464844 18.542969 C 245.597656 12.449219 243.679688 7.667969 240.277344 4.421875 C 237.785156 2.042969 234.589844 0.640625 230.863281 0.0820312 L 230.863281 -0.0195312 L 230.722656 -0.160156 C 230.722656 -0.160156 230.253906 -0.652344 229.558594 -1.132812 C 229.320312 -0.714844 229.027344 -0.335938 228.6875 0 Z M 228.710938 102.296875 C 231.226562 102.769531 233.148438 103.742188 234.683594 105.207031 C 236.984375 107.402344 238.597656 110.980469 239.371094 116.414062 C 240.078125 121.394531 238.621094 128.160156 236.867188 133.550781 C 235.792969 136.855469 234.847656 139.148438 234.1875 140.660156 L 230.589844 135.902344 L 230.550781 124.621094 L 236.480469 124.621094 L 228.679688 117.296875 Z M 220.917969 102.371094 L 221.027344 117.53125 L 213.972656 124.921875 L 219.8125 124.921875 L 219.769531 135.859375 L 215.828125 141.171875 C 215.316406 140.0625 214.296875 137.832031 212.972656 133.738281 C 211.261719 128.445312 209.78125 121.769531 210.328125 116.800781 C 210.914062 111.464844 212.675781 107.839844 215.078125 105.507812 C 216.695312 103.9375 218.640625 102.898438 220.917969 102.371094 Z M 261.558594 180.839844 L 262.828125 182.683594 L 259.253906 187.984375 L 255.566406 183.261719 Z M 187.789062 182.570312 L 189.289062 187.179688 L 184.90625 188.101562 C 184.90625 188.101562 187.445312 183.03125 187.789062 182.570312 Z M 192.398438 182.679688 L 198.855469 184.640625 L 200.355469 187.867188 L 194.703125 189.480469 Z M 251.414062 184.753906 L 253.261719 186.714844 L 247.84375 190.980469 L 244.5 186.828125 Z M 263.980469 185.449219 L 266.171875 189.828125 L 261.789062 191.328125 L 261.445312 189.253906 Z M 204.269531 186.140625 L 210.726562 187.523438 L 212.570312 190.289062 L 206.921875 192.480469 Z M 239.3125 187.296875 L 241.039062 189.835938 L 234.585938 192.945312 L 231.820312 188.21875 Z M 216.371094 187.988281 L 226.859375 188.449219 L 227.78125 190.640625 L 219.597656 193.636719 Z M 254.410156 189.019531 L 257.753906 193.515625 L 250.605469 195.359375 L 249.222656 192.9375 Z M 190.320312 189.140625 L 191.242188 192.828125 L 185.710938 190.636719 Z M 201.273438 190.179688 L 204.269531 196.519531 L 196.777344 194.675781 L 195.96875 191.910156 Z M 242.421875 191.789062 L 246.339844 196.398438 L 237.695312 197.785156 L 235.964844 195.019531 Z M 229.167969 192.714844 L 232.972656 198.359375 L 222.828125 198.707031 L 221.097656 195.710938 Z M 213.953125 192.714844 L 217.644531 198.480469 L 208.882812 197.210938 L 207.960938 194.789062 Z M 213.953125 192.714844 "/>
</g>
</svg>
