<?xml version="1.0" encoding="UTF-8"?>
<svg xmlns="http://www.w3.org/2000/svg" xmlns:xlink="http://www.w3.org/1999/xlink" width="px" height="px" viewBox="0 0 900 450" version="1.1">
<g id="surface1">
<rect x="0" y="0" width="900" height="450" style="fill:rgb(80%,3.529412%,18.431373%);fill-opacity:1;stroke:none;"/>
<path style=" stroke:none;fill-rule:nonzero;fill:rgb(100%,82.352941%,0%);fill-opacity:1;" d="M 0 0 L 600 0 L 600 450 L 0 450 Z M 0 0 "/>
<path style=" stroke:none;fill-rule:nonzero;fill:rgb(0%,27.45098%,68.235294%);fill-opacity:1;" d="M 0 0 L 300 0 L 300 450 L 0 450 Z M 0 0 "/>
<path style=" stroke:none;fill-rule:nonzero;fill:rgb(0%,0%,0%);fill-opacity:1;" d="M 423.84375 91.621094 C 422.234375 91.621094 420.824219 92.03125 420.003906 92.671875 C 421.308594 93.050781 422.257812 94.253906 422.257812 95.714844 L 422.257812 99.425781 L 418.546875 99.425781 C 417.09375 99.425781 415.890625 98.492188 415.5 97.199219 C 414.863281 98.023438 414.449219 99.429688 414.449219 101.039062 C 414.449219 102.652344 414.863281 104.058594 415.5 104.878906 C 415.882812 103.574219 417.082031 102.625 418.546875 102.625 L 422.257812 102.625 L 422.257812 120.46875 C 422.257812 121.871094 421.382812 123.03125 420.160156 123.460938 C 421.929688 123.703125 423.453125 126.078125 423.871094 127.378906 C 424.289062 126.082031 425.8125 123.703125 427.582031 123.460938 C 393.488281 124.289062 365.179688 97.320312 364.355469 63.226562 C 363.527344 29.136719 390.496094 0.828125 424.589844 0 L 424.589844 -17.839844 L 428.300781 -17.839844 C 429.753906 -17.839844 430.957031 -16.90625 431.347656 -15.613281 C 431.984375 -16.433594 432.394531 -17.84375 432.394531 -19.453125 C 432.394531 -21.066406 431.984375 -22.472656 431.347656 -23.292969 C 430.964844 -21.988281 429.761719 -21.039062 428.300781 -21.039062 L 424.589844 -21.039062 L 424.589844 -24.753906 C 424.589844 -26.207031 425.523438 -27.410156 426.816406 -27.796875 C 425.996094 -28.4375 424.585938 -28.847656 422.976562 -28.847656 Z M 423.84375 91.621094 "/>
<path style=" stroke:none;fill-rule:nonzero;fill:rgb(96.078431%,83.137255%,0.784314%);fill-opacity:1;" d="M 423.84375 92.390625 C 423.007812 92.390625 422.265625 92.546875 421.644531 92.746094 C 422.476562 93.472656 423.027344 94.519531 423.027344 95.71875 L 423.027344 99.429688 C 423.027344 99.480469 423.011719 99.53125 423 99.582031 L 423 100.171875 L 422.410156 100.171875 C 422.363281 100.183594 422.308594 100.195312 422.257812 100.199219 L 418.546875 100.199219 C 417.363281 100.199219 416.328125 99.65625 415.601562 98.839844 C 415.394531 99.46875 415.21875 100.191406 415.21875 101.042969 C 415.21875 101.882812 415.375 102.621094 415.578125 103.242188 C 416.300781 102.410156 417.347656 101.863281 418.546875 101.863281 L 423.027344 101.863281 C 423.019531 101.9375 423 102.011719 423 102.089844 L 423 102.476562 C 423.011719 102.527344 423.023438 102.574219 423.027344 102.628906 L 423.027344 120.46875 C 423.027344 121.628906 422.429688 122.539062 421.644531 123.257812 C 387.605469 205.65625 293.21875 244.859375 210.820312 210.820312 C 128.425781 176.785156 89.222656 82.394531 123.257812 0 C 123.628906 0.441406 123.773438 0.875 124.027344 1.332031 C 124.28125 0.875 124.425781 0.441406 124.796875 0 C 124.796875 34.460938 96.859375 62.398438 62.398438 62.398438 C 27.9375 62.398438 0 34.460938 0 0 C -0.792969 -0.71875 -1.382812 -1.652344 -1.382812 -2.816406 L -1.382812 -21.398438 L -0.769531 -21.398438 C -0.71875 -21.410156 -0.667969 -21.425781 -0.613281 -21.425781 L 3.097656 -21.425781 C 4.28125 -21.425781 5.316406 -20.882812 6.039062 -20.070312 C 6.246094 -20.699219 6.425781 -21.414062 6.425781 -22.269531 C 6.425781 -23.109375 6.265625 -23.847656 6.066406 -24.46875 C 5.34375 -23.636719 4.292969 -23.089844 3.097656 -23.089844 L -0.613281 -23.089844 C -0.667969 -23.089844 -0.71875 -23.105469 -0.769531 -23.113281 L -1.355469 -23.113281 L -1.355469 -23.703125 C -1.367188 -23.753906 -1.382812 -23.804688 -1.382812 -23.859375 L -1.382812 -27.570312 C -1.382812 -28.753906 -0.839844 -29.789062 -0.0273438 -30.511719 C -0.65625 -30.71875 -1.375 -30.894531 -2.226562 -30.894531 "/>
<path style=" stroke:none;fill-rule:nonzero;fill:rgb(0%,0%,0%);fill-opacity:1;" d="M 470.304688 156.992188 C 468.035156 155.382812 466.175781 153.5625 464.851562 151.4375 C 461.667969 146.328125 460.320312 140.050781 460.320312 133.675781 C 460.320312 130.980469 463.34375 127.945312 463.34375 125.765625 C 463.34375 122.46875 463.035156 120.492188 463.035156 120.492188 C 464.105469 120.640625 465.976562 122.539062 465.976562 122.539062 C 465.976562 122.539062 465.914062 117.070312 464.1875 116.117188 C 464.1875 116.117188 464.886719 115.398438 467.410156 115.324219 C 466.703125 113.523438 463.1875 111.328125 463.1875 111.328125 C 463.363281 111.015625 463.6875 110.742188 464.109375 110.511719 C 464.992188 110.023438 466.230469 109.699219 467.179688 109.511719 C 466.167969 109.300781 465.003906 108.980469 463.726562 108.566406 C 460.804688 107.613281 457.367188 106.214844 454.152344 104.675781 C 448.285156 101.859375 443.816406 101.679688 441.355469 101.679688 C 439.566406 101.679688 436.933594 101.730469 435.390625 102.753906 C 433.976562 103.691406 434.09375 104.914062 433.597656 105.339844 C 432.433594 106.347656 430.4375 106.3125 429.476562 106.3125 C 423.257812 106.3125 423.027344 112.96875 423.027344 112.96875 C 423.027344 112.96875 424.617188 110.5625 427.429688 110.5625 C 432.105469 110.5625 435.644531 113.109375 435.644531 114.070312 C 435.644531 114.457031 435.164062 114.527344 435.132812 114.527344 C 432.082031 114.527344 427.472656 112.769531 425.023438 112.6875 L 425.023438 113.890625 C 430.488281 115.789062 436.03125 118.484375 436.03125 130.347656 C 436.03125 137.820312 435.136719 145.441406 431.398438 151.4375 C 430.074219 153.5625 428.1875 155.378906 425.917969 156.992188 L 448.113281 160.992188 Z M 470.304688 156.992188 "/>
<path style=" stroke:none;fill-rule:nonzero;fill:rgb(0%,0%,0%);fill-opacity:1;" d="M 448.109375 151.992188 L 425.917969 156.992188 C 424.910156 156.6875 420.164062 155.214844 416.832031 153.359375 C 410.96875 150.09375 407.929688 146.84375 400.960938 146.523438 L 400.960938 141.226562 C 400.960938 138.394531 401.988281 135.84375 401.988281 133.136719 C 399.050781 132.351562 390.898438 122.382812 383.378906 117.957031 C 372.3125 125.125 363.746094 136.890625 363.746094 142.300781 C 363.746094 142.300781 364.078125 258.554688 363.746094 299.054688 C 363.746094 301.390625 362.339844 304.6875 362.339844 304.6875 C 366.378906 302.980469 373.78125 292.847656 375.339844 288.996094 L 375.339844 290.839844 C 381.441406 288.058594 385.910156 280.75 387.910156 276.96875 C 387.945312 277.515625 388.039062 278.886719 388.039062 278.886719 C 393.488281 274.109375 400.425781 245.867188 400.425781 245.867188 L 411.988281 257.230469 C 411.988281 257.230469 407.804688 265.71875 406.175781 267.238281 C 406.175781 267.238281 407.269531 267.375 408.507812 267.367188 C 407.746094 268.460938 401.933594 276.828125 400.109375 279.984375 C 398.40625 282.9375 397.203125 281.621094 394.582031 281.621094 C 392.40625 281.621094 387.480469 285.085938 386.671875 286.488281 C 385.820312 287.960938 385.1875 289.746094 385.1875 291.222656 C 385.1875 292.84375 386.902344 295.0625 386.902344 295.0625 C 387.089844 294.285156 387.414062 294.011719 387.414062 294.011719 C 387.414062 294.011719 391.921875 299.625 392.585938 300.359375 C 393.101562 300.929688 395.40625 301.300781 396.21875 300.566406 C 398.253906 298.714844 400.222656 297.425781 402.03125 294.753906 C 402.960938 293.378906 403.035156 291.800781 404.105469 290.324219 C 407.683594 285.386719 414.8125 275.925781 416.441406 273.765625 C 416.550781 274.367188 416.644531 274.867188 416.746094 275.480469 C 418.59375 271.75 427.472656 264.628906 427.472656 264.628906 L 436.761719 268.902344 C 436.761719 268.902344 419.417969 308.769531 404.023438 314.898438 C 404.023438 314.898438 410.722656 317.746094 418.945312 322.015625 C 370.453125 223.714844 400.234375 104.753906 489.328125 40.902344 C 578.421875 -22.953125 700.644531 -12.933594 778.152344 64.574219 C 855.660156 142.082031 865.675781 264.300781 801.824219 353.394531 C 737.96875 442.488281 619.011719 472.273438 520.707031 423.777344 C 525.625 417.199219 530.4375 409.570312 530.4375 409.570312 C 530.769531 411.550781 528.175781 417.667969 523.78125 425.210938 C 522.917969 426.695312 522.015625 428.242188 521.015625 429.816406 C 599.398438 457.855469 645.125 539.375 628.191406 620.882812 C 611.261719 702.386719 536.847656 758.945312 453.78125 753.445312 C 370.71875 747.945312 304.414062 682.0625 298.378906 599.035156 C 292.34375 516.011719 348.421875 441.234375 429.816406 423.777344 C 437.964844 428.679688 445.617188 434.316406 448.453125 439.492188 L 450.453125 434.488281 L 448.453125 429.484375 L 448.453125 158.632812 L 449.453125 156.132812 Z M 448.109375 151.992188 "/>
<path style=" stroke:none;fill-rule:nonzero;fill:rgb(69.019608%,49.803922%,33.333333%);fill-opacity:1;" d="M 448.101562 333.609375 C 445.226562 330.492188 439.214844 326.683594 432.460938 323.167969 C 440.628906 308.507812 444.675781 285.339844 442.777344 280.726562 C 442.777344 280.726562 439.425781 292.742188 435.328125 299.59375 C 431.535156 305.933594 426.867188 313.066406 422.351562 318.355469 C 418.636719 316.769531 415.035156 315.441406 411.957031 314.515625 C 425.488281 304.09375 439.320312 269.644531 439.320312 269.644531 L 425.015625 263.015625 C 425.015625 263.015625 419.664062 269.253906 417.925781 270.410156 C 417.925781 270.410156 417.183594 267.308594 416.746094 266.214844 C 416.746094 266.214844 414.699219 267.765625 413.574219 267.800781 C 413.574219 267.800781 413.238281 265.695312 412.984375 264.320312 C 411.574219 265.261719 409.222656 265.0625 409.222656 265.0625 C 411.285156 264.085938 413.726562 258.101562 413.726562 258.101562 L 400.066406 239.929688 C 400.066406 239.929688 395.269531 262.988281 389.804688 267.726562 L 389.804688 168.4375 L 394.128906 172.453125 L 400.683594 166.335938 L 400.683594 161.679688 L 394.871094 167.105469 L 394.871094 153.050781 C 352.605469 190.820312 287.726562 187.175781 249.960938 144.910156 C 212.191406 102.648438 215.835938 37.769531 258.101562 0 C 259.039062 1.640625 262.078125 6.664062 265.652344 9.753906 C 266.238281 7.363281 270.105469 5.09375 270.105469 5.09375 C 270.105469 5.09375 271.488281 8.847656 273.609375 9.777344 C 274.355469 8.464844 278.808594 5.554688 278.808594 5.554688 C 278.808594 5.554688 275 6.132812 273.457031 7.578125 C 272.132812 7.28125 271.792969 2.046875 271.792969 2.046875 C 271.792969 2.046875 266.191406 4.777344 265.214844 6.730469 C 264.148438 6.441406 262.484375 2.238281 261.835938 0.511719 C 261.695312 72.675781 203.082031 131.058594 130.917969 130.917969 C 58.753906 130.777344 0.371094 72.164062 0.511719 0 C 2.109375 0 4.15625 0.757812 6.296875 1.765625 C 8.648438 2.875 11.113281 4.277344 13.308594 5.273438 C 16.125 6.546875 20.386719 6.808594 21.628906 6.859375 C 20.207031 7.859375 18.640625 8.773438 16.945312 9.625 C 16.945312 9.625 23.652344 9.5625 28.363281 7.21875 C 30.042969 6.136719 31.785156 5.058594 33.277344 3.789062 C 32.628906 5.585938 31.621094 7.707031 30.050781 9.523438 C 36.96875 8.9375 40.414062 4.984375 41.390625 3.660156 C 41.847656 4.847656 42.664062 6.753906 43.949219 8.394531 L 46.449219 8.394531 L 46.449219 178.394531 Z M 397.125 133.648438 L 397.25 136.824219 L 397.25 146.167969 C 394.742188 145.304688 391.589844 141.179688 390.058594 139 L 390.058594 137.71875 C 390.058594 136.515625 390.765625 135.636719 391.289062 135.160156 L 389.777344 134.621094 C 389.203125 135.28125 388.574219 136.253906 388.574219 137.515625 L 388.574219 138.257812 L 384.070312 143.09375 L 379.640625 136.390625 L 379.640625 134.75 C 379.640625 133.648438 380.492188 132.414062 381.203125 131.578125 L 379.71875 131.039062 C 378.96875 132.011719 378.183594 133.320312 378.183594 134.546875 L 378.183594 135.875 C 377.140625 136.953125 373.089844 141.125 373.089844 141.125 L 370.503906 135.570312 C 373.605469 131.273438 378.636719 126.460938 383.378906 123.007812 C 383.378906 123.007812 393.660156 132.449219 397.125 133.648438 Z M 371.0625 142.710938 L 371.0625 150.414062 L 367.480469 153.742188 L 367.480469 142.300781 C 367.480469 141.207031 367.9375 139.886719 368.707031 138.4375 Z M 371.0625 142.710938 "/>
<path style=" stroke:none;fill-rule:nonzero;fill:rgb(69.019608%,49.803922%,33.333333%);fill-opacity:1;" d="M 382.222656 145.679688 L 382.222656 150.441406 L 378.101562 154.304688 L 378.101562 139.410156 Z M 376.644531 154.28125 L 372.523438 150.441406 L 372.523438 144.863281 L 376.644531 140.535156 Z M 395.457031 148.496094 C 394.5 149.847656 391.992188 153.15625 389.289062 154.613281 L 389.289062 141.535156 C 389.910156 142.566406 392.753906 147.171875 395.457031 148.496094 Z M 387.828125 142.199219 L 387.828125 154.28125 L 383.707031 150.441406 L 383.707031 146.164062 Z M 371.0625 155.074219 L 371.0625 167.128906 L 367.480469 163.777344 L 367.480469 158.425781 Z M 376.640625 158.9375 L 376.640625 163.265625 L 372.519531 167.101562 L 372.519531 155.097656 Z M 382.21875 155.101562 L 382.21875 167.105469 L 378.097656 163.238281 L 378.097656 158.964844 Z M 387.824219 158.964844 L 387.824219 163.238281 L 383.703125 167.105469 L 383.703125 155.097656 Z M 393.40625 167.128906 L 389.28125 163.265625 L 389.28125 159.246094 C 390.703125 158.378906 392.132812 156.785156 393.40625 155.101562 Z M 382.960938 172.453125 L 387.3125 168.410156 L 387.3125 267.722656 C 387.3125 267.722656 387.617188 272.652344 387.824219 275.863281 L 378.613281 285.179688 L 378.613281 168.382812 Z M 376.125 281.46875 C 376.125 284.664062 370.296875 292.105469 367.476562 293.808594 L 367.476562 168.4375 L 371.773438 172.457031 L 376.125 168.410156 Z M 376.125 281.46875 "/>
<path style=" stroke:none;fill-rule:nonzero;fill:rgb(81.960784%,1.568627%,16.078431%);fill-opacity:1;" d="M 412.265625 270.695312 L 415.441406 268.519531 C 415.441406 268.519531 415.652344 269.566406 415.925781 271 C 414.570312 272.859375 406.761719 283.511719 402.898438 288.714844 C 401.9375 290.007812 401.132812 293.296875 401.132812 293.296875 C 401.132812 293.296875 399.726562 292.628906 399.726562 291.425781 C 399.726562 290.246094 399.878906 288.84375 399.878906 288.84375 C 399.878906 288.84375 398.828125 290.046875 397.011719 290.046875 C 397.011719 288.59375 399.820312 287.019531 399.929688 284.953125 C 397.789062 286.539062 395.929688 285.722656 393.453125 286.488281 C 390.757812 287.320312 390.007812 288.453125 389.179688 288.40625 C 388.691406 288.382812 388.25 287.542969 388.4375 287.027344 C 388.757812 286.132812 392.09375 283.660156 394.425781 283.210938 C 394.984375 283.105469 399.378906 284.167969 400.261719 282.800781 C 403.910156 277.175781 409.828125 268.042969 410.398438 267.164062 C 410.773438 267.074219 411.121094 266.976562 411.394531 266.804688 C 411.394531 266.804688 411.363281 269.679688 412.265625 270.695312 Z M 412.265625 270.695312 "/>
<path style=" stroke:none;fill-rule:nonzero;fill:rgb(81.960784%,1.568627%,16.078431%);fill-opacity:1;" d="M 391.859375 288.226562 C 392.035156 288.429688 392.019531 288.730469 391.832031 288.890625 L 390.402344 290.144531 C 390.214844 290.308594 389.910156 290.273438 389.734375 290.066406 C 389.558594 289.863281 389.574219 289.566406 389.761719 289.402344 L 391.195312 288.148438 C 311.625 316.257812 224.332031 274.539062 196.222656 194.96875 C 168.113281 115.398438 209.832031 28.109375 289.402344 0 C 289.523438 0.0117188 289.648438 0.078125 289.734375 0.179688 Z M 394.035156 289.734375 C 394.464844 290.230469 394.4375 290.929688 393.984375 291.324219 L 390.503906 294.367188 C 390.050781 294.761719 389.320312 294.683594 388.890625 294.191406 C 388.460938 293.695312 388.488281 292.972656 388.941406 292.578125 L 392.421875 289.558594 C 312.464844 317.128906 225.292969 274.660156 197.722656 194.699219 C 170.148438 114.742188 212.617188 27.570312 292.578125 0 C 292.933594 -0.0273438 293.308594 0.128906 293.578125 0.433594 Z M 396.03125 292.089844 C 396.460938 292.585938 396.433594 293.285156 395.980469 293.679688 L 392.472656 296.722656 C 392.019531 297.117188 391.316406 297.039062 390.886719 296.546875 C 390.457031 296.050781 390.484375 295.324219 390.9375 294.933594 L 394.417969 291.914062 C 313.808594 319.382812 226.191406 276.308594 198.71875 195.699219 C 171.246094 115.089844 214.324219 27.472656 294.933594 0 C 295.289062 -0.0273438 295.6875 0.125 295.957031 0.433594 Z M 397.230469 293.960938 C 316.058594 403.53125 161.425781 426.554688 51.855469 345.378906 C -57.71875 264.203125 -80.738281 109.574219 0.433594 0 C 0.863281 0.492188 0.835938 1.21875 0.382812 1.613281 L -3.097656 4.632812 C -3.550781 5.027344 -4.253906 4.949219 -4.683594 4.453125 C -5.113281 3.960938 -5.113281 3.261719 -4.660156 2.867188 L -1.152344 -0.179688 C -0.984375 -0.328125 -0.777344 -0.390625 -0.5625 -0.410156 Z M 397.230469 293.960938 "/>
<path style=" stroke:none;fill-rule:nonzero;fill:rgb(0%,0%,0%);fill-opacity:1;" d="M 448.089844 151.992188 L 470.28125 156.992188 C 471.292969 156.6875 476.039062 155.214844 479.371094 153.359375 C 485.234375 150.09375 488.273438 146.84375 495.238281 146.523438 L 495.238281 141.226562 C 495.238281 138.394531 494.214844 135.84375 494.214844 133.136719 C 497.152344 132.351562 505.304688 122.382812 512.824219 117.957031 C 523.890625 125.125 532.457031 136.890625 532.457031 142.300781 C 532.457031 142.300781 532.125 258.554688 532.457031 299.054688 C 532.457031 301.390625 533.863281 304.6875 533.863281 304.6875 C 529.824219 302.980469 522.421875 292.847656 520.859375 288.996094 L 520.859375 290.839844 C 514.761719 288.058594 510.292969 280.75 508.292969 276.96875 C 508.257812 277.515625 508.164062 278.886719 508.164062 278.886719 C 502.714844 274.109375 495.777344 245.867188 495.777344 245.867188 L 484.214844 257.230469 C 484.214844 257.230469 488.394531 265.71875 490.023438 267.238281 C 490.023438 267.238281 488.933594 267.375 487.695312 267.367188 C 488.457031 268.460938 494.269531 276.828125 496.089844 279.984375 C 497.796875 282.9375 499 281.621094 501.621094 281.621094 C 503.792969 281.621094 508.71875 285.085938 509.53125 286.488281 C 510.378906 287.960938 511.011719 289.746094 511.011719 291.222656 C 511.011719 292.84375 509.296875 295.0625 509.296875 295.0625 C 509.113281 294.285156 508.785156 294.011719 508.785156 294.011719 C 508.785156 294.011719 504.28125 299.625 503.617188 300.359375 C 503.097656 300.929688 500.792969 301.300781 499.980469 300.566406 C 497.949219 298.714844 495.980469 297.425781 494.171875 294.753906 C 493.238281 293.378906 493.167969 291.800781 492.097656 290.324219 C 488.515625 285.386719 481.390625 275.925781 479.761719 273.765625 C 479.652344 274.367188 479.558594 274.867188 479.453125 275.480469 C 477.609375 271.75 468.730469 264.628906 468.730469 264.628906 L 459.441406 268.902344 C 459.441406 268.902344 476.785156 308.769531 492.179688 314.898438 C 492.179688 314.898438 485.480469 317.746094 477.253906 322.015625 C 525.75 223.714844 495.96875 104.753906 406.875 40.902344 C 317.777344 -22.953125 195.558594 -12.933594 118.050781 64.574219 C 40.542969 142.082031 30.527344 264.300781 94.378906 353.394531 C 158.234375 442.488281 277.191406 472.273438 375.492188 423.777344 C 370.574219 417.199219 365.765625 409.570312 365.765625 409.570312 C 365.429688 411.550781 368.027344 417.667969 372.421875 425.210938 C 373.285156 426.695312 374.1875 428.242188 375.183594 429.816406 C 296.804688 457.855469 251.074219 539.375 268.007812 620.882812 C 284.941406 702.386719 359.355469 758.945312 442.421875 753.445312 C 525.484375 747.945312 591.789062 682.0625 597.824219 599.035156 C 603.859375 516.011719 547.78125 441.234375 466.382812 423.777344 C 458.238281 428.679688 450.585938 434.316406 447.75 439.492188 L 445.75 434.488281 L 447.75 429.484375 L 447.75 158.632812 L 446.75 156.132812 Z M 448.089844 151.992188 "/>
<path style=" stroke:none;fill-rule:nonzero;fill:rgb(69.019608%,49.803922%,33.333333%);fill-opacity:1;" d="M 448.101562 333.609375 C 450.976562 330.492188 456.984375 326.683594 463.738281 323.167969 C 455.574219 308.507812 451.527344 285.339844 453.425781 280.726562 C 453.425781 280.726562 456.777344 292.742188 460.875 299.59375 C 464.667969 305.933594 469.335938 313.066406 473.851562 318.355469 C 477.566406 316.769531 481.167969 315.441406 484.242188 314.515625 C 470.714844 304.09375 456.878906 269.644531 456.878906 269.644531 L 471.1875 263.015625 C 471.1875 263.015625 476.539062 269.253906 478.277344 270.410156 C 478.277344 270.410156 479.019531 267.308594 479.453125 266.214844 C 479.453125 266.214844 481.503906 267.765625 482.628906 267.800781 C 482.628906 267.800781 482.960938 265.695312 483.214844 264.320312 C 484.628906 265.261719 486.976562 265.0625 486.976562 265.0625 C 484.914062 264.085938 482.472656 258.101562 482.472656 258.101562 L 496.132812 239.929688 C 496.132812 239.929688 500.933594 262.988281 506.398438 267.726562 L 506.398438 168.4375 L 502.074219 172.453125 L 495.519531 166.335938 L 495.519531 161.679688 L 501.332031 167.105469 L 501.332031 153.050781 C 543.59375 190.820312 608.472656 187.175781 646.242188 144.910156 C 684.011719 102.648438 680.367188 37.769531 638.101562 0 C 637.160156 1.640625 634.121094 6.664062 630.550781 9.753906 C 629.964844 7.363281 626.097656 5.09375 626.097656 5.09375 C 626.097656 5.09375 624.710938 8.847656 622.589844 9.777344 C 621.84375 8.464844 617.394531 5.554688 617.394531 5.554688 C 617.394531 5.554688 621.203125 6.132812 622.746094 7.578125 C 624.070312 7.28125 624.410156 2.046875 624.410156 2.046875 C 624.410156 2.046875 630.011719 4.777344 630.988281 6.730469 C 632.054688 6.441406 633.71875 2.238281 634.367188 0.511719 C 634.507812 72.675781 693.121094 131.058594 765.285156 130.917969 C 837.445312 130.777344 895.832031 72.164062 895.691406 0 C 894.09375 0 892.046875 0.757812 889.90625 1.765625 C 887.550781 2.875 885.089844 4.277344 882.890625 5.273438 C 880.074219 6.546875 875.816406 6.808594 874.574219 6.859375 C 875.996094 7.859375 877.558594 8.773438 879.257812 9.625 C 879.257812 9.625 872.550781 9.5625 867.839844 7.21875 C 866.160156 6.136719 864.414062 5.058594 862.925781 3.789062 C 863.574219 5.585938 864.578125 7.707031 866.152344 9.523438 C 859.234375 8.9375 855.789062 4.984375 854.8125 3.660156 C 854.351562 4.847656 853.535156 6.753906 852.253906 8.394531 L 849.753906 8.394531 L 849.753906 178.394531 Z M 499.078125 133.648438 L 498.949219 136.824219 L 498.949219 146.167969 C 501.460938 145.304688 504.613281 141.179688 506.144531 139 L 506.144531 137.71875 C 506.144531 136.515625 505.433594 135.636719 504.914062 135.160156 L 506.425781 134.621094 C 507 135.28125 507.628906 136.253906 507.628906 137.515625 L 507.628906 138.257812 L 512.132812 143.09375 L 516.558594 136.390625 L 516.558594 134.75 C 516.558594 133.648438 515.710938 132.414062 515 131.578125 L 516.484375 131.039062 C 517.234375 132.011719 518.019531 133.320312 518.019531 134.546875 L 518.019531 135.875 C 519.0625 136.953125 523.113281 141.125 523.113281 141.125 L 525.699219 135.570312 C 522.59375 131.273438 517.566406 126.460938 512.824219 123.007812 C 512.824219 123.007812 502.542969 132.449219 499.078125 133.648438 Z M 525.136719 142.710938 L 525.136719 150.414062 L 528.722656 153.742188 L 528.722656 142.300781 C 528.722656 141.207031 528.261719 139.886719 527.492188 138.4375 Z M 525.136719 142.710938 "/>
<path style=" stroke:none;fill-rule:nonzero;fill:rgb(69.019608%,49.803922%,33.333333%);fill-opacity:1;" d="M 513.976562 145.679688 L 513.976562 150.441406 L 518.097656 154.304688 L 518.097656 139.410156 Z M 519.558594 154.28125 L 523.679688 150.441406 L 523.679688 144.863281 L 519.558594 140.535156 Z M 500.746094 148.496094 C 501.703125 149.847656 504.210938 153.15625 506.914062 154.613281 L 506.914062 141.535156 C 506.292969 142.566406 503.445312 147.171875 500.746094 148.496094 Z M 508.375 142.199219 L 508.375 154.28125 L 512.496094 150.441406 L 512.496094 146.164062 Z M 525.140625 155.074219 L 525.140625 167.128906 L 528.722656 163.777344 L 528.722656 158.425781 Z M 519.5625 158.9375 L 519.5625 163.265625 L 523.683594 167.101562 L 523.683594 155.097656 Z M 513.984375 155.101562 L 513.984375 167.105469 L 518.101562 163.238281 L 518.101562 158.964844 Z M 508.375 158.964844 L 508.375 163.238281 L 512.496094 167.105469 L 512.496094 155.097656 Z M 502.796875 167.128906 L 506.917969 163.265625 L 506.917969 159.246094 C 505.496094 158.378906 504.066406 156.785156 502.796875 155.101562 Z M 513.238281 172.453125 L 508.886719 168.410156 L 508.886719 267.722656 C 508.886719 267.722656 508.585938 272.652344 508.375 275.863281 L 517.589844 285.179688 L 517.589844 168.382812 Z M 520.074219 281.46875 C 520.074219 284.664062 525.90625 292.105469 528.726562 293.808594 L 528.726562 168.4375 L 524.425781 172.457031 L 520.074219 168.410156 Z M 520.074219 281.46875 "/>
<path style=" stroke:none;fill-rule:nonzero;fill:rgb(81.960784%,1.568627%,16.078431%);fill-opacity:1;" d="M 483.933594 270.695312 L 480.761719 268.519531 C 480.761719 268.519531 480.550781 269.566406 480.273438 271 C 481.632812 272.859375 489.441406 283.511719 493.304688 288.714844 C 494.261719 290.007812 495.070312 293.296875 495.070312 293.296875 C 495.070312 293.296875 496.476562 292.628906 496.476562 291.425781 C 496.476562 290.246094 496.324219 288.84375 496.324219 288.84375 C 496.324219 288.84375 497.375 290.046875 499.191406 290.046875 C 499.191406 288.59375 496.382812 287.019531 496.273438 284.953125 C 498.414062 286.539062 500.273438 285.722656 502.746094 286.488281 C 505.445312 287.320312 506.195312 288.453125 507.023438 288.40625 C 507.507812 288.382812 507.949219 287.542969 507.765625 287.027344 C 507.441406 286.132812 504.109375 283.660156 501.777344 283.210938 C 501.21875 283.105469 496.824219 284.167969 495.941406 282.800781 C 492.292969 277.175781 486.375 268.042969 485.804688 267.164062 C 485.425781 267.074219 485.082031 266.976562 484.804688 266.804688 C 484.804688 266.804688 484.839844 269.679688 483.933594 270.695312 Z M 483.933594 270.695312 "/>
<path style=" stroke:none;fill-rule:nonzero;fill:rgb(81.960784%,1.568627%,16.078431%);fill-opacity:1;" d="M 504.34375 288.226562 C 504.164062 288.429688 504.179688 288.730469 504.367188 288.890625 L 505.800781 290.144531 C 505.988281 290.308594 506.289062 290.273438 506.464844 290.066406 C 506.644531 289.863281 506.628906 289.566406 506.441406 289.402344 L 505.007812 288.148438 C 584.578125 316.257812 671.867188 274.539062 699.976562 194.96875 C 728.085938 115.398438 686.371094 28.109375 606.800781 0 C 606.679688 0.0117188 606.554688 0.078125 606.464844 0.179688 Z M 502.167969 289.734375 C 501.738281 290.230469 501.765625 290.929688 502.21875 291.324219 L 505.699219 294.367188 C 506.152344 294.761719 506.882812 294.683594 507.3125 294.191406 C 507.742188 293.695312 507.714844 292.972656 507.261719 292.578125 L 503.78125 289.558594 C 583.738281 317.128906 670.910156 274.660156 698.480469 194.699219 C 726.050781 114.742188 683.582031 27.570312 603.625 0 C 603.269531 -0.0273438 602.894531 0.128906 602.625 0.433594 Z M 500.171875 292.089844 C 499.742188 292.585938 499.769531 293.285156 500.222656 293.679688 L 503.730469 296.722656 C 504.183594 297.117188 504.886719 297.039062 505.316406 296.546875 C 505.746094 296.050781 505.71875 295.324219 505.265625 294.933594 L 501.785156 291.914062 C 582.394531 319.382812 670.011719 276.308594 697.484375 195.699219 C 724.953125 115.089844 681.878906 27.472656 601.269531 0 C 600.914062 -0.0273438 600.515625 0.125 600.246094 0.433594 Z M 498.96875 293.960938 C 580.144531 403.53125 734.777344 426.554688 844.347656 345.378906 C 953.921875 264.203125 976.941406 109.574219 895.765625 0 C 895.339844 0.492188 895.367188 1.21875 895.816406 1.613281 L 899.300781 4.632812 C 899.753906 5.027344 900.457031 4.949219 900.886719 4.453125 C 901.316406 3.960938 901.3125 3.261719 900.859375 2.867188 L 897.355469 -0.179688 C 897.183594 -0.328125 896.980469 -0.390625 896.765625 -0.410156 Z M 498.96875 293.960938 "/>
<path style=" stroke:none;fill-rule:nonzero;fill:rgb(69.019608%,49.803922%,33.333333%);fill-opacity:1;" d="M 442.96875 103.320312 C 448.695312 103.320312 452.726562 105.929688 458.148438 108.335938 C 459.566406 108.964844 460.871094 109.476562 462.035156 109.871094 C 461.304688 110.515625 460.738281 111.167969 460.578125 111.714844 C 460.578125 111.714844 463.007812 112.164062 464.109375 114.199219 C 464.109375 114.199219 461.800781 114.460938 461.421875 115.808594 C 462.714844 115.90625 464 117.539062 464.007812 119.113281 L 460.730469 118.085938 C 460.730469 118.085938 461.523438 121.765625 461.523438 125.765625 C 461.523438 127.808594 458.582031 130.214844 458.582031 133.675781 C 458.582031 144.542969 461.320312 148.71875 463.265625 152.078125 C 464.027344 153.394531 464.644531 154.90625 465.925781 156.046875 C 460.320312 153.058594 456.148438 149.328125 456.148438 145.859375 L 456.148438 132.730469 L 454.691406 132.730469 L 454.691406 145.859375 C 454.691406 148.375 455.304688 149.546875 455.304688 149.546875 C 456.183594 152.328125 457.964844 156.621094 459.066406 158.351562 C 453.90625 155.5625 451.285156 152.070312 451.285156 150.773438 L 451.285156 132.726562 L 449.828125 132.726562 L 449.828125 151.03125 L 450.109375 152.285156 C 449.484375 153.222656 448.667969 154.335938 448.113281 154.714844 C 447.554688 154.335938 446.765625 153.222656 446.140625 152.285156 L 446.421875 151.03125 L 446.421875 132.726562 L 444.964844 132.726562 L 444.964844 150.773438 C 444.964844 152.070312 442.339844 155.5625 437.179688 158.351562 C 438.285156 156.621094 440.0625 152.328125 440.945312 149.546875 C 440.945312 149.546875 441.558594 148.375 441.558594 145.859375 L 441.558594 132.730469 L 440.097656 132.730469 L 440.097656 145.859375 C 440.097656 149.324219 435.945312 153.0625 430.347656 156.046875 C 431.613281 154.90625 432.226562 153.386719 432.984375 152.078125 C 435.113281 148.40625 437.742188 143.738281 437.742188 130.449219 C 437.742188 125.464844 437.007812 122.074219 435.722656 119.699219 C 435.332031 118.917969 434.804688 116.832031 437.792969 116.832031 C 439.34375 116.832031 442.886719 119.570312 442.886719 119.570312 C 442.886719 119.570312 442.742188 117.386719 440.941406 116.140625 C 440.644531 115.933594 440.148438 115.285156 440.148438 114.683594 C 440.148438 114.230469 440.925781 113.113281 441.53125 112.839844 C 441.949219 112.652344 435.441406 111.515625 435.441406 108.566406 C 435.441406 107.949219 435.828125 107.539062 437.179688 107.539062 C 438.953125 107.539062 441.835938 109.664062 444.398438 109.664062 C 446.292969 109.664062 447.039062 109.203125 448.980469 109.203125 C 451.351562 109.203125 456.296875 113.695312 457.988281 113.53125 C 456.097656 112.34375 453.042969 107.847656 448.417969 107.847656 C 446.8125 107.847656 445.359375 108.207031 443.859375 108.207031 C 441.941406 108.207031 440.046875 106.441406 437.972656 106.441406 C 436.582031 106.441406 435.027344 106.515625 434.796875 106.15625 C 434.394531 105.53125 434.757812 105.164062 435.132812 104.648438 C 435.835938 103.667969 437.816406 103.386719 439.765625 103.316406 C 411.234375 196.222656 312.789062 248.414062 219.882812 219.882812 C 126.976562 191.351562 74.785156 92.90625 103.316406 0 C 103.863281 0.00390625 104.367188 0.0273438 104.800781 0.0273438 Z M 442.96875 103.320312 "/>
<path style=" stroke:none;fill-rule:nonzero;fill:rgb(80%,3.529412%,18.431373%);fill-opacity:1;" d="M 424.363281 110.34375 C 424.363281 110.34375 425.574219 108.054688 428.632812 108.054688 C 429.910156 108.054688 434.128906 107.964844 434.128906 107.964844 C 434.691406 109.425781 437.253906 111.867188 437.253906 114.40625 C 437.253906 114.40625 434.652344 109.714844 427.390625 109.714844 C 425.566406 109.714844 424.363281 110.34375 424.363281 110.34375 Z M 424.363281 110.34375 "/>
<path style=" stroke:none;fill-rule:nonzero;fill:rgb(81.960784%,1.568627%,16.078431%);fill-opacity:1;" d="M 436.171875 115.300781 C 436.171875 115.300781 434.625 116.929688 434.289062 117.796875 C 432.757812 117.21875 430.089844 114.46875 430.089844 114.46875 C 430.089844 114.46875 432.351562 115.789062 436.167969 115.300781 Z M 436.171875 115.300781 "/>
<path style=" stroke:none;fill-rule:nonzero;fill:rgb(0%,0%,0%);fill-opacity:1;" d="M 433.71875 110.984375 C 433.71875 110.984375 431.9375 110.414062 431.9375 109.8125 C 431.9375 109.050781 432.800781 109.050781 433.320312 109.644531 C 433.675781 110.054688 433.71875 110.984375 433.71875 110.984375 Z M 433.71875 110.984375 "/>
<path style=" stroke:none;fill-rule:nonzero;fill:rgb(0%,0%,0%);fill-opacity:1;" d="M 443.953125 111.03125 C 443.953125 109.914062 442.8125 109.007812 441.398438 109.007812 C 439.988281 109.007812 438.84375 109.914062 438.84375 111.03125 C 438.84375 112.144531 439.988281 113.050781 441.398438 113.050781 C 442.8125 113.050781 443.953125 112.144531 443.953125 111.03125 Z M 443.953125 111.03125 "/>
<path style=" stroke:none;fill-rule:nonzero;fill:rgb(96.078431%,83.137255%,0.784314%);fill-opacity:1;" d="M 443.179688 111.03125 C 443.179688 112.011719 442.382812 112.808594 441.398438 112.808594 C 440.417969 112.808594 439.621094 112.011719 439.621094 111.03125 C 439.621094 110.046875 440.417969 109.25 441.398438 109.25 C 442.382812 109.25 443.179688 110.046875 443.179688 111.03125 Z M 443.179688 111.03125 "/>
<path style=" stroke:none;fill-rule:nonzero;fill:rgb(0%,0%,0%);fill-opacity:1;" d="M 442.15625 111.03125 C 442.15625 111.445312 441.816406 111.785156 441.398438 111.785156 C 440.980469 111.785156 440.644531 111.445312 440.644531 111.03125 C 440.644531 110.613281 440.980469 110.273438 441.398438 110.273438 C 441.816406 110.273438 442.15625 110.613281 442.15625 111.03125 Z M 442.15625 111.03125 "/>
<path style=" stroke:none;fill-rule:nonzero;fill:rgb(0%,0%,0%);fill-opacity:1;" d="M 400.6875 295.976562 L 408.789062 300.394531 L 406.824219 309.410156 L 398.722656 304.988281 Z M 400.6875 295.976562 "/>
<path style=" stroke:none;fill-rule:nonzero;fill:rgb(0%,0%,0%);fill-opacity:1;" d="M 362.949219 209.363281 L 360.03125 210.695312 L 393 282.90625 L 396.507812 282.90625 Z M 401.832031 294.523438 L 399.449219 296.984375 L 400.933594 300.257812 L 403.828125 298.929688 Z M 401.832031 294.523438 "/>
<path style=" stroke:none;fill-rule:nonzero;fill:rgb(0%,0%,0%);fill-opacity:1;" d="M 373.195312 266.300781 C 373.195312 266.300781 375.972656 272.035156 378.082031 272.824219 C 376.992188 272.523438 373.445312 273.824219 373.445312 273.824219 C 373.445312 273.824219 379.695312 279.40625 384.996094 279.773438 C 389.492188 280.085938 391.675781 277.839844 391.675781 277.839844 L 390.773438 273.078125 C 390.773438 273.078125 388.023438 269.757812 383.621094 268.226562 C 379.175781 266.675781 373.195312 266.300781 373.195312 266.300781 Z M 394.128906 256.023438 C 394.128906 256.023438 390.296875 259.308594 389.246094 263.109375 C 388.195312 266.910156 389.929688 271.234375 389.929688 271.234375 L 393.152344 277.242188 C 393.152344 277.242188 397.617188 274.867188 399.515625 271.3125 C 401.417969 267.757812 400.71875 262.964844 400.71875 262.964844 C 400.71875 262.964844 397.183594 264.28125 396.734375 264.863281 C 397.480469 260.921875 394.128906 256.023438 394.128906 256.023438 Z M 381.804688 254.488281 C 381.804688 254.488281 377.445312 255.964844 373.210938 255.710938 C 369.175781 255.464844 365.820312 252.078125 365.820312 252.078125 C 365.820312 252.078125 369.164062 249.816406 370.816406 250.117188 C 369 249.453125 366.367188 244.90625 366.367188 244.90625 C 366.367188 244.90625 370.109375 243.773438 373.425781 245.023438 C 376.742188 246.277344 379.632812 249.910156 379.632812 249.910156 Z M 383.304688 233.191406 C 383.304688 233.191406 385.484375 237.707031 384.96875 239.277344 C 385.644531 238.230469 388.207031 236.601562 388.207031 236.601562 C 388.207031 236.601562 389.753906 243.914062 388.273438 248.429688 C 386.792969 252.945312 382.285156 254.664062 382.285156 254.664062 L 377.316406 244.996094 C 377.316406 244.996094 376.574219 241.414062 378.125 238.578125 C 379.675781 235.742188 383.304688 233.191406 383.304688 233.191406 Z M 354.929688 221.234375 C 354.929688 221.234375 359.644531 220.738281 363.957031 222.527344 C 367.558594 224.023438 368.664062 226.742188 368.664062 226.742188 L 370.441406 231.503906 C 370.441406 231.503906 365.308594 233.425781 361.257812 231.957031 C 357.203125 230.484375 354.222656 225.617188 354.222656 225.617188 C 354.222656 225.617188 357.058594 224.542969 358.136719 224.945312 C 356.566406 224.25 354.929688 221.234375 354.929688 221.234375 Z M 369.753906 212.398438 C 369.753906 212.398438 371.824219 215.054688 371.886719 218.113281 C 372.4375 216.488281 375.019531 214.691406 375.019531 214.691406 C 375.019531 214.691406 377.675781 221.121094 377.09375 225.683594 C 376.507812 230.246094 372.6875 232.945312 372.6875 232.945312 L 367.921875 223.902344 C 367.921875 223.902344 366.371094 220.191406 366.828125 217.316406 C 367.285156 214.441406 369.753906 212.398438 369.753906 212.398438 Z M 353.429688 195.101562 C 353.429688 195.101562 352.574219 200.027344 354.03125 202.863281 C 355.328125 205.398438 356.15625 205.953125 356.15625 205.953125 C 353.679688 204.320312 349.933594 204.175781 349.933594 204.175781 C 349.933594 204.175781 351.265625 209.539062 354.453125 211.984375 C 357.636719 214.429688 362.550781 213.859375 362.550781 213.859375 C 362.550781 213.859375 365.78125 209.558594 365.554688 204.925781 C 365.328125 200.292969 361.652344 195.328125 361.652344 195.328125 C 361.652344 195.328125 360.199219 198.335938 360.070312 200.582031 C 359.132812 198.265625 353.429688 195.101562 353.429688 195.101562 Z M 391.929688 277.636719 L 392.0625 279.402344 C 395 279.429688 395.4375 279.136719 396.191406 280.066406 C 396.691406 280.679688 397.886719 281.21875 399.085938 280.671875 C 400.285156 280.125 400.820312 278.683594 400.273438 277.484375 C 399.726562 276.285156 398.609375 276.023438 397.535156 276.234375 C 396.878906 276.367188 396.441406 276.890625 395.882812 277.179688 C 394.820312 277.734375 391.929688 277.636719 391.929688 277.636719 Z M 391.929688 277.636719 "/>
<path style=" stroke:none;fill-rule:nonzero;fill:rgb(0%,0%,0%);fill-opacity:1;" d="M 391.675781 276.285156 L 393.105469 277.332031 C 391.570312 279.839844 391.09375 280.054688 391.480469 281.183594 C 391.738281 281.9375 391.5625 283.234375 390.460938 283.960938 C 389.363281 284.6875 387.855469 284.382812 387.128906 283.28125 C 386.398438 282.183594 386.769531 281.097656 387.519531 280.300781 C 387.976562 279.808594 388.652344 279.71875 389.195312 279.398438 C 390.226562 278.785156 391.675781 276.285156 391.675781 276.285156 Z M 381.726562 255.285156 L 381.855469 257.054688 C 384.796875 257.082031 385.230469 256.789062 385.984375 257.714844 C 386.484375 258.332031 387.679688 258.871094 388.878906 258.320312 C 390.078125 257.773438 390.617188 256.332031 390.066406 255.132812 C 389.519531 253.933594 388.40625 253.675781 387.332031 253.886719 C 386.671875 254.015625 386.238281 254.542969 385.679688 254.832031 C 384.613281 255.382812 381.722656 255.285156 381.722656 255.285156 Z M 381.726562 255.285156 "/>
<path style=" stroke:none;fill-rule:nonzero;fill:rgb(0%,0%,0%);fill-opacity:1;" d="M 382.320312 255.910156 L 383.570312 257.167969 C 381.664062 259.40625 381.15625 259.546875 381.363281 260.71875 C 381.503906 261.503906 381.128906 262.757812 379.925781 263.304688 C 378.726562 263.851562 377.289062 263.316406 376.738281 262.117188 C 376.191406 260.917969 376.726562 259.902344 377.589844 259.230469 C 378.121094 258.816406 378.800781 258.835938 379.386719 258.601562 C 380.5 258.15625 382.320312 255.910156 382.320312 255.910156 Z M 371.835938 234.359375 L 371.96875 236.128906 C 374.90625 236.15625 375.34375 235.863281 376.097656 236.789062 C 376.597656 237.40625 377.789062 237.945312 378.988281 237.398438 C 380.1875 236.847656 380.726562 235.410156 380.179688 234.207031 C 379.632812 233.007812 378.515625 232.75 377.441406 232.960938 C 376.78125 233.089844 376.347656 233.617188 375.789062 233.90625 C 374.722656 234.457031 371.835938 234.359375 371.835938 234.359375 Z M 371.835938 234.359375 "/>
<path style=" stroke:none;fill-rule:nonzero;fill:rgb(0%,0%,0%);fill-opacity:1;" d="M 372.648438 233.988281 L 373.898438 235.246094 C 371.996094 237.484375 371.488281 237.625 371.695312 238.800781 C 371.832031 239.582031 371.457031 240.835938 370.257812 241.386719 C 369.058594 241.933594 367.617188 241.394531 367.070312 240.195312 C 366.523438 238.996094 367.054688 237.984375 367.921875 237.308594 C 368.449219 236.898438 369.132812 236.914062 369.71875 236.679688 C 370.832031 236.238281 372.648438 233.988281 372.648438 233.988281 Z M 361.300781 212.269531 L 361.433594 214.039062 C 364.371094 214.066406 364.808594 213.773438 365.558594 214.699219 C 366.0625 215.316406 367.253906 215.855469 368.453125 215.308594 C 369.652344 214.757812 370.191406 213.320312 369.644531 212.117188 C 369.097656 210.917969 367.980469 210.65625 366.90625 210.871094 C 366.246094 211 365.8125 211.527344 365.253906 211.816406 C 364.191406 212.367188 361.300781 212.269531 361.300781 212.269531 Z M 361.300781 212.269531 "/>
<path style=" stroke:none;fill-rule:nonzero;fill:rgb(0%,0%,0%);fill-opacity:1;" d="M 362.113281 211.898438 L 363.363281 213.160156 C 361.460938 215.394531 360.953125 215.535156 361.160156 216.710938 C 361.296875 217.492188 360.921875 218.746094 359.722656 219.296875 C 358.523438 219.84375 357.082031 219.304688 356.535156 218.105469 C 355.988281 216.90625 356.519531 215.890625 357.382812 215.21875 C 357.914062 214.808594 358.597656 214.824219 359.179688 214.589844 C 360.292969 214.148438 362.113281 211.902344 362.113281 211.902344 Z M 362.113281 211.898438 "/>
<path style=" stroke:none;fill-rule:nonzero;fill:rgb(96.078431%,83.137255%,0.784314%);fill-opacity:1;" d="M 401.855469 298.53125 L 406.878906 301.273438 L 405.660156 306.863281 L 400.636719 304.121094 Z M 379.859375 250.046875 C 378.808594 250.480469 377.246094 245.898438 376.097656 243.386719 C 374.921875 240.808594 372.53125 236.835938 373.210938 236.527344 C 373.957031 236.1875 374.9375 238.273438 376.140625 240.910156 C 377.34375 243.546875 380.847656 249.632812 379.859375 250.042969 Z M 369.046875 225.898438 C 367.992188 226.339844 366.839844 223.335938 365.695312 220.824219 C 364.515625 218.246094 363.371094 216.425781 364.050781 216.117188 C 364.792969 215.777344 365.894531 218.035156 366.859375 220.144531 C 367.789062 222.1875 370.03125 225.488281 369.042969 225.902344 Z M 394.066406 280.644531 C 393.238281 280.867188 389.628906 273.3125 386.714844 266.925781 C 383.796875 260.535156 381.625 255.363281 382.304688 255.054688 C 383.046875 254.714844 385.410156 260.75 388.328125 267.140625 C 391.246094 273.53125 394.683594 280.476562 394.066406 280.644531 Z M 394.066406 280.644531 "/>
<path style=" stroke:none;fill-rule:nonzero;fill:rgb(3.529412%,46.666667%,32.941176%);fill-opacity:1;" d="M 354.878906 198.09375 C 354.878906 198.09375 354.753906 201.695312 355.945312 203.738281 C 357.136719 205.78125 359.796875 206.59375 359.796875 206.59375 C 359.796875 206.59375 359.921875 202.996094 358.730469 200.953125 C 357.539062 198.910156 354.878906 198.09375 354.878906 198.09375 Z M 352.390625 206.238281 C 352.390625 206.238281 355.515625 206.425781 357.324219 207.808594 C 359.128906 209.191406 359.828125 212.074219 359.828125 212.074219 C 359.828125 212.074219 357.753906 212.285156 355.949219 210.902344 C 354.144531 209.515625 352.390625 206.238281 352.390625 206.238281 Z M 362.203125 198.96875 C 362.203125 198.96875 361.164062 201.355469 361.285156 203.925781 C 361.40625 206.496094 362.90625 209.394531 362.90625 209.394531 C 362.90625 209.394531 364.261719 206.308594 364.140625 203.734375 C 364.023438 201.164062 362.570312 199.699219 362.203125 198.96875 Z M 356.941406 222.148438 C 356.941406 222.148438 358.476562 224.292969 360.839844 225.464844 C 363.203125 226.632812 366.726562 226.675781 366.726562 226.675781 C 366.726562 226.675781 364.96875 224.394531 362.601562 223.226562 C 360.238281 222.054688 356.941406 222.148438 356.941406 222.148438 Z M 357.699219 227.128906 C 357.699219 227.128906 358.828125 229.339844 360.890625 230.289062 C 362.957031 231.234375 367.179688 231.15625 367.179688 231.15625 C 367.179688 231.15625 365.558594 229.09375 363.496094 228.144531 C 361.429688 227.195312 357.699219 227.128906 357.699219 227.128906 Z M 369.585938 215.339844 C 369.585938 215.339844 368.335938 217.402344 368.460938 219.671875 C 368.582031 221.945312 370.074219 224.429688 370.074219 224.429688 C 370.074219 224.429688 371.121094 221.582031 371 219.308594 C 370.878906 217.039062 369.585938 215.339844 369.585938 215.339844 Z M 374.179688 218.253906 C 374.179688 218.253906 372.046875 221.121094 371.738281 224.066406 C 371.433594 227.011719 372.953125 230.035156 372.953125 230.035156 C 372.953125 230.035156 375.53125 227.449219 375.839844 224.503906 C 376.144531 221.554688 374.179688 218.257812 374.179688 218.257812 Z M 368.296875 245.453125 C 368.296875 245.453125 368.550781 246.515625 369.445312 247.636719 C 370.335938 248.765625 371.863281 249.953125 371.863281 249.953125 C 371.863281 249.953125 373.335938 249.480469 375.167969 249.878906 C 377 250.273438 379.4375 251.90625 379.4375 251.90625 C 379.4375 251.90625 376.816406 247.992188 374.089844 246.46875 C 371.367188 244.949219 368.296875 245.453125 368.296875 245.453125 Z M 368.023438 252.183594 C 368.023438 252.183594 371.421875 250.734375 374.21875 251.109375 C 377.015625 251.484375 379.539062 253.695312 379.539062 253.695312 C 379.539062 253.695312 375.757812 255.003906 372.960938 254.628906 C 370.164062 254.253906 368.023438 252.183594 368.023438 252.183594 Z M 382.378906 236.394531 C 382.378906 236.394531 379.375 239.578125 379.125 242.339844 C 378.871094 245.097656 381.558594 247.671875 381.558594 247.671875 C 381.558594 247.671875 381.429688 245.902344 381.890625 244.734375 C 382.351562 243.570312 383.335938 242.324219 383.335938 242.324219 C 383.335938 242.324219 383.757812 240.902344 383.59375 239.761719 C 383.367188 238.171875 382.378906 236.394531 382.378906 236.394531 Z M 386.691406 240.078125 C 386.691406 240.078125 383.859375 242.945312 383.109375 246.011719 C 382.363281 249.078125 383.695312 252.351562 383.695312 252.351562 C 383.695312 252.351562 386.269531 250.320312 387.019531 247.253906 C 387.765625 244.183594 386.691406 240.078125 386.691406 240.078125 Z M 393.78125 258.570312 C 393.78125 258.570312 395.0625 261.246094 395.386719 263.488281 C 395.714844 265.726562 395.410156 266.5 395.410156 266.5 C 395.410156 266.5 394.085938 267.804688 393.492188 268.570312 C 392.726562 269.554688 392.613281 271.359375 392.613281 271.359375 C 392.613281 271.359375 389.953125 267.398438 390.363281 264.507812 C 390.773438 261.613281 393.78125 258.570312 393.78125 258.570312 Z M 399.390625 264.765625 C 399.390625 264.765625 395.980469 267.015625 394.628906 269.328125 C 393.273438 271.636719 393.976562 274 393.976562 274 C 393.976562 274 396.40625 273.785156 397.757812 271.476562 C 399.113281 269.167969 399.390625 264.765625 399.390625 264.765625 Z M 376.988281 274.273438 C 376.988281 274.273438 381.902344 274.140625 384.90625 274.878906 C 387.910156 275.617188 389.003906 277.226562 389.003906 277.226562 C 389.003906 277.226562 385.625 278.808594 382.621094 278.070312 C 379.621094 277.332031 376.988281 274.273438 376.988281 274.273438 Z M 376.160156 268.445312 C 376.160156 268.445312 378.375 271.882812 381.242188 273.128906 C 385.191406 274.847656 389.761719 274.011719 389.761719 274.011719 C 389.761719 274.011719 387.28125 270.96875 383.863281 269.625 C 380.441406 268.28125 376.160156 268.445312 376.160156 268.445312 Z M 376.160156 268.445312 "/>
<path style=" stroke:none;fill-rule:nonzero;fill:rgb(0%,0%,0%);fill-opacity:1;" d="M 544.371094 200.972656 L 545.011719 202.328125 C 545.011719 202.328125 543.96875 202.683594 543.5 203.609375 C 543.03125 204.53125 543.808594 205.835938 543.808594 205.835938 C 543.808594 205.835938 538.40625 205.363281 537.5625 205.910156 C 536.796875 206.40625 537.886719 210.148438 537.382812 213.308594 C 536.679688 217.714844 534.945312 217.34375 534.875 218.199219 C 534.804688 219.027344 535.539062 220.324219 535.539062 220.324219 C 535.539062 220.324219 534.527344 220.640625 534.308594 221.066406 C 533.960938 221.746094 534.550781 223.003906 534.132812 223.828125 C 531.78125 228.441406 528.3125 235.246094 526.015625 239.75 C 525.695312 240.378906 524.835938 240.617188 524.402344 241.464844 C 524.007812 242.246094 524.328125 243.386719 524.328125 243.386719 C 524.328125 243.386719 522.808594 243.476562 522.28125 244.511719 C 521.71875 245.613281 522.050781 247.097656 522.050781 247.097656 C 522.050781 247.097656 521.085938 247.21875 520.613281 248.144531 C 520.109375 249.136719 520.964844 249.65625 520.746094 250.089844 C 517.660156 256.140625 514.027344 263.277344 511.8125 267.625 C 510.996094 269.226562 508.140625 269.546875 506.484375 272.796875 C 504.878906 275.949219 507.175781 278.273438 507.175781 278.273438 C 507.175781 278.273438 504.789062 278.488281 504.15625 279.734375 C 503.511719 281 504.023438 282.925781 505.742188 283.800781 C 507.464844 284.679688 509.347656 283.96875 509.992188 282.703125 C 510.628906 281.457031 509.351562 279.398438 509.351562 279.398438 C 509.351562 279.398438 512.585938 279.867188 514.191406 276.710938 C 515.847656 273.460938 514.449219 270.992188 515.265625 269.390625 C 517.484375 265.042969 521.117188 257.910156 524.199219 251.859375 C 524.421875 251.421875 525.332031 251.800781 525.835938 250.808594 C 526.308594 249.882812 525.835938 249.042969 525.835938 249.042969 C 525.835938 249.042969 527.25 248.425781 527.808594 247.328125 C 528.335938 246.292969 527.527344 244.996094 527.527344 244.996094 C 527.527344 244.996094 528.640625 244.601562 529.039062 243.820312 C 529.46875 242.972656 529.152344 242.144531 529.472656 241.515625 C 531.765625 237.011719 535.238281 230.207031 537.585938 225.597656 C 538.007812 224.769531 539.363281 224.484375 539.710938 223.804688 C 539.925781 223.378906 539.582031 222.371094 539.582031 222.371094 C 539.582031 222.371094 541.078125 222.222656 541.707031 221.679688 C 542.355469 221.121094 541.039062 219.921875 544.191406 216.765625 C 546.453125 214.5 550.097656 213.167969 550.050781 212.257812 C 550 211.253906 546.441406 207.164062 546.441406 207.164062 C 546.441406 207.164062 547.945312 207.039062 548.414062 206.117188 C 548.882812 205.195312 548.566406 204.121094 548.566406 204.121094 L 550.050781 203.863281 L 550.050781 196.824219 Z M 495.300781 299.007812 C 412.734375 379.417969 280.613281 377.664062 200.207031 295.09375 C 119.796875 212.527344 121.550781 80.40625 204.121094 0 C 204.121094 0 202.328125 -0.558594 201.714844 -0.257812 C 201.136719 0.03125 201.714844 8.472656 201.714844 8.472656 C 201.714844 8.472656 208.863281 3.964844 208.753906 3.328125 C 208.636719 2.652344 207.140625 1.511719 207.140625 1.511719 C 207.71875 1.417969 208.171875 1.054688 208.394531 0.613281 C 208.628906 0.152344 208.660156 -1.167969 207.039062 -1.996094 C 206.429688 -2.304688 205.886719 -2.398438 205.449219 -2.355469 C 204.722656 -2.28125 204.265625 -1.847656 204.121094 -1.558594 Z M 495.300781 299.007812 "/>
<path style=" stroke:none;fill-rule:nonzero;fill:rgb(96.078431%,83.137255%,0.784314%);fill-opacity:1;" d="M 545.671875 201.253906 L 549.046875 202.96875 L 548.996094 198.902344 Z M 544.363281 203.710938 C 543.929688 204.566406 544.351562 205.65625 545.3125 206.144531 C 546.273438 206.632812 547.386719 206.332031 547.820312 205.480469 C 548.253906 204.628906 547.832031 203.535156 546.875 203.046875 C 490.804688 203.109375 445.296875 157.710938 445.234375 101.640625 C 445.171875 45.570312 490.574219 0.0625 546.640625 0 C 546.039062 0.0429688 545.507812 0.363281 545.234375 0.894531 Z M 538.554688 206.808594 C 538.199219 207.039062 538.683594 210.082031 538.582031 212.671875 C 538.484375 215.113281 537.703125 215.800781 537.273438 216.636719 C 536.878906 217.414062 535.457031 218.328125 535.457031 218.328125 L 536.636719 219.503906 C 536.636719 219.503906 537.402344 218.3125 538.605469 215.945312 C 540.027344 213.15625 539.980469 208.101562 540.398438 207.832031 C 540.761719 207.597656 543.726562 206.859375 543.726562 206.859375 C 543.726562 206.859375 541.003906 206.714844 539.503906 206.734375 C 539 206.738281 538.636719 206.757812 538.554688 206.808594 Z M 538.554688 206.808594 "/>
<path style=" stroke:none;fill-rule:nonzero;fill:rgb(96.078431%,83.137255%,0.784314%);fill-opacity:1;" d="M 538.863281 220.863281 C 538.863281 220.863281 539.257812 219.769531 540.632812 217.074219 C 542.285156 213.824219 545.820312 211.46875 545.902344 210.878906 C 545.988281 210.273438 544.675781 207.425781 544.675781 207.425781 C 544.675781 207.425781 541.558594 208.023438 541.117188 208.449219 C 540.691406 208.859375 540.878906 213.082031 539.222656 216.332031 C 537.851562 219.027344 537.175781 220.019531 537.175781 220.019531 Z M 538.863281 220.863281 "/>
<path style=" stroke:none;fill-rule:nonzero;fill:rgb(96.078431%,83.137255%,0.784314%);fill-opacity:1;" d="M 546.824219 211.109375 C 546.851562 211.605469 542.742188 214.539062 541.320312 217.328125 C 540.117188 219.695312 539.605469 221.015625 539.605469 221.015625 L 541.246094 221.273438 C 541.246094 221.273438 541.132812 219.589844 541.527344 218.816406 C 541.953125 217.976562 542.066406 216.949219 543.984375 215.4375 C 546.019531 213.832031 548.765625 212.429688 548.746094 212.003906 C 548.722656 211.613281 545.671875 207.832031 545.671875 207.832031 C 545.671875 207.832031 546.800781 210.679688 546.824219 211.109375 Z M 534.796875 229.359375 C 537.261719 224.515625 538.015625 224.1875 538.328125 223.574219 C 538.660156 222.917969 538.582031 222.035156 537.484375 221.476562 C 537.070312 221.265625 536.71875 221.214844 536.40625 221.246094 C 535.890625 221.300781 535.515625 221.628906 535.308594 222.039062 C 534.996094 222.652344 535.164062 223.46875 532.695312 228.3125 L 527.089844 239.292969 C 527.089844 239.292969 526.503906 240.371094 527.601562 240.929688 C 528.703125 241.488281 529.1875 240.367188 529.1875 240.367188 Z M 524.890625 241.953125 C 524.585938 242.554688 525.109375 243.4375 526.066406 243.925781 C 527.027344 244.414062 528.066406 244.320312 528.371094 243.71875 C 528.675781 243.121094 528.128906 242.238281 527.167969 241.75 C 526.6875 241.503906 526.199219 241.40625 525.785156 241.441406 C 525.371094 241.476562 525.042969 241.65625 524.890625 241.953125 Z M 522.816406 245.078125 C 522.417969 245.851562 523.035156 246.96875 524.199219 247.558594 C 525.359375 248.152344 526.617188 248.003906 527.011719 247.226562 C 527.410156 246.449219 526.789062 245.335938 525.628906 244.742188 C 525.195312 244.523438 524.765625 244.40625 524.351562 244.386719 C 523.664062 244.351562 523.0625 244.589844 522.816406 245.078125 Z M 521.511719 248.558594 C 521.203125 249.15625 521.726562 250.039062 522.6875 250.527344 C 523.648438 251.019531 524.683594 250.925781 524.992188 250.324219 C 525.296875 249.722656 524.773438 248.84375 523.8125 248.351562 C 523.335938 248.109375 522.820312 248.007812 522.40625 248.046875 C 521.992188 248.082031 521.664062 248.257812 521.511719 248.558594 Z M 520.664062 251.886719 C 520.664062 251.886719 514.441406 264.136719 512.246094 268.445312 C 511.542969 269.824219 508.589844 270.679688 507.433594 272.953125 C 506.265625 275.234375 507.089844 277.375 508.609375 278.148438 C 510.128906 278.921875 512.359375 278.359375 513.523438 276.074219 C 514.679688 273.804688 513.640625 270.898438 514.34375 269.523438 C 516.539062 265.210938 522.765625 252.960938 522.765625 252.960938 C 522.765625 252.960938 523.378906 251.882812 522.277344 251.324219 C 452.878906 251.359375 396.589844 195.125 396.554688 125.726562 C 396.515625 56.324219 452.75 0.0351562 522.152344 0 C 521.542969 0.078125 521.253906 0.691406 521.253906 0.691406 Z M 504.921875 280.324219 C 504.453125 281.238281 504.988281 282.457031 506.121094 283.035156 C 507.257812 283.613281 508.574219 283.335938 509.039062 282.421875 C 509.507812 281.507812 508.949219 280.285156 507.8125 279.707031 C 507.386719 279.492188 506.953125 279.390625 506.53125 279.402344 C 505.832031 279.421875 505.210938 279.75 504.921875 280.324219 Z M 496.628906 299.035156 C 496.273438 299.046875 495.980469 299.160156 495.859375 299.394531 C 495.621094 299.859375 496.113281 300.597656 496.960938 301.03125 C 497.808594 301.460938 498.695312 301.421875 498.933594 300.953125 C 499.171875 300.484375 498.675781 299.746094 497.832031 299.316406 C 497.410156 299.101562 496.984375 299.023438 496.628906 299.035156 Z M 493.710938 301.335938 L 493.710938 307.378906 L 498.625 303.847656 C 498.625 303.847656 497.960938 302.667969 496.5 301.925781 C 495.042969 301.183594 493.710938 301.335938 493.710938 301.335938 Z M 493.710938 301.335938 "/>
<path style=" stroke:none;fill-rule:nonzero;fill:rgb(96.078431%,83.137255%,0.784314%);fill-opacity:1;" d="M 496.820312 166.796875 C 496.820312 163.484375 501.171875 160.21875 501.171875 160.21875 L 395.050781 160.21875 C 395.050781 160.21875 399.402344 163.484375 399.402344 166.796875 L 399.402344 245.792969 C 399.402344 247.871094 400.042969 249.226562 401.066406 250.550781 C 402.085938 251.976562 404.261719 253.949219 406.515625 255.414062 C 413.488281 259.941406 425.140625 264.714844 433.957031 268.726562 C 441.304688 272.066406 444.292969 273.417969 448.113281 278.144531 C 451.929688 273.417969 454.945312 272.070312 462.292969 268.726562 C 471.109375 264.714844 482.761719 259.941406 489.730469 255.414062 C 491.988281 253.949219 494.164062 251.980469 495.183594 250.550781 C 496.203125 249.226562 496.820312 247.871094 496.820312 245.792969 Z M 496.820312 166.796875 "/>
<path style=" stroke:none;fill-rule:nonzero;fill:rgb(81.960784%,1.568627%,16.078431%);fill-opacity:1;" d="M 401.910156 211.492188 L 401.910156 166.796875 C 401.910156 164.269531 400.628906 162.726562 400.628906 162.726562 L 495.59375 162.726562 C 495.59375 162.726562 494.3125 164.269531 494.3125 166.796875 L 494.339844 211.492188 L 448.125 225.492188 Z M 401.910156 211.492188 "/>
<path style=" stroke:none;fill-rule:nonzero;fill:rgb(4.313725%,27.058824%,73.333333%);fill-opacity:1;" d="M 494.339844 211.492188 L 465.722656 210.953125 L 430.527344 210.953125 L 401.910156 211.492188 L 401.910156 245.789062 C 401.910156 247.515625 403.699219 251.554688 414.015625 256.695312 C 431.074219 265.195312 444.183594 269.160156 448.113281 273.996094 C 452.039062 269.160156 465.152344 265.191406 482.207031 256.695312 C 492.523438 251.554688 494.3125 247.515625 494.3125 245.789062 Z M 494.339844 211.492188 "/>
<path style=" stroke:none;fill-rule:nonzero;fill:rgb(0%,0%,0%);fill-opacity:1;" d="M 465.03125 209.699219 C 465.03125 209.699219 481.539062 205.539062 481.539062 187.890625 C 481.539062 174.109375 464.988281 167.273438 464.519531 163.984375 C 462.902344 169.675781 470.046875 177.535156 470.046875 186.84375 C 470.046875 198.886719 461.164062 199.460938 461.164062 199.460938 C 459.085938 199.460938 458.246094 200.945312 457.429688 200.945312 C 455.679688 200.761719 454.855469 198.539062 453.128906 198.539062 C 451.503906 198.539062 450.257812 201.046875 448.113281 201.046875 C 445.964844 201.046875 444.742188 198.539062 443.121094 198.539062 C 441.390625 198.539062 440.570312 200.761719 438.820312 200.945312 C 438.003906 200.945312 437.160156 199.460938 435.082031 199.460938 C 435.082031 199.460938 426.199219 198.886719 426.199219 186.84375 C 426.199219 177.535156 433.347656 169.675781 431.730469 163.984375 C 431.261719 167.273438 414.710938 174.109375 414.710938 187.890625 C 414.710938 205.539062 431.21875 209.699219 431.21875 209.699219 L 426.507812 218.273438 C 426.507812 218.273438 433.332031 218.617188 436.953125 221.707031 C 441.320312 225.429688 440.894531 233.320312 440.894531 239.058594 C 440.894531 243.582031 440.320312 248.355469 438 250.320312 C 434.886719 252.964844 432.777344 253.160156 432.777344 256.261719 C 432.777344 258.847656 434.765625 259.367188 438 261.074219 C 442.144531 263.261719 441.953125 266.191406 448.113281 266.191406 C 454.273438 266.191406 454.105469 263.261719 458.246094 261.074219 C 461.480469 259.367188 463.46875 258.847656 463.46875 256.261719 C 463.46875 253.160156 461.363281 252.964844 458.246094 250.320312 C 455.925781 248.355469 455.355469 243.582031 455.355469 239.058594 C 455.355469 233.320312 454.929688 225.429688 459.296875 221.707031 C 462.917969 218.617188 469.742188 218.273438 469.742188 218.273438 Z M 465.03125 209.699219 "/>
<path style=" stroke:none;fill-rule:nonzero;fill:rgb(0%,0%,0%);fill-opacity:1;" d="M 448.109375 165.210938 L 445.242188 173.351562 L 437.433594 169.636719 L 441.148438 177.445312 L 433.007812 180.339844 L 441.148438 183.230469 L 437.433594 191.011719 L 445.242188 187.300781 L 448.109375 195.441406 L 451.003906 187.300781 L 458.808594 191.011719 L 455.097656 183.230469 L 463.238281 180.339844 L 455.097656 177.445312 L 458.808594 169.636719 L 451.003906 173.351562 Z M 430.523438 210.953125 C 430.523438 210.953125 420.332031 208.464844 416.523438 203.429688 C 409.867188 209.417969 401.90625 211.492188 401.90625 211.492188 C 401.90625 211.492188 410.210938 215.242188 416.523438 220.015625 C 419.433594 215.847656 430.523438 210.953125 430.523438 210.953125 Z M 465.71875 210.953125 C 465.71875 210.953125 476.8125 215.847656 479.722656 220.015625 C 486.035156 215.242188 494.335938 211.492188 494.335938 211.492188 C 494.335938 211.492188 486.378906 209.417969 479.722656 203.429688 C 475.914062 208.460938 465.71875 210.953125 465.71875 210.953125 Z M 434.699219 221.804688 L 430.734375 225.773438 L 434.699219 229.738281 L 438.667969 225.773438 Z M 461.550781 221.804688 L 457.582031 225.773438 L 461.550781 229.738281 L 465.515625 225.773438 Z M 433.703125 244.96875 C 433.703125 249.984375 433.214844 252.625 433.214844 252.625 C 433.214844 252.625 438.808594 250.976562 439.921875 245.304688 C 440.445312 242.644531 441.027344 232.84375 438.335938 231.171875 L 431.039062 229.738281 C 431.828125 231.691406 433.703125 237.726562 433.703125 244.96875 Z M 457.914062 231.175781 C 455.222656 232.84375 455.804688 242.644531 456.328125 245.304688 C 457.441406 250.976562 463.035156 252.625 463.035156 252.625 C 463.035156 252.625 462.546875 249.984375 462.546875 244.96875 C 462.546875 237.730469 464.421875 231.691406 465.210938 229.742188 Z M 416.503906 231.457031 C 413.988281 232.089844 412.46875 234.648438 413.097656 237.164062 C 413.195312 237.550781 413.355469 237.90625 413.535156 238.242188 C 414.347656 239.75 414.261719 241.589844 413.304688 243.015625 C 410.921875 243.09375 408.9375 244.96875 408.773438 247.394531 C 408.59375 249.980469 410.5625 252.207031 413.148438 252.382812 C 413.113281 250.46875 414.246094 248.722656 416.007812 247.976562 C 417.769531 247.226562 419.8125 247.621094 421.167969 248.976562 C 422.519531 250.332031 422.917969 252.371094 422.167969 254.136719 C 421.417969 255.898438 419.671875 257.027344 417.757812 256.992188 C 416.789062 259.398438 417.964844 262.167969 420.371094 263.136719 C 422.777344 264.105469 425.519531 262.90625 426.488281 260.5 C 426.542969 258.023438 428.578125 256.054688 431.054688 256.074219 C 433.53125 256.09375 435.53125 258.09375 435.550781 260.570312 C 435.570312 263.046875 433.601562 265.082031 431.125 265.140625 C 433.113281 266.804688 436.089844 266.539062 437.753906 264.550781 C 436.957031 265.503906 435.8125 266.105469 434.574219 266.214844 C 433.335938 266.324219 432.105469 265.9375 431.152344 265.140625 C 430.847656 264.886719 430.515625 264.6875 430.179688 264.523438 C 430.347656 310.269531 393.402344 347.488281 347.660156 347.660156 C 301.914062 347.828125 264.695312 310.882812 264.523438 265.140625 C 266.722656 263.761719 267.386719 260.835938 266.007812 258.636719 C 265.0625 257.125 263.398438 256.351562 261.734375 256.460938 C 262.789062 257.777344 263.0625 259.554688 262.453125 261.125 L 267.171875 265.84375 C 266.617188 263.644531 264.59375 262.191406 262.410156 262.285156 C 262.910156 263.410156 262.957031 264.6875 262.535156 265.84375 Z M 466.414062 245.125 C 466.921875 249.917969 470.816406 253.933594 475.628906 255.082031 C 474.804688 253.738281 474.257812 252.242188 474.089844 250.652344 C 473.488281 244.96875 477.886719 240.363281 483.894531 240.363281 C 484.839844 240.363281 485.757812 240.480469 486.660156 240.695312 C 484.539062 237.222656 480.550781 234.808594 476.214844 234.808594 C 470.207031 234.808594 465.808594 239.441406 466.414062 245.125 Z M 466.414062 245.125 "/>
<path style=" stroke:none;fill-rule:nonzero;fill:rgb(100%,82.352941%,0%);fill-opacity:1;" d="M 423.796875 186.84375 C 423.796875 195.90625 428.628906 201.253906 435.085938 201.253906 C 436.316406 201.253906 437.660156 202.917969 438.820312 202.917969 C 440.710938 202.917969 441.96875 200.816406 443.121094 200.816406 C 444.585938 200.816406 445.570312 203.121094 448.113281 203.121094 C 450.65625 203.121094 451.667969 200.816406 453.128906 200.816406 C 454.28125 200.816406 455.539062 202.917969 457.429688 202.917969 C 458.589844 202.917969 459.9375 201.253906 461.167969 201.253906 C 467.621094 201.253906 472.457031 195.90625 472.457031 186.84375 C 472.457031 179.449219 466.246094 170.4375 466.925781 168.976562 C 466.925781 168.976562 479.035156 177.660156 479.035156 187.890625 C 479.035156 204.371094 462.320312 208.445312 462.320312 208.445312 L 466.082031 216.917969 C 466.082031 216.917969 460.902344 217.695312 457.738281 220.246094 C 453.519531 223.648438 453.460938 232.839844 453.460938 239.058594 C 453.460938 246.382812 453.734375 249.484375 456.382812 251.472656 C 459.171875 253.570312 461.269531 254.019531 461.269531 256.15625 C 461.269531 258.019531 459.097656 258.78125 456.277344 260.023438 C 453.070312 261.4375 452.753906 263.886719 448.113281 263.886719 C 443.472656 263.886719 443.179688 261.4375 439.972656 260.023438 C 437.15625 258.78125 434.980469 258.019531 434.980469 256.15625 C 434.980469 254.019531 437.078125 253.570312 439.871094 251.472656 C 442.515625 249.484375 442.789062 246.382812 442.789062 239.058594 C 442.789062 232.839844 442.734375 223.648438 438.511719 220.246094 C 435.347656 217.695312 430.167969 216.917969 430.167969 216.917969 L 433.929688 208.445312 C 433.929688 208.445312 417.21875 204.371094 417.21875 187.890625 C 417.21875 177.660156 429.324219 168.976562 429.324219 168.976562 C 430.003906 170.4375 423.796875 179.449219 423.796875 186.84375 Z M 441.789062 254.90625 C 438.507812 254.90625 436.414062 255.597656 436.414062 256.59375 C 436.414062 257.589844 438.507812 258.257812 441.789062 258.257812 C 442.664062 258.257812 443.660156 257.75 443.660156 256.59375 C 443.660156 255.441406 442.664062 254.90625 441.789062 254.90625 Z M 454.460938 254.90625 C 453.585938 254.90625 452.589844 255.441406 452.589844 256.59375 C 452.589844 257.75 453.585938 258.257812 454.460938 258.257812 C 457.742188 258.257812 459.835938 257.59375 459.835938 256.59375 C 459.835938 255.597656 457.742188 254.90625 454.460938 254.90625 Z M 454.460938 254.90625 "/>
<path style=" stroke:none;fill-rule:nonzero;fill:rgb(100%,82.352941%,0%);fill-opacity:1;" d="M 448.140625 170.691406 L 449.984375 175.886719 L 454.949219 173.507812 L 452.59375 178.496094 L 457.765625 180.339844 L 452.59375 182.183594 L 454.949219 187.148438 L 449.984375 184.792969 L 448.113281 189.964844 L 446.273438 184.792969 L 441.304688 187.148438 L 443.660156 182.183594 L 438.492188 180.339844 L 443.660156 178.496094 L 441.304688 173.507812 L 446.273438 175.886719 Z M 425.074219 211.265625 C 425.074219 211.265625 416.523438 217.613281 416.523438 217.613281 L 416.421875 217.738281 L 416.242188 217.585938 L 406.773438 211.648438 C 406.773438 211.648438 412.816406 209.5625 416.371094 205.941406 C 419.734375 209.792969 425.074219 211.265625 425.074219 211.265625 Z M 489.472656 211.648438 C 489.472656 211.648438 483.167969 214.789062 480.003906 217.585938 L 479.824219 217.738281 L 479.722656 217.613281 C 476.730469 214.175781 471.171875 211.265625 471.171875 211.265625 C 471.171875 211.265625 476.511719 209.792969 479.875 205.941406 C 483.429688 209.5625 489.472656 211.648438 489.472656 211.648438 Z M 434.699219 223.699219 L 436.773438 225.773438 L 434.699219 227.871094 L 432.601562 225.773438 Z M 461.550781 223.699219 L 463.648438 225.773438 L 461.550781 227.871094 L 459.476562 225.773438 Z M 437.515625 232.757812 C 438.964844 234.757812 438.71875 237.992188 438.71875 242.488281 C 438.71875 247.019531 435.316406 248.757812 435.316406 248.757812 C 435.316406 237.859375 434.191406 235.242188 433.601562 231.941406 Z M 462.648438 231.941406 C 462.058594 235.242188 460.933594 237.859375 460.933594 248.757812 C 460.933594 248.757812 457.53125 247.019531 457.53125 242.488281 C 457.53125 237.988281 457.285156 234.757812 458.734375 232.757812 Z M 462.648438 231.941406 "/>
<path style=" stroke:none;fill-rule:nonzero;fill:rgb(100%,82.352941%,0%);fill-opacity:1;" d="M 421.414062 236.0625 C 421.519531 236.472656 421.527344 236.871094 421.492188 237.265625 C 421.460938 237.59375 421.375 237.890625 421.261719 238.1875 C 420.695312 237.980469 420.082031 237.882812 419.445312 237.882812 C 417.867188 237.882812 416.453125 238.574219 415.476562 239.671875 C 349.292969 239.886719 295.46875 186.40625 295.257812 120.222656 C 295.042969 54.035156 348.527344 0.210938 414.710938 0 C 414.5 -0.324219 414.320312 -0.679688 414.222656 -1.074219 C 413.730469 -3.03125 414.929688 -5.011719 416.886719 -5.503906 C 417.128906 -5.566406 417.386719 -5.597656 417.628906 -5.605469 C 419.175781 111.265625 325.6875 207.265625 208.8125 208.8125 C 91.941406 210.363281 -4.058594 116.871094 -5.605469 0 Z M 421.414062 236.0625 "/>
<path style=" stroke:none;fill-rule:nonzero;fill:rgb(100%,82.352941%,0%);fill-opacity:1;" d="M 426.875 242.894531 C 426.515625 243.117188 426.136719 243.25 425.753906 243.335938 C 425.433594 243.410156 425.121094 243.417969 424.804688 243.402344 C 424.828125 242.800781 424.734375 242.1875 424.535156 241.578125 C 424.046875 240.078125 422.949219 238.949219 421.605469 238.359375 C 400.953125 175.480469 435.183594 107.765625 498.0625 87.109375 C 560.941406 66.457031 628.65625 100.6875 649.3125 163.566406 C 649.554688 163.265625 649.835938 162.988281 650.183594 162.773438 C 651.890625 161.699219 654.144531 162.226562 655.21875 163.933594 C 655.351562 164.148438 655.460938 164.382812 655.542969 164.609375 C 544.871094 202.195312 424.679688 142.949219 387.09375 32.273438 C 349.503906 -78.398438 408.753906 -198.589844 519.425781 -236.175781 Z M 426.875 242.894531 "/>
<path style=" stroke:none;fill-rule:nonzero;fill:rgb(100%,82.352941%,0%);fill-opacity:1;" d="M 422.066406 250.191406 C 421.742188 249.921875 421.496094 249.605469 421.296875 249.265625 C 421.128906 248.980469 421.023438 248.691406 420.941406 248.382812 C 421.519531 248.21875 422.074219 247.941406 422.589844 247.566406 C 423.871094 246.636719 424.605469 245.242188 424.746094 243.78125 C 478.167969 204.707031 553.148438 216.339844 592.222656 269.757812 C 631.292969 323.175781 619.664062 398.15625 566.246094 437.230469 C 566.605469 437.371094 566.957031 437.554688 567.269531 437.816406 C 568.816406 439.109375 569.015625 441.414062 567.71875 442.960938 C 567.558594 443.15625 567.371094 443.332031 567.179688 443.480469 C 497.230469 349.839844 516.4375 217.222656 610.082031 147.273438 C 703.722656 77.328125 836.339844 96.535156 906.289062 190.175781 Z M 422.066406 250.191406 "/>
<path style=" stroke:none;fill-rule:nonzero;fill:rgb(100%,82.352941%,0%);fill-opacity:1;" d="M 413.636719 247.875 C 413.792969 247.484375 414.019531 247.15625 414.28125 246.859375 C 414.496094 246.609375 414.742188 246.421875 415.007812 246.246094 C 415.34375 246.746094 415.78125 247.191406 416.296875 247.566406 C 417.578125 248.492188 419.128906 248.761719 420.5625 248.445312 C 474.230469 287.175781 486.339844 362.082031 447.609375 415.75 C 408.878906 469.417969 333.976562 481.527344 280.308594 442.796875 C 280.285156 443.183594 280.222656 443.574219 280.070312 443.953125 C 279.316406 445.824219 277.183594 446.726562 275.3125 445.972656 C 275.078125 445.878906 274.851562 445.753906 274.652344 445.617188 C 342.09375 350.15625 474.15625 327.441406 569.617188 394.886719 C 665.078125 462.332031 687.792969 594.390625 620.347656 689.851562 Z M 413.636719 247.875 "/>
<path style=" stroke:none;fill-rule:nonzero;fill:rgb(100%,82.352941%,0%);fill-opacity:1;" d="M 413.234375 239.144531 C 413.65625 239.171875 414.039062 239.285156 414.402344 239.441406 C 414.703125 239.574219 414.960938 239.746094 415.207031 239.945312 C 414.835938 240.421875 414.550781 240.972656 414.355469 241.578125 C 413.867188 243.082031 414.089844 244.640625 414.832031 245.90625 C 394.582031 308.917969 327.085938 343.582031 264.074219 323.332031 C 201.066406 303.082031 166.402344 235.585938 186.652344 172.574219 C 186.277344 172.671875 185.886719 172.734375 185.480469 172.703125 C 183.46875 172.566406 181.953125 170.816406 182.089844 168.804688 C 182.105469 168.554688 182.15625 168.300781 182.222656 168.066406 C 293.851562 202.710938 356.265625 321.289062 321.621094 432.921875 C 286.976562 544.550781 168.398438 606.960938 56.769531 572.316406 Z M 413.234375 239.144531 "/>
<path style=" stroke:none;fill-rule:nonzero;fill:rgb(100%,82.352941%,0%);fill-opacity:1;" d="M 422.976562 243.234375 C 422.976562 245.183594 421.394531 246.765625 419.445312 246.765625 C 417.492188 246.765625 415.914062 245.183594 415.914062 243.234375 C 415.914062 241.28125 417.492188 239.703125 419.445312 239.703125 C 421.394531 239.703125 422.976562 241.28125 422.976562 243.234375 Z M 422.976562 243.234375 "/>
<path style=" stroke:none;fill-rule:nonzero;fill:rgb(100%,82.352941%,0%);fill-opacity:1;" d="M 481.460938 238.472656 C 475.597656 239.605469 471.378906 244.785156 471.992188 250.835938 C 470.121094 249.285156 468.753906 247.203125 468.511719 244.894531 C 468.035156 240.40625 471.296875 236.933594 476.214844 236.933594 C 478.097656 236.933594 479.902344 237.511719 481.460938 238.472656 Z M 481.460938 238.472656 "/>
</g>
</svg>
