<?xml version="1.0" encoding="UTF-8"?>
<svg xmlns="http://www.w3.org/2000/svg" xmlns:xlink="http://www.w3.org/1999/xlink" width="px" height="px" viewBox="0 0 285 150" version="1.1">
<g id="surface1">
<rect x="0" y="0" width="285" height="150" style="fill:rgb(0%,21.960784%,57.647059%);fill-opacity:1;stroke:none;"/>
<path style=" stroke:none;fill-rule:nonzero;fill:rgb(86.666667%,45.882353%,0%);fill-opacity:1;" d="M 0 145.199219 L 285 0 L 285 30 L 0 148 Z M 0 145.199219 "/>
<path style=" stroke:none;fill-rule:nonzero;fill:rgb(100%,100%,100%);fill-opacity:1;" d="M 0 147.601562 L 285 29.398438 L 285 58.800781 L 0 150 Z M 55 8.5 L 53.5 40.5 L 46.5 23 L 49.5 41.5 L 38.5 26.5 L 46 43.5 L 31.5 31.5 L 43.5 46 L 26.5 38.5 L 41.5 49.5 L 23 46.5 L 40.5 53.5 L 8.5 55 L 40.5 57 L 23 64 L 41.5 61 L 26.5 72 L 43.5 64 L 31.5 78.5 L 46 67 L 38.5 84 L 49.5 69 L 46.5 87.5 L 53.5 69.5 L 55 101.5 L 57 69.5 L 64 87.5 L 61 69 L 72 84 L 64 67 L 78.5 78.5 L 67 64 L 84 72 L 69 61 L 87.5 64 L 69.5 57 L 101.5 55 L 69.5 53.5 L 87.5 46.5 L 69 49.5 L 84 38.5 L 67 46 L 78.5 31.5 L 64 43.5 L 72 26.5 L 61 41.5 L 64 23 L 57 40.5 Z M 55 8.5 "/>
</g>
</svg>
