<?xml version="1.0" encoding="UTF-8"?>
<svg xmlns="http://www.w3.org/2000/svg" xmlns:xlink="http://www.w3.org/1999/xlink" width="px" height="px" viewBox="0 0 600 300" version="1.1">
<g id="surface1">
<rect x="0" y="0" width="600" height="300" style="fill:rgb(80.784314%,12.54902%,15.686275%);fill-opacity:1;stroke:none;"/>
<path style=" stroke:none;fill-rule:nonzero;fill:rgb(97.647059%,83.921569%,8.627451%);fill-opacity:1;" d="M 336.429688 171.429688 L 0 0 L 90 0 Z M 263.570312 128.570312 L 510 300 L 600 300 Z M 263.570312 171.429688 L 510 0 L 600 0 Z M 336.429688 128.570312 L 0 300 L 90 300 Z M 300 150 L 0 120 L 0 180 Z M 300 150 L 600 120 L 600 180 Z M 300 150 L 270 0 L 330 0 Z M 300 150 L 270 300 L 330 300 Z M 300 150 "/>
<path style="fill-rule:nonzero;fill:rgb(97.647059%,83.921569%,8.627451%);fill-opacity:1;stroke-width:2.5;stroke-linecap:butt;stroke-linejoin:miter;stroke:rgb(80.784314%,12.54902%,15.686275%);stroke-opacity:1;stroke-miterlimit:4;" d="M 81.25013 35 C 81.25013 41.213411 76.213411 46.25013 70 46.25013 C 63.786589 46.25013 58.74987 41.213411 58.74987 35 C 58.74987 28.786589 63.786589 23.74987 70 23.74987 C 76.213411 23.74987 81.25013 28.786589 81.25013 35 Z M 81.25013 35 " transform="matrix(4.285714,0,0,4.285714,0,0)"/>
</g>
</svg>
