<?xml version="1.0" encoding="UTF-8"?>
<svg xmlns="http://www.w3.org/2000/svg" xmlns:xlink="http://www.w3.org/1999/xlink" width="px" height="px" viewBox="0 0 600 300" version="1.1">
<g id="surface1">
<rect x="0" y="0" width="600" height="300" style="fill:rgb(85.490196%,12.54902%,19.607843%);fill-opacity:1;stroke:none;"/>
<path style=" stroke:none;fill-rule:nonzero;fill:rgb(0%,40%,70.196078%);fill-opacity:1;" d="M 200 0 L 400 0 L 400 300 L 200 300 Z M 200 0 "/>
<path style=" stroke:none;fill-rule:nonzero;fill:rgb(100%,85.098039%,0%);fill-opacity:1;" d="M 45 135 L 70 135 L 70 255 L 45 255 Z M 130 135 L 155 135 L 155 255 L 130 255 Z M 75 240 L 100 255 L 125 240 Z M 75 225 L 125 225 L 125 235 L 75 235 Z M 75 135 L 100 150 L 125 135 Z M 75 155 L 125 155 L 125 165 L 75 165 Z M 111.875 173.027344 C 64.09375 148.691406 45.089844 90.230469 69.425781 42.449219 C 93.757812 -5.328125 152.21875 -24.335938 200 0 C 200.003906 8.148438 193.402344 14.753906 185.253906 14.753906 C 184.300781 11.164062 185.105469 7.332031 187.417969 4.425781 C 189.734375 1.515625 193.289062 -0.125 197.003906 0 C 197.003906 -61.578125 246.921875 -111.5 308.5 -111.5 C 370.082031 -111.5 420 -61.578125 420 0 C 433.804688 0 445 -11.191406 445 -25 C 445 -34.179688 439.949219 -42.613281 431.875 -46.972656 Z M 100 203.253906 C 100 200.492188 102.238281 198.253906 105 198.253906 C 107.761719 198.253906 110 200.492188 110 203.253906 C 110 206.011719 107.761719 208.253906 105 208.253906 L 110 208.253906 C 189.9375 303.375 254.738281 384.402344 254.738281 389.234375 C 254.738281 394.066406 189.9375 320.875 110 225.753906 Z M 100 203.253906 "/>
<path style=" stroke:none;fill-rule:nonzero;fill:rgb(100%,85.098039%,0%);fill-opacity:1;" d="M 88.125 216.972656 C 28.210938 219.382812 -22.3125 172.761719 -24.722656 112.847656 C -27.128906 52.929688 19.488281 2.410156 79.402344 0 C 79.398438 -8.148438 86.003906 -14.753906 94.148438 -14.753906 C 98.226562 -39.910156 121.921875 -57 147.074219 -52.925781 C 172.230469 -48.851562 189.320312 -25.15625 185.246094 0 C 185.246094 -51.019531 226.601562 -92.378906 277.621094 -92.378906 C 328.640625 -92.378906 370 -51.019531 370 0 C 356.195312 0 345 11.191406 345 25 C 345 34.179688 350.050781 42.613281 358.125 46.972656 Z M 100 186.746094 C 102.761719 186.746094 105 188.988281 105 191.746094 C 105 194.507812 102.761719 196.746094 100 196.746094 C 97.238281 196.746094 95 194.507812 95 191.746094 L 100 191.746094 C 102.550781 196.371094 108.960938 202.605469 115.363281 206.6875 C 121.761719 210.773438 126.402344 211.582031 126.476562 208.632812 C 126.546875 205.683594 122.039062 199.777344 115.667969 194.488281 C 109.296875 189.195312 102.808594 185.964844 100.125 186.746094 Z M 72.550781 101.953125 C 77.632812 110.363281 77.839844 120.847656 73.097656 129.453125 L 100.597656 129.453125 C 100.734375 144.589844 113.082031 156.769531 128.222656 156.703125 C 143.359375 156.632812 155.597656 144.339844 155.597656 129.203125 C 155.597656 114.0625 143.359375 101.773438 128.222656 101.703125 C 113.082031 101.632812 100.734375 113.8125 100.597656 128.953125 C 101.667969 115.96875 110.996094 105.15625 123.683594 102.199219 C 136.371094 99.238281 149.519531 104.808594 156.222656 115.980469 C 162.925781 127.152344 161.648438 141.375 153.066406 151.175781 C 144.484375 160.980469 130.554688 164.121094 118.59375 158.953125 Z M 72.550781 101.953125 "/>
<path style=" stroke:none;fill-rule:nonzero;fill:rgb(100%,85.098039%,0%);fill-opacity:1;" d="M 120.019531 95 C 120.019531 106.046875 111.066406 115 100.019531 115 C 88.976562 115 80.019531 106.046875 80.019531 95 C 80.019531 83.953125 88.976562 75 100.019531 75 C 111.066406 75 120.019531 83.953125 120.019531 95 Z M 120.019531 95 "/>
<path style=" stroke:none;fill-rule:nonzero;fill:rgb(100%,85.098039%,0%);fill-opacity:1;" d="M 102.101562 30.007812 C 99.617188 31.132812 98.6875 33.167969 98.488281 35.191406 C 98.363281 36.898438 99.117188 38.816406 99.191406 40.484375 C 99.191406 43.355469 96.222656 44.300781 96.222656 48.394531 C 96.222656 49.800781 97.523438 51.351562 97.523438 55.007812 C 97.296875 56.921875 96.226562 57.355469 95.023438 57.507812 C 96.402344 57.507812 97.523438 58.625 97.523438 60.007812 C 97.523438 61.386719 96.402344 62.507812 95.023438 62.507812 C 93.640625 62.507812 92.523438 61.386719 92.523438 60.007812 L 95.023438 60.007812 C 95.589844 59.429688 96.375 59.207031 96.371094 57.691406 C 96.371094 56.910156 95.863281 56.203125 95.382812 54.820312 C 94.925781 53.480469 95.257812 51.242188 96.339844 49.917969 C 94.589844 50.59375 93.511719 52.269531 92.960938 53.773438 C 92.378906 55.625 92.886719 56.691406 92.089844 58.226562 C 91.605469 59.222656 91.027344 59.636719 90.480469 60.464844 C 89.832031 61.371094 89.074219 63.488281 89.074219 64.46875 C 89.074219 57.566406 94.667969 51.96875 101.574219 51.96875 C 108.476562 51.96875 114.074219 57.566406 114.074219 64.46875 C 114.074219 71.375 108.476562 76.96875 101.574219 76.96875 C 101.574219 75.988281 100.824219 73.871094 100.175781 72.964844 C 99.628906 72.136719 99.039062 71.722656 98.554688 70.726562 C 97.769531 69.191406 98.277344 68.125 97.695312 66.273438 C 97.144531 64.769531 96.066406 63.09375 94.316406 62.417969 C 95.398438 63.742188 95.730469 65.980469 95.273438 67.320312 C 94.789062 68.699219 94.277344 69.410156 94.277344 70.191406 C 94.277344 71.707031 95.058594 71.929688 95.625 72.507812 C 95.625 71.125 96.746094 70.007812 98.125 70.007812 C 99.507812 70.007812 100.625 71.125 100.625 72.507812 C 100.625 73.886719 99.507812 75.007812 98.125 75.007812 L 98.125 75.132812 C 96.746094 74.957031 95.75 74.3125 95.625 72.632812 C 95.625 67.816406 97.6875 67.511719 97.6875 63.949219 C 97.6875 58.863281 93.125 56.457031 93.125 52.738281 C 93.125 51.480469 93.421875 49.332031 95.207031 47.632812 Z M 102.101562 30.007812 "/>
</g>
</svg>
