<?xml version="1.0" encoding="UTF-8"?>
<svg xmlns="http://www.w3.org/2000/svg" xmlns:xlink="http://www.w3.org/1999/xlink" width="px" height="px" viewBox="0 0 225 150" version="1.1">
<g id="surface1">
<rect x="0" y="0" width="225" height="150" style="fill:rgb(5.882353%,45.882353%,38.431373%);fill-opacity:1;stroke:none;"/>
<path style=" stroke:none;fill-rule:nonzero;fill:rgb(100%,87.058824%,13.72549%);fill-opacity:1;" d="M 115.492188 37.496094 L 120.339844 33.976562 L 114.351562 33.976562 L 112.5 28.28125 L 110.648438 33.976562 L 104.660156 33.976562 L 109.507812 37.496094 L 107.65625 43.191406 L 112.5 39.671875 L 117.34375 43.191406 Z M 82.292969 57.945312 L 85.914062 55.933594 L 81.804688 55.429688 L 81.011719 51.363281 L 79.261719 55.117188 L 75.152344 54.613281 L 78.179688 57.441406 L 76.429688 61.195312 L 80.054688 59.1875 L 83.085938 62.011719 Z M 93.382812 44.726562 L 97.527344 44.800781 L 94.21875 42.308594 L 95.566406 38.390625 L 92.171875 40.765625 L 88.863281 38.273438 L 90.074219 42.234375 L 86.679688 44.613281 L 90.820312 44.683594 L 92.035156 48.648438 Z M 93.382812 44.726562 "/>
<path style=" stroke:none;fill-rule:nonzero;fill:rgb(100%,100%,100%);fill-opacity:1;" d="M 83.238281 106.210938 C 35.824219 94.128906 7.179688 45.890625 19.265625 -1.523438 C 31.347656 -48.941406 79.582031 -77.585938 127 -65.5 L 139.316406 -65.5 C 162.808594 -62.261719 179.78125 -41.386719 178.15625 -17.730469 C 176.535156 5.925781 156.871094 24.289062 133.160156 24.289062 C 109.445312 24.289062 89.78125 5.925781 88.160156 -17.730469 C 86.535156 -41.386719 103.507812 -62.261719 127 -65.5 L 83.238281 -65.5 Z M 88.53125 110.117188 C 40.039062 99.496094 9.335938 51.570312 19.957031 3.074219 C 30.582031 -45.421875 78.503906 -76.121094 127 -65.5 L 131.953125 -65.5 C 156.21875 -64.160156 175.011719 -43.746094 174.339844 -19.449219 C 173.667969 4.84375 153.78125 24.191406 129.476562 24.191406 C 105.171875 24.191406 85.285156 4.84375 84.613281 -19.449219 C 83.941406 -43.746094 102.734375 -64.160156 127 -65.5 L 79.066406 -65.5 Z M 95.902344 113.867188 C 101.039062 115.910156 106.640625 117.03125 112.5 117.03125 C 118.359375 117.03125 123.960938 115.910156 129.097656 113.867188 Z M 79.285156 102.382812 C 79.675781 102.808594 80.070312 103.222656 80.476562 103.632812 L 144.523438 103.632812 C 97.820312 61.765625 93.894531 -10.035156 135.761719 -56.738281 C 177.628906 -103.441406 249.429688 -107.367188 296.132812 -65.5 L 79.285156 -65.5 Z M 122.652344 96.222656 C 117.671875 94.714844 114.296875 91.992188 112.5 90.289062 C 110.703125 91.992188 107.328125 94.714844 102.347656 96.222656 C 57.6875 44.457031 63.449219 -33.710938 115.214844 -78.367188 C 166.980469 -123.027344 245.148438 -117.265625 289.804688 -65.5 L 270.074219 -65.5 C 247.632812 -70.527344 232.5625 -91.632812 235.089844 -114.492188 C 237.621094 -137.355469 256.941406 -154.65625 279.941406 -154.65625 C 302.941406 -154.65625 322.261719 -137.355469 324.789062 -114.492188 C 327.320312 -91.632812 312.25 -70.527344 289.804688 -65.5 L 308.878906 -65.5 C 315.097656 -65.5 320.792969 -67.742188 325.207031 -71.464844 C 329.617188 -67.742188 335.316406 -65.5 341.535156 -65.5 L 360.605469 -65.5 C 360.605469 -0.992188 308.3125 51.304688 243.804688 51.304688 C 179.292969 51.304688 127 -0.992188 127 -65.5 L 130 -65.5 C 143.878906 -65.203125 154.929688 -53.789062 154.78125 -39.910156 C 154.632812 -26.03125 143.339844 -14.855469 129.460938 -14.855469 C 115.578125 -14.855469 104.285156 -26.03125 104.136719 -39.910156 C 103.988281 -53.789062 115.039062 -65.203125 128.917969 -65.5 Z M 122.652344 96.222656 "/>
<path style=" stroke:none;fill-rule:nonzero;fill:rgb(100%,100%,100%);fill-opacity:1;" d="M 129.140625 93.242188 C 127.601562 93.242188 126.097656 93.105469 124.632812 92.84375 C 125.320312 92.898438 126.015625 92.929688 126.71875 92.929688 C 137.558594 92.929688 146.8125 86.113281 150.4375 76.539062 C 111.214844 77.171875 78.90625 45.886719 78.273438 6.660156 C 77.644531 -32.5625 108.929688 -64.871094 148.152344 -65.5 C 140.894531 -65.5 134.238281 -62.898438 129.066406 -58.578125 C 134.480469 -64.226562 142.09375 -67.753906 150.53125 -67.765625 C 158.957031 -76.191406 172.617188 -76.191406 181.042969 -67.765625 C 189.46875 -59.339844 189.46875 -45.679688 181.042969 -37.253906 C 172.5625 -37.253906 164.90625 -33.707031 159.480469 -28.015625 C 159.476562 -41.949219 170.769531 -53.246094 184.703125 -53.246094 C 198.636719 -53.246094 209.929688 -41.953125 209.929688 -28.019531 C 209.929688 -14.085938 198.632812 -2.792969 184.699219 -2.796875 L 194.851562 -2.796875 C 195.46875 -4.085938 195.972656 -3.464844 195.972656 -1.414062 C 195.972656 0.636719 195.46875 3.34375 194.851562 4.632812 C 194.851562 10.46875 192.875 15.84375 189.558594 20.128906 C 178.421875 20.21875 168.546875 12.992188 165.261719 2.355469 C 161.972656 -8.285156 166.050781 -19.820312 175.296875 -26.027344 C 184.539062 -32.238281 196.761719 -31.648438 205.363281 -24.582031 C 213.96875 -17.515625 216.921875 -5.640625 212.628906 4.632812 C 212.628906 2.121094 212.261719 -0.304688 211.582031 -2.59375 C 209.761719 -8.714844 205.902344 -12.707031 203.839844 -14.554688 C 201.777344 -12.707031 197.917969 -8.714844 196.097656 -2.59375 C 203.011719 3.8125 205.796875 13.527344 203.324219 22.625 L 228.554688 22.625 C 234.453125 32.128906 239.238281 41.492188 239.238281 43.542969 C 239.238281 45.597656 234.453125 39.558594 228.554688 30.054688 C 227.464844 28.875 226.660156 27.488281 226.199219 26 C 235.097656 31.089844 240.027344 41.0625 238.671875 51.222656 C 233.242188 45.53125 225.589844 41.984375 217.109375 41.984375 C 216.652344 41.984375 216.199219 41.996094 215.75 42.015625 C 218.289062 36.835938 224.554688 34.695312 229.734375 37.234375 C 234.917969 39.777344 237.058594 46.039062 234.515625 51.222656 C 242.953125 51.238281 250.566406 54.761719 255.980469 60.410156 C 250.808594 56.089844 244.152344 53.488281 236.894531 53.488281 C 237.613281 52.695312 238.375 51.9375 239.175781 51.222656 C 242.800781 60.796875 252.054688 67.613281 262.894531 67.613281 C 263.59375 67.613281 264.292969 67.582031 264.976562 67.523438 C 263.515625 67.789062 262.007812 67.925781 260.472656 67.925781 C 253.632812 67.925781 247.425781 65.214844 242.863281 60.804688 C 240.394531 64.707031 235.589844 66.433594 231.199219 64.996094 C 226.808594 63.558594 223.957031 59.324219 224.273438 54.71875 C 224.589844 50.109375 227.992188 46.304688 232.539062 45.480469 C 237.082031 44.65625 241.605469 47.019531 243.519531 51.222656 C 248.167969 56.476562 254.957031 59.796875 262.515625 59.796875 C 269.699219 59.796875 276.183594 56.804688 280.800781 52 C 285.414062 56.804688 291.898438 59.796875 299.078125 59.796875 C 306.640625 59.796875 313.429688 56.476562 318.078125 51.222656 C 323.582031 51.402344 327.925781 55.964844 327.835938 61.472656 C 327.746094 66.980469 323.257812 71.398438 317.746094 71.398438 C 312.238281 71.398438 307.75 66.980469 307.660156 61.472656 C 307.570312 55.964844 311.914062 51.402344 317.417969 51.222656 C 312.859375 55.628906 306.652344 58.34375 299.8125 58.34375 Z M 129.140625 93.242188 "/>
<path style=" stroke:none;fill-rule:nonzero;fill:rgb(100%,87.058824%,13.72549%);fill-opacity:1;" d="M 146.820312 57.441406 L 149.847656 54.613281 L 145.738281 55.117188 L 143.988281 51.363281 L 143.195312 55.429688 L 139.085938 55.933594 L 142.707031 57.945312 L 141.917969 62.011719 L 144.945312 59.1875 L 148.570312 61.195312 Z M 134.179688 44.683594 L 138.320312 44.613281 L 134.925781 42.234375 L 136.136719 38.273438 L 132.828125 40.765625 L 129.433594 38.390625 L 130.78125 42.308594 L 127.472656 44.800781 L 131.617188 44.726562 L 132.964844 48.648438 Z M 134.179688 44.683594 "/>
</g>
</svg>
