<?xml version="1.0" encoding="UTF-8"?>
<svg xmlns="http://www.w3.org/2000/svg" xmlns:xlink="http://www.w3.org/1999/xlink" width="px" height="px" viewBox="0 0 500 250" version="1.1">
<g id="surface1">
<rect x="0" y="0" width="500" height="250" style="fill:rgb(0%,44.313725%,73.72549%);fill-opacity:1;stroke:none;"/>
<path style="fill-rule:nonzero;fill:rgb(100%,100%,100%);fill-opacity:1;stroke-width:1.935;stroke-linecap:butt;stroke-linejoin:miter;stroke:rgb(0%,0%,0%);stroke-opacity:1;stroke-miterlimit:4;" d="M 557.820312 395.546875 C 557.820312 395.546875 575.445312 376.890625 592.40625 380.453125 C 597.492188 360.789062 616.648438 359.265625 616.648438 359.265625 C 616.648438 359.265625 614.78125 337.5625 639.367188 332.8125 C 640.046875 318.0625 654.960938 305.859375 654.960938 305.859375 C 654.960938 305.859375 651.90625 282.96875 667.507812 277.71875 C 658.015625 259.578125 670.726562 246.351562 670.5625 246.015625 C 670.390625 245.671875 654.453125 217.359375 668.695312 209.21875 C 653.609375 196.507812 658.523438 182.09375 658.523438 182.09375 C 658.523438 182.09375 642.078125 177.859375 648.007812 158.195312 C 634.445312 155.820312 631.734375 133.945312 631.734375 133.945312 C 631.734375 133.945312 610.882812 138.1875 608.335938 120.046875 C 594.609375 122.25 593.078125 108.6875 592.914062 108.6875 C 592.742188 108.6875 565.617188 115.976562 560.1875 95.460938 C 549.679688 100.890625 545.101562 91.226562 545.101562 91.226562 C 545.101562 91.226562 530.015625 98.6875 521.03125 84.273438 C 503.054688 95.460938 493.054688 83.765625 493.054688 83.765625 C 493.054688 83.765625 469.484375 99.359375 461.6875 87.328125 C 447.789062 101.398438 435.414062 95.296875 435.414062 95.296875 C 435.414062 95.296875 424.898438 113.945312 407.945312 109.195312 C 404.046875 126.484375 384.546875 126.828125 384.546875 126.828125 C 384.546875 126.828125 386.585938 142.085938 363.1875 146.15625 C 360.140625 164.125 347.929688 167.179688 347.929688 167.179688 C 347.929688 167.179688 349.117188 184.640625 338.09375 190.234375 C 342 200.070312 331.820312 212.101562 331.820312 212.101562 C 331.820312 212.101562 342.671875 225.664062 327.921875 240.929688 C 342.164062 244.65625 331.828125 269.242188 331.828125 269.242188 C 331.828125 269.242188 351.492188 278.054688 339.117188 294.328125 C 353.1875 298.90625 348.78125 310.09375 348.945312 316.710938 C 357.929688 320.78125 365.898438 318.742188 362 336.882812 C 389.632812 339.9375 376.578125 355.195312 376.578125 355.195312 C 376.578125 355.195312 389.46875 355.703125 384.382812 365.875 C 407.945312 365.367188 411.335938 383.507812 411.335938 383.507812 C 411.335938 383.507812 433.203125 377.742188 436.09375 386.21875 C 438.96875 394.695312 426.59375 451.828125 426.59375 451.828125 C 426.59375 451.828125 408.117188 451.828125 394.382812 437.078125 C 362.171875 436.234375 369.289062 415.039062 368.78125 415.039062 C 368.273438 415.039062 358.101562 418.9375 352.84375 401.304688 C 331.3125 405.71875 331.992188 387.578125 331.820312 387.40625 C 331.65625 387.234375 322.164062 383 325.71875 374.015625 C 303.507812 376.046875 305.203125 354.34375 305.203125 354.34375 C 300.34375 352.367188 298.539062 347.84375 299.273438 343.328125 C 296.390625 342.3125 276.726562 341.96875 286.898438 316.03125 C 268.078125 304.671875 279.773438 291.617188 279.773438 291.617188 C 279.773438 291.617188 253.835938 278.226562 273.84375 262.796875 C 258.921875 240.757812 275.03125 229.734375 275.03125 229.734375 C 275.03125 229.734375 254.34375 208.710938 275.367188 193.796875 C 271.976562 161.921875 290.96875 154.296875 290.96875 154.296875 C 290.96875 154.296875 280.960938 128.351562 308.085938 117.5 C 309.78125 91.226562 328.773438 90.546875 328.773438 90.546875 C 328.773438 90.546875 329.28125 69.695312 359.117188 71.726562 C 364.882812 53.078125 385.226562 56.804688 385.226562 56.804688 C 385.226562 56.804688 391.5 34.257812 419.132812 45.109375 C 433.203125 17.648438 454.0625 31.71875 454.0625 31.71875 C 454.0625 31.71875 467.28125 23.070312 473.898438 25.78125 C 482.289062 11.351562 500.164062 25.226562 511.726562 28.015625 C 515.914062 26.390625 530.859375 15.101562 542.390625 29.34375 C 557.648438 19.34375 570.703125 37.3125 570.703125 37.3125 C 570.703125 37.3125 591.726562 26.632812 601.554688 51.046875 C 646.148438 46.976562 639.703125 76.132812 639.703125 76.132812 C 639.703125 76.132812 674.796875 68.171875 667.171875 103.09375 C 699.039062 105.296875 695.820312 126.320312 695.820312 126.320312 C 695.820312 126.320312 715.992188 141.578125 707.179688 155.3125 C 725.148438 156.15625 718.539062 173.453125 718.539062 173.453125 C 718.539062 173.453125 732.273438 178.703125 720.914062 200.070312 C 747.1875 221.09375 726 241.945312 725.828125 241.773438 C 725.65625 241.601562 739.898438 258.726562 727.015625 278.390625 C 730.914062 309.585938 715.148438 317.554688 715.148438 317.554688 C 715.148438 317.554688 719.21875 337.734375 701.585938 343.492188 C 701.242188 367.234375 678.867188 370.109375 678.867188 370.109375 C 678.867188 370.109375 684.796875 380.421875 662.59375 391.273438 C 661.71875 407.15625 638.515625 408.429688 638.515625 408.429688 C 638.515625 408.429688 636.3125 437.585938 606.8125 429.789062 C 599.65625 453.1875 565.109375 446.234375 564.429688 445.898438 C 563.75 445.554688 557.820312 395.710938 557.820312 395.546875 Z M 557.820312 395.546875 " transform="matrix(0.5,0,0,0.5,0,0)"/>
<path style="fill:none;stroke-width:1.935;stroke-linecap:butt;stroke-linejoin:miter;stroke:rgb(0%,0%,0%);stroke-opacity:1;stroke-miterlimit:4;" d="M 599.007812 420.070312 C 599.007812 420.070312 596.390625 425.101562 606.859375 429.53125 M 619.9375 408.1875 C 619.9375 408.1875 631.609375 405.375 639.460938 408.1875 M 654.757812 378.8125 C 654.757812 379.007812 653.148438 384.046875 662.40625 391.289062 M 661.398438 365.726562 C 661.398438 365.726562 668.242188 370.765625 679.71875 370.5625 M 592.367188 380.421875 C 592.367188 380.421875 592.773438 393.703125 585.929688 399.945312 M 615.3125 359.890625 C 615.3125 359.890625 626.578125 362.710938 635.835938 358.078125 M 687.5625 340.367188 C 687.5625 340.367188 689.976562 343.789062 702.453125 343.1875 M 638.859375 332.523438 C 639.265625 332.71875 653.554688 337.351562 662.609375 333.125 M 667.429688 277.773438 C 667.429688 277.773438 668.03125 276.96875 672.460938 292.460938 M 678.5 234.101562 C 678.5 234.101562 677.898438 242.351562 671.257812 245.976562 M 720.96875 200.289062 C 720.96875 200.289062 711.3125 208.140625 713.117188 211.359375 M 672.867188 194.648438 C 672.867188 194.648438 677.898438 203.101562 669.648438 208.9375 M 648.523438 158.429688 C 648.523438 158.429688 657.171875 158.023438 661 165.476562 M 666.632812 103.6875 C 666.632812 103.890625 668.4375 105.5 665.023438 108.921875 M 604.84375 104.492188 C 604.84375 104.492188 609.46875 111.734375 608.664062 120.59375 M 631.609375 79.9375 C 633.625 79.734375 640.46875 76.71875 640.46875 76.71875 M 601.820312 51.15625 C 601.617188 51.15625 599.203125 60.210938 603.632812 63.4375 M 590.75 92.414062 C 590.75 102.078125 598.398438 99.65625 593.164062 108.921875 M 572.039062 84.367188 C 571.835938 84.367188 559.96875 93.625 559.96875 95.234375 M 541.039062 79.335938 C 541.039062 79.335938 546.070312 84.367188 544.867188 91.203125 M 499.578125 73.296875 C 499.382812 73.695312 495.351562 82.351562 492.539062 83.960938 M 462.960938 73.5 C 463.164062 73.5 466.984375 81.546875 461.953125 87.382812 M 397.75 106.90625 C 397.953125 107.3125 408.015625 108.921875 408.015625 108.921875 M 372.59375 130.25 C 372.789062 130.046875 384.867188 126.429688 384.867188 126.429688 M 353.070312 145.351562 C 353.476562 145.351562 361.523438 146.757812 363.53125 145.75 M 347.429688 152.789062 C 347.429688 152.789062 350.046875 154.195312 347.835938 167.679688 M 308.1875 117.367188 L 313.023438 124.617188 M 291.679688 154.601562 C 291.679688 154.398438 296.507812 161.84375 302.953125 163.257812 M 329.71875 192.4375 C 329.921875 192.4375 337.570312 190.828125 338.773438 190.023438 M 326.296875 219.8125 C 326.5 219.8125 326.101562 214.78125 332.335938 211.359375 M 318.046875 232.289062 C 318.046875 232.492188 323.890625 239.734375 327.914062 240.742188 M 314.632812 246.179688 C 315.234375 245.976562 321.476562 240.546875 328.71875 240.945312 M 312.609375 264.890625 C 312.609375 264.890625 312.8125 271.132812 331.328125 269.523438 M 314.429688 286.828125 C 314.429688 286.632812 319.867188 274.351562 330.929688 269.726562 M 329.320312 302.53125 C 329.320312 302.53125 330.929688 297.296875 340.1875 293.671875 M 339.578125 323.257812 C 339.578125 323.257812 346.21875 317.828125 348.640625 317.023438 M 347.84375 339.359375 C 347.84375 339.359375 351.867188 343.585938 361.929688 336.34375 M 299.328125 342.78125 C 300.539062 342.578125 315.226562 339.15625 320.257812 346.804688 M 305.171875 354.859375 C 305.171875 354.859375 320.664062 352.84375 322.679688 354.460938 M 360.507812 358.078125 C 360.507812 358.078125 358.5 362.304688 377.617188 355.265625 M 384.257812 365.726562 C 380.835938 371.5625 385.0625 376.195312 380.640625 378.8125 M 326.101562 373.78125 C 326.703125 373.375 333.140625 371.164062 332.140625 361.90625 M 331.9375 387.65625 C 332.742188 387.460938 343.414062 382.828125 345.625 385.242188 M 352.867188 401.148438 C 352.867188 401.148438 354.28125 391.6875 357.296875 390.6875 M 368.96875 415.4375 C 368.96875 415.4375 377.828125 415.242188 381.648438 412.421875 M 386.070312 383.4375 C 386.273438 383.640625 394.320312 387.867188 411.429688 383.640625 M 392.507812 421.882812 C 392.507812 421.882812 394.921875 434.15625 394.726562 436.976562 M 632.210938 133.867188 L 638.851562 133.867188 M 526.351562 75.304688 C 526.351562 75.304688 523.734375 82.953125 520.3125 84.96875 M 454.5 31.835938 C 454.703125 32.039062 455.304688 38.078125 451.484375 43.304688 M 418.28125 45.523438 C 418.28125 45.726562 419.890625 52.367188 409.226562 54.578125 " transform="matrix(0.5,0,0,0.5,0,0)"/>
<path style="fill-rule:evenodd;fill:rgb(96.862745%,87.45098%,45.098039%);fill-opacity:1;stroke-width:2.419;stroke-linecap:butt;stroke-linejoin:round;stroke:rgb(0%,0%,0%);stroke-opacity:1;stroke-miterlimit:4;" d="M 561.71875 423.679688 C 561.71875 423.679688 662.25 395.28125 692.609375 271.898438 C 674.984375 398.546875 564.976562 438.6875 564.976562 438.6875 L 561.71875 423.671875 Z M 561.71875 423.679688 " transform="matrix(0.5,0,0,0.5,0,0)"/>
<path style="fill-rule:evenodd;fill:rgb(96.862745%,87.45098%,45.098039%);fill-opacity:1;stroke-width:2.429;stroke-linecap:butt;stroke-linejoin:round;stroke:rgb(0%,0%,0%);stroke-opacity:1;stroke-miterlimit:4;" d="M 429.953125 421.007812 C 429.953125 421.007812 330.335938 392.101562 300.257812 266.5 C 317.726562 395.421875 426.71875 436.289062 426.71875 436.289062 Z M 429.953125 421.007812 " transform="matrix(0.5,0,0,0.5,0,0)"/>
<path style=" stroke:none;fill-rule:nonzero;fill:rgb(54.901961%,9.411765%,0%);fill-opacity:1;" d="M 286.015625 215.683594 C 287.570312 215.683594 291.410156 211.433594 293.621094 210.941406 C 295.828125 210.453125 296.074219 208.242188 293.539062 208.160156 C 291.003906 208.078125 288.796875 211.023438 288.796875 211.023438 C 288.796875 211.023438 286.585938 212.90625 284.296875 213.148438 C 282.007812 213.394531 283.480469 216.257812 286.015625 215.683594 Z M 296.726562 207.835938 C 296.726562 207.835938 295.171875 207.261719 299.179688 205.710938 C 303.183594 204.15625 302.941406 202.355469 304.25 201.621094 C 305.554688 200.882812 308.335938 198.921875 308.910156 200.066406 C 309.480469 201.210938 305.964844 203.5 305.148438 203.746094 C 304.328125 203.992188 300.324219 207.671875 299.179688 208 C 298.03125 208.324219 297.214844 208.160156 296.726562 207.835938 Z M 209.871094 214.421875 C 208.332031 214.421875 204.523438 210.089844 202.335938 209.59375 C 200.148438 209.09375 199.902344 206.84375 202.414062 206.761719 C 204.925781 206.679688 207.113281 209.675781 207.113281 209.675781 C 207.113281 209.675781 209.300781 211.589844 211.570312 211.839844 C 213.839844 212.089844 212.382812 215.003906 209.871094 214.417969 Z M 199.253906 206.429688 C 199.253906 206.429688 200.796875 205.847656 196.824219 204.265625 C 192.855469 202.683594 193.097656 200.851562 191.800781 200.101562 C 190.503906 199.355469 187.75 197.355469 187.183594 198.523438 C 186.617188 199.6875 190.097656 202.019531 190.910156 202.269531 C 191.71875 202.519531 195.691406 206.261719 196.824219 206.597656 C 197.960938 206.929688 198.769531 206.761719 199.253906 206.429688 Z M 199.253906 206.429688 "/>
<path style="fill-rule:nonzero;fill:rgb(54.901961%,9.411765%,0%);fill-opacity:1;stroke-width:2.419;stroke-linecap:butt;stroke-linejoin:miter;stroke:rgb(54.901961%,9.411765%,0%);stroke-opacity:1;stroke-miterlimit:4;" d="M 629.921875 388.1875 C 629.921875 388.1875 619.453125 394.242188 620.921875 395.710938 C 622.398438 397.1875 631.71875 389.992188 631.882812 389.828125 C 632.046875 389.664062 635.804688 385.085938 629.921875 388.1875 Z M 629.921875 388.1875 " transform="matrix(0.5,0,0,0.5,0,0)"/>
<path style="fill-rule:nonzero;fill:rgb(54.901961%,9.411765%,0%);fill-opacity:1;stroke-width:2.429;stroke-linecap:butt;stroke-linejoin:miter;stroke:rgb(54.901961%,9.411765%,0%);stroke-opacity:1;stroke-miterlimit:4;" d="M 362.367188 384.890625 C 362.367188 384.890625 372.742188 391.046875 371.28125 392.546875 C 369.820312 394.046875 360.585938 386.71875 360.429688 386.554688 C 360.265625 386.390625 356.539062 381.726562 362.367188 384.890625 Z M 362.367188 384.890625 " transform="matrix(0.5,0,0,0.5,0,0)"/>
<path style="fill:none;stroke-width:3.144;stroke-linecap:round;stroke-linejoin:miter;stroke:rgb(54.901961%,9.411765%,0%);stroke-opacity:1;stroke-miterlimit:4;" d="M 645.460938 372.820312 C 638.59375 380.507812 638.59375 380.34375 638.59375 380.34375 " transform="matrix(0.5,0,0,0.5,0,0)"/>
<path style="fill:none;stroke-width:2.902;stroke-linecap:round;stroke-linejoin:miter;stroke:rgb(54.901961%,9.411765%,0%);stroke-opacity:1;stroke-miterlimit:4;" d="M 655.757812 360.226562 L 649.21875 368.242188 " transform="matrix(0.5,0,0,0.5,0,0)"/>
<path style="fill:none;stroke-width:2.66;stroke-linecap:round;stroke-linejoin:miter;stroke:rgb(54.901961%,9.411765%,0%);stroke-opacity:1;stroke-miterlimit:4;" d="M 666.070312 343.867188 L 658.710938 355.648438 " transform="matrix(0.5,0,0,0.5,0,0)"/>
<path style="fill:none;stroke-width:2.419;stroke-linecap:round;stroke-linejoin:miter;stroke:rgb(54.901961%,9.411765%,0%);stroke-opacity:1;stroke-miterlimit:4;" d="M 674.742188 327.1875 L 668.6875 339.296875 M 678.65625 318.359375 L 676.695312 322.609375 " transform="matrix(0.5,0,0,0.5,0,0)"/>
<path style="fill:none;stroke-width:1.451;stroke-linecap:round;stroke-linejoin:miter;stroke:rgb(54.901961%,9.411765%,0%);stroke-opacity:1;stroke-miterlimit:4;" d="M 683.078125 306.75 L 681.445312 311.820312 " transform="matrix(0.5,0,0,0.5,0,0)"/>
<path style="fill:none;stroke-width:3.158;stroke-linecap:round;stroke-linejoin:miter;stroke:rgb(54.901961%,9.411765%,0%);stroke-opacity:1;stroke-miterlimit:4;" d="M 346.976562 369.242188 C 353.789062 377.0625 353.789062 376.898438 353.789062 376.898438 " transform="matrix(0.5,0,0,0.5,0,0)"/>
<path style="fill:none;stroke-width:2.915;stroke-linecap:round;stroke-linejoin:miter;stroke:rgb(54.901961%,9.411765%,0%);stroke-opacity:1;stroke-miterlimit:4;" d="M 336.773438 356.421875 L 343.25 364.578125 " transform="matrix(0.5,0,0,0.5,0,0)"/>
<path style="fill:none;stroke-width:2.672;stroke-linecap:round;stroke-linejoin:miter;stroke:rgb(54.901961%,9.411765%,0%);stroke-opacity:1;stroke-miterlimit:4;" d="M 326.5625 339.773438 L 333.851562 351.757812 " transform="matrix(0.5,0,0,0.5,0,0)"/>
<path style="fill:none;stroke-width:2.429;stroke-linecap:round;stroke-linejoin:miter;stroke:rgb(54.901961%,9.411765%,0%);stroke-opacity:1;stroke-miterlimit:4;" d="M 317.96875 322.789062 L 323.96875 335.109375 M 314.078125 313.796875 L 316.023438 318.132812 " transform="matrix(0.5,0,0,0.5,0,0)"/>
<path style="fill:none;stroke-width:1.457;stroke-linecap:round;stroke-linejoin:miter;stroke:rgb(54.901961%,9.411765%,0%);stroke-opacity:1;stroke-miterlimit:4;" d="M 309.710938 301.976562 L 311.328125 307.140625 " transform="matrix(0.5,0,0,0.5,0,0)"/>
<path style="fill-rule:nonzero;fill:rgb(12.941176%,47.45098%,0%);fill-opacity:1;stroke-width:1.935;stroke-linecap:butt;stroke-linejoin:round;stroke:rgb(0%,0%,0%);stroke-opacity:1;stroke-miterlimit:4;" d="M 343.5625 115.742188 C 343.648438 115.742188 351.039062 122.148438 349.65625 131.8125 C 348.273438 141.46875 342.695312 154.898438 343.820312 164.90625 C 344.507812 168.914062 344.242188 176.101562 344.242188 176.101562 C 344.242188 176.101562 337.546875 166.585938 337.460938 156.40625 C 337.375 146.226562 344.710938 136.5625 344.710938 129.0625 C 344.710938 121.554688 343.390625 115.570312 343.5625 115.742188 Z M 339.898438 118.617188 C 339.898438 118.617188 330.203125 127.875 328.953125 136.875 C 328.03125 141.515625 327.671875 163.125 327.5625 172.710938 C 327.34375 175.65625 326.125 187.273438 325.867188 191.5 C 325.609375 195.726562 333 184.28125 333.421875 174.96875 C 333.195312 165.328125 333.195312 145.015625 334.171875 141.960938 C 335.046875 138.039062 334.851562 133.703125 336.203125 129.773438 C 337.984375 124.3125 339.984375 118.703125 339.898438 118.617188 Z M 339.898438 118.617188 " transform="matrix(0.5,0,0,0.5,0,0)"/>
<path style="fill:none;stroke-width:1.935;stroke-linecap:butt;stroke-linejoin:round;stroke:rgb(41.960784%,9.411765%,70.980392%);stroke-opacity:1;stroke-miterlimit:4;" d="M 276.40625 180.3125 C 276.40625 180.3125 282.984375 189.414062 284.164062 194.640625 C 285.34375 199.859375 287.53125 210.148438 290.398438 214.359375 C 293.265625 218.570312 309.617188 242.007812 310.460938 251.78125 C 310.625 258.1875 303.71875 269.140625 293.4375 269.3125 C 287.03125 269.140625 270.507812 264.929688 269.835938 250.765625 C 269.164062 236.609375 274.890625 236.273438 275.570312 227.679688 C 276.242188 219.078125 276.40625 180.476562 276.40625 180.3125 Z M 276.40625 180.3125 " transform="matrix(0.5,0,0,0.5,0,0)"/>
<path style="fill:none;stroke-width:1;stroke-linecap:butt;stroke-linejoin:round;stroke:rgb(41.960784%,9.411765%,70.980392%);stroke-opacity:1;stroke-miterlimit:4;" d="M 389.351562 56.359375 C 389.351562 56.359375 382.546875 56.84375 377.304688 59.6875 C 373.242188 62.1875 366.367188 65.789062 361.5625 72.453125 C 349.335938 81.984375 330.945312 86.429688 325.148438 94.34375 C 321.679688 99.734375 321.890625 112.6875 330.585938 118.171875 C 336.148438 121.351562 352.453125 126.335938 360.382812 114.585938 C 368.320312 102.835938 363.59375 99.570312 367.484375 91.875 C 373.90625 74.234375 389.265625 56.507812 389.351562 56.359375 Z M 554.4375 39.164062 C 554.4375 39.164062 549.359375 34.617188 543.671875 32.828125 C 539.046875 31.648438 531.351562 32.164062 523.382812 31.382812 C 508.03125 29.226562 492.210938 18.125 482.492188 19.46875 C 476.203125 20.71875 467.046875 29.882812 469.15625 39.945312 C 470.742188 46.15625 477.6875 58.71875 491.640625 56.242188 C 505.601562 53.765625 505.476562 50.726562 513.71875 48.164062 C 533.796875 36.90625 554.273438 39.203125 554.4375 39.164062 Z M 718.179688 198.296875 C 719.328125 195.679688 717.21875 190.757812 715.71875 184.992188 C 714.257812 180.445312 712.085938 173.398438 706.773438 167.132812 C 700.460938 152.976562 701.539062 133.570312 695.25 126.039062 C 690.859375 121.375 678.234375 118.46875 670.820312 125.59375 C 666.390625 130.226562 657.640625 144.859375 667.140625 155.382812 C 676.640625 165.898438 680.78125 161.9375 687.3125 167.5625 C 702.898438 178.03125 710.53125 196.382812 718.179688 198.296875 Z M 712.59375 321.9375 C 714.71875 318.992188 718.53125 313.3125 718.078125 308.585938 C 717.71875 304.84375 719.789062 293.484375 720.015625 288.53125 C 721.429688 273.09375 731.085938 260.570312 728.460938 247.15625 C 726.90625 240.945312 717.804688 232.078125 707.851562 234.671875 C 701.726562 236.546875 688.085938 244.054688 691.234375 257.875 C 694.375 271.695312 698.84375 271.46875 701.796875 279.570312 C 710.273438 296.320312 704.851562 316.210938 712.59375 321.9375 Z M 712.59375 321.9375 " transform="matrix(0.5,0,0,0.5,0,0)"/>
<path style=" stroke:none;fill-rule:nonzero;fill:rgb(41.960784%,9.411765%,70.980392%);fill-opacity:1;" d="M 245.898438 13.480469 C 245.898438 12.390625 244.675781 11.507812 243.164062 11.507812 C 241.652344 11.507812 240.429688 12.390625 240.429688 13.480469 C 240.429688 14.570312 241.652344 15.453125 243.164062 15.453125 C 244.675781 15.453125 245.902344 14.570312 245.898438 13.480469 Z M 247.070312 18.066406 C 247.070312 17.023438 245.808594 16.175781 244.253906 16.175781 C 242.699219 16.175781 241.4375 17.023438 241.4375 18.066406 C 241.4375 19.109375 242.699219 19.957031 244.253906 19.957031 C 245.808594 19.957031 247.070312 19.109375 247.070312 18.066406 Z M 250.570312 12.636719 C 250.570312 12.636719 247.351562 15.050781 248.679688 16.015625 C 250.007812 16.980469 253.667969 13.921875 253.667969 13.921875 Z M 345.15625 67.898438 C 345.15625 67.214844 344.835938 66.578125 344.3125 66.234375 C 326.019531 66.234375 311.195312 51.410156 311.195312 33.117188 C 311.195312 14.828125 326.019531 0 344.3125 0 C 343.789062 0.34375 343.46875 0.976562 343.46875 1.664062 C 343.46875 2.351562 343.789062 2.984375 344.3125 3.328125 C 344.835938 3.671875 345.476562 3.671875 346 3.328125 C 346.523438 2.984375 346.847656 2.351562 346.84375 1.664062 Z M 343.929688 63.296875 C 343.929688 62.152344 343.140625 61.222656 342.164062 61.222656 C 341.191406 61.222656 340.398438 62.152344 340.398438 63.296875 C 340.398438 64.441406 341.191406 65.367188 342.164062 65.367188 C 343.140625 65.367188 343.929688 64.441406 343.929688 63.296875 Z M 344.773438 72.660156 C 344.773438 72.066406 344.464844 71.585938 344.085938 71.585938 C 343.703125 71.585938 343.394531 72.066406 343.394531 72.660156 C 343.394531 73.253906 343.703125 73.734375 344.085938 73.734375 C 344.464844 73.734375 344.773438 73.253906 344.773438 72.660156 Z M 347.613281 64.296875 C 347.613281 63.617188 347.304688 63.066406 346.925781 63.066406 C 346.542969 63.066406 346.234375 63.617188 346.234375 64.296875 C 346.234375 64.972656 346.542969 65.523438 346.925781 65.523438 C 347.304688 65.523438 347.613281 64.972656 347.613281 64.296875 Z M 339.859375 65.140625 C 339.859375 64.589844 339.550781 64.140625 339.167969 64.140625 C 338.789062 64.140625 338.476562 64.589844 338.476562 65.140625 C 338.476562 65.691406 338.789062 66.136719 339.167969 66.136719 C 339.550781 66.136719 339.859375 65.691406 339.859375 65.140625 Z M 341.089844 71.738281 C 341.089844 70.851562 340.4375 70.128906 339.632812 70.128906 C 338.828125 70.128906 338.171875 70.847656 338.171875 71.738281 C 338.171875 72.628906 338.828125 73.351562 339.632812 73.351562 C 340.4375 73.351562 341.089844 72.628906 341.089844 71.738281 Z M 337.25 68.820312 C 337.25 68.058594 336.699219 67.4375 336.023438 67.4375 C 335.34375 67.4375 334.792969 68.058594 334.792969 68.820312 C 334.792969 69.582031 335.34375 70.203125 336.023438 70.203125 C 336.699219 70.203125 337.25 69.582031 337.25 68.820312 Z M 336.640625 64.910156 C 336.640625 64.5 336.4375 64.117188 336.101562 63.910156 C 318.453125 63.910156 304.148438 49.605469 304.148438 31.957031 C 304.148438 14.308594 318.453125 0 336.101562 0 C 335.769531 0.207031 335.566406 0.585938 335.566406 0.996094 C 335.566406 1.410156 335.769531 1.789062 336.101562 1.996094 C 336.652344 -90.265625 262.308594 -165.503906 170.046875 -166.054688 C 77.785156 -166.605469 2.546875 -92.261719 1.996094 0 C 2.328125 -0.207031 2.535156 -0.585938 2.53125 -0.996094 Z M 354.136719 84.808594 C 352.550781 82.71875 350.011719 81.835938 348.464844 82.839844 C 346.921875 83.847656 346.953125 86.355469 348.539062 88.449219 C 350.125 90.539062 352.660156 91.421875 354.207031 90.417969 C 355.753906 89.414062 355.71875 86.902344 354.136719 84.808594 Z M 358.640625 123.40625 C 358.945312 120.835938 357.695312 118.578125 355.84375 118.355469 C 353.992188 118.132812 352.242188 120.035156 351.933594 122.601562 C 351.628906 125.171875 352.878906 127.429688 354.730469 127.652344 C 356.582031 127.875 358.332031 125.972656 358.640625 123.40625 Z M 359.589844 145.875 C 360.117188 143.34375 359.066406 140.984375 357.238281 140.601562 C 355.414062 140.222656 353.507812 141.964844 352.976562 144.496094 C 352.449219 147.027344 353.503906 149.386719 355.328125 149.769531 C 357.15625 150.148438 359.0625 148.40625 359.589844 145.875 Z M 363.921875 124.84375 C 363.921875 123.828125 363.234375 123.003906 362.386719 123.003906 C 361.539062 123.003906 360.851562 123.828125 360.851562 124.84375 C 360.851562 125.863281 361.539062 126.6875 362.386719 126.6875 C 363.234375 126.6875 363.921875 125.863281 363.921875 124.84375 Z M 360.160156 129.066406 L 357.011719 132.632812 C 357.011719 132.632812 354.058594 132.710938 354.210938 133.671875 C 354.367188 134.628906 358.28125 137.507812 358.242188 138.660156 C 358.203125 139.808594 360.851562 138.390625 360.851562 138.390625 C 360.851562 138.390625 362.960938 131.980469 362.960938 131.941406 C 362.960938 131.90625 362.847656 127.492188 361.695312 127.570312 C 360.542969 127.644531 360.230469 128.984375 360.160156 129.066406 Z M 153.191406 127.65625 C 153.527344 127.066406 154.21875 126.78125 154.875 126.957031 C 155.527344 127.132812 155.984375 127.726562 155.984375 128.402344 C 155.984375 129.082031 155.527344 129.675781 154.875 129.851562 C 154.21875 130.027344 153.527344 129.738281 153.191406 129.152344 Z M 154.605469 123.078125 C 154.605469 122.207031 153.933594 121.5 153.109375 121.5 C 152.28125 121.5 151.609375 122.207031 151.609375 123.078125 C 151.609375 123.953125 152.28125 124.660156 153.109375 124.660156 C 153.933594 124.660156 154.605469 123.953125 154.605469 123.078125 Z M 142.304688 101.316406 C 141.742188 100.054688 140.574219 99.355469 139.691406 99.746094 C 138.8125 100.140625 138.550781 101.480469 139.113281 102.738281 C 139.675781 103.996094 140.84375 104.699219 141.726562 104.304688 C 142.609375 103.914062 142.867188 102.574219 142.304688 101.316406 Z M 146.019531 114.875 C 145.25 113.242188 143.640625 112.335938 142.429688 112.84375 C 141.21875 113.351562 140.863281 115.089844 141.636719 116.71875 C 142.40625 118.351562 144.015625 119.261719 145.226562 118.753906 C 146.433594 118.242188 146.792969 116.507812 146.019531 114.875 Z M 149.996094 124.816406 C 150.246094 122.777344 149.402344 120.90625 148.109375 120.632812 C 146.816406 120.363281 145.566406 121.792969 145.316406 123.832031 C 145.066406 125.871094 145.910156 127.742188 147.203125 128.011719 C 148.496094 128.285156 149.746094 126.851562 149.996094 124.816406 Z M 143.613281 126.269531 C 144.414062 124.378906 144.113281 122.347656 142.945312 121.730469 C 141.777344 121.117188 140.183594 122.152344 139.386719 124.042969 C 138.585938 125.933594 138.886719 127.964844 140.054688 128.582031 C 141.222656 129.195312 142.816406 128.160156 143.613281 126.269531 Z M 143.613281 126.269531 "/>
<path style=" stroke:none;fill-rule:nonzero;fill:rgb(41.960784%,9.411765%,70.980392%);fill-opacity:1;" d="M 140.710938 121.996094 C 140.710938 121.03125 139.964844 120.246094 139.046875 120.246094 C 138.128906 120.246094 137.382812 121.03125 137.382812 121.996094 C 137.382812 122.960938 138.128906 123.742188 139.046875 123.742188 C 139.964844 123.742188 140.710938 122.960938 140.710938 121.996094 Z M 139.378906 117.671875 C 139.378906 116.796875 138.710938 116.089844 137.882812 116.089844 C 137.054688 116.089844 136.386719 116.796875 136.386719 117.671875 C 136.386719 118.542969 137.054688 119.25 137.882812 119.25 C 138.710938 119.25 139.378906 118.542969 139.378906 117.671875 Z M 140.789062 109.351562 C 140.789062 107.878906 140.136719 106.6875 139.335938 106.6875 C 138.53125 106.6875 137.878906 107.878906 137.878906 109.351562 C 137.878906 110.820312 138.53125 112.011719 139.335938 112.011719 C 140.136719 112.011719 140.789062 110.820312 140.789062 109.351562 Z M 145.269531 108.710938 C 145.464844 107.253906 144.976562 105.984375 144.179688 105.878906 C 143.382812 105.773438 142.578125 106.867188 142.382812 108.324219 C 142.191406 109.785156 142.679688 111.050781 143.476562 111.15625 C 144.273438 111.261719 145.074219 110.167969 145.269531 108.710938 Z M 177.195312 45.019531 C 177.789062 42.957031 177.175781 40.882812 175.828125 40.386719 C 174.480469 39.890625 172.90625 41.164062 172.3125 43.226562 C 171.71875 45.292969 172.332031 47.367188 173.679688 47.863281 C 175.027344 48.359375 176.601562 47.085938 177.195312 45.019531 Z M 171.136719 54.210938 C 172.914062 52.695312 173.671875 50.605469 172.832031 49.535156 C 171.992188 48.46875 169.867188 48.828125 168.089844 50.34375 C 166.3125 51.855469 165.550781 53.949219 166.390625 55.015625 C 167.234375 56.085938 169.355469 55.722656 171.136719 54.210938 Z M 167.59375 49.109375 C 169.351562 47.808594 170.105469 46.011719 169.273438 45.097656 C 168.441406 44.179688 166.339844 44.488281 164.582031 45.789062 C 162.824219 47.085938 162.074219 48.882812 162.90625 49.800781 C 163.738281 50.71875 165.835938 50.40625 167.59375 49.109375 Z M 181.230469 40.140625 C 182.414062 39.234375 182.921875 37.980469 182.363281 37.339844 C 181.800781 36.699219 180.382812 36.917969 179.199219 37.824219 C 178.011719 38.730469 177.507812 39.984375 178.066406 40.625 C 178.628906 41.261719 180.042969 41.046875 181.230469 40.140625 Z M 181.230469 40.140625 "/>
<path style=" stroke:none;fill-rule:nonzero;fill:rgb(41.960784%,9.411765%,70.980392%);fill-opacity:1;" d="M 174.125 48.828125 C 174.9375 47.578125 174.988281 46.226562 174.246094 45.8125 C 173.503906 45.398438 172.242188 46.078125 171.429688 47.332031 C 170.621094 48.585938 170.566406 49.9375 171.308594 50.351562 C 172.054688 50.761719 173.3125 50.082031 174.125 48.828125 Z M 184.378906 43.460938 C 185.65625 42.386719 186.152344 40.960938 185.488281 40.28125 C 184.828125 39.597656 183.257812 39.917969 181.980469 40.992188 C 180.707031 42.066406 180.210938 43.492188 180.871094 44.171875 C 181.535156 44.855469 183.105469 44.535156 184.378906 43.460938 Z M 165.84375 55.984375 C 167.035156 55.925781 167.9375 55.332031 167.855469 54.660156 C 167.773438 53.984375 166.738281 53.488281 165.546875 53.546875 C 164.355469 53.609375 163.457031 54.199219 163.539062 54.875 C 163.621094 55.546875 164.652344 56.042969 165.84375 55.984375 Z M 188.285156 36.804688 C 189.097656 35.550781 189.148438 34.199219 188.40625 33.785156 C 187.664062 33.371094 186.402344 34.054688 185.589844 35.304688 C 184.78125 36.558594 184.726562 37.910156 185.46875 38.324219 C 186.214844 38.738281 187.472656 38.054688 188.285156 36.804688 Z M 188.285156 36.804688 "/>
<path style="fill-rule:nonzero;fill:rgb(100%,82.352941%,0%);fill-opacity:1;stroke-width:1.935;stroke-linecap:butt;stroke-linejoin:miter;stroke:rgb(93.72549%,54.117647%,6.27451%);stroke-opacity:1;stroke-miterlimit:4;" d="M 553.242188 88.375 C 553.242188 88.375 565.8125 82.578125 569.40625 71.773438 C 573 60.96875 558.523438 60.867188 556.617188 64.296875 C 554.703125 67.734375 558.242188 76.28125 557.335938 78.539062 C 556.421875 80.804688 551.304688 86.257812 553.242188 88.375 Z M 553.242188 88.375 " transform="matrix(0.5,0,0,0.5,0,0)"/>
<path style="fill-rule:nonzero;fill:rgb(100%,82.352941%,0%);fill-opacity:1;stroke-width:2.419;stroke-linecap:butt;stroke-linejoin:miter;stroke:rgb(93.72549%,54.117647%,6.27451%);stroke-opacity:1;stroke-miterlimit:4;" d="M 441.796875 92.3125 C 441.796875 92.3125 449.960938 81.132812 447.84375 69.945312 C 445.726562 58.757812 433.03125 65.710938 433.03125 69.640625 C 433.03125 73.570312 440.289062 79.3125 440.59375 81.734375 C 440.890625 84.15625 439.078125 91.40625 441.804688 92.3125 Z M 419.726562 98.96875 C 419.726562 98.96875 427.890625 87.78125 425.773438 76.59375 C 423.65625 65.40625 410.960938 72.359375 410.960938 76.296875 C 410.960938 80.226562 418.21875 85.96875 418.523438 88.382812 C 418.820312 90.804688 417.007812 98.0625 419.726562 98.96875 Z M 395.242188 106.53125 C 395.242188 106.53125 403.40625 95.34375 401.289062 84.15625 C 399.171875 72.96875 386.476562 79.921875 386.476562 83.859375 C 386.476562 87.789062 393.726562 93.53125 394.03125 95.945312 C 394.335938 98.367188 392.515625 105.625 395.242188 106.53125 Z M 378.007812 123.757812 C 378.007812 123.757812 386.171875 112.570312 384.054688 101.390625 C 381.9375 90.203125 369.242188 97.15625 369.242188 101.085938 C 369.242188 105.015625 376.5 110.757812 376.804688 113.179688 C 377.101562 115.59375 375.289062 122.851562 378.007812 123.757812 Z M 359.867188 140.390625 C 359.867188 140.390625 368.03125 129.203125 365.914062 118.015625 C 363.796875 106.828125 351.101562 113.78125 351.101562 117.71875 C 351.101562 121.648438 358.359375 127.390625 358.664062 129.8125 C 358.960938 132.226562 357.148438 139.484375 359.867188 140.390625 Z M 359.867188 140.390625 " transform="matrix(0.5,0,0,0.5,0,0)"/>
<path style="fill-rule:nonzero;fill:rgb(100%,82.352941%,0%);fill-opacity:1;stroke-width:1.935;stroke-linecap:butt;stroke-linejoin:miter;stroke:rgb(93.72549%,54.117647%,6.27451%);stroke-opacity:1;stroke-miterlimit:4;" d="M 401.570312 43.515625 C 401.570312 43.515625 390.703125 52.101562 389.726562 63.4375 C 388.757812 74.78125 402.859375 71.5 403.914062 67.71875 C 404.976562 63.929688 399.53125 56.445312 399.890625 54.039062 C 400.25 51.625 403.945312 45.125 401.570312 43.515625 Z M 437.851562 32.335938 C 437.851562 32.335938 426.976562 40.914062 426.007812 52.257812 C 425.039062 63.601562 439.140625 60.3125 440.195312 56.53125 C 441.257812 52.742188 435.8125 45.257812 436.171875 42.851562 C 436.53125 40.4375 440.226562 33.9375 437.851562 32.335938 Z M 302.65625 130.273438 C 302.65625 130.273438 304.953125 143.929688 314.4375 150.226562 C 323.914062 156.53125 327.8125 142.59375 325.007812 139.84375 C 322.195312 137.101562 313.015625 138.273438 311.070312 136.796875 C 309.132812 135.328125 305.210938 128.953125 302.65625 130.273438 Z M 284.539062 176.640625 C 284.539062 176.640625 284.648438 190.484375 293.015625 198.210938 C 301.382812 205.929688 307.4375 192.78125 305.09375 189.625 C 302.75 186.46875 293.5 186.179688 291.820312 184.414062 C 290.132812 182.65625 287.265625 175.742188 284.539062 176.640625 Z M 326.34375 228.4375 C 326.34375 228.4375 321.398438 215.507812 310.859375 211.195312 C 300.328125 206.882812 299.25 221.320312 302.546875 223.453125 C 305.84375 225.59375 314.609375 222.632812 316.804688 223.695312 C 319 224.757812 324.101562 230.226562 326.34375 228.4375 Z M 317.65625 206.046875 C 317.65625 206.046875 326.039062 195.023438 324.140625 183.796875 C 322.242188 172.578125 309.414062 179.28125 309.335938 183.210938 C 309.257812 187.140625 316.398438 193.023438 316.65625 195.445312 C 316.914062 197.867188 314.953125 205.09375 317.65625 206.046875 Z M 578.9375 99.5625 C 578.9375 99.5625 591.515625 93.757812 595.109375 82.960938 C 598.703125 72.15625 584.226562 72.054688 582.3125 75.484375 C 580.398438 78.921875 583.945312 87.46875 583.03125 89.726562 C 582.117188 91.984375 577.007812 97.445312 578.9375 99.5625 Z M 616.96875 118.53125 C 616.96875 118.53125 624.367188 106.820312 621.507812 95.804688 C 618.648438 84.78125 606.445312 92.570312 606.703125 96.492188 C 606.96875 100.414062 614.59375 105.664062 615.054688 108.054688 C 615.515625 110.445312 614.195312 117.804688 616.96875 118.53125 Z M 720.742188 226.273438 C 720.742188 226.273438 715.78125 213.34375 705.234375 209.046875 C 694.695312 204.742188 693.640625 219.1875 696.9375 221.320312 C 700.242188 223.453125 709 220.476562 711.195312 221.539062 C 713.390625 222.601562 718.5 228.0625 720.742188 226.273438 Z M 670 234.296875 C 670 234.296875 670.289062 220.453125 678.75 212.84375 C 687.21875 205.226562 693.101562 218.453125 690.71875 221.578125 C 688.335938 224.703125 679.078125 224.875 677.375 226.617188 C 675.671875 228.359375 672.710938 235.226562 670 234.296875 Z M 661.828125 87.484375 C 661.828125 87.484375 648.882812 82.570312 638.65625 87.5625 C 628.421875 92.5625 638.484375 102.96875 642.273438 101.929688 C 646.070312 100.890625 649.6875 92.375 651.945312 91.445312 C 654.195312 90.515625 661.671875 90.351562 661.828125 87.484375 Z M 632.210938 62.695312 C 632.210938 62.695312 619.265625 57.773438 609.03125 62.773438 C 598.804688 67.765625 608.867188 78.179688 612.65625 77.140625 C 616.445312 76.101562 620.070312 67.585938 622.320312 66.65625 C 624.578125 65.726562 632.054688 65.554688 632.210938 62.695312 Z M 588.023438 39.054688 C 588.023438 39.054688 577.046875 47.5 575.9375 58.828125 C 574.828125 70.15625 588.96875 67.046875 590.070312 63.273438 C 591.171875 59.507812 585.820312 51.953125 586.210938 49.546875 C 586.601562 47.140625 590.375 40.6875 588.015625 39.054688 Z M 559.273438 32.132812 C 559.273438 32.132812 554.265625 45.046875 559.195312 55.304688 C 564.117188 65.570312 574.59375 55.578125 573.585938 51.78125 C 572.570312 47.984375 564.078125 44.304688 563.164062 42.046875 C 562.25 39.78125 562.132812 32.304688 559.273438 32.132812 Z M 477.65625 81.890625 C 477.65625 81.890625 486.609375 71.320312 485.3125 60.015625 C 484.007812 48.703125 470.84375 54.71875 470.554688 58.640625 C 470.273438 62.554688 477.09375 68.8125 477.21875 71.25 C 477.34375 73.679688 475.007812 80.789062 477.65625 81.890625 Z M 477.65625 81.890625 " transform="matrix(0.5,0,0,0.5,0,0)"/>
<path style="fill-rule:nonzero;fill:rgb(87.058824%,12.54902%,6.27451%);fill-opacity:1;stroke-width:2.383;stroke-linecap:butt;stroke-linejoin:miter;stroke:rgb(0%,0%,0%);stroke-opacity:1;stroke-miterlimit:4;" d="M 701.617188 233.109375 C 701.117188 229.0625 699.164062 225.5 696.5 223.78125 C 693.84375 222.054688 690.867188 222.421875 688.710938 224.75 C 686.554688 227.078125 685.539062 231.007812 686.046875 235.054688 C 686.554688 239.109375 688.507812 242.664062 691.164062 244.390625 C 693.828125 246.109375 696.804688 245.742188 698.953125 243.414062 C 701.117188 241.085938 702.132812 237.15625 701.617188 233.109375 Z M 701.617188 233.109375 " transform="matrix(0.5,0,0,0.5,0,0)"/>
<path style="fill-rule:nonzero;fill:rgb(87.058824%,12.54902%,6.27451%);fill-opacity:1;stroke-width:2.383;stroke-linecap:butt;stroke-linejoin:miter;stroke:rgb(0%,0%,0%);stroke-opacity:1;stroke-miterlimit:4;" d="M 699.953125 212.65625 C 699.445312 208.609375 697.492188 205.054688 694.835938 203.328125 C 692.171875 201.601562 689.203125 201.976562 687.046875 204.304688 C 684.882812 206.632812 683.867188 210.554688 684.382812 214.609375 C 684.882812 218.65625 686.835938 222.210938 689.5 223.9375 C 692.15625 225.664062 695.132812 225.289062 697.289062 222.960938 C 699.445312 220.640625 700.460938 216.710938 699.953125 212.65625 Z M 699.953125 212.65625 " transform="matrix(0.5,0,0,0.5,0,0)"/>
<path style="fill-rule:nonzero;fill:rgb(87.058824%,12.54902%,6.27451%);fill-opacity:1;stroke-width:2.383;stroke-linecap:butt;stroke-linejoin:miter;stroke:rgb(0%,0%,0%);stroke-opacity:1;stroke-miterlimit:4;" d="M 695.796875 190.820312 C 694.945312 186.828125 692.6875 183.460938 689.882812 181.976562 C 687.078125 180.492188 684.15625 181.117188 682.210938 183.632812 C 680.265625 186.132812 679.601562 190.140625 680.460938 194.125 C 681.320312 198.117188 683.570312 201.492188 686.382812 202.976562 C 689.1875 204.453125 692.109375 203.828125 694.054688 201.320312 C 696 198.8125 696.664062 194.804688 695.796875 190.820312 Z M 695.796875 190.820312 " transform="matrix(0.5,0,0,0.5,0,0)"/>
<path style="fill-rule:nonzero;fill:rgb(87.058824%,12.54902%,6.27451%);fill-opacity:1;stroke-width:2.383;stroke-linecap:butt;stroke-linejoin:miter;stroke:rgb(0%,0%,0%);stroke-opacity:1;stroke-miterlimit:4;" d="M 688.226562 168 C 686.382812 164.359375 683.34375 161.671875 680.25 160.953125 C 677.164062 160.234375 674.492188 161.59375 673.257812 164.507812 C 672.015625 167.429688 672.390625 171.46875 674.242188 175.109375 C 676.085938 178.75 679.125 181.429688 682.21875 182.15625 C 685.304688 182.875 687.976562 181.515625 689.21875 178.59375 C 690.460938 175.679688 690.078125 171.640625 688.226562 168 Z M 688.226562 168 " transform="matrix(0.5,0,0,0.5,0,0)"/>
<path style="fill-rule:nonzero;fill:rgb(87.058824%,12.54902%,6.27451%);fill-opacity:1;stroke-width:2.383;stroke-linecap:butt;stroke-linejoin:miter;stroke:rgb(0%,0%,0%);stroke-opacity:1;stroke-miterlimit:4;" d="M 680.140625 149.6875 C 678.296875 146.046875 675.25 143.367188 672.164062 142.648438 C 669.070312 141.921875 666.40625 143.28125 665.164062 146.203125 C 663.921875 149.117188 664.296875 153.164062 666.148438 156.796875 C 667.992188 160.4375 671.039062 163.125 674.125 163.84375 C 677.21875 164.5625 679.890625 163.203125 681.125 160.289062 C 682.367188 157.367188 681.992188 153.328125 680.140625 149.6875 Z M 680.140625 149.6875 " transform="matrix(0.5,0,0,0.5,0,0)"/>
<path style="fill-rule:nonzero;fill:rgb(87.058824%,12.54902%,6.27451%);fill-opacity:1;stroke-width:2.383;stroke-linecap:butt;stroke-linejoin:miter;stroke:rgb(0%,0%,0%);stroke-opacity:1;stroke-miterlimit:4;" d="M 668.640625 131.28125 C 666.492188 127.8125 663.234375 125.390625 660.09375 124.9375 C 656.953125 124.484375 654.414062 126.054688 653.421875 129.070312 C 652.429688 132.085938 653.148438 136.078125 655.304688 139.546875 C 657.453125 143.015625 660.710938 145.4375 663.851562 145.890625 C 666.984375 146.34375 669.53125 144.773438 670.523438 141.757812 C 671.507812 138.742188 670.796875 134.742188 668.640625 131.28125 Z M 668.640625 131.28125 " transform="matrix(0.5,0,0,0.5,0,0)"/>
<path style="fill-rule:nonzero;fill:rgb(87.058824%,12.54902%,6.27451%);fill-opacity:1;stroke-width:2.383;stroke-linecap:butt;stroke-linejoin:miter;stroke:rgb(0%,0%,0%);stroke-opacity:1;stroke-miterlimit:4;" d="M 655.851562 113.539062 C 653.375 110.296875 649.898438 108.203125 646.734375 108.054688 C 643.5625 107.898438 641.179688 109.71875 640.492188 112.8125 C 639.796875 115.90625 640.898438 119.8125 643.375 123.054688 C 645.84375 126.304688 649.320312 128.398438 652.492188 128.546875 C 655.664062 128.695312 658.046875 126.882812 658.734375 123.78125 C 659.429688 120.6875 658.328125 116.78125 655.851562 113.539062 Z M 655.851562 113.539062 " transform="matrix(0.5,0,0,0.5,0,0)"/>
<path style="fill-rule:nonzero;fill:rgb(87.058824%,12.54902%,6.27451%);fill-opacity:1;stroke-width:2.383;stroke-linecap:butt;stroke-linejoin:miter;stroke:rgb(0%,0%,0%);stroke-opacity:1;stroke-miterlimit:4;" d="M 640.59375 96.992188 C 637.671875 94.140625 633.929688 92.578125 630.773438 92.890625 C 627.617188 93.195312 625.523438 95.34375 625.289062 98.507812 C 625.054688 101.671875 626.703125 105.375 629.625 108.21875 C 632.546875 111.078125 636.289062 112.640625 639.445312 112.328125 C 642.601562 112.015625 644.695312 109.875 644.929688 106.710938 C 645.164062 103.546875 643.507812 99.84375 640.585938 96.992188 Z M 640.59375 96.992188 " transform="matrix(0.5,0,0,0.5,0,0)"/>
<path style="fill-rule:nonzero;fill:rgb(87.058824%,12.54902%,6.27451%);fill-opacity:1;stroke-width:2.383;stroke-linecap:butt;stroke-linejoin:miter;stroke:rgb(0%,0%,0%);stroke-opacity:1;stroke-miterlimit:4;" d="M 623.40625 81.773438 C 620.242188 79.203125 616.375 77.984375 613.257812 78.585938 C 610.140625 79.1875 608.257812 81.515625 608.3125 84.6875 C 608.367188 87.859375 610.351562 91.398438 613.523438 93.960938 C 616.695312 96.53125 620.5625 97.75 623.679688 97.148438 C 626.796875 96.546875 628.679688 94.226562 628.625 91.054688 C 628.570312 87.882812 626.578125 84.34375 623.40625 81.773438 Z M 623.40625 81.773438 " transform="matrix(0.5,0,0,0.5,0,0)"/>
<path style="fill-rule:nonzero;fill:rgb(87.058824%,12.54902%,6.27451%);fill-opacity:1;stroke-width:2.383;stroke-linecap:butt;stroke-linejoin:miter;stroke:rgb(0%,0%,0%);stroke-opacity:1;stroke-miterlimit:4;" d="M 605.210938 69.625 C 601.65625 67.617188 597.640625 67.0625 594.671875 68.171875 C 591.695312 69.28125 590.21875 71.882812 590.804688 75 C 591.382812 78.125 593.929688 81.28125 597.484375 83.289062 C 601.039062 85.296875 605.054688 85.851562 608.03125 84.742188 C 611 83.632812 612.476562 81.03125 611.890625 77.914062 C 611.3125 74.789062 608.765625 71.632812 605.210938 69.625 Z M 605.210938 69.625 " transform="matrix(0.5,0,0,0.5,0,0)"/>
<path style="fill-rule:nonzero;fill:rgb(87.058824%,12.54902%,6.27451%);fill-opacity:1;stroke-width:2.383;stroke-linecap:butt;stroke-linejoin:miter;stroke:rgb(0%,0%,0%);stroke-opacity:1;stroke-miterlimit:4;" d="M 584.84375 58.84375 C 581.125 57.164062 577.070312 56.976562 574.210938 58.351562 C 571.351562 59.726562 570.117188 62.453125 570.984375 65.507812 C 571.84375 68.5625 574.671875 71.476562 578.390625 73.148438 C 582.109375 74.828125 586.164062 75.015625 589.023438 73.640625 C 591.882812 72.265625 593.109375 69.539062 592.25 66.484375 C 591.382812 63.429688 588.5625 60.515625 584.84375 58.84375 Z M 584.84375 58.84375 " transform="matrix(0.5,0,0,0.5,0,0)"/>
<path style="fill-rule:nonzero;fill:rgb(87.058824%,12.54902%,6.27451%);fill-opacity:1;stroke-width:2.383;stroke-linecap:butt;stroke-linejoin:miter;stroke:rgb(0%,0%,0%);stroke-opacity:1;stroke-miterlimit:4;" d="M 564.859375 50.796875 C 561.039062 49.375 556.976562 49.453125 554.21875 51.015625 C 551.460938 52.585938 550.414062 55.390625 551.476562 58.375 C 552.546875 61.367188 555.5625 64.085938 559.382812 65.5 C 563.203125 66.929688 567.265625 66.84375 570.023438 65.28125 C 572.78125 63.71875 573.828125 60.914062 572.765625 57.921875 C 571.703125 54.9375 568.6875 52.21875 564.859375 50.796875 Z M 564.859375 50.796875 " transform="matrix(0.5,0,0,0.5,0,0)"/>
<path style="fill-rule:nonzero;fill:rgb(87.058824%,12.54902%,6.27451%);fill-opacity:1;stroke-width:2.383;stroke-linecap:butt;stroke-linejoin:miter;stroke:rgb(0%,0%,0%);stroke-opacity:1;stroke-miterlimit:4;" d="M 544.5625 44.429688 C 540.640625 43.296875 536.601562 43.695312 533.96875 45.460938 C 531.335938 47.234375 530.507812 50.109375 531.796875 53.007812 C 533.085938 55.90625 536.304688 58.382812 540.226562 59.507812 C 544.140625 60.640625 548.179688 60.25 550.8125 58.476562 C 553.445312 56.703125 554.273438 53.828125 552.984375 50.929688 C 551.695312 48.03125 548.484375 45.554688 544.5625 44.429688 Z M 544.5625 44.429688 " transform="matrix(0.5,0,0,0.5,0,0)"/>
<path style="fill-rule:nonzero;fill:rgb(87.058824%,12.54902%,6.27451%);fill-opacity:1;stroke-width:2.383;stroke-linecap:butt;stroke-linejoin:miter;stroke:rgb(0%,0%,0%);stroke-opacity:1;stroke-miterlimit:4;" d="M 522.210938 40.617188 C 518.164062 40.109375 514.234375 41.117188 511.90625 43.273438 C 509.570312 45.421875 509.195312 48.398438 510.921875 51.0625 C 512.640625 53.726562 516.195312 55.679688 520.25 56.1875 C 524.296875 56.703125 528.226562 55.6875 530.554688 53.539062 C 532.882812 51.382812 533.257812 48.414062 531.539062 45.75 C 529.8125 43.078125 526.257812 41.125 522.210938 40.617188 Z M 522.210938 40.617188 " transform="matrix(0.5,0,0,0.5,0,0)"/>
<path style="fill-rule:nonzero;fill:rgb(87.058824%,12.54902%,6.27451%);fill-opacity:1;stroke-width:2.383;stroke-linecap:butt;stroke-linejoin:miter;stroke:rgb(0%,0%,0%);stroke-opacity:1;stroke-miterlimit:4;" d="M 500.148438 39.375 C 496.070312 39.210938 492.242188 40.546875 490.109375 42.898438 C 487.96875 45.242188 487.851562 48.234375 489.789062 50.742188 C 491.734375 53.25 495.445312 54.890625 499.523438 55.054688 C 503.601562 55.21875 507.429688 53.875 509.5625 51.53125 C 511.703125 49.1875 511.820312 46.195312 509.882812 43.6875 C 507.9375 41.179688 504.226562 39.53125 500.148438 39.375 Z M 500.148438 39.375 " transform="matrix(0.5,0,0,0.5,0,0)"/>
<path style="fill-rule:nonzero;fill:rgb(87.058824%,12.54902%,6.27451%);fill-opacity:1;stroke-width:2.383;stroke-linecap:butt;stroke-linejoin:miter;stroke:rgb(0%,0%,0%);stroke-opacity:1;stroke-miterlimit:4;" d="M 479.9375 40.085938 C 475.859375 39.921875 472.03125 41.265625 469.898438 43.609375 C 467.757812 45.953125 467.640625 48.945312 469.578125 51.453125 C 471.523438 53.960938 475.234375 55.609375 479.3125 55.765625 C 483.390625 55.9375 487.21875 54.59375 489.351562 52.25 C 491.492188 49.90625 491.609375 46.914062 489.671875 44.40625 C 487.726562 41.890625 484.015625 40.25 479.9375 40.085938 Z M 479.9375 40.085938 " transform="matrix(0.5,0,0,0.5,0,0)"/>
<path style="fill-rule:nonzero;fill:rgb(87.058824%,12.54902%,6.27451%);fill-opacity:1;stroke-width:2.383;stroke-linecap:butt;stroke-linejoin:miter;stroke:rgb(0%,0%,0%);stroke-opacity:1;stroke-miterlimit:4;" d="M 456.25 42.898438 C 452.273438 43.804688 448.929688 46.101562 447.476562 48.921875 C 446.03125 51.742188 446.695312 54.664062 449.226562 56.578125 C 451.757812 58.484375 455.773438 59.101562 459.75 58.1875 C 463.726562 57.289062 467.070312 54.984375 468.515625 52.164062 C 469.96875 49.34375 469.296875 46.421875 466.765625 44.515625 C 464.234375 42.601562 460.226562 41.984375 456.25 42.898438 Z M 456.25 42.898438 " transform="matrix(0.5,0,0,0.5,0,0)"/>
<path style="fill-rule:nonzero;fill:rgb(87.058824%,12.54902%,6.27451%);fill-opacity:1;stroke-width:2.383;stroke-linecap:butt;stroke-linejoin:miter;stroke:rgb(0%,0%,0%);stroke-opacity:1;stroke-miterlimit:4;" d="M 434.703125 48.296875 C 430.8125 49.523438 427.664062 52.09375 426.453125 55.023438 C 425.242188 57.960938 426.148438 60.8125 428.828125 62.507812 C 431.507812 64.203125 435.554688 64.492188 439.445312 63.25 C 443.335938 62.023438 446.476562 59.453125 447.6875 56.523438 C 448.898438 53.585938 448 50.734375 445.3125 49.039062 C 442.632812 47.34375 438.585938 47.0625 434.703125 48.296875 Z M 434.703125 48.296875 " transform="matrix(0.5,0,0,0.5,0,0)"/>
<path style="fill-rule:nonzero;fill:rgb(87.058824%,12.54902%,6.27451%);fill-opacity:1;stroke-width:2.383;stroke-linecap:butt;stroke-linejoin:miter;stroke:rgb(0%,0%,0%);stroke-opacity:1;stroke-miterlimit:4;" d="M 415.039062 56.71875 C 411.320312 58.398438 408.507812 61.320312 407.65625 64.375 C 406.804688 67.4375 408.039062 70.15625 410.90625 71.523438 C 413.765625 72.890625 417.820312 72.6875 421.53125 71 C 425.25 69.3125 428.0625 66.390625 428.921875 63.335938 C 429.773438 60.28125 428.53125 57.554688 425.671875 56.1875 C 422.804688 54.820312 418.75 55.023438 415.039062 56.71875 Z M 415.039062 56.71875 " transform="matrix(0.5,0,0,0.5,0,0)"/>
<path style="fill-rule:nonzero;fill:rgb(87.058824%,12.54902%,6.27451%);fill-opacity:1;stroke-width:2.383;stroke-linecap:butt;stroke-linejoin:miter;stroke:rgb(0%,0%,0%);stroke-opacity:1;stroke-miterlimit:4;" d="M 395.429688 66.765625 C 391.867188 68.765625 389.3125 71.914062 388.726562 75.03125 C 388.132812 78.148438 389.601562 80.757812 392.570312 81.875 C 395.546875 82.992188 399.5625 82.445312 403.117188 80.445312 C 406.679688 78.445312 409.234375 75.296875 409.820312 72.179688 C 410.414062 69.0625 408.945312 66.453125 405.976562 65.335938 C 403.007812 64.21875 398.984375 64.765625 395.429688 66.765625 Z M 395.429688 66.765625 " transform="matrix(0.5,0,0,0.5,0,0)"/>
<path style="fill-rule:nonzero;fill:rgb(87.058824%,12.54902%,6.27451%);fill-opacity:1;stroke-width:2.383;stroke-linecap:butt;stroke-linejoin:miter;stroke:rgb(0%,0%,0%);stroke-opacity:1;stroke-miterlimit:4;" d="M 376.882812 79.351562 C 373.5625 81.71875 371.359375 85.132812 371.117188 88.296875 C 370.867188 91.453125 372.609375 93.890625 375.679688 94.679688 C 378.757812 95.46875 382.695312 94.484375 386.007812 92.109375 C 389.328125 89.742188 391.53125 86.328125 391.773438 83.164062 C 392.023438 80 390.28125 77.570312 387.210938 76.78125 C 384.132812 75.992188 380.195312 76.96875 376.882812 79.351562 Z M 376.882812 79.351562 " transform="matrix(0.5,0,0,0.5,0,0)"/>
<path style="fill-rule:nonzero;fill:rgb(87.058824%,12.54902%,6.27451%);fill-opacity:1;stroke-width:2.383;stroke-linecap:butt;stroke-linejoin:miter;stroke:rgb(0%,0%,0%);stroke-opacity:1;stroke-miterlimit:4;" d="M 359.710938 92.359375 C 356.601562 95 354.703125 98.585938 354.71875 101.757812 C 354.742188 104.929688 356.6875 107.210938 359.8125 107.734375 C 362.945312 108.257812 366.78125 106.953125 369.882812 104.304688 C 372.992188 101.65625 374.898438 98.070312 374.875 94.898438 C 374.851562 91.726562 372.914062 89.445312 369.78125 88.921875 C 366.65625 88.398438 362.8125 89.710938 359.710938 92.359375 Z M 359.710938 92.359375 " transform="matrix(0.5,0,0,0.5,0,0)"/>
<path style="fill-rule:nonzero;fill:rgb(87.058824%,12.54902%,6.27451%);fill-opacity:1;stroke-width:2.383;stroke-linecap:butt;stroke-linejoin:miter;stroke:rgb(0%,0%,0%);stroke-opacity:1;stroke-miterlimit:4;" d="M 344.5625 108.1875 C 341.648438 111.046875 340.007812 114.757812 340.257812 117.921875 C 340.507812 121.085938 342.609375 123.21875 345.765625 123.515625 C 348.921875 123.820312 352.664062 122.234375 355.5625 119.375 C 358.476562 116.515625 360.117188 112.804688 359.867188 109.640625 C 359.617188 106.476562 357.523438 104.34375 354.359375 104.046875 C 351.203125 103.742188 347.46875 105.328125 344.5625 108.1875 Z M 344.5625 108.1875 " transform="matrix(0.5,0,0,0.5,0,0)"/>
<path style="fill-rule:nonzero;fill:rgb(87.058824%,12.54902%,6.27451%);fill-opacity:1;stroke-width:2.383;stroke-linecap:butt;stroke-linejoin:miter;stroke:rgb(0%,0%,0%);stroke-opacity:1;stroke-miterlimit:4;" d="M 331.507812 125.789062 C 328.851562 128.882812 327.523438 132.71875 328.039062 135.851562 C 328.554688 138.984375 330.820312 140.929688 333.992188 140.96875 C 337.164062 141 340.757812 139.109375 343.414062 136.015625 C 346.078125 132.921875 347.398438 129.078125 346.882812 125.953125 C 346.375 122.820312 344.101562 120.867188 340.929688 120.835938 C 337.757812 120.804688 334.164062 122.695312 331.507812 125.789062 Z M 331.507812 125.789062 " transform="matrix(0.5,0,0,0.5,0,0)"/>
<path style="fill-rule:nonzero;fill:rgb(87.058824%,12.54902%,6.27451%);fill-opacity:1;stroke-width:2.383;stroke-linecap:butt;stroke-linejoin:miter;stroke:rgb(0%,0%,0%);stroke-opacity:1;stroke-miterlimit:4;" d="M 319.578125 143.8125 C 317.265625 147.171875 316.359375 151.125 317.203125 154.179688 C 318.046875 157.242188 320.507812 158.9375 323.671875 158.632812 C 326.828125 158.328125 330.195312 156.070312 332.507812 152.703125 C 334.820312 149.34375 335.726562 145.390625 334.882812 142.328125 C 334.039062 139.273438 331.578125 137.578125 328.421875 137.882812 C 325.257812 138.1875 321.890625 140.445312 319.578125 143.8125 Z M 319.578125 143.8125 " transform="matrix(0.5,0,0,0.5,0,0)"/>
<path style="fill-rule:nonzero;fill:rgb(87.058824%,12.54902%,6.27451%);fill-opacity:1;stroke-width:2.383;stroke-linecap:butt;stroke-linejoin:miter;stroke:rgb(0%,0%,0%);stroke-opacity:1;stroke-miterlimit:4;" d="M 309.640625 164.242188 C 307.9375 167.945312 307.71875 172 309.078125 174.867188 C 310.4375 177.734375 313.15625 178.984375 316.210938 178.140625 C 319.273438 177.296875 322.203125 174.492188 323.898438 170.78125 C 325.609375 167.078125 325.820312 163.023438 324.460938 160.15625 C 323.109375 157.289062 320.390625 156.039062 317.328125 156.882812 C 314.265625 157.726562 311.335938 160.53125 309.640625 164.242188 Z M 309.640625 164.242188 " transform="matrix(0.5,0,0,0.5,0,0)"/>
<path style="fill-rule:nonzero;fill:rgb(87.058824%,12.54902%,6.27451%);fill-opacity:1;stroke-width:2.383;stroke-linecap:butt;stroke-linejoin:miter;stroke:rgb(0%,0%,0%);stroke-opacity:1;stroke-miterlimit:4;" d="M 301.773438 185.59375 C 300.40625 189.4375 300.5625 193.492188 302.171875 196.226562 C 303.78125 198.960938 306.609375 199.953125 309.578125 198.835938 C 312.546875 197.71875 315.210938 194.664062 316.570312 190.8125 C 317.929688 186.96875 317.773438 182.914062 316.164062 180.179688 C 314.554688 177.445312 311.726562 176.445312 308.757812 177.5625 C 305.789062 178.679688 303.125 181.742188 301.773438 185.59375 Z M 301.773438 185.59375 " transform="matrix(0.5,0,0,0.5,0,0)"/>
<path style="fill-rule:nonzero;fill:rgb(87.058824%,12.54902%,6.27451%);fill-opacity:1;stroke-width:2.133;stroke-linecap:butt;stroke-linejoin:miter;stroke:rgb(0%,0%,0%);stroke-opacity:1;stroke-miterlimit:4;" d="M 294.9375 226.007812 C 294.5625 229.265625 295.703125 232.390625 297.929688 234.195312 C 300.15625 236.007812 303.140625 236.226562 305.75 234.78125 C 308.351562 233.328125 310.1875 230.429688 310.5625 227.171875 C 310.945312 223.914062 309.804688 220.796875 307.570312 218.984375 C 305.34375 217.171875 302.367188 216.953125 299.757812 218.40625 C 297.148438 219.851562 295.3125 222.75 294.9375 226.007812 Z M 294.9375 226.007812 " transform="matrix(0.5,0,0,0.5,0,0)"/>
<path style="fill-rule:nonzero;fill:rgb(87.058824%,12.54902%,6.27451%);fill-opacity:1;stroke-width:2.383;stroke-linecap:butt;stroke-linejoin:miter;stroke:rgb(0%,0%,0%);stroke-opacity:1;stroke-miterlimit:4;" d="M 296.757812 207.140625 C 295.851562 211.117188 296.46875 215.125 298.382812 217.65625 C 300.296875 220.1875 303.21875 220.851562 306.039062 219.40625 C 308.859375 217.953125 311.15625 214.609375 312.054688 210.625 C 312.96875 206.648438 312.351562 202.640625 310.4375 200.109375 C 308.523438 197.578125 305.601562 196.914062 302.78125 198.367188 C 299.960938 199.8125 297.664062 203.164062 296.757812 207.140625 Z M 296.757812 207.140625 " transform="matrix(0.5,0,0,0.5,0,0)"/>
<path style=" stroke:none;fill-rule:nonzero;fill:rgb(100%,89.019608%,0%);fill-opacity:1;" d="M 342.664062 98.734375 C 343.90625 97.40625 345.0625 97.027344 346.527344 97.511719 C 346.011719 94.003906 344.902344 92.8125 343.546875 93.234375 C 342.195312 93.660156 341.582031 95.460938 342.664062 98.734375 Z M 344.566406 109.328125 C 345.90625 108.097656 347.085938 107.808594 348.507812 108.402344 C 348.257812 104.863281 347.242188 103.59375 345.859375 103.914062 C 344.476562 104.234375 343.730469 105.984375 344.566406 109.328125 Z M 340.070312 89.070312 C 340.933594 87.46875 341.957031 86.808594 343.496094 86.90625 C 342.105469 83.644531 340.726562 82.773438 339.527344 83.527344 C 338.324219 84.28125 338.191406 86.179688 340.070312 89.070312 Z M 335.355469 79.429688 C 336.21875 77.828125 337.242188 77.171875 338.78125 77.269531 C 337.390625 74.003906 336.011719 73.136719 334.8125 73.886719 C 333.609375 74.640625 333.476562 76.539062 335.355469 79.429688 Z M 324.050781 61.769531 C 324.644531 60.050781 325.550781 59.238281 327.082031 59.085938 C 325.1875 56.089844 323.6875 55.449219 322.621094 56.386719 C 321.558594 57.324219 321.730469 59.21875 324.050781 61.769531 Z M 316.660156 54.074219 C 317.191406 52.332031 318.0625 51.488281 319.589844 51.277344 C 317.582031 48.355469 316.058594 47.773438 315.03125 48.75 C 314.003906 49.722656 314.246094 51.613281 316.660156 54.074219 Z M 301.128906 40.96875 C 301.097656 39.148438 301.667969 38.074219 303.054688 37.402344 C 300.242188 35.242188 298.617188 35.15625 297.941406 36.402344 C 297.261719 37.648438 298.078125 39.367188 301.128906 40.96875 Z M 309.210938 47.027344 C 309.492188 45.230469 310.238281 44.269531 311.722656 43.851562 C 309.328125 41.234375 307.742188 40.871094 306.859375 41.980469 C 305.976562 43.089844 306.480469 44.925781 309.210938 47.027344 Z M 291.90625 35.878906 C 291.683594 34.070312 292.140625 32.941406 293.453125 32.136719 C 290.433594 30.273438 288.808594 30.359375 288.261719 31.667969 C 287.714844 32.972656 288.703125 34.601562 291.90625 35.878906 Z M 282.480469 31.765625 C 282.003906 30.007812 282.292969 28.824219 283.476562 27.839844 C 280.222656 26.429688 278.625 26.746094 278.269531 28.117188 C 277.917969 29.488281 279.128906 30.960938 282.480469 31.765625 Z M 272.324219 28.617188 C 271.703125 26.90625 271.890625 25.707031 272.984375 24.621094 C 269.621094 23.492188 268.058594 23.941406 267.820312 25.339844 C 267.585938 26.738281 268.917969 28.101562 272.324219 28.617188 Z M 262.351562 26.6875 C 261.605469 25.027344 261.707031 23.8125 262.71875 22.652344 C 259.285156 21.769531 257.757812 22.332031 257.621094 23.742188 C 257.488281 25.15625 258.914062 26.417969 262.351562 26.6875 Z M 251.785156 25.875 C 250.871094 24.300781 250.847656 23.085938 251.734375 21.828125 C 248.226562 21.304688 246.765625 22.023438 246.777344 23.441406 C 246.789062 24.855469 248.339844 25.964844 251.785156 25.875 Z M 231.105469 27.433594 C 229.839844 26.125 229.523438 24.953125 230.078125 23.515625 C 226.546875 23.855469 225.304688 24.90625 225.65625 26.277344 C 226.011719 27.648438 227.78125 28.351562 231.105469 27.433594 Z M 241.285156 26.09375 C 240.207031 24.628906 240.050781 23.421875 240.800781 22.074219 C 237.253906 21.929688 235.878906 22.800781 236.042969 24.210938 C 236.210938 25.617188 237.867188 26.554688 241.285156 26.09375 Z M 221.113281 29.59375 C 219.675781 28.480469 219.191406 27.363281 219.539062 25.863281 C 216.09375 26.703125 215.011719 27.921875 215.558594 29.226562 C 216.105469 30.535156 217.957031 30.976562 221.113281 29.59375 Z M 201.988281 38.386719 C 200.363281 37.566406 199.679688 36.5625 199.730469 35.023438 C 196.507812 36.503906 195.679688 37.90625 196.464844 39.085938 C 197.25 40.265625 199.15625 40.34375 201.988281 38.386719 Z M 211.210938 33.675781 C 209.695312 32.664062 209.136719 31.585938 209.378906 30.0625 C 205.996094 31.140625 205.003906 32.429688 205.640625 33.699219 C 206.277344 34.964844 208.15625 35.273438 211.210938 33.675781 Z M 184.835938 50.328125 C 183.074219 49.867188 182.195312 49.03125 181.925781 47.511719 C 179.082031 49.632812 178.5625 51.175781 179.578125 52.164062 C 180.589844 53.15625 182.46875 52.835938 184.835938 50.328125 Z M 193.019531 43.632812 C 191.300781 43.035156 190.488281 42.128906 190.339844 40.59375 C 187.339844 42.484375 186.699219 43.984375 187.632812 45.050781 C 188.566406 46.117188 190.464844 45.945312 193.019531 43.632812 Z M 177.566406 57.496094 C 175.769531 57.195312 174.816406 56.441406 174.410156 54.953125 C 171.773438 57.324219 171.394531 58.90625 172.496094 59.800781 C 173.59375 60.695312 175.4375 60.207031 177.566406 57.496094 Z M 171.046875 65.949219 C 169.230469 65.816406 168.210938 65.148438 167.675781 63.703125 C 165.261719 66.304688 165.027344 67.917969 166.207031 68.707031 C 167.382812 69.496094 169.171875 68.84375 171.046875 65.949219 Z M 165.59375 74.601562 C 163.78125 74.742188 162.671875 74.242188 161.921875 72.898438 C 159.933594 75.835938 159.949219 77.464844 161.234375 78.066406 C 162.519531 78.664062 164.1875 77.746094 165.59375 74.601562 Z M 160.804688 83.835938 C 159.023438 84.214844 157.859375 83.859375 156.941406 82.625 C 155.351562 85.796875 155.578125 87.40625 156.929688 87.835938 C 158.28125 88.265625 159.816406 87.136719 160.804688 83.835938 Z M 156.976562 93.308594 C 155.277344 93.964844 154.070312 93.800781 152.96875 92.726562 C 151.902344 96.109375 152.382812 97.664062 153.785156 97.875 C 155.1875 98.085938 156.523438 96.726562 156.976562 93.308594 Z M 154.410156 103.875 C 152.757812 104.644531 151.546875 104.558594 150.371094 103.5625 C 149.535156 107.007812 150.117188 108.527344 151.53125 108.644531 C 152.945312 108.757812 154.1875 107.316406 154.410156 103.875 Z M 153.363281 112.664062 C 151.8125 113.488281 150.601562 113.585938 149.328125 112.964844 C 148.867188 115.773438 149.609375 116.882812 151.019531 116.78125 C 152.433594 116.683594 153.511719 115.386719 153.363281 112.664062 Z M 331.148438 70.839844 C 331.773438 69.128906 332.6875 68.328125 334.222656 68.203125 C 332.371094 65.175781 330.882812 64.515625 329.804688 65.433594 C 328.726562 66.355469 328.871094 68.253906 331.148438 70.839844 Z M 345.726562 120.058594 C 347.066406 118.828125 348.246094 118.539062 349.667969 119.132812 C 349.417969 115.59375 348.402344 114.324219 347.019531 114.644531 C 345.636719 114.964844 344.890625 116.714844 345.726562 120.058594 Z M 345.726562 120.058594 "/>
<path style="fill-rule:nonzero;fill:rgb(100%,82.352941%,0%);fill-opacity:1;stroke-width:1.008;stroke-linecap:butt;stroke-linejoin:miter;stroke:rgb(93.72549%,54.117647%,6.27451%);stroke-opacity:1;stroke-miterlimit:4;" d="M 646.898438 149.65625 C 646.898438 149.65625 654.296875 137.953125 651.4375 126.9375 C 648.578125 115.914062 636.375 123.703125 636.632812 127.625 C 636.898438 131.546875 644.523438 136.789062 644.984375 139.1875 C 645.445312 141.578125 644.125 148.9375 646.898438 149.664062 Z M 646.898438 149.65625 " transform="matrix(0.5,0,0,0.5,0,0)"/>
<path style="fill-rule:nonzero;fill:rgb(12.941176%,47.45098%,0%);fill-opacity:1;stroke-width:1.935;stroke-linecap:butt;stroke-linejoin:round;stroke:rgb(0%,0%,0%);stroke-opacity:1;stroke-miterlimit:4;" d="M 663.671875 124.921875 C 663.585938 124.921875 655.648438 132.851562 657.03125 142.515625 C 658.40625 152.179688 664.53125 164.078125 663.414062 174.085938 C 662.289062 184.09375 660.476562 190.734375 660.476562 190.734375 C 660.476562 190.734375 669.796875 180.125 669.882812 169.945312 C 669.96875 159.765625 663.5 146.398438 663.5 138.890625 C 663.5 131.390625 663.84375 124.75 663.671875 124.921875 Z M 678.421875 157.351562 C 678.421875 157.351562 672.210938 161.921875 672.8125 172.445312 C 673.414062 182.96875 684.289062 202.289062 684.289062 202.289062 C 684.289062 202.289062 692.21875 218.59375 691.960938 222.820312 C 691.703125 227.046875 693.429688 218.765625 692.648438 209.445312 C 691.875 200.132812 679.882812 179.601562 679.882812 179.601562 C 679.882812 179.601562 677.296875 175.382812 677.554688 168.390625 C 677.820312 161.40625 678.507812 157.4375 678.421875 157.351562 Z M 678.421875 157.351562 " transform="matrix(0.5,0,0,0.5,0,0)"/>
<path style="fill-rule:nonzero;fill:rgb(12.941176%,47.45098%,0%);fill-opacity:1;stroke-width:2.419;stroke-linecap:butt;stroke-linejoin:round;stroke:rgb(0%,0%,0%);stroke-opacity:1;stroke-miterlimit:4;" d="M 505.648438 52.296875 C 505.648438 52.296875 532.304688 53.328125 532.476562 70.578125 C 532.390625 73.25 532.476562 76.445312 531.523438 84.117188 C 536.789062 81.273438 540.320312 73.335938 539.632812 68.25 C 539.71875 50.742188 515.828125 38.75 505.648438 52.296875 Z M 505.648438 52.296875 " transform="matrix(0.5,0,0,0.5,0,0)"/>
<path style="fill-rule:nonzero;fill:rgb(12.941176%,47.45098%,0%);fill-opacity:1;stroke-width:2.419;stroke-linecap:butt;stroke-linejoin:round;stroke:rgb(0%,0%,0%);stroke-opacity:1;stroke-miterlimit:4;" d="M 488.75 51.515625 C 488.75 51.515625 510.226562 47.03125 510.398438 64.28125 C 510.570312 81.53125 503.585938 84.296875 503.585938 84.296875 C 503.585938 84.296875 520.0625 80.757812 520.148438 63.25 C 520.234375 45.734375 498.929688 37.976562 488.75 51.515625 Z M 697.382812 249.1875 C 697.875 256.929688 705.445312 264.335938 702.484375 277.84375 C 698.695312 293.15625 685.359375 329.546875 687.664062 335.96875 C 683.710938 330.53125 684.367188 325.429688 684.039062 317.859375 C 683.710938 310.28125 695.070312 282.125 696.0625 272.570312 C 696.0625 264.007812 696.882812 252.320312 697.382812 249.1875 Z M 697.382812 249.1875 " transform="matrix(0.5,0,0,0.5,0,0)"/>
<path style="fill-rule:nonzero;fill:rgb(12.941176%,47.45098%,0%);fill-opacity:1;stroke-width:2.419;stroke-linecap:butt;stroke-linejoin:round;stroke:rgb(0%,0%,0%);stroke-opacity:1;stroke-miterlimit:4;" d="M 697.382812 249.359375 C 697.382812 249.359375 709.726562 265 709.070312 277.351562 C 708.414062 289.703125 701.492188 304.195312 703.804688 310.617188 C 699.851562 305.179688 698.859375 301.726562 698.53125 294.148438 C 698.203125 286.570312 704.625 278.171875 703.304688 269.945312 C 701.992188 261.710938 697.21875 249.359375 697.382812 249.359375 Z M 292.820312 252.8125 C 292.328125 260.546875 286.5625 267.46875 289.523438 280.96875 C 293.3125 296.28125 306.8125 315.710938 304.679688 337.945312 C 308.625 332.507812 309.78125 326.414062 310.109375 318.84375 C 310.4375 311.265625 295.125 285.742188 294.132812 276.195312 C 294.132812 267.632812 293.3125 255.9375 292.820312 252.8125 Z M 292.820312 252.8125 " transform="matrix(0.5,0,0,0.5,0,0)"/>
<path style="fill-rule:nonzero;fill:rgb(12.941176%,47.45098%,0%);fill-opacity:1;stroke-width:2.419;stroke-linecap:butt;stroke-linejoin:round;stroke:rgb(0%,0%,0%);stroke-opacity:1;stroke-miterlimit:4;" d="M 292.820312 252.976562 C 292.820312 252.976562 280.796875 268.132812 281.460938 280.476562 C 281.625 288.710938 296.773438 323.125 294.46875 329.546875 C 298.421875 324.117188 299.570312 324.773438 299.40625 316.539062 C 294.960938 295.460938 287.054688 281.960938 288.375 273.726562 C 289.695312 265.492188 292.984375 252.976562 292.820312 252.976562 Z M 292.820312 252.976562 " transform="matrix(0.5,0,0,0.5,0,0)"/>
<path style="fill-rule:nonzero;fill:rgb(54.901961%,54.117647%,54.901961%);fill-opacity:1;stroke-width:1.935;stroke-linecap:butt;stroke-linejoin:miter;stroke:rgb(0%,0%,0%);stroke-opacity:1;stroke-miterlimit:4;" d="M 526.382812 104.5625 C 526.382812 104.5625 547.835938 105.90625 548.890625 118.21875 C 549.9375 130.515625 543.789062 138.023438 543.789062 138.023438 C 543.789062 138.023438 546.484375 164.578125 525.476562 172.382812 C 502.96875 175.085938 467.710938 172.984375 467.710938 172.984375 C 467.710938 172.984375 457.359375 175.53125 453.15625 154.078125 C 448.953125 132.617188 447.757812 117.46875 447.757812 117.46875 C 447.757812 117.46875 449.851562 105.460938 465.007812 104.710938 C 480.164062 103.960938 526.226562 104.859375 526.382812 104.5625 Z M 526.382812 104.5625 " transform="matrix(0.5,0,0,0.5,0,0)"/>
<path style="fill:none;stroke-width:1.935;stroke-linecap:round;stroke-linejoin:miter;stroke:rgb(0%,0%,0%);stroke-opacity:1;stroke-miterlimit:4;" d="M 543.632812 137.867188 C 543.632812 137.867188 532.078125 152.273438 533.273438 158.125 " transform="matrix(0.5,0,0,0.5,0,0)"/>
<path style="fill-rule:nonzero;fill:rgb(54.901961%,54.117647%,54.901961%);fill-opacity:1;stroke-width:1.935;stroke-linecap:butt;stroke-linejoin:miter;stroke:rgb(0%,0%,0%);stroke-opacity:1;stroke-miterlimit:4;" d="M 528.179688 171.632812 C 531.03125 174.03125 533.734375 176.734375 534.328125 185.585938 L 535.53125 203.289062 L 550.539062 338.34375 L 563.742188 436.023438 L 564.640625 451.179688 C 564.640625 451.179688 561.492188 462.28125 552.640625 463.179688 C 546.1875 476.6875 511.226562 480.585938 507.773438 480.4375 C 504.625 480.289062 493.515625 475.640625 486.765625 476.234375 C 480.015625 476.835938 468.3125 481.335938 463.054688 480.585938 C 457.804688 479.835938 445.953125 475.789062 443.851562 467.234375 C 429.148438 462.585938 426.742188 451.328125 426.742188 451.328125 L 442.648438 338.34375 L 458.109375 195.492188 C 458.109375 195.492188 459.90625 176.4375 467.5625 173.585938 C 475.507812 172.835938 516.625 174.335938 528.179688 171.632812 Z M 528.179688 171.632812 " transform="matrix(0.5,0,0,0.5,0,0)"/>
<path style="fill:none;stroke-width:1.935;stroke-linecap:butt;stroke-linejoin:miter;stroke:rgb(0%,0%,0%);stroke-opacity:1;stroke-miterlimit:4;" d="M 447.148438 367.148438 L 444 467.085938 M 544.226562 380.351562 L 553.085938 462.726562 " transform="matrix(0.5,0,0,0.5,0,0)"/>
<path style="fill-rule:nonzero;fill:rgb(100%,100%,100%);fill-opacity:1;stroke-width:2.016;stroke-linecap:butt;stroke-linejoin:round;stroke:rgb(0%,0%,0%);stroke-opacity:1;stroke-miterlimit:4;" d="M 498.1875 114.453125 L 528.109375 206.546875 L 624.929688 206.546875 L 546.609375 263.46875 L 576.523438 355.5625 L 498.1875 298.648438 L 419.859375 355.5625 L 449.773438 263.46875 L 371.445312 206.546875 L 468.265625 206.539062 Z M 498.1875 114.453125 " transform="matrix(0.5,0,0,0.5,0,0)"/>
</g>
</svg>
