<?xml version="1.0" encoding="UTF-8"?>
<svg xmlns="http://www.w3.org/2000/svg" xmlns:xlink="http://www.w3.org/1999/xlink" width="px" height="px" viewBox="0 0 375 250" version="1.1">
<g id="surface1">
<rect x="0" y="0" width="375" height="250" style="fill:rgb(12.941176%,25.882353%,55.686275%);fill-opacity:1;stroke:none;"/>
<path style=" stroke:none;fill-rule:nonzero;fill:rgb(100%,100%,100%);fill-opacity:1;" d="M 169.375 0 L 169.375 106.875 L 0 106.875 L 0 143.125 L 169.375 143.125 L 169.375 250 L 205.625 250 L 205.625 143.125 L 375 143.125 L 375 106.875 L 205.625 106.875 L 205.625 0 Z M 169.375 0 "/>
<path style=" stroke:none;fill-rule:nonzero;fill:rgb(100%,100%,100%);fill-opacity:1;" d="M 71.644531 13.683594 C 68.886719 14.949219 66.699219 16.789062 66.699219 17.710938 C 66.699219 18.746094 68.308594 18.746094 66.238281 19.433594 C 64.285156 20.125 58.996094 21.046875 55.316406 20.929688 C 54.050781 20.929688 51.058594 20.125 50.253906 20.125 C 49.335938 20.238281 54.164062 22.195312 52.324219 21.734375 C 49.796875 21.046875 48.300781 20.816406 50.253906 22.078125 C 51.75 23 55.085938 23 59.800781 22.425781 C 61.640625 22.195312 66.46875 21.160156 68.195312 20.929688 C 69.34375 20.816406 69.34375 21.851562 70.035156 21.851562 C 76.246094 22.195312 87.285156 21.964844 92.113281 21.273438 C 96.140625 20.699219 97.636719 20.929688 98.785156 22.308594 C 101.085938 24.953125 98.671875 27.253906 92.113281 28.636719 C 84.066406 30.359375 80.730469 31.855469 77.625 35.191406 C 70.148438 43.238281 78.890625 52.324219 95.21875 53.589844 C 104.765625 54.394531 110.976562 56.234375 109.480469 57.730469 C 108.90625 58.304688 102.578125 59.226562 95.335938 59.800781 C 79.578125 61.066406 72.566406 63.25 66.585938 69 C 63.25 72.21875 62.101562 74.175781 62.101562 76.820312 C 62.101562 80.5 62.101562 80.5 56.003906 80.5 C 52.785156 80.5 48.300781 80.039062 46.230469 79.351562 C 43.011719 78.546875 42.550781 78.546875 43.699219 79.925781 C 46 82.683594 52.554688 85.101562 57.960938 85.101562 C 62.101562 85.101562 64.398438 85.90625 68.078125 88.550781 C 75.441406 93.953125 83.835938 96.023438 97.75 95.910156 C 116.035156 95.796875 126.5 90.964844 126.5 82.800781 C 126.5 76.703125 119.601562 73.140625 105.226562 71.875 C 97.980469 71.183594 83.71875 72.335938 77.511719 74.175781 C 76.359375 74.519531 77.625 73.714844 80.386719 72.335938 C 83.71875 70.726562 89.238281 69.574219 96.714844 68.886719 C 113.273438 67.503906 120.75 63.824219 120.75 56.925781 C 120.75 50.253906 113.390625 46.460938 97.636719 44.964844 C 82.109375 43.585938 80.960938 40.824219 94.070312 36.800781 C 103.386719 34.039062 108.101562 29.898438 108.101562 24.265625 C 108.101562 15.640625 103.386719 12.765625 87.628906 11.960938 C 78.085938 11.5 75.785156 11.730469 71.644531 13.683594 Z M 79.925781 16.101562 C 79.578125 16.675781 78.660156 17.25 78.085938 17.25 C 77.394531 17.25 77.28125 16.675781 77.625 16.101562 C 77.96875 15.410156 78.890625 14.949219 79.464844 14.949219 C 80.15625 14.949219 80.269531 15.410156 79.925781 16.101562 Z M 113.160156 80.5 C 115.34375 81.304688 116.148438 82.109375 115.460938 82.800781 C 113.503906 84.753906 100.855469 86.480469 93.148438 85.90625 C 84.640625 85.101562 75.441406 82.339844 78.199219 81.191406 C 85.90625 78.199219 106.144531 77.855469 113.160156 80.5 Z M 113.160156 80.5 "/>
<path style=" stroke:none;fill-rule:nonzero;fill:rgb(100%,100%,100%);fill-opacity:1;" d="M 277.269531 13.683594 C 274.511719 14.949219 272.324219 16.789062 272.324219 17.710938 C 272.324219 18.746094 273.933594 18.746094 271.863281 19.433594 C 269.910156 20.125 264.621094 21.046875 260.941406 20.929688 C 259.675781 20.929688 256.683594 20.125 255.878906 20.125 C 254.960938 20.238281 259.789062 22.195312 257.949219 21.734375 C 255.421875 21.046875 253.925781 20.816406 255.878906 22.078125 C 257.375 23 260.710938 23 265.425781 22.425781 C 267.265625 22.195312 272.09375 21.160156 273.820312 20.929688 C 274.96875 20.816406 274.96875 21.851562 275.660156 21.851562 C 281.871094 22.195312 292.910156 21.964844 297.738281 21.273438 C 301.765625 20.699219 303.261719 20.929688 304.410156 22.308594 C 306.710938 24.953125 304.296875 27.253906 297.738281 28.636719 C 289.691406 30.359375 286.355469 31.855469 283.25 35.191406 C 275.773438 43.238281 284.515625 52.324219 300.84375 53.589844 C 310.390625 54.394531 316.601562 56.234375 315.105469 57.730469 C 314.53125 58.304688 308.203125 59.226562 300.960938 59.800781 C 285.203125 61.066406 278.191406 63.25 272.210938 69 C 268.875 72.21875 267.726562 74.175781 267.726562 76.820312 C 267.726562 80.5 267.726562 80.5 261.628906 80.5 C 258.410156 80.5 253.925781 80.039062 251.855469 79.351562 C 248.636719 78.546875 248.175781 78.546875 249.324219 79.925781 C 251.625 82.683594 258.179688 85.101562 263.585938 85.101562 C 267.726562 85.101562 270.023438 85.90625 273.703125 88.550781 C 281.066406 93.953125 289.460938 96.023438 303.375 95.910156 C 321.660156 95.796875 332.125 90.964844 332.125 82.800781 C 332.125 76.703125 325.226562 73.140625 310.851562 71.875 C 303.605469 71.183594 289.34375 72.335938 283.136719 74.175781 C 281.984375 74.519531 283.25 73.714844 286.011719 72.335938 C 289.34375 70.726562 294.863281 69.574219 302.339844 68.886719 C 318.898438 67.503906 326.375 63.824219 326.375 56.925781 C 326.375 50.253906 319.015625 46.460938 303.261719 44.964844 C 287.734375 43.585938 286.585938 40.824219 299.695312 36.800781 C 309.011719 34.039062 313.726562 29.898438 313.726562 24.265625 C 313.726562 15.640625 309.011719 12.765625 293.253906 11.960938 C 283.710938 11.5 281.410156 11.730469 277.269531 13.683594 Z M 285.550781 16.101562 C 285.203125 16.675781 284.285156 17.25 283.710938 17.25 C 283.019531 17.25 282.90625 16.675781 283.25 16.101562 C 283.59375 15.410156 284.515625 14.949219 285.089844 14.949219 C 285.78125 14.949219 285.894531 15.410156 285.550781 16.101562 Z M 318.785156 80.5 C 320.96875 81.304688 321.773438 82.109375 321.085938 82.800781 C 319.128906 84.753906 306.480469 86.480469 298.773438 85.90625 C 290.265625 85.101562 281.066406 82.339844 283.824219 81.191406 C 291.53125 78.199219 311.769531 77.855469 318.785156 80.5 Z M 318.785156 80.5 "/>
<path style=" stroke:none;fill-rule:nonzero;fill:rgb(100%,100%,100%);fill-opacity:1;" d="M 71.644531 156.808594 C 68.886719 158.074219 66.699219 159.914062 66.699219 160.835938 C 66.699219 161.871094 68.308594 161.871094 66.238281 162.558594 C 64.285156 163.25 58.996094 164.171875 55.316406 164.054688 C 54.050781 164.054688 51.058594 163.25 50.253906 163.25 C 49.335938 163.363281 54.164062 165.320312 52.324219 164.859375 C 49.796875 164.171875 48.300781 163.941406 50.253906 165.203125 C 51.75 166.125 55.085938 166.125 59.800781 165.550781 C 61.640625 165.320312 66.46875 164.285156 68.195312 164.054688 C 69.34375 163.941406 69.34375 164.976562 70.035156 164.976562 C 76.246094 165.320312 87.285156 165.089844 92.113281 164.398438 C 96.140625 163.824219 97.636719 164.054688 98.785156 165.433594 C 101.085938 168.078125 98.671875 170.378906 92.113281 171.761719 C 84.066406 173.484375 80.730469 174.980469 77.625 178.316406 C 70.148438 186.363281 78.890625 195.449219 95.21875 196.714844 C 104.765625 197.519531 110.976562 199.359375 109.480469 200.855469 C 108.90625 201.429688 102.578125 202.351562 95.335938 202.925781 C 79.578125 204.191406 72.566406 206.375 66.585938 212.125 C 63.25 215.34375 62.101562 217.300781 62.101562 219.945312 C 62.101562 223.625 62.101562 223.625 56.003906 223.625 C 52.785156 223.625 48.300781 223.164062 46.230469 222.476562 C 43.011719 221.671875 42.550781 221.671875 43.699219 223.050781 C 46 225.808594 52.554688 228.226562 57.960938 228.226562 C 62.101562 228.226562 64.398438 229.03125 68.078125 231.675781 C 75.441406 237.078125 83.835938 239.148438 97.75 239.035156 C 116.035156 238.921875 126.5 234.089844 126.5 225.925781 C 126.5 219.828125 119.601562 216.265625 105.226562 215 C 97.980469 214.308594 83.71875 215.460938 77.511719 217.300781 C 76.359375 217.644531 77.625 216.839844 80.386719 215.460938 C 83.71875 213.851562 89.238281 212.699219 96.714844 212.011719 C 113.273438 210.628906 120.75 206.949219 120.75 200.050781 C 120.75 193.378906 113.390625 189.585938 97.636719 188.089844 C 82.109375 186.710938 80.960938 183.949219 94.070312 179.925781 C 103.386719 177.164062 108.101562 173.023438 108.101562 167.390625 C 108.101562 158.765625 103.386719 155.890625 87.628906 155.085938 C 78.085938 154.625 75.785156 154.855469 71.644531 156.808594 Z M 79.925781 159.226562 C 79.578125 159.800781 78.660156 160.375 78.085938 160.375 C 77.394531 160.375 77.28125 159.800781 77.625 159.226562 C 77.96875 158.535156 78.890625 158.074219 79.464844 158.074219 C 80.15625 158.074219 80.269531 158.535156 79.925781 159.226562 Z M 113.160156 223.625 C 115.34375 224.429688 116.148438 225.234375 115.460938 225.925781 C 113.503906 227.878906 100.855469 229.605469 93.148438 229.03125 C 84.640625 228.226562 75.441406 225.464844 78.199219 224.316406 C 85.90625 221.324219 106.144531 220.980469 113.160156 223.625 Z M 113.160156 223.625 "/>
<path style=" stroke:none;fill-rule:nonzero;fill:rgb(100%,100%,100%);fill-opacity:1;" d="M 277.269531 156.808594 C 274.511719 158.074219 272.324219 159.914062 272.324219 160.835938 C 272.324219 161.871094 273.933594 161.871094 271.863281 162.558594 C 269.910156 163.25 264.621094 164.171875 260.941406 164.054688 C 259.675781 164.054688 256.683594 163.25 255.878906 163.25 C 254.960938 163.363281 259.789062 165.320312 257.949219 164.859375 C 255.421875 164.171875 253.925781 163.941406 255.878906 165.203125 C 257.375 166.125 260.710938 166.125 265.425781 165.550781 C 267.265625 165.320312 272.09375 164.285156 273.820312 164.054688 C 274.96875 163.941406 274.96875 164.976562 275.660156 164.976562 C 281.871094 165.320312 292.910156 165.089844 297.738281 164.398438 C 301.765625 163.824219 303.261719 164.054688 304.410156 165.433594 C 306.710938 168.078125 304.296875 170.378906 297.738281 171.761719 C 289.691406 173.484375 286.355469 174.980469 283.25 178.316406 C 275.773438 186.363281 284.515625 195.449219 300.84375 196.714844 C 310.390625 197.519531 316.601562 199.359375 315.105469 200.855469 C 314.53125 201.429688 308.203125 202.351562 300.960938 202.925781 C 285.203125 204.191406 278.191406 206.375 272.210938 212.125 C 268.875 215.34375 267.726562 217.300781 267.726562 219.945312 C 267.726562 223.625 267.726562 223.625 261.628906 223.625 C 258.410156 223.625 253.925781 223.164062 251.855469 222.476562 C 248.636719 221.671875 248.175781 221.671875 249.324219 223.050781 C 251.625 225.808594 258.179688 228.226562 263.585938 228.226562 C 267.726562 228.226562 270.023438 229.03125 273.703125 231.675781 C 281.066406 237.078125 289.460938 239.148438 303.375 239.035156 C 321.660156 238.921875 332.125 234.089844 332.125 225.925781 C 332.125 219.828125 325.226562 216.265625 310.851562 215 C 303.605469 214.308594 289.34375 215.460938 283.136719 217.300781 C 281.984375 217.644531 283.25 216.839844 286.011719 215.460938 C 289.34375 213.851562 294.863281 212.699219 302.339844 212.011719 C 318.898438 210.628906 326.375 206.949219 326.375 200.050781 C 326.375 193.378906 319.015625 189.585938 303.261719 188.089844 C 287.734375 186.710938 286.585938 183.949219 299.695312 179.925781 C 309.011719 177.164062 313.726562 173.023438 313.726562 167.390625 C 313.726562 158.765625 309.011719 155.890625 293.253906 155.085938 C 283.710938 154.625 281.410156 154.855469 277.269531 156.808594 Z M 285.550781 159.226562 C 285.203125 159.800781 284.285156 160.375 283.710938 160.375 C 283.019531 160.375 282.90625 159.800781 283.25 159.226562 C 283.59375 158.535156 284.515625 158.074219 285.089844 158.074219 C 285.78125 158.074219 285.894531 158.535156 285.550781 159.226562 Z M 318.785156 223.625 C 320.96875 224.429688 321.773438 225.234375 321.085938 225.925781 C 319.128906 227.878906 306.480469 229.605469 298.773438 229.03125 C 290.265625 228.226562 281.066406 225.464844 283.824219 224.316406 C 291.53125 221.324219 311.769531 220.980469 318.785156 223.625 Z M 318.785156 223.625 "/>
</g>
</svg>
