<?xml version="1.0" encoding="UTF-8"?>
<svg xmlns="http://www.w3.org/2000/svg" xmlns:xlink="http://www.w3.org/1999/xlink" width="px" height="px" viewBox="0 0 450 300" version="1.1">
<g id="surface1">
<rect x="0" y="0" width="450" height="300" style="fill:rgb(80.392157%,16.470588%,24.313725%);fill-opacity:1;stroke:none;"/>
<path style=" stroke:none;fill-rule:nonzero;fill:rgb(0%,38.431373%,20%);fill-opacity:1;" d="M 0 45 L 450 45 L 450 255 L 0 255 Z M 0 45 "/>
<path style=" stroke:none;fill-rule:nonzero;fill:rgb(100%,76.862745%,0%);fill-opacity:1;" d="M 318.75 96.625 C 318.5 148.175781 276.601562 189.875 225 189.875 C 173.398438 189.875 131.5 148.175781 131.25 96.625 C 138.964844 92.488281 147.207031 89.417969 155.75 87.5 C 155.75 141 199.101562 184.398438 252.648438 184.398438 C 306.199219 184.398438 321.898438 174.675781 321.898438 121.125 C 313.183594 170.386719 268.269531 204.816406 218.4375 200.441406 C 168.605469 196.066406 130.375 154.335938 130.375 104.3125 C 130.375 54.289062 168.605469 12.558594 218.4375 8.183594 C 268.269531 3.808594 313.183594 38.238281 321.898438 87.5 Z M 318.75 96.625 "/>
<path style=" stroke:none;fill-rule:nonzero;fill:rgb(100%,76.862745%,0%);fill-opacity:1;" d="M 225 58.625 L 216.582031 84.535156 L 189.335938 84.535156 L 211.375 100.554688 L 202.960938 126.460938 L 225 110.449219 L 247.039062 126.460938 L 238.625 100.554688 L 260.664062 84.539062 L 233.417969 84.539062 Z M 225 58.625 "/>
</g>
</svg>
