<?xml version="1.0" encoding="UTF-8"?>
<svg xmlns="http://www.w3.org/2000/svg" xmlns:xlink="http://www.w3.org/1999/xlink" width="px" height="px" viewBox="0 0 600 300" version="1.1">
<defs>
<clipPath id="clip1">
  <path d="M 0 0 L 300 0 L 300 150 L 0 150 Z M 0 0 "/>
</clipPath>
<clipPath id="clip2">
  <path d="M 0 0 L 0 75 L 350 75 L 350 150 L 300 150 Z M 300 0 L 150 0 L 150 175 L 0 175 L 0 150 Z M 300 0 "/>
</clipPath>
<clipPath id="clip3">
  <path d="M 0 0 L 350 0 L 350 175 L 0 175 Z M 0 0 "/>
</clipPath>
<clipPath id="clip4">
  <path d="M 0 0 L 0 75 L 350 75 L 350 150 L 300 150 Z M 300 0 L 150 0 L 150 175 L 0 175 L 0 150 Z M 300 0 "/>
</clipPath>
</defs>
<g id="surface1">
<rect x="0" y="0" width="600" height="300" style="fill:rgb(0.392157%,12.941176%,41.176471%);fill-opacity:1;stroke:none;"/>
<path style="fill-rule:nonzero;fill:rgb(0%,0%,0%);fill-opacity:1;stroke-width:60;stroke-linecap:butt;stroke-linejoin:miter;stroke:rgb(100%,100%,100%);stroke-opacity:1;stroke-miterlimit:4;" d="M 0 0 L 600 300 M 600 0 L 0 300 " transform="matrix(0.5,0,0,0.5,0,0)"/>
<g clip-path="url(#clip1)" clip-rule="nonzero">
<g clip-path="url(#clip2)" clip-rule="nonzero">
<path style=" stroke:none;fill-rule:nonzero;fill:rgb(0%,0%,0%);fill-opacity:1;" d="M 0 0 L 300 150 M 300 0 L 0 150 "/>
</g>
</g>
<g clip-path="url(#clip3)" clip-rule="nonzero">
<g clip-path="url(#clip4)" clip-rule="nonzero">
<path style="fill:none;stroke-width:40;stroke-linecap:butt;stroke-linejoin:miter;stroke:rgb(78.431373%,6.27451%,18.039216%);stroke-opacity:1;stroke-miterlimit:4;" d="M 0 0 L 600 300 M 600 0 L 0 300 " transform="matrix(0.5,0,0,0.5,0,0)"/>
</g>
</g>
<path style="fill-rule:nonzero;fill:rgb(0%,0%,0%);fill-opacity:1;stroke-width:100;stroke-linecap:butt;stroke-linejoin:miter;stroke:rgb(100%,100%,100%);stroke-opacity:1;stroke-miterlimit:4;" d="M 300 0 L 300 350 M 0 150 L 700 150 " transform="matrix(0.5,0,0,0.5,0,0)"/>
<path style="fill-rule:nonzero;fill:rgb(0%,0%,0%);fill-opacity:1;stroke-width:60;stroke-linecap:butt;stroke-linejoin:miter;stroke:rgb(78.431373%,6.27451%,18.039216%);stroke-opacity:1;stroke-miterlimit:4;" d="M 300 0 L 300 350 M 0 150 L 700 150 " transform="matrix(0.5,0,0,0.5,0,0)"/>
<path style=" stroke:none;fill-rule:nonzero;fill:rgb(0.392157%,12.941176%,41.176471%);fill-opacity:1;" d="M 0 150 L 300 150 L 300 0 L 600 0 L 600 300 L 0 300 Z M 0 150 "/>
<path style=" stroke:none;fill-rule:nonzero;fill:rgb(100%,100%,100%);fill-opacity:1;" d="M 384.734375 73.761719 L 513.171875 73.761719 L 513.019531 165.15625 C 514.089844 201.898438 491.1875 224.695312 449.054688 234.972656 C 419.136719 227.542969 384.636719 212.175781 384.585938 166.199219 L 384.738281 73.761719 Z M 384.734375 73.761719 "/>
<path style="fill-rule:nonzero;fill:rgb(0%,63.529412%,74.117647%);fill-opacity:1;stroke-width:1.813;stroke-linecap:butt;stroke-linejoin:miter;stroke:rgb(0%,0%,0%);stroke-opacity:1;stroke-miterlimit:4;" d="M 775.148438 153.039062 L 1020.648438 153.039062 L 1020.351562 328.1875 C 1022.398438 398.601562 978.625 442.296875 898.09375 461.992188 C 840.90625 447.757812 774.960938 418.304688 774.859375 330.1875 L 775.15625 153.039062 Z M 775.148438 153.039062 " transform="matrix(0.5,0,0,0.5,0,0)"/>
<path style=" stroke:none;fill-rule:nonzero;fill:rgb(64.705882%,23.921569%,3.137255%);fill-opacity:1;" d="M 509.371094 174.46875 C 504.90625 208.074219 479.023438 222.757812 449.042969 230.550781 C 422.507812 223.429688 393.957031 212.066406 388.421875 174.636719 Z M 509.371094 174.46875 "/>
<path style=" stroke:none;fill-rule:nonzero;fill:rgb(0%,0%,0%);fill-opacity:1;" d="M 444.183594 92.832031 L 444.011719 81.792969 L 452.738281 81.878906 L 452.824219 92.832031 L 476.695312 92.832031 L 476.78125 101.386719 L 452.824219 101.472656 L 452.632812 202.382812 L 444.121094 202.433594 L 444.011719 101.386719 L 420.21875 101.472656 L 420.226562 92.746094 Z M 444.183594 92.832031 "/>
<path style="fill-rule:evenodd;fill:rgb(100%,60.392157%,3.137255%);fill-opacity:1;stroke-width:0.968;stroke-linecap:butt;stroke-linejoin:miter;stroke:rgb(0%,0%,0%);stroke-opacity:1;stroke-miterlimit:4;" d="M 849.710938 357.265625 L 893.414062 402.601562 C 908.53125 385.992188 898.046875 323.90625 878.171875 312.476562 C 875.789062 319.828125 871.734375 328.640625 867.429688 331.484375 C 857.953125 337.9375 834.734375 345.492188 842.5 350.320312 C 844.265625 347.875 848.898438 345.554688 851.078125 351.007812 C 853.664062 359.578125 841.40625 360.125 841.40625 360.125 C 841.40625 360.125 833.648438 359.171875 832.289062 351.273438 C 830.921875 343.382812 843.84375 336.171875 844.945312 335.617188 C 846.039062 335.210938 862.921875 330.71875 865.78125 315.742188 C 869.320312 301.039062 872.992188 303.21875 873.679688 302.945312 C 895.734375 305.117188 910.164062 344.601562 910.984375 372.382812 C 911.796875 400.15625 899.679688 418.53125 897.5 419.757812 C 895.320312 420.984375 844.945312 359.992188 844.945312 359.992188 Z M 849.710938 357.265625 " transform="matrix(0.5,0,0,0.5,0,0)"/>
<path style="fill-rule:nonzero;fill:rgb(100%,60.392157%,3.137255%);fill-opacity:1;stroke-width:0.968;stroke-linecap:butt;stroke-linejoin:miter;stroke:rgb(0%,0%,0%);stroke-opacity:1;stroke-miterlimit:4;" d="M 881.570312 315.0625 L 881.84375 396.882812 M 876.671875 316.554688 L 876.945312 390.898438 M 871.359375 327.3125 L 871.632812 386.398438 M 867.007812 331.53125 L 867.28125 380.414062 M 862.375 333.710938 L 862.375 374.96875 M 857.335938 336.984375 L 857.335938 369.65625 M 852.984375 339.570312 L 852.984375 364.617188 " transform="matrix(0.5,0,0,0.5,0,0)"/>
<path style="fill:none;stroke-width:0.968;stroke-linecap:round;stroke-linejoin:miter;stroke:rgb(100%,87.45098%,0%);stroke-opacity:1;stroke-miterlimit:4;" d="M 849.03125 362.4375 L 894.101562 414.039062 " transform="matrix(0.5,0,0,0.5,0,0)"/>
<path style="fill:none;stroke-width:1.813;stroke-linecap:round;stroke-linejoin:miter;stroke:rgb(100%,87.45098%,0%);stroke-opacity:1;stroke-miterlimit:4;" d="M 896.273438 329.898438 C 896.273438 329.898438 916.703125 374.5625 897.773438 411.320312 M 843.726562 353.046875 C 843.726562 353.046875 845.21875 349.101562 847.125 350.734375 M 840.1875 341.609375 C 840.1875 341.609375 832.015625 348.828125 836.507812 353.453125 " transform="matrix(0.5,0,0,0.5,0,0)"/>
<path style="fill-rule:nonzero;fill:rgb(0%,50.196078%,12.941176%);fill-opacity:1;stroke-width:0.399;stroke-linecap:butt;stroke-linejoin:miter;stroke:rgb(0%,0%,0%);stroke-opacity:1;stroke-miterlimit:4;" d="M 905.78125 228.046875 C 908.804688 225.445312 910.375 223.859375 912.25 224.148438 C 914.117188 224.4375 916.671875 224.296875 918.546875 223.71875 C 920.421875 223.140625 929.71875 221.992188 933.546875 223.289062 C 934.84375 223.429688 936.570312 224.148438 939.234375 226.382812 C 941.90625 228.617188 945.796875 232.515625 944.5 243.328125 C 943.203125 254.140625 943.625 258.765625 943.054688 264.8125 C 942.054688 275.484375 939.6875 284.265625 935.421875 283.554688 C 941.1875 293.648438 941.757812 302.296875 945.507812 309.21875 C 949.257812 316.140625 951.5625 330.273438 950.125 345.554688 C 948.6875 360.835938 944.648438 395.15625 956.757812 418.226562 C 954.734375 419.664062 949.835938 418.226562 945.507812 413.609375 C 941.1875 408.992188 939.289062 409.148438 935.703125 411.882812 C 924.75 420.242188 914.484375 430.320312 899.375 420.242188 C 895.914062 417.9375 894.820312 415.171875 897.351562 408.132812 C 903.695312 390.539062 906.78125 366.40625 905.78125 355.070312 Z M 905.78125 228.046875 " transform="matrix(0.5,0,0,0.5,0,0)"/>
<path style="fill-rule:nonzero;fill:rgb(100%,88.235294%,81.176471%);fill-opacity:1;stroke-width:0.399;stroke-linecap:butt;stroke-linejoin:miter;stroke:rgb(0%,0%,0%);stroke-opacity:1;stroke-miterlimit:4;" d="M 916.171875 217.226562 C 916.960938 219.679688 917.390625 222.851562 916.09375 225.734375 C 914.796875 228.617188 914.515625 232.078125 916.671875 236.265625 C 920.132812 231.359375 925.039062 232.367188 927.921875 229.484375 C 930.804688 226.601562 931.382812 223.859375 933.546875 223.289062 C 931.382812 221.414062 928.0625 219.390625 928.78125 213.914062 C 929.507812 208.4375 937.148438 203.96875 930.226562 195.601562 C 925.757812 190.203125 919.265625 191.710938 916.453125 193.796875 C 915.132812 194.78125 914.007812 196.179688 913.578125 197.117188 C 913.140625 198.054688 913.6875 200.1875 912.632812 201.445312 C 857.007812 200.765625 812.460938 155.125 813.140625 99.492188 C 813.8125 43.867188 859.453125 -0.679688 915.085938 0 C 914.4375 0.46875 914.03125 1.148438 914.726562 1.945312 C 915 2.265625 915.507812 2.335938 916.0625 2.523438 C 915.742188 3.171875 915.375 3.820312 915.015625 4.289062 C 914.671875 4.726562 914.820312 5.148438 915.226562 5.507812 C 914.6875 7.234375 915.734375 7.429688 915.015625 8.726562 C 914.390625 9.84375 913.539062 11.171875 915.882812 12.476562 C 916.523438 12.835938 919.59375 13.546875 921.21875 13.335938 Z M 888.125 245.921875 C 884.085938 246.929688 877.601562 245.203125 872.695312 245.78125 C 870.53125 246.03125 868.804688 244.914062 869.09375 242.75 C 869.382812 240.585938 869.671875 237.273438 869.234375 234.242188 C 868.5625 229.523438 870.820312 223 873.992188 215.789062 C 877.164062 208.578125 878.75 204.539062 878.75 201.15625 C 878.75 198.921875 878.96875 196.398438 880.984375 195.101562 C 882.476562 194.140625 882.765625 193.210938 883.296875 192.429688 C 884.515625 190.625 885.671875 190.195312 885.8125 191.28125 C 885.90625 191.921875 885.671875 192.5 885.09375 193.367188 C 886.390625 192.289062 888.59375 191.023438 889.09375 190.664062 C 889.601562 190.304688 892.164062 188.5 892.304688 190.195312 C 893.3125 189.6875 894 189.726562 894.25 190.265625 C 894.523438 190.851562 894.359375 191.09375 893.851562 191.53125 C 894.578125 191.382812 895.40625 192.648438 893.960938 193.765625 C 894.71875 193.515625 895.476562 194.773438 894.148438 195.929688 C 892.765625 197.117188 891.1875 197.945312 890.679688 198.882812 C 890.179688 199.820312 886.75 202.453125 885.382812 203.03125 C 884.015625 203.601562 883.945312 204.398438 883.945312 206.414062 C 883.945312 228.617188 881.28125 226.8125 881.28125 232.15625 C 881.28125 233.59375 880.984375 234.890625 882.429688 234.460938 C 883.875 234.03125 885.960938 233.382812 888.125 233.382812 Z M 888.984375 293.789062 C 895.507812 290.53125 902.976562 289.320312 906.867188 288.3125 C 910.757812 287.304688 916.960938 284.273438 919.984375 282.6875 C 923.015625 281.101562 925.46875 278.9375 927.195312 278.367188 C 928.929688 277.789062 930.867188 276.59375 931.953125 274.46875 C 937.578125 263.515625 940.609375 254.71875 940.609375 247.078125 C 940.609375 242.03125 939.3125 236.40625 934.40625 240.445312 C 929.796875 244.242188 924.78125 251.554688 923.453125 256.882812 C 921.429688 264.953125 919.703125 266.6875 919.265625 268.273438 C 918.835938 269.859375 917.203125 269.859375 915.226562 270.289062 C 906.71875 272.164062 904.703125 273.460938 898.359375 278.21875 C 892.015625 282.976562 885.09375 287.164062 880.484375 289.757812 C 875.867188 292.351562 875.007812 292.640625 873.992188 294.726562 C 872.984375 296.820312 872.046875 298.40625 871.179688 299.34375 C 870.3125 300.28125 870.070312 301.375 870.242188 302.515625 C 870.390625 303.453125 869.953125 307.78125 869.882812 309.21875 C 869.8125 310.664062 870.171875 311.023438 870.75 311.09375 C 871.328125 311.164062 872.117188 310.875 872.414062 309.148438 C 872.117188 310.875 874.5 310.304688 874.648438 309.007812 C 874.570312 310.875 877.09375 309.796875 877.242188 308.070312 C 877.242188 309.289062 879.148438 308.445312 879.328125 307.851562 C 879.757812 306.40625 880.117188 304.820312 880.695312 303.671875 C 881.539062 301.992188 882.4375 299.828125 884.085938 298.625 C 885.960938 297.25 885.09375 295.742188 888.984375 293.789062 Z M 935.703125 411.882812 C 936.140625 413.46875 936.929688 415.265625 937.21875 416.351562 C 937.507812 417.429688 937 417.765625 936.71875 418.367188 C 935.203125 421.539062 933.578125 426.59375 933.320312 429.328125 C 933.1875 430.914062 932.101562 432.429688 931.59375 433.367188 C 931.039062 434.398438 931.257812 435.195312 932.53125 436.171875 C 933.148438 436.640625 935.125 436.03125 935.34375 435.023438 C 936.0625 435.742188 937.359375 435.453125 937.9375 434.375 C 938.585938 435.023438 939.671875 434.585938 940.390625 433.507812 C 941.039062 433.9375 941.976562 433.078125 942.335938 432.5 C 943.351562 433 944.429688 432.390625 944.460938 430.40625 C 944.46875 430.007812 944.71875 429.328125 945.007812 428.859375 C 945.289062 428.390625 945.398438 427.484375 945.367188 426.695312 C 945.328125 425.898438 945.835938 424.3125 946.523438 423.195312 C 947.203125 422.078125 948.390625 420.101562 947.890625 418.226562 C 947.421875 416.476562 946.664062 416.640625 946.015625 414.117188 C 944.429688 412.453125 942.265625 410.148438 940.03125 410.007812 C 937.796875 409.859375 936.5 411.375 935.703125 411.882812 Z M 894.679688 424.28125 C 896.703125 426.296875 901.242188 426.367188 904.414062 422.984375 C 903.265625 422.476562 900.742188 421.320312 899.585938 420.390625 C 898 421.976562 896.195312 423.773438 894.679688 424.28125 Z M 894.679688 424.28125 " transform="matrix(0.5,0,0,0.5,0,0)"/>
<path style="fill-rule:nonzero;fill:rgb(52.941176%,5.882353%,0%);fill-opacity:1;stroke-width:0.399;stroke-linecap:butt;stroke-linejoin:miter;stroke:rgb(0%,0%,0%);stroke-opacity:1;stroke-miterlimit:4;" d="M 915.085938 195.023438 C 915.882812 189.90625 919.507812 190.03125 921.789062 190.554688 C 922.726562 190.773438 925.039062 190.992188 927.195312 190.414062 C 931.476562 189.273438 934.695312 190.773438 934.265625 194.882812 C 935.421875 195.75 936.640625 197.765625 936.421875 199.492188 C 936.210938 201.226562 936.570312 201.945312 938.15625 202.164062 C 939.742188 202.382812 943.132812 204.328125 940.890625 207.0625 C 943.054688 208.367188 944.71875 211.679688 943.5625 213.914062 C 942.414062 216.148438 938.953125 216.507812 937.507812 214.492188 C 935.921875 215.210938 933.320312 215.359375 931.742188 213.695312 C 930.65625 214.992188 927.921875 214.851562 927.414062 213.695312 C 926.914062 212.546875 926.054688 211.929688 925.039062 211.609375 C 923.882812 211.25 923.8125 208.078125 925.539062 207.710938 C 925.320312 206.773438 925.398438 205.695312 925.828125 205.1875 C 926.257812 204.6875 925.898438 203.75 924.890625 202.953125 C 923.882812 202.164062 923.023438 199.132812 924.023438 197.476562 C 922.296875 198.054688 918.476562 196.398438 917.6875 195.242188 C 916.890625 194.085938 915.8125 194.015625 915.085938 195.023438 Z M 915.085938 195.023438 " transform="matrix(0.5,0,0,0.5,0,0)"/>
<path style="fill:none;stroke-width:0.399;stroke-linecap:butt;stroke-linejoin:miter;stroke:rgb(0%,0%,0%);stroke-opacity:1;stroke-miterlimit:4;" d="M 916.171875 217.226562 C 918.984375 216.867188 919.921875 215.140625 922.007812 215.28125 M 910.1875 209.398438 C 910.367188 209.5625 910.601562 209.695312 910.867188 209.84375 C 911.4375 210.148438 912.054688 210.1875 912.632812 210.257812 M 911.015625 206.421875 C 911.414062 206.554688 911.828125 206.75 912.203125 207.140625 M 917.539062 195.023438 C 915.882812 193.4375 920.351562 190.195312 925.039062 194.8125 C 925.914062 195.671875 928.132812 195.671875 928.78125 195.460938 M 924.023438 197.476562 C 926.1875 196.96875 929.429688 196.96875 930.367188 199.421875 C 931.3125 201.875 933.1875 200.289062 934.695312 203.171875 C 936.210938 206.054688 938.59375 209.296875 940.890625 207.0625 M 931.742188 213.695312 C 931.085938 212.835938 930.804688 210.960938 931.234375 209.65625 C 930.367188 208.648438 930.726562 206.5625 931.234375 205.554688 M 925.539062 207.710938 C 925.617188 208.578125 926.765625 210.164062 928.570312 210.453125 M 937.507812 214.492188 C 936.5 213.195312 936.640625 212.039062 936.859375 210.453125 " transform="matrix(0.5,0,0,0.5,0,0)"/>
<path style="fill:none;stroke-width:0.399;stroke-linecap:butt;stroke-linejoin:miter;stroke:rgb(0%,0%,0%);stroke-opacity:1;stroke-miterlimit:4;" d="M 926.984375 200.148438 C 926.914062 201.445312 927.703125 203.171875 929.070312 203.75 C 929.359375 204.46875 930.804688 206.492188 933.6875 206.203125 M 934.265625 194.882812 C 932.6875 193.65625 930.539062 192.140625 927.703125 191.765625 M 916.671875 236.265625 C 914.21875 239.578125 912.632812 244.195312 913.789062 250.679688 C 914.945312 257.171875 916.820312 266.6875 912.054688 271.007812 M 935.421875 283.554688 C 932.101562 282.835938 927.34375 282.835938 924.75 284.710938 C 922.148438 286.585938 917.820312 286.726562 914.945312 285.28125 " transform="matrix(0.5,0,0,0.5,0,0)"/>
<path style="fill:none;stroke-width:0.399;stroke-linecap:butt;stroke-linejoin:miter;stroke:rgb(0%,0%,0%);stroke-opacity:1;stroke-miterlimit:4;" d="M 928.421875 283.335938 C 925.539062 283.84375 924.171875 285.859375 924.171875 291.195312 C 924.171875 296.53125 923.023438 304.320312 924.023438 311.960938 M 923.15625 285.570312 C 921.289062 286.078125 919.34375 286.148438 919.703125 291.195312 M 913.429688 291.34375 C 913.5 288.242188 914.585938 285.359375 916.601562 285.859375 M 934.1875 291.921875 C 934.335938 285.070312 932.820312 283.125 930.804688 283.195312 C 933.546875 283.265625 935.414062 283.601562 936.570312 294.804688 C 937.4375 303.164062 939.1875 306.125 941.1875 312.679688 C 946.375 329.695312 943.78125 355.9375 946.375 365.164062 M 930.226562 293.9375 C 935.703125 309.796875 938.585938 327.390625 929.648438 355.648438 C 935.703125 372.375 941.757812 384.484375 942.914062 391.40625 M 912.921875 331.421875 C 913.929688 327.820312 910.328125 327.390625 913.5 314.695312 C 914.875 309.203125 915.085938 305.90625 914.21875 304.171875 M 914.21875 311.671875 C 912.921875 317.296875 918.40625 327.820312 915.664062 335.460938 M 908.882812 336.90625 C 908.882812 341.804688 910.039062 348.148438 909.75 353.054688 C 909.460938 357.953125 911.460938 360.226562 913.789062 364.875 C 922.148438 381.601562 927.84375 393.53125 927.054688 409.289062 C 926.914062 412.171875 927.921875 418.226562 924.890625 419.953125 M 909.101562 424.210938 C 909.96875 424.28125 910.90625 423.851562 911.984375 421.25 C 913.070312 418.65625 916.53125 403.085938 915.085938 392.414062 M 916.820312 404.523438 C 917.25 407.84375 917.25 414.617188 915.085938 419.953125 M 922.296875 394.578125 C 923.59375 401.640625 923.453125 407.984375 922.445312 412.453125 M 919.414062 412.453125 C 919.554688 415.34375 920.851562 422.546875 918.6875 423.125 M 930.226562 379.007812 C 935.554688 387.367188 939.742188 407.984375 944.210938 412.3125 M 934.84375 408.992188 C 934.695312 406.6875 934.554688 403.515625 933.25 402.078125 M 877.242188 308.070312 C 877.3125 306.476562 877.023438 304.96875 878.75 302.515625 M 874.648438 309.007812 C 874.859375 303.453125 874.78125 302.945312 876.375 301.4375 M 872.414062 309.148438 C 872.484375 305.179688 871.976562 303.8125 873.5625 301.289062 M 892.304688 190.195312 C 891.6875 190.59375 888.085938 193.328125 886.578125 194.484375 M 893.851562 191.53125 C 893.171875 191.640625 891.1875 193.257812 887.65625 196 M 893.960938 193.765625 C 892.851562 194.265625 890.71875 196.320312 888.773438 197.695312 M 885.09375 193.367188 C 884.554688 193.765625 883.515625 194.921875 883.007812 195.3125 M 935.34375 435.023438 C 935.023438 434.664062 935.023438 433.398438 935.59375 431.992188 M 937.9375 434.375 C 937.546875 433.976562 937.9375 432.242188 938.335938 431.132812 M 940.390625 433.507812 C 939.921875 433.289062 939.78125 432.28125 940.460938 430.914062 M 942.335938 432.5 C 942.015625 432.390625 941.867188 431.851562 942.445312 430.265625 " transform="matrix(0.5,0,0,0.5,0,0)"/>
<path style=" stroke:none;fill-rule:nonzero;fill:rgb(0%,0%,0%);fill-opacity:1;" d="M 456.984375 99.785156 C 457.507812 100.46875 458.046875 100.394531 458.144531 100.835938 C 458.238281 101.28125 458.308594 101.308594 458.410156 101.441406 C 458.511719 101.570312 458.160156 101.546875 457.992188 101.476562 C 457.824219 101.40625 457.398438 101.414062 457.140625 101.414062 C 456.882812 101.421875 456.578125 101.117188 456.769531 101.082031 C 456.960938 101.046875 456.933594 100.984375 456.90625 100.851562 C 456.878906 100.71875 457.011719 100.503906 457.09375 100.464844 C 457.175781 100.425781 457.117188 100.433594 457.042969 100.253906 C 456.96875 100.074219 456.875 99.636719 456.984375 99.785156 Z M 457.300781 99.15625 C 457.886719 99.226562 458.894531 99.542969 459.445312 100.148438 C 459.875 100.625 459.523438 100.496094 459.304688 100.515625 C 459.085938 100.535156 458.660156 100.378906 458.445312 100.109375 C 458.230469 99.835938 457.59375 99.496094 457.257812 99.40625 C 457.050781 99.351562 456.859375 99.105469 457.300781 99.15625 Z M 457.300781 99.15625 "/>
</g>
</svg>
