<?xml version="1.0" encoding="UTF-8"?>
<svg xmlns="http://www.w3.org/2000/svg" xmlns:xlink="http://www.w3.org/1999/xlink" width="px" height="px" viewBox="0 0 450 300" version="1.1">
<g id="surface1">
<rect x="0" y="0" width="450" height="300" style="fill:rgb(81.176471%,7.843137%,16.862745%);fill-opacity:1;stroke:none;"/>
<path style=" stroke:none;fill-rule:nonzero;fill:rgb(100%,100%,100%);fill-opacity:1;" d="M 0 0 L 225 0 L 225 300 L 0 300 Z M 0 0 "/>
<path style=" stroke:none;fill-rule:nonzero;fill:rgb(90.196078%,5.098039%,18.039216%);fill-opacity:1;" d="M 11.109375 41.414062 L 11.109375 64.140625 L 33.839844 64.140625 C 33.839844 67.929688 37.625 71.71875 41.414062 71.71875 L 41.414062 94.445312 L 64.140625 94.445312 L 64.140625 71.71875 C 67.929688 71.71875 71.714844 67.929688 71.714844 64.140625 L 94.445312 64.140625 L 94.445312 41.414062 L 71.714844 41.414062 C 71.714844 37.628906 67.929688 33.839844 64.140625 33.839844 L 64.140625 11.113281 L 41.414062 11.113281 L 41.414062 33.839844 C 37.625 33.839844 33.839844 37.628906 33.839844 41.414062 Z M 11.109375 41.414062 "/>
<path style=" stroke:none;fill-rule:nonzero;fill:rgb(58.823529%,52.941176%,49.019608%);fill-opacity:1;" d="M 12.628906 42.929688 L 12.628906 62.628906 L 35.351562 62.628906 C 35.351562 66.414062 39.140625 70.203125 42.929688 70.203125 L 42.929688 92.929688 L 62.625 92.929688 L 62.625 70.203125 C 66.414062 70.203125 70.199219 66.414062 70.199219 62.628906 L 92.925781 62.628906 L 92.925781 42.929688 L 70.199219 42.929688 C 70.199219 39.140625 66.414062 35.351562 62.625 35.351562 L 62.625 12.625 L 42.929688 12.625 L 42.929688 35.351562 C 39.140625 35.351562 35.351562 39.140625 35.351562 42.929688 Z M 12.628906 42.929688 "/>
<path style=" stroke:none;fill-rule:nonzero;fill:rgb(80%,80%,80%);fill-opacity:1;" d="M 13.386719 43.6875 L 13.386719 61.867188 L 36.109375 61.867188 C 36.109375 65.65625 39.898438 69.445312 43.6875 69.445312 L 43.6875 92.171875 L 61.867188 92.171875 L 61.867188 69.445312 C 65.65625 69.445312 69.445312 65.65625 69.445312 61.867188 L 92.171875 61.867188 L 92.171875 43.6875 L 69.445312 43.6875 C 69.445312 39.898438 65.65625 36.113281 61.867188 36.113281 L 61.867188 13.382812 L 43.6875 13.382812 L 43.6875 36.113281 C 39.898438 36.113281 36.109375 39.898438 36.109375 43.6875 Z M 13.386719 43.6875 "/>
<path style=" stroke:none;fill-rule:nonzero;fill:rgb(58.823529%,52.941176%,49.019608%);fill-opacity:1;" d="M 42.269531 35.839844 C 43.597656 37.171875 43.238281 39.691406 41.464844 41.464844 C 39.691406 43.242188 37.171875 43.601562 35.839844 42.269531 C 34.507812 40.9375 34.867188 38.417969 36.644531 36.644531 C 38.417969 34.867188 40.9375 34.507812 42.269531 35.839844 Z M 42.269531 35.839844 "/>
<path style=" stroke:none;fill-rule:nonzero;fill:rgb(81.568627%,81.568627%,81.568627%);fill-opacity:1;" d="M 35.570312 39.859375 L 36.105469 39.320312 L 38.25 40.390625 L 37.179688 38.25 L 37.714844 37.714844 L 39.855469 42 L 35.570312 39.855469 Z M 38.785156 36.644531 L 39.320312 36.109375 L 42.535156 39.320312 L 42 39.859375 Z M 38.785156 36.644531 "/>
<path style=" stroke:none;fill-rule:nonzero;fill:rgb(58.823529%,52.941176%,49.019608%);fill-opacity:1;" d="M 69.714844 42.269531 C 68.382812 43.601562 65.867188 43.242188 64.089844 41.464844 C 62.316406 39.691406 61.957031 37.171875 63.285156 35.839844 C 64.617188 34.507812 67.136719 34.871094 68.910156 36.644531 C 70.6875 38.417969 71.046875 40.9375 69.714844 42.269531 Z M 69.714844 42.269531 "/>
<path style=" stroke:none;fill-rule:nonzero;fill:rgb(81.568627%,81.568627%,81.568627%);fill-opacity:1;" d="M 65.699219 35.574219 L 66.234375 36.109375 L 65.164062 38.25 L 67.304688 37.179688 L 67.84375 37.714844 L 63.558594 39.859375 Z M 68.914062 38.785156 L 69.449219 39.324219 L 66.234375 42.535156 L 65.699219 42 Z M 68.914062 38.785156 "/>
<path style=" stroke:none;fill-rule:nonzero;fill:rgb(58.823529%,52.941176%,49.019608%);fill-opacity:1;" d="M 63.285156 69.714844 C 61.957031 68.386719 62.316406 65.867188 64.089844 64.089844 C 65.867188 62.316406 68.382812 61.957031 69.714844 63.289062 C 71.046875 64.617188 70.6875 67.136719 68.910156 68.914062 C 67.136719 70.6875 64.617188 71.046875 63.285156 69.714844 Z M 63.285156 69.714844 "/>
<path style=" stroke:none;fill-rule:nonzero;fill:rgb(81.568627%,81.568627%,81.568627%);fill-opacity:1;" d="M 69.984375 65.699219 L 69.449219 66.234375 L 67.304688 65.164062 L 68.375 67.308594 L 67.839844 67.84375 L 65.699219 63.558594 Z M 66.769531 68.914062 L 66.234375 69.449219 L 63.019531 66.234375 L 63.554688 65.699219 Z M 66.769531 68.914062 "/>
<path style=" stroke:none;fill-rule:nonzero;fill:rgb(58.823529%,52.941176%,49.019608%);fill-opacity:1;" d="M 35.839844 63.289062 C 37.171875 61.957031 39.691406 62.316406 41.464844 64.089844 C 43.238281 65.867188 43.597656 68.386719 42.269531 69.714844 C 40.9375 71.046875 38.417969 70.6875 36.644531 68.914062 C 34.867188 67.136719 34.507812 64.617188 35.839844 63.289062 Z M 35.839844 63.289062 "/>
<path style=" stroke:none;fill-rule:nonzero;fill:rgb(81.568627%,81.568627%,81.568627%);fill-opacity:1;" d="M 39.855469 69.984375 L 39.320312 69.449219 L 40.390625 67.304688 L 38.25 68.378906 L 37.714844 67.84375 L 41.996094 65.699219 Z M 36.640625 66.769531 L 36.105469 66.234375 L 39.320312 63.019531 L 39.855469 63.554688 Z M 36.640625 66.769531 "/>
<path style="fill:none;stroke-width:0.514;stroke-linecap:butt;stroke-linejoin:miter;stroke:rgb(58.823529%,52.941176%,49.019608%);stroke-opacity:1;stroke-miterlimit:4;" d="M 137.375 105.554688 C 137.375 123.132812 123.132812 137.382812 105.554688 137.382812 C 87.976562 137.382812 73.734375 123.132812 73.734375 105.554688 C 73.734375 87.984375 87.976562 73.734375 105.554688 73.734375 C 123.132812 73.734375 137.375 87.984375 137.375 105.554688 Z M 137.375 105.554688 " transform="matrix(0.5,0,0,0.5,0,0)"/>
<path style="fill:none;stroke-width:0.514;stroke-linecap:butt;stroke-linejoin:miter;stroke:rgb(58.823529%,52.941176%,49.019608%);stroke-opacity:1;stroke-miterlimit:4;" d="M 129.796875 105.554688 C 129.796875 118.945312 118.945312 129.804688 105.554688 129.804688 C 92.164062 129.804688 81.3125 118.945312 81.3125 105.554688 C 81.3125 92.164062 92.164062 81.3125 105.554688 81.3125 C 118.945312 81.3125 129.796875 92.164062 129.796875 105.554688 Z M 129.796875 105.554688 " transform="matrix(0.5,0,0,0.5,0,0)"/>
<path style=" stroke:none;fill-rule:nonzero;fill:rgb(0%,0%,0%);fill-opacity:1;" d="M 47.472656 65.65625 C 47.472656 66.074219 47.136719 66.414062 46.71875 66.414062 C 46.296875 66.414062 45.960938 66.074219 45.960938 65.65625 C 45.960938 65.238281 46.296875 64.898438 46.71875 64.898438 C 47.136719 64.898438 47.472656 65.238281 47.472656 65.65625 Z M 47.472656 65.65625 "/>
<path style=" stroke:none;fill-rule:nonzero;fill:rgb(0%,0%,0%);fill-opacity:1;" d="M 59.59375 65.65625 C 59.59375 66.074219 59.253906 66.414062 58.835938 66.414062 C 58.417969 66.414062 58.078125 66.074219 58.078125 65.65625 C 58.078125 65.238281 58.417969 64.898438 58.835938 64.898438 C 59.253906 64.898438 59.59375 65.238281 59.59375 65.65625 Z M 59.59375 65.65625 "/>
<path style=" stroke:none;fill-rule:nonzero;fill:rgb(0%,0%,0%);fill-opacity:1;" d="M 52.273438 65.65625 L 52.273438 66.445312 L 51.265625 66.445312 C 50.253906 66.445312 50.253906 67.234375 51.265625 67.234375 L 52.273438 67.234375 L 52.273438 68.023438 C 52.277344 68.84375 53.15625 68.941406 53.222656 68.09375 L 53.285156 67.238281 L 54.296875 67.238281 C 55.304688 67.238281 55.304688 66.449219 54.296875 66.449219 L 53.285156 66.449219 L 53.285156 65.660156 C 53.285156 64.871094 52.273438 64.871094 52.273438 65.660156 Z M 37.976562 56.699219 L 39.019531 56.453125 L 38.902344 55.96875 C 38.878906 55.859375 38.835938 55.78125 38.773438 55.742188 C 38.710938 55.703125 38.605469 55.691406 38.457031 55.710938 L 38.441406 55.636719 L 39.335938 55.421875 L 39.355469 55.496094 C 39.253906 55.523438 39.179688 55.554688 39.136719 55.589844 C 23.785156 55.554688 11.371094 43.082031 11.40625 27.730469 C 11.445312 12.378906 23.917969 -0.0351562 39.269531 0 C 39.253906 0.0507812 39.257812 0.121094 39.28125 0.210938 L 39.394531 0.691406 L 40.226562 0.492188 C 40.363281 0.460938 40.449219 0.433594 40.488281 0.40625 C 40.59375 0.300781 40.761719 0.300781 40.867188 0.40625 C 40.972656 0.507812 40.972656 0.679688 40.867188 0.785156 L 40.84375 0.691406 L 40.917969 0.671875 L 41.1875 1.808594 L 41.117188 1.828125 L 41.09375 1.734375 C 41.070312 1.625 41.015625 1.550781 40.941406 1.519531 C 40.890625 1.496094 40.789062 1.503906 40.628906 1.542969 L 38.917969 1.949219 C 38.78125 1.984375 38.695312 2.011719 38.65625 2.039062 C 38.761719 2.011719 38.867188 2.074219 38.894531 2.175781 C 38.921875 2.28125 38.859375 2.386719 38.757812 2.414062 L 38.78125 2.507812 L 38.707031 2.523438 L 38.238281 0.550781 L 38.8125 0.386719 L 38.828125 0.457031 C 38.714844 0.519531 38.632812 0.582031 38.585938 0.640625 C 39.074219 0.585938 39.515625 0.9375 39.570312 1.429688 C 39.625 1.917969 39.273438 2.359375 38.78125 2.414062 C 38.773438 2.484375 38.78125 2.589844 38.816406 2.726562 L 38.957031 3.3125 Z M 37.304688 52 C 37.324219 51.644531 37.476562 51.347656 37.761719 51.105469 C 38.042969 50.859375 38.386719 50.75 38.785156 50.773438 C 39.199219 50.796875 39.535156 50.945312 39.792969 51.222656 C 40.050781 51.496094 40.171875 51.820312 40.148438 52.191406 C 40.128906 52.566406 39.976562 52.871094 39.695312 53.113281 C 39.414062 53.351562 39.066406 53.460938 38.640625 53.4375 C 38.210938 53.414062 37.867188 53.246094 37.609375 52.9375 C 23.65625 53.195312 12.136719 42.09375 11.878906 28.144531 C 11.621094 14.191406 22.722656 2.671875 36.671875 2.414062 Z M 37.449219 52.046875 C 37.4375 52.289062 37.515625 52.488281 37.6875 52.648438 C 37.902344 52.84375 38.226562 52.953125 38.660156 52.976562 C 39.101562 53 39.449219 52.925781 39.699219 52.75 C 39.75 52.386719 40.066406 52.121094 40.429688 52.136719 C 40.796875 52.152344 41.089844 52.445312 41.105469 52.8125 C 41.121094 53.175781 40.855469 53.492188 40.492188 53.539062 C 40.300781 53.363281 39.992188 53.261719 39.5625 53.238281 C 39.097656 53.210938 38.746094 53.285156 38.507812 53.453125 C 38.316406 53.589844 38.214844 53.789062 38.199219 54.046875 Z M 41.398438 47.070312 L 41.136719 47.75 L 39.621094 48.160156 C 39.945312 45.960938 41.859375 44.347656 44.082031 44.402344 C 46.304688 44.453125 48.136719 46.15625 48.355469 48.371094 C 48.574219 50.582031 47.109375 52.609375 44.9375 53.097656 C 42.769531 53.585938 40.578125 52.378906 39.828125 50.285156 L 40.570312 50.566406 C 40.730469 50.625 40.835938 50.648438 40.886719 50.625 C 40.960938 50.601562 41.015625 50.539062 41.050781 50.445312 L 41.089844 50.34375 L 41.160156 50.371094 L 40.742188 51.460938 L 40.675781 51.433594 L 40.710938 51.339844 C 40.75 51.230469 40.746094 51.140625 40.695312 51.070312 C 40.664062 51.027344 40.578125 50.980469 40.433594 50.925781 L 38.789062 50.296875 C 38.628906 50.238281 38.519531 50.214844 38.46875 50.238281 C 38.394531 50.265625 38.339844 50.328125 38.304688 50.421875 L 38.265625 50.519531 L 38.195312 50.492188 L 38.550781 49.566406 C 38.652344 49.296875 38.75 49.101562 38.835938 48.988281 C 38.925781 48.875 39.039062 48.792969 39.179688 48.746094 C 39.320312 48.695312 39.460938 48.699219 39.609375 48.753906 C 39.765625 48.816406 39.882812 48.917969 39.957031 49.0625 C 40.035156 49.210938 40.054688 49.398438 40.023438 49.628906 L 40.953125 49.382812 C 41.164062 49.328125 41.316406 49.265625 41.40625 49.199219 C 41.492188 49.136719 41.570312 49.035156 41.636719 48.902344 L 41.707031 48.929688 Z M 39.398438 48.378906 C 39.925781 45.757812 42.480469 44.054688 45.101562 44.582031 C 47.726562 45.105469 49.429688 47.660156 48.902344 50.285156 C 48.996094 50.039062 49.011719 49.839844 48.953125 49.675781 C 49.003906 49.933594 48.863281 50.191406 48.617188 50.285156 C 48.457031 50.222656 48.308594 50.222656 48.171875 50.285156 C 48.035156 50.347656 47.933594 50.460938 47.871094 50.625 C 47.84375 50.695312 47.816406 50.800781 47.792969 50.933594 L 48.855469 51.335938 Z M 45.199219 39.351562 L 45.722656 40.035156 L 45.664062 40.074219 C 45.488281 39.933594 45.324219 39.847656 45.171875 39.820312 C 44.949219 39.773438 44.734375 39.824219 44.519531 39.960938 C 44.226562 40.148438 44.082031 40.40625 44.078125 40.738281 C 44.078125 41.015625 44.164062 41.285156 44.339844 41.554688 C 44.480469 41.773438 44.648438 41.945312 44.851562 42.070312 C 45.050781 42.195312 45.246094 42.253906 45.4375 42.25 C 45.628906 42.246094 45.796875 42.199219 45.941406 42.105469 C 48.199219 43.164062 49.171875 45.855469 48.113281 48.113281 C 47.054688 50.371094 44.363281 51.34375 42.105469 50.285156 L 41.675781 49.621094 C 41.601562 49.507812 41.546875 49.4375 41.503906 49.414062 C 41.746094 49.421875 41.933594 49.625 41.925781 49.863281 C 41.917969 50.105469 41.714844 50.292969 41.476562 50.285156 C 41.425781 50.289062 41.355469 50.320312 41.265625 50.382812 L 41.222656 50.316406 L 42.109375 49.742188 L 42.148438 49.808594 L 42.109375 49.835938 C 42.019531 49.890625 41.980469 49.960938 41.984375 50.039062 C 41.988281 50.097656 42.03125 50.183594 42.109375 50.308594 L 42.5625 51.007812 C 41.882812 51.800781 40.707031 51.949219 39.847656 51.351562 C 38.988281 50.753906 38.722656 49.605469 39.230469 48.6875 C 39.738281 47.773438 40.855469 47.390625 41.816406 47.800781 C 42.78125 48.210938 43.277344 49.285156 42.964844 50.285156 C 42.859375 50.398438 42.730469 50.503906 42.574219 50.605469 C 42.132812 50.890625 41.707031 50.96875 41.292969 50.832031 C 41.785156 50.507812 42.429688 50.539062 42.886719 50.910156 C 43.34375 51.28125 43.511719 51.902344 43.296875 52.453125 C 43.085938 53 42.542969 53.347656 41.957031 53.3125 C 41.367188 53.277344 40.871094 52.867188 40.726562 52.296875 L 42.199219 53.773438 C 42.304688 53.566406 42.472656 53.390625 42.699219 53.242188 C 42.78125 53.1875 42.863281 53.144531 42.941406 53.113281 C 43.015625 53.082031 43.132812 53.050781 43.285156 53.015625 C 43.097656 52.785156 43.125 52.445312 43.34375 52.246094 C 43.566406 52.046875 43.90625 52.054688 44.117188 52.265625 C 44.328125 52.476562 44.335938 52.816406 44.136719 53.039062 C 43.9375 53.257812 43.597656 53.285156 43.367188 53.097656 C 43.367188 53.066406 43.351562 53.023438 43.320312 52.964844 L 43.382812 52.921875 Z M 49.632812 39.660156 L 48.613281 39.933594 L 48.546875 40.394531 C 48.53125 40.507812 48.527344 40.589844 48.542969 40.640625 C 48.550781 40.679688 48.582031 40.710938 48.628906 40.730469 C 48.671875 40.753906 48.761719 40.75 48.890625 40.726562 L 48.910156 40.796875 L 48.082031 41.015625 L 48.0625 40.945312 C 48.167969 40.898438 48.230469 40.851562 48.253906 40.8125 C 48.304688 40.734375 48.34375 40.589844 48.375 40.375 L 48.722656 37.964844 L 48.792969 37.945312 L 50.289062 39.890625 C 50.410156 40.046875 50.507812 40.144531 50.582031 40.179688 C 50.65625 40.21875 50.75 40.222656 50.859375 40.203125 L 50.878906 40.273438 L 49.839844 40.550781 L 49.820312 40.476562 C 49.921875 40.445312 49.988281 40.410156 50.015625 40.371094 C 53.53125 43.035156 54.222656 48.042969 51.558594 51.558594 C 48.894531 55.070312 43.882812 55.761719 40.371094 53.097656 C 40.355469 53.039062 40.304688 52.957031 40.21875 52.847656 L 39.960938 52.511719 Z M 49.542969 39.53125 L 48.8125 38.585938 L 48.636719 39.773438 Z M 54.351562 39.515625 L 54.417969 39.535156 L 54.15625 40.265625 L 52.046875 40.179688 L 52.050781 40.109375 L 52.152344 40.113281 C 52.269531 40.117188 52.351562 40.082031 52.40625 40.007812 C 52.433594 39.96875 52.453125 39.867188 52.460938 39.714844 L 52.527344 37.957031 C 52.535156 37.785156 52.519531 37.679688 52.484375 37.636719 C 52.433594 37.574219 52.355469 37.542969 52.253906 37.539062 L 52.152344 37.535156 L 52.15625 37.460938 L 53.386719 37.507812 L 53.382812 37.582031 C 53.238281 37.574219 53.136719 37.585938 53.078125 37.609375 C 57.355469 37.582031 60.84375 41.023438 60.871094 45.300781 C 60.902344 49.578125 57.457031 53.066406 53.179688 53.097656 C 53.15625 53.136719 53.140625 53.242188 53.136719 53.402344 L 53.070312 55.113281 C 53.066406 55.222656 53.074219 55.300781 53.09375 55.34375 C 53.109375 55.371094 53.132812 55.394531 53.164062 55.40625 C 53.199219 55.421875 53.300781 55.433594 53.476562 55.441406 L 53.675781 55.449219 C 53.886719 55.457031 54.03125 55.445312 54.117188 55.417969 C 54.203125 55.390625 54.28125 55.339844 54.355469 55.265625 C 54.425781 55.1875 54.503906 55.066406 54.578125 54.902344 Z M 57.980469 40.488281 L 58.039062 40.523438 L 57.585938 41.152344 L 55.582031 40.488281 L 55.605469 40.417969 L 55.703125 40.449219 C 55.8125 40.488281 55.902344 40.476562 55.972656 40.421875 C 56.011719 40.390625 56.058594 40.300781 56.105469 40.152344 L 56.660156 38.484375 C 56.710938 38.320312 56.726562 38.214844 56.707031 38.160156 C 56.675781 38.089844 56.609375 38.035156 56.511719 38.003906 L 56.414062 37.972656 L 56.4375 37.902344 L 57.609375 38.289062 L 57.585938 38.359375 C 57.449219 38.3125 57.347656 38.292969 57.285156 38.300781 C 61.371094 38.285156 64.695312 41.582031 64.714844 45.667969 C 64.730469 49.753906 61.433594 53.078125 57.347656 53.097656 C 57.316406 53.128906 57.273438 53.222656 57.222656 53.378906 L 56.683594 55.003906 C 56.648438 55.109375 56.636719 55.183594 56.640625 55.230469 C 56.054688 55.621094 55.257812 55.460938 54.871094 54.871094 C 54.480469 54.28125 54.640625 53.484375 55.230469 53.097656 C 55.257812 53.121094 55.355469 53.160156 55.523438 53.214844 L 55.710938 53.277344 C 55.910156 53.339844 56.054688 53.375 56.144531 53.371094 C 56.234375 53.367188 56.324219 53.339844 56.414062 53.289062 C 56.503906 53.234375 56.609375 53.140625 56.730469 53 Z M 60.90625 42.035156 L 60.042969 41.425781 L 59.644531 41.671875 C 59.546875 41.730469 59.484375 41.78125 59.453125 41.824219 C 59.429688 41.859375 59.421875 41.902344 59.4375 41.949219 C 59.453125 41.996094 59.507812 42.0625 59.609375 42.148438 L 59.566406 42.207031 L 58.867188 41.710938 L 58.910156 41.652344 C 59.015625 41.703125 59.089844 41.722656 59.136719 41.714844 C 59.230469 41.703125 59.367188 41.640625 59.546875 41.527344 L 61.625 40.25 L 61.683594 40.289062 L 61.148438 42.6875 C 61.105469 42.882812 61.09375 43.019531 61.113281 43.097656 C 61.132812 43.179688 61.183594 43.253906 61.273438 43.324219 L 61.230469 43.382812 L 60.351562 42.761719 L 60.394531 42.703125 C 60.488281 42.761719 60.558594 42.789062 60.605469 42.785156 C 63.453125 47.707031 61.773438 54.003906 56.851562 56.851562 C 51.929688 59.699219 45.632812 58.019531 42.785156 53.097656 C 42.820312 53.046875 42.851562 52.957031 42.878906 52.820312 L 42.972656 52.40625 Z M 60.945312 41.882812 L 61.203125 40.71875 L 60.179688 41.34375 Z M 64.175781 42.476562 L 64.617188 43.074219 L 63.96875 45.628906 L 65.230469 44.691406 C 65.363281 44.59375 65.4375 44.515625 65.449219 44.460938 C 65.464844 44.386719 65.441406 44.308594 65.375 44.222656 L 65.320312 44.144531 L 65.378906 44.101562 L 65.945312 44.863281 L 65.882812 44.90625 L 65.828125 44.828125 C 65.757812 44.738281 65.683594 44.691406 65.597656 44.695312 C 65.546875 44.695312 65.457031 44.742188 65.335938 44.835938 L 63.488281 46.203125 L 63.445312 46.144531 L 64.140625 43.394531 L 62.792969 44.394531 C 62.65625 44.492188 62.585938 44.570312 62.570312 44.621094 C 62.558594 44.699219 62.582031 44.777344 62.644531 44.863281 L 62.703125 44.941406 L 62.640625 44.984375 L 62.078125 44.222656 L 62.136719 44.179688 L 62.195312 44.253906 C 62.261719 44.347656 62.339844 44.394531 62.425781 44.390625 C 62.476562 44.386719 62.5625 44.34375 62.6875 44.25 L 64.210938 43.121094 C 64.234375 43.003906 64.25 42.917969 64.25 42.867188 C 64.246094 42.820312 64.234375 42.753906 64.207031 42.675781 C 67.085938 42.71875 69.382812 45.085938 69.34375 47.960938 C 69.300781 50.839844 66.933594 53.136719 64.054688 53.097656 L 64.117188 53.050781 Z M 67.613281 48.808594 L 67.019531 49.050781 L 66.996094 48.980469 C 67.09375 48.925781 67.164062 48.882812 67.203125 48.84375 C 67.359375 48.683594 67.617188 48.683594 67.777344 48.84375 C 67.9375 49 67.9375 49.257812 67.777344 49.417969 L 67.648438 49.054688 L 65.6875 49.75 C 65.53125 49.804688 65.4375 49.859375 65.410156 49.90625 C 65.375 49.972656 65.375 50.054688 65.410156 50.15625 L 65.441406 50.246094 L 65.371094 50.269531 L 64.984375 49.179688 L 65.054688 49.15625 L 65.085938 49.246094 C 65.125 49.355469 65.183594 49.421875 65.265625 49.441406 C 65.316406 49.457031 65.414062 49.4375 65.558594 49.386719 L 67.519531 48.691406 L 67.410156 48.382812 C 67.371094 48.261719 67.332031 48.179688 67.296875 48.136719 C 67.648438 48.171875 67.910156 48.484375 67.875 48.835938 C 67.84375 49.191406 67.527344 49.449219 67.175781 49.417969 C 67.089844 49.394531 66.988281 49.402344 66.867188 49.433594 L 66.84375 49.359375 L 67.457031 49.179688 L 68.199219 51.273438 Z M 65.457031 53.640625 L 65.417969 52.914062 L 66.640625 51.929688 C 66.203125 54.089844 64.246094 55.601562 62.046875 55.480469 C 59.84375 55.355469 58.066406 53.636719 57.875 51.441406 C 57.679688 49.246094 59.125 47.238281 61.269531 46.730469 C 63.417969 46.222656 65.609375 47.367188 66.417969 49.417969 L 66.417969 49.355469 L 65.628906 49.398438 C 65.457031 49.40625 65.351562 49.429688 65.3125 49.46875 C 65.257812 49.523438 65.230469 49.601562 65.238281 49.703125 L 65.242188 49.808594 L 65.167969 49.8125 L 65.105469 48.648438 L 65.179688 48.644531 L 65.1875 48.746094 C 65.191406 48.859375 65.234375 48.941406 65.3125 48.988281 C 65.355469 49.011719 65.453125 49.023438 65.609375 49.011719 L 67.367188 48.921875 C 67.539062 48.914062 67.644531 48.886719 67.683594 48.847656 C 67.738281 48.792969 67.765625 48.714844 67.757812 48.613281 L 67.753906 48.507812 L 67.828125 48.503906 L 67.878906 49.496094 C 67.894531 49.785156 67.886719 50 67.851562 50.140625 C 67.816406 50.277344 67.742188 50.398438 67.636719 50.5 C 67.527344 50.601562 67.394531 50.65625 67.238281 50.664062 C 66.996094 50.734375 66.734375 50.652344 66.574219 50.457031 C 66.414062 50.265625 66.382812 49.992188 66.496094 49.769531 C 66.609375 49.542969 66.84375 49.40625 67.097656 49.417969 C 66.96875 49.316406 66.871094 49.152344 66.808594 48.925781 L 66.058594 49.527344 C 65.886719 49.664062 65.773438 49.78125 65.71875 49.878906 C 65.664062 49.972656 65.632812 50.09375 65.625 50.242188 L 65.550781 50.246094 Z M 66.753906 51.636719 C 66.753906 51.664062 66.753906 51.683594 66.757812 51.703125 L 66.757812 51.75 C 66.769531 52.007812 66.835938 52.203125 66.957031 52.328125 C 67.074219 52.453125 67.222656 52.511719 67.398438 52.503906 C 67.566406 52.496094 67.703125 52.433594 67.800781 52.324219 C 67.902344 52.210938 67.949219 52.066406 67.941406 51.890625 C 67.175781 51.292969 67.035156 50.1875 67.628906 49.417969 L 66.496094 49.476562 Z M 67.5 57.242188 L 67.257812 58.160156 L 67.1875 58.144531 L 67.199219 58.09375 C 67.210938 58.058594 67.207031 58.003906 67.195312 57.933594 C 67.183594 57.859375 67.15625 57.789062 67.113281 57.722656 C 64.820312 57.796875 62.902344 55.996094 62.828125 53.703125 C 62.753906 51.410156 64.550781 49.492188 66.84375 49.417969 L 66.011719 48.519531 L 65.351562 48.347656 C 65.1875 48.304688 65.082031 48.296875 65.03125 48.320312 C 64.964844 48.355469 64.917969 48.425781 64.890625 48.53125 L 64.867188 48.617188 L 64.796875 48.601562 L 65.089844 47.480469 L 65.160156 47.5 L 65.136719 47.59375 C 65.105469 47.703125 65.121094 47.792969 65.175781 47.855469 C 65.210938 47.894531 65.300781 47.933594 65.449219 47.972656 L 66.070312 48.136719 L 67.367188 47.703125 C 67.515625 47.652344 67.613281 47.617188 67.652344 47.59375 C 67.695312 47.570312 67.75 47.519531 67.820312 47.433594 C 68.367188 53.0625 64.25 58.070312 58.621094 58.621094 C 52.988281 59.167969 47.980469 55.046875 47.433594 49.417969 L 47.507812 49.4375 L 47.210938 50.5625 L 47.136719 50.546875 L 47.152344 50.488281 C 47.070312 50.332031 47.113281 50.140625 47.253906 50.035156 C 47.394531 49.929688 47.589844 49.945312 47.714844 50.070312 C 47.839844 50.191406 47.851562 50.390625 47.746094 50.53125 C 47.644531 50.671875 47.449219 50.714844 47.296875 50.628906 C 47.25 50.617188 47.15625 50.636719 47.011719 50.683594 L 46.019531 51.007812 L 46.695312 51.738281 C 46.796875 51.847656 46.878906 51.910156 46.9375 51.925781 C 47.050781 51.816406 47.230469 51.816406 47.34375 51.925781 C 47.453125 52.039062 47.453125 52.21875 47.34375 52.332031 L 47.414062 52.351562 Z M 67.5 57.242188 "/>
<path style="fill-rule:nonzero;fill:rgb(58.823529%,52.941176%,49.019608%);fill-opacity:1;stroke-width:0.203;stroke-linecap:butt;stroke-linejoin:miter;stroke:rgb(0%,0%,0%);stroke-opacity:1;stroke-miterlimit:4;" d="M 122.851562 110.1875 C 123.382812 110.054688 124.257812 110.164062 124.257812 110.164062 C 124.257812 110.164062 124.335938 110.53125 124.101562 110.648438 C 124.359375 110.796875 125.28125 110.757812 125.28125 110.757812 C 125.28125 110.757812 124.921875 111.03125 124.742188 111.140625 C 125.078125 111.171875 125.492188 111.601562 125.492188 111.601562 C 125.492188 111.601562 124.71875 111.726562 124.390625 111.546875 C 124.59375 111.960938 124.570312 112.320312 124.570312 112.320312 C 124.570312 112.320312 123.320312 112.007812 122.875 111.1875 M 120.773438 109.492188 C 120.46875 110.234375 118.257812 108.851562 118.257812 108.851562 C 118.257812 108.851562 119.234375 110.390625 120.695312 110.5625 M 93.179688 123.65625 L 119.054688 123.65625 L 121.054688 122.070312 L 117.726562 120.28125 L 112.601562 118.539062 L 110.554688 117.40625 L 106.757812 117.609375 L 103.585938 119.304688 L 99.226562 119.820312 L 98.203125 120.992188 L 94.976562 121.25 L 89.898438 121.148438 L 98.359375 122.484375 L 91.390625 122.125 Z M 93.179688 123.65625 " transform="matrix(0.5,0,0,0.5,0,0)"/>
<path style="fill-rule:nonzero;fill:rgb(58.823529%,52.941176%,49.019608%);fill-opacity:1;stroke-width:0.203;stroke-linecap:butt;stroke-linejoin:miter;stroke:rgb(0%,0%,0%);stroke-opacity:1;stroke-miterlimit:4;" d="M 107.117188 116.226562 C 103.882812 114.484375 102.929688 118.78125 101.53125 119.820312 C 103.421875 120.140625 104.84375 118.367188 106.453125 117.507812 C 107.679688 120.84375 109.601562 118.640625 109.601562 118.640625 C 109.601562 118.640625 111.617188 121.828125 114.296875 120.382812 C 115.023438 120.929688 115.828125 120.429688 115.828125 120.429688 C 115.828125 120.429688 116.804688 120.609375 117.007812 120.171875 C 117.523438 120.351562 118.085938 119.71875 118.085938 119.71875 C 118.085938 119.71875 119.203125 119.726562 119.421875 119.148438 C 121.070312 119.445312 123.257812 115.765625 123.257812 115.765625 L 123.929688 114.484375 L 124.898438 114.28125 C 124.898438 114.28125 124.96875 113.640625 124.4375 113.671875 C 124.429688 113.28125 124.09375 113.078125 123.617188 113.15625 C 123.710938 112.921875 123.367188 112.742188 123.367188 112.742188 C 122.4375 112.976562 122.390625 115.304688 122.390625 115.304688 C 122.390625 115.304688 120.773438 116.539062 120.1875 116.84375 C 120.164062 115.515625 117.929688 113.703125 118.390625 112.851562 C 118.851562 111.992188 120.304688 114.171875 121.570312 113.773438 C 122.835938 113.375 123.460938 111.726562 123.515625 110.4375 C 123.15625 109.570312 122.289062 108.132812 122.289062 108.132812 L 121.46875 108.078125 L 120.75 106.34375 C 120.75 106.34375 119.242188 107.328125 119.265625 108.1875 C 119.289062 109.046875 120.851562 109.773438 120.851562 109.773438 C 120.851562 109.773438 119.953125 110.335938 119.109375 110.078125 C 119.03125 110.953125 120.132812 110.78125 120.546875 110.796875 C 120.75 111.429688 121.367188 111.773438 121.367188 111.773438 C 121.367188 111.773438 121.75 112.734375 120.75 112.640625 C 119.75 112.554688 118.570312 110.25 117.164062 111.3125 C 115.664062 112.4375 117.828125 114.484375 117.828125 114.484375 C 117.828125 114.484375 116.507812 115.179688 115.726562 116.945312 C 112.539062 114.257812 110.671875 115.515625 107.117188 116.226562 Z M 107.117188 116.226562 " transform="matrix(0.5,0,0,0.5,0,0)"/>
<path style="fill-rule:nonzero;fill:rgb(58.823529%,52.941176%,49.019608%);fill-opacity:1;stroke-width:0.203;stroke-linecap:butt;stroke-linejoin:miter;stroke:rgb(0%,0%,0%);stroke-opacity:1;stroke-miterlimit:4;" d="M 102.460938 111.671875 C 103.789062 112.921875 102.859375 115.015625 103.382812 115.40625 C 103.929688 115.835938 104.71875 115.203125 104.71875 115.203125 C 106.109375 115.578125 108.609375 114.796875 108.609375 114.796875 C 109.710938 115.414062 109.273438 114.5 109.9375 114.539062 C 110.53125 116.054688 112.5 115.773438 112.5 115.773438 C 112.5 115.773438 110.695312 113.921875 109.585938 113.414062 C 108.726562 113.921875 106.226562 114 105.789062 113.921875 C 105.304688 113.835938 105.609375 113.242188 105.382812 112.898438 C 106.296875 112.007812 105.570312 109.789062 105.070312 108.953125 C 103.039062 107.601562 100.601562 109.921875 102.460938 111.671875 Z M 93.601562 107.921875 C 91.921875 108.375 89.015625 105.757812 87.65625 106.757812 C 86.296875 107.765625 86.929688 110.242188 87.835938 111.46875 C 88.726562 112.671875 86.546875 113.109375 85.953125 113.828125 C 85.398438 114.5 86.132812 115.273438 86.132812 115.273438 L 86.75 115.671875 L 86.640625 116.578125 L 86.96875 117.664062 C 86.96875 117.664062 87.265625 117.929688 87.367188 117.59375 C 87.648438 117.875 87.398438 118.6875 88.09375 118.789062 C 87.84375 118.273438 88.273438 116.835938 88.273438 116.835938 C 88.273438 116.835938 89.484375 116.921875 89.796875 116.398438 C 90.101562 115.875 89.507812 114.734375 89.507812 114.734375 L 89.867188 114.734375 C 89.460938 114.453125 89.320312 113.609375 89.320312 113.609375 C 89.320312 113.609375 91.007812 113.070312 90.992188 111.796875 C 90.96875 110.523438 88.257812 109.164062 89.25 108.5 C 90.359375 107.765625 92.273438 110.398438 93.921875 109.1875 C 95.554688 107.984375 94.507812 109.148438 94.507812 109.148438 C 94.507812 109.148438 95.25 107.476562 93.601562 107.921875 Z M 102.25 89.96875 C 100.007812 89.039062 95.429688 88.976562 92.875 87.71875 C 91.75 87.789062 91.25 88.671875 91.203125 89.023438 C 90.03125 88.96875 89.242188 90.8125 89.414062 91.171875 C 87.28125 90.3125 86.289062 93.6875 86.976562 94.375 C 85.15625 94.453125 85.382812 96.78125 85.210938 97.429688 C 84.632812 98.84375 85.34375 99.320312 86.492188 98.8125 C 86.664062 99.421875 86.421875 99.773438 85.90625 99.882812 C 89.0625 103.5 90.84375 97.664062 93.617188 97.679688 C 97.070312 96.671875 98.429688 94.96875 98.429688 94.96875 L 99.789062 95.148438 Z M 102.25 89.96875 " transform="matrix(0.5,0,0,0.5,0,0)"/>
<path style="fill-rule:nonzero;fill:rgb(58.823529%,52.941176%,49.019608%);fill-opacity:1;stroke-width:0.203;stroke-linecap:butt;stroke-linejoin:miter;stroke:rgb(0%,0%,0%);stroke-opacity:1;stroke-miterlimit:4;" d="M 108.453125 87.382812 C 108.453125 89.210938 106.96875 90.6875 105.148438 90.6875 C 103.320312 90.6875 101.84375 89.210938 101.84375 87.382812 C 101.84375 85.5625 103.320312 84.078125 105.148438 84.078125 C 106.96875 84.078125 108.453125 85.5625 108.453125 87.382812 Z M 108.453125 87.382812 " transform="matrix(0.5,0,0,0.5,0,0)"/>
<path style="fill-rule:nonzero;fill:rgb(58.823529%,52.941176%,49.019608%);fill-opacity:1;stroke-width:0.203;stroke-linecap:butt;stroke-linejoin:miter;stroke:rgb(0%,0%,0%);stroke-opacity:1;stroke-miterlimit:4;" d="M 99.328125 113.40625 C 97.28125 113.039062 93.882812 110.914062 93.539062 108.132812 C 95.445312 100.640625 105.296875 104.554688 106.140625 98.914062 C 105.929688 95.195312 106.59375 91.515625 108.65625 88.40625 C 109.617188 87.1875 110.859375 86.867188 110.859375 86.867188 C 110.859375 86.867188 111.078125 87.65625 110.757812 88.195312 C 112.382812 88.015625 114.609375 88.929688 116.140625 89.015625 C 116.585938 89.929688 116.546875 90.257812 116.445312 90.8125 C 116.34375 91.359375 115.726562 91.21875 115.726562 91.21875 C 115.328125 91.601562 114.851562 91.984375 113.78125 91.789062 C 112.976562 92.398438 111.265625 92.554688 111.265625 92.554688 C 111.265625 92.554688 114.828125 96.304688 114.242188 97.476562 C 114.984375 97.820312 116.085938 99.46875 116.085938 99.46875 C 116.085938 99.46875 118.523438 98.1875 119.3125 97.015625 C 120.726562 97.015625 123.03125 98.484375 124.179688 98.648438 C 125.59375 99.789062 127 100.960938 127 100.960938 C 127 100.960938 125.320312 102.0625 124.59375 100.601562 C 123.710938 100.679688 121.796875 98.5625 119.15625 99.21875 C 119.085938 101.5625 116.492188 103.210938 116.492188 103.210938 C 116.492188 103.210938 118.914062 102.875 120.234375 103.671875 C 105.429688 168.46875 46.828125 213.71875 -19.609375 211.664062 C -86.039062 209.601562 -141.726562 160.8125 -152.5 95.21875 C -163.265625 29.632812 -126.109375 -34.40625 -63.820312 -57.601562 C -1.53125 -80.796875 68.460938 -56.65625 103.210938 0 L 105.007812 3.070312 C 105.007812 3.070312 103.367188 3.359375 102.75 1.226562 C 102.140625 2.945312 102.109375 0.164062 99.679688 -1.125 C 98.9375 -1.039062 98.5625 -0.984375 97.9375 -1.484375 C 96.179688 -1.015625 94.101562 0.015625 91.632812 -0.257812 C 89.875 0.296875 88.59375 1.757812 86.8125 2.5625 C 85.039062 3.367188 84.507812 2.96875 84.507812 2.96875 L 83.078125 3.023438 C 82.867188 3.890625 82.984375 5.203125 82.203125 5.429688 C 82.703125 5.96875 81.84375 8.265625 80.976562 8.65625 C 81.382812 10.132812 82.585938 10.585938 83.84375 11.320312 C 83.84375 11.320312 84.960938 10.8125 85.6875 11.476562 C 86.421875 12.140625 87.171875 14.039062 87.171875 14.039062 C 87.171875 14.039062 85.65625 14.140625 85.179688 13.9375 C 84.695312 13.734375 84.648438 13.234375 84.101562 13.375 C 80.625 10.289062 78.796875 11.515625 78.460938 10.8125 C 78.117188 10.09375 79.28125 8.210938 78.921875 7.023438 Z M 99.328125 113.40625 " transform="matrix(0.5,0,0,0.5,0,0)"/>
<path style="fill-rule:nonzero;fill:rgb(58.823529%,52.941176%,49.019608%);fill-opacity:1;stroke-width:0.203;stroke-linecap:butt;stroke-linejoin:miter;stroke:rgb(0%,0%,0%);stroke-opacity:1;stroke-miterlimit:4;" d="M 90.992188 99.65625 C 91.171875 99.429688 92.4375 99.90625 92.4375 99.90625 L 94.757812 101.359375 L 99.46875 104.398438 L 101.132812 106.828125 L 98.125 105.851562 L 93.960938 102.265625 L 91.71875 100.8125 C 91.71875 100.8125 90.8125 99.882812 90.992188 99.65625 Z M 118.851562 107.367188 C 117.226562 106.960938 113.210938 111.828125 113.210938 111.828125 L 116.234375 115.109375 C 116.234375 115.109375 116.328125 109.523438 118.851562 107.367188 Z M 118.851562 107.367188 " transform="matrix(0.5,0,0,0.5,0,0)"/>
<path style="fill-rule:nonzero;fill:rgb(58.823529%,52.941176%,49.019608%);fill-opacity:1;stroke-width:0.203;stroke-linecap:butt;stroke-linejoin:miter;stroke:rgb(0%,0%,0%);stroke-opacity:1;stroke-miterlimit:4;" d="M 99.023438 93.789062 C 98.132812 94.929688 98.054688 97.21875 99.210938 98.140625 C 99.320312 99.53125 100.5 102.335938 101.429688 102.601562 C 102.445312 102.890625 106.507812 103.828125 108.09375 103.578125 C 107.789062 106.148438 109.8125 108.21875 111.679688 109.570312 C 111.664062 109.804688 111.664062 110.085938 111.882812 110.367188 C 112.085938 110.648438 113.070312 110.695312 113.117188 110.546875 C 113.546875 111.15625 115.664062 111.429688 115.8125 111.15625 C 115.960938 110.890625 112.710938 108.625 111.984375 107.929688 C 111.375 106.789062 110.210938 104.234375 109.9375 102.195312 C 108.34375 100.289062 105.59375 100.328125 105.59375 100.328125 L 105.6875 96.609375 L 105.835938 92.40625 L 104.351562 91.640625 C 104.351562 91.640625 104.648438 91.5 104.8125 91.328125 C 105.171875 91.484375 105.851562 90.757812 105.9375 90.554688 C 106.28125 90.671875 106.59375 90.671875 106.648438 90.492188 C 106.703125 90.328125 106.765625 89.609375 106.890625 89.242188 C 108.007812 88.257812 106.726562 86.164062 105.015625 86.125 C 103.3125 86.09375 102.9375 88.148438 102.96875 88.304688 C 103.125 88.953125 103.09375 89.273438 102.96875 89.429688 C 102.84375 89.59375 102.25 89.945312 102.25 89.945312 C 102.25 89.945312 101.304688 89.5 100.148438 89.945312 C 99 90.398438 97.703125 90.992188 97.640625 91.742188 C 97.117188 91.8125 96.257812 92.492188 96.101562 93.070312 C 95.640625 92.984375 95.039062 93.367188 94.054688 94.96875 C 92.28125 95.75 92.179688 99.53125 92.179688 99.53125 C 92.179688 99.53125 91.703125 100.226562 91.679688 100.59375 C 91.65625 100.960938 91.851562 101.296875 92.078125 101.234375 C 92.101562 101.476562 92.429688 101.695312 92.5625 101.617188 C 92.617188 101.859375 92.96875 101.992188 93.179688 101.960938 C 93.203125 102.132812 93.882812 102.085938 93.9375 101.9375 C 94 101.773438 93.867188 100.9375 93.953125 100.875 C 94.023438 100.8125 94.59375 101.242188 94.742188 101.132812 C 94.898438 101.015625 94.710938 100.648438 94.632812 100.5 C 94.554688 100.375 94.0625 100.234375 93.953125 99.632812 C 93.835938 99.03125 94.257812 98.195312 94.257812 98.195312 C 94.257812 98.195312 96.179688 96.6875 96.398438 95.390625 C 97.84375 95.53125 98.609375 94.265625 99.023438 93.789062 Z M 99.023438 93.789062 " transform="matrix(0.5,0,0,0.5,0,0)"/>
<path style="fill-rule:nonzero;fill:rgb(58.823529%,52.941176%,49.019608%);fill-opacity:1;stroke-width:0.203;stroke-linecap:butt;stroke-linejoin:miter;stroke:rgb(0%,0%,0%);stroke-opacity:1;stroke-miterlimit:4;" d="M 95.679688 88.367188 C 96.117188 87.296875 97.703125 87.398438 97.703125 87.398438 C 97.703125 87.398438 98.273438 85.90625 100.40625 86.796875 C 101.210938 86.171875 103.328125 87.0625 103.328125 87.0625 C 103.328125 87.0625 104.117188 86.007812 105.15625 86.125 C 107.085938 86.351562 107.40625 88.117188 107.28125 88.421875 C 106.234375 88.6875 104.40625 87.5625 103.015625 87.882812 C 102.210938 88.34375 100.898438 88.828125 100.40625 89.484375 C 99.125 89.617188 97.75 88.304688 95.679688 88.367188 Z M 99.6875 90.148438 C 100.171875 89.859375 101.351562 89.335938 102.148438 89.96875 C 102.984375 90.875 104.273438 91.710938 104.273438 91.710938 L 105.734375 92.328125 L 106.398438 92.742188 L 105.96875 99.429688 C 104.617188 98.046875 103.34375 97.796875 102.382812 96.171875 C 101.859375 95.476562 102.257812 93.796875 101.351562 92.6875 C 100.453125 91.578125 99.492188 90.828125 99.6875 90.148438 Z M 99.6875 90.148438 " transform="matrix(0.5,0,0,0.5,0,0)"/>
<path style="fill-rule:nonzero;fill:rgb(58.823529%,52.941176%,49.019608%);fill-opacity:1;stroke-width:0.203;stroke-linecap:butt;stroke-linejoin:miter;stroke:rgb(0%,0%,0%);stroke-opacity:1;stroke-miterlimit:4;" d="M 103.203125 92.078125 C 103.203125 92.078125 103.96875 91.9375 104.179688 92.117188 C 104.445312 92.210938 104.703125 92.289062 104.773438 92.515625 C 105.0625 92.601562 105.265625 92.75 105.265625 92.96875 C 105.539062 93.039062 105.648438 93.53125 105.648438 93.53125 L 105.390625 93.914062 C 105.390625 93.914062 105.101562 93.640625 105.0625 93.351562 C 104.882812 93.257812 104.476562 93.164062 104.375 92.898438 C 104.0625 92.867188 103.859375 92.703125 103.796875 92.429688 C 103.5 92.492188 103.203125 92.078125 103.203125 92.078125 Z M 103.203125 92.078125 " transform="matrix(0.5,0,0,0.5,0,0)"/>
<path style="fill-rule:nonzero;fill:rgb(58.823529%,52.941176%,49.019608%);fill-opacity:1;stroke-width:0.203;stroke-linecap:butt;stroke-linejoin:miter;stroke:rgb(0%,0%,0%);stroke-opacity:1;stroke-miterlimit:4;" d="M 109.679688 87.71875 C 109.242188 87.226562 108.476562 87.585938 108.476562 87.585938 L 106.429688 91.125 L 105.53125 91.867188 L 105.453125 94.632812 L 106.195312 97.21875 L 105.9375 99.21875 C 105.9375 99.21875 106.96875 98.25 107.09375 97.710938 C 107.210938 97.1875 106.710938 95.507812 106.710938 95.507812 C 106.710938 95.507812 106.09375 94.453125 106.835938 92.507812 C 107.578125 90.5625 109.273438 88.945312 109.679688 87.71875 Z M 109.679688 87.71875 " transform="matrix(0.5,0,0,0.5,0,0)"/>
<path style="fill-rule:nonzero;fill:rgb(58.823529%,52.941176%,49.019608%);fill-opacity:1;stroke-width:0.203;stroke-linecap:butt;stroke-linejoin:miter;stroke:rgb(0%,0%,0%);stroke-opacity:1;stroke-miterlimit:4;" d="M 114.742188 90.867188 C 114.742188 90.867188 111.539062 95.4375 106.296875 97.070312 C 104.851562 97.414062 105.375 93.6875 105.375 93.6875 L 105.015625 93.789062 C 105.015625 93.789062 104.210938 97.4375 106.148438 97.476562 C 111.414062 96.4375 115.359375 90.898438 115.359375 90.898438 L 114.734375 90.867188 Z M 116.90625 117.15625 C 116.90625 117.15625 116.421875 117.515625 115.78125 117.15625 C 115.453125 116.390625 114.554688 116.34375 114.554688 116.34375 C 114.554688 116.34375 113.976562 114.679688 113.070312 115.164062 C 112.929688 114.304688 111.9375 114.75 111.9375 114.75 C 111.9375 114.75 111.914062 113.507812 110.757812 113.679688 C 111.148438 112.25 109.171875 112.34375 109.171875 112.34375 C 109.171875 112.34375 109.109375 110.742188 106.203125 111.0625 C 112.46875 108.257812 117.421875 115.46875 117.421875 115.46875 M 119.882812 117.773438 C 119.882812 117.773438 121.328125 119.398438 122.085938 119.40625 C 122.835938 119.421875 122.90625 117.820312 122.90625 117.820312 C 122.90625 117.820312 123.148438 118.515625 123.515625 118.335938 C 123.476562 118.820312 123.976562 118.945312 123.976562 118.945312 C 123.976562 118.945312 122.671875 121.984375 118.960938 119.101562 M 108.546875 118.390625 L 108.039062 120.492188 C 108.039062 120.492188 107.382812 121.078125 107.578125 121.210938 C 107.765625 121.335938 108.804688 121 108.804688 121 C 108.804688 121 110.421875 120.8125 110.90625 120.335938 C 111.242188 121.09375 111.984375 121.15625 111.984375 121.15625 C 111.984375 121.15625 112.03125 120.835938 111.929688 120.648438 C 112.289062 120.710938 112.601562 120.59375 112.601562 120.59375 C 112.601562 120.59375 112.804688 120.007812 112.34375 119.773438 C 112.390625 119.335938 112.609375 118.953125 111.828125 119.007812 C 111.25 119.617188 109.828125 120.328125 109.46875 120.078125 C 109.117188 119.835938 110.882812 119.054688 110.398438 118.03125 " transform="matrix(0.5,0,0,0.5,0,0)"/>
</g>
</svg>
