<?xml version="1.0" encoding="UTF-8"?>
<svg xmlns="http://www.w3.org/2000/svg" xmlns:xlink="http://www.w3.org/1999/xlink" width="px" height="px" viewBox="0 0 450 300" version="1.1">
<g id="surface1">
<rect x="0" y="0" width="450" height="300" style="fill:rgb(0%,0%,0%);fill-opacity:1;stroke:none;"/>
<path style=" stroke:none;fill-rule:nonzero;fill:rgb(80.784314%,6.666667%,14.901961%);fill-opacity:1;" d="M 289.5 114 C 289.5 149.621094 260.621094 178.5 225 178.5 C 189.378906 178.5 160.5 149.621094 160.5 114 C 160.5 78.378906 189.378906 49.5 225 49.5 C 260.621094 49.5 289.5 78.378906 289.5 114 Z M 289.5 114 "/>
<path style=" stroke:none;fill-rule:nonzero;fill:rgb(80.784314%,6.666667%,14.901961%);fill-opacity:1;" d="M 225 12 C 222.832031 12 222 15.25 222 18.5 C 222 26.332031 222.960938 30.429688 225 42 C 227.039062 30.429688 228 26.332031 228 18.5 C 228 15.25 227.167969 12 225 12 Z M 225 12 "/>
<path style=" stroke:none;fill-rule:nonzero;fill:rgb(80.784314%,6.666667%,14.901961%);fill-opacity:1;" d="M 233.890625 12.386719 C 231.730469 12.199219 230.617188 15.363281 230.335938 18.601562 C 229.652344 26.40625 230.25 30.570312 231.273438 42.273438 C 234.316406 30.925781 235.628906 26.929688 236.3125 19.125 C 236.59375 15.886719 236.046875 12.578125 233.890625 12.386719 Z M 233.890625 12.386719 "/>
<path style=" stroke:none;fill-rule:nonzero;fill:rgb(80.784314%,6.666667%,14.901961%);fill-opacity:1;" d="M 242.710938 13.550781 C 240.578125 13.171875 239.191406 16.230469 238.628906 19.429688 C 237.269531 27.144531 237.503906 31.34375 237.503906 43.09375 C 241.519531 32.054688 243.175781 28.1875 244.539062 20.472656 C 245.101562 17.269531 244.847656 13.925781 242.710938 13.550781 Z M 242.710938 13.550781 "/>
<path style=" stroke:none;fill-rule:nonzero;fill:rgb(80.784314%,6.666667%,14.901961%);fill-opacity:1;" d="M 251.398438 15.476562 C 249.304688 14.914062 247.660156 17.839844 246.820312 20.976562 C 244.792969 28.542969 244.660156 32.75 243.636719 44.453125 C 248.601562 33.804688 250.585938 30.097656 252.613281 22.53125 C 253.457031 19.390625 253.492188 16.035156 251.398438 15.476562 Z M 251.398438 15.476562 "/>
<path style=" stroke:none;fill-rule:nonzero;fill:rgb(80.784314%,6.666667%,14.901961%);fill-opacity:1;" d="M 259.886719 18.152344 C 257.851562 17.410156 255.957031 20.179688 254.84375 23.234375 C 252.164062 30.59375 251.664062 34.769531 249.625 46.34375 C 255.5 36.167969 257.804688 32.644531 260.480469 25.285156 C 261.59375 22.230469 261.921875 18.890625 259.886719 18.152344 Z M 259.886719 18.152344 "/>
<path style=" stroke:none;fill-rule:nonzero;fill:rgb(80.784314%,6.666667%,14.901961%);fill-opacity:1;" d="M 268.105469 21.554688 C 266.144531 20.640625 264.015625 23.234375 262.640625 26.179688 C 259.332031 33.277344 258.46875 37.398438 255.429688 48.746094 C 262.167969 39.121094 264.769531 35.816406 268.078125 28.714844 C 269.453125 25.769531 270.070312 22.472656 268.105469 21.554688 Z M 268.105469 21.554688 "/>
<path style=" stroke:none;fill-rule:nonzero;fill:rgb(80.784314%,6.666667%,14.901961%);fill-opacity:1;" d="M 276 25.664062 C 274.125 24.582031 271.777344 26.980469 270.152344 29.792969 C 266.234375 36.578125 265.019531 40.605469 261 51.644531 C 268.550781 42.644531 271.429688 39.578125 275.347656 32.792969 C 276.972656 29.980469 277.875 26.75 276 25.664062 Z M 276 25.664062 "/>
<path style=" stroke:none;fill-rule:nonzero;fill:rgb(80.784314%,6.666667%,14.901961%);fill-opacity:1;" d="M 283.503906 30.445312 C 281.730469 29.203125 279.183594 31.386719 277.320312 34.050781 C 272.828125 40.464844 271.261719 44.371094 266.296875 55.019531 C 274.605469 46.710938 277.742188 43.90625 282.234375 37.492188 C 284.097656 34.828125 285.28125 31.6875 283.503906 30.445312 Z M 283.503906 30.445312 "/>
<path style=" stroke:none;fill-rule:nonzero;fill:rgb(80.784314%,6.666667%,14.901961%);fill-opacity:1;" d="M 290.5625 35.863281 C 288.90625 34.46875 286.175781 36.425781 284.089844 38.914062 C 279.054688 44.914062 277.15625 48.667969 271.28125 58.84375 C 280.28125 51.292969 283.648438 48.773438 288.683594 42.769531 C 290.773438 40.28125 292.222656 37.257812 290.5625 35.863281 Z M 290.5625 35.863281 "/>
<path style=" stroke:none;fill-rule:nonzero;fill:rgb(80.784314%,6.666667%,14.901961%);fill-opacity:1;" d="M 297.125 41.875 C 295.59375 40.34375 292.707031 42.050781 290.40625 44.351562 C 284.867188 49.890625 282.652344 53.464844 275.910156 63.089844 C 285.535156 56.347656 289.109375 54.132812 294.648438 48.59375 C 296.949219 46.292969 298.65625 43.40625 297.125 41.875 Z M 297.125 41.875 "/>
<path style=" stroke:none;fill-rule:nonzero;fill:rgb(80.784314%,6.666667%,14.901961%);fill-opacity:1;" d="M 303.136719 48.4375 C 301.742188 46.777344 298.71875 48.226562 296.230469 50.316406 C 290.226562 55.351562 287.707031 58.71875 280.15625 67.71875 C 290.332031 61.84375 294.085938 59.945312 300.085938 54.910156 C 302.574219 52.824219 304.53125 50.09375 303.136719 48.4375 Z M 303.136719 48.4375 "/>
<path style=" stroke:none;fill-rule:nonzero;fill:rgb(80.784314%,6.666667%,14.901961%);fill-opacity:1;" d="M 308.554688 55.496094 C 307.3125 53.71875 304.171875 54.902344 301.507812 56.765625 C 295.09375 61.257812 292.289062 64.394531 283.980469 72.703125 C 294.628906 67.738281 298.535156 66.171875 304.949219 61.679688 C 307.613281 59.816406 309.796875 57.269531 308.554688 55.496094 Z M 308.554688 55.496094 "/>
<path style=" stroke:none;fill-rule:nonzero;fill:rgb(80.784314%,6.666667%,14.901961%);fill-opacity:1;" d="M 313.335938 63 C 312.25 61.125 309.019531 62.027344 306.207031 63.652344 C 299.421875 67.570312 296.355469 70.449219 287.355469 78 C 298.394531 73.980469 302.421875 72.765625 309.207031 68.847656 C 312.019531 67.222656 314.417969 64.875 313.335938 63 Z M 313.335938 63 "/>
<path style=" stroke:none;fill-rule:nonzero;fill:rgb(80.784314%,6.666667%,14.901961%);fill-opacity:1;" d="M 317.445312 70.894531 C 316.527344 68.929688 313.230469 69.546875 310.285156 70.921875 C 303.183594 74.230469 299.878906 76.832031 290.253906 83.570312 C 301.601562 80.53125 305.722656 79.667969 312.820312 76.359375 C 315.765625 74.984375 318.359375 72.855469 317.445312 70.894531 Z M 317.445312 70.894531 "/>
<path style=" stroke:none;fill-rule:nonzero;fill:rgb(80.784314%,6.666667%,14.901961%);fill-opacity:1;" d="M 320.847656 79.113281 C 320.109375 77.078125 316.769531 77.40625 313.714844 78.519531 C 306.355469 81.195312 302.832031 83.5 292.65625 89.375 C 304.230469 87.335938 308.40625 86.835938 315.765625 84.15625 C 318.820312 83.042969 321.589844 81.148438 320.847656 79.113281 Z M 320.847656 79.113281 "/>
<path style=" stroke:none;fill-rule:nonzero;fill:rgb(80.784314%,6.666667%,14.901961%);fill-opacity:1;" d="M 323.523438 87.601562 C 322.964844 85.507812 319.609375 85.542969 316.46875 86.386719 C 308.902344 88.414062 305.195312 90.398438 294.546875 95.363281 C 306.25 94.339844 310.457031 94.207031 318.023438 92.179688 C 321.160156 91.339844 324.085938 89.695312 323.523438 87.601562 Z M 323.523438 87.601562 "/>
<path style=" stroke:none;fill-rule:nonzero;fill:rgb(80.784314%,6.666667%,14.901961%);fill-opacity:1;" d="M 124.550781 96.289062 C 124.171875 98.421875 127.230469 99.808594 130.429688 100.371094 C 138.144531 101.730469 142.34375 101.496094 154.09375 101.496094 C 143.054688 97.480469 139.1875 95.824219 131.472656 94.460938 C 128.269531 93.898438 124.925781 94.152344 124.550781 96.289062 Z M 124.550781 96.289062 "/>
<path style=" stroke:none;fill-rule:nonzero;fill:rgb(80.784314%,6.666667%,14.901961%);fill-opacity:1;" d="M 126.476562 87.601562 C 125.914062 89.695312 128.839844 91.339844 131.976562 92.179688 C 139.542969 94.207031 143.75 94.339844 155.453125 95.363281 C 144.804688 90.398438 141.097656 88.414062 133.53125 86.386719 C 130.390625 85.542969 127.035156 85.507812 126.476562 87.601562 Z M 126.476562 87.601562 "/>
<path style=" stroke:none;fill-rule:nonzero;fill:rgb(80.784314%,6.666667%,14.901961%);fill-opacity:1;" d="M 129.152344 79.113281 C 128.410156 81.148438 131.179688 83.042969 134.234375 84.15625 C 141.59375 86.835938 145.769531 87.335938 157.34375 89.375 C 147.167969 83.5 143.644531 81.195312 136.285156 78.519531 C 133.230469 77.40625 129.890625 77.078125 129.152344 79.113281 Z M 129.152344 79.113281 "/>
<path style=" stroke:none;fill-rule:nonzero;fill:rgb(80.784314%,6.666667%,14.901961%);fill-opacity:1;" d="M 132.554688 70.894531 C 131.640625 72.855469 134.234375 74.984375 137.179688 76.359375 C 144.277344 79.667969 148.398438 80.53125 159.746094 83.570312 C 150.121094 76.832031 146.816406 74.230469 139.714844 70.921875 C 136.769531 69.546875 133.472656 68.929688 132.554688 70.894531 Z M 132.554688 70.894531 "/>
<path style=" stroke:none;fill-rule:nonzero;fill:rgb(80.784314%,6.666667%,14.901961%);fill-opacity:1;" d="M 136.664062 63 C 135.582031 64.875 137.980469 67.222656 140.792969 68.847656 C 147.578125 72.765625 151.605469 73.980469 162.644531 78 C 153.644531 70.449219 150.578125 67.570312 143.792969 63.652344 C 140.980469 62.027344 137.75 61.125 136.664062 63 Z M 136.664062 63 "/>
<path style=" stroke:none;fill-rule:nonzero;fill:rgb(80.784314%,6.666667%,14.901961%);fill-opacity:1;" d="M 141.445312 55.496094 C 140.203125 57.269531 142.386719 59.816406 145.050781 61.679688 C 151.464844 66.171875 155.371094 67.738281 166.019531 72.703125 C 157.710938 64.394531 154.90625 61.257812 148.492188 56.765625 C 145.828125 54.902344 142.6875 53.71875 141.445312 55.496094 Z M 141.445312 55.496094 "/>
<path style=" stroke:none;fill-rule:nonzero;fill:rgb(80.784314%,6.666667%,14.901961%);fill-opacity:1;" d="M 146.863281 48.4375 C 145.46875 50.09375 147.425781 52.824219 149.914062 54.910156 C 155.914062 59.945312 159.667969 61.84375 169.84375 67.71875 C 162.292969 58.71875 159.773438 55.351562 153.769531 50.316406 C 151.28125 48.226562 148.257812 46.777344 146.863281 48.4375 Z M 146.863281 48.4375 "/>
<path style=" stroke:none;fill-rule:nonzero;fill:rgb(80.784314%,6.666667%,14.901961%);fill-opacity:1;" d="M 152.875 41.875 C 151.34375 43.40625 153.050781 46.292969 155.351562 48.59375 C 160.890625 54.132812 164.464844 56.347656 174.089844 63.089844 C 167.347656 53.464844 165.132812 49.890625 159.59375 44.351562 C 157.292969 42.050781 154.40625 40.34375 152.875 41.875 Z M 152.875 41.875 "/>
<path style=" stroke:none;fill-rule:nonzero;fill:rgb(80.784314%,6.666667%,14.901961%);fill-opacity:1;" d="M 159.4375 35.863281 C 157.777344 37.257812 159.226562 40.28125 161.316406 42.769531 C 166.351562 48.773438 169.71875 51.292969 178.71875 58.84375 C 172.84375 48.667969 170.945312 44.914062 165.910156 38.914062 C 163.824219 36.425781 161.09375 34.46875 159.4375 35.863281 Z M 159.4375 35.863281 "/>
<path style=" stroke:none;fill-rule:nonzero;fill:rgb(80.784314%,6.666667%,14.901961%);fill-opacity:1;" d="M 166.496094 30.445312 C 164.71875 31.6875 165.902344 34.828125 167.765625 37.492188 C 172.257812 43.90625 175.394531 46.710938 183.703125 55.019531 C 178.738281 44.371094 177.171875 40.464844 172.679688 34.050781 C 170.816406 31.386719 168.269531 29.203125 166.496094 30.445312 Z M 166.496094 30.445312 "/>
<path style=" stroke:none;fill-rule:nonzero;fill:rgb(80.784314%,6.666667%,14.901961%);fill-opacity:1;" d="M 174 25.664062 C 172.125 26.75 173.027344 29.980469 174.652344 32.792969 C 178.570312 39.578125 181.449219 42.644531 189 51.644531 C 184.980469 40.605469 183.765625 36.578125 179.847656 29.792969 C 178.222656 26.980469 175.875 24.582031 174 25.664062 Z M 174 25.664062 "/>
<path style=" stroke:none;fill-rule:nonzero;fill:rgb(80.784314%,6.666667%,14.901961%);fill-opacity:1;" d="M 181.894531 21.554688 C 179.929688 22.472656 180.546875 25.769531 181.921875 28.714844 C 185.230469 35.816406 187.832031 39.121094 194.570312 48.746094 C 191.53125 37.398438 190.667969 33.277344 187.359375 26.179688 C 185.984375 23.234375 183.855469 20.640625 181.894531 21.554688 Z M 181.894531 21.554688 "/>
<path style=" stroke:none;fill-rule:nonzero;fill:rgb(80.784314%,6.666667%,14.901961%);fill-opacity:1;" d="M 190.113281 18.152344 C 188.078125 18.890625 188.40625 22.230469 189.519531 25.285156 C 192.195312 32.644531 194.5 36.167969 200.375 46.34375 C 198.335938 34.769531 197.835938 30.59375 195.15625 23.234375 C 194.042969 20.179688 192.148438 17.410156 190.113281 18.152344 Z M 190.113281 18.152344 "/>
<path style=" stroke:none;fill-rule:nonzero;fill:rgb(80.784314%,6.666667%,14.901961%);fill-opacity:1;" d="M 198.601562 15.476562 C 196.507812 16.035156 196.542969 19.390625 197.386719 22.53125 C 199.414062 30.097656 201.398438 33.804688 206.363281 44.453125 C 205.339844 32.75 205.207031 28.542969 203.179688 20.976562 C 202.339844 17.839844 200.695312 14.914062 198.601562 15.476562 Z M 198.601562 15.476562 "/>
<path style=" stroke:none;fill-rule:nonzero;fill:rgb(80.784314%,6.666667%,14.901961%);fill-opacity:1;" d="M 207.289062 13.550781 C 205.152344 13.925781 204.898438 17.269531 205.460938 20.472656 C 206.824219 28.1875 208.480469 32.054688 212.496094 43.09375 C 212.496094 31.34375 212.730469 27.144531 211.371094 19.429688 C 210.808594 16.230469 209.421875 13.171875 207.289062 13.550781 Z M 207.289062 13.550781 "/>
<path style=" stroke:none;fill-rule:nonzero;fill:rgb(80.784314%,6.666667%,14.901961%);fill-opacity:1;" d="M 216.109375 12.386719 C 213.953125 12.578125 213.40625 15.886719 213.6875 19.125 C 214.371094 26.929688 215.683594 30.925781 218.726562 42.273438 C 219.75 30.570312 220.347656 26.40625 219.664062 18.601562 C 219.382812 15.363281 218.269531 12.199219 216.109375 12.386719 Z M 216.109375 12.386719 "/>
<path style=" stroke:none;fill-rule:nonzero;fill:rgb(0%,0%,0%);fill-opacity:1;" d="M 0 92.5 L 450 92.5 L 450 300 L 0 300 Z M 0 92.5 "/>
<path style=" stroke:none;fill-rule:nonzero;fill:rgb(80.784314%,6.666667%,14.901961%);fill-opacity:1;" d="M 0 100 L 450 100 L 450 300 L 0 300 Z M 0 100 "/>
<path style=" stroke:none;fill-rule:nonzero;fill:rgb(20%,61.960784%,20.784314%);fill-opacity:1;" d="M 0 200 L 450 200 L 450 300 L 0 300 Z M 0 200 "/>
</g>
</svg>
