<?xml version="1.0" encoding="UTF-8"?>
<svg xmlns="http://www.w3.org/2000/svg" xmlns:xlink="http://www.w3.org/1999/xlink" width="px" height="px" viewBox="0 0 600 300" version="1.1">
<g id="surface1">
<rect x="0" y="0" width="600" height="300" style="fill:rgb(100%,100%,100%);fill-opacity:1;stroke:none;"/>
<path style="fill:none;stroke-width:480;stroke-linecap:butt;stroke-linejoin:miter;stroke:rgb(80%,0%,0%);stroke-opacity:1;stroke-miterlimit:4;" d="M 480.025 240.0125 L 13440 240.0125 M 13440 1199.975 L 480.025 1199.975 M 480.025 2160.025 L 13440 2160.025 M 13440 3119.9875 L 480.025 3119.9875 " transform="matrix(0.0446429,0,0,0.0446429,0,0)"/>
<path style=" stroke:none;fill-rule:nonzero;fill:rgb(0%,0%,40%);fill-opacity:1;" d="M 0 0 L 300 0 L 300 182.144531 L 0 182.144531 Z M 0 0 "/>
<path style="fill:none;stroke-width:480;stroke-linecap:butt;stroke-linejoin:miter;stroke:rgb(80%,0%,0%);stroke-opacity:1;stroke-miterlimit:4;" d="M 0 4080.0375 L 13440 4080.0375 M 13440 5040 L 0 5040 M 0 5999.9625 L 13440 5999.9625 " transform="matrix(0.0446429,0,0,0.0446429,0,0)"/>
<path style=" stroke:none;fill-rule:nonzero;fill:rgb(100%,80%,0%);fill-opacity:1;" d="M 187.5 32.144531 L 192.277344 64.820312 L 210.757812 37.457031 L 200.847656 68.972656 L 229.375 52.320312 L 206.785156 76.429688 L 239.730469 73.792969 L 208.929688 85.714844 L 239.730469 97.632812 L 206.785156 95 L 229.375 119.105469 L 200.847656 102.457031 L 210.757812 133.972656 L 192.277344 106.605469 L 187.5 139.285156 L 182.722656 106.605469 L 164.242188 133.972656 L 174.152344 102.457031 L 145.625 119.105469 L 168.214844 95 L 135.269531 97.632812 L 166.070312 85.714844 L 135.269531 73.792969 L 168.214844 76.429688 L 145.625 52.320312 L 174.152344 68.972656 L 164.242188 37.457031 L 182.722656 64.820312 Z M 160.714844 33.480469 C 164.679688 4.171875 190.355469 -17.269531 219.902344 -15.945312 C 249.449219 -14.621094 273.101562 9.035156 274.425781 38.582031 C 275.753906 68.128906 254.308594 93.804688 225 97.769531 Z M 160.714844 33.480469 "/>
</g>
</svg>
