<?xml version="1.0" encoding="UTF-8"?>
<svg xmlns="http://www.w3.org/2000/svg" xmlns:xlink="http://www.w3.org/1999/xlink" width="px" height="px" viewBox="0 0 300 150" version="1.1">
<g id="surface1">
<rect x="0" y="0" width="300" height="150" style="fill:rgb(0%,16.862745%,49.803922%);fill-opacity:1;stroke:none;"/>
<path style=" stroke:none;fill-rule:nonzero;fill:rgb(100%,77.647059%,11.764706%);fill-opacity:1;" d="M 0 68.75 L 300 68.75 L 300 81.25 L 0 81.25 Z M 0 68.75 "/>
<path style=" stroke:none;fill-rule:nonzero;fill:rgb(100%,100%,100%);fill-opacity:1;" d="M 75 131.25 L 71.765625 118.324219 L 62.5 127.902344 L 66.160156 115.089844 L 53.351562 118.75 L 62.925781 109.484375 L 50 106.25 L 62.925781 103.015625 L 53.347656 93.75 L 66.160156 97.410156 L 62.5 84.601562 L 71.765625 94.175781 L 75 81.25 L 78.234375 94.175781 L 87.5 84.597656 L 83.839844 97.410156 L 96.648438 93.75 L 87.074219 103.015625 L 100 106.25 L 87.074219 109.484375 L 96.652344 118.75 L 83.839844 115.089844 L 87.5 127.898438 L 78.234375 118.324219 Z M 75 131.25 "/>
</g>
</svg>
