<?xml version="1.0" encoding="UTF-8"?>
<svg xmlns="http://www.w3.org/2000/svg" xmlns:xlink="http://www.w3.org/1999/xlink" width="px" height="px" viewBox="0 0 600 300" version="1.1">
<g id="surface1">
<rect x="0" y="0" width="600" height="300" style="fill:rgb(85.882353%,8.627451%,10.588235%);fill-opacity:1;stroke:none;"/>
<path style=" stroke:none;fill-rule:nonzero;fill:rgb(100%,100%,100%);fill-opacity:1;" d="M 150 0 L 600 0 L 600 100 L 150 100 Z M 150 0 "/>
<path style=" stroke:none;fill-rule:nonzero;fill:rgb(0%,50.196078%,0%);fill-opacity:1;" d="M 150 200 L 600 200 L 600 300 L 150 300 Z M 150 200 "/>
<path style="fill-rule:evenodd;fill:rgb(100%,100%,100%);fill-opacity:1;stroke-width:0.378;stroke-linecap:butt;stroke-linejoin:miter;stroke:rgb(85.882353%,8.627451%,10.588235%);stroke-opacity:1;stroke-miterlimit:4;" d="M 69.070312 102.640625 L 101.304688 102.640625 C 103.085938 102.640625 104.523438 103.992188 104.523438 105.65625 L 104.523438 120.84375 C 104.523438 122.507812 103.085938 123.859375 101.304688 123.859375 L 69.070312 123.859375 C 67.296875 123.859375 65.851562 122.507812 65.851562 120.84375 L 65.851562 105.65625 C 65.851562 103.992188 67.296875 102.640625 69.070312 102.640625 Z M 69.070312 102.640625 " transform="matrix(0.5,0,0,0.5,0,0)"/>
<path style="fill-rule:evenodd;fill:rgb(100%,100%,100%);fill-opacity:1;stroke-width:0.352;stroke-linecap:butt;stroke-linejoin:miter;stroke:rgb(85.882353%,8.627451%,10.588235%);stroke-opacity:1;stroke-miterlimit:4;" d="M 69.898438 103.523438 L 100.484375 103.523438 C 102.164062 103.523438 103.53125 104.757812 103.53125 106.28125 L 103.53125 120.203125 C 103.53125 121.734375 102.164062 122.96875 100.484375 122.96875 L 69.898438 122.96875 C 68.210938 122.96875 66.84375 121.734375 66.84375 120.203125 L 66.84375 106.28125 C 66.84375 104.757812 68.210938 103.523438 69.898438 103.523438 Z M 69.898438 103.523438 " transform="matrix(0.5,0,0,0.5,0,0)"/>
<path style="fill-rule:evenodd;fill:rgb(100%,100%,100%);fill-opacity:1;stroke-width:0.222;stroke-linecap:butt;stroke-linejoin:miter;stroke:rgb(85.882353%,8.627451%,10.588235%);stroke-opacity:1;stroke-miterlimit:4;" d="M 83.90625 108.828125 L 85.757812 108.890625 L 85.84375 109.726562 L 87.359375 110.5 L 88.539062 109.539062 L 89.96875 110.3125 L 88.617188 111.148438 L 88.960938 112.3125 L 90.640625 112.25 L 90.640625 113.796875 L 89.296875 113.726562 L 88.617188 114.703125 L 90.140625 115.796875 L 88.960938 116.703125 L 87.695312 115.726562 L 85.84375 116.117188 L 85.921875 117.539062 L 83.90625 117.671875 L 83.648438 116.3125 L 81.96875 115.601562 L 81.039062 116.570312 L 79.609375 115.859375 L 80.453125 114.757812 L 79.4375 114.046875 L 78.007812 114.046875 L 77.921875 112.046875 L 79.359375 112.179688 L 80.367188 111.023438 L 79.1875 110.117188 L 80.703125 109.078125 L 81.796875 109.921875 L 83.648438 109.671875 Z M 83.90625 108.828125 " transform="matrix(0.5,0,0,0.5,0,0)"/>
<path style="fill-rule:evenodd;fill:rgb(100%,100%,100%);fill-opacity:1;stroke-width:1.333;stroke-linecap:butt;stroke-linejoin:miter;stroke:rgb(85.882353%,8.627451%,10.588235%);stroke-opacity:1;stroke-miterlimit:4;" d="M 79.997828 426.767266 C 79.997828 421.282463 75.034952 416.823273 68.926797 416.823273 C 62.86106 416.823273 57.898184 421.282463 57.898184 426.767266 C 57.898184 432.252069 62.86106 436.711259 68.926797 436.711259 C 75.034952 436.711259 79.997828 432.252069 79.997828 426.767266 Z M 79.997828 426.767266 " transform="matrix(0.09209,0,0,0.0876,35.883,19.123)"/>
<path style="fill-rule:evenodd;fill:rgb(100%,100%,100%);fill-opacity:1;stroke-width:0.352;stroke-linecap:butt;stroke-linejoin:miter;stroke:rgb(85.882353%,8.627451%,10.588235%);stroke-opacity:1;stroke-miterlimit:4;" d="M 71.804688 104.40625 L 68.828125 107.0625 M 73.789062 104.40625 L 70.8125 107.0625 M 75.765625 104.40625 L 72.796875 107.0625 M 77.75 104.40625 L 74.78125 107.0625 M 79.734375 104.40625 L 76.757812 107.0625 M 81.71875 104.40625 L 78.742188 107.0625 M 83.703125 104.40625 L 80.726562 107.0625 M 85.6875 104.40625 L 82.710938 107.0625 M 87.671875 104.40625 L 84.695312 107.0625 M 89.648438 104.40625 L 86.679688 107.0625 M 91.632812 104.40625 L 88.65625 107.0625 M 93.617188 104.40625 L 90.640625 107.0625 M 85.6875 104.40625 L 82.710938 107.0625 M 95.601562 104.40625 L 92.625 107.0625 M 97.585938 104.40625 L 94.609375 107.0625 M 99.5625 104.40625 L 96.59375 107.0625 M 101.546875 104.40625 L 98.570312 107.0625 M 98.570312 104.40625 L 101.546875 107.0625 M 96.59375 104.40625 L 99.5625 107.0625 M 94.609375 104.40625 L 97.585938 107.0625 M 92.625 104.40625 L 95.601562 107.0625 M 90.640625 104.40625 L 93.617188 107.0625 M 88.65625 104.40625 L 91.632812 107.0625 M 86.679688 104.40625 L 89.648438 107.0625 M 84.695312 104.40625 L 87.671875 107.0625 M 82.710938 104.40625 L 85.6875 107.0625 M 80.726562 104.40625 L 83.703125 107.0625 M 78.742188 104.40625 L 81.71875 107.0625 M 76.757812 104.40625 L 79.734375 107.0625 M 84.695312 104.40625 L 87.671875 107.0625 M 74.78125 104.40625 L 77.75 107.0625 M 72.796875 104.40625 L 75.765625 107.0625 M 70.8125 104.40625 L 73.789062 107.0625 M 68.828125 104.40625 L 71.804688 107.0625 M 71.804688 119.429688 L 68.828125 122.09375 M 73.789062 119.429688 L 70.8125 122.09375 M 75.765625 119.429688 L 72.796875 122.09375 M 77.75 119.429688 L 74.78125 122.09375 M 79.734375 119.429688 L 76.757812 122.09375 M 81.71875 119.429688 L 78.742188 122.09375 M 83.703125 119.429688 L 80.726562 122.09375 M 85.6875 119.429688 L 82.710938 122.09375 M 87.671875 119.429688 L 84.695312 122.09375 M 89.648438 119.429688 L 86.679688 122.09375 M 91.632812 119.429688 L 88.65625 122.09375 M 93.617188 119.429688 L 90.640625 122.09375 M 85.6875 119.429688 L 82.710938 122.09375 M 95.601562 119.429688 L 92.625 122.09375 M 97.585938 119.429688 L 94.609375 122.09375 M 99.5625 119.429688 L 96.59375 122.09375 M 101.546875 119.429688 L 98.570312 122.09375 M 98.570312 119.429688 L 101.546875 122.09375 M 96.59375 119.429688 L 99.5625 122.09375 M 94.609375 119.429688 L 97.585938 122.09375 M 92.625 119.429688 L 95.601562 122.09375 M 90.640625 119.429688 L 93.617188 122.09375 M 88.65625 119.429688 L 91.632812 122.09375 M 86.679688 119.429688 L 89.648438 122.09375 M 84.695312 119.429688 L 87.671875 122.09375 M 82.710938 119.429688 L 85.6875 122.09375 M 80.726562 119.429688 L 83.703125 122.09375 M 78.742188 119.429688 L 81.71875 122.09375 M 76.757812 119.429688 L 79.734375 122.09375 M 84.695312 119.429688 L 87.671875 122.09375 M 74.78125 119.429688 L 77.75 122.09375 M 72.796875 119.429688 L 75.765625 122.09375 M 70.8125 119.429688 L 73.789062 122.09375 M 68.828125 119.429688 L 71.804688 122.09375 " transform="matrix(0.5,0,0,0.5,0,0)"/>
<path style="fill-rule:evenodd;fill:rgb(100%,100%,100%);fill-opacity:1;stroke-width:0.378;stroke-linecap:butt;stroke-linejoin:miter;stroke:rgb(85.882353%,8.627451%,10.588235%);stroke-opacity:1;stroke-miterlimit:4;" d="M 69.070312 102.640625 L 101.304688 102.640625 C 103.085938 102.640625 104.523438 103.992188 104.523438 105.65625 L 104.523438 120.84375 C 104.523438 122.507812 103.085938 123.859375 101.304688 123.859375 L 69.070312 123.859375 C 67.296875 123.859375 65.851562 122.507812 65.851562 120.84375 L 65.851562 105.65625 C 65.851562 103.992188 67.296875 102.640625 69.070312 102.640625 Z M 69.070312 102.640625 " transform="matrix(-0.5,0,0,0.5,150,0)"/>
<path style="fill-rule:evenodd;fill:rgb(100%,100%,100%);fill-opacity:1;stroke-width:0.352;stroke-linecap:butt;stroke-linejoin:miter;stroke:rgb(85.882353%,8.627451%,10.588235%);stroke-opacity:1;stroke-miterlimit:4;" d="M 69.898438 103.523438 L 100.484375 103.523438 C 102.164062 103.523438 103.53125 104.757812 103.53125 106.28125 L 103.53125 120.203125 C 103.53125 121.734375 102.164062 122.96875 100.484375 122.96875 L 69.898438 122.96875 C 68.210938 122.96875 66.84375 121.734375 66.84375 120.203125 L 66.84375 106.28125 C 66.84375 104.757812 68.210938 103.523438 69.898438 103.523438 Z M 69.898438 103.523438 " transform="matrix(-0.5,0,0,0.5,150,0)"/>
<path style="fill-rule:evenodd;fill:rgb(100%,100%,100%);fill-opacity:1;stroke-width:0.222;stroke-linecap:butt;stroke-linejoin:miter;stroke:rgb(85.882353%,8.627451%,10.588235%);stroke-opacity:1;stroke-miterlimit:4;" d="M 83.90625 108.828125 L 85.757812 108.890625 L 85.84375 109.726562 L 87.359375 110.5 L 88.539062 109.539062 L 89.96875 110.3125 L 88.617188 111.148438 L 88.960938 112.3125 L 90.640625 112.25 L 90.640625 113.796875 L 89.296875 113.726562 L 88.617188 114.703125 L 90.140625 115.796875 L 88.960938 116.703125 L 87.695312 115.726562 L 85.84375 116.117188 L 85.921875 117.539062 L 83.90625 117.671875 L 83.648438 116.3125 L 81.96875 115.601562 L 81.039062 116.570312 L 79.609375 115.859375 L 80.453125 114.757812 L 79.4375 114.046875 L 78.007812 114.046875 L 77.921875 112.046875 L 79.359375 112.179688 L 80.367188 111.023438 L 79.1875 110.117188 L 80.703125 109.078125 L 81.796875 109.921875 L 83.648438 109.671875 Z M 83.90625 108.828125 " transform="matrix(-0.5,0,0,0.5,150,0)"/>
<path style="fill-rule:evenodd;fill:rgb(100%,100%,100%);fill-opacity:1;stroke-width:1.333;stroke-linecap:butt;stroke-linejoin:miter;stroke:rgb(85.882353%,8.627451%,10.588235%);stroke-opacity:1;stroke-miterlimit:4;" d="M 79.997828 426.767266 C 79.997828 421.282463 75.034952 416.823273 68.926797 416.823273 C 62.86106 416.823273 57.898184 421.282463 57.898184 426.767266 C 57.898184 432.252069 62.86106 436.711259 68.926797 436.711259 C 75.034952 436.711259 79.997828 432.252069 79.997828 426.767266 Z M 79.997828 426.767266 " transform="matrix(-0.09209,0,0,0.0876,114.117,19.123)"/>
<path style="fill-rule:evenodd;fill:rgb(100%,100%,100%);fill-opacity:1;stroke-width:0.352;stroke-linecap:butt;stroke-linejoin:miter;stroke:rgb(85.882353%,8.627451%,10.588235%);stroke-opacity:1;stroke-miterlimit:4;" d="M 71.804688 104.40625 L 68.828125 107.0625 M 73.789062 104.40625 L 70.8125 107.0625 M 75.765625 104.40625 L 72.796875 107.0625 M 77.75 104.40625 L 74.78125 107.0625 M 79.734375 104.40625 L 76.757812 107.0625 M 81.71875 104.40625 L 78.742188 107.0625 M 83.703125 104.40625 L 80.726562 107.0625 M 85.6875 104.40625 L 82.710938 107.0625 M 87.671875 104.40625 L 84.695312 107.0625 M 89.648438 104.40625 L 86.679688 107.0625 M 91.632812 104.40625 L 88.65625 107.0625 M 93.617188 104.40625 L 90.640625 107.0625 M 85.6875 104.40625 L 82.710938 107.0625 M 95.601562 104.40625 L 92.625 107.0625 M 97.585938 104.40625 L 94.609375 107.0625 M 99.5625 104.40625 L 96.59375 107.0625 M 101.546875 104.40625 L 98.570312 107.0625 M 98.570312 104.40625 L 101.546875 107.0625 M 96.59375 104.40625 L 99.5625 107.0625 M 94.609375 104.40625 L 97.585938 107.0625 M 92.625 104.40625 L 95.601562 107.0625 M 90.640625 104.40625 L 93.617188 107.0625 M 88.65625 104.40625 L 91.632812 107.0625 M 86.679688 104.40625 L 89.648438 107.0625 M 84.695312 104.40625 L 87.671875 107.0625 M 82.710938 104.40625 L 85.6875 107.0625 M 80.726562 104.40625 L 83.703125 107.0625 M 78.742188 104.40625 L 81.71875 107.0625 M 76.757812 104.40625 L 79.734375 107.0625 M 84.695312 104.40625 L 87.671875 107.0625 M 74.78125 104.40625 L 77.75 107.0625 M 72.796875 104.40625 L 75.765625 107.0625 M 70.8125 104.40625 L 73.789062 107.0625 M 68.828125 104.40625 L 71.804688 107.0625 M 71.804688 119.429688 L 68.828125 122.09375 M 73.789062 119.429688 L 70.8125 122.09375 M 75.765625 119.429688 L 72.796875 122.09375 M 77.75 119.429688 L 74.78125 122.09375 M 79.734375 119.429688 L 76.757812 122.09375 M 81.71875 119.429688 L 78.742188 122.09375 M 83.703125 119.429688 L 80.726562 122.09375 M 85.6875 119.429688 L 82.710938 122.09375 M 87.671875 119.429688 L 84.695312 122.09375 M 89.648438 119.429688 L 86.679688 122.09375 M 91.632812 119.429688 L 88.65625 122.09375 M 93.617188 119.429688 L 90.640625 122.09375 M 85.6875 119.429688 L 82.710938 122.09375 M 95.601562 119.429688 L 92.625 122.09375 M 97.585938 119.429688 L 94.609375 122.09375 M 99.5625 119.429688 L 96.59375 122.09375 M 101.546875 119.429688 L 98.570312 122.09375 M 98.570312 119.429688 L 101.546875 122.09375 M 96.59375 119.429688 L 99.5625 122.09375 M 94.609375 119.429688 L 97.585938 122.09375 M 92.625 119.429688 L 95.601562 122.09375 M 90.640625 119.429688 L 93.617188 122.09375 M 88.65625 119.429688 L 91.632812 122.09375 M 86.679688 119.429688 L 89.648438 122.09375 M 84.695312 119.429688 L 87.671875 122.09375 M 82.710938 119.429688 L 85.6875 122.09375 M 80.726562 119.429688 L 83.703125 122.09375 M 78.742188 119.429688 L 81.71875 122.09375 M 76.757812 119.429688 L 79.734375 122.09375 M 84.695312 119.429688 L 87.671875 122.09375 M 74.78125 119.429688 L 77.75 122.09375 M 72.796875 119.429688 L 75.765625 122.09375 M 70.8125 119.429688 L 73.789062 122.09375 M 68.828125 119.429688 L 71.804688 122.09375 " transform="matrix(-0.5,0,0,0.5,150,0)"/>
<path style="fill-rule:evenodd;fill:rgb(100%,100%,100%);fill-opacity:1;stroke-width:0.565;stroke-linecap:butt;stroke-linejoin:miter;stroke:rgb(85.882353%,8.627451%,10.588235%);stroke-opacity:1;stroke-miterlimit:4;" d="M 126.507812 147.117188 C 78.398438 194.171875 57.875 200.117188 67.507812 203.90625 C 77.132812 207.703125 108.117188 183.421875 140.359375 151.15625 C 172.601562 118.90625 192.34375 90.203125 182.710938 86.414062 C 173.078125 82.617188 177.679688 97.078125 126.507812 147.117188 Z M 126.507812 147.117188 " transform="matrix(0.5,0,0,0.5,0,0)"/>
<path style="fill-rule:evenodd;fill:rgb(100%,100%,100%);fill-opacity:1;stroke-width:0.33;stroke-linecap:butt;stroke-linejoin:miter;stroke:rgb(85.882353%,8.627451%,10.588235%);stroke-opacity:1;stroke-miterlimit:4;" d="M 86.007812 181.3125 L 102.859375 185.726562 C 87 200.757812 69.148438 206.953125 64.195312 204.296875 C 59.234375 201.648438 73.117188 195.460938 86.007812 181.3125 Z M 86.007812 181.3125 " transform="matrix(0.5,0,0,0.5,0,0)"/>
<path style="fill-rule:evenodd;fill:rgb(100%,100%,100%);fill-opacity:1;stroke-width:0.33;stroke-linecap:butt;stroke-linejoin:miter;stroke:rgb(85.882353%,8.627451%,10.588235%);stroke-opacity:1;stroke-miterlimit:4;" d="M 86.007812 183.078125 L 99.890625 186.617188 C 84.4375 201.070312 69.148438 205.179688 65.195312 203.421875 C 61.21875 201.648438 73.453125 196.679688 86.007812 183.078125 Z M 86.007812 183.078125 " transform="matrix(0.5,0,0,0.5,0,0)"/>
<path style="fill:none;stroke-width:0.33;stroke-linecap:butt;stroke-linejoin:miter;stroke:rgb(85.882353%,8.627451%,10.588235%);stroke-opacity:1;stroke-miterlimit:4;" d="M 137.789062 145.0625 C 137.75 145.289062 137.640625 146.296875 137.539062 146.703125 C 137.539062 147.257812 137.476562 147.679688 137.421875 148.117188 C 137.257812 148.5 137.289062 148.851562 136.796875 148.992188 C 136.46875 149.453125 136.257812 149.570312 135.820312 149.757812 C 135.523438 149.992188 135.0625 150.21875 134.578125 150.40625 C 134.09375 150.601562 133.640625 150.617188 133.109375 150.523438 C 132.671875 150.25 132.359375 149.976562 132 149.757812 C 131.90625 149.40625 131.84375 148.898438 131.75 148.5625 C 131.882812 148.90625 131.976562 149.46875 132 149.96875 C 131.953125 150.523438 131.75 150.757812 131.507812 151.171875 M 133.226562 152.367188 C 133.1875 152.34375 133.148438 152.296875 133.109375 152.257812 C 133.398438 152.523438 133.28125 152.398438 132.609375 152.046875 C 132.140625 151.828125 131.632812 151.710938 131.007812 151.609375 L 129.289062 151.609375 C 128.617188 151.609375 128.171875 151.703125 127.6875 151.828125 C 127.34375 152.140625 126.820312 152.3125 126.460938 152.59375 C 126.078125 152.820312 125.921875 153.09375 125.71875 153.460938 C 125.382812 153.757812 125.15625 154.21875 124.851562 154.453125 C 124.71875 154.953125 124.429688 154.929688 124.242188 155.320312 C 124.820312 155.359375 125.289062 155.429688 125.59375 155.75 C 126.109375 155.992188 125.15625 155.523438 124.976562 155.320312 C 124.570312 155.210938 124.46875 155.101562 123.867188 155.101562 C 123.3125 154.9375 122.96875 155.226562 122.390625 155.320312 C 122.0625 155.492188 121.960938 155.539062 121.53125 155.539062 M 126.578125 157.828125 C 126.328125 157.84375 125.179688 158.03125 124.726562 157.828125 C 124.226562 157.710938 123.929688 157.46875 123.617188 157.0625 C 123.46875 156.773438 123.617188 157.59375 123.617188 157.9375 C 123.570312 158.578125 123.351562 158.59375 123.007812 159.03125 C 122.648438 159.226562 122.273438 159.523438 121.898438 159.679688 C 121.59375 159.921875 121.210938 160.078125 120.789062 160.226562 C 120.421875 160.382812 119.976562 160.539062 119.679688 160.773438 C 119.273438 161.03125 119.3125 161.351562 119.070312 161.75 C 119.109375 162.289062 119.210938 162.59375 119.5625 162.851562 C 119.703125 163.210938 120.03125 163.578125 120.296875 163.828125 C 120.601562 164.328125 120.9375 164.5625 120.171875 164.703125 C 119.75 164.859375 119.523438 164.726562 119.070312 164.703125 M 118.820312 165.460938 C 118.523438 165.398438 117.4375 165.078125 116.96875 164.921875 L 115.25 164.921875 C 114.578125 164.960938 114.453125 165.140625 113.890625 165.351562 C 113.53125 165.679688 113.28125 165.90625 112.78125 166.117188 C 112.523438 166.421875 112 166.929688 111.796875 167.320312 C 111.648438 167.6875 111.546875 168.1875 111.546875 168.742188 C 111.5625 169.367188 111.75 169.476562 111.796875 170.046875 C 111.9375 170.507812 112.15625 170.9375 112.539062 171.351562 C 112.59375 171.492188 112.632812 171.53125 112.78125 171.570312 M 112.953125 173 C 112.898438 173 112.78125 173.28125 112.601562 173.523438 C 112.210938 173.921875 112.15625 173.953125 111.546875 173.953125 C 111.007812 173.929688 111.0625 173.742188 110.679688 173.601562 C 110.5 173.328125 110.273438 173.109375 110.070312 172.742188 C 109.929688 172.523438 109.796875 172.171875 109.632812 171.96875 C 109.46875 171.710938 109.273438 171.523438 109.101562 171.28125 C 108.9375 171.210938 108.882812 171.140625 108.671875 171.109375 C 109.171875 171.1875 109.210938 171.359375 109.539062 171.617188 C 109.6875 171.867188 109.851562 172.117188 109.976562 172.398438 C 110.03125 172.773438 110.148438 173.0625 110.148438 173.523438 C 110.148438 173.992188 110.148438 174.328125 109.976562 174.71875 C 109.773438 174.9375 109.617188 175.15625 109.367188 175.328125 C 109.15625 175.523438 108.90625 175.78125 108.75 176.007812 C 108.476562 176.179688 108.28125 176.320312 107.96875 176.53125 C 107.703125 176.679688 107.421875 176.84375 107.007812 176.882812 C 106.492188 176.84375 106.34375 176.703125 105.960938 176.53125 C 105.632812 176.289062 105.367188 176.140625 105.078125 175.929688 C 104.851562 175.773438 104.617188 175.460938 104.46875 175.242188 C 104 175.117188 103.703125 175.171875 103.421875 175.40625 C 103.179688 175.570312 102.96875 175.78125 102.8125 176.007812 C 102.65625 176.078125 102.429688 176.289062 102.28125 176.359375 M 103.320312 176.5625 C 103.460938 176.617188 103.960938 176.96875 104.1875 177.101562 C 104.328125 177.546875 104.546875 177.796875 104.617188 178.28125 C 104.742188 178.75 104.726562 179.257812 104.726562 179.789062 C 104.609375 180.34375 104.382812 180.742188 104.1875 181.179688 C 103.84375 181.421875 103.671875 181.578125 103.210938 181.828125 C 102.78125 181.890625 102.351562 181.9375 101.796875 181.9375 C 101.460938 182.046875 100.820312 182.101562 100.492188 181.9375 C 100.007812 181.867188 99.648438 181.679688 99.296875 181.507812 C 98.890625 181.28125 98.648438 181.070312 98.210938 180.859375 C 97.992188 180.546875 97.664062 180.273438 97.335938 179.890625 C 97.070312 179.53125 96.867188 179.328125 96.6875 178.929688 C 96.84375 179.390625 97.09375 179.789062 97.226562 180.21875 C 97.476562 180.671875 97.617188 180.84375 97.664062 181.398438 C 97.8125 181.851562 97.773438 182.390625 97.773438 182.898438 C 97.726562 183.25 97.703125 183.90625 97.554688 184.1875 L 97.554688 184.523438 M 87.242188 186.226562 L 87.242188 186.390625 C 87.242188 185.96875 87.234375 186.179688 87.414062 187.007812 C 87.75 187.382812 88.523438 187.476562 89.164062 187.320312 C 89.734375 186.90625 89.710938 186.59375 90.742188 186.390625 C 91.734375 186.453125 92.109375 186.710938 92.664062 187.007812 C 93.320312 187.296875 93.625 187.453125 94.0625 188.101562 C 94.28125 188.632812 94.398438 188.992188 93.710938 189.1875 C 93.164062 189.539062 92.515625 189.726562 91.789062 189.820312 C 90.984375 189.820312 90.398438 189.726562 90.039062 190.132812 C 89.484375 190.640625 89.515625 190.953125 89.515625 191.84375 C 89.328125 192.117188 89.289062 192.9375 89.164062 193.25 C 88.679688 193.453125 88.398438 193.5625 87.59375 193.5625 C 87.40625 193.078125 87.195312 192.210938 87.070312 191.6875 C 86.929688 191.132812 86.890625 190.351562 86.539062 189.96875 C 34.085938 190.273438 -8.6875 147.992188 -8.984375 95.53125 C -9.289062 43.070312 32.992188 0.304688 85.453125 0 C 85.234375 -0.273438 84.828125 -0.492188 84.40625 -0.617188 C 85.085938 -0.3125 85.1875 0.03125 85.273438 0.78125 C 84.671875 1.046875 84.515625 1.242188 83.53125 1.25 C 82.5625 1.179688 82.328125 0.960938 81.953125 0.46875 C 81.890625 1.25 81.609375 1.507812 81.429688 2.1875 C 81.070312 2.65625 80.914062 3.140625 80.554688 3.742188 C 80.710938 4.5 81.039062 4.53125 81.078125 5.460938 C 81.304688 6.070312 81.28125 6.648438 81.78125 7.023438 C 82 7.257812 82.164062 7.3125 82.65625 7.328125 C 81.640625 7.328125 81.054688 7.226562 80.382812 6.859375 C 79.859375 6.578125 79.46875 6.21875 78.984375 5.929688 C 78.359375 5.53125 77.59375 5.15625 76.882812 4.992188 C 76.070312 4.992188 75.492188 4.90625 75.132812 5.296875 C 74.640625 5.617188 74.304688 6.15625 74.085938 6.859375 C 73.921875 7.671875 73.859375 8.210938 74.257812 8.726562 C 74.554688 9.34375 74.625 9.570312 74.257812 10.289062 C 73.851562 10.796875 73.25 10.859375 72.335938 11.070312 C 69.601562 13.023438 65.84375 12.648438 63.5625 10.1875 C 61.273438 7.726562 61.164062 3.953125 63.3125 1.375 C 65.460938 -1.210938 69.1875 -1.796875 72.023438 0 " transform="matrix(0.5,0,0,0.5,0,0)"/>
<path style="fill-rule:evenodd;fill:rgb(100%,100%,100%);fill-opacity:1;stroke-width:0.447;stroke-linecap:butt;stroke-linejoin:miter;stroke:rgb(85.882353%,8.627451%,10.588235%);stroke-opacity:1;stroke-miterlimit:4;" d="M 181.40625 104.65625 C 202.757812 67.804688 216.929688 36.4375 213.03125 34.648438 C 209.140625 32.851562 188.65625 61.3125 167.3125 98.164062 Z M 181.40625 104.65625 " transform="matrix(0.5,0,0,0.5,0,0)"/>
<path style="fill-rule:evenodd;fill:rgb(100%,100%,100%);fill-opacity:1;stroke-width:0.393;stroke-linecap:butt;stroke-linejoin:miter;stroke:rgb(85.882353%,8.627451%,10.588235%);stroke-opacity:1;stroke-miterlimit:4;" d="M 180 104.007812 C 200.59375 68.453125 214.78125 38.4375 211.671875 37 C 208.5625 35.570312 189.320312 63.257812 168.71875 98.8125 " transform="matrix(0.5,0,0,0.5,0,0)"/>
<path style="fill-rule:evenodd;fill:rgb(100%,100%,100%);fill-opacity:1;stroke-width:0.446;stroke-linecap:butt;stroke-linejoin:miter;stroke:rgb(85.882353%,8.627451%,10.588235%);stroke-opacity:1;stroke-miterlimit:4;" d="M 176.460938 85.460938 C 173.953125 89.617188 171.296875 94.367188 168.71875 98.8125 L 180 104.007812 C 182.570312 99.5625 185.382812 94.882812 187.726562 90.65625 Z M 176.460938 85.460938 " transform="matrix(0.5,0,0,0.5,0,0)"/>
<path style="fill-rule:evenodd;fill:rgb(100%,100%,100%);fill-opacity:1;stroke-width:0.446;stroke-linecap:butt;stroke-linejoin:miter;stroke:rgb(85.882353%,8.627451%,10.588235%);stroke-opacity:1;stroke-miterlimit:4;" d="M 177.40625 86.898438 C 174.90625 91.054688 173.15625 94.234375 170.59375 98.679688 L 179.039062 102.570312 C 181.617188 98.125 183.523438 95.015625 185.867188 90.789062 Z M 177.40625 86.898438 " transform="matrix(0.5,0,0,0.5,0,0)"/>
<path style="fill-rule:nonzero;fill:rgb(100%,100%,100%);fill-opacity:1;stroke-width:0.447;stroke-linecap:butt;stroke-linejoin:miter;stroke:rgb(85.882353%,8.627451%,10.588235%);stroke-opacity:1;stroke-miterlimit:4;" d="M -205.692685 6.559411 L -199.480655 6.555647 L -199.478498 16.542388 L -205.690529 16.546152 Z M -205.692685 6.559411 " transform="matrix(-0.45416,-0.209135,-0.250625,0.43265,0,0)"/>
<path style="fill-rule:evenodd;fill:rgb(100%,100%,100%);fill-opacity:1;stroke-width:0.446;stroke-linecap:butt;stroke-linejoin:miter;stroke:rgb(85.882353%,8.627451%,10.588235%);stroke-opacity:1;stroke-miterlimit:4;" d="M 183.546875 91.710938 L 172.90625 97.757812 M 178.539062 100.351562 L 177.90625 89.117188 M 209.03125 47.726562 L 203.390625 45.132812 " transform="matrix(0.5,0,0,0.5,0,0)"/>
<path style="fill-rule:nonzero;fill:rgb(85.882353%,8.627451%,10.588235%);fill-opacity:1;stroke-width:1.333;stroke-linecap:butt;stroke-linejoin:miter;stroke:rgb(85.882353%,8.627451%,10.588235%);stroke-opacity:1;stroke-miterlimit:4;" d="M 549.212739 92.120161 C 549.220451 94.081632 547.630023 95.669336 545.665905 95.678446 C 543.713922 95.664233 542.120767 94.079085 542.133599 92.131545 C 542.125886 90.170074 543.716314 88.582371 545.664093 88.577956 C 547.632415 88.587473 549.20923 90.177318 549.212739 92.120161 Z M 549.212739 92.120161 " transform="matrix(-0.2245,0.0566,0.05067,0.196935,222.1735,-27.899)"/>
<path style="fill-rule:evenodd;fill:rgb(100%,100%,100%);fill-opacity:1;stroke-width:0.565;stroke-linecap:butt;stroke-linejoin:miter;stroke:rgb(85.882353%,8.627451%,10.588235%);stroke-opacity:1;stroke-miterlimit:4;" d="M 126.507812 147.117188 C 78.398438 194.171875 57.875 200.117188 67.507812 203.90625 C 77.132812 207.703125 108.117188 183.421875 140.359375 151.15625 C 172.601562 118.90625 192.34375 90.203125 182.710938 86.414062 C 173.078125 82.617188 177.679688 97.078125 126.507812 147.117188 Z M 126.507812 147.117188 " transform="matrix(-0.5,0,0,0.5,150,0)"/>
<path style="fill-rule:evenodd;fill:rgb(100%,100%,100%);fill-opacity:1;stroke-width:0.33;stroke-linecap:butt;stroke-linejoin:miter;stroke:rgb(85.882353%,8.627451%,10.588235%);stroke-opacity:1;stroke-miterlimit:4;" d="M 86.007812 181.3125 L 102.859375 185.726562 C 87 200.757812 69.148438 206.953125 64.195312 204.296875 C 59.234375 201.648438 73.117188 195.460938 86.007812 181.3125 Z M 86.007812 181.3125 " transform="matrix(-0.5,0,0,0.5,150,0)"/>
<path style="fill-rule:evenodd;fill:rgb(100%,100%,100%);fill-opacity:1;stroke-width:0.33;stroke-linecap:butt;stroke-linejoin:miter;stroke:rgb(85.882353%,8.627451%,10.588235%);stroke-opacity:1;stroke-miterlimit:4;" d="M 86.007812 183.078125 L 99.890625 186.617188 C 84.4375 201.070312 69.148438 205.179688 65.195312 203.421875 C 61.21875 201.648438 73.453125 196.679688 86.007812 183.078125 Z M 86.007812 183.078125 " transform="matrix(-0.5,0,0,0.5,150,0)"/>
<path style="fill:none;stroke-width:0.33;stroke-linecap:butt;stroke-linejoin:miter;stroke:rgb(85.882353%,8.627451%,10.588235%);stroke-opacity:1;stroke-miterlimit:4;" d="M 137.789062 145.0625 C 137.75 145.289062 137.640625 146.296875 137.539062 146.703125 C 137.539062 147.257812 137.476562 147.679688 137.421875 148.117188 C 137.257812 148.5 137.289062 148.851562 136.796875 148.992188 C 136.46875 149.453125 136.257812 149.570312 135.820312 149.757812 C 135.523438 149.992188 135.0625 150.21875 134.578125 150.40625 C 134.09375 150.601562 133.640625 150.617188 133.109375 150.523438 C 132.671875 150.25 132.359375 149.976562 132 149.757812 C 131.90625 149.40625 131.84375 148.898438 131.75 148.5625 C 131.882812 148.90625 131.976562 149.46875 132 149.96875 C 131.953125 150.523438 131.75 150.757812 131.507812 151.171875 M 133.226562 152.367188 C 133.1875 152.34375 133.148438 152.296875 133.109375 152.257812 C 133.398438 152.523438 133.28125 152.398438 132.609375 152.046875 C 132.140625 151.828125 131.632812 151.710938 131.007812 151.609375 L 129.289062 151.609375 C 128.617188 151.609375 128.171875 151.703125 127.6875 151.828125 C 127.34375 152.140625 126.820312 152.3125 126.460938 152.59375 C 126.078125 152.820312 125.921875 153.09375 125.71875 153.460938 C 125.382812 153.757812 125.15625 154.21875 124.851562 154.453125 C 124.71875 154.953125 124.429688 154.929688 124.242188 155.320312 C 124.820312 155.359375 125.289062 155.429688 125.59375 155.75 C 126.109375 155.992188 125.15625 155.523438 124.976562 155.320312 C 124.570312 155.210938 124.46875 155.101562 123.867188 155.101562 C 123.3125 154.9375 122.96875 155.226562 122.390625 155.320312 C 122.0625 155.492188 121.960938 155.539062 121.53125 155.539062 M 126.578125 157.828125 C 126.328125 157.84375 125.179688 158.03125 124.726562 157.828125 C 124.226562 157.710938 123.929688 157.46875 123.617188 157.0625 C 123.46875 156.773438 123.617188 157.59375 123.617188 157.9375 C 123.570312 158.578125 123.351562 158.59375 123.007812 159.03125 C 122.648438 159.226562 122.273438 159.523438 121.898438 159.679688 C 121.59375 159.921875 121.210938 160.078125 120.789062 160.226562 C 120.421875 160.382812 119.976562 160.539062 119.679688 160.773438 C 119.273438 161.03125 119.3125 161.351562 119.070312 161.75 C 119.109375 162.289062 119.210938 162.59375 119.5625 162.851562 C 119.703125 163.210938 120.03125 163.578125 120.296875 163.828125 C 120.601562 164.328125 120.9375 164.5625 120.171875 164.703125 C 119.75 164.859375 119.523438 164.726562 119.070312 164.703125 M 118.820312 165.460938 C 118.523438 165.398438 117.4375 165.078125 116.96875 164.921875 L 115.25 164.921875 C 114.578125 164.960938 114.453125 165.140625 113.890625 165.351562 C 113.53125 165.679688 113.28125 165.90625 112.78125 166.117188 C 112.523438 166.421875 112 166.929688 111.796875 167.320312 C 111.648438 167.6875 111.546875 168.1875 111.546875 168.742188 C 111.5625 169.367188 111.75 169.476562 111.796875 170.046875 C 111.9375 170.507812 112.15625 170.9375 112.539062 171.351562 C 112.59375 171.492188 112.632812 171.53125 112.78125 171.570312 M 112.953125 173 C 112.898438 173 112.78125 173.28125 112.601562 173.523438 C 112.210938 173.921875 112.15625 173.953125 111.546875 173.953125 C 111.007812 173.929688 111.0625 173.742188 110.679688 173.601562 C 110.5 173.328125 110.273438 173.109375 110.070312 172.742188 C 109.929688 172.523438 109.796875 172.171875 109.632812 171.96875 C 109.46875 171.710938 109.273438 171.523438 109.101562 171.28125 C 108.9375 171.210938 108.882812 171.140625 108.671875 171.109375 C 109.171875 171.1875 109.210938 171.359375 109.539062 171.617188 C 109.6875 171.867188 109.851562 172.117188 109.976562 172.398438 C 110.03125 172.773438 110.148438 173.0625 110.148438 173.523438 C 110.148438 173.992188 110.148438 174.328125 109.976562 174.71875 C 109.773438 174.9375 109.617188 175.15625 109.367188 175.328125 C 109.15625 175.523438 108.90625 175.78125 108.75 176.007812 C 108.476562 176.179688 108.28125 176.320312 107.96875 176.53125 C 107.703125 176.679688 107.421875 176.84375 107.007812 176.882812 C 106.492188 176.84375 106.34375 176.703125 105.960938 176.53125 C 105.632812 176.289062 105.367188 176.140625 105.078125 175.929688 C 104.851562 175.773438 104.617188 175.460938 104.46875 175.242188 C 104 175.117188 103.703125 175.171875 103.421875 175.40625 C 103.179688 175.570312 102.96875 175.78125 102.8125 176.007812 C 102.65625 176.078125 102.429688 176.289062 102.28125 176.359375 M 103.320312 176.5625 C 103.460938 176.617188 103.960938 176.96875 104.1875 177.101562 C 104.328125 177.546875 104.546875 177.796875 104.617188 178.28125 C 104.742188 178.75 104.726562 179.257812 104.726562 179.789062 C 104.609375 180.34375 104.382812 180.742188 104.1875 181.179688 C 103.84375 181.421875 103.671875 181.578125 103.210938 181.828125 C 102.78125 181.890625 102.351562 181.9375 101.796875 181.9375 C 101.460938 182.046875 100.820312 182.101562 100.492188 181.9375 C 100.007812 181.867188 99.648438 181.679688 99.296875 181.507812 C 98.890625 181.28125 98.648438 181.070312 98.210938 180.859375 C 97.992188 180.546875 97.664062 180.273438 97.335938 179.890625 C 97.070312 179.53125 96.867188 179.328125 96.6875 178.929688 C 96.84375 179.390625 97.09375 179.789062 97.226562 180.21875 C 97.476562 180.671875 97.617188 180.84375 97.664062 181.398438 C 97.8125 181.851562 97.773438 182.390625 97.773438 182.898438 C 97.726562 183.25 97.703125 183.90625 97.554688 184.1875 L 97.554688 184.523438 M 87.242188 186.226562 L 87.242188 186.390625 C 87.242188 185.96875 87.234375 186.179688 87.414062 187.007812 C 87.75 187.382812 88.523438 187.476562 89.164062 187.320312 C 89.734375 186.90625 89.710938 186.59375 90.742188 186.390625 C 91.734375 186.453125 92.109375 186.710938 92.664062 187.007812 C 93.320312 187.296875 93.625 187.453125 94.0625 188.101562 C 94.28125 188.632812 94.398438 188.992188 93.710938 189.1875 C 93.164062 189.539062 92.515625 189.726562 91.789062 189.820312 C 90.984375 189.820312 90.398438 189.726562 90.039062 190.132812 C 89.484375 190.640625 89.515625 190.953125 89.515625 191.84375 C 89.328125 192.117188 89.289062 192.9375 89.164062 193.25 C 88.679688 193.453125 88.398438 193.5625 87.59375 193.5625 C 87.40625 193.078125 87.195312 192.210938 87.070312 191.6875 C 86.929688 191.132812 86.890625 190.351562 86.539062 189.96875 C 34.085938 190.273438 -8.6875 147.992188 -8.984375 95.53125 C -9.289062 43.070312 32.992188 0.304688 85.453125 0 C 85.234375 -0.273438 84.828125 -0.492188 84.40625 -0.617188 C 85.085938 -0.3125 85.1875 0.03125 85.273438 0.78125 C 84.671875 1.046875 84.515625 1.242188 83.53125 1.25 C 82.5625 1.179688 82.328125 0.960938 81.953125 0.46875 C 81.890625 1.25 81.609375 1.507812 81.429688 2.1875 C 81.070312 2.65625 80.914062 3.140625 80.554688 3.742188 C 80.710938 4.5 81.039062 4.53125 81.078125 5.460938 C 81.304688 6.070312 81.28125 6.648438 81.78125 7.023438 C 82 7.257812 82.164062 7.3125 82.65625 7.328125 C 81.640625 7.328125 81.054688 7.226562 80.382812 6.859375 C 79.859375 6.578125 79.46875 6.21875 78.984375 5.929688 C 78.359375 5.53125 77.59375 5.15625 76.882812 4.992188 C 76.070312 4.992188 75.492188 4.90625 75.132812 5.296875 C 74.640625 5.617188 74.304688 6.15625 74.085938 6.859375 C 73.921875 7.671875 73.859375 8.210938 74.257812 8.726562 C 74.554688 9.34375 74.625 9.570312 74.257812 10.289062 C 73.851562 10.796875 73.25 10.859375 72.335938 11.070312 C 69.601562 13.023438 65.84375 12.648438 63.5625 10.1875 C 61.273438 7.726562 61.164062 3.953125 63.3125 1.375 C 65.460938 -1.210938 69.1875 -1.796875 72.023438 0 " transform="matrix(-0.5,0,0,0.5,150,0)"/>
<path style="fill-rule:evenodd;fill:rgb(100%,100%,100%);fill-opacity:1;stroke-width:0.447;stroke-linecap:butt;stroke-linejoin:miter;stroke:rgb(85.882353%,8.627451%,10.588235%);stroke-opacity:1;stroke-miterlimit:4;" d="M 181.40625 104.65625 C 202.757812 67.804688 216.929688 36.4375 213.03125 34.648438 C 209.140625 32.851562 188.65625 61.3125 167.3125 98.164062 Z M 181.40625 104.65625 " transform="matrix(-0.5,0,0,0.5,150,0)"/>
<path style="fill-rule:evenodd;fill:rgb(100%,100%,100%);fill-opacity:1;stroke-width:0.393;stroke-linecap:butt;stroke-linejoin:miter;stroke:rgb(85.882353%,8.627451%,10.588235%);stroke-opacity:1;stroke-miterlimit:4;" d="M 180 104.007812 C 200.59375 68.453125 214.78125 38.4375 211.671875 37 C 208.5625 35.570312 189.320312 63.257812 168.71875 98.8125 " transform="matrix(-0.5,0,0,0.5,150,0)"/>
<path style="fill-rule:evenodd;fill:rgb(100%,100%,100%);fill-opacity:1;stroke-width:0.446;stroke-linecap:butt;stroke-linejoin:miter;stroke:rgb(85.882353%,8.627451%,10.588235%);stroke-opacity:1;stroke-miterlimit:4;" d="M 176.460938 85.460938 C 173.953125 89.617188 171.296875 94.367188 168.71875 98.8125 L 180 104.007812 C 182.570312 99.5625 185.382812 94.882812 187.726562 90.65625 Z M 176.460938 85.460938 " transform="matrix(-0.5,0,0,0.5,150,0)"/>
<path style="fill-rule:evenodd;fill:rgb(100%,100%,100%);fill-opacity:1;stroke-width:0.446;stroke-linecap:butt;stroke-linejoin:miter;stroke:rgb(85.882353%,8.627451%,10.588235%);stroke-opacity:1;stroke-miterlimit:4;" d="M 177.40625 86.898438 C 174.90625 91.054688 173.15625 94.234375 170.59375 98.679688 L 179.039062 102.570312 C 181.617188 98.125 183.523438 95.015625 185.867188 90.789062 Z M 177.40625 86.898438 " transform="matrix(-0.5,0,0,0.5,150,0)"/>
<path style="fill-rule:nonzero;fill:rgb(100%,100%,100%);fill-opacity:1;stroke-width:0.447;stroke-linecap:butt;stroke-linejoin:miter;stroke:rgb(85.882353%,8.627451%,10.588235%);stroke-opacity:1;stroke-miterlimit:4;" d="M -205.692685 6.559411 L -199.480655 6.555647 L -199.478498 16.542388 L -205.690529 16.546152 Z M -205.692685 6.559411 " transform="matrix(0.45416,-0.209135,0.250625,0.43265,150,0)"/>
<path style="fill-rule:evenodd;fill:rgb(100%,100%,100%);fill-opacity:1;stroke-width:0.446;stroke-linecap:butt;stroke-linejoin:miter;stroke:rgb(85.882353%,8.627451%,10.588235%);stroke-opacity:1;stroke-miterlimit:4;" d="M 183.546875 91.710938 L 172.90625 97.757812 M 178.539062 100.351562 L 177.90625 89.117188 M 209.03125 47.726562 L 203.390625 45.132812 " transform="matrix(-0.5,0,0,0.5,150,0)"/>
<path style="fill-rule:nonzero;fill:rgb(85.882353%,8.627451%,10.588235%);fill-opacity:1;stroke-width:1.333;stroke-linecap:butt;stroke-linejoin:miter;stroke:rgb(85.882353%,8.627451%,10.588235%);stroke-opacity:1;stroke-miterlimit:4;" d="M 549.212739 92.120161 C 549.220451 94.081632 547.630023 95.669336 545.665905 95.678446 C 543.713922 95.664233 542.120767 94.079085 542.133599 92.131545 C 542.125886 90.170074 543.716314 88.582371 545.664093 88.577956 C 547.632415 88.587473 549.20923 90.177318 549.212739 92.120161 Z M 549.212739 92.120161 " transform="matrix(0.2245,0.0566,-0.05067,0.196935,-72.1735,-27.899)"/>
<path style="fill-rule:evenodd;fill:rgb(100%,100%,100%);fill-opacity:1;stroke-width:0.407;stroke-linecap:butt;stroke-linejoin:miter;stroke:rgb(85.882353%,8.627451%,10.588235%);stroke-opacity:1;stroke-miterlimit:4;" d="M 135.257812 84.960938 C 135.257812 115.898438 135.4375 127.5625 133.15625 129.15625 C 131 130.867188 70.8125 129.15625 70.8125 138 C 70.8125 146.84375 120.390625 155.679688 135.257812 155.679688 C 155.09375 155.679688 165.007812 146.84375 165.007812 129.15625 L 165.007812 84.960938 Z M 135.257812 84.960938 " transform="matrix(0.5,0,0,0.5,0,0)"/>
<path style="fill-rule:evenodd;fill:rgb(100%,100%,100%);fill-opacity:1;stroke-width:0.352;stroke-linecap:butt;stroke-linejoin:miter;stroke:rgb(85.882353%,8.627451%,10.588235%);stroke-opacity:1;stroke-miterlimit:4;" d="M 135.257812 93.796875 L 135.257812 98.21875 C 182.695312 80.789062 209.851562 30.875 198.710938 -18.421875 C 187.570312 -67.710938 141.59375 -101.101562 91.273438 -96.4375 C 40.945312 -91.773438 1.890625 -50.5 0 0 L 0 -4.421875 C 1.210938 -59.554688 46.570312 -103.4375 101.710938 -102.828125 C 156.851562 -102.226562 201.234375 -57.351562 201.234375 -2.210938 C 201.234375 52.9375 156.851562 97.804688 101.710938 98.414062 C 46.570312 99.015625 1.210938 55.132812 0 0 Z M 135.257812 84.960938 L 135.257812 89.375 C 183.804688 71.5625 210.960938 19.867188 198.085938 -30.21875 C 185.21875 -80.296875 136.5 -112.492188 85.375 -104.695312 C 34.257812 -96.898438 -2.648438 -51.640625 0 0 L 0 -4.421875 C 1.210938 -59.585938 46.601562 -103.507812 101.773438 -102.898438 C 156.953125 -102.296875 201.367188 -57.390625 201.367188 -2.210938 C 201.367188 52.96875 156.953125 97.875 101.773438 98.476562 C 46.601562 99.085938 1.210938 55.164062 0 0 Z M 135.257812 84.960938 " transform="matrix(0.5,0,0,0.5,0,0)"/>
<path style="fill-rule:evenodd;fill:rgb(100%,100%,100%);fill-opacity:1;stroke-width:0.352;stroke-linecap:butt;stroke-linejoin:miter;stroke:rgb(85.882353%,8.627451%,10.588235%);stroke-opacity:1;stroke-miterlimit:4;" d="M 135.257812 89.375 L 135.257812 93.796875 C 183.25 76.203125 210.429688 25.429688 198.453125 -24.257812 C 186.476562 -73.953125 139.148438 -106.765625 88.414062 -100.5625 C 37.679688 -94.367188 -0.34375 -51.109375 0 0 L 0 -4.421875 C 1.210938 -59.585938 46.601562 -103.507812 101.773438 -102.898438 C 156.953125 -102.296875 201.367188 -57.390625 201.367188 -2.210938 C 201.367188 52.96875 156.953125 97.875 101.773438 98.476562 C 46.601562 99.085938 1.210938 55.164062 0 0 Z M 135.257812 98.21875 L 135.257812 102.640625 C 145.179688 104.109375 155.09375 104.109375 165.007812 102.640625 L 165.007812 98.21875 C 142.65625 138.195312 96.125 158.03125 51.804688 146.484375 C 7.484375 134.9375 -23.445312 94.914062 -23.445312 49.109375 C -23.445312 3.304688 7.484375 -36.71875 51.804688 -48.265625 C 96.125 -59.820312 142.65625 -39.976562 165.007812 0 Z M 135.257812 98.21875 " transform="matrix(0.5,0,0,0.5,0,0)"/>
<path style="fill-rule:nonzero;fill:rgb(100%,100%,100%);fill-opacity:1;stroke-width:4.463;stroke-linecap:butt;stroke-linejoin:miter;stroke:rgb(85.882353%,8.627451%,10.588235%);stroke-opacity:1;stroke-miterlimit:4;" d="M 265.727167 210.831243 C 265.727167 196.242684 261.785855 184.267001 256.872011 184.267001 C 252.009353 184.267001 248.016854 196.242684 248.016854 210.831243 C 248.016854 225.419802 252.009353 237.395485 256.872011 237.395485 C 261.785855 237.395485 265.727167 225.419802 265.727167 210.831243 Z M 265.727167 210.831243 " transform="matrix(0.076315,0,0,0.01794,48.7015,42.163)"/>
<path style="fill-rule:nonzero;fill:rgb(100%,100%,100%);fill-opacity:1;stroke-width:4.463;stroke-linecap:butt;stroke-linejoin:miter;stroke:rgb(85.882353%,8.627451%,10.588235%);stroke-opacity:1;stroke-miterlimit:4;" d="M 301.198978 246.298425 C 301.198978 231.492127 297.20648 219.734183 292.343822 219.734183 C 287.429978 219.734183 283.43748 231.492127 283.43748 246.298425 C 283.43748 260.886984 287.429978 272.862667 292.343822 272.862667 C 297.20648 272.862667 301.198978 260.886984 301.198978 246.298425 Z M 301.198978 246.298425 " transform="matrix(0.076315,0,0,0.01794,48.7015,41.765)"/>
<path style="fill-rule:nonzero;fill:rgb(100%,100%,100%);fill-opacity:1;stroke-width:4.463;stroke-linecap:butt;stroke-linejoin:miter;stroke:rgb(85.882353%,8.627451%,10.588235%);stroke-opacity:1;stroke-miterlimit:4;" d="M 336.619603 263.984114 C 336.619603 249.395555 332.627105 237.419872 327.764447 237.419872 C 322.850603 237.419872 318.90929 249.395555 318.90929 263.984114 C 318.90929 278.572673 322.850603 290.548356 327.764447 290.548356 C 332.627105 290.548356 336.619603 278.572673 336.619603 263.984114 Z M 336.619603 263.984114 " transform="matrix(0.076315,0,0,0.01794,48.7015,41.686)"/>
<path style="fill-rule:nonzero;fill:rgb(100%,100%,100%);fill-opacity:1;stroke-width:4.463;stroke-linecap:butt;stroke-linejoin:miter;stroke:rgb(85.882353%,8.627451%,10.588235%);stroke-opacity:1;stroke-miterlimit:4;" d="M 372.040228 263.984114 C 372.040228 249.395555 368.098916 237.419872 363.185072 237.419872 C 358.322414 237.419872 354.329915 249.395555 354.329915 263.984114 C 354.329915 278.572673 358.322414 290.548356 363.185072 290.548356 C 368.098916 290.548356 372.040228 278.572673 372.040228 263.984114 Z M 372.040228 263.984114 " transform="matrix(0.076315,0,0,0.01794,48.7015,41.686)"/>
<path style="fill-rule:nonzero;fill:rgb(100%,100%,100%);fill-opacity:1;stroke-width:4.463;stroke-linecap:butt;stroke-linejoin:miter;stroke:rgb(85.882353%,8.627451%,10.588235%);stroke-opacity:1;stroke-miterlimit:4;" d="M 407.460853 246.298425 C 407.460853 231.492127 403.519541 219.734183 398.605697 219.734183 C 393.743039 219.734183 389.750541 231.492127 389.750541 246.298425 C 389.750541 260.886984 393.743039 272.862667 398.605697 272.862667 C 403.519541 272.862667 407.460853 260.886984 407.460853 246.298425 Z M 407.460853 246.298425 " transform="matrix(0.076315,0,0,0.01794,48.7015,41.765)"/>
<path style="fill-rule:nonzero;fill:rgb(100%,100%,100%);fill-opacity:1;stroke-width:4.463;stroke-linecap:butt;stroke-linejoin:miter;stroke:rgb(85.882353%,8.627451%,10.588235%);stroke-opacity:1;stroke-miterlimit:4;" d="M 442.932664 210.831243 C 442.932664 196.242684 438.940166 184.267001 434.077508 184.267001 C 429.163664 184.267001 425.222351 196.242684 425.222351 210.831243 C 425.222351 225.419802 429.163664 237.395485 434.077508 237.395485 C 438.940166 237.395485 442.932664 225.419802 442.932664 210.831243 Z M 442.932664 210.831243 " transform="matrix(0.076315,0,0,0.01794,48.7015,42.163)"/>
<path style="fill-rule:evenodd;fill:rgb(100%,100%,100%);fill-opacity:1;stroke-width:0.352;stroke-linecap:butt;stroke-linejoin:miter;stroke:rgb(85.882353%,8.627451%,10.588235%);stroke-opacity:1;stroke-miterlimit:4;" d="M 135.257812 107.0625 L 165.007812 130.929688 M 138.226562 107.0625 L 165.007812 128.273438 M 142.203125 107.9375 L 165.007812 125.617188 M 145.179688 107.9375 L 165.007812 122.96875 M 148.148438 107.9375 L 165.007812 120.320312 M 151.117188 107.9375 L 165.007812 117.671875 M 154.101562 107.9375 L 165.007812 115.007812 M 157.070312 107.9375 L 165.007812 113.25 M 160.046875 107.9375 L 165.007812 111.476562 M 163.023438 107.9375 L 165.007812 109.710938 M 135.257812 109.710938 L 165.007812 133.578125 M 165.007812 107.0625 L 132.289062 133.578125 M 162.03125 107.0625 L 133.28125 130.039062 M 158.070312 107.9375 L 135.257812 125.617188 M 155.09375 107.9375 L 135.257812 122.96875 M 152.117188 107.9375 L 135.257812 120.320312 M 149.140625 107.9375 L 135.257812 117.671875 M 146.171875 107.9375 L 135.257812 115.007812 M 143.1875 107.9375 L 135.257812 113.25 M 140.21875 107.9375 L 135.257812 111.476562 M 137.242188 107.9375 L 135.257812 109.710938 M 165.007812 109.710938 L 132.289062 136.226562 M 165.007812 112.359375 L 132.289062 138.882812 M 165.007812 115.007812 L 132.289062 141.539062 M 165.007812 117.671875 L 132.289062 144.1875 M 165.007812 120.320312 L 132.289062 146.84375 M 165.007812 122.96875 L 132.289062 149.492188 M 165.007812 125.617188 L 132.289062 152.140625 M 165.007812 128.28125 L 132.289062 154.796875 M 165.007812 130.929688 L 134.273438 155.679688 M 165.007812 133.578125 L 137.242188 155.679688 M 164.007812 137.117188 L 142.203125 154.796875 M 163.023438 140.648438 L 145.179688 154.796875 M 161.039062 145.070312 L 152.117188 152.140625 M 135.257812 112.359375 L 164.007812 135.351562 M 135.257812 115.007812 L 164.007812 138 M 135.257812 117.671875 L 163.023438 139.773438 M 135.257812 120.320312 L 163.023438 142.421875 M 135.257812 122.96875 L 162.03125 144.1875 M 134.273438 124.742188 L 161.039062 145.960938 M 134.273438 127.390625 L 159.0625 146.84375 M 133.28125 129.15625 L 158.070312 148.609375 M 132.289062 130.929688 L 156.078125 149.492188 M 132.289062 133.578125 L 155.09375 151.257812 M 132.289062 136.226562 L 152.117188 152.140625 M 135.257812 102.640625 L 135.257812 107.0625 C 145.179688 108.53125 155.09375 108.53125 165.007812 107.0625 L 165.007812 102.640625 C 155.09375 104.109375 145.179688 104.109375 135.257812 102.640625 Z M 132.289062 138.882812 L 150.132812 153.03125 M 132.289062 141.539062 L 148.148438 153.90625 M 132.289062 144.1875 L 146.171875 154.796875 M 132.289062 146.84375 L 142.203125 154.796875 M 132.289062 149.492188 L 140.21875 155.679688 M 132.289062 152.140625 L 137.242188 155.679688 " transform="matrix(0.5,0,0,0.5,0,0)"/>
<path style="fill-rule:nonzero;fill:rgb(100%,100%,100%);fill-opacity:1;stroke-width:4.463;stroke-linecap:butt;stroke-linejoin:miter;stroke:rgb(85.882353%,8.627451%,10.588235%);stroke-opacity:1;stroke-miterlimit:4;" d="M 265.727167 210.770276 C 265.727167 196.181717 261.785855 184.206034 256.872011 184.206034 C 252.009353 184.206034 248.016854 196.181717 248.016854 210.770276 C 248.016854 225.576575 252.009353 237.334518 256.872011 237.334518 C 261.785855 237.334518 265.727167 225.576575 265.727167 210.770276 Z M 265.727167 210.770276 " transform="matrix(0.076315,0,0,0.01794,48.7015,48.793)"/>
<path style="fill-rule:nonzero;fill:rgb(100%,100%,100%);fill-opacity:1;stroke-width:4.463;stroke-linecap:butt;stroke-linejoin:miter;stroke:rgb(85.882353%,8.627451%,10.588235%);stroke-opacity:1;stroke-miterlimit:4;" d="M 301.198978 246.209588 C 301.198978 231.621028 297.20648 219.645346 292.343822 219.645346 C 287.429978 219.645346 283.43748 231.621028 283.43748 246.209588 C 283.43748 261.015886 287.429978 272.773829 292.343822 272.773829 C 297.20648 272.773829 301.198978 261.015886 301.198978 246.209588 Z M 301.198978 246.209588 " transform="matrix(0.076315,0,0,0.01794,48.7015,48.3955)"/>
<path style="fill-rule:nonzero;fill:rgb(100%,100%,100%);fill-opacity:1;stroke-width:4.463;stroke-linecap:butt;stroke-linejoin:miter;stroke:rgb(85.882353%,8.627451%,10.588235%);stroke-opacity:1;stroke-miterlimit:4;" d="M 336.619603 263.923147 C 336.619603 249.334588 332.627105 237.358905 327.764447 237.358905 C 322.850603 237.358905 318.90929 249.334588 318.90929 263.923147 C 318.90929 278.729445 322.850603 290.487389 327.764447 290.487389 C 332.627105 290.487389 336.619603 278.729445 336.619603 263.923147 Z M 336.619603 263.923147 " transform="matrix(0.076315,0,0,0.01794,48.7015,48.316)"/>
<path style="fill-rule:nonzero;fill:rgb(100%,100%,100%);fill-opacity:1;stroke-width:4.463;stroke-linecap:butt;stroke-linejoin:miter;stroke:rgb(85.882353%,8.627451%,10.588235%);stroke-opacity:1;stroke-miterlimit:4;" d="M 372.040228 263.923147 C 372.040228 249.334588 368.098916 237.358905 363.185072 237.358905 C 358.322414 237.358905 354.329915 249.334588 354.329915 263.923147 C 354.329915 278.729445 358.322414 290.487389 363.185072 290.487389 C 368.098916 290.487389 372.040228 278.729445 372.040228 263.923147 Z M 372.040228 263.923147 " transform="matrix(0.076315,0,0,0.01794,48.7015,48.316)"/>
<path style="fill-rule:nonzero;fill:rgb(100%,100%,100%);fill-opacity:1;stroke-width:4.463;stroke-linecap:butt;stroke-linejoin:miter;stroke:rgb(85.882353%,8.627451%,10.588235%);stroke-opacity:1;stroke-miterlimit:4;" d="M 407.460853 246.209588 C 407.460853 231.621028 403.519541 219.645346 398.605697 219.645346 C 393.743039 219.645346 389.750541 231.621028 389.750541 246.209588 C 389.750541 261.015886 393.743039 272.773829 398.605697 272.773829 C 403.519541 272.773829 407.460853 261.015886 407.460853 246.209588 Z M 407.460853 246.209588 " transform="matrix(0.076315,0,0,0.01794,48.7015,48.3955)"/>
<path style="fill-rule:nonzero;fill:rgb(100%,100%,100%);fill-opacity:1;stroke-width:4.463;stroke-linecap:butt;stroke-linejoin:miter;stroke:rgb(85.882353%,8.627451%,10.588235%);stroke-opacity:1;stroke-miterlimit:4;" d="M 442.932664 210.770276 C 442.932664 196.181717 438.940166 184.206034 434.077508 184.206034 C 429.163664 184.206034 425.222351 196.181717 425.222351 210.770276 C 425.222351 225.576575 429.163664 237.334518 434.077508 237.334518 C 438.940166 237.334518 442.932664 225.576575 442.932664 210.770276 Z M 442.932664 210.770276 " transform="matrix(0.076315,0,0,0.01794,48.7015,48.793)"/>
<path style="fill-rule:evenodd;fill:rgb(100%,100%,100%);fill-opacity:1;stroke-width:0.352;stroke-linecap:butt;stroke-linejoin:miter;stroke:rgb(85.882353%,8.627451%,10.588235%);stroke-opacity:1;stroke-miterlimit:4;" d="M 92.625 148.609375 L 128.320312 130.039062 M 90.640625 147.71875 L 124.351562 130.039062 M 89.648438 145.960938 L 120.390625 130.039062 M 88.65625 144.1875 L 115.429688 130.039062 M 86.679688 142.421875 L 111.460938 130.039062 M 87.671875 139.773438 L 104.523438 130.929688 M 86.679688 138 L 99.5625 130.929688 M 86.679688 135.351562 L 95.601562 130.929688 M 95.601562 149.492188 L 129.3125 131.8125 M 98.570312 150.382812 L 130.296875 133.578125 M 101.546875 151.257812 L 131.289062 135.351562 M 104.523438 152.140625 L 129.3125 138.882812 M 108.492188 152.140625 L 130.296875 140.648438 M 111.460938 153.03125 L 130.296875 143.296875 M 114.4375 153.90625 L 129.3125 145.960938 M 118.398438 153.90625 L 130.296875 147.71875 M 122.367188 154.796875 L 130.296875 150.382812 M 126.34375 154.796875 L 131.289062 152.140625 M 133.28125 129.15625 L 128.320312 129.15625 C 92.65625 164.59375 35.015625 164.40625 -0.421875 128.742188 C -35.851562 93.070312 -35.664062 35.4375 0 0 L 4.960938 0 C 43.796875 1.351562 74.382812 33.578125 73.703125 72.429688 C 73.03125 111.289062 41.335938 142.429688 2.476562 142.429688 C -36.382812 142.429688 -68.070312 111.289062 -68.742188 72.429688 C -69.421875 33.578125 -38.835938 1.351562 0 0 Z M 74.78125 141.539062 L 86.679688 132.703125 M 74.78125 135.351562 L 86.679688 145.960938 " transform="matrix(0.5,0,0,0.5,0,0)"/>
<path style="fill-rule:evenodd;fill:rgb(100%,100%,100%);fill-opacity:1;stroke-width:0.251;stroke-linecap:butt;stroke-linejoin:miter;stroke:rgb(85.882353%,8.627451%,10.588235%);stroke-opacity:1;stroke-miterlimit:4;" d="M 92.625 130.929688 L 86.679688 131.8125 C 85.351562 137.40625 85.351562 142.117188 86.679688 147.71875 L 92.625 149.492188 C 91.304688 143.890625 91.304688 136.53125 92.625 130.929688 Z M 92.625 130.929688 " transform="matrix(0.5,0,0,0.5,0,0)"/>
<path style="fill-rule:evenodd;fill:rgb(100%,100%,100%);fill-opacity:1;stroke-width:0.431;stroke-linecap:butt;stroke-linejoin:miter;stroke:rgb(85.882353%,8.627451%,10.588235%);stroke-opacity:1;stroke-miterlimit:4;" d="M 164.96875 86.726562 L 164.96875 82.265625 C 160.523438 82.304688 157.539062 79.65625 157.539062 76.960938 L 142.6875 77 C 142.6875 79.65625 139.71875 82.304688 135.257812 82.304688 L 135.257812 86.726562 Z M 164.96875 86.726562 " transform="matrix(0.5,0,0,0.5,0,0)"/>
<path style="fill-rule:nonzero;fill:rgb(100%,100%,100%);fill-opacity:1;stroke-width:0.364;stroke-linecap:butt;stroke-linejoin:miter;stroke:rgb(85.882353%,8.627451%,10.588235%);stroke-opacity:1;stroke-miterlimit:4;" d="M 143.75 71.695312 L 156.484375 71.695312 L 156.484375 77 L 143.75 77 Z M 144.8125 66.390625 L 155.421875 66.390625 L 155.421875 71.695312 L 144.8125 71.695312 Z M 144.8125 61.085938 L 155.421875 61.085938 L 155.421875 66.390625 L 144.8125 66.390625 Z M 144.8125 61.085938 " transform="matrix(0.5,0,0,0.5,0,0)"/>
<path style="fill-rule:nonzero;fill:rgb(100%,100%,100%);fill-opacity:1;stroke-width:0.364;stroke-linecap:butt;stroke-linejoin:miter;stroke:rgb(85.882353%,8.627451%,10.588235%);stroke-opacity:1;stroke-miterlimit:4;" d="M 145.867188 54.015625 L 154.359375 54.015625 L 154.359375 61.085938 L 145.867188 61.085938 Z M 145.867188 54.015625 " transform="matrix(0.5,0,0,0.5,0,0)"/>
<path style="fill-rule:nonzero;fill:rgb(100%,100%,100%);fill-opacity:1;stroke-width:0.38;stroke-linecap:butt;stroke-linejoin:miter;stroke:rgb(85.882353%,8.627451%,10.588235%);stroke-opacity:1;stroke-miterlimit:4;" d="M 145.507812 47.828125 L 154.734375 47.828125 L 154.734375 54.015625 L 145.507812 54.015625 Z M 145.507812 47.828125 " transform="matrix(0.5,0,0,0.5,0,0)"/>
<path style="fill-rule:nonzero;fill:rgb(100%,100%,100%);fill-opacity:1;stroke-width:1.333;stroke-linecap:butt;stroke-linejoin:miter;stroke:rgb(85.882353%,8.627451%,10.588235%);stroke-opacity:1;stroke-miterlimit:4;" d="M 279.910344 161.226202 C 279.910344 142.626503 260.889732 127.56513 237.411165 127.56513 C 213.90558 127.56513 194.884969 142.626503 194.884969 161.226202 C 194.884969 179.825902 213.90558 194.887275 237.411165 194.887275 C 260.889732 194.887275 279.910344 179.825902 279.910344 161.226202 Z M 279.910344 161.226202 " transform="matrix(0.14458,0,0,0.12475,40.9915,0.93)"/>
<path style="fill-rule:evenodd;fill:rgb(100%,100%,100%);fill-opacity:1;stroke-width:0.358;stroke-linecap:butt;stroke-linejoin:miter;stroke:rgb(85.882353%,8.627451%,10.588235%);stroke-opacity:1;stroke-miterlimit:4;" d="M 156.78125 41.640625 C 156.78125 43.960938 159.851562 47.828125 159.851562 47.828125 C 157.617188 49.351562 154.023438 50.484375 150.632812 50.484375 C 147.242188 50.484375 143.007812 49.851562 141.40625 47.828125 C 141.40625 47.828125 144.476562 43.960938 144.476562 41.640625 C 144.476562 39.320312 141.40625 36.335938 141.40625 36.335938 C 143.632812 34.8125 147.242188 33.6875 150.632812 33.6875 C 154.023438 33.6875 157.617188 34.8125 159.851562 36.335938 C 159.851562 36.335938 156.78125 39.320312 156.78125 41.640625 Z M 156.78125 41.640625 " transform="matrix(0.5,0,0,0.5,0,0)"/>
<path style="fill-rule:evenodd;fill:rgb(100%,100%,100%);fill-opacity:1;stroke-width:0.358;stroke-linecap:butt;stroke-linejoin:miter;stroke:rgb(85.882353%,8.627451%,10.588235%);stroke-opacity:1;stroke-miterlimit:4;" d="M 154.726562 41.640625 C 154.726562 43.960938 157.796875 48.710938 157.796875 48.710938 C 155.578125 50.234375 154.023438 50.484375 150.632812 50.484375 C 147.242188 50.484375 145.0625 50.734375 143.460938 48.710938 C 143.460938 48.710938 146.53125 43.960938 146.53125 41.640625 C 146.53125 39.320312 143.460938 35.453125 143.460938 35.453125 C 145.679688 33.929688 147.242188 33.6875 150.632812 33.6875 C 154.023438 33.6875 155.578125 33.929688 157.796875 35.453125 C 157.796875 35.453125 154.726562 39.320312 154.726562 41.640625 Z M 154.726562 41.640625 " transform="matrix(0.5,0,0,0.5,0,0)"/>
<path style="fill-rule:nonzero;fill:rgb(100%,100%,100%);fill-opacity:1;stroke-width:1.333;stroke-linecap:butt;stroke-linejoin:miter;stroke:rgb(85.882353%,8.627451%,10.588235%);stroke-opacity:1;stroke-miterlimit:4;" d="M 205.503009 166.526804 C 205.503009 172.413577 200.747856 177.173096 194.884969 177.173096 C 189.022081 177.173096 184.23991 172.413577 184.23991 166.526804 C 184.23991 160.671343 189.022081 155.911824 194.884969 155.911824 C 200.747856 155.911824 205.503009 160.671343 205.503009 166.526804 Z M 205.503009 166.526804 " transform="matrix(0.14458,0,0,0.12475,40.9915,0.4875)"/>
<path style="fill-rule:nonzero;fill:rgb(100%,100%,100%);fill-opacity:1;stroke-width:1.333;stroke-linecap:butt;stroke-linejoin:miter;stroke:rgb(85.882353%,8.627451%,10.588235%);stroke-opacity:1;stroke-miterlimit:4;" d="M 205.519436 166.526804 C 205.519436 172.413577 200.764283 177.173096 194.874378 177.173096 C 189.01149 177.173096 184.256337 172.413577 184.256337 166.526804 C 184.256337 160.671343 189.01149 155.911824 194.874378 155.911824 C 200.764283 155.911824 205.519436 160.671343 205.519436 166.526804 Z M 205.519436 166.526804 " transform="matrix(0.14458,0,0,0.12475,53.286,0.4875)"/>
<path style="fill-rule:nonzero;fill:rgb(100%,100%,100%);fill-opacity:1;stroke-width:1.333;stroke-linecap:butt;stroke-linejoin:miter;stroke:rgb(85.882353%,8.627451%,10.588235%);stroke-opacity:1;stroke-miterlimit:4;" d="M 205.509493 166.526804 C 205.509493 172.413577 200.75434 177.173096 194.891453 177.173096 C 189.001548 177.173096 184.246395 172.413577 184.246395 166.526804 C 184.246395 160.671343 189.001548 155.911824 194.891453 155.911824 C 200.75434 155.911824 205.509493 160.671343 205.509493 166.526804 Z M 205.509493 166.526804 " transform="matrix(0.14458,0,0,0.12475,47.139,0.4875)"/>
<path style="fill-rule:nonzero;fill:rgb(100%,100%,100%);fill-opacity:1;stroke-width:1.333;stroke-linecap:butt;stroke-linejoin:miter;stroke:rgb(85.882353%,8.627451%,10.588235%);stroke-opacity:1;stroke-miterlimit:4;" d="M 205.509493 166.543086 C 205.509493 172.398547 200.75434 177.158066 194.891453 177.158066 C 189.001548 177.158066 184.246395 172.398547 184.246395 166.543086 C 184.246395 160.656313 189.001548 155.896794 194.891453 155.896794 C 200.75434 155.896794 205.509493 160.656313 205.509493 166.543086 Z M 205.509493 166.543086 " transform="matrix(0.14458,0,0,0.12475,47.139,-3.9325)"/>
<path style="fill-rule:nonzero;fill:rgb(100%,100%,100%);fill-opacity:1;stroke-width:1.333;stroke-linecap:butt;stroke-linejoin:miter;stroke:rgb(85.882353%,8.627451%,10.588235%);stroke-opacity:1;stroke-miterlimit:4;" d="M 205.517898 166.549599 C 205.517898 172.40506 200.743998 177.164579 194.874449 177.164579 C 189.0049 177.164579 184.257087 172.40506 184.257087 166.549599 C 184.257087 160.662826 189.0049 155.903307 194.874449 155.903307 C 200.743998 155.903307 205.517898 160.662826 205.517898 166.549599 Z M 205.517898 166.549599 " transform="matrix(0.14974,0,0,0.12475,41.632,21.262)"/>
<path style="fill-rule:nonzero;fill:rgb(100%,100%,100%);fill-opacity:1;stroke-width:1.333;stroke-linecap:butt;stroke-linejoin:miter;stroke:rgb(85.882353%,8.627451%,10.588235%);stroke-opacity:1;stroke-miterlimit:4;" d="M 205.513098 166.549599 C 205.513098 172.40506 200.739198 177.164579 194.869649 177.164579 C 189.0001 177.164579 184.252287 172.40506 184.252287 166.549599 C 184.252287 160.662826 189.0001 155.903307 194.869649 155.903307 C 200.739198 155.903307 205.513098 160.662826 205.513098 166.549599 Z M 205.513098 166.549599 " transform="matrix(0.14974,0,0,0.12475,50.121,21.262)"/>
<path style="fill-rule:evenodd;fill:rgb(100%,100%,100%);fill-opacity:1;stroke-width:0.364;stroke-linecap:butt;stroke-linejoin:miter;stroke:rgb(85.882353%,8.627451%,10.588235%);stroke-opacity:1;stroke-miterlimit:4;" d="M 142.6875 77 L 157.539062 77 L 150.117188 84.960938 Z M 142.6875 77 " transform="matrix(0.5,0,0,0.5,0,0)"/>
<path style="fill-rule:nonzero;fill:rgb(100%,100%,100%);fill-opacity:1;stroke-width:1.333;stroke-linecap:butt;stroke-linejoin:miter;stroke:rgb(85.882353%,8.627451%,10.588235%);stroke-opacity:1;stroke-miterlimit:4;" d="M 205.507939 166.528888 C 205.507939 172.400123 200.753644 177.167566 194.884144 177.167566 C 189.014644 177.167566 184.240784 172.400123 184.240784 166.528888 C 184.240784 160.657653 189.014644 155.913696 194.884144 155.913696 C 200.753644 155.913696 205.507939 160.657653 205.507939 166.528888 Z M 205.507939 166.528888 " transform="matrix(0.199655,0,0,0.16633,36.149,13.895)"/>
<path style="fill-rule:nonzero;fill:rgb(100%,100%,100%);fill-opacity:1;stroke-width:0.33;stroke-linecap:butt;stroke-linejoin:miter;stroke:rgb(85.882353%,8.627451%,10.588235%);stroke-opacity:1;stroke-miterlimit:4;" d="M 135.007812 109.71875 L 155.335938 109.71875 C 156.023438 109.71875 156.578125 110.140625 156.578125 110.65625 L 156.578125 114.085938 C 156.578125 114.601562 156.023438 115.023438 155.335938 115.023438 L 135.007812 115.023438 C 134.328125 115.023438 133.773438 114.601562 133.773438 114.085938 L 133.773438 110.65625 C 133.773438 110.140625 134.328125 109.71875 135.007812 109.71875 Z M 135.007812 109.71875 " transform="matrix(0.5,0,0,0.5,0,0)"/>
<path style="fill-rule:evenodd;fill:rgb(100%,100%,100%);fill-opacity:1;stroke-width:0.33;stroke-linecap:butt;stroke-linejoin:miter;stroke:rgb(85.882353%,8.627451%,10.588235%);stroke-opacity:1;stroke-miterlimit:4;" d="M 163.523438 105.296875 C 160.773438 105.296875 158.5625 107.359375 158.5625 109.921875 L 158.5625 113.9375 C 158.5625 116.5 160.773438 118.5625 163.523438 118.5625 C 166.273438 118.5625 168.476562 116.5 168.476562 113.9375 L 168.476562 109.921875 C 168.476562 107.359375 166.273438 105.296875 163.523438 105.296875 Z M 163.523438 107.070312 C 161.867188 107.070312 160.539062 108.71875 160.539062 110.773438 L 160.539062 113.101562 C 160.539062 115.148438 161.867188 116.789062 163.523438 116.789062 C 165.171875 116.789062 166.492188 115.148438 166.492188 113.101562 L 166.492188 110.773438 C 166.492188 108.71875 165.171875 107.070312 163.523438 107.070312 Z M 137.742188 106.1875 C 136.09375 106.1875 134.773438 107.828125 134.773438 109.882812 L 134.773438 113.976562 C 134.773438 116.03125 136.09375 117.679688 137.742188 117.679688 C 139.390625 117.679688 140.710938 116.03125 140.710938 113.976562 L 140.710938 109.882812 C 140.710938 107.828125 139.390625 106.1875 137.742188 106.1875 Z M 137.742188 104.421875 C 134.992188 104.421875 132.78125 106.476562 132.78125 109.039062 L 132.78125 114.828125 C 132.78125 117.390625 134.992188 119.453125 137.742188 119.453125 C 140.492188 119.453125 142.703125 117.390625 142.703125 114.828125 L 142.703125 109.039062 C 142.703125 106.476562 140.492188 104.421875 137.742188 104.421875 Z M 137.742188 104.421875 " transform="matrix(0.5,0,0,0.5,0,0)"/>
<path style="fill-rule:evenodd;fill:rgb(100%,100%,100%);fill-opacity:1;stroke-width:0.33;stroke-linecap:butt;stroke-linejoin:miter;stroke:rgb(85.882353%,8.627451%,10.588235%);stroke-opacity:1;stroke-miterlimit:4;" d="M 129.8125 107.953125 C 128.15625 107.953125 126.828125 109.601562 126.828125 111.648438 L 126.828125 112.609375 C 126.828125 114.65625 128.15625 116.3125 129.8125 116.3125 C 131.460938 116.3125 132.78125 114.65625 132.78125 112.609375 L 132.78125 111.648438 C 132.78125 109.601562 131.460938 107.953125 129.8125 107.953125 Z M 129.8125 106.1875 C 127.0625 106.1875 124.851562 108.25 124.851562 110.8125 L 124.851562 113.460938 C 124.851562 116.023438 127.0625 118.078125 129.8125 118.078125 C 132.546875 118.078125 134.773438 116.023438 134.773438 113.460938 L 134.773438 110.8125 C 134.773438 108.25 132.546875 106.1875 129.8125 106.1875 Z M 129.8125 106.1875 " transform="matrix(0.5,0,0,0.5,0,0)"/>
<path style="fill-rule:evenodd;fill:rgb(100%,100%,100%);fill-opacity:1;stroke-width:0.33;stroke-linecap:butt;stroke-linejoin:miter;stroke:rgb(85.882353%,8.627451%,10.588235%);stroke-opacity:1;stroke-miterlimit:4;" d="M 117.90625 105.507812 C 114.9375 105.507812 112.5625 107.351562 112.5625 109.640625 L 112.5625 114.21875 C 112.5625 116.507812 114.9375 118.351562 117.90625 118.351562 C 120.882812 118.351562 123.257812 116.507812 123.257812 114.21875 L 123.257812 109.640625 C 123.257812 107.351562 120.882812 105.507812 117.90625 105.507812 Z M 117.90625 103.53125 C 112.96875 103.53125 108.992188 105.84375 108.992188 108.703125 L 108.992188 115.171875 C 108.992188 118.03125 112.96875 120.328125 117.90625 120.328125 C 122.851562 120.328125 126.828125 118.03125 126.828125 115.171875 L 126.828125 108.703125 C 126.828125 105.84375 122.851562 103.53125 117.90625 103.53125 Z M 182.359375 106.390625 C 179.390625 106.390625 177 108.242188 177 110.53125 L 177 115.109375 C 177 117.398438 179.390625 119.242188 182.359375 119.242188 C 185.320312 119.242188 187.710938 117.398438 187.710938 115.109375 L 187.710938 110.53125 C 187.710938 108.242188 185.320312 106.390625 182.359375 106.390625 Z M 182.359375 104.421875 C 177.40625 104.421875 173.429688 106.71875 173.429688 109.578125 L 173.429688 116.046875 C 173.429688 118.90625 177.40625 121.210938 182.359375 121.210938 C 187.296875 121.210938 191.28125 118.90625 191.28125 116.046875 L 191.28125 109.578125 C 191.28125 106.71875 187.296875 104.421875 182.359375 104.421875 Z M 182.359375 104.421875 " transform="matrix(0.5,0,0,0.5,0,0)"/>
<path style="fill-rule:nonzero;fill:rgb(100%,100%,100%);fill-opacity:1;stroke-width:0.33;stroke-linecap:butt;stroke-linejoin:miter;stroke:rgb(85.882353%,8.627451%,10.588235%);stroke-opacity:1;stroke-miterlimit:4;" d="M 166.148438 109.71875 L 176.75 109.71875 C 177.109375 109.71875 177.398438 110.140625 177.398438 110.65625 L 177.398438 114.085938 C 177.398438 114.601562 177.109375 115.023438 176.75 115.023438 L 166.148438 115.023438 C 165.789062 115.023438 165.5 114.601562 165.5 114.085938 L 165.5 110.65625 C 165.5 110.140625 165.789062 109.71875 166.148438 109.71875 Z M 166.148438 109.71875 " transform="matrix(0.5,0,0,0.5,0,0)"/>
<path style="fill-rule:nonzero;fill:rgb(100%,100%,100%);fill-opacity:1;stroke-width:0.33;stroke-linecap:butt;stroke-linejoin:miter;stroke:rgb(85.882353%,8.627451%,10.588235%);stroke-opacity:1;stroke-miterlimit:4;" d="M 154.976562 108.84375 L 161.164062 108.84375 C 161.375 108.84375 161.539062 109.398438 161.539062 110.09375 L 161.539062 114.664062 C 161.539062 115.351562 161.375 115.914062 161.164062 115.914062 L 154.976562 115.914062 C 154.765625 115.914062 154.601562 115.351562 154.601562 114.664062 L 154.601562 110.09375 C 154.601562 109.398438 154.765625 108.84375 154.976562 108.84375 Z M 154.976562 108.84375 " transform="matrix(0.5,0,0,0.5,0,0)"/>
<path style="fill-rule:nonzero;fill:rgb(100%,100%,100%);fill-opacity:1;stroke-width:0.33;stroke-linecap:butt;stroke-linejoin:miter;stroke:rgb(85.882353%,8.627451%,10.588235%);stroke-opacity:1;stroke-miterlimit:4;" d="M 122.257812 108.84375 L 128.445312 108.84375 C 128.648438 108.84375 128.820312 109.398438 128.820312 110.09375 L 128.820312 114.664062 C 128.820312 115.351562 128.648438 115.914062 128.445312 115.914062 L 122.257812 115.914062 C 122.046875 115.914062 121.882812 115.351562 121.882812 114.664062 L 121.882812 110.09375 C 121.882812 109.398438 122.046875 108.84375 122.257812 108.84375 Z M 122.257812 108.84375 " transform="matrix(0.5,0,0,0.5,0,0)"/>
<path style="fill-rule:nonzero;fill:rgb(100%,100%,100%);fill-opacity:1;stroke-width:0.33;stroke-linecap:butt;stroke-linejoin:miter;stroke:rgb(85.882353%,8.627451%,10.588235%);stroke-opacity:1;stroke-miterlimit:4;" d="M 100.8125 107.953125 L 113.1875 107.953125 C 113.601562 107.953125 113.9375 108.648438 113.9375 109.515625 L 113.9375 115.226562 C 113.9375 116.09375 113.601562 116.789062 113.1875 116.789062 L 100.8125 116.789062 C 100.398438 116.789062 100.0625 116.09375 100.0625 115.226562 L 100.0625 109.515625 C 100.0625 108.648438 100.398438 107.953125 100.8125 107.953125 Z M 100.8125 107.953125 " transform="matrix(0.5,0,0,0.5,0,0)"/>
<path style="fill-rule:nonzero;fill:rgb(100%,100%,100%);fill-opacity:1;stroke-width:0.33;stroke-linecap:butt;stroke-linejoin:miter;stroke:rgb(85.882353%,8.627451%,10.588235%);stroke-opacity:1;stroke-miterlimit:4;" d="M 187.023438 108.84375 L 198.507812 108.84375 C 198.898438 108.84375 199.210938 109.539062 199.210938 110.40625 L 199.210938 116.117188 C 199.210938 116.976562 198.898438 117.679688 198.507812 117.679688 L 187.023438 117.679688 C 186.632812 117.679688 186.320312 116.976562 186.320312 116.117188 L 186.320312 110.40625 C 186.320312 109.539062 186.632812 108.84375 187.023438 108.84375 Z M 187.023438 108.84375 " transform="matrix(0.5,0,0,0.5,0,0)"/>
</g>
</svg>
