<?xml version="1.0" encoding="UTF-8"?>
<svg xmlns="http://www.w3.org/2000/svg" xmlns:xlink="http://www.w3.org/1999/xlink" width="px" height="px" viewBox="0 0 300 200" version="1.1">
<defs>
<clipPath id="clip1">
  <path d="M 107 56 L 193 56 L 193 108 L 107 108 Z M 107 56 "/>
</clipPath>
<clipPath id="clip2">
  <path d="M 192.925781 100.5 C 192.925781 76.148438 173.707031 56.40625 150 56.40625 C 126.292969 56.40625 107.074219 76.148438 107.074219 100.5 C 107.074219 124.851562 126.292969 144.59375 150 144.59375 C 173.707031 144.59375 192.925781 124.851562 192.925781 100.5 Z M 192.925781 100.5 "/>
</clipPath>
<clipPath id="clip3">
  <path d="M 132 137 L 167 137 L 167 145 L 132 145 Z M 132 137 "/>
</clipPath>
<clipPath id="clip4">
  <path d="M 192.925781 100.5 C 192.925781 76.148438 173.707031 56.40625 150 56.40625 C 126.292969 56.40625 107.074219 76.148438 107.074219 100.5 C 107.074219 124.851562 126.292969 144.59375 150 144.59375 C 173.707031 144.59375 192.925781 124.851562 192.925781 100.5 Z M 192.925781 100.5 "/>
</clipPath>
<clipPath id="clip5">
  <path d="M 126 131 L 173 131 L 173 145 L 126 145 Z M 126 131 "/>
</clipPath>
<clipPath id="clip6">
  <path d="M 192.925781 100.5 C 192.925781 76.148438 173.707031 56.40625 150 56.40625 C 126.292969 56.40625 107.074219 76.148438 107.074219 100.5 C 107.074219 124.851562 126.292969 144.59375 150 144.59375 C 173.707031 144.59375 192.925781 124.851562 192.925781 100.5 Z M 192.925781 100.5 "/>
</clipPath>
<clipPath id="clip7">
  <path d="M 107 110 L 192 110 L 192 136 L 107 136 Z M 107 110 "/>
</clipPath>
<clipPath id="clip8">
  <path d="M 192.925781 100.5 C 192.925781 76.148438 173.707031 56.40625 150 56.40625 C 126.292969 56.40625 107.074219 76.148438 107.074219 100.5 C 107.074219 124.851562 126.292969 144.59375 150 144.59375 C 173.707031 144.59375 192.925781 124.851562 192.925781 100.5 Z M 192.925781 100.5 "/>
</clipPath>
<clipPath id="clip9">
  <path d="M 107 104 L 193 104 L 193 141 L 107 141 Z M 107 104 "/>
</clipPath>
<clipPath id="clip10">
  <path d="M 192.925781 100.5 C 192.925781 76.148438 173.707031 56.40625 150 56.40625 C 126.292969 56.40625 107.074219 76.148438 107.074219 100.5 C 107.074219 124.851562 126.292969 144.59375 150 144.59375 C 173.707031 144.59375 192.925781 124.851562 192.925781 100.5 Z M 192.925781 100.5 "/>
</clipPath>
<clipPath id="clip11">
  <path d="M 124 57 L 175 57 L 175 122 L 124 122 Z M 124 57 "/>
</clipPath>
<clipPath id="clip12">
  <path d="M 192.925781 100.5 C 192.925781 76.148438 173.707031 56.40625 150 56.40625 C 126.292969 56.40625 107.074219 76.148438 107.074219 100.5 C 107.074219 124.851562 126.292969 144.59375 150 144.59375 C 173.707031 144.59375 192.925781 124.851562 192.925781 100.5 Z M 192.925781 100.5 "/>
</clipPath>
<clipPath id="clip13">
  <path d="M 124 56 L 175 56 L 175 123 L 124 123 Z M 124 56 "/>
</clipPath>
<clipPath id="clip14">
  <path d="M 192.925781 100.5 C 192.925781 76.148438 173.707031 56.40625 150 56.40625 C 126.292969 56.40625 107.074219 76.148438 107.074219 100.5 C 107.074219 124.851562 126.292969 144.59375 150 144.59375 C 173.707031 144.59375 192.925781 124.851562 192.925781 100.5 Z M 192.925781 100.5 "/>
</clipPath>
<clipPath id="clip15">
  <path d="M 131 106 L 168 106 L 168 112 L 131 112 Z M 131 106 "/>
</clipPath>
<clipPath id="clip16">
  <path d="M 192.925781 100.5 C 192.925781 76.148438 173.707031 56.40625 150 56.40625 C 126.292969 56.40625 107.074219 76.148438 107.074219 100.5 C 107.074219 124.851562 126.292969 144.59375 150 144.59375 C 173.707031 144.59375 192.925781 124.851562 192.925781 100.5 Z M 192.925781 100.5 "/>
</clipPath>
<clipPath id="clip17">
  <path d="M 123 98 L 176 98 L 176 120 L 123 120 Z M 123 98 "/>
</clipPath>
<clipPath id="clip18">
  <path d="M 192.925781 100.5 C 192.925781 76.148438 173.707031 56.40625 150 56.40625 C 126.292969 56.40625 107.074219 76.148438 107.074219 100.5 C 107.074219 124.851562 126.292969 144.59375 150 144.59375 C 173.707031 144.59375 192.925781 124.851562 192.925781 100.5 Z M 192.925781 100.5 "/>
</clipPath>
<clipPath id="clip19">
  <path d="M 133 97 L 138 97 L 138 104 L 133 104 Z M 133 97 "/>
</clipPath>
<clipPath id="clip20">
  <path d="M 192.925781 100.5 C 192.925781 76.148438 173.707031 56.40625 150 56.40625 C 126.292969 56.40625 107.074219 76.148438 107.074219 100.5 C 107.074219 124.851562 126.292969 144.59375 150 144.59375 C 173.707031 144.59375 192.925781 124.851562 192.925781 100.5 Z M 192.925781 100.5 "/>
</clipPath>
<clipPath id="clip21">
  <path d="M 125 90 L 146 90 L 146 112 L 125 112 Z M 125 90 "/>
</clipPath>
<clipPath id="clip22">
  <path d="M 192.925781 100.5 C 192.925781 76.148438 173.707031 56.40625 150 56.40625 C 126.292969 56.40625 107.074219 76.148438 107.074219 100.5 C 107.074219 124.851562 126.292969 144.59375 150 144.59375 C 173.707031 144.59375 192.925781 124.851562 192.925781 100.5 Z M 192.925781 100.5 "/>
</clipPath>
<clipPath id="clip23">
  <path d="M 139 97 L 145 97 L 145 104 L 139 104 Z M 139 97 "/>
</clipPath>
<clipPath id="clip24">
  <path d="M 192.925781 100.5 C 192.925781 76.148438 173.707031 56.40625 150 56.40625 C 126.292969 56.40625 107.074219 76.148438 107.074219 100.5 C 107.074219 124.851562 126.292969 144.59375 150 144.59375 C 173.707031 144.59375 192.925781 124.851562 192.925781 100.5 Z M 192.925781 100.5 "/>
</clipPath>
<clipPath id="clip25">
  <path d="M 131 90 L 153 90 L 153 112 L 131 112 Z M 131 90 "/>
</clipPath>
<clipPath id="clip26">
  <path d="M 192.925781 100.5 C 192.925781 76.148438 173.707031 56.40625 150 56.40625 C 126.292969 56.40625 107.074219 76.148438 107.074219 100.5 C 107.074219 124.851562 126.292969 144.59375 150 144.59375 C 173.707031 144.59375 192.925781 124.851562 192.925781 100.5 Z M 192.925781 100.5 "/>
</clipPath>
<clipPath id="clip27">
  <path d="M 146 97 L 152 97 L 152 104 L 146 104 Z M 146 97 "/>
</clipPath>
<clipPath id="clip28">
  <path d="M 192.925781 100.5 C 192.925781 76.148438 173.707031 56.40625 150 56.40625 C 126.292969 56.40625 107.074219 76.148438 107.074219 100.5 C 107.074219 124.851562 126.292969 144.59375 150 144.59375 C 173.707031 144.59375 192.925781 124.851562 192.925781 100.5 Z M 192.925781 100.5 "/>
</clipPath>
<clipPath id="clip29">
  <path d="M 138 90 L 160 90 L 160 112 L 138 112 Z M 138 90 "/>
</clipPath>
<clipPath id="clip30">
  <path d="M 192.925781 100.5 C 192.925781 76.148438 173.707031 56.40625 150 56.40625 C 126.292969 56.40625 107.074219 76.148438 107.074219 100.5 C 107.074219 124.851562 126.292969 144.59375 150 144.59375 C 173.707031 144.59375 192.925781 124.851562 192.925781 100.5 Z M 192.925781 100.5 "/>
</clipPath>
<clipPath id="clip31">
  <path d="M 153 97 L 159 97 L 159 104 L 153 104 Z M 153 97 "/>
</clipPath>
<clipPath id="clip32">
  <path d="M 192.925781 100.5 C 192.925781 76.148438 173.707031 56.40625 150 56.40625 C 126.292969 56.40625 107.074219 76.148438 107.074219 100.5 C 107.074219 124.851562 126.292969 144.59375 150 144.59375 C 173.707031 144.59375 192.925781 124.851562 192.925781 100.5 Z M 192.925781 100.5 "/>
</clipPath>
<clipPath id="clip33">
  <path d="M 146 90 L 167 90 L 167 112 L 146 112 Z M 146 90 "/>
</clipPath>
<clipPath id="clip34">
  <path d="M 192.925781 100.5 C 192.925781 76.148438 173.707031 56.40625 150 56.40625 C 126.292969 56.40625 107.074219 76.148438 107.074219 100.5 C 107.074219 124.851562 126.292969 144.59375 150 144.59375 C 173.707031 144.59375 192.925781 124.851562 192.925781 100.5 Z M 192.925781 100.5 "/>
</clipPath>
<clipPath id="clip35">
  <path d="M 160 97 L 166 97 L 166 104 L 160 104 Z M 160 97 "/>
</clipPath>
<clipPath id="clip36">
  <path d="M 192.925781 100.5 C 192.925781 76.148438 173.707031 56.40625 150 56.40625 C 126.292969 56.40625 107.074219 76.148438 107.074219 100.5 C 107.074219 124.851562 126.292969 144.59375 150 144.59375 C 173.707031 144.59375 192.925781 124.851562 192.925781 100.5 Z M 192.925781 100.5 "/>
</clipPath>
<clipPath id="clip37">
  <path d="M 152 90 L 174 90 L 174 112 L 152 112 Z M 152 90 "/>
</clipPath>
<clipPath id="clip38">
  <path d="M 192.925781 100.5 C 192.925781 76.148438 173.707031 56.40625 150 56.40625 C 126.292969 56.40625 107.074219 76.148438 107.074219 100.5 C 107.074219 124.851562 126.292969 144.59375 150 144.59375 C 173.707031 144.59375 192.925781 124.851562 192.925781 100.5 Z M 192.925781 100.5 "/>
</clipPath>
</defs>
<g id="surface1">
<rect x="0" y="0" width="300" height="200" style="fill:rgb(80.784314%,6.666667%,14.901961%);fill-opacity:1;stroke:none;"/>
<path style=" stroke:none;fill-rule:nonzero;fill:rgb(100%,100%,100%);fill-opacity:1;" d="M 0 50 L 300 50 L 300 150 L 0 150 Z M 0 50 "/>
<g clip-path="url(#clip1)" clip-rule="nonzero">
<g clip-path="url(#clip2)" clip-rule="nonzero">
<path style=" stroke:none;fill-rule:nonzero;fill:rgb(100%,61.176471%,6.27451%);fill-opacity:1;" d="M 138.644531 95.511719 L 131.359375 95.300781 L 131.359375 92.417969 Z M 138.613281 94.671875 L 131.359375 90.976562 L 131.359375 86.175781 C 131.359375 86.175781 130.507812 86.296875 130.628906 85.335938 C 130.667969 83.335938 135.960938 88.988281 138.675781 90.828125 Z M 107.183594 107.183594 L 122.488281 107.304688 L 122.488281 97.820312 L 104.996094 96.988281 L 107.183594 107.191406 Z M 106.453125 94.101562 L 122.730469 95.660156 L 122.609375 88.9375 L 106.699219 82.695312 Z M 109.734375 80.660156 L 122.246094 86.660156 L 124.03125 84.820312 C 124.03125 84.820312 122.882812 84.035156 122.9375 83.3125 C 122.960938 82.585938 124.09375 82.472656 124.117188 81.683594 C 124.136719 80.953125 122.832031 80.867188 122.816406 80.136719 C 122.730469 79.347656 123.824219 78.5 123.824219 78.5 L 112.527344 68.777344 Z M 191.839844 107.304688 L 175.6875 107.304688 L 175.566406 98.0625 L 193.296875 96.742188 Z M 192.234375 93.953125 C 192.03125 92.453125 191.816406 90.957031 191.46875 89.484375 C 169.976562 86.460938 153.5625 68.761719 152.15625 47.101562 C 150.753906 25.441406 164.75 5.773438 185.671875 0 C 185.621094 -0.140625 185.539062 -0.265625 185.484375 -0.40625 L 171.671875 5.375 L 171.796875 12.21875 L 188.21875 10.265625 Z M 182.796875 71.734375 L 174.53125 77.984375 C 174.542969 78.582031 175.140625 79.042969 175.304688 79.613281 C 175.683594 80.417969 174.925781 81.128906 174.457031 81.695312 C 174.078125 82.21875 174.898438 82.484375 175.167969 82.796875 C 175.769531 83.410156 175.246094 84.375 174.609375 84.734375 C 175.378906 85.195312 175.765625 86.058594 175.933594 86.90625 L 188.308594 80.46875 C 186.832031 77.351562 184.984375 74.402344 182.796875 71.734375 Z M 159.78125 95.71875 L 166.703125 95.421875 L 166.824219 92.660156 Z M 159.773438 94.21875 L 159.746094 91.097656 C 159.746094 91.097656 166.304688 85.246094 167.699219 84.167969 C 167.699219 85.367188 166.941406 86.296875 166.941406 86.296875 L 166.941406 90.859375 Z M 117.269531 67.933594 C 117.390625 68.054688 124.628906 76.003906 124.628906 76.003906 C 124.832031 75.25 126.5 75.136719 128.199219 75.257812 C 129.902344 75.378906 131.257812 75.144531 131.257812 76.34375 C 131.257812 77.546875 130.394531 77.375 130.394531 78.214844 C 130.394531 79.054688 131.6875 78.984375 131.6875 80.066406 C 131.6875 81.144531 130.75 80.925781 130.746094 81.761719 C 130.742188 82.453125 131.722656 82.488281 131.722656 82.488281 L 138.617188 89.089844 L 138.644531 82.039062 L 124.433594 60.011719 Z M 128.640625 59.59375 C 128.746094 59.914062 138.265625 79.046875 138.265625 79.046875 C 138.265625 79.046875 138.371094 61.089844 139.996094 60.128906 L 137.292969 55.210938 Z M 159.703125 57.53125 L 156.109375 69.953125 C 157.230469 70.085938 158.363281 70.121094 159.488281 70.058594 C 160.5 70.144531 159.714844 71.09375 159.765625 71.65625 L 159.753906 79.296875 L 169.90625 61.359375 C 167.574219 60.140625 165.09375 59.234375 162.601562 58.40625 C 152.003906 52.597656 145.34375 41.542969 145.164062 29.457031 C 144.980469 17.375 151.304688 6.125 161.722656 0 Z M 172.34375 62.71875 L 159.78125 82.03125 L 159.765625 89.46875 C 162.5625 86.808594 165.375 84.160156 168.164062 81.492188 C 168.691406 80.742188 166.484375 80.375 167.589844 79.460938 C 168.589844 79.148438 168.757812 77.53125 167.703125 77.21875 C 166.835938 75.945312 168.488281 75.269531 169.53125 75.410156 C 170.980469 75.476562 172.476562 75.09375 173.894531 75.496094 C 174.675781 76.242188 175.394531 74.371094 176.160156 73.949219 C 177.675781 72.425781 179.191406 70.902344 180.6875 69.359375 C 167.640625 63.371094 158.765625 50.886719 157.398438 36.59375 C 156.027344 22.300781 162.371094 8.359375 174.046875 0 Z M 172.34375 62.71875 "/>
</g>
</g>
<g clip-path="url(#clip3)" clip-rule="nonzero">
<g clip-path="url(#clip4)" clip-rule="nonzero">
<path style=" stroke:none;fill-rule:nonzero;fill:rgb(3.137255%,23.921569%,61.176471%);fill-opacity:1;" d="M 139.941406 137.703125 C 136.851562 137.878906 133.773438 139.964844 132.332031 141.078125 C 134.921875 142.214844 137.683594 143.097656 140.628906 143.703125 C 145.316406 144.492188 150.003906 144.488281 154.691406 144.488281 C 155.453125 144.390625 156.210938 144.28125 156.957031 144.15625 L 166.832031 140.828125 C 166.832031 140.828125 162.082031 137.695312 158.316406 137.828125 C 154.550781 137.964844 152.007812 141.648438 148.972656 141.378906 C 145.933594 141.105469 144.71875 137.703125 140.347656 137.703125 C 140.210938 137.703125 140.078125 137.699219 139.941406 137.703125 Z M 139.941406 137.703125 "/>
</g>
</g>
<g clip-path="url(#clip5)" clip-rule="nonzero">
<g clip-path="url(#clip6)" clip-rule="nonzero">
<path style="fill:none;stroke-width:2.057;stroke-linecap:butt;stroke-linejoin:miter;stroke:rgb(3.137255%,23.921569%,61.176471%);stroke-opacity:1;stroke-miterlimit:4;" d="M 279.882812 275.40625 C 273.703125 275.757812 267.546875 279.929688 264.664062 282.15625 C 269.84375 284.429688 275.367188 286.195312 281.257812 287.40625 C 290.632812 288.984375 300.007812 288.976562 309.382812 288.976562 C 310.90625 288.78125 312.421875 288.5625 313.914062 288.3125 L 333.664062 281.65625 C 333.664062 281.65625 324.164062 275.390625 316.632812 275.65625 C 309.101562 275.929688 304.015625 283.296875 297.945312 282.757812 C 291.867188 282.210938 289.4375 275.40625 280.695312 275.40625 C 280.421875 275.40625 280.15625 275.398438 279.882812 275.40625 Z M 279.882812 275.40625 " transform="matrix(0.5,0,0,0.5,0,0)"/>
</g>
</g>
<g clip-path="url(#clip7)" clip-rule="nonzero">
<g clip-path="url(#clip8)" clip-rule="nonzero">
<path style=" stroke:none;fill-rule:nonzero;fill:rgb(3.137255%,23.921569%,61.176471%);fill-opacity:1;" d="M 122.003906 135.15625 L 178.121094 135.394531 C 178.121094 135.394531 173.261719 130.234375 167.554688 130.113281 C 161.84375 129.992188 163.425781 132.515625 159.050781 132.875 C 154.679688 133.234375 153.585938 130.234375 149.578125 130.351562 C 145.570312 130.472656 143.261719 132.875 140.226562 132.996094 C 137.191406 133.113281 133.304688 129.992188 130.996094 130.113281 C 128.6875 130.234375 120.429688 133.714844 120.429688 133.714844 L 122.007812 135.15625 Z M 114.839844 128.550781 L 184.070312 128.789062 C 185.164062 127.230469 180.667969 123.507812 176.539062 123.148438 C 173.136719 123.269531 170.710938 126.628906 167.917969 126.75 C 165.121094 126.871094 161.964844 123.269531 158.808594 123.390625 C 155.648438 123.507812 152.371094 126.75 149.210938 126.75 C 146.054688 126.75 143.746094 123.269531 139.738281 123.269531 C 135.730469 123.269531 133.910156 127.109375 130.871094 126.871094 C 127.835938 126.628906 125.164062 123.027344 122.25 123.027344 C 119.335938 123.027344 114.476562 127.351562 113.503906 127.109375 C 112.53125 126.871094 114.71875 128.910156 114.839844 128.550781 Z M 141.605469 121.929688 L 157.058594 121.921875 C 157.058594 121.921875 153.597656 116.644531 149.335938 117.007812 C 144.582031 117.132812 141.605469 121.929688 141.605469 121.929688 Z M 190.886719 121.558594 L 169.738281 121.558594 C 169.738281 121.558594 172.476562 119.960938 173.222656 118.488281 C 174.589844 119.222656 174.214844 119.960938 176.953125 120.085938 C 179.691406 120.207031 182.300781 117.011719 184.914062 117.132812 C 187.527344 117.257812 190.886719 121.683594 190.886719 121.558594 Z M 107.550781 121.558594 L 128.695312 121.558594 C 128.695312 121.558594 125.960938 119.960938 125.214844 118.488281 C 123.847656 119.222656 124.21875 119.960938 121.480469 120.085938 C 118.746094 120.207031 116.132812 117.011719 113.519531 117.132812 C 110.910156 117.257812 107.550781 121.683594 107.550781 121.558594 Z M 109.128906 114.988281 L 124.191406 115.109375 C 124.191406 115.109375 123.21875 113.070312 123.097656 110.550781 C 119.210938 109.230469 116.050781 113.429688 113.257812 113.550781 C 110.464844 113.667969 107.550781 110.550781 107.550781 110.550781 Z M 189.535156 114.988281 L 174.472656 115.109375 C 174.472656 115.109375 175.445312 113.070312 175.566406 110.550781 C 179.453125 109.230469 182.613281 113.429688 185.40625 113.550781 C 188.199219 113.667969 191.113281 110.550781 191.113281 110.550781 Z M 145.445312 115.109375 L 153.097656 115.113281 C 153.097656 115.113281 153.21875 112.589844 149.210938 112.589844 C 145.203125 112.589844 145.445312 115.109375 145.445312 115.109375 Z M 145.445312 115.109375 "/>
</g>
</g>
<g clip-path="url(#clip9)" clip-rule="nonzero">
<g clip-path="url(#clip10)" clip-rule="nonzero">
<path style="fill:none;stroke-width:1.932;stroke-linecap:butt;stroke-linejoin:miter;stroke:rgb(3.137255%,23.921569%,61.176471%);stroke-opacity:1;stroke-miterlimit:4;" d="M 244.007812 270.3125 L 356.242188 270.789062 C 356.242188 270.789062 346.523438 260.46875 335.109375 260.226562 C 323.6875 259.984375 326.851562 265.03125 318.101562 265.75 C 309.359375 266.46875 307.171875 260.46875 299.15625 260.703125 C 291.140625 260.945312 286.523438 265.75 280.453125 265.992188 C 274.382812 266.226562 266.609375 259.984375 261.992188 260.226562 C 257.375 260.46875 240.859375 267.429688 240.859375 267.429688 L 244.015625 270.3125 Z M 229.679688 257.101562 L 368.140625 257.578125 C 370.328125 254.460938 361.335938 247.015625 353.078125 246.296875 C 346.273438 246.539062 341.421875 253.257812 335.835938 253.5 C 330.242188 253.742188 323.929688 246.539062 317.617188 246.78125 C 311.296875 247.015625 304.742188 253.5 298.421875 253.5 C 292.109375 253.5 287.492188 246.539062 279.476562 246.539062 C 271.460938 246.539062 267.820312 254.21875 261.742188 253.742188 C 255.671875 253.257812 250.328125 246.054688 244.5 246.054688 C 238.671875 246.054688 228.953125 254.703125 227.007812 254.21875 C 225.0625 253.742188 229.4375 257.820312 229.679688 257.101562 Z M 283.210938 243.859375 L 314.117188 243.84375 C 314.117188 243.84375 307.195312 233.289062 298.671875 234.015625 C 289.164062 234.265625 283.210938 243.859375 283.210938 243.859375 Z M 381.773438 243.117188 L 339.476562 243.117188 C 339.476562 243.117188 344.953125 239.921875 346.445312 236.976562 C 349.179688 238.445312 348.429688 239.921875 353.90625 240.171875 C 359.382812 240.414062 364.601562 234.023438 369.828125 234.265625 C 375.054688 234.515625 381.773438 243.367188 381.773438 243.117188 Z M 215.101562 243.117188 L 257.390625 243.117188 C 257.390625 243.117188 251.921875 239.921875 250.429688 236.976562 C 247.695312 238.445312 248.4375 239.921875 242.960938 240.171875 C 237.492188 240.414062 232.265625 234.023438 227.039062 234.265625 C 221.820312 234.515625 215.101562 243.367188 215.101562 243.117188 Z M 218.257812 229.976562 L 248.382812 230.21875 C 248.382812 230.21875 246.4375 226.140625 246.195312 221.101562 C 238.421875 218.460938 232.101562 226.859375 226.515625 227.101562 C 220.929688 227.335938 215.101562 221.101562 215.101562 221.101562 Z M 379.070312 229.976562 L 348.945312 230.21875 C 348.945312 230.21875 350.890625 226.140625 351.132812 221.101562 C 358.90625 218.460938 365.226562 226.859375 370.8125 227.101562 C 376.398438 227.335938 382.226562 221.101562 382.226562 221.101562 Z M 290.890625 230.21875 L 306.195312 230.226562 C 306.195312 230.226562 306.4375 225.179688 298.421875 225.179688 C 290.40625 225.179688 290.890625 230.21875 290.890625 230.21875 Z M 290.890625 230.21875 " transform="matrix(0.5,0,0,0.5,0,0)"/>
</g>
</g>
<g clip-path="url(#clip11)" clip-rule="nonzero">
<g clip-path="url(#clip12)" clip-rule="nonzero">
<path style=" stroke:none;fill-rule:nonzero;fill:rgb(80.784314%,6.666667%,14.901961%);fill-opacity:1;" d="M 141.433594 90.5 L 157.347656 94.703125 L 157.347656 72.253906 C 150.058594 72.613281 143.988281 58.570312 156.859375 57.609375 C 144.230469 55.808594 142.769531 59.050781 141.3125 62.53125 Z M 144.96875 110.789062 C 141.507812 116.453125 132.257812 114.773438 130.09375 110.820312 C 129.445312 110.636719 129.828125 86.421875 129.828125 86.421875 C 129.828125 86.421875 128.796875 85.953125 128.746094 85.210938 C 128.699219 84.457031 130.152344 84.390625 130.152344 83.425781 C 130.152344 82.464844 128.667969 82.84375 128.640625 81.875 C 128.644531 80.949219 130.222656 81.074219 130.152344 80.21875 C 130.070312 79.257812 128.386719 79.398438 128.316406 78.511719 C 128.261719 77.804688 129.519531 77.1875 129.867188 76.871094 L 128.695312 76.855469 L 126.042969 76.90625 C 124.160156 76.910156 126.074219 77.3125 126.050781 78.386719 C 126.03125 79.089844 125.09375 79.554688 125.011719 80.164062 C 124.980469 80.789062 126.351562 81.230469 126.367188 81.980469 C 126.382812 82.652344 125.023438 82.699219 125.070312 83.320312 C 125.15625 84.375 126.277344 84.605469 126.261719 85.246094 C 126.242188 85.882812 124.75 86.125 124.746094 86.632812 C 124.796875 87.617188 124.960938 111.539062 124.960938 111.539062 C 127.34375 123.722656 141.078125 126.820312 144.96875 110.789062 Z M 154.023438 110.789062 C 157.484375 116.453125 166.738281 114.773438 168.902344 110.820312 C 169.546875 110.636719 169.164062 86.421875 169.164062 86.421875 C 169.164062 86.421875 170.199219 85.953125 170.246094 85.210938 C 170.292969 84.457031 168.933594 84.390625 168.933594 83.425781 C 168.933594 82.464844 170.324219 82.84375 170.355469 81.875 C 170.347656 80.949219 168.890625 81.015625 168.960938 80.160156 C 169.046875 79.195312 170.191406 79.308594 170.253906 78.421875 C 170.308594 77.65625 169.535156 77.1875 169.1875 76.871094 L 170.300781 76.855469 L 172.949219 76.90625 C 174.835938 76.910156 172.917969 77.3125 172.945312 78.386719 C 172.964844 79.089844 173.902344 79.554688 173.984375 80.164062 C 174.015625 80.789062 172.644531 81.230469 172.625 81.980469 C 172.609375 82.652344 173.972656 82.699219 173.925781 83.320312 C 173.839844 84.375 172.71875 84.605469 172.734375 85.246094 C 172.75 85.882812 174.246094 86.125 174.246094 86.632812 C 174.195312 87.617188 174.03125 111.539062 174.03125 111.539062 C 171.652344 123.722656 157.917969 126.820312 154.023438 110.789062 Z M 154.023438 110.789062 "/>
</g>
</g>
<g clip-path="url(#clip13)" clip-rule="nonzero">
<g clip-path="url(#clip14)" clip-rule="nonzero">
<path style="fill:none;stroke-width:1.932;stroke-linecap:butt;stroke-linejoin:round;stroke:rgb(38.823529%,3.137255%,6.27451%);stroke-opacity:1;stroke-miterlimit:4;" d="M 282.867188 181 L 314.695312 189.40625 L 314.695312 144.507812 C 300.117188 145.226562 287.976562 117.140625 313.71875 115.21875 C 288.460938 111.617188 285.539062 118.101562 282.625 125.0625 Z M 289.9375 221.578125 C 283.015625 232.90625 264.515625 229.546875 260.1875 221.640625 C 258.890625 221.273438 259.65625 172.84375 259.65625 172.84375 C 259.65625 172.84375 257.59375 171.90625 257.492188 170.421875 C 257.398438 168.914062 260.304688 168.78125 260.304688 166.851562 C 260.304688 164.929688 257.335938 165.6875 257.28125 163.75 C 257.289062 161.898438 260.445312 162.148438 260.304688 160.4375 C 260.140625 158.515625 256.773438 158.796875 256.632812 157.023438 C 256.523438 155.609375 259.039062 154.375 259.734375 153.742188 L 257.390625 153.710938 L 252.085938 153.8125 C 248.320312 153.820312 252.148438 154.625 252.101562 156.773438 C 252.0625 158.179688 250.1875 159.109375 250.023438 160.328125 C 249.960938 161.578125 252.703125 162.460938 252.734375 163.960938 C 252.765625 165.304688 250.046875 165.398438 250.140625 166.640625 C 250.3125 168.75 252.554688 169.210938 252.523438 170.492188 C 252.484375 171.765625 249.5 172.25 249.492188 173.265625 C 249.59375 175.234375 249.921875 223.078125 249.921875 223.078125 C 254.6875 247.445312 282.15625 253.640625 289.9375 221.578125 Z M 308.046875 221.578125 C 314.96875 232.90625 333.476562 229.546875 337.804688 221.640625 C 339.09375 221.273438 338.328125 172.84375 338.328125 172.84375 C 338.328125 172.84375 340.398438 171.90625 340.492188 170.421875 C 340.585938 168.914062 337.867188 168.78125 337.867188 166.851562 C 337.867188 164.929688 340.648438 165.6875 340.710938 163.75 C 340.695312 161.898438 337.78125 162.03125 337.921875 160.320312 C 338.09375 158.390625 340.382812 158.617188 340.507812 156.84375 C 340.617188 155.3125 339.070312 154.375 338.375 153.742188 L 340.601562 153.710938 L 345.898438 153.8125 C 349.671875 153.820312 345.835938 154.625 345.890625 156.773438 C 345.929688 158.179688 347.804688 159.109375 347.96875 160.328125 C 348.03125 161.578125 345.289062 162.460938 345.25 163.960938 C 345.21875 165.304688 347.945312 165.398438 347.851562 166.640625 C 347.679688 168.75 345.4375 169.210938 345.46875 170.492188 C 345.5 171.765625 348.492188 172.25 348.492188 173.265625 C 348.390625 175.234375 348.0625 223.078125 348.0625 223.078125 C 343.304688 247.445312 315.835938 253.640625 308.046875 221.578125 Z M 308.046875 221.578125 " transform="matrix(0.5,0,0,0.5,0,0)"/>
</g>
</g>
<g clip-path="url(#clip15)" clip-rule="nonzero">
<g clip-path="url(#clip16)" clip-rule="nonzero">
<path style=" stroke:none;fill-rule:nonzero;fill:rgb(38.823529%,3.137255%,6.27451%);fill-opacity:1;" d="M 140.828125 111.863281 C 142.164062 111.144531 143.378906 110.425781 144.230469 108.742188 L 139.007812 108.863281 C 139.007812 108.863281 136.578125 110.304688 135.363281 111.863281 Z M 157.710938 111.863281 C 156.375 111.144531 155.160156 110.425781 154.308594 108.742188 L 159.53125 108.863281 C 159.53125 108.863281 161.960938 110.304688 163.175781 111.863281 Z M 131.355469 106.824219 L 167.304688 106.945312 "/>
</g>
</g>
<g clip-path="url(#clip17)" clip-rule="nonzero">
<g clip-path="url(#clip18)" clip-rule="nonzero">
<path style="fill:none;stroke-width:2.792;stroke-linecap:round;stroke-linejoin:miter;stroke:rgb(38.823529%,3.137255%,6.27451%);stroke-opacity:1;stroke-miterlimit:4;" d="M 281.65625 223.726562 C 284.328125 222.289062 286.757812 220.851562 288.460938 217.484375 L 278.015625 217.726562 C 278.015625 217.726562 273.15625 220.609375 270.726562 223.726562 Z M 315.421875 223.726562 C 312.75 222.289062 310.320312 220.851562 308.617188 217.484375 L 319.0625 217.726562 C 319.0625 217.726562 323.921875 220.609375 326.351562 223.726562 Z M 262.710938 213.648438 L 334.609375 213.890625 " transform="matrix(0.5,0,0,0.5,0,0)"/>
</g>
</g>
<g clip-path="url(#clip19)" clip-rule="nonzero">
<g clip-path="url(#clip20)" clip-rule="nonzero">
<path style=" stroke:none;fill-rule:nonzero;fill:rgb(38.823529%,3.137255%,6.27451%);fill-opacity:1;" d="M 133.054688 98.304688 L 137.304688 103.945312 M 133.054688 103.945312 L 137.671875 98.421875 M 135.484375 97.941406 L 135.363281 101.421875 "/>
</g>
</g>
<g clip-path="url(#clip21)" clip-rule="nonzero">
<g clip-path="url(#clip22)" clip-rule="nonzero">
<path style="fill:none;stroke-width:2.792;stroke-linecap:round;stroke-linejoin:miter;stroke:rgb(38.823529%,3.137255%,6.27451%);stroke-opacity:1;stroke-miterlimit:4;" d="M 266.109375 196.609375 L 274.609375 207.890625 M 266.109375 207.890625 L 275.34375 196.84375 M 270.96875 195.882812 L 270.726562 202.84375 " transform="matrix(0.5,0,0,0.5,0,0)"/>
</g>
</g>
<g clip-path="url(#clip23)" clip-rule="nonzero">
<g clip-path="url(#clip24)" clip-rule="nonzero">
<path style=" stroke:none;fill-rule:nonzero;fill:rgb(38.823529%,3.137255%,6.27451%);fill-opacity:1;" d="M 139.855469 98.304688 L 144.109375 103.945312 M 139.855469 103.945312 L 144.472656 98.421875 M 142.285156 97.941406 L 142.164062 101.421875 "/>
</g>
</g>
<g clip-path="url(#clip25)" clip-rule="nonzero">
<g clip-path="url(#clip26)" clip-rule="nonzero">
<path style="fill:none;stroke-width:2.792;stroke-linecap:round;stroke-linejoin:miter;stroke:rgb(38.823529%,3.137255%,6.27451%);stroke-opacity:1;stroke-miterlimit:4;" d="M 266.106938 196.609375 L 274.61475 207.890625 M 266.106938 207.890625 L 275.341313 196.84375 M 270.966313 195.882812 L 270.724125 202.84375 " transform="matrix(0.5,0,0,0.5,6.802,0)"/>
</g>
</g>
<g clip-path="url(#clip27)" clip-rule="nonzero">
<g clip-path="url(#clip28)" clip-rule="nonzero">
<path style=" stroke:none;fill-rule:nonzero;fill:rgb(38.823529%,3.137255%,6.27451%);fill-opacity:1;" d="M 146.78125 98.304688 L 151.03125 103.945312 M 146.78125 103.945312 L 151.394531 98.421875 M 149.210938 97.941406 L 149.089844 101.421875 "/>
</g>
</g>
<g clip-path="url(#clip29)" clip-rule="nonzero">
<g clip-path="url(#clip30)" clip-rule="nonzero">
<path style="fill:none;stroke-width:2.792;stroke-linecap:round;stroke-linejoin:miter;stroke:rgb(38.823529%,3.137255%,6.27451%);stroke-opacity:1;stroke-miterlimit:4;" d="M 266.1125 196.609375 L 274.6125 207.890625 M 266.1125 207.890625 L 275.339063 196.84375 M 270.971875 195.882812 L 270.729688 202.84375 " transform="matrix(0.5,0,0,0.5,13.725,0)"/>
</g>
</g>
<g clip-path="url(#clip31)" clip-rule="nonzero">
<g clip-path="url(#clip32)" clip-rule="nonzero">
<path style=" stroke:none;fill-rule:nonzero;fill:rgb(38.823529%,3.137255%,6.27451%);fill-opacity:1;" d="M 153.945312 98.304688 L 158.195312 103.945312 M 153.945312 103.945312 L 158.5625 98.421875 M 156.375 97.941406 L 156.253906 101.421875 "/>
</g>
</g>
<g clip-path="url(#clip33)" clip-rule="nonzero">
<g clip-path="url(#clip34)" clip-rule="nonzero">
<path style="fill:none;stroke-width:2.792;stroke-linecap:round;stroke-linejoin:miter;stroke:rgb(38.823529%,3.137255%,6.27451%);stroke-opacity:1;stroke-miterlimit:4;" d="M 266.108625 196.609375 L 274.608625 207.890625 M 266.108625 207.890625 L 275.343 196.84375 M 270.968 195.882812 L 270.725813 202.84375 " transform="matrix(0.5,0,0,0.5,20.891,0)"/>
</g>
</g>
<g clip-path="url(#clip35)" clip-rule="nonzero">
<g clip-path="url(#clip36)" clip-rule="nonzero">
<path style=" stroke:none;fill-rule:nonzero;fill:rgb(38.823529%,3.137255%,6.27451%);fill-opacity:1;" d="M 160.867188 98.304688 L 165.121094 103.945312 M 160.867188 103.945312 L 165.484375 98.421875 M 163.300781 97.941406 L 163.175781 101.421875 "/>
</g>
</g>
<g clip-path="url(#clip37)" clip-rule="nonzero">
<g clip-path="url(#clip38)" clip-rule="nonzero">
<path style="fill:none;stroke-width:2.792;stroke-linecap:round;stroke-linejoin:miter;stroke:rgb(38.823529%,3.137255%,6.27451%);stroke-opacity:1;stroke-miterlimit:4;" d="M 266.106375 196.609375 L 274.614188 207.890625 M 266.106375 207.890625 L 275.34075 196.84375 M 270.973563 195.882812 L 270.723563 202.84375 " transform="matrix(0.5,0,0,0.5,27.814,0)"/>
</g>
</g>
</g>
</svg>
