<?xml version="1.0" encoding="UTF-8"?>
<svg xmlns="http://www.w3.org/2000/svg" xmlns:xlink="http://www.w3.org/1999/xlink" width="px" height="px" viewBox="0 0 300 225" version="1.1">
<g id="surface1">
<rect x="0" y="0" width="300" height="225" style="fill:rgb(0%,0%,0%);fill-opacity:1;stroke:none;"/>
<path style=" stroke:none;fill-rule:nonzero;fill:rgb(80.784314%,6.666667%,14.901961%);fill-opacity:1;" d="M 0 0 L 300 0 L 300 225 Z M 0 0 "/>
<path style=" stroke:none;fill-rule:nonzero;fill:rgb(98.823529%,81.960784%,8.627451%);fill-opacity:1;" d="M 185.734375 65.371094 C 183.519531 68.234375 178.277344 62.492188 171.996094 62.363281 C 165.714844 62.230469 161.265625 68.382812 159.433594 70.476562 C 157.601562 72.570312 151.710938 83.5625 151.84375 84.738281 C 151.972656 85.917969 155.507812 81.46875 156.816406 80.683594 C 156.945312 82.253906 155.375 84.085938 155.769531 84.609375 C 156.160156 85.132812 160.347656 81.46875 161.789062 81.335938 C 162.179688 82.382812 161.003906 83.429688 161.394531 85 C 161.917969 85.523438 164.273438 82.382812 165.84375 81.730469 C 166.105469 82.90625 164.40625 85.132812 165.320312 86.570312 C 165.976562 86.703125 169.902344 82.121094 171.210938 81.597656 C 172.519531 81.074219 170.554688 85.917969 171.210938 86.308594 C 172.386719 85.523438 176.050781 81.335938 177.230469 80.8125 C 178.40625 80.289062 177.101562 86.179688 177.625 86.179688 C 179.0625 85.132812 182.726562 80.160156 183.117188 79.375 C 183.511719 78.589844 182.726562 86.964844 186.78125 91.414062 C 190.839844 95.863281 196.992188 100.964844 197.644531 100.964844 C 198.429688 99.527344 197.382812 96.515625 198.039062 96.648438 C 199.867188 98.609375 203.273438 101.488281 204.054688 101.488281 C 204.84375 101.488281 203.53125 98.347656 204.578125 98.347656 C 206.671875 100.3125 212.695312 108.03125 224.46875 111.566406 C 223.6875 109.339844 221.984375 107.378906 221.851562 106.332031 C 222.636719 106.460938 225.386719 107.773438 225.910156 107.640625 C 226.433594 107.507812 220.152344 99.789062 220.542969 98.742188 C 221.984375 98.609375 222.636719 99.527344 223.160156 98.871094 C 222.507812 97.824219 217.011719 91.675781 217.011719 90.234375 C 217.011719 88.796875 218.714844 90.496094 219.234375 90.234375 C 219.757812 89.972656 217.140625 84.476562 217.664062 83.824219 C 218.191406 83.167969 223.949219 87.355469 225.386719 87.355469 C 226.824219 87.355469 225.78125 82.253906 226.433594 81.992188 C 227.085938 81.730469 231.929688 84.738281 232.976562 84.738281 C 234.023438 84.738281 233.890625 82.515625 234.285156 82.777344 C 234.679688 83.039062 246.0625 94.421875 242.136719 107.769531 C 238.210938 117.324219 230.359375 122.425781 218.84375 118.238281 C 219.5 119.285156 225.648438 124.390625 232.320312 122.558594 C 238.996094 120.726562 247.109375 115.492188 246.195312 102.40625 C 245.277344 89.320312 240.957031 87.488281 240.304688 85.523438 C 239.648438 83.5625 241.351562 86.046875 242.789062 86.570312 C 244.230469 87.097656 242.53125 83.824219 242.136719 82.382812 C 241.742188 80.945312 246.453125 85.394531 247.632812 85.785156 C 248.8125 86.179688 244.886719 75.054688 243.707031 74.269531 C 242.53125 73.484375 244.886719 74.53125 245.671875 74.792969 C 246.457031 75.054688 238.472656 62.625 236.773438 62.625 C 235.070312 62.625 238.210938 61.96875 239.128906 61.96875 C 240.042969 61.96875 229.96875 53.855469 228.265625 53.855469 C 226.566406 53.855469 231.929688 51.761719 232.453125 51.632812 C 233.371094 51.761719 220.808594 44.957031 209.554688 51.761719 C 208.898438 51.238281 214.851562 47.117188 215.050781 45.351562 C 215.113281 44.894531 213.085938 43.910156 212.957031 43.386719 C 212.824219 42.863281 216.097656 41.292969 216.226562 40.117188 C 215.441406 39.070312 214.003906 39.460938 213.21875 39.199219 C 213.019531 38.21875 215.964844 35.796875 215.703125 34.75 C 215.507812 34.164062 213.347656 33.964844 212.824219 34.359375 C 212.300781 34.753906 214.199219 31.613281 213.871094 30.695312 C 213.609375 30.304688 212.5625 30.566406 211.515625 30.828125 C 210.863281 30.695312 214.917969 25.070312 214.132812 24.285156 C 213.347656 23.5 202.355469 30.039062 198.300781 37.367188 C 194.242188 44.695312 197.382812 50.585938 196.859375 53.070312 C 196.335938 55.558594 195.679688 58.042969 193.980469 58.042969 C 192.28125 58.042969 188.355469 55.425781 187.046875 54.117188 C 185.738281 52.808594 185.476562 51.894531 183.644531 51.371094 C 181.8125 50.847656 177.625 52.417969 176.054688 52.546875 C 174.484375 52.679688 168.332031 51.371094 167.941406 51.761719 C 167.546875 52.15625 173.960938 54.511719 175.398438 55.296875 C 176.839844 56.082031 176.96875 57.128906 178.015625 57.78125 C 179.0625 58.4375 188.878906 61.316406 185.738281 65.371094 Z M 224.078125 83.824219 C 227.21875 86.964844 248.417969 101.097656 248.417969 118.371094 C 248.417969 135.644531 232.976562 135.121094 228.527344 134.597656 C 233.5 138.785156 252.34375 138 252.34375 118.371094 C 252.34375 101.097656 228.003906 83.824219 224.863281 82.253906 C 221.722656 80.683594 220.9375 80.683594 224.078125 83.824219 Z M 224.078125 83.824219 "/>
<path style=" stroke:none;fill-rule:nonzero;fill:rgb(100%,100%,100%);fill-opacity:1;" d="M 86.035156 163.515625 L 90.511719 149.121094 L 94.984375 163.671875 L 83.203125 154.753906 L 97.820312 154.753906 Z M 86.035156 163.515625 "/>
<path style=" stroke:none;fill-rule:nonzero;fill:rgb(100%,100%,100%);fill-opacity:1;" d="M 75.164062 69.726562 L 66.214844 98.515625 L 89.78125 80.992188 L 60.546875 80.992188 L 84.113281 98.828125 Z M 75.164062 69.726562 "/>
<path style=" stroke:none;fill-rule:nonzero;fill:rgb(100%,100%,100%);fill-opacity:1;" d="M 40.789062 113.671875 L 31.839844 142.460938 L 55.40625 124.9375 L 26.171875 124.9375 L 49.738281 142.773438 Z M 40.789062 113.671875 "/>
<path style=" stroke:none;fill-rule:nonzero;fill:rgb(100%,100%,100%);fill-opacity:1;" d="M 109.375 110.546875 L 100.425781 139.335938 L 123.992188 121.8125 L 94.757812 121.8125 L 118.324219 139.648438 Z M 109.375 110.546875 "/>
<path style=" stroke:none;fill-rule:nonzero;fill:rgb(100%,100%,100%);fill-opacity:1;" d="M 75.164062 173.046875 L 66.214844 201.835938 L 89.78125 184.3125 L 60.546875 184.3125 L 84.113281 202.148438 Z M 75.164062 173.046875 "/>
</g>
</svg>
