<?xml version="1.0" encoding="UTF-8"?>
<svg xmlns="http://www.w3.org/2000/svg" xmlns:xlink="http://www.w3.org/1999/xlink" width="px" height="px" viewBox="0 0 600 300" version="1.1">
<g id="surface1">
<rect x="0" y="0" width="600" height="300" style="fill:rgb(0%,21.960784%,65.882353%);fill-opacity:1;stroke:none;"/>
<path style=" stroke:none;fill-rule:nonzero;fill:rgb(80.784314%,6.666667%,14.901961%);fill-opacity:1;" d="M 0 150 L 600 150 L 600 300 L 0 300 Z M 0 150 "/>
<path style=" stroke:none;fill-rule:nonzero;fill:rgb(100%,100%,100%);fill-opacity:1;" d="M 259.808594 150 L 0 300 L 0 0 "/>
<path style=" stroke:none;fill-rule:nonzero;fill:rgb(98.823529%,81.960784%,8.627451%);fill-opacity:1;" d="M 15 25.980469 L 24.03125 33.785156 L 34.484375 28.03125 L 29.855469 39.03125 L 38.558594 47.191406 L 26.667969 46.1875 L 21.59375 56.988281 L 18.871094 45.371094 L 7.03125 43.878906 L 17.242188 37.703125 Z M 218.292969 134.148438 L 218.535156 146.082031 L 229.808594 150 L 218.53125 153.917969 L 218.292969 165.851562 L 211.078125 156.339844 L 199.65625 159.796875 L 206.476562 150 L 199.65625 140.203125 L 211.082031 143.660156 Z M 21.589844 243.011719 L 26.664062 253.808594 L 38.558594 252.808594 L 29.855469 260.972656 L 34.484375 271.972656 L 24.03125 266.214844 L 15 274.019531 L 17.242188 262.296875 L 7.03125 256.121094 L 18.871094 254.628906 Z M 93.332031 86.667969 L 89.4375 90.5625 L 91.371094 120.0625 C 90.710938 120.105469 90.0625 120.171875 89.421875 120.253906 L 85.871094 93.332031 L 82.695312 96.511719 L 87.480469 120.574219 C 83.542969 121.351562 79.882812 122.898438 76.664062 125.054688 L 63.039062 104.65625 L 58.539062 104.65625 L 75.070312 126.203125 C 74.550781 126.601562 74.046875 127.015625 73.558594 127.449219 L 54.058594 105.214844 L 48.550781 105.214844 L 48.550781 110.726562 L 70.78125 130.226562 C 70.351562 130.714844 69.933594 131.21875 69.535156 131.738281 L 47.988281 115.203125 L 47.988281 119.703125 L 68.390625 133.335938 C 31.570312 130.351562 4.140625 98.082031 7.128906 61.261719 C 10.113281 24.441406 42.378906 -2.984375 79.199219 0 L 55.136719 -4.785156 L 51.957031 -1.609375 L 78.878906 1.941406 C 78.796875 2.585938 78.730469 3.234375 78.691406 3.890625 L 49.1875 1.960938 L 30 150 L 33.894531 153.894531 L 63.394531 151.960938 C 63.441406 152.621094 63.503906 153.273438 63.585938 153.917969 L 36.664062 157.460938 L 39.84375 160.640625 L 63.90625 155.855469 C 64.683594 159.789062 66.234375 163.449219 68.386719 166.667969 L 47.988281 180.296875 L 47.988281 184.792969 L 69.535156 168.261719 C 69.933594 168.78125 70.351562 169.285156 70.785156 169.773438 L 48.550781 189.273438 L 48.550781 194.785156 L 54.058594 194.785156 L 73.558594 172.550781 C 74.050781 172.984375 74.554688 173.398438 75.074219 173.796875 L 58.539062 195.34375 L 63.039062 195.34375 L 76.671875 174.941406 C 28.359375 148.121094 10.941406 87.214844 37.761719 38.90625 C 64.582031 -9.402344 125.488281 -26.820312 173.796875 0 L 169.011719 24.058594 L 172.191406 27.238281 L 175.734375 0.316406 C 176.378906 0.398438 177.03125 0.464844 177.6875 0.507812 L 175.753906 30.007812 L 179.648438 33.902344 L 183.546875 30.007812 L 181.613281 0.507812 C 182.269531 0.464844 182.921875 0.398438 183.566406 0.316406 L 187.113281 27.238281 L 190.289062 24.058594 L 185.503906 -0.00390625 C 185.507812 51.132812 144.050781 92.589844 92.914062 92.589844 C 41.777344 92.59375 0.320312 51.136719 0.316406 0 L 13.945312 20.398438 L 18.441406 20.398438 L 1.914062 -1.148438 C 2.429688 -1.546875 2.933594 -1.960938 3.425781 -2.394531 L 22.925781 19.839844 L 28.433594 19.839844 L 28.433594 189.273438 L 6.199219 169.773438 C 6.628906 169.285156 7.046875 168.78125 7.445312 168.261719 L 28.988281 184.792969 L 28.988281 180.300781 L 8.589844 166.667969 C -37.433594 122.574219 -39 49.523438 5.089844 3.5 C 49.183594 -42.523438 122.234375 -44.089844 168.261719 0 L 192.324219 4.785156 L 150 157.460938 L 123.078125 153.914062 C 123.164062 153.269531 123.230469 152.621094 123.269531 151.960938 L 152.769531 153.894531 L 156.671875 150 L 152.773438 146.105469 L 123.273438 148.039062 C 82.394531 148.574219 48.820312 115.875 48.28125 74.992188 C 47.742188 34.113281 80.445312 0.539062 121.324219 0 L 150 142.535156 L 146.824219 139.359375 L 122.761719 144.140625 C 82.957031 147.128906 48.269531 117.28125 45.28125 77.476562 C 42.296875 37.671875 72.144531 2.984375 111.949219 0 L 132.347656 -13.628906 L 132.347656 -18.128906 L 110.800781 -1.597656 C 110.398438 -2.113281 109.984375 -2.617188 109.554688 -3.109375 L 131.789062 -22.609375 L 131.789062 -28.117188 L 126.277344 -28.117188 L 106.777344 -5.882812 C 106.289062 -6.316406 105.78125 -6.734375 105.261719 -7.128906 L 121.796875 -28.675781 L 117.300781 -28.675781 L 110 125.058594 C 75.464844 126.296875 46.46875 99.304688 45.230469 64.769531 C 43.992188 30.238281 70.980469 1.238281 105.515625 0 L 110.300781 -24.0625 L 107.121094 -27.238281 L 103.574219 -0.320312 C 102.929688 -0.402344 102.28125 -0.46875 101.625 -0.511719 L 103.554688 -30.011719 Z M 93.332031 86.667969 "/>
</g>
</svg>
