<?xml version="1.0" encoding="UTF-8"?>
<svg xmlns="http://www.w3.org/2000/svg" xmlns:xlink="http://www.w3.org/1999/xlink" width="px" height="px" viewBox="0 0 600 300" version="1.1">
<defs>
<clipPath id="clip1">
  <path d="M 0 0 L 300 0 L 300 150 L 0 150 Z M 0 0 "/>
</clipPath>
<clipPath id="clip2">
  <path d="M 0 0 L 0 75 L 350 75 L 350 150 L 300 150 Z M 300 0 L 150 0 L 150 200 L 0 200 L 0 150 Z M 300 0 "/>
</clipPath>
<clipPath id="clip3">
  <path d="M 0 0 L 350 0 L 350 200 L 0 200 Z M 0 0 "/>
</clipPath>
<clipPath id="clip4">
  <path d="M 0 0 L 0 75 L 350 75 L 350 150 L 300 150 Z M 300 0 L 150 0 L 150 200 L 0 200 L 0 150 Z M 300 0 "/>
</clipPath>
</defs>
<g id="surface1">
<rect x="0" y="0" width="600" height="300" style="fill:rgb(0.392157%,12.941176%,41.176471%);fill-opacity:1;stroke:none;"/>
<path style="fill-rule:nonzero;fill:rgb(0%,0%,0%);fill-opacity:1;stroke-width:1.5;stroke-linecap:butt;stroke-linejoin:miter;stroke:rgb(100%,100%,100%);stroke-opacity:1;stroke-miterlimit:4;" d="M 0 0 L 15 7.5 M 15 0 L 0 7.5 " transform="matrix(20,0,0,20,0,0)"/>
<g clip-path="url(#clip1)" clip-rule="nonzero">
<g clip-path="url(#clip2)" clip-rule="nonzero">
<path style=" stroke:none;fill-rule:nonzero;fill:rgb(0%,0%,0%);fill-opacity:1;" d="M 0 0 L 300 150 M 300 0 L 0 150 "/>
</g>
</g>
<g clip-path="url(#clip3)" clip-rule="nonzero">
<g clip-path="url(#clip4)" clip-rule="nonzero">
<path style="fill:none;stroke-width:20;stroke-linecap:butt;stroke-linejoin:miter;stroke:rgb(78.431373%,6.27451%,18.039216%);stroke-opacity:1;stroke-miterlimit:4;" d="M 0 0 L 300 150 M 300 0 L 0 150 "/>
</g>
</g>
<path style="fill-rule:nonzero;fill:rgb(0%,0%,0%);fill-opacity:1;stroke-width:2.5;stroke-linecap:butt;stroke-linejoin:miter;stroke:rgb(100%,100%,100%);stroke-opacity:1;stroke-miterlimit:4;" d="M 7.5 0 L 7.5 10 M 0 3.75 L 17.5 3.75 " transform="matrix(20,0,0,20,0,0)"/>
<path style="fill-rule:nonzero;fill:rgb(0%,0%,0%);fill-opacity:1;stroke-width:1.5;stroke-linecap:butt;stroke-linejoin:miter;stroke:rgb(78.431373%,6.27451%,18.039216%);stroke-opacity:1;stroke-miterlimit:4;" d="M 7.5 0 L 7.5 10 M 0 3.75 L 17.5 3.75 " transform="matrix(20,0,0,20,0,0)"/>
<path style=" stroke:none;fill-rule:nonzero;fill:rgb(0.392157%,12.941176%,41.176471%);fill-opacity:1;" d="M 300 0 L 300 150 L 0 150 L 0 300 L 600 300 L 600 0 Z M 300 0 "/>
<path style="fill-rule:nonzero;fill:rgb(96.862745%,87.843137%,9.019608%);fill-opacity:1;stroke-width:0.015;stroke-linecap:butt;stroke-linejoin:miter;stroke:rgb(0%,0%,0%);stroke-opacity:1;stroke-miterlimit:4;" d="M 20.017969 7.953906 C 19.698047 8.225 19.392969 8.621094 19.317969 8.978906 C 19.107031 9.985938 18.826953 10.209961 18.394922 9.993945 C 18.394922 10.534961 18.868945 10.575977 19.076953 10.259961 C 19.076953 10.766992 19.260938 11.207031 19.675977 11.582031 C 19.850977 11.740039 19.883984 11.632031 19.800977 11.457031 C 19.717969 11.282031 19.717969 10.716992 19.551953 10.392969 C 19.817969 10.583984 20.208984 10.475977 20.175977 9.951953 C 19.834961 10.151953 19.496094 10.143945 19.460938 9.668945 C 19.417969 9.111914 19.634961 8.30293 20.017969 7.953906 Z M 19.613086 3.949023 C 19.635938 3.749023 19.592969 3.543945 19.44707 3.415039 C 19.165039 3.166992 18.889063 3.249023 18.683008 3.449023 C 18.375 3.283008 18.211914 3.87207 17.863086 3.773047 C 17.921094 3.964063 18.013086 4.04707 18.186914 3.981055 C 18.003906 4.14707 18.186914 4.34707 17.971094 4.546094 C 18.361914 4.671094 18.569922 4.455078 18.55293 4.080078 C 18.70293 4.213086 18.934961 4.205078 19.059961 4.055078 C 18.851953 3.988086 18.850977 3.808008 18.934961 3.639063 C 19.059961 3.390039 19.646094 3.4 19.613086 3.949023 Z M 19.613086 3.949023 " transform="matrix(20,0,0,20,0,0)"/>
<path style="fill-rule:nonzero;fill:rgb(20%,45.098039%,12.941176%);fill-opacity:1;stroke-width:0.015;stroke-linecap:butt;stroke-linejoin:miter;stroke:rgb(0%,0%,0%);stroke-opacity:1;stroke-miterlimit:4;" d="M 20.515039 6.841992 C 20.074023 7.075 19.267969 6.975 19.192969 6.400977 C 19.117969 5.826953 19.675 5.568945 19.825 5.494922 C 20.058008 5.37793 20.241016 5.585938 20.166016 5.82793 C 18.556641 9.787305 14.042383 11.692383 10.083008 10.083008 C 6.123633 8.473633 4.218555 3.959375 5.82793 0 C 6.168945 0.025 6.484961 -0.233008 6.617969 -0.599023 C 6.498047 -0.484961 6.17207 -0.561914 5.903906 -0.578906 C 5.986914 -0.669922 5.985938 -0.848047 5.960938 -0.940039 C 5.678906 -0.65 5.271094 -0.783008 4.731055 0.0570313 C 4.814063 -0.233984 4.97207 -0.816016 5.064063 -1.199023 C 5.073047 -1.236914 5.080078 -1.275 5.084961 -1.314063 C 5.116992 -1.863086 4.532031 -1.873047 4.407031 -1.623047 C 4.543945 -1.468945 4.47207 -1.289062 4.423047 -1.016016 C 4.365039 -0.691992 4.240039 0.0570313 4.132031 0.306055 C 4.099023 -0.0849609 3.841016 -0.109961 3.791016 -0.300977 C 3.716016 -0.250977 3.675 -0.117969 3.691016 -0.0269531 C 3.599023 -0.126953 3.283008 -0.00195312 3.166992 -0.151953 C 3.041992 0.0970703 3.241992 0.34707 3.45 0.455078 C 3.328906 0.463086 3.3 0.608984 3.166992 0.608984 C 3.346094 0.816992 3.528906 0.9 3.741016 0.916992 C 3.95293 0.933984 4.110938 1.013086 4.240039 1.269922 C 4.448047 1.686914 5.240039 1.957031 5.985938 1.578906 Z M 20.515039 6.841992 " transform="matrix(20,0,0,20,0,0)"/>
<path style="fill-rule:nonzero;fill:rgb(96.862745%,87.843137%,9.019608%);fill-opacity:1;stroke-width:0.015;stroke-linecap:butt;stroke-linejoin:miter;stroke:rgb(0%,0%,0%);stroke-opacity:1;stroke-miterlimit:4;" d="M 21.613086 6.333984 C 21.364063 7.024023 20.682031 7.515039 20.374023 7.590039 C 19.85 7.716992 18.782031 8.235938 18.496094 8.50293 C 16.148047 8.516211 14.233789 6.623633 14.220508 4.275586 C 14.207227 1.927539 16.1 0.0132813 18.448047 0 C 18.307031 -0.1 18.190039 -0.424023 18.440039 -0.699023 C 19.22207 -1.431055 20.061914 -1.115039 20.585938 -1.614063 C 20.144922 -1.381055 19.339063 -1.481055 19.264063 -2.055078 C 19.831445 3.832031 15.519141 9.064453 9.632031 9.632031 C 3.744922 10.199414 -1.4875 5.887109 -2.055078 0 C -1.964063 0.100977 -1.698047 0.416992 -1.648047 0.533008 Z M 21.613086 6.333984 " transform="matrix(20,0,0,20,0,0)"/>
<path style="fill-rule:nonzero;fill:rgb(20%,45.098039%,12.941176%);fill-opacity:1;stroke-width:0.015;stroke-linecap:butt;stroke-linejoin:miter;stroke:rgb(0%,0%,0%);stroke-opacity:1;stroke-miterlimit:4;" d="M 20.017969 7.953906 C 19.623047 8.289062 19.417969 9.111914 19.459961 9.668945 C 19.47207 9.824023 19.515039 9.928906 19.581055 9.992969 C 19.609961 9.676953 19.830078 8.859961 20.391016 8.496094 C 20.865039 8.188086 21.605078 7.498047 21.880078 6.708008 C 20.027734 6.802148 18.449609 5.376953 18.355469 3.524414 C 18.261328 1.67207 19.686719 0.0941406 21.539062 0 C 21.266016 0.746094 20.536914 1.103906 19.967969 1.586914 Z M 20.017969 7.953906 " transform="matrix(20,0,0,20,0,0)"/>
<path style="fill-rule:nonzero;fill:rgb(19.215686%,42.745098%,22.745098%);fill-opacity:1;stroke-width:0.015;stroke-linecap:butt;stroke-linejoin:miter;stroke:rgb(0%,0%,0%);stroke-opacity:1;stroke-miterlimit:4;" d="M 21.358984 6.014063 C 20.680273 5.346484 20.617578 4.273242 21.213672 3.531055 C 21.809961 2.789062 22.871289 2.618945 23.669531 3.137695 C 24.467773 3.656641 24.743164 4.695703 24.307031 5.541797 C 23.870898 6.387891 22.864648 6.766211 21.978906 6.416992 C 21.588086 6.566992 20.806055 6.55 20.490039 6.433984 C 20.485352 10.31543 17.334961 13.458203 13.453516 13.453516 C 9.57207 13.448828 6.429297 10.298438 6.433984 6.416992 C 6.501953 6.491016 6.559961 6.557031 6.589063 6.62793 Z M 21.358984 6.014063 " transform="matrix(20,0,0,20,0,0)"/>
<path style="fill-rule:nonzero;fill:rgb(20%,45.098039%,12.941176%);fill-opacity:1;stroke-width:0.015;stroke-linecap:butt;stroke-linejoin:miter;stroke:rgb(0%,0%,0%);stroke-opacity:1;stroke-miterlimit:4;" d="M 18.369922 7.756055 C 17.733984 8.350977 18.153906 8.869922 18.40293 8.986914 C 18.336914 9.40293 18.726953 9.35293 18.718945 9.701953 C 18.876953 9.610938 18.918945 9.368945 18.893945 9.17793 C 19.093945 9.393945 19.600977 9.15293 19.708984 9.551953 C 19.775977 9.110938 19.434961 8.671094 19.010938 8.711914 C 19.185938 8.553906 19.085938 8.296094 18.919922 8.230078 C 18.886914 8.553906 18.521094 8.553906 18.378906 8.455078 C 18.236914 8.355078 18.119922 8.031055 18.369922 7.756055 Z M 18.369922 7.756055 " transform="matrix(20,0,0,20,0,0)"/>
<path style="fill-rule:nonzero;fill:rgb(96.862745%,87.843137%,9.019608%);fill-opacity:1;stroke-width:0.015;stroke-linecap:butt;stroke-linejoin:miter;stroke:rgb(0%,0%,0%);stroke-opacity:1;stroke-miterlimit:4;" d="M 19.746094 11.540039 C 19.676953 11.580078 19.682031 11.668945 19.725 11.726953 C 19.811914 11.842969 19.663086 12.107031 19.944922 12.164062 C 20.02793 12.181055 20.091992 12.130078 20.124023 12.034961 C 20.210938 11.773047 19.933008 11.743945 19.908008 11.618945 C 19.883008 11.493945 19.803906 11.507031 19.746094 11.540039 Z M 19.746094 11.540039 " transform="matrix(20,0,0,20,0,0)"/>
<path style="fill-rule:nonzero;fill:rgb(96.862745%,87.843137%,9.019608%);fill-opacity:1;stroke-width:0.015;stroke-linecap:butt;stroke-linejoin:miter;stroke:rgb(0%,0%,0%);stroke-opacity:1;stroke-miterlimit:4;" d="M 19.983008 12.031055 C 19.890039 12.074023 19.808008 12.134961 19.846094 12.433984 C 19.860938 12.558008 19.853906 12.858008 19.746094 12.861914 C 19.811914 12.894922 19.953906 12.931055 20.011914 12.853906 C 20.067969 12.948047 20.194922 12.921094 20.244922 12.803906 C 20.310938 12.858008 20.40293 12.766992 20.40293 12.688086 C 20.460938 12.725 20.57793 12.671094 20.548047 12.492969 C 20.618945 12.517969 20.709961 12.467969 20.742969 12.42207 C 20.639063 12.400977 20.376953 12.259961 20.315039 12.148047 C 20.25293 12.034961 20.091016 11.981055 19.983008 12.031055 Z M 19.983008 12.031055 " transform="matrix(20,0,0,20,0,0)"/>
<path style="fill:none;stroke-width:0.015;stroke-linecap:butt;stroke-linejoin:miter;stroke:rgb(0%,0%,0%);stroke-opacity:1;stroke-miterlimit:4;" d="M 18.541992 3.619922 C 18.583984 3.558008 18.631055 3.5 18.683008 3.449023 M 20.124023 4.721094 C 20.19707 4.678906 20.308984 4.674023 20.433008 4.682031 M 20.011914 12.853906 C 19.983008 12.811914 19.97207 12.638086 19.992969 12.532031 M 20.244922 12.803906 C 16.70918 12.876367 13.784375 10.06875 13.711914 6.533008 C 13.639648 2.997266 16.447266 0.0722656 19.983008 0 M 20.40293 12.688086 C 20.344922 12.660938 20.20293 12.47793 20.17207 12.359961 M 20.548047 12.491992 C 17.098437 12.574023 14.235547 9.844141 14.153516 6.394531 C 14.071484 2.944922 16.801367 0.0820312 20.250977 0 " transform="matrix(20,0,0,20,0,0)"/>
<path style="fill-rule:nonzero;fill:rgb(96.862745%,87.843137%,9.019608%);fill-opacity:1;stroke-width:0.015;stroke-linecap:butt;stroke-linejoin:miter;stroke:rgb(0%,0%,0%);stroke-opacity:1;stroke-miterlimit:4;" d="M 24.382031 7.765039 C 25.405078 8.62207 25.471094 9.30293 25.313086 9.70293 C 25.230078 9.328906 24.806055 8.74707 24.365039 8.59707 Z M 24.382031 7.765039 " transform="matrix(20,0,0,20,0,0)"/>
<path style="fill-rule:nonzero;fill:rgb(20%,45.098039%,12.941176%);fill-opacity:1;stroke-width:0.015;stroke-linecap:butt;stroke-linejoin:miter;stroke:rgb(0%,0%,0%);stroke-opacity:1;stroke-miterlimit:4;" d="M 22.55293 7.282031 L 24.449023 7.282031 L 24.449023 9.526953 C 24.449023 11.440039 23.384961 12.571094 22.30293 13.168945 C 21.22207 12.569922 20.157031 11.439063 20.157031 9.526953 L 20.157031 7.282031 L 21.488086 7.282031 C 19.477148 10.584961 15.169531 11.632422 11.866406 9.621484 C 8.563477 7.610547 7.516211 3.30293 9.526953 0 C 9.841016 -0.0310547 10.196094 -0.266016 10.441992 -0.466016 Z M 22.55293 7.282031 " transform="matrix(20,0,0,20,0,0)"/>
<path style="fill-rule:nonzero;fill:rgb(0%,43.137255%,78.039216%);fill-opacity:1;stroke-width:0.015;stroke-linecap:butt;stroke-linejoin:miter;stroke:rgb(0%,0%,0%);stroke-opacity:1;stroke-miterlimit:4;" d="M 24.449023 7.282031 L 24.449023 9.526953 C 24.449023 10.103906 24.351953 10.610938 24.186914 11.051953 L 22.303906 7.59707 L 20.421094 11.051953 C 17.369141 11.473047 14.553711 9.34043 14.132422 6.288477 C 13.711328 3.236523 15.844141 0.421094 18.896094 0 L 18.896094 7.282031 Z M 24.449023 7.282031 " transform="matrix(20,0,0,20,0,0)"/>
<path style=" stroke:none;fill-rule:nonzero;fill:rgb(96.862745%,87.843137%,9.019608%);fill-opacity:1;" d="M 484.878906 217.738281 C 424.753906 215.703125 377.660156 165.308594 379.699219 105.179688 C 381.738281 45.054688 432.132812 -2.039062 492.261719 0 L 456.261719 -66.921875 L 420.261719 0 C 463.335938 2.003906 496.929688 38.03125 495.929688 81.140625 C 494.925781 124.25 459.691406 158.675781 416.570312 158.675781 C 373.449219 158.675781 338.214844 124.25 337.210938 81.140625 C 336.207031 38.03125 369.804688 2.003906 412.878906 0 L 451.699219 -71.960938 L 490.480469 0 Z M 484.878906 217.738281 "/>
<path style="fill-rule:nonzero;fill:rgb(96.862745%,87.843137%,9.019608%);fill-opacity:1;stroke-width:0.015;stroke-linecap:butt;stroke-linejoin:miter;stroke:rgb(0%,0%,0%);stroke-opacity:1;stroke-miterlimit:4;" d="M 23.158984 12.117969 C 23.208984 12.142969 23.300977 12.189063 23.341992 12.206055 C 23.441992 12.006055 23.458008 11.724023 23.425 11.474023 C 23.316992 11.749023 22.950977 11.740039 22.850977 11.906055 C 22.911914 11.936914 22.968945 11.976953 23.017969 12.011914 C 22.892969 12.136914 22.600977 12.346094 22.434961 12.396094 L 22.434961 10.611914 C 22.434961 10.486914 22.392969 10.383008 22.392969 10.278906 L 22.392969 9.909961 C 22.392969 9.826953 22.375977 9.706055 22.301953 9.706055 C 22.226953 9.706055 22.210938 9.826953 22.210938 9.909961 L 22.210938 10.278906 C 22.210938 10.383008 22.168945 10.503906 22.168945 10.611914 L 22.168945 12.396094 C 22.07793 12.130078 21.718945 12.221094 21.55293 11.955078 C 18.251758 14.605469 13.426953 14.077734 10.776563 10.776563 C 8.126172 7.475195 8.653711 2.650391 11.955078 0 C 11.830078 -0.424023 11.489063 -0.457031 11.423047 -0.582031 C 11.423047 -0.407031 11.348047 0 11.465039 0.175 C 11.416602 3.292578 8.850195 5.780859 5.732422 5.732422 C 2.614844 5.68418 0.126758 3.117578 0.175 0 C 0.316016 0.308008 0.951953 0.308984 1.101953 0.816016 C 1.22207 0.628906 1.655078 0.413086 1.958008 0.0880859 Z M 23.158984 12.117969 " transform="matrix(20,0,0,20,0,0)"/>
<path style="fill-rule:nonzero;fill:rgb(96.862745%,87.843137%,9.019608%);fill-opacity:1;stroke-width:0.015;stroke-linecap:butt;stroke-linejoin:miter;stroke:rgb(0%,0%,0%);stroke-opacity:1;stroke-miterlimit:4;" d="M 22.30293 10.633984 C 22.443945 10.633984 22.892969 10.588086 23.056055 10.588086 C 23.098047 10.588086 23.133008 10.525 23.133008 10.44707 C 23.133008 10.368945 23.099023 10.306055 23.056055 10.306055 C 22.893945 10.306055 22.444922 10.259961 22.30293 10.259961 C 22.161914 10.259961 21.713086 10.306055 21.55 10.306055 C 21.508008 10.306055 21.473047 10.368945 21.473047 10.44707 C 21.473047 10.525 21.507031 10.588086 21.55 10.588086 C 21.713086 10.588086 22.161914 10.633984 22.30293 10.633984 Z M 22.30293 10.633984 " transform="matrix(20,0,0,20,0,0)"/>
<path style="fill-rule:nonzero;fill:rgb(96.862745%,87.843137%,9.019608%);fill-opacity:1;stroke-width:0.015;stroke-linecap:butt;stroke-linejoin:miter;stroke:rgb(0%,0%,0%);stroke-opacity:1;stroke-miterlimit:4;" d="M 22.211914 9.90293 C 19.477344 9.913672 17.251758 7.705664 17.241016 4.971094 C 17.230273 2.236328 19.438281 0.0107422 22.173047 0 C 22.078906 0 22.001953 0.0699219 22.001953 0.156055 C 22.001953 0.241992 22.07793 0.311914 22.173047 0.311914 C 22.266992 0.311914 22.342969 0.241992 22.342969 0.156055 C 22.342969 0.0890625 22.440039 0.0890625 22.440039 0.156055 C 22.440039 0.291016 22.319922 0.4 22.173047 0.4 C 22.025 0.4 21.906055 0.291016 21.906055 0.156055 C 21.906055 0.0210938 22.025977 -0.0880859 22.173047 -0.0880859 C 22.216992 -0.0880859 22.258984 -0.0779297 22.296094 -0.0609375 C 22.292969 -0.0390625 22.285938 0.00292969 22.285938 0.0390625 Z M 21.550977 10.588086 C 21.592969 10.588086 21.626953 10.525 21.626953 10.44707 C 21.626953 10.368945 21.592969 10.306055 21.550977 10.306055 " transform="matrix(20,0,0,20,0,0)"/>
<path style="fill-rule:nonzero;fill:rgb(96.862745%,87.843137%,9.019608%);fill-opacity:1;stroke-width:0.015;stroke-linecap:butt;stroke-linejoin:miter;stroke:rgb(0%,0%,0%);stroke-opacity:1;stroke-miterlimit:4;" d="M 21.613086 10.588086 C 21.655078 10.588086 21.689063 10.525 21.689063 10.44707 C 21.689063 10.368945 21.655078 10.306055 21.613086 10.306055 M 22.024023 10.616992 C 22.075 10.616992 22.116016 10.541016 22.116016 10.44707 C 22.116016 10.35293 22.075 10.276953 22.024023 10.276953 M 22.118945 10.624023 C 22.17207 10.624023 22.215039 10.543945 22.215039 10.446094 C 22.215039 10.348047 22.17207 10.267969 22.118945 10.267969 M 22.439063 10.625977 C 22.492969 10.625977 22.535938 10.544922 22.535938 10.446094 C 22.535938 10.34707 22.491992 10.266016 22.439063 10.266016 M 22.539062 10.621094 C 22.591992 10.621094 22.634961 10.542969 22.634961 10.44707 C 22.634961 10.350977 22.591992 10.273047 22.539062 10.273047 M 22.985938 10.590039 C 23.028906 10.590039 23.064063 10.525977 23.064063 10.446094 C 23.064063 10.366016 23.028906 10.301953 22.985938 10.301953 M 21.375977 12.030078 C 18.054102 15.048242 12.914258 14.801953 9.896094 11.480078 C 6.877734 8.158008 7.124023 3.018164 10.446094 0 M 23.067969 12.04707 L 23.018945 12.011914 M 23.158984 12.117969 C 23.275 11.992969 23.37207 11.851953 23.425977 11.690039 " transform="matrix(20,0,0,20,0,0)"/>
<path style="fill-rule:nonzero;fill:rgb(100%,100%,100%);fill-opacity:1;stroke-width:0.015;stroke-linecap:butt;stroke-linejoin:miter;stroke:rgb(0%,0%,0%);stroke-opacity:1;stroke-miterlimit:4;" d="M 21.92207 8.869922 C 21.92207 8.828906 21.955078 8.811914 21.993945 8.783008 C 22.041016 8.748047 22.059961 8.731055 22.101953 8.731055 L 22.648047 8.731055 C 22.688086 8.731055 22.698047 8.741016 22.698047 8.778906 L 22.698047 9.519922 C 22.698047 9.557031 22.689063 9.567969 22.648047 9.567969 L 21.92207 9.567969 L 21.92207 8.861914 " transform="matrix(20,0,0,20,0,0)"/>
<path style="fill-rule:nonzero;fill:rgb(89.803922%,89.803922%,89.803922%);fill-opacity:1;stroke-width:0.015;stroke-linecap:butt;stroke-linejoin:miter;stroke:rgb(0%,0%,0%);stroke-opacity:1;stroke-miterlimit:4;" d="M 22.513086 9.633008 C 22.584961 9.633008 22.57207 9.631055 22.62207 9.581055 C 22.675 9.528906 22.669922 9.533008 22.669922 9.484961 L 22.669922 8.806055 C 22.669922 8.771094 22.660938 8.760938 22.624023 8.760938 L 22.118945 8.760938 C 22.078906 8.760938 22.061914 8.776953 22.018945 8.809961 C 21.983008 8.836914 21.95293 8.853906 21.95293 8.891992 L 21.95293 9.633008 Z M 22.513086 9.633008 " transform="matrix(20,0,0,20,0,0)"/>
<path style="fill-rule:nonzero;fill:rgb(100%,100%,100%);fill-opacity:1;stroke-width:0.015;stroke-linecap:butt;stroke-linejoin:miter;stroke:rgb(0%,0%,0%);stroke-opacity:1;stroke-miterlimit:4;" d="M 22.566992 9.616992 C 22.566992 9.653906 22.558008 9.665039 22.516992 9.665039 L 21.971094 9.665039 C 21.930078 9.665039 21.92207 9.655078 21.92207 9.616992 L 21.92207 8.875 C 21.92207 8.838086 21.931055 8.826953 21.971094 8.826953 L 22.516992 8.826953 C 22.558008 8.826953 22.566992 8.836914 22.566992 8.875 Z M 22.566992 9.616992 " transform="matrix(20,0,0,20,0,0)"/>
<path style="fill-rule:nonzero;fill:rgb(58.823529%,52.941176%,49.019608%);fill-opacity:1;stroke-width:0.015;stroke-linecap:butt;stroke-linejoin:miter;stroke:rgb(0%,0%,0%);stroke-opacity:1;stroke-miterlimit:4;" d="M 23.625 6.84707 C 21.73418 13.370898 14.912891 17.126758 8.389062 15.235938 C 1.865039 13.345313 -1.89082 6.523828 0 0 L -0.158008 0 C -0.0919922 -0.2 -0.133008 -0.390039 -0.416016 -0.415039 C -0.839063 -0.451953 -1.331055 0.366992 -2.071094 0.466016 C -2.286914 0.208008 -2.275977 -0.283008 -2.000977 -0.516016 C -2.142969 -0.925 -2.441992 -1.375 -2.65 -1.568945 C -2.448242 -1.063477 -2.458008 -0.498242 -2.676953 0 C -2.568945 -0.233008 -2.260938 -0.47793 -2.010938 -0.57793 C -1.971094 -0.636914 -1.926953 -0.693945 -1.886914 -0.744922 C -1.861914 -1.065039 -0.340039 -0.915039 -0.0160156 -0.716016 C -0.0150391 -0.357031 0.125977 0.838086 0.283984 1.161914 Z M 23.625 6.84707 " transform="matrix(20,0,0,20,0,0)"/>
<path style=" stroke:none;fill-rule:nonzero;fill:rgb(0%,0%,0%);fill-opacity:1;" d="M 435.621094 141.320312 C 434.898438 130.238281 430.421875 121.101562 424.121094 114.878906 C 427.121094 115.71875 433.261719 115.71875 437.421875 112.71875 C 442.898438 109.058594 457.21875 102.660156 462.460938 105.398438 C 462.878906 106.320312 463.121094 108.398438 462.800781 109.71875 C 461.558594 106.398438 447.738281 111.539062 443.839844 113.121094 C 440.101562 114.859375 438.441406 117.199219 439.761719 122.441406 C 437.601562 120.621094 438.339844 118.859375 436.101562 117.539062 C 437 119.699219 437.738281 123.601562 438 126.761719 C 437.160156 124.519531 435.679688 119.699219 432.421875 116.859375 C 435.238281 122.339844 437.699219 135.519531 436.539062 142.519531 C 438.78125 142.519531 443.738281 140.320312 445.71875 138.738281 C 443.980469 141.238281 438.941406 142.980469 435.699219 143.640625 C 434.238281 145.378906 433.238281 149.878906 433.320312 152.378906 C 433.101562 149.300781 434.058594 141.800781 435.621094 141.320312 Z M 472.5 136.941406 C 469.738281 133.878906 464.601562 132.21875 458.039062 134 C 459.039062 133.5 461.199219 132.660156 463.121094 132.339844 C 462.878906 130.601562 461.300781 123.101562 461.039062 121.28125 L 462.878906 120.539062 C 463.800781 125.039062 464.960938 130.179688 465.699219 132.261719 C 466.28125 132.421875 467.621094 132.679688 468.78125 133.261719 C 468.28125 131.519531 465.460938 118.960938 465.539062 117.621094 L 468.039062 116.28125 C 469.019531 123.101562 470.601562 133 472.5 136.941406 Z M 472.5 136.941406 "/>
<path style="fill-rule:nonzero;fill:rgb(58.823529%,52.941176%,49.019608%);fill-opacity:1;stroke-width:0.015;stroke-linecap:butt;stroke-linejoin:miter;stroke:rgb(0%,0%,0%);stroke-opacity:1;stroke-miterlimit:4;" d="M 23.550977 7.282031 C 23.616992 7.082031 23.575977 6.891992 23.292969 6.866992 C 23.074023 6.848047 22.835938 7.060938 22.555078 7.282031 Z M 21.713086 5.490039 C 21.947461 4.675391 22.761719 4.171484 23.595313 4.325195 C 24.428906 4.478906 25.010156 5.239844 24.938867 6.084375 C 24.867578 6.929102 24.167188 7.582031 23.319531 7.59375 C 22.471875 7.605469 21.753711 6.972461 21.658984 6.130078 C 21.57207 6.188086 21.406055 6.301953 21.342969 6.381055 C 21.542969 6.423047 21.955078 6.443945 22.163086 6.301953 Z M 21.713086 5.490039 " transform="matrix(20,0,0,20,0,0)"/>
<path style="fill:none;stroke-width:0.015;stroke-linecap:butt;stroke-linejoin:miter;stroke:rgb(0%,0%,0%);stroke-opacity:1;stroke-miterlimit:4;" d="M 21.708008 6.766016 C 21.753906 6.899023 21.783984 7.026953 21.788086 7.141016 M 21.331055 5.108008 C 21.256055 5.217969 21.190039 5.335938 21.167969 5.435938 C 21.308984 5.482031 21.588086 5.507031 21.713086 5.490039 " transform="matrix(20,0,0,20,0,0)"/>
<path style="fill:none;stroke-width:0.015;stroke-linecap:butt;stroke-linejoin:miter;stroke:rgb(0%,0%,0%);stroke-opacity:1;stroke-miterlimit:4;" d="M 21.058984 5.713086 C 21.113086 5.72207 21.163086 5.732031 21.206055 5.743945 C 21.356055 5.785938 21.663086 5.785938 21.871094 5.635938 C 22.078906 5.485938 22.643945 5.021094 23.284961 4.971094 " transform="matrix(20,0,0,20,0,0)"/>
<path style="fill:none;stroke-width:0.015;stroke-linecap:butt;stroke-linejoin:miter;stroke:rgb(0%,0%,0%);stroke-opacity:1;stroke-miterlimit:4;" d="M 20.893945 5.568945 C 21.093945 5.610938 21.506055 5.631055 21.713086 5.490039 C 22.194922 5.161914 22.660938 4.969922 23.126953 4.944922 " transform="matrix(20,0,0,20,0,0)"/>
<path style="fill-rule:nonzero;fill:rgb(20%,45.098039%,12.941176%);fill-opacity:1;stroke-width:0.015;stroke-linecap:butt;stroke-linejoin:miter;stroke:rgb(0%,0%,0%);stroke-opacity:1;stroke-miterlimit:4;" d="M 24.382031 7.765039 C 25.080078 8.24707 25.596094 8.713086 25.746094 9.460938 C 25.896094 10.208984 26.178906 10.408984 26.52793 10.208984 C 26.444922 10.641016 26.011914 10.691016 25.64707 10.358984 C 25.680078 10.858008 25.481055 11.457031 24.965039 11.673047 C 24.932031 11.374023 25.130078 11.136914 25.073047 10.891016 C 25.048047 10.783008 25.040039 10.533008 25.181055 10.416992 C 24.907031 10.508008 24.474023 10.333984 24.433008 9.925977 C 24.749023 10.075977 25.156055 10.100977 25.314063 9.700977 C 25.471094 9.30293 25.405078 8.621094 24.382031 7.765039 Z M 25.264063 3.873047 C 25.480078 3.308008 26.046094 3.366016 26.236914 3.607031 C 26.793945 3.291016 26.868945 4.006055 27.342969 3.865039 C 27.334961 3.998047 27.176953 4.123047 27.001953 4.114063 C 27.184961 4.280078 26.926953 4.530078 27.317969 4.678906 C 26.984961 4.844922 26.519922 4.671094 26.394922 4.213086 C 26.286914 4.428906 25.896094 4.428906 25.738086 4.255078 C 26.078906 4.164062 26.053906 3.848047 25.863086 3.723047 C 25.669922 3.59707 25.330078 3.648047 25.264063 3.873047 Z M 23.576953 5.117969 C 23.732031 5.617969 24.05293 6.083984 24.399023 6.400977 C 24.798047 6.766992 25.400977 6.675 25.738086 6.325977 C 25.746094 7.02207 25.025 7.075977 24.624023 6.858008 C 24.44707 6.761914 24.303906 6.811914 24.474023 6.966016 C 24.732031 7.199023 25.296094 7.37207 25.961914 7.515039 C 27.125977 7.764063 26.710938 8.688086 26.369922 8.678906 C 26.467969 8.676953 26.548047 8.575 26.407031 8.448047 C 25.39707 7.539062 23.342969 7.89707 23.375977 5.867969 C 23.159961 6.4 22.269922 6.191992 22.685938 5.559961 C 22.818945 5.667969 23.051953 5.675977 23.118945 5.509961 C 23.171094 5.381055 23.136914 5.156055 22.903906 4.961914 C 22.941992 4.958984 23.025 4.961914 23.016016 4.866016 C 23.025977 4.92207 23.076953 5.005078 23.208008 4.976953 C 23.244922 5.035938 23.284961 5.075 23.338086 5.053906 C 23.348047 5.05 23.380078 5.033984 23.366992 4.975 C 23.376953 5.086914 23.508008 5.125977 23.576953 5.117969 Z M 23.576953 5.117969 " transform="matrix(20,0,0,20,0,0)"/>
<path style="fill-rule:nonzero;fill:rgb(96.862745%,87.843137%,9.019608%);fill-opacity:1;stroke-width:0.015;stroke-linecap:butt;stroke-linejoin:miter;stroke:rgb(0%,0%,0%);stroke-opacity:1;stroke-miterlimit:4;" d="M 24.623047 6.858008 C 25.105078 7.174023 25.650977 7.174023 26.15293 6.591992 C 26.310938 6.408984 26.559961 6.250977 26.734961 6.233984 C 26.909961 6.216992 26.900977 6.050977 27.033984 6.017969 C 26.950977 5.992969 26.917969 5.892969 26.792969 5.906055 C 27.105078 5.798047 27.013086 5.548047 27.166992 5.42793 C 27.041992 5.474023 26.84707 5.286914 26.667969 5.524023 C 26.714063 5.416016 26.650977 5.286914 26.606055 5.236914 C 26.623047 5.361914 26.360938 5.386914 26.310938 5.70293 C 26.283008 5.880078 26.185938 5.868945 26.169922 5.594922 C 26.158008 5.393945 26.061914 4.838086 25.946094 4.556055 C 25.830078 4.273047 25.80293 3.884961 25.960938 3.826953 C 24.904297 3.855078 24.024609 3.021289 23.996484 1.964453 C 23.968359 0.907617 24.802148 0.028125 25.858984 0 C 25.666016 -0.125977 25.326953 -0.075 25.259961 0.15 C 25.043945 0.715039 25.650977 1.040039 25.600977 1.655078 C 25.509961 1.198047 24.768945 1.081055 24.77793 0.632031 C 24.536914 0.740039 24.569922 0.940039 24.661914 1.098047 C 24.511914 0.865039 24.171094 1.248047 23.880078 0.932031 C 23.84707 1.348047 24.213086 1.506055 24.511914 1.52207 C 24.361914 1.788086 24.561914 2.013086 24.760938 2.086914 C 24.768945 1.621094 25.724023 1.811914 25.733984 2.610938 C 25.741992 3.291016 25.009961 3.349023 24.618945 3.133008 Z M 25.961914 7.515039 C 27.125977 7.764063 26.710938 8.688086 26.369922 8.678906 C 26.15293 8.674023 25.946094 8.491992 25.933008 8.333984 C 25.683984 8.466992 25.75 8.728906 25.941016 8.833008 C 25.416992 8.771094 25.19707 9.116016 25.183984 9.493945 C 25.280078 9.318945 25.571094 9.307031 25.678906 9.343945 C 25.786914 9.381055 26.066016 9.401953 26.17793 9.276953 C 26.085938 9.356055 26.235938 9.539062 26.107031 9.680078 C 26.543945 9.663086 26.734961 9.256055 26.659961 9.076953 C 27.225977 8.563086 27.117969 7.723047 25.961914 7.515039 Z M 25.075977 11.466016 C 25.151953 11.513086 25.141992 11.613086 25.091016 11.675977 C 24.988086 11.801953 25.142969 12.10293 24.825977 12.153906 C 24.732031 12.168945 24.663086 12.108984 24.632031 12.001953 C 24.546094 11.706055 24.858008 11.685938 24.891016 11.54707 C 24.925 11.408984 25.011914 11.425977 25.075977 11.466016 Z M 25.075977 11.466016 " transform="matrix(20,0,0,20,0,0)"/>
<path style="fill-rule:nonzero;fill:rgb(96.862745%,87.843137%,9.019608%);fill-opacity:1;stroke-width:0.015;stroke-linecap:butt;stroke-linejoin:miter;stroke:rgb(0%,0%,0%);stroke-opacity:1;stroke-miterlimit:4;" d="M 24.790039 12.00293 C 24.891992 12.055078 24.980078 12.126953 24.925977 12.458984 C 24.90293 12.59707 24.898047 12.932031 25.018945 12.941016 C 24.942969 12.975 24.783984 13.008008 24.72207 12.919922 C 24.655078 13.02207 24.515039 12.985938 24.464063 12.853906 C 24.386914 12.910938 24.289062 12.805078 24.292969 12.716992 C 24.225977 12.756055 24.099023 12.691016 24.139063 12.492969 C 24.058984 12.517969 23.958984 12.458008 23.924023 12.406055 C 24.041016 12.386914 24.339063 12.241016 24.414062 12.117969 C 24.488086 11.996094 24.671094 11.942969 24.790039 12.00293 Z M 24.790039 12.00293 " transform="matrix(20,0,0,20,0,0)"/>
<path style="fill:none;stroke-width:0.015;stroke-linecap:butt;stroke-linejoin:miter;stroke:rgb(0%,0%,0%);stroke-opacity:1;stroke-miterlimit:4;" d="M 24.721094 12.921094 C 24.755078 12.875977 24.775 12.681055 24.756055 12.561914 M 24.464063 12.855078 C 20.914258 16.141602 15.37207 15.92832 12.085547 12.378516 C 8.798828 8.828711 9.012109 3.286719 12.561914 0 M 24.291992 12.717969 C 24.358008 12.690039 24.524023 12.491992 24.564063 12.360938 M 24.138086 12.493945 C 24.215039 12.481055 24.456055 12.336914 24.558984 12.17793 " transform="matrix(20,0,0,20,0,0)"/>
<path style="fill-rule:nonzero;fill:rgb(96.862745%,87.843137%,9.019608%);fill-opacity:1;stroke-width:0.015;stroke-linecap:butt;stroke-linejoin:miter;stroke:rgb(0%,0%,0%);stroke-opacity:1;stroke-miterlimit:4;" d="M 23.375977 5.868945 C 23.361914 6.721094 23.716016 7.15293 24.207031 7.433008 C 24.025 7.324023 24.103906 6.95 23.858008 6.828906 C 23.916016 6.825 24.008008 6.908008 24.15293 6.875 C 24.082031 6.716992 23.966016 6.475977 23.696094 6.442969 C 23.766992 6.434961 23.921094 6.459961 24.019922 6.42207 C 23.878906 6.205078 23.505078 6.308984 23.375977 5.868945 Z M 23.288086 5.058008 C 23.258008 5.048047 23.233008 5.017969 23.208008 4.978906 C 23.076953 5.007031 23.025977 4.924023 23.016016 4.867969 C 23.024023 4.964063 22.941992 4.959961 22.90293 4.963086 C 23.136914 5.157031 23.171094 5.382031 23.118945 5.510938 C 23.051953 5.676953 22.819922 5.668945 22.685938 5.560938 C 22.668945 5.914062 23.126953 6.031055 23.292969 5.585938 C 23.292969 5.660938 23.389063 5.65293 23.414062 5.751953 C 23.532031 5.560938 23.441992 5.285938 23.288086 5.058008 Z M 23.288086 5.058008 " transform="matrix(20,0,0,20,0,0)"/>
<path style="fill-rule:nonzero;fill:rgb(20%,45.098039%,12.941176%);fill-opacity:1;stroke-width:0.015;stroke-linecap:butt;stroke-linejoin:miter;stroke:rgb(0%,0%,0%);stroke-opacity:1;stroke-miterlimit:4;" d="M 22.557031 3.369922 C 21.626367 3.561719 20.716602 2.962695 20.525 2.032031 C 20.333398 1.101367 20.932422 0.191602 21.863086 0 C 21.871094 -0.183008 21.946094 -0.383008 22.211914 -0.299023 C 22.128906 -0.299023 22.186914 -0.133008 22.1 -0.116016 C 22.171094 -0.0910156 22.266016 -0.149023 22.278906 -0.186914 C 22.296094 -0.128906 22.403906 -0.144922 22.411914 -0.0789063 C 22.453906 -0.111914 22.408008 -0.274023 22.346094 -0.308008 C 22.391992 -0.333008 22.416992 -0.461914 22.396094 -0.524023 C 22.353906 -0.516016 22.291992 -0.457031 22.280078 -0.374023 C 22.300977 -0.441016 22.275977 -0.607031 22.158984 -0.632031 C 22.125977 -0.585938 22.116992 -0.474023 22.163086 -0.411914 C 22.055078 -0.436914 21.89707 -0.366016 21.858984 -0.275 C 21.866992 -0.384961 21.883008 -0.541992 21.950977 -0.641016 C 21.974023 -0.674023 21.917969 -0.732031 21.874023 -0.65293 C 21.792969 -0.810938 21.576953 -0.893945 21.481055 -0.815039 C 21.384961 -0.735938 21.257031 -0.851953 21.17793 -0.72793 C 21.099023 -0.60293 20.831055 -0.590039 20.844922 -0.458008 C 20.85293 -0.378906 20.833984 -0.257031 20.794922 -0.213086 C 20.699023 -0.105078 20.841016 -0.0259766 20.866016 0.0699219 C 20.849023 -0.246094 21.351953 -0.860938 21.856055 -0.619922 C 21.809961 -0.541016 21.769922 -0.383008 21.756055 -0.191992 C 21.734961 0.0910156 21.776953 0.490039 22.050977 0.723047 L 22.158008 0.693945 Z M 22.557031 3.369922 " transform="matrix(20,0,0,20,0,0)"/>
<path style="fill-rule:nonzero;fill:rgb(78.431373%,6.27451%,18.039216%);fill-opacity:1;stroke-width:0.015;stroke-linecap:butt;stroke-linejoin:miter;stroke:rgb(0%,0%,0%);stroke-opacity:1;stroke-miterlimit:4;" d="M 22.706055 2.380078 C 22.70293 2.305078 22.833008 2.208008 23.007031 2.209961 C 23.216992 2.211914 23.378906 2.40293 23.54707 2.384961 C 23.715039 2.366016 23.632031 2.459961 23.59707 2.484961 C 23.561914 2.509961 23.541016 2.54707 23.55293 2.592969 C 23.565039 2.639063 23.543945 2.668945 23.475977 2.625977 C 23.325977 2.532031 23.176953 2.663086 22.978906 2.591016 C 22.809961 2.526953 22.710938 2.491992 22.706055 2.380078 Z M 22.706055 2.380078 " transform="matrix(20,0,0,20,0,0)"/>
<path style="fill-rule:nonzero;fill:rgb(58.823529%,52.941176%,49.019608%);fill-opacity:1;stroke-width:0.015;stroke-linecap:butt;stroke-linejoin:miter;stroke:rgb(0%,0%,0%);stroke-opacity:1;stroke-miterlimit:4;" d="M 21.85 4.342969 C 21.766992 4.081055 21.450977 3.793945 21.29707 3.72793 L 21.289062 3.586914 C 21.37207 3.553906 21.57207 3.396094 21.663086 3.308008 C 22.286914 3.607031 23.134961 3.183008 23.525977 2.742969 L 23.675977 2.833984 L 23.600977 2.933984 L 23.52207 2.891992 C 22.412305 4.964648 19.95918 5.92168 17.739062 5.148242 C 15.51875 4.374609 14.191602 2.100586 14.609961 -0.212891 C 15.02832 -2.526563 17.067969 -4.191797 19.418555 -4.138672 C 21.768945 -4.085547 23.731445 -2.330078 24.044922 0 C 24.190039 0.0369141 24.389063 0.0619141 24.443945 0.0589844 C 24.792969 -0.191016 25.066992 -0.415039 25.2 -0.432031 L 25.311914 -0.282031 L 25.211914 -0.210938 L 25.133008 -0.257031 C 24.758984 0.0509766 24.334961 0.724023 24.167969 1.173047 C 23.935938 1.123047 23.103906 1.156055 22.933984 0.92793 Z M 21.85 4.342969 " transform="matrix(20,0,0,20,0,0)"/>
<path style="fill:none;stroke-width:0.015;stroke-linecap:butt;stroke-linejoin:miter;stroke:rgb(0%,0%,0%);stroke-opacity:1;stroke-miterlimit:4;" d="M 22.960938 3.415039 C 22.017969 3.427344 21.243359 2.673047 21.231055 1.730078 C 21.218555 0.786914 21.973047 0.0125 22.916016 0 C 22.849023 0.0619141 22.683008 0.116016 22.471094 0.125 " transform="matrix(20,0,0,20,0,0)"/>
<path style="fill:none;stroke-width:0.015;stroke-linecap:butt;stroke-linejoin:miter;stroke:rgb(0%,0%,0%);stroke-opacity:1;stroke-miterlimit:4;" d="M 21.883008 4.250977 C 21.826953 3.941016 21.916016 3.598047 22.074023 3.493945 C 22.418945 3.723047 23.009961 3.723047 23.358984 3.473047 " transform="matrix(20,0,0,20,0,0)"/>
<path style="fill:none;stroke-width:0.015;stroke-linecap:butt;stroke-linejoin:miter;stroke:rgb(0%,0%,0%);stroke-opacity:1;stroke-miterlimit:4;" d="M 21.883008 4.089062 C 20.753906 10.131836 14.939844 14.115234 8.89707 12.985938 C 2.854102 11.856836 -1.129102 6.042773 0 0 C 0.141016 0.0210938 0.37793 0.0789063 0.344922 0.15 M 22.006055 4.044922 L 22.083008 3.968945 L 22.006055 3.892969 L 21.930078 3.967969 Z M 22.006055 4.044922 " transform="matrix(20,0,0,20,0,0)"/>
<path style="fill-rule:nonzero;fill:rgb(20%,45.098039%,12.941176%);fill-opacity:1;stroke-width:0.015;stroke-linecap:butt;stroke-linejoin:miter;stroke:rgb(0%,0%,0%);stroke-opacity:1;stroke-miterlimit:4;" d="M 22.186914 2.49707 C 22.091016 2.364063 21.82793 2.32207 21.771094 2.500977 C 21.746094 2.580078 21.708984 2.663086 21.646094 2.700977 C 21.583984 2.738086 21.598047 2.851953 21.625 2.900977 C 21.691016 3.02207 21.633008 3.138086 21.761914 3.216992 C 21.761914 3.121094 21.90293 3.02207 22.024023 2.99707 C 22.144922 2.97207 22.326953 2.864063 22.351953 2.742969 C 22.37793 2.621094 22.419922 2.521094 22.186914 2.49707 Z M 22.186914 2.49707 " transform="matrix(20,0,0,20,0,0)"/>
<path style="fill-rule:nonzero;fill:rgb(58.823529%,52.941176%,49.019608%);fill-opacity:1;stroke-width:0.015;stroke-linecap:butt;stroke-linejoin:miter;stroke:rgb(0%,0%,0%);stroke-opacity:1;stroke-miterlimit:4;" d="M 21.588086 3.693945 L 21.621094 3.693945 L 21.62207 3.921094 C 20.539258 9.891797 14.821289 13.854297 8.850586 12.771484 C 2.879688 11.688672 -1.082812 5.970703 0 0 L 0.196094 -0.113086 L 0.213086 -0.0839844 L 0.0160156 0.0300781 C 0.0169922 0.0369141 0.0179688 0.0449219 0.0169922 0.0519531 L 0.213086 0.165039 L 0.196094 0.193945 L -0.00195312 0.0820312 C -0.0230469 0.0896484 -0.0466797 0.08125 -0.0582031 0.0621094 C -0.0697266 0.0427734 -0.0662109 0.0181641 -0.0496094 0.00292969 C -0.0330078 -0.0121094 -0.00800781 -0.0132813 0.00996094 0 L 0.00996094 0.225977 L -0.0230469 0.225977 L -0.0230469 -0.000976562 C 0.0173828 -0.00234375 0.0515625 0.0287109 0.0542969 0.0689453 C 0.0570313 0.109375 0.0271484 0.144531 -0.0130859 0.148633 C -0.0533203 0.152539 -0.0894531 0.124023 -0.0949219 0.0839844 C -0.100195 0.04375 -0.0728516 0.00664063 -0.0330078 0 L -0.228906 0.113086 L -0.246094 0.0839844 L -0.0490234 -0.0300781 C -0.05 -0.0369141 -0.0509766 -0.0449219 -0.05 -0.0519531 L -0.246094 -0.165039 L -0.228906 -0.193945 L -0.0320313 -0.0810547 C -0.0103516 -0.0861328 0.0119141 -0.0755859 0.0214844 -0.0554688 C 0.0310547 -0.0351562 0.025 -0.0111328 0.00722656 0.00214844 C -0.0105469 0.015625 -0.0353516 0.0146484 -0.0519531 0 L -0.0519531 -0.226953 Z M 21.588086 3.693945 " transform="matrix(20,0,0,20,0,0)"/>
<path style="fill-rule:nonzero;fill:rgb(58.823529%,52.941176%,49.019608%);fill-opacity:1;stroke-width:0.015;stroke-linecap:butt;stroke-linejoin:miter;stroke:rgb(0%,0%,0%);stroke-opacity:1;stroke-miterlimit:4;" d="M 21.883984 4.25 C 22.128906 4.005078 22.525977 4.005078 22.771094 4.25 C 23.016016 4.494922 23.016016 4.891992 22.771094 5.136914 L 23.041016 5.136914 C 25.271484 5.042383 29.893164 5.013672 34.290625 5.067383 C 38.687891 5.120898 41.754297 5.243359 41.754297 5.365039 C 41.754297 5.486914 38.687891 5.577539 34.290625 5.585742 C 29.893164 5.593945 25.271484 5.517773 23.041016 5.4 C 23.041992 5.451953 23.043945 5.571094 23.058984 5.611914 Z M 21.883984 4.25 " transform="matrix(20,0,0,20,0,0)"/>
<path style="fill-rule:nonzero;fill:rgb(20%,45.098039%,12.941176%);fill-opacity:1;stroke-width:0.015;stroke-linecap:butt;stroke-linejoin:miter;stroke:rgb(0%,0%,0%);stroke-opacity:1;stroke-miterlimit:4;" d="M 21.438086 4.625 C 21.413086 4.596094 21.366992 4.516992 21.37207 4.458984 C 20.140625 9.129492 15.356445 11.917383 10.685938 10.685938 C 6.015625 9.454688 3.227734 4.670313 4.458984 0 C 4.455078 -0.0419922 4.438086 -0.133008 4.44707 -0.175 C 4.613477 -0.341602 4.883398 -0.341602 5.05 -0.175 C 5.216602 -0.00839844 5.216602 0.261523 5.05 0.42793 C 5.1 0.457031 5.183008 0.535938 5.2 0.590039 C 5.155273 1.863086 4.087109 2.858789 2.814063 2.814063 C 1.541016 2.769336 0.545312 1.700977 0.590039 0.42793 C 0.626953 0.465039 0.685938 0.499023 0.723047 0.549023 C 0.731055 0.482031 0.765039 0.40293 0.814063 0.383008 C 1.023438 0.462109 1.150977 0.674805 1.122266 0.89668 C 1.093555 1.11875 0.916211 1.291992 0.693555 1.315234 C 0.470898 1.338477 0.261328 1.205664 0.1875 0.994336 C 0.113477 0.783008 0.194531 0.548633 0.383008 0.42793 C 0.419922 0.416016 0.469922 0.35293 0.491016 0.319922 C 0.596289 0.308984 0.695312 0.37207 0.730078 0.47207 C 0.764648 0.572266 0.725977 0.683008 0.636328 0.739453 C 0.546875 0.796094 0.430078 0.783594 0.354688 0.70918 C 0.279102 0.634961 0.264844 0.518359 0.319922 0.42793 C 0.366016 0.385938 0.419922 0.32793 0.432031 0.27793 C 0.573047 0.213477 0.740039 0.259961 0.827734 0.387891 C 0.91543 0.516016 0.898242 0.688477 0.787109 0.79668 C 0.675977 0.904883 0.503125 0.917578 0.377539 0.826563 C 0.251758 0.735547 0.209766 0.567383 0.27793 0.42793 C 0.269922 0.374023 0.274023 0.27793 0.257031 0.224023 C 0.320898 0.131836 0.440039 0.0960938 0.543945 0.137891 C 0.648047 0.179883 0.70918 0.288281 0.691211 0.398828 C 0.673438 0.50957 0.58125 0.593164 0.469336 0.600195 C 0.357422 0.607031 0.255469 0.535547 0.224023 0.42793 C 0.241016 0.369922 0.27793 0.266016 0.310938 0.241016 C 0.437891 0.0470703 0.69043 -0.0205078 0.897266 0.0841797 C 1.104102 0.189063 1.199219 0.432422 1.117773 0.649609 C 1.036523 0.866797 0.805078 0.988086 0.580273 0.93125 C 0.355469 0.874414 0.209375 0.657617 0.241016 0.42793 C 0.261914 0.385938 0.294922 0.311914 0.32793 0.294922 C 0.357031 0.341016 0.35293 0.441016 0.344922 0.494922 C 0.324023 0.325586 0.413086 0.161523 0.566602 0.0865234 C 0.719922 0.0117188 0.904102 0.0423828 1.024805 0.163086 C 1.145508 0.283984 1.176367 0.467969 1.101367 0.621484 C 1.026563 0.775 0.8625 0.863867 0.692969 0.842969 C 0.730078 0.82207 0.792969 0.709961 0.814063 0.651953 C 0.938867 0.527148 1.141211 0.527148 1.266016 0.651953 C 1.39082 0.776758 1.39082 0.979102 1.266016 1.103906 C 1.266016 1.133008 1.278906 1.211914 1.261914 1.274023 C 1.286914 1.249023 1.311914 1.199023 1.324023 1.17793 C 1.341016 1.219922 1.32793 1.318945 1.310938 1.373047 C 1.237891 1.430078 1.136719 1.434766 1.058594 1.384961 C 0.980469 1.335156 0.941992 1.241406 0.962891 1.151172 C 0.983789 1.060742 1.05918 0.993359 1.151367 0.982813 C 1.243359 0.97207 1.332227 1.020703 1.373047 1.103906 C 1.376953 1.175 1.326953 1.299023 1.281055 1.391016 C 0.883008 1.280078 0.0470703 1.238086 -0.792969 1.191992 Z M 21.438086 4.625 " transform="matrix(20,0,0,20,0,0)"/>
<path style=" stroke:none;fill-rule:nonzero;fill:rgb(96.862745%,87.843137%,9.019608%);fill-opacity:1;" d="M 456.601562 48.460938 C 456.558594 47.839844 457.921875 46.460938 460.378906 46.480469 C 463.320312 46.5 466.039062 48.660156 468.378906 48.5 C 470.738281 48.339844 469.578125 49.121094 469.078125 49.320312 C 468.578125 49.519531 468.300781 49.839844 468.460938 50.199219 C 468.640625 50.578125 468.339844 50.820312 467.378906 50.480469 C 465.28125 49.71875 463.179688 50.78125 460.421875 50.199219 C 458.039062 49.660156 456.660156 49.378906 456.601562 48.460938 Z M 456.601562 48.460938 "/>
<path style="fill-rule:nonzero;fill:rgb(96.862745%,87.843137%,9.019608%);fill-opacity:1;stroke-width:0.015;stroke-linecap:butt;stroke-linejoin:miter;stroke:rgb(0%,0%,0%);stroke-opacity:1;stroke-miterlimit:4;" d="M 21.566992 4.875 C 21.441992 5.025 21.317969 5 21.292969 4.903906 C 21.267969 4.808008 21.359961 4.763086 21.325977 4.678906 C 21.292969 4.596094 21.380078 4.558008 21.42207 4.596094 C 21.464063 4.633008 21.59707 4.513086 21.655078 4.638086 C 21.713086 4.763086 21.758984 4.85 21.725977 4.9 C 21.691992 4.95 21.591992 4.925 21.566992 4.875 Z M 22.10293 4.65 C 22.080078 4.594922 22.208984 4.490039 22.275977 4.565039 C 22.342969 4.640039 22.44707 4.483984 22.505078 4.601953 C 22.563086 4.721094 22.582031 4.783008 22.610938 4.849023 C 22.640039 4.916016 22.45293 4.950977 22.394922 4.892969 C 22.40293 4.932031 22.233008 4.963086 22.186914 4.850977 C 22.161914 4.791992 22.134961 4.723047 22.10293 4.65 Z M 22.967969 4.718945 C 22.936914 4.660938 23.089063 4.57793 23.167969 4.683984 C 23.189063 4.640039 23.339063 4.632031 23.349023 4.758984 L 23.367969 5.010938 C 23.37207 5.060938 23.276953 5.107031 23.208008 4.980078 C 23.084961 5.005078 23.028906 4.935938 23.015039 4.864063 C 21.671875 4.904102 20.550586 3.847656 20.510547 2.504492 C 20.470508 1.161328 21.526758 0.0400391 22.869922 0 Z M 22.967969 4.718945 " transform="matrix(20,0,0,20,0,0)"/>
<path style="fill-rule:nonzero;fill:rgb(20%,45.098039%,12.941176%);fill-opacity:1;stroke-width:0.015;stroke-linecap:butt;stroke-linejoin:miter;stroke:rgb(0%,0%,0%);stroke-opacity:1;stroke-miterlimit:4;" d="M 21.648047 4.635937 C 21.628906 4.593945 21.753906 4.510937 21.839063 4.574023 C 21.924023 4.635937 22.041992 4.519922 22.092969 4.632031 C 22.194922 4.858984 22.200977 4.875 22.169922 4.918945 C 22.139063 4.963086 22.006055 4.946094 21.97207 4.885938 C 21.966016 4.92793 21.850977 4.921094 21.791016 4.888086 C 21.723047 4.85 21.675 4.710938 21.648047 4.635937 Z M 22.523047 4.646094 C 22.493945 4.582031 22.689063 4.525 22.775 4.638086 C 22.818945 4.598047 22.914062 4.596094 22.967969 4.718945 C 23.02207 4.841992 23.030078 4.909961 22.991016 4.941016 C 22.963086 4.963086 22.861914 4.980078 22.828906 4.924023 C 22.783008 4.95293 22.641992 4.92793 22.610938 4.849023 C 22.580078 4.771094 22.55293 4.701953 22.523047 4.646094 Z M 23.350977 4.768945 C 23.34707 4.710938 23.45293 4.683984 23.491992 4.768945 C 23.532031 4.853906 23.658008 4.776953 23.668945 4.918945 C 23.671094 4.946094 23.653906 5.05 23.615039 5.1 C 23.575977 5.15 23.382031 5.1 23.369922 4.993945 C 21.991016 5.056055 20.822656 3.988477 20.760547 2.60957 C 20.698438 1.230469 21.766016 0.0621094 23.144922 0 Z M 23.350977 4.768945 " transform="matrix(20,0,0,20,0,0)"/>
<path style="fill:none;stroke-width:0.015;stroke-linecap:butt;stroke-linejoin:miter;stroke:rgb(0%,0%,0%);stroke-opacity:1;stroke-miterlimit:4;" d="M 21.566992 4.875 C 21.521094 4.813086 21.458984 4.713086 21.380078 4.821094 M 21.973047 4.884961 C 20.624023 4.923438 19.499414 3.860938 19.460938 2.511914 C 19.422656 1.163086 20.484961 0.0384766 21.833984 0 M 22.394922 4.893945 C 21.043555 4.923242 19.924219 3.851367 19.894922 2.5 C 19.86582 1.148633 20.9375 0.0292969 22.289062 0 M 22.357031 4.675 C 22.430078 4.683008 22.480078 4.751953 22.501953 4.783008 C 22.525 4.814063 22.573047 4.869922 22.609961 4.876953 M 22.828906 4.925 C 22.803906 4.884961 22.778906 4.85 22.773047 4.821094 M 22.775 4.638086 C 21.494336 9.595898 16.436914 12.576758 11.478906 11.296094 C 6.521094 10.015234 3.540234 4.957813 4.821094 0 M 23.207031 4.978906 C 21.832031 5.018555 20.685547 3.935938 20.646094 2.560938 C 20.606445 1.186133 21.689063 0.0394531 23.064063 0 M 23.191016 4.75 C 23.194922 4.873047 23.358984 4.881055 23.366016 4.967969 M 23.491992 4.768945 C 22.175 9.88418 16.960742 12.963477 11.845508 11.646484 C 6.730273 10.329492 3.651172 5.115234 4.967969 0 " transform="matrix(20,0,0,20,0,0)"/>
</g>
</svg>
