<?xml version="1.0" encoding="UTF-8"?>
<svg xmlns="http://www.w3.org/2000/svg" xmlns:xlink="http://www.w3.org/1999/xlink" width="px" height="px" viewBox="0 0 300 200" version="1.1">
<g id="surface1">
<rect x="0" y="0" width="300" height="200" style="fill:rgb(100%,0%,0%);fill-opacity:1;stroke:none;"/>
<path style=" stroke:none;fill-rule:nonzero;fill:rgb(0%,40%,0%);fill-opacity:1;" d="M 0 0 L 120 0 L 120 200 L 0 200 Z M 0 0 "/>
<path style="fill-rule:evenodd;fill:rgb(100%,100%,0%);fill-opacity:1;stroke-width:0.573;stroke-linecap:round;stroke-linejoin:round;stroke:rgb(0%,0%,0%);stroke-opacity:1;stroke-miterlimit:4;" d="M 318.242188 262.039062 C 288.03125 261.132812 149.5 174.65625 148.546875 160.890625 L 156.203125 148.132812 C 169.9375 168.101562 311.5625 252.195312 325.46875 249.210938 L 318.242188 262.039062 " transform="matrix(0.5,0,0,0.5,0,0)"/>
<path style="fill-rule:evenodd;fill:rgb(100%,100%,0%);fill-opacity:1;stroke-width:0.573;stroke-linecap:round;stroke-linejoin:round;stroke:rgb(0%,0%,0%);stroke-opacity:1;stroke-miterlimit:4;" d="M 154.59375 146.398438 C 151.882812 153.695312 190.742188 177.71875 237.492188 206.15625 C 284.242188 234.585938 324.554688 252.15625 327.546875 249.640625 C 327.726562 249.3125 329.015625 247.101562 328.898438 247.117188 C 328.335938 247.960938 326.976562 248.226562 324.851562 247.617188 C 312.21875 243.96875 279.273438 228.851562 238.476562 204.109375 C 197.671875 179.367188 162.179688 156.5625 156.664062 146.875 C 156.28125 146.203125 156.007812 144.976562 156.0625 144.03125 L 155.929688 144.023438 L 154.75 146.078125 Z M 318.953125 262.4375 C 318.4375 263.367188 317.484375 263.398438 315.671875 263.203125 C 304.367188 261.953125 270.078125 245.273438 229.507812 220.984375 C 182.296875 192.726562 143.304688 166.976562 147.539062 160.25 L 148.6875 158.210938 L 148.914062 158.28125 C 145.109375 169.6875 225.859375 215.859375 230.617188 218.804688 C 277.34375 247.75 316.734375 264.65625 320.21875 260.265625 L 318.945312 262.445312 Z M 318.953125 262.4375 " transform="matrix(0.5,0,0,0.5,0,0)"/>
<path style="fill-rule:evenodd;fill:rgb(100%,100%,0%);fill-opacity:1;stroke-width:0.573;stroke-linecap:round;stroke-linejoin:round;stroke:rgb(0%,0%,0%);stroke-opacity:1;stroke-miterlimit:4;" d="M 240.171875 169.226562 C 270.40625 168.992188 307.71875 165.101562 329.195312 156.539062 L 324.5625 149.023438 C 311.875 156.046875 274.359375 160.664062 239.914062 161.359375 C 199.179688 160.984375 170.421875 157.1875 156.015625 147.523438 L 151.648438 155.53125 C 178.132812 166.734375 205.273438 169.117188 240.171875 169.234375 " transform="matrix(0.5,0,0,0.5,0,0)"/>
<path style="fill-rule:evenodd;fill:rgb(100%,100%,0%);fill-opacity:1;stroke-width:0.573;stroke-linecap:round;stroke-linejoin:round;stroke:rgb(0%,0%,0%);stroke-opacity:1;stroke-miterlimit:4;" d="M 330.4375 156.710938 C 329.703125 157.890625 315.695312 162.71875 295.070312 166.28125 C 281.078125 168.421875 262.835938 170.242188 240.0625 170.265625 C 218.429688 170.28125 200.757812 168.742188 187.382812 166.929688 C 165.726562 163.53125 154.546875 158.8125 150.414062 157.140625 C 150.8125 156.351562 151.0625 155.804688 151.445312 155.070312 C 163.335938 159.804688 174.570312 162.664062 187.726562 164.6875 C 201.015625 166.484375 218.476562 168.046875 240 168.023438 C 262.664062 168.007812 280.710938 166.046875 294.617188 163.976562 C 315.773438 160.5625 327.328125 156.171875 328.945312 154.132812 L 330.445312 156.710938 Z M 326.382812 149.085938 C 324.085938 150.929688 312.664062 154.984375 292.5625 158.1875 C 279.148438 160.109375 262.085938 161.835938 240.296875 161.851562 C 219.59375 161.875 202.679688 160.476562 189.8125 158.609375 C 169.398438 155.9375 158.53125 151.132812 154.617188 149.726562 C 155.007812 149.054688 155.398438 148.382812 155.8125 147.71875 C 158.859375 149.25 169.34375 153.507812 190.03125 156.4375 C 202.757812 158.242188 219.695312 159.585938 240.296875 159.5625 C 261.984375 159.539062 278.851562 157.789062 292.179688 155.875 C 312.382812 153.09375 323.257812 147.929688 324.90625 146.632812 Z M 140.882812 205.65625 C 159.476562 215.664062 200.78125 220.703125 239.875 221.054688 C 275.46875 221.109375 321.828125 215.546875 339.171875 206.359375 L 338.695312 196.351562 C 333.265625 204.828125 283.578125 212.960938 239.484375 212.625 C 195.398438 212.289062 154.453125 205.484375 140.804688 196.664062 L 140.882812 205.65625 " transform="matrix(0.5,0,0,0.5,0,0)"/>
<path style="fill-rule:evenodd;fill:rgb(100%,100%,0%);fill-opacity:1;stroke-width:0.573;stroke-linecap:round;stroke-linejoin:round;stroke:rgb(0%,0%,0%);stroke-opacity:1;stroke-miterlimit:4;" d="M 340.117188 204.21875 L 340.117188 206.609375 C 337.515625 209.726562 321.171875 214.429688 300.6875 217.75 C 285.085938 220.140625 264.757812 221.945312 239.421875 221.945312 C 215.351562 221.945312 196.15625 220.226562 181.273438 217.945312 C 157.742188 214.515625 142.695312 208.515625 139.671875 206.726562 L 139.6875 203.9375 C 148.765625 209.976562 173.351562 214.390625 181.601562 215.734375 C 196.390625 218.007812 215.46875 219.710938 239.421875 219.710938 C 264.640625 219.710938 284.851562 217.921875 300.351562 215.546875 C 315.054688 213.421875 335.992188 207.898438 340.117188 204.21875 Z M 340.132812 195.726562 L 340.132812 198.117188 C 337.523438 201.226562 321.1875 205.9375 300.695312 209.257812 C 285.101562 211.648438 264.765625 213.453125 239.429688 213.453125 C 215.359375 213.453125 196.171875 211.734375 181.28125 209.445312 C 157.757812 206.023438 142.703125 200.023438 139.6875 198.234375 L 139.695312 195.445312 C 148.773438 201.476562 173.359375 205.890625 181.617188 207.242188 C 196.398438 209.515625 215.484375 211.21875 239.429688 211.21875 C 264.648438 211.21875 284.867188 209.429688 300.359375 207.046875 C 315.0625 204.929688 336.007812 199.40625 340.132812 195.726562 Z M 239.789062 260.320312 C 197.015625 260.0625 160.367188 248.664062 152.632812 246.773438 L 158.273438 255.609375 C 171.945312 261.359375 207.695312 269.929688 240.203125 268.984375 C 272.703125 268.03125 301.109375 265.515625 321.125 255.773438 L 326.914062 246.617188 C 313.273438 253.039062 266.84375 260.257812 239.789062 260.320312 " transform="matrix(0.5,0,0,0.5,0,0)"/>
<path style="fill-rule:evenodd;fill:rgb(100%,100%,0%);fill-opacity:1;stroke-width:0.55;stroke-linecap:round;stroke-linejoin:round;stroke:rgb(0%,0%,0%);stroke-opacity:1;stroke-miterlimit:4;" d="M 323.296875 253.71875 C 267.578125 271.828125 206.554688 251.664062 172.601562 203.921875 C 138.640625 156.179688 139.609375 91.921875 174.992188 45.226562 C 210.382812 -1.46875 271.984375 -19.78125 327.132812 0 C 317.6875 3.328125 302.8125 6.820312 296.53125 7.84375 C 283.710938 10.484375 263.867188 12.4375 246.257812 12.445312 C 208.367188 11.890625 177.351562 4.476562 162.765625 -1.851562 L 161.585938 -3.875 L 161.78125 -4.179688 L 163.773438 -3.40625 C 189.71875 5.875 218.867188 9.578125 246.46875 10.242188 C 264.007812 10.304688 281.570312 8.234375 295.765625 5.695312 C 317.53125 1.335938 326.335938 -1.953125 329.039062 -3.445312 L 329.726562 -3.828125 Z M 328.320312 245.445312 L 328.382812 245.523438 C 270.203125 355.46875 144.28125 411.257812 23.757812 380.476562 C -96.765625 349.703125 -180.523438 240.382812 -178.875 116 C -177.21875 -8.382812 -90.585938 -115.445312 30.710938 -143.007812 C 152.015625 -170.570312 276.40625 -111.453125 331.648438 0 C 326.609375 1.796875 312.945312 5.796875 292.984375 8.585938 C 279.835938 10.382812 271.664062 12.117188 245.507812 12.625 C 196.492188 11.375 164.757812 1.789062 157.21875 -0.570312 L 156.101562 -2.71875 C 184.507812 4.703125 213.523438 9.875 245.507812 10.40625 C 269.4375 9.898438 279.625 8.132812 292.664062 6.351562 C 315.929688 2.734375 327.65625 -1.09375 331.179688 -2.203125 C 331.429688 -1.46875 331.359375 -0.671875 330.976562 0 L 333.5 -0.945312 L 333.5 -0.9375 Z M 328.320312 245.445312 " transform="matrix(0.5,0,0,0.5,0,0)"/>
<path style="fill-rule:evenodd;fill:rgb(100%,100%,0%);fill-opacity:1;stroke-width:0.573;stroke-linecap:round;stroke-linejoin:round;stroke:rgb(0%,0%,0%);stroke-opacity:1;stroke-miterlimit:4;" d="M 328.828125 197.757812 C 328.96875 225.898438 314.570312 251.148438 302.96875 262.28125 C 286.5625 278.046875 264.8125 288.179688 239.40625 288.648438 C 211.03125 289.171875 184.28125 270.671875 177.109375 262.546875 C 163.078125 246.664062 151.65625 226.492188 151.296875 199.304688 C 153.03125 168.59375 165.085938 147.203125 182.5625 132.539062 C 200.039062 117.867188 223.304688 110.726562 242.679688 111.234375 C 265.039062 111.828125 291.15625 122.796875 309.203125 144.570312 C 321.023438 158.835938 326.148438 174.3125 328.828125 197.757812 Z M 239.640625 101.421875 C 294.132812 101.421875 338.9375 145.757812 338.9375 200.117188 C 338.9375 254.484375 294.132812 298.828125 239.640625 298.828125 C 185.15625 298.828125 140.71875 254.484375 140.71875 200.117188 C 140.71875 145.757812 185.15625 101.421875 239.640625 101.421875 " transform="matrix(0.5,0,0,0.5,0,0)"/>
<path style="fill-rule:evenodd;fill:rgb(100%,100%,0%);fill-opacity:1;stroke-width:0.573;stroke-linecap:round;stroke-linejoin:round;stroke:rgb(0%,0%,0%);stroke-opacity:1;stroke-miterlimit:4;" d="M 239.90625 101.078125 C 294.445312 101.078125 338.921875 145.5625 338.921875 200.101562 C 338.921875 254.640625 294.445312 299.125 239.90625 299.125 C 185.375 299.125 140.898438 254.640625 140.898438 200.101562 C 140.898438 145.5625 185.375 101.078125 239.90625 101.078125 Z M 143.078125 200.101562 C 143.078125 253.359375 186.8125 296.945312 239.90625 296.945312 C 293.007812 296.945312 336.742188 253.359375 336.742188 200.101562 C 336.742188 146.84375 293.007812 103.257812 239.90625 103.257812 C 186.8125 103.257812 143.078125 146.84375 143.078125 200.101562 Z M 143.078125 200.101562 " transform="matrix(0.5,0,0,0.5,0,0)"/>
<path style="fill-rule:evenodd;fill:rgb(100%,100%,0%);fill-opacity:1;stroke-width:0.573;stroke-linecap:round;stroke-linejoin:round;stroke:rgb(0%,0%,0%);stroke-opacity:1;stroke-miterlimit:4;" d="M 239.992188 109.3125 C 289.71875 109.3125 330.679688 150.132812 330.679688 200.015625 C 330.679688 249.898438 289.71875 290.71875 239.992188 290.71875 C 190.257812 290.71875 149.296875 249.898438 149.296875 200.015625 C 149.296875 150.132812 190.257812 109.3125 239.992188 109.3125 Z M 151.476562 200.015625 C 151.476562 248.695312 191.453125 288.539062 239.992188 288.539062 C 288.523438 288.539062 328.507812 248.695312 328.507812 200.015625 C 328.507812 151.328125 288.523438 111.484375 239.992188 111.484375 C 191.453125 111.484375 151.476562 151.328125 151.476562 200.015625 Z M 151.476562 200.015625 " transform="matrix(0.5,0,0,0.5,0,0)"/>
<path style="fill-rule:evenodd;fill:rgb(100%,100%,0%);fill-opacity:1;stroke-width:0.573;stroke-linecap:round;stroke-linejoin:round;stroke:rgb(0%,0%,0%);stroke-opacity:1;stroke-miterlimit:4;" d="M 243.976562 100.679688 L 235.492188 100.679688 L 235.507812 299.640625 L 244.015625 299.640625 Z M 243.976562 100.679688 " transform="matrix(0.5,0,0,0.5,0,0)"/>
<path style="fill-rule:evenodd;fill:rgb(100%,100%,0%);fill-opacity:1;stroke-width:0.573;stroke-linecap:round;stroke-linejoin:round;stroke:rgb(0%,0%,0%);stroke-opacity:1;stroke-miterlimit:4;" d="M 243.132812 99.546875 L 245.289062 99.546875 L 245.304688 300.796875 L 243.148438 300.796875 Z M 234.710938 99.546875 L 236.882812 99.546875 L 236.890625 300.796875 L 234.710938 300.796875 Z M 234.710938 99.546875 " transform="matrix(0.5,0,0,0.5,0,0)"/>
<path style="fill-rule:evenodd;fill:rgb(100%,100%,0%);fill-opacity:1;stroke-width:0.573;stroke-linecap:round;stroke-linejoin:round;stroke:rgb(0%,0%,0%);stroke-opacity:1;stroke-miterlimit:4;" d="M 338.992188 203.9375 L 338.992188 196.578125 L 333 191 L 299 182 L 250 177 L 191 180 L 149 190 L 140.523438 196.28125 L 140.523438 203.640625 L 162 194 L 213 186 L 262 186 L 298 190 L 323 196 Z M 338.992188 203.9375 " transform="matrix(0.5,0,0,0.5,0,0)"/>
<path style="fill-rule:evenodd;fill:rgb(100%,100%,0%);fill-opacity:1;stroke-width:0.573;stroke-linecap:round;stroke-linejoin:round;stroke:rgb(0%,0%,0%);stroke-opacity:1;stroke-miterlimit:4;" d="M 239.953125 184.773438 C 263.335938 184.726562 286.023438 186.984375 304.015625 190.492188 C 322.585938 194.203125 335.648438 198.84375 340.117188 204.0625 L 340.117188 206.640625 C 334.726562 200.15625 317.140625 195.398438 303.59375 192.671875 C 285.742188 189.203125 263.203125 186.960938 239.953125 187 C 215.414062 187.046875 192.5625 189.367188 174.96875 192.804688 C 160.84375 195.609375 142.015625 201.171875 139.664062 206.664062 L 139.664062 203.976562 C 140.953125 200.171875 154.976562 194.492188 174.648438 190.554688 C 192.375 187.101562 215.265625 184.8125 239.953125 184.773438 Z M 239.960938 176.28125 C 263.34375 176.234375 286.03125 178.492188 304.023438 182 C 322.59375 185.710938 335.664062 190.351562 340.132812 195.570312 L 340.125 198.148438 C 334.734375 191.664062 317.148438 186.90625 303.609375 184.1875 C 285.75 180.710938 263.210938 178.46875 239.960938 178.507812 C 215.421875 178.554688 192.6875 180.882812 175.085938 184.3125 C 161.460938 186.898438 141.859375 192.679688 139.671875 198.171875 L 139.671875 195.484375 C 140.960938 191.71875 155.273438 185.84375 174.65625 182.0625 C 192.390625 178.609375 215.28125 176.328125 239.960938 176.28125 Z M 239.476562 132.960938 C 276.328125 132.773438 308.46875 138.109375 323.171875 145.648438 L 328.539062 154.921875 C 315.757812 148.039062 281.085938 140.875 239.53125 141.945312 C 205.679688 142.15625 169.507812 145.671875 151.359375 155.351562 L 157.757812 144.648438 C 172.65625 136.921875 207.78125 133 239.484375 132.960938 " transform="matrix(0.5,0,0,0.5,0,0)"/>
<path style="fill-rule:evenodd;fill:rgb(100%,100%,0%);fill-opacity:1;stroke-width:0.573;stroke-linecap:round;stroke-linejoin:round;stroke:rgb(0%,0%,0%);stroke-opacity:1;stroke-miterlimit:4;" d="M 239.96875 140.617188 C 260.984375 140.5625 281.296875 141.75 297.445312 144.664062 C 312.484375 147.460938 326.828125 151.664062 328.882812 153.921875 L 330.46875 156.734375 C 325.484375 153.476562 313.070312 149.851562 297.132812 146.828125 C 281.125 143.820312 260.835938 142.820312 239.929688 142.875 C 216.210938 142.796875 197.78125 144.046875 181.960938 146.804688 C 165.234375 149.9375 153.632812 154.40625 150.765625 156.53125 L 152.328125 153.5625 C 157.890625 150.726562 166.71875 147.304688 181.546875 144.632812 C 197.90625 141.648438 216.53125 140.75 239.96875 140.617188 Z M 239.960938 132.132812 C 260.070312 132.085938 279.929688 133.203125 295.414062 135.984375 C 307.625 138.359375 319.695312 142.070312 324.117188 145.375 L 326.445312 149.070312 C 322.492188 144.679688 307.609375 140.507812 294.46875 138.179688 C 279.109375 135.53125 260.070312 134.484375 239.960938 134.3125 C 218.851562 134.375 199.34375 135.664062 184.210938 138.421875 C 169.765625 141.171875 160.445312 144.421875 156.507812 146.960938 L 158.554688 143.875 C 163.992188 141.015625 172.78125 138.382812 183.851562 136.234375 C 199.101562 133.453125 218.726562 132.195312 239.960938 132.132812 Z M 289.148438 241.257812 C 270.929688 237.859375 252.679688 237.367188 239.929688 237.515625 C 178.523438 238.234375 158.6875 250.125 156.265625 253.726562 L 151.679688 246.242188 C 167.3125 234.914062 200.75 228.554688 240.265625 229.203125 C 260.78125 229.539062 278.492188 230.90625 293.382812 233.789062 L 289.148438 241.265625 " transform="matrix(0.5,0,0,0.5,0,0)"/>
<path style="fill-rule:evenodd;fill:rgb(100%,100%,0%);fill-opacity:1;stroke-width:0.55;stroke-linecap:round;stroke-linejoin:round;stroke:rgb(0%,0%,0%);stroke-opacity:1;stroke-miterlimit:4;" d="M 239.578125 236.460938 C 256.664062 236.71875 273.429688 237.421875 289.609375 240.4375 L 288.4375 242.507812 C 273.40625 239.734375 257.382812 238.671875 239.640625 238.757812 C 216.976562 238.578125 194.054688 240.695312 174.09375 246.421875 C 167.796875 248.179688 157.375 252.226562 156.3125 255.570312 L 155.148438 253.648438 C 155.484375 251.671875 161.78125 247.570312 173.5625 244.257812 C 196.421875 237.710938 217.804688 236.609375 239.578125 236.460938 Z M 240.351562 227.867188 C 258.054688 228.195312 276.328125 229.015625 294.09375 232.53125 L 292.875 234.6875 C 276.835938 231.5 261.507812 230.4375 240.460938 230.117188 C 217.726562 230.15625 193.609375 231.78125 171.679688 238.148438 C 164.601562 240.21875 152.382812 244.671875 151.976562 248.203125 L 150.8125 246.140625 C 151.078125 242.929688 161.65625 238.75 171.171875 235.984375 C 193.265625 229.554688 217.445312 227.90625 240.359375 227.867188 Z M 240.351562 227.867188 " transform="matrix(0.5,0,0,0.5,0,0)"/>
<path style="fill-rule:evenodd;fill:rgb(100%,100%,0%);fill-opacity:1;stroke-width:0.573;stroke-linecap:round;stroke-linejoin:round;stroke:rgb(0%,0%,0%);stroke-opacity:1;stroke-miterlimit:4;" d="M 327.578125 247.382812 L 320.203125 258.828125 L 299 240 L 244 203 L 182 169 L 149.8125 157.992188 L 156.671875 145.273438 L 159 144 L 179 149 L 245 183 L 283 207 L 315 230 L 328 245 Z M 327.578125 247.382812 " transform="matrix(0.5,0,0,0.5,0,0)"/>
<path style="fill-rule:evenodd;fill:rgb(100%,100%,0%);fill-opacity:1;stroke-width:0.573;stroke-linecap:round;stroke-linejoin:round;stroke:rgb(0%,0%,0%);stroke-opacity:1;stroke-miterlimit:4;" d="M 148.648438 158.289062 C 154.296875 154.460938 195.789062 172.945312 239.203125 199.125 C 282.507812 225.375 323.882812 255.046875 320.148438 260.59375 L 318.921875 262.53125 L 318.351562 262.976562 C 318.476562 262.890625 319.101562 262.125 318.296875 260.070312 C 316.445312 254 287.101562 230.578125 238.398438 201.171875 C 190.921875 172.859375 151.359375 155.804688 147.40625 160.679688 Z M 329.09375 247.21875 C 332.65625 240.164062 294.171875 211.171875 246.460938 182.945312 C 197.648438 155.28125 162.460938 138.992188 156.039062 143.851562 L 154.609375 146.453125 C 154.601562 146.59375 154.664062 146.273438 154.960938 146.039062 C 156.132812 145.015625 158.070312 145.085938 158.945312 145.070312 C 170.007812 145.234375 201.609375 159.78125 245.945312 185.203125 C 265.375 196.515625 328.023438 236.6875 327.78125 247.992188 C 327.796875 248.960938 327.859375 249.15625 327.492188 249.640625 Z M 329.09375 247.21875 " transform="matrix(0.5,0,0,0.5,0,0)"/>
<path style="fill-rule:nonzero;fill:rgb(100%,100%,100%);fill-opacity:1;stroke-width:0.67;stroke-linecap:butt;stroke-linejoin:miter;stroke:rgb(0%,0%,0%);stroke-opacity:1;stroke-miterlimit:4;" d="M 180.601562 211.007812 C 180.601562 227.28125 187.265625 242 198.054688 252.75 C 208.875 263.53125 223.570312 270.328125 239.867188 270.328125 C 256.25 270.328125 271.109375 263.679688 281.882812 252.945312 C 292.648438 242.203125 299.328125 227.390625 299.328125 211.0625 L 299.328125 131.875 L 180.585938 131.734375 Z M 180.601562 211.007812 " transform="matrix(0.5,0,0,0.5,0,0)"/>
<path style="fill-rule:nonzero;fill:rgb(100%,0%,0%);fill-opacity:1;stroke-width:0.507;stroke-linecap:butt;stroke-linejoin:miter;stroke:rgb(0%,0%,0%);stroke-opacity:1;stroke-miterlimit:4;" d="M 182.820312 211.117188 L 182.820312 211.164062 C 182.820312 226.71875 189.257812 240.890625 199.59375 251.171875 C 209.945312 261.476562 224.210938 267.882812 239.8125 267.882812 C 255.492188 267.882812 269.71875 261.523438 280.03125 251.257812 C 290.335938 240.992188 296.726562 226.828125 296.726562 211.21875 L 296.726562 134.390625 L 182.890625 134.367188 L 182.820312 211.117188 M 273.84375 157.375 L 273.84375 206.265625 L 273.804688 211.4375 C 273.804688 212.796875 273.71875 214.34375 273.5625 215.671875 C 272.640625 223.398438 269.085938 230.132812 263.820312 235.375 C 257.65625 241.515625 249.148438 245.320312 239.773438 245.320312 C 230.445312 245.320312 222.132812 241.382812 215.9375 235.21875 C 209.59375 228.898438 205.914062 220.234375 205.914062 211.273438 L 205.898438 157.25 L 273.835938 157.367188 Z M 273.84375 157.375 " transform="matrix(0.5,0,0,0.5,0,0)"/>
<path style=" stroke:none;fill-rule:nonzero;fill:rgb(100%,100%,0%);fill-opacity:1;" d="M 95.09375 77.214844 C 95.164062 74.453125 97.121094 73.800781 97.136719 73.792969 C 97.148438 73.78125 99.25 74.496094 99.242188 77.242188 L 95.09375 77.214844 "/>
<path style="fill-rule:nonzero;fill:rgb(100%,100%,0%);fill-opacity:1;stroke-width:0.5;stroke-linecap:butt;stroke-linejoin:miter;stroke:rgb(0%,0%,0%);stroke-opacity:1;stroke-miterlimit:4;" d="M 186.8125 147.6875 L 186.125 154.03125 L 190.265625 154.046875 C 190.304688 148.796875 194.242188 147.921875 194.335938 147.9375 C 194.429688 147.9375 198.328125 149.101562 198.429688 154.046875 L 202.578125 154.046875 L 201.828125 147.648438 Z M 185.851562 154.0625 L 202.796875 154.0625 C 203.15625 154.0625 203.445312 154.414062 203.445312 154.84375 C 203.445312 155.273438 203.15625 155.625 202.796875 155.625 L 185.851562 155.625 C 185.492188 155.625 185.203125 155.273438 185.203125 154.84375 C 185.203125 154.414062 185.492188 154.0625 185.851562 154.0625 Z M 185.851562 154.0625 " transform="matrix(0.5,0,0,0.5,0,0)"/>
<path style="fill-rule:nonzero;fill:rgb(100%,100%,0%);fill-opacity:1;stroke-width:0.5;stroke-linecap:butt;stroke-linejoin:miter;stroke:rgb(0%,0%,0%);stroke-opacity:1;stroke-miterlimit:4;" d="M 192.007812 154.03125 C 192.03125 150.71875 194.273438 149.78125 194.28125 149.78125 C 194.28125 149.78125 196.625 150.75 196.640625 154.03125 L 192.007812 154.03125 M 186.210938 145.046875 L 202.453125 145.046875 C 202.796875 145.046875 203.078125 145.367188 203.078125 145.757812 C 203.078125 146.140625 202.796875 146.460938 202.453125 146.460938 L 186.210938 146.460938 C 185.867188 146.460938 185.585938 146.140625 185.585938 145.757812 C 185.585938 145.367188 185.867188 145.046875 186.210938 145.046875 Z M 186.546875 146.46875 L 202.085938 146.46875 C 202.414062 146.46875 202.679688 146.789062 202.679688 147.171875 C 202.679688 147.5625 202.414062 147.875 202.085938 147.875 L 186.546875 147.875 C 186.226562 147.875 185.953125 147.5625 185.953125 147.171875 C 185.953125 146.789062 186.226562 146.46875 186.546875 146.46875 Z M 191.570312 135.882812 L 192.796875 135.882812 L 192.796875 136.75 L 193.695312 136.75 L 193.695312 135.859375 L 194.945312 135.867188 L 194.945312 136.757812 L 195.84375 136.757812 L 195.84375 135.867188 L 197.101562 135.867188 L 197.101562 137.875 C 197.101562 138.1875 196.851562 138.398438 196.554688 138.398438 L 192.140625 138.398438 C 191.84375 138.398438 191.570312 138.15625 191.570312 137.867188 Z M 196.1875 138.570312 L 196.46875 145.023438 L 192.164062 145.007812 L 192.445312 138.554688 L 196.1875 138.570312 " transform="matrix(0.5,0,0,0.5,0,0)"/>
<path style="fill-rule:nonzero;fill:rgb(100%,100%,0%);fill-opacity:1;stroke-width:0.5;stroke-linecap:butt;stroke-linejoin:miter;stroke:rgb(0%,0%,0%);stroke-opacity:1;stroke-miterlimit:4;" d="M 190.9375 141.5625 L 191.070312 145.039062 L 186.945312 145.039062 L 187.0625 141.5625 Z M 190.9375 141.5625 " transform="matrix(0.5,0,0,0.5,0,0)"/>
<path style="fill-rule:nonzero;fill:rgb(100%,100%,0%);fill-opacity:1;stroke-width:0.5;stroke-linecap:butt;stroke-linejoin:miter;stroke:rgb(0%,0%,0%);stroke-opacity:1;stroke-miterlimit:4;" d="M 190.937875 141.5625 L 191.070687 145.039062 L 186.945687 145.039062 L 187.062875 141.5625 Z M 190.937875 141.5625 " transform="matrix(0.5,0,0,0.5,5.3045,0)"/>
<path style="fill-rule:nonzero;fill:rgb(100%,100%,0%);fill-opacity:1;stroke-width:0.5;stroke-linecap:butt;stroke-linejoin:miter;stroke:rgb(0%,0%,0%);stroke-opacity:1;stroke-miterlimit:4;" d="M 186.296875 139.039062 L 187.5 139.046875 L 187.5 139.914062 L 188.375 139.914062 L 188.375 139.023438 L 189.609375 139.023438 L 189.609375 139.914062 L 190.484375 139.914062 L 190.484375 139.023438 L 191.71875 139.023438 L 191.710938 141.039062 C 191.710938 141.351562 191.46875 141.554688 191.179688 141.554688 L 186.859375 141.554688 C 186.570312 141.554688 186.304688 141.320312 186.304688 141.03125 Z M 186.296875 139.039062 " transform="matrix(0.5,0,0,0.5,0,0)"/>
<path style="fill-rule:nonzero;fill:rgb(100%,100%,0%);fill-opacity:1;stroke-width:0.5;stroke-linecap:butt;stroke-linejoin:miter;stroke:rgb(0%,0%,0%);stroke-opacity:1;stroke-miterlimit:4;" d="M 186.29725 139.039062 L 187.500375 139.046875 L 187.500375 139.914062 L 188.375375 139.914062 L 188.375375 139.023438 L 189.60975 139.023438 L 189.60975 139.914062 L 190.48475 139.914062 L 190.48475 139.023438 L 191.719125 139.023438 L 191.711312 141.039062 C 191.711312 141.351562 191.461312 141.554688 191.180062 141.554688 L 186.85975 141.554688 C 186.570687 141.554688 186.305062 141.320312 186.29725 141.03125 Z M 186.29725 139.039062 " transform="matrix(0.5,0,0,0.5,5.3045,0)"/>
<path style=" stroke:none;fill-rule:nonzero;fill:rgb(0%,0%,0%);fill-opacity:1;" d="M 96.949219 70.304688 C 96.9375 69.992188 97.386719 69.988281 97.382812 70.304688 L 97.382812 71.074219 L 96.949219 71.074219 L 96.949219 70.304688 "/>
<path style=" stroke:none;fill-rule:nonzero;fill:rgb(0%,0%,0%);fill-opacity:1;" d="M 94.285156 71.421875 C 94.285156 71.117188 94.703125 71.109375 94.699219 71.421875 L 94.699219 72.011719 L 94.285156 72.011719 L 94.285156 71.421875 "/>
<path style=" stroke:none;fill-rule:nonzero;fill:rgb(0%,0%,0%);fill-opacity:1;" d="M 99.605469 71.421875 C 99.605469 71.117188 100.023438 71.109375 100.019531 71.421875 L 100.019531 72.011719 L 99.605469 72.011719 L 99.605469 71.421875 "/>
<path style=" stroke:none;fill-rule:nonzero;fill:rgb(100%,100%,0%);fill-opacity:1;" d="M 95.09375 100.375 C 95.164062 97.613281 97.121094 96.960938 97.136719 96.953125 C 97.148438 96.941406 99.25 97.65625 99.242188 100.402344 L 95.09375 100.375 "/>
<path style="fill-rule:nonzero;fill:rgb(100%,100%,0%);fill-opacity:1;stroke-width:0.5;stroke-linecap:butt;stroke-linejoin:miter;stroke:rgb(0%,0%,0%);stroke-opacity:1;stroke-miterlimit:4;" d="M 186.8125 147.687813 L 186.125 154.031563 L 190.265625 154.047188 C 190.304688 148.797188 194.242188 147.922188 194.335938 147.937813 C 194.429688 147.937813 198.328125 149.101875 198.429688 154.047188 L 202.578125 154.047188 L 201.828125 147.64875 Z M 185.851562 154.062813 L 202.796875 154.062813 C 203.15625 154.062813 203.445312 154.414375 203.445312 154.844063 C 203.445312 155.27375 203.15625 155.625313 202.796875 155.625313 L 185.851562 155.625313 C 185.492188 155.625313 185.203125 155.27375 185.203125 154.844063 C 185.203125 154.414375 185.492188 154.062813 185.851562 154.062813 Z M 185.851562 154.062813 " transform="matrix(0.5,0,0,0.5,0,23.16)"/>
<path style="fill-rule:nonzero;fill:rgb(100%,100%,0%);fill-opacity:1;stroke-width:0.5;stroke-linecap:butt;stroke-linejoin:miter;stroke:rgb(0%,0%,0%);stroke-opacity:1;stroke-miterlimit:4;" d="M 192.007812 154.031563 C 192.03125 150.719063 194.273438 149.781563 194.28125 149.781563 C 194.28125 149.781563 196.625 150.750313 196.640625 154.031563 L 192.007812 154.031563 M 186.210938 145.047188 L 202.453125 145.047188 C 202.796875 145.047188 203.078125 145.3675 203.078125 145.758125 C 203.078125 146.140938 202.796875 146.46125 202.453125 146.46125 L 186.210938 146.46125 C 185.867188 146.46125 185.585938 146.140938 185.585938 145.758125 C 185.585938 145.3675 185.867188 145.047188 186.210938 145.047188 Z M 186.546875 146.469063 L 202.085938 146.469063 C 202.414062 146.469063 202.679688 146.789375 202.679688 147.172188 C 202.679688 147.562813 202.414062 147.875313 202.085938 147.875313 L 186.546875 147.875313 C 186.226562 147.875313 185.953125 147.562813 185.953125 147.172188 C 185.953125 146.789375 186.226562 146.469063 186.546875 146.469063 Z M 191.570312 135.883125 L 192.796875 135.883125 L 192.796875 136.750313 L 193.695312 136.750313 L 193.695312 135.859688 L 194.945312 135.8675 L 194.945312 136.750313 L 195.84375 136.750313 L 195.84375 135.8675 L 197.101562 135.8675 L 197.101562 137.875313 C 197.101562 138.187813 196.851562 138.39875 196.554688 138.39875 L 192.140625 138.39875 C 191.84375 138.39875 191.570312 138.156563 191.570312 137.8675 Z M 196.1875 138.570625 L 196.46875 145.02375 L 192.164062 145.008125 L 192.445312 138.555 L 196.1875 138.570625 " transform="matrix(0.5,0,0,0.5,0,23.16)"/>
<path style="fill-rule:nonzero;fill:rgb(100%,100%,0%);fill-opacity:1;stroke-width:0.5;stroke-linecap:butt;stroke-linejoin:miter;stroke:rgb(0%,0%,0%);stroke-opacity:1;stroke-miterlimit:4;" d="M 190.9375 141.562813 L 191.070312 145.039375 L 186.945312 145.039375 L 187.0625 141.562813 Z M 190.9375 141.562813 " transform="matrix(0.5,0,0,0.5,0,23.16)"/>
<path style="fill-rule:nonzero;fill:rgb(100%,100%,0%);fill-opacity:1;stroke-width:0.5;stroke-linecap:butt;stroke-linejoin:miter;stroke:rgb(0%,0%,0%);stroke-opacity:1;stroke-miterlimit:4;" d="M 190.937875 141.562813 L 191.070687 145.039375 L 186.945687 145.039375 L 187.062875 141.562813 Z M 190.937875 141.562813 " transform="matrix(0.5,0,0,0.5,5.3045,23.16)"/>
<path style="fill-rule:nonzero;fill:rgb(100%,100%,0%);fill-opacity:1;stroke-width:0.5;stroke-linecap:butt;stroke-linejoin:miter;stroke:rgb(0%,0%,0%);stroke-opacity:1;stroke-miterlimit:4;" d="M 186.296875 139.039375 L 187.5 139.039375 L 187.5 139.914375 L 188.375 139.914375 L 188.375 139.02375 L 189.609375 139.02375 L 189.609375 139.914375 L 190.484375 139.914375 L 190.484375 139.02375 L 191.71875 139.02375 L 191.710938 141.039375 C 191.710938 141.351875 191.46875 141.555 191.179688 141.555 L 186.859375 141.555 C 186.570312 141.555 186.304688 141.320625 186.304688 141.031563 Z M 186.296875 139.039375 " transform="matrix(0.5,0,0,0.5,0,23.16)"/>
<path style="fill-rule:nonzero;fill:rgb(100%,100%,0%);fill-opacity:1;stroke-width:0.5;stroke-linecap:butt;stroke-linejoin:miter;stroke:rgb(0%,0%,0%);stroke-opacity:1;stroke-miterlimit:4;" d="M 186.29725 139.039375 L 187.500375 139.039375 L 187.500375 139.914375 L 188.375375 139.914375 L 188.375375 139.02375 L 189.60975 139.02375 L 189.60975 139.914375 L 190.48475 139.914375 L 190.48475 139.02375 L 191.719125 139.02375 L 191.711312 141.039375 C 191.711312 141.351875 191.461312 141.555 191.180062 141.555 L 186.85975 141.555 C 186.570687 141.555 186.305062 141.320625 186.29725 141.031563 Z M 186.29725 139.039375 " transform="matrix(0.5,0,0,0.5,5.3045,23.16)"/>
<path style=" stroke:none;fill-rule:nonzero;fill:rgb(0%,0%,0%);fill-opacity:1;" d="M 96.949219 93.464844 C 96.9375 93.152344 97.386719 93.148438 97.382812 93.464844 L 97.382812 94.234375 L 96.949219 94.234375 L 96.949219 93.464844 "/>
<path style=" stroke:none;fill-rule:nonzero;fill:rgb(0%,0%,0%);fill-opacity:1;" d="M 94.285156 94.578125 C 94.285156 94.277344 94.703125 94.269531 94.699219 94.578125 L 94.699219 95.171875 L 94.285156 95.171875 L 94.285156 94.578125 "/>
<path style=" stroke:none;fill-rule:nonzero;fill:rgb(0%,0%,0%);fill-opacity:1;" d="M 99.605469 94.578125 C 99.605469 94.277344 100.023438 94.269531 100.019531 94.578125 L 100.019531 95.171875 L 99.605469 95.171875 L 99.605469 94.578125 "/>
<path style=" stroke:none;fill-rule:nonzero;fill:rgb(100%,100%,0%);fill-opacity:1;" d="M 104.125 124.480469 C 102.214844 122.488281 103.128906 120.636719 103.132812 120.621094 C 103.136719 120.605469 105.125 119.617188 107.066406 121.554688 L 104.125 124.480469 "/>
<path style="fill-rule:nonzero;fill:rgb(100%,100%,0%);fill-opacity:1;stroke-width:0.5;stroke-linecap:butt;stroke-linejoin:miter;stroke:rgb(0%,0%,0%);stroke-opacity:1;stroke-miterlimit:4;" d="M 186.81231 147.687125 L 186.127004 154.037661 L 190.270221 154.041219 C 190.310821 148.793272 194.241689 147.917717 194.341047 147.940165 C 194.42393 147.934933 198.325496 149.103268 198.429617 154.042365 L 202.583883 154.045962 L 201.833043 147.646169 Z M 185.850715 154.058784 L 202.793765 154.057751 C 203.152821 154.064541 203.444378 154.4136 203.442859 154.844491 C 203.446884 155.269876 203.152833 155.62792 202.799282 155.626673 L 185.850727 155.622163 C 185.491632 155.626421 185.200075 155.277362 185.201594 154.846471 C 185.197608 154.410037 185.49162 154.063042 185.850715 154.058784 Z M 185.850715 154.058784 " transform="matrix(0.352305,-0.354798,0.354798,0.352305,-17.670937,137.554388)"/>
<path style="fill-rule:nonzero;fill:rgb(100%,100%,0%);fill-opacity:1;stroke-width:0.5;stroke-linecap:butt;stroke-linejoin:miter;stroke:rgb(0%,0%,0%);stroke-opacity:1;stroke-miterlimit:4;" d="M 192.010415 154.030782 C 192.027605 150.721783 194.273795 149.779521 194.284844 149.77956 C 194.284844 149.77956 196.623732 150.749036 196.645308 154.030549 L 192.010415 154.030782 M 186.20841 145.049902 L 202.455407 145.046415 C 202.797909 145.047622 203.078535 145.363497 203.082677 145.755737 C 203.081313 146.142434 202.798467 146.456322 202.455964 146.455115 L 186.208968 146.458602 C 185.866465 146.457394 185.585839 146.14152 185.587203 145.754823 C 185.588566 145.368126 185.865907 145.048694 186.20841 145.049902 Z M 186.551432 146.470858 L 202.085782 146.470382 C 202.417236 146.471551 202.686814 146.787387 202.68545 147.174083 C 202.684087 147.56078 202.417794 147.880251 202.08634 147.879082 L 186.55199 147.879558 C 186.220535 147.878389 185.950958 147.562553 185.952321 147.175857 C 185.953684 146.78916 186.219978 146.469689 186.551432 146.470858 Z M 191.571688 135.88189 L 192.798069 135.886213 L 192.800535 136.753538 L 193.689957 136.751149 L 193.693073 135.867271 L 194.947094 135.866168 L 194.949483 136.75559 L 195.849953 136.75324 L 195.847565 135.863819 L 197.101586 135.862716 L 197.105545 137.873577 C 197.104416 138.193983 196.8496 138.391959 196.556795 138.396451 L 192.142871 138.397463 C 191.844563 138.396411 191.574712 138.157914 191.57022 137.86511 Z M 196.191573 138.571941 L 196.467133 145.025302 L 192.163772 145.004606 L 192.451683 138.553232 L 196.191573 138.571941 " transform="matrix(0.352305,-0.354798,0.354798,0.352305,-17.670937,137.554388)"/>
<path style="fill-rule:nonzero;fill:rgb(100%,100%,0%);fill-opacity:1;stroke-width:0.5;stroke-linecap:butt;stroke-linejoin:miter;stroke:rgb(0%,0%,0%);stroke-opacity:1;stroke-miterlimit:4;" d="M 190.944 141.558663 L 191.069856 145.033895 L 186.948697 145.041463 L 187.060403 141.561544 Z M 190.944 141.558663 " transform="matrix(0.352305,-0.354798,0.354798,0.352305,-17.670937,137.554388)"/>
<path style="fill-rule:nonzero;fill:rgb(100%,100%,0%);fill-opacity:1;stroke-width:0.5;stroke-linecap:butt;stroke-linejoin:miter;stroke:rgb(0%,0%,0%);stroke-opacity:1;stroke-miterlimit:4;" d="M 190.941653 141.562912 L 191.067509 145.038144 L 186.946389 145.034663 L 187.0636 141.560288 Z M 190.941653 141.562912 " transform="matrix(0.352305,-0.354798,0.354798,0.352305,-13.933337,133.79034)"/>
<path style="fill-rule:nonzero;fill:rgb(100%,100%,0%);fill-opacity:1;stroke-width:0.5;stroke-linecap:butt;stroke-linejoin:miter;stroke:rgb(0%,0%,0%);stroke-opacity:1;stroke-miterlimit:4;" d="M 186.295891 139.039765 L 187.500175 139.044011 L 187.497098 139.916841 L 188.375471 139.914413 L 188.378626 139.019487 L 189.605007 139.02381 L 189.607395 139.913232 L 190.485768 139.910804 L 190.48338 139.021383 L 191.715304 139.020202 L 191.71372 141.036568 C 191.718134 141.351469 191.468823 141.554989 191.181562 141.553976 L 186.856026 141.555299 C 186.568766 141.554287 186.30442 141.321334 186.299928 141.02853 Z M 186.295891 139.039765 " transform="matrix(0.352305,-0.354798,0.354798,0.352305,-17.670937,137.554388)"/>
<path style="fill-rule:nonzero;fill:rgb(100%,100%,0%);fill-opacity:1;stroke-width:0.5;stroke-linecap:butt;stroke-linejoin:miter;stroke:rgb(0%,0%,0%);stroke-opacity:1;stroke-miterlimit:4;" d="M 186.299087 139.038509 L 187.503371 139.042755 L 187.500294 139.915585 L 188.378667 139.913157 L 188.376279 139.023735 L 189.602659 139.028059 L 189.605048 139.917481 L 190.483421 139.915053 L 190.486576 139.020127 L 191.712957 139.02445 L 191.716916 141.035312 C 191.710282 141.350174 191.46097 141.553694 191.179215 141.558225 L 186.859222 141.554043 C 186.571962 141.553031 186.296568 141.320039 186.303124 141.027274 Z M 186.299087 139.038509 " transform="matrix(0.352305,-0.354798,0.354798,0.352305,-13.933337,133.79034)"/>
<path style=" stroke:none;fill-rule:nonzero;fill:rgb(0%,0%,0%);fill-opacity:1;" d="M 100.527344 118.296875 C 100.296875 118.085938 100.613281 117.761719 100.835938 117.988281 L 101.378906 118.53125 L 101.074219 118.835938 L 100.527344 118.296875 "/>
<path style=" stroke:none;fill-rule:nonzero;fill:rgb(0%,0%,0%);fill-opacity:1;" d="M 99.441406 120.972656 C 99.226562 120.761719 99.519531 120.457031 99.734375 120.679688 L 100.15625 121.097656 L 99.863281 121.390625 L 99.441406 120.972656 "/>
<path style=" stroke:none;fill-rule:nonzero;fill:rgb(0%,0%,0%);fill-opacity:1;" d="M 103.191406 117.199219 C 102.976562 116.984375 103.265625 116.683594 103.480469 116.90625 L 103.902344 117.324219 L 103.613281 117.617188 L 103.191406 117.199219 "/>
<path style=" stroke:none;fill-rule:nonzero;fill:rgb(100%,100%,0%);fill-opacity:1;" d="M 117.953125 77.214844 C 118.019531 74.453125 119.976562 73.800781 119.992188 73.792969 C 120.007812 73.78125 122.109375 74.496094 122.101562 77.242188 L 117.953125 77.214844 "/>
<path style="fill-rule:nonzero;fill:rgb(100%,100%,0%);fill-opacity:1;stroke-width:0.5;stroke-linecap:butt;stroke-linejoin:miter;stroke:rgb(0%,0%,0%);stroke-opacity:1;stroke-miterlimit:4;" d="M 186.809438 147.6875 L 186.12975 154.03125 L 190.270375 154.046875 C 190.309438 148.796875 194.239125 147.921875 194.340688 147.9375 C 194.426625 147.9375 198.325063 149.101562 198.434438 154.046875 L 202.582875 154.046875 L 201.832875 147.648438 Z M 185.8485 154.0625 L 202.793813 154.0625 C 203.153188 154.0625 203.44225 154.414062 203.44225 154.84375 C 203.44225 155.273438 203.153188 155.625 202.793813 155.625 L 185.8485 155.625 C 185.489125 155.625 185.200063 155.273438 185.200063 154.84375 C 185.200063 154.414062 185.489125 154.0625 185.8485 154.0625 Z M 185.8485 154.0625 " transform="matrix(0.5,0,0,0.5,22.857,0)"/>
<path style="fill-rule:nonzero;fill:rgb(100%,100%,0%);fill-opacity:1;stroke-width:0.5;stroke-linecap:butt;stroke-linejoin:miter;stroke:rgb(0%,0%,0%);stroke-opacity:1;stroke-miterlimit:4;" d="M 192.012563 154.03125 C 192.028188 150.71875 194.270375 149.78125 194.286 149.78125 C 194.286 149.78125 196.62975 150.75 196.645375 154.03125 L 192.012563 154.03125 M 186.207875 145.046875 L 202.457875 145.046875 C 202.793813 145.046875 203.075063 145.367188 203.075063 145.757812 C 203.075063 146.140625 202.801625 146.460938 202.457875 146.460938 L 186.207875 146.460938 C 185.864125 146.460938 185.590688 146.140625 185.590688 145.757812 C 185.590688 145.367188 185.864125 145.046875 186.207875 145.046875 Z M 186.551625 146.46875 L 202.090688 146.46875 C 202.418813 146.46875 202.684438 146.789062 202.684438 147.171875 C 202.684438 147.5625 202.418813 147.875 202.090688 147.875 L 186.551625 147.875 C 186.2235 147.875 185.957875 147.5625 185.957875 147.171875 C 185.957875 146.789062 186.2235 146.46875 186.551625 146.46875 Z M 191.56725 135.882812 L 192.793813 135.882812 L 192.793813 136.75 L 193.69225 136.75 L 193.69225 135.859375 L 194.950063 135.867188 L 194.950063 136.757812 L 195.8485 136.757812 L 195.8485 135.867188 L 197.106313 135.867188 L 197.0985 137.875 C 197.0985 138.1875 196.8485 138.398438 196.551625 138.398438 L 192.145375 138.398438 C 191.8485 138.398438 191.575063 138.15625 191.56725 137.867188 Z M 196.19225 138.570312 L 196.465688 145.023438 L 192.161 145.007812 L 192.450063 138.554688 L 196.19225 138.570312 " transform="matrix(0.5,0,0,0.5,22.857,0)"/>
<path style="fill-rule:nonzero;fill:rgb(100%,100%,0%);fill-opacity:1;stroke-width:0.5;stroke-linecap:butt;stroke-linejoin:miter;stroke:rgb(0%,0%,0%);stroke-opacity:1;stroke-miterlimit:4;" d="M 190.94225 141.5625 L 191.06725 145.039062 L 186.94225 145.039062 L 187.059438 141.5625 Z M 190.94225 141.5625 " transform="matrix(0.5,0,0,0.5,22.857,0)"/>
<path style="fill-rule:nonzero;fill:rgb(100%,100%,0%);fill-opacity:1;stroke-width:0.5;stroke-linecap:butt;stroke-linejoin:miter;stroke:rgb(0%,0%,0%);stroke-opacity:1;stroke-miterlimit:4;" d="M 190.942625 141.5625 L 191.067625 145.039062 L 186.942625 145.039062 L 187.059812 141.5625 Z M 190.942625 141.5625 " transform="matrix(0.5,0,0,0.5,28.1615,0)"/>
<path style="fill-rule:nonzero;fill:rgb(100%,100%,0%);fill-opacity:1;stroke-width:0.5;stroke-linecap:butt;stroke-linejoin:miter;stroke:rgb(0%,0%,0%);stroke-opacity:1;stroke-miterlimit:4;" d="M 186.301625 139.039062 L 187.496938 139.046875 L 187.496938 139.914062 L 188.37975 139.914062 L 188.37975 139.023438 L 189.606313 139.023438 L 189.606313 139.914062 L 190.489125 139.914062 L 190.489125 139.023438 L 191.715688 139.023438 L 191.715688 141.039062 C 191.715688 141.351562 191.465688 141.554688 191.176625 141.554688 L 186.864125 141.554688 C 186.56725 141.554688 186.301625 141.320312 186.301625 141.03125 Z M 186.301625 139.039062 " transform="matrix(0.5,0,0,0.5,22.857,0)"/>
<path style="fill-rule:nonzero;fill:rgb(100%,100%,0%);fill-opacity:1;stroke-width:0.5;stroke-linecap:butt;stroke-linejoin:miter;stroke:rgb(0%,0%,0%);stroke-opacity:1;stroke-miterlimit:4;" d="M 186.302 139.039062 L 187.497312 139.046875 L 187.497312 139.914062 L 188.380125 139.914062 L 188.380125 139.023438 L 189.606687 139.023438 L 189.606687 139.914062 L 190.4895 139.914062 L 190.4895 139.023438 L 191.716062 139.023438 L 191.716062 141.039062 C 191.716062 141.351562 191.466062 141.554688 191.177 141.554688 L 186.8645 141.554688 C 186.567625 141.554688 186.302 141.320312 186.302 141.03125 Z M 186.302 139.039062 " transform="matrix(0.5,0,0,0.5,28.1615,0)"/>
<path style=" stroke:none;fill-rule:nonzero;fill:rgb(0%,0%,0%);fill-opacity:1;" d="M 119.808594 70.304688 C 119.792969 69.992188 120.246094 69.988281 120.238281 70.304688 L 120.238281 71.074219 L 119.808594 71.074219 L 119.808594 70.304688 "/>
<path style=" stroke:none;fill-rule:nonzero;fill:rgb(0%,0%,0%);fill-opacity:1;" d="M 117.140625 71.421875 C 117.140625 71.117188 117.558594 71.109375 117.554688 71.421875 L 117.554688 72.011719 L 117.140625 72.011719 L 117.140625 71.421875 "/>
<path style=" stroke:none;fill-rule:nonzero;fill:rgb(0%,0%,0%);fill-opacity:1;" d="M 122.460938 71.421875 C 122.460938 71.117188 122.882812 71.109375 122.875 71.421875 L 122.875 72.011719 L 122.460938 72.011719 L 122.460938 71.421875 "/>
<path style=" stroke:none;fill-rule:nonzero;fill:rgb(100%,100%,0%);fill-opacity:1;" d="M 144.800781 77.214844 C 144.734375 74.453125 142.773438 73.800781 142.761719 73.792969 C 142.746094 73.78125 140.644531 74.496094 140.652344 77.242188 L 144.800781 77.214844 "/>
<path style="fill-rule:nonzero;fill:rgb(100%,100%,0%);fill-opacity:1;stroke-width:0.5;stroke-linecap:butt;stroke-linejoin:miter;stroke:rgb(0%,0%,0%);stroke-opacity:1;stroke-miterlimit:4;" d="M 186.807625 147.6875 L 186.127937 154.03125 L 190.268562 154.046875 C 190.307625 148.796875 194.245125 147.921875 194.338875 147.9375 C 194.424812 147.9375 198.32325 149.101562 198.432625 154.046875 L 202.581062 154.046875 L 201.831062 147.648438 Z M 185.846687 154.0625 L 202.799812 154.0625 C 203.151375 154.0625 203.44825 154.414062 203.44825 154.84375 C 203.44825 155.273438 203.151375 155.625 202.799812 155.625 L 185.846687 155.625 C 185.495125 155.625 185.19825 155.273438 185.19825 154.84375 C 185.19825 154.414062 185.495125 154.0625 185.846687 154.0625 Z M 185.846687 154.0625 " transform="matrix(-0.5,0,0,0.5,239.896,0)"/>
<path style="fill-rule:nonzero;fill:rgb(100%,100%,0%);fill-opacity:1;stroke-width:0.5;stroke-linecap:butt;stroke-linejoin:miter;stroke:rgb(0%,0%,0%);stroke-opacity:1;stroke-miterlimit:4;" d="M 192.01075 154.03125 C 192.026375 150.71875 194.268562 149.78125 194.284187 149.78125 C 194.284187 149.78125 196.627937 150.75 196.643562 154.03125 L 192.01075 154.03125 M 186.213875 145.046875 L 202.456062 145.046875 C 202.799812 145.046875 203.081062 145.367188 203.081062 145.757812 C 203.081062 146.140625 202.799812 146.460938 202.456062 146.460938 L 186.213875 146.460938 C 185.870125 146.460938 185.588875 146.140625 185.588875 145.757812 C 185.588875 145.367188 185.870125 145.046875 186.213875 145.046875 Z M 186.549812 146.46875 L 202.088875 146.46875 C 202.417 146.46875 202.682625 146.789062 202.682625 147.171875 C 202.682625 147.5625 202.417 147.875 202.088875 147.875 L 186.549812 147.875 C 186.221687 147.875 185.956062 147.5625 185.956062 147.171875 C 185.956062 146.789062 186.221687 146.46875 186.549812 146.46875 Z M 191.57325 135.882812 L 192.799812 135.882812 L 192.799812 136.75 L 193.690437 136.75 L 193.690437 135.859375 L 194.94825 135.867188 L 194.94825 136.757812 L 195.846687 136.757812 L 195.846687 135.867188 L 197.1045 135.867188 L 197.1045 137.875 C 197.1045 138.1875 196.846687 138.398438 196.549812 138.398438 L 192.143562 138.398438 C 191.846687 138.398438 191.57325 138.15625 191.57325 137.867188 L 191.565437 135.882812 Z M 196.190437 138.570312 L 196.463875 145.023438 L 192.167 145.007812 L 192.44825 138.554688 L 196.190437 138.570312 " transform="matrix(-0.5,0,0,0.5,239.896,0)"/>
<path style="fill-rule:nonzero;fill:rgb(100%,100%,0%);fill-opacity:1;stroke-width:0.5;stroke-linecap:butt;stroke-linejoin:miter;stroke:rgb(0%,0%,0%);stroke-opacity:1;stroke-miterlimit:4;" d="M 190.940437 141.5625 L 191.07325 145.039062 L 186.94825 145.039062 L 187.065437 141.5625 Z M 190.940437 141.5625 " transform="matrix(-0.5,0,0,0.5,239.896,0)"/>
<path style="fill-rule:nonzero;fill:rgb(100%,100%,0%);fill-opacity:1;stroke-width:0.5;stroke-linecap:butt;stroke-linejoin:miter;stroke:rgb(0%,0%,0%);stroke-opacity:1;stroke-miterlimit:4;" d="M 190.940812 141.5625 L 191.073625 145.039062 L 186.948625 145.039062 L 187.065812 141.5625 Z M 190.940812 141.5625 " transform="matrix(-0.5,0,0,0.5,234.5915,0)"/>
<path style="fill-rule:nonzero;fill:rgb(100%,100%,0%);fill-opacity:1;stroke-width:0.5;stroke-linecap:butt;stroke-linejoin:miter;stroke:rgb(0%,0%,0%);stroke-opacity:1;stroke-miterlimit:4;" d="M 186.299812 139.039062 L 187.502937 139.046875 L 187.502937 139.914062 L 188.377937 139.914062 L 188.377937 139.023438 L 189.6045 139.023438 L 189.6045 139.914062 L 190.487312 139.914062 L 190.487312 139.023438 L 191.713875 139.023438 L 191.713875 141.039062 C 191.713875 141.351562 191.463875 141.554688 191.174812 141.554688 L 186.862312 141.554688 C 186.57325 141.554688 186.299812 141.320312 186.299812 141.03125 Z M 186.299812 139.039062 " transform="matrix(-0.5,0,0,0.5,239.896,0)"/>
<path style="fill-rule:nonzero;fill:rgb(100%,100%,0%);fill-opacity:1;stroke-width:0.5;stroke-linecap:butt;stroke-linejoin:miter;stroke:rgb(0%,0%,0%);stroke-opacity:1;stroke-miterlimit:4;" d="M 186.300187 139.039062 L 187.503312 139.046875 L 187.503312 139.914062 L 188.378312 139.914062 L 188.378312 139.023438 L 189.604875 139.023438 L 189.604875 139.914062 L 190.487687 139.914062 L 190.487687 139.023438 L 191.71425 139.023438 L 191.71425 141.039062 C 191.71425 141.351562 191.46425 141.554688 191.175187 141.554688 L 186.862687 141.554688 C 186.573625 141.554688 186.300187 141.320312 186.300187 141.03125 Z M 186.300187 139.039062 " transform="matrix(-0.5,0,0,0.5,234.5915,0)"/>
<path style=" stroke:none;fill-rule:nonzero;fill:rgb(0%,0%,0%);fill-opacity:1;" d="M 142.945312 70.304688 C 142.960938 69.992188 142.507812 69.988281 142.511719 70.304688 L 142.511719 71.074219 L 142.945312 71.074219 L 142.945312 70.304688 "/>
<path style=" stroke:none;fill-rule:nonzero;fill:rgb(0%,0%,0%);fill-opacity:1;" d="M 145.609375 71.421875 C 145.613281 71.117188 145.191406 71.109375 145.199219 71.421875 L 145.199219 72.011719 L 145.609375 72.011719 L 145.609375 71.421875 "/>
<path style=" stroke:none;fill-rule:nonzero;fill:rgb(0%,0%,0%);fill-opacity:1;" d="M 140.289062 71.421875 C 140.292969 71.117188 139.871094 71.109375 139.878906 71.421875 L 139.878906 72.011719 L 140.289062 72.011719 L 140.289062 71.421875 "/>
<path style=" stroke:none;fill-rule:nonzero;fill:rgb(100%,100%,0%);fill-opacity:1;" d="M 144.800781 100.375 C 144.734375 97.613281 142.773438 96.960938 142.761719 96.953125 C 142.746094 96.941406 140.644531 97.65625 140.652344 100.402344 L 144.800781 100.375 "/>
<path style="fill-rule:nonzero;fill:rgb(100%,100%,0%);fill-opacity:1;stroke-width:0.5;stroke-linecap:butt;stroke-linejoin:miter;stroke:rgb(0%,0%,0%);stroke-opacity:1;stroke-miterlimit:4;" d="M 186.807625 147.687813 L 186.127937 154.031563 L 190.268562 154.047188 C 190.307625 148.797188 194.245125 147.922188 194.338875 147.937813 C 194.424812 147.937813 198.32325 149.101875 198.432625 154.047188 L 202.581062 154.047188 L 201.831062 147.64875 Z M 185.846687 154.062813 L 202.799812 154.062813 C 203.151375 154.062813 203.44825 154.414375 203.44825 154.844063 C 203.44825 155.27375 203.151375 155.625313 202.799812 155.625313 L 185.846687 155.625313 C 185.495125 155.625313 185.19825 155.27375 185.19825 154.844063 C 185.19825 154.414375 185.495125 154.062813 185.846687 154.062813 Z M 185.846687 154.062813 " transform="matrix(-0.5,0,0,0.5,239.896,23.16)"/>
<path style="fill-rule:nonzero;fill:rgb(100%,100%,0%);fill-opacity:1;stroke-width:0.5;stroke-linecap:butt;stroke-linejoin:miter;stroke:rgb(0%,0%,0%);stroke-opacity:1;stroke-miterlimit:4;" d="M 192.01075 154.031563 C 192.026375 150.719063 194.268562 149.781563 194.284187 149.781563 C 194.284187 149.781563 196.627937 150.750313 196.643562 154.031563 L 192.01075 154.031563 M 186.213875 145.047188 L 202.456062 145.047188 C 202.799812 145.047188 203.081062 145.3675 203.081062 145.758125 C 203.081062 146.140938 202.799812 146.46125 202.456062 146.46125 L 186.213875 146.46125 C 185.870125 146.46125 185.588875 146.140938 185.588875 145.758125 C 185.588875 145.3675 185.870125 145.047188 186.213875 145.047188 Z M 186.549812 146.469063 L 202.088875 146.469063 C 202.417 146.469063 202.682625 146.789375 202.682625 147.172188 C 202.682625 147.562813 202.417 147.875313 202.088875 147.875313 L 186.549812 147.875313 C 186.221687 147.875313 185.956062 147.562813 185.956062 147.172188 C 185.956062 146.789375 186.221687 146.469063 186.549812 146.469063 Z M 191.57325 135.883125 L 192.799812 135.883125 L 192.799812 136.750313 L 193.690437 136.750313 L 193.690437 135.859688 L 194.94825 135.8675 L 194.94825 136.750313 L 195.846687 136.750313 L 195.846687 135.8675 L 197.1045 135.8675 L 197.1045 137.875313 C 197.1045 138.187813 196.846687 138.39875 196.549812 138.39875 L 192.143562 138.39875 C 191.846687 138.39875 191.57325 138.156563 191.57325 137.8675 L 191.565437 135.883125 Z M 196.190437 138.570625 L 196.463875 145.02375 L 192.167 145.008125 L 192.44825 138.555 L 196.190437 138.570625 " transform="matrix(-0.5,0,0,0.5,239.896,23.16)"/>
<path style="fill-rule:nonzero;fill:rgb(100%,100%,0%);fill-opacity:1;stroke-width:0.5;stroke-linecap:butt;stroke-linejoin:miter;stroke:rgb(0%,0%,0%);stroke-opacity:1;stroke-miterlimit:4;" d="M 190.940437 141.562813 L 191.07325 145.039375 L 186.94825 145.039375 L 187.065437 141.562813 Z M 190.940437 141.562813 " transform="matrix(-0.5,0,0,0.5,239.896,23.16)"/>
<path style="fill-rule:nonzero;fill:rgb(100%,100%,0%);fill-opacity:1;stroke-width:0.5;stroke-linecap:butt;stroke-linejoin:miter;stroke:rgb(0%,0%,0%);stroke-opacity:1;stroke-miterlimit:4;" d="M 190.940812 141.562813 L 191.073625 145.039375 L 186.948625 145.039375 L 187.065812 141.562813 Z M 190.940812 141.562813 " transform="matrix(-0.5,0,0,0.5,234.5915,23.16)"/>
<path style="fill-rule:nonzero;fill:rgb(100%,100%,0%);fill-opacity:1;stroke-width:0.5;stroke-linecap:butt;stroke-linejoin:miter;stroke:rgb(0%,0%,0%);stroke-opacity:1;stroke-miterlimit:4;" d="M 186.299812 139.039375 L 187.502937 139.039375 L 187.502937 139.914375 L 188.377937 139.914375 L 188.377937 139.02375 L 189.6045 139.02375 L 189.6045 139.914375 L 190.487312 139.914375 L 190.487312 139.02375 L 191.713875 139.02375 L 191.713875 141.039375 C 191.713875 141.351875 191.463875 141.555 191.174812 141.555 L 186.862312 141.555 C 186.57325 141.555 186.299812 141.320625 186.299812 141.031563 Z M 186.299812 139.039375 " transform="matrix(-0.5,0,0,0.5,239.896,23.16)"/>
<path style="fill-rule:nonzero;fill:rgb(100%,100%,0%);fill-opacity:1;stroke-width:0.5;stroke-linecap:butt;stroke-linejoin:miter;stroke:rgb(0%,0%,0%);stroke-opacity:1;stroke-miterlimit:4;" d="M 186.300187 139.039375 L 187.503312 139.039375 L 187.503312 139.914375 L 188.378312 139.914375 L 188.378312 139.02375 L 189.604875 139.02375 L 189.604875 139.914375 L 190.487687 139.914375 L 190.487687 139.02375 L 191.71425 139.02375 L 191.71425 141.039375 C 191.71425 141.351875 191.46425 141.555 191.175187 141.555 L 186.862687 141.555 C 186.573625 141.555 186.300187 141.320625 186.300187 141.031563 Z M 186.300187 139.039375 " transform="matrix(-0.5,0,0,0.5,234.5915,23.16)"/>
<path style=" stroke:none;fill-rule:nonzero;fill:rgb(0%,0%,0%);fill-opacity:1;" d="M 142.945312 93.464844 C 142.960938 93.152344 142.507812 93.148438 142.511719 93.464844 L 142.511719 94.234375 L 142.945312 94.234375 L 142.945312 93.464844 "/>
<path style=" stroke:none;fill-rule:nonzero;fill:rgb(0%,0%,0%);fill-opacity:1;" d="M 145.609375 94.578125 C 145.613281 94.277344 145.191406 94.269531 145.199219 94.578125 L 145.199219 95.171875 L 145.609375 95.171875 L 145.609375 94.578125 "/>
<path style=" stroke:none;fill-rule:nonzero;fill:rgb(0%,0%,0%);fill-opacity:1;" d="M 140.289062 94.578125 C 140.292969 94.277344 139.871094 94.269531 139.878906 94.578125 L 139.878906 95.171875 L 140.289062 95.171875 L 140.289062 94.578125 "/>
<path style=" stroke:none;fill-rule:nonzero;fill:rgb(100%,100%,0%);fill-opacity:1;" d="M 135.769531 124.480469 C 137.683594 122.488281 136.765625 120.636719 136.761719 120.621094 C 136.757812 120.605469 134.773438 119.617188 132.828125 121.554688 L 135.769531 124.480469 "/>
<path style="fill-rule:nonzero;fill:rgb(100%,100%,0%);fill-opacity:1;stroke-width:0.5;stroke-linecap:butt;stroke-linejoin:miter;stroke:rgb(0%,0%,0%);stroke-opacity:1;stroke-miterlimit:4;" d="M 186.81438 147.689209 L 186.123569 154.034202 L 190.272291 154.043304 C 190.307386 148.789813 194.243759 147.919802 194.337612 147.936705 C 194.426 147.937017 198.327566 149.105352 198.431687 154.044449 L 202.580448 154.042503 L 201.835113 147.648253 L 186.808875 147.683666 Z M 185.852784 154.060868 L 202.795835 154.059835 C 203.149386 154.061082 203.446448 154.415684 203.444929 154.846575 C 203.448954 155.271961 203.149398 155.62446 202.795847 155.623214 L 185.852797 155.624247 C 185.493702 155.628505 185.19664 155.273902 185.198159 154.843012 C 185.199678 154.412121 185.488185 154.059583 185.852784 154.060868 Z M 185.852784 154.060868 " transform="matrix(-0.352305,-0.354798,-0.354798,0.352305,257.566937,137.554388)"/>
<path style="fill-rule:nonzero;fill:rgb(100%,100%,0%);fill-opacity:1;stroke-width:0.5;stroke-linecap:butt;stroke-linejoin:miter;stroke:rgb(0%,0%,0%);stroke-opacity:1;stroke-miterlimit:4;" d="M 192.012484 154.032866 C 192.02417 150.718324 194.275865 149.781606 194.286914 149.781645 C 194.286914 149.781645 196.625801 150.75112 196.641873 154.02709 L 192.012484 154.032866 M 186.21048 145.051986 L 202.457476 145.048499 C 202.799979 145.049707 203.080605 145.365581 203.079242 145.752278 C 203.077878 146.138975 202.800537 146.458407 202.458034 146.457199 L 186.211038 146.460686 C 185.868535 146.459479 185.587909 146.143604 185.589272 145.756907 C 185.585131 145.364667 185.867977 145.050779 186.21048 145.051986 Z M 186.547997 146.467399 L 202.087852 146.472467 C 202.413801 146.468092 202.683379 146.783928 202.682016 147.170624 C 202.686157 147.562865 202.414359 147.876792 202.08841 147.881167 L 186.548555 147.876099 C 186.222605 147.880474 185.953028 147.564638 185.954391 147.177941 C 185.955754 146.791245 186.222047 146.471774 186.547997 146.467399 Z M 191.568253 135.87843 L 192.794634 135.882754 L 192.7971 136.750079 L 193.692027 136.753234 L 193.689638 135.863812 L 194.949164 135.868253 L 194.946048 136.752131 L 195.846518 136.749781 L 195.84413 135.860359 L 197.103656 135.8648 L 197.10211 137.870118 C 197.100981 138.190523 196.851669 138.394044 196.55336 138.392992 L 192.139436 138.394003 C 191.846632 138.398495 191.571277 138.154455 191.57229 137.867195 Z M 196.188138 138.568482 L 196.463698 145.021843 L 192.165842 145.006691 L 192.448248 138.549773 L 196.188138 138.568482 " transform="matrix(-0.352305,-0.354798,-0.354798,0.352305,257.566937,137.554388)"/>
<path style="fill-rule:nonzero;fill:rgb(100%,100%,0%);fill-opacity:1;stroke-width:0.5;stroke-linecap:butt;stroke-linejoin:miter;stroke:rgb(0%,0%,0%);stroke-opacity:1;stroke-miterlimit:4;" d="M 190.940566 141.555204 L 191.071926 145.03598 L 186.945262 145.038004 L 187.062473 141.563629 Z M 190.940566 141.555204 " transform="matrix(-0.352305,-0.354798,-0.354798,0.352305,257.566937,137.554388)"/>
<path style="fill-rule:nonzero;fill:rgb(100%,100%,0%);fill-opacity:1;stroke-width:0.5;stroke-linecap:butt;stroke-linejoin:miter;stroke:rgb(0%,0%,0%);stroke-opacity:1;stroke-miterlimit:4;" d="M 190.938218 141.559453 L 191.069578 145.040229 L 186.948458 145.036748 L 187.060165 141.556829 Z M 190.938218 141.559453 " transform="matrix(-0.352305,-0.354798,-0.354798,0.352305,253.829337,133.79034)"/>
<path style="fill-rule:nonzero;fill:rgb(100%,100%,0%);fill-opacity:1;stroke-width:0.5;stroke-linecap:butt;stroke-linejoin:miter;stroke:rgb(0%,0%,0%);stroke-opacity:1;stroke-miterlimit:4;" d="M 186.297961 139.04185 L 187.502245 139.046096 L 187.499167 139.918925 L 188.377541 139.916498 L 188.380696 139.021571 L 189.607076 139.025895 L 189.609465 139.915316 L 190.487838 139.912889 L 190.48545 139.023467 L 191.717374 139.022286 L 191.71579 141.038652 C 191.714699 141.34801 191.465388 141.55153 191.178127 141.550517 L 186.858096 141.557384 C 186.570835 141.556371 186.300985 141.317874 186.301998 141.030614 Z M 186.297961 139.04185 " transform="matrix(-0.352305,-0.354798,-0.354798,0.352305,257.566937,137.554388)"/>
<path style="fill-rule:nonzero;fill:rgb(100%,100%,0%);fill-opacity:1;stroke-width:0.5;stroke-linecap:butt;stroke-linejoin:miter;stroke:rgb(0%,0%,0%);stroke-opacity:1;stroke-miterlimit:4;" d="M 186.301157 139.040594 L 187.499936 139.039296 L 187.502364 139.917669 L 188.380737 139.915242 L 188.378348 139.02582 L 189.604729 139.030144 L 189.607118 139.919565 L 190.485491 139.917138 L 190.488646 139.022211 L 191.715027 139.026535 L 191.718986 141.037396 C 191.712351 141.352258 191.46304 141.555779 191.17578 141.554766 L 186.861292 141.556128 C 186.574032 141.555115 186.298638 141.322123 186.305194 141.029358 Z M 186.301157 139.040594 " transform="matrix(-0.352305,-0.354798,-0.354798,0.352305,253.829337,133.79034)"/>
<path style=" stroke:none;fill-rule:nonzero;fill:rgb(0%,0%,0%);fill-opacity:1;" d="M 139.367188 118.296875 C 139.597656 118.085938 139.28125 117.761719 139.0625 117.988281 L 138.515625 118.53125 L 138.820312 118.835938 L 139.367188 118.296875 "/>
<path style=" stroke:none;fill-rule:nonzero;fill:rgb(0%,0%,0%);fill-opacity:1;" d="M 140.453125 120.972656 C 140.667969 120.761719 140.378906 120.457031 140.164062 120.679688 L 139.742188 121.097656 L 140.03125 121.390625 L 140.453125 120.972656 "/>
<path style=" stroke:none;fill-rule:nonzero;fill:rgb(0%,0%,0%);fill-opacity:1;" d="M 136.703125 117.199219 C 136.921875 116.984375 136.628906 116.683594 136.414062 116.90625 L 135.992188 117.324219 L 136.285156 117.617188 L 136.703125 117.199219 "/>
<path style=" stroke:none;fill-rule:nonzero;fill:rgb(0%,20%,60%);fill-opacity:1;" d="M 116.316406 101.203125 L 116.316406 101.207031 C 116.316406 102.3125 116.742188 103.320312 117.425781 104.050781 C 118.105469 104.785156 119.046875 105.238281 120.074219 105.238281 C 121.109375 105.238281 122.046875 104.785156 122.726562 104.054688 C 123.40625 103.328125 123.828125 102.320312 123.828125 101.210938 L 123.828125 95.824219 L 116.332031 95.820312 L 116.316406 101.203125 "/>
<path style=" stroke:none;fill-rule:nonzero;fill:rgb(100%,100%,100%);fill-opacity:1;" d="M 118.78125 97.867188 C 118.78125 98.277344 118.449219 98.609375 118.035156 98.609375 C 117.625 98.609375 117.292969 98.277344 117.292969 97.867188 C 117.292969 97.457031 117.625 97.125 118.035156 97.125 C 118.449219 97.125 118.78125 97.457031 118.78125 97.867188 Z M 118.78125 97.867188 "/>
<path style=" stroke:none;fill-rule:nonzero;fill:rgb(100%,100%,100%);fill-opacity:1;" d="M 122.9375 97.871094 C 122.9375 98.28125 122.605469 98.613281 122.195312 98.613281 C 121.785156 98.613281 121.453125 98.28125 121.453125 97.871094 C 121.453125 97.460938 121.785156 97.128906 122.195312 97.128906 C 122.605469 97.128906 122.9375 97.460938 122.9375 97.871094 Z M 122.9375 97.871094 "/>
<path style=" stroke:none;fill-rule:nonzero;fill:rgb(100%,100%,100%);fill-opacity:1;" d="M 120.855469 99.867188 C 120.855469 100.277344 120.523438 100.609375 120.113281 100.609375 C 119.703125 100.609375 119.371094 100.277344 119.371094 99.867188 C 119.371094 99.457031 119.703125 99.125 120.113281 99.125 C 120.523438 99.125 120.855469 99.457031 120.855469 99.867188 Z M 120.855469 99.867188 "/>
<path style=" stroke:none;fill-rule:nonzero;fill:rgb(100%,100%,100%);fill-opacity:1;" d="M 118.78125 101.957031 C 118.78125 102.367188 118.449219 102.699219 118.035156 102.699219 C 117.625 102.699219 117.292969 102.367188 117.292969 101.957031 C 117.292969 101.546875 117.625 101.214844 118.035156 101.214844 C 118.449219 101.214844 118.78125 101.546875 118.78125 101.957031 Z M 118.78125 101.957031 "/>
<path style=" stroke:none;fill-rule:nonzero;fill:rgb(100%,100%,100%);fill-opacity:1;" d="M 122.933594 101.953125 C 122.933594 102.363281 122.601562 102.695312 122.191406 102.695312 C 121.78125 102.695312 121.449219 102.363281 121.449219 101.953125 C 121.449219 101.542969 121.78125 101.210938 122.191406 101.210938 C 122.601562 101.210938 122.933594 101.542969 122.933594 101.953125 Z M 122.933594 101.953125 "/>
<path style=" stroke:none;fill-rule:nonzero;fill:rgb(0%,20%,60%);fill-opacity:1;" d="M 116.316406 88.195312 L 116.316406 88.199219 C 116.316406 89.304688 116.742188 90.3125 117.425781 91.042969 C 118.105469 91.777344 119.046875 92.230469 120.074219 92.230469 C 121.109375 92.230469 122.046875 91.777344 122.726562 91.046875 C 123.40625 90.320312 123.828125 89.3125 123.828125 88.203125 L 123.828125 82.816406 L 116.332031 82.8125 L 116.316406 88.195312 "/>
<path style=" stroke:none;fill-rule:nonzero;fill:rgb(100%,100%,100%);fill-opacity:1;" d="M 118.78125 84.859375 C 118.78125 85.269531 118.449219 85.601562 118.035156 85.601562 C 117.625 85.601562 117.292969 85.269531 117.292969 84.859375 C 117.292969 84.449219 117.625 84.117188 118.035156 84.117188 C 118.449219 84.117188 118.78125 84.449219 118.78125 84.859375 Z M 118.78125 84.859375 "/>
<path style=" stroke:none;fill-rule:nonzero;fill:rgb(100%,100%,100%);fill-opacity:1;" d="M 122.9375 84.863281 C 122.9375 85.273438 122.605469 85.605469 122.195312 85.605469 C 121.785156 85.605469 121.453125 85.273438 121.453125 84.863281 C 121.453125 84.453125 121.785156 84.121094 122.195312 84.121094 C 122.605469 84.121094 122.9375 84.453125 122.9375 84.863281 Z M 122.9375 84.863281 "/>
<path style=" stroke:none;fill-rule:nonzero;fill:rgb(100%,100%,100%);fill-opacity:1;" d="M 120.855469 86.859375 C 120.855469 87.269531 120.523438 87.601562 120.113281 87.601562 C 119.703125 87.601562 119.371094 87.269531 119.371094 86.859375 C 119.371094 86.449219 119.703125 86.117188 120.113281 86.117188 C 120.523438 86.117188 120.855469 86.449219 120.855469 86.859375 Z M 120.855469 86.859375 "/>
<path style=" stroke:none;fill-rule:nonzero;fill:rgb(100%,100%,100%);fill-opacity:1;" d="M 118.78125 88.949219 C 118.78125 89.359375 118.449219 89.691406 118.035156 89.691406 C 117.625 89.691406 117.292969 89.359375 117.292969 88.949219 C 117.292969 88.539062 117.625 88.207031 118.035156 88.207031 C 118.449219 88.207031 118.78125 88.539062 118.78125 88.949219 Z M 118.78125 88.949219 "/>
<path style=" stroke:none;fill-rule:nonzero;fill:rgb(100%,100%,100%);fill-opacity:1;" d="M 122.933594 88.945312 C 122.933594 89.355469 122.601562 89.6875 122.191406 89.6875 C 121.78125 89.6875 121.449219 89.355469 121.449219 88.945312 C 121.449219 88.535156 121.78125 88.203125 122.191406 88.203125 C 122.601562 88.203125 122.933594 88.535156 122.933594 88.945312 Z M 122.933594 88.945312 "/>
<path style=" stroke:none;fill-rule:nonzero;fill:rgb(0%,20%,60%);fill-opacity:1;" d="M 105.917969 101.203125 L 105.917969 101.207031 C 105.917969 102.3125 106.34375 103.320312 107.023438 104.050781 C 107.707031 104.785156 108.648438 105.238281 109.675781 105.238281 C 110.710938 105.238281 111.648438 104.785156 112.328125 104.054688 C 113.007812 103.328125 113.429688 102.320312 113.429688 101.210938 L 113.429688 95.824219 L 105.933594 95.820312 L 105.917969 101.203125 "/>
<path style=" stroke:none;fill-rule:nonzero;fill:rgb(100%,100%,100%);fill-opacity:1;" d="M 108.378906 97.867188 C 108.378906 98.277344 108.046875 98.609375 107.636719 98.609375 C 107.226562 98.609375 106.894531 98.277344 106.894531 97.867188 C 106.894531 97.457031 107.226562 97.125 107.636719 97.125 C 108.046875 97.125 108.378906 97.457031 108.378906 97.867188 Z M 108.378906 97.867188 "/>
<path style=" stroke:none;fill-rule:nonzero;fill:rgb(100%,100%,100%);fill-opacity:1;" d="M 112.539062 97.871094 C 112.539062 98.28125 112.207031 98.613281 111.796875 98.613281 C 111.386719 98.613281 111.054688 98.28125 111.054688 97.871094 C 111.054688 97.460938 111.386719 97.128906 111.796875 97.128906 C 112.207031 97.128906 112.539062 97.460938 112.539062 97.871094 Z M 112.539062 97.871094 "/>
<path style=" stroke:none;fill-rule:nonzero;fill:rgb(100%,100%,100%);fill-opacity:1;" d="M 110.457031 99.867188 C 110.457031 100.277344 110.125 100.609375 109.714844 100.609375 C 109.300781 100.609375 108.96875 100.277344 108.96875 99.867188 C 108.96875 99.457031 109.300781 99.125 109.714844 99.125 C 110.125 99.125 110.457031 99.457031 110.457031 99.867188 Z M 110.457031 99.867188 "/>
<path style=" stroke:none;fill-rule:nonzero;fill:rgb(100%,100%,100%);fill-opacity:1;" d="M 108.378906 101.957031 C 108.378906 102.367188 108.046875 102.699219 107.636719 102.699219 C 107.226562 102.699219 106.894531 102.367188 106.894531 101.957031 C 106.894531 101.546875 107.226562 101.214844 107.636719 101.214844 C 108.046875 101.214844 108.378906 101.546875 108.378906 101.957031 Z M 108.378906 101.957031 "/>
<path style=" stroke:none;fill-rule:nonzero;fill:rgb(100%,100%,100%);fill-opacity:1;" d="M 112.535156 101.953125 C 112.535156 102.363281 112.203125 102.695312 111.792969 102.695312 C 111.382812 102.695312 111.050781 102.363281 111.050781 101.953125 C 111.050781 101.542969 111.382812 101.210938 111.792969 101.210938 C 112.203125 101.210938 112.535156 101.542969 112.535156 101.953125 Z M 112.535156 101.953125 "/>
<path style=" stroke:none;fill-rule:nonzero;fill:rgb(0%,20%,60%);fill-opacity:1;" d="M 126.691406 101.203125 L 126.691406 101.207031 C 126.691406 102.3125 127.117188 103.320312 127.796875 104.050781 C 128.480469 104.785156 129.417969 105.238281 130.449219 105.238281 C 131.480469 105.238281 132.417969 104.785156 133.097656 104.054688 C 133.777344 103.328125 134.199219 102.320312 134.199219 101.210938 L 134.199219 95.824219 L 126.703125 95.820312 L 126.691406 101.203125 "/>
<path style=" stroke:none;fill-rule:nonzero;fill:rgb(100%,100%,100%);fill-opacity:1;" d="M 129.152344 97.867188 C 129.152344 98.277344 128.820312 98.609375 128.410156 98.609375 C 128 98.609375 127.667969 98.277344 127.667969 97.867188 C 127.667969 97.457031 128 97.125 128.410156 97.125 C 128.820312 97.125 129.152344 97.457031 129.152344 97.867188 Z M 129.152344 97.867188 "/>
<path style=" stroke:none;fill-rule:nonzero;fill:rgb(100%,100%,100%);fill-opacity:1;" d="M 133.3125 97.871094 C 133.3125 98.28125 132.980469 98.613281 132.570312 98.613281 C 132.15625 98.613281 131.824219 98.28125 131.824219 97.871094 C 131.824219 97.460938 132.15625 97.128906 132.570312 97.128906 C 132.980469 97.128906 133.3125 97.460938 133.3125 97.871094 Z M 133.3125 97.871094 "/>
<path style=" stroke:none;fill-rule:nonzero;fill:rgb(100%,100%,100%);fill-opacity:1;" d="M 131.226562 99.867188 C 131.226562 100.277344 130.894531 100.609375 130.484375 100.609375 C 130.074219 100.609375 129.742188 100.277344 129.742188 99.867188 C 129.742188 99.457031 130.074219 99.125 130.484375 99.125 C 130.894531 99.125 131.226562 99.457031 131.226562 99.867188 Z M 131.226562 99.867188 "/>
<path style=" stroke:none;fill-rule:nonzero;fill:rgb(100%,100%,100%);fill-opacity:1;" d="M 129.152344 101.957031 C 129.152344 102.367188 128.820312 102.699219 128.410156 102.699219 C 128 102.699219 127.667969 102.367188 127.667969 101.957031 C 127.667969 101.546875 128 101.214844 128.410156 101.214844 C 128.820312 101.214844 129.152344 101.546875 129.152344 101.957031 Z M 129.152344 101.957031 "/>
<path style=" stroke:none;fill-rule:nonzero;fill:rgb(100%,100%,100%);fill-opacity:1;" d="M 133.308594 101.953125 C 133.308594 102.363281 132.972656 102.695312 132.5625 102.695312 C 132.152344 102.695312 131.820312 102.363281 131.820312 101.953125 C 131.820312 101.542969 132.152344 101.210938 132.5625 101.210938 C 132.972656 101.210938 133.308594 101.542969 133.308594 101.953125 Z M 133.308594 101.953125 "/>
<path style=" stroke:none;fill-rule:nonzero;fill:rgb(0%,20%,60%);fill-opacity:1;" d="M 116.316406 114.09375 L 116.316406 114.097656 C 116.316406 115.203125 116.742188 116.210938 117.425781 116.941406 C 118.105469 117.675781 119.046875 118.132812 120.074219 118.132812 C 121.109375 118.132812 122.046875 117.679688 122.726562 116.949219 C 123.40625 116.21875 123.828125 115.210938 123.828125 114.101562 L 123.828125 108.71875 L 116.332031 108.710938 L 116.316406 114.09375 "/>
<path style=" stroke:none;fill-rule:nonzero;fill:rgb(100%,100%,100%);fill-opacity:1;" d="M 118.78125 110.757812 C 118.78125 111.167969 118.449219 111.503906 118.035156 111.503906 C 117.625 111.503906 117.292969 111.167969 117.292969 110.757812 C 117.292969 110.347656 117.625 110.015625 118.035156 110.015625 C 118.449219 110.015625 118.78125 110.347656 118.78125 110.757812 Z M 118.78125 110.757812 "/>
<path style=" stroke:none;fill-rule:nonzero;fill:rgb(100%,100%,100%);fill-opacity:1;" d="M 122.9375 110.761719 C 122.9375 111.171875 122.605469 111.507812 122.195312 111.507812 C 121.785156 111.507812 121.453125 111.171875 121.453125 110.761719 C 121.453125 110.351562 121.785156 110.019531 122.195312 110.019531 C 122.605469 110.019531 122.9375 110.351562 122.9375 110.761719 Z M 122.9375 110.761719 "/>
<path style=" stroke:none;fill-rule:nonzero;fill:rgb(100%,100%,100%);fill-opacity:1;" d="M 120.855469 112.757812 C 120.855469 113.167969 120.523438 113.503906 120.113281 113.503906 C 119.703125 113.503906 119.371094 113.167969 119.371094 112.757812 C 119.371094 112.347656 119.703125 112.015625 120.113281 112.015625 C 120.523438 112.015625 120.855469 112.347656 120.855469 112.757812 Z M 120.855469 112.757812 "/>
<path style=" stroke:none;fill-rule:nonzero;fill:rgb(100%,100%,100%);fill-opacity:1;" d="M 118.78125 114.851562 C 118.78125 115.261719 118.449219 115.59375 118.035156 115.59375 C 117.625 115.59375 117.292969 115.261719 117.292969 114.851562 C 117.292969 114.441406 117.625 114.105469 118.035156 114.105469 C 118.449219 114.105469 118.78125 114.441406 118.78125 114.851562 Z M 118.78125 114.851562 "/>
<path style=" stroke:none;fill-rule:nonzero;fill:rgb(100%,100%,100%);fill-opacity:1;" d="M 122.933594 114.84375 C 122.933594 115.253906 122.601562 115.585938 122.191406 115.585938 C 121.78125 115.585938 121.449219 115.253906 121.449219 114.84375 C 121.449219 114.433594 121.78125 114.101562 122.191406 114.101562 C 122.601562 114.101562 122.933594 114.433594 122.933594 114.84375 Z M 122.933594 114.84375 "/>
</g>
</svg>
