<?xml version="1.0" encoding="UTF-8"?>
<svg xmlns="http://www.w3.org/2000/svg" xmlns:xlink="http://www.w3.org/1999/xlink" width="px" height="px" viewBox="0 0 600 330" version="1.1">
<g id="surface1">
<rect x="0" y="0" width="600" height="330" style="fill:rgb(0%,21.960784%,65.882353%);fill-opacity:1;stroke:none;"/>
<path style=" stroke:none;fill-rule:nonzero;fill:rgb(100%,100%,100%);fill-opacity:1;" d="M 0 0 L 600 0 L 600 220 L 0 220 Z M 0 0 "/>
<path style=" stroke:none;fill-rule:nonzero;fill:rgb(83.529412%,16.862745%,11.764706%);fill-opacity:1;" d="M 0 0 L 600 0 L 600 110 L 0 110 Z M 0 0 "/>
<path style="fill-rule:nonzero;fill:rgb(100%,100%,100%);fill-opacity:1;stroke-width:3.687;stroke-linecap:butt;stroke-linejoin:miter;stroke:rgb(0%,0%,0%);stroke-opacity:1;stroke-miterlimit:10;" d="M 683.65625 329.976562 C 683.65625 376.195312 646.210938 413.65625 600 413.65625 C 553.804688 413.65625 516.34375 376.195312 516.34375 329.976562 C 516.34375 283.78125 553.804688 246.34375 600 246.34375 C 646.210938 246.34375 683.65625 283.78125 683.65625 329.976562 Z M 683.65625 329.976562 " transform="matrix(0.5,0,0,0.5,0,0)"/>
<path style="fill-rule:nonzero;fill:rgb(0%,60.784314%,22.745098%);fill-opacity:1;stroke-width:0.985;stroke-linecap:butt;stroke-linejoin:miter;stroke:rgb(0%,0%,0%);stroke-opacity:1;stroke-miterlimit:4;" d="M 640.445312 317.023438 C 638.414062 316.9375 638.40625 319.179688 638.40625 319.179688 C 638.40625 319.179688 638.476562 318.515625 638.414062 319.265625 C 638.375 320.007812 638.75 321.820312 640.25 321.96875 C 641.835938 322.109375 642.359375 320.257812 642.375 319.359375 C 642.375 319.007812 642.257812 317.0625 640.445312 317.023438 " transform="matrix(0.5,0,0,0.5,0,0)"/>
<path style=" stroke:none;fill-rule:nonzero;fill:rgb(0%,0%,0%);fill-opacity:1;" d="M 273.757812 181.734375 L 273.398438 181.140625 C 273.363281 181.074219 273.269531 180.964844 273.121094 180.804688 C 273.195312 180.980469 273.140625 181.183594 272.984375 181.296875 C 272.84375 181.382812 272.753906 181.496094 272.738281 181.632812 C 272.710938 181.777344 272.777344 181.96875 272.933594 182.234375 L 273.296875 182.851562 Z M 277.296875 181.53125 L 272.746094 184.234375 L 271.359375 181.902344 C 271.101562 181.464844 270.945312 181.117188 270.882812 180.839844 C 270.8125 180.5625 270.847656 180.300781 270.960938 180.039062 C 271.078125 179.777344 271.285156 179.558594 271.578125 179.382812 C 272.105469 204.839844 251.894531 225.910156 226.4375 226.4375 C 200.976562 226.964844 179.910156 206.753906 179.382812 181.296875 C 179.636719 181.296875 179.871094 181.359375 180.09375 181.480469 C 180.234375 181.558594 180.398438 181.683594 180.574219 181.863281 C 180.53125 181.667969 180.507812 181.515625 180.515625 181.398438 C 178.941406 181.339844 177.675781 180.078125 177.613281 178.503906 C 177.554688 176.929688 178.71875 175.574219 180.285156 175.398438 C 181.851562 175.21875 183.289062 176.28125 183.578125 177.832031 C 183.871094 179.378906 182.917969 180.890625 181.398438 181.296875 C 181.457031 181.128906 181.515625 181.007812 181.554688 180.933594 L 182.472656 179.46875 L 183.410156 181.058594 L 182.472656 182.636719 C 182.355469 182.835938 182.285156 182.988281 182.273438 183.097656 C 182.269531 183.246094 182.300781 183.375 182.371094 183.5 L 182.449219 183.628906 L 184.292969 182.53125 Z M 269.289062 177.824219 L 267.898438 173.675781 L 268.96875 173.3125 L 269.839844 175.914062 L 270.644531 175.644531 L 269.824219 173.230469 L 270.855469 172.894531 L 271.660156 175.296875 L 272.648438 174.980469 L 271.757812 172.300781 L 272.894531 171.914062 L 274.304688 176.144531 Z M 269.4375 169.375 L 269.378906 168.988281 C 269.34375 168.664062 269.265625 168.453125 269.144531 168.34375 C 269.242188 168.570312 269.1875 168.832031 269.003906 168.996094 C 268.898438 169.121094 268.863281 169.332031 268.90625 169.632812 L 268.953125 170.101562 Z M 267.378906 171.269531 L 267.0625 168.574219 C 267 167.992188 267.082031 167.53125 267.324219 167.207031 C 267.574219 166.882812 267.957031 166.6875 268.472656 166.628906 C 269 166.5625 269.4375 166.679688 269.773438 166.957031 C 270.101562 167.242188 270.3125 167.71875 270.390625 168.367188 L 270.488281 169.257812 L 272.4375 169.03125 L 272.628906 170.660156 Z M 267.195312 160.949219 L 267.363281 159.324219 L 270.503906 159.664062 C 270.109375 158.449219 270.597656 157.121094 271.6875 156.453125 C 272.773438 155.785156 274.179688 155.953125 275.082031 156.855469 C 275.984375 157.757812 276.152344 159.164062 275.484375 160.25 C 274.816406 161.339844 273.488281 161.828125 272.273438 161.433594 C 272.457031 161.667969 272.582031 161.890625 272.640625 162.132812 C 272.722656 162.449219 272.746094 162.839844 272.695312 163.285156 C 270.96875 165.855469 267.566406 166.679688 264.863281 165.179688 C 262.15625 163.683594 261.042969 160.363281 262.304688 157.539062 C 263.566406 154.714844 266.777344 153.324219 269.699219 154.339844 C 272.621094 155.351562 274.28125 158.433594 273.519531 161.433594 C 273.453125 161.730469 273.351562 161.976562 273.222656 162.167969 C 273.375 161.289062 274.105469 160.628906 274.996094 160.566406 C 275.886719 160.507812 276.699219 161.066406 276.960938 161.917969 C 277.226562 162.769531 276.871094 163.691406 276.105469 164.148438 C 275.335938 164.601562 274.359375 164.46875 273.738281 163.828125 C 273.390625 163.902344 273.09375 163.914062 272.832031 163.886719 L 269.707031 163.554688 L 269.875 161.929688 L 273.082031 162.277344 C 273.371094 162.304688 273.601562 162.25 273.78125 162.105469 C 273.960938 161.960938 274.058594 161.753906 274.09375 161.476562 C 274.125 161.1875 274.066406 160.964844 273.925781 160.792969 C 273.785156 160.613281 273.570312 160.515625 273.277344 160.480469 Z M 272.457031 156.503906 L 272.738281 155.722656 C 272.824219 155.457031 272.847656 155.25 272.789062 155.101562 C 275.199219 155.183594 277.089844 157.199219 277.007812 159.609375 C 276.929688 162.019531 274.910156 163.910156 272.5 163.828125 C 272.34375 163.777344 272.214844 163.785156 272.085938 163.863281 C 271.953125 163.945312 271.839844 164.113281 271.75 164.378906 L 271.472656 165.167969 Z M 270.492188 155.816406 L 270.730469 155.152344 C 270.8125 154.910156 270.835938 154.722656 270.773438 154.597656 C 270.730469 154.480469 270.628906 154.386719 270.46875 154.339844 C 273.089844 154.335938 275.21875 156.457031 275.222656 159.074219 C 275.226562 161.695312 273.105469 163.824219 270.484375 163.828125 C 270.371094 163.898438 270.273438 164.042969 270.195312 164.277344 L 269.949219 164.960938 Z M 267.996094 156.695312 L 269 153.796875 C 269.175781 153.316406 269.421875 152.996094 269.757812 152.8125 C 272.796875 185.105469 249.085938 213.75 216.792969 216.792969 C 184.5 219.835938 155.855469 196.121094 152.8125 163.828125 C 153.101562 163.945312 153.320312 164.121094 153.472656 164.378906 C 153.5625 164.546875 153.621094 164.769531 153.621094 165.03125 C 153.828125 164.699219 154.070312 164.492188 154.335938 164.402344 C 154.609375 164.304688 154.902344 164.308594 155.226562 164.421875 C 155.476562 164.507812 155.6875 164.652344 155.855469 164.839844 C 156.015625 165.039062 156.117188 165.261719 156.171875 165.507812 C 156.195312 165.667969 156.183594 165.882812 156.125 166.148438 C 156.042969 166.519531 155.996094 166.753906 155.953125 166.863281 L 155.023438 169.53125 Z M 270.691406 149.914062 L 271.546875 148.519531 L 274.953125 150.585938 L 276.277344 148.40625 L 277.390625 149.085938 L 275.226562 152.65625 Z M 274.183594 144.714844 L 275.238281 143.460938 L 279.273438 146.871094 L 278.21875 148.125 Z M 281.515625 141.871094 L 282.890625 141.28125 C 283.066406 141.652344 283.164062 142.003906 283.179688 142.347656 C 289.113281 142.085938 294.136719 146.679688 294.398438 152.609375 C 294.664062 158.542969 290.070312 163.5625 284.140625 163.828125 C 283.984375 164.132812 283.726562 164.429688 283.371094 164.738281 C 282.925781 165.101562 282.511719 165.339844 282.121094 165.445312 C 281.738281 165.542969 281.308594 165.519531 280.828125 165.367188 C 280.363281 165.214844 279.921875 164.882812 279.496094 164.382812 C 278.941406 163.707031 278.6875 163.042969 278.746094 162.390625 C 278.796875 161.726562 279.15625 161.128906 279.808594 160.582031 C 280.324219 160.152344 280.804688 159.929688 281.277344 159.894531 C 281.738281 159.847656 282.226562 159.988281 282.71875 160.296875 L 281.816406 161.46875 C 281.679688 161.378906 281.566406 161.320312 281.46875 161.296875 C 281.667969 161.578125 281.664062 161.953125 281.460938 162.226562 C 281.175781 162.46875 281.050781 162.765625 281.09375 163.121094 C 281.117188 163.386719 281.285156 163.695312 281.578125 164.0625 C 281.960938 164.511719 282.289062 164.765625 282.558594 164.816406 C 282.839844 164.875 283.101562 164.792969 283.347656 164.589844 C 283.585938 164.386719 283.714844 164.171875 283.722656 163.9375 C 283.726562 163.691406 283.660156 163.421875 283.503906 163.125 M 288.855469 159.949219 L 287.472656 158.519531 L 287.820312 160.480469 Z M 289.679688 160.816406 L 288.023438 161.65625 L 288.191406 162.554688 L 286.703125 163.3125 L 286.074219 157.695312 L 287.664062 156.882812 L 291.835938 160.695312 L 290.316406 161.472656 Z M 296.109375 155.304688 L 296.515625 158.160156 L 296.914062 158.101562 C 297.253906 158.058594 297.492188 157.984375 297.625 157.886719 C 297.757812 157.785156 297.84375 157.648438 297.898438 157.441406 C 297.957031 157.246094 297.957031 156.941406 297.898438 156.519531 C 297.820312 155.96875 297.671875 155.597656 297.464844 155.421875 C 297.253906 155.246094 296.9375 155.183594 296.515625 155.246094 Z M 294.332031 154.347656 L 296.734375 154.003906 C 297.207031 153.9375 297.589844 153.945312 297.898438 154.03125 C 298.105469 153.101562 298.960938 152.460938 299.914062 152.53125 C 300.863281 152.601562 301.617188 153.355469 301.6875 154.308594 C 301.757812 155.257812 301.117188 156.117188 300.1875 156.320312 L 300.1875 157.09375 C 300.273438 157.648438 300.273438 158.097656 300.183594 158.414062 C 299.316406 159.054688 298.113281 158.980469 297.328125 158.242188 C 296.546875 157.5 296.402344 156.304688 296.988281 155.402344 C 297.578125 154.496094 298.726562 154.144531 299.722656 154.558594 C 300.71875 154.972656 301.273438 156.042969 301.042969 157.09375 C 300.839844 157.332031 300.617188 157.507812 300.371094 157.609375 C 299.269531 159.238281 297.078125 159.710938 295.402344 158.675781 C 293.730469 157.640625 293.171875 155.46875 294.136719 153.757812 C 295.101562 152.042969 297.25 151.394531 299 152.292969 C 300.753906 153.191406 301.484375 155.308594 300.660156 157.09375 L 298.253906 157.433594 Z M 301.527344 153.324219 L 305.890625 153.644531 L 305.808594 154.773438 L 303.078125 154.566406 L 303.015625 155.40625 L 305.546875 155.59375 L 305.457031 156.664062 L 302.9375 156.484375 L 302.863281 157.515625 L 305.671875 157.726562 L 305.585938 158.917969 L 301.136719 158.589844 Z M 308.25 153.941406 L 309.820312 154.378906 L 308.734375 158.21875 L 311.1875 158.914062 L 310.828125 160.15625 L 306.804688 159.019531 Z M 317.171875 159.804688 L 317.507812 160.023438 C 317.769531 160.195312 317.988281 160.269531 318.148438 160.253906 C 318.238281 160.054688 318.449219 159.9375 318.664062 159.96875 C 318.878906 160 319.050781 160.167969 319.082031 160.386719 C 319.113281 160.601562 318.996094 160.8125 318.796875 160.902344 C 318.765625 160.746094 318.621094 160.589844 318.367188 160.421875 L 317.976562 160.160156 Z M 317.039062 157.019531 L 319.3125 158.519531 C 319.804688 158.84375 320.09375 159.207031 320.183594 159.601562 C 320.277344 160 320.183594 160.417969 319.890625 160.851562 C 319.605469 161.292969 319.238281 161.550781 318.800781 161.625 C 318.359375 161.695312 317.878906 161.558594 317.328125 161.195312 L 316.578125 160.699219 L 315.507812 162.335938 L 314.136719 161.429688 Z M 322.777344 165.082031 L 323.695312 163.320312 L 321.949219 164.265625 Z M 322.21875 166.132812 L 320.890625 164.828125 L 320.09375 165.265625 L 318.90625 164.101562 L 321.347656 162.972656 L 324.039062 161.726562 L 325.300781 162.980469 L 323.003906 168.148438 L 321.789062 166.941406 Z M 327.128906 168.425781 L 327.5 169.015625 C 327.546875 169.074219 327.625 169.1875 327.792969 169.34375 C 327.804688 169.109375 328 168.925781 328.234375 168.929688 C 328.46875 168.933594 328.65625 169.121094 328.660156 169.355469 C 328.664062 169.589844 328.480469 169.785156 328.246094 169.796875 C 328.386719 169.707031 328.464844 169.597656 328.488281 169.453125 C 328.507812 169.316406 328.4375 169.113281 328.273438 168.863281 L 327.894531 168.261719 Z M 323.59375 168.738281 L 328.050781 165.894531 L 329.511719 168.1875 C 329.785156 168.609375 329.957031 168.957031 330.039062 169.226562 C 329.710938 168.707031 329.796875 168.027344 330.242188 167.605469 C 330.691406 167.179688 331.375 167.132812 331.875 167.488281 C 332.378906 167.84375 332.558594 168.503906 332.308594 169.066406 C 332.054688 169.628906 331.441406 169.933594 330.839844 169.796875 C 330.734375 170.066406 330.535156 170.285156 330.257812 170.46875 C 330.003906 170.628906 329.761719 170.71875 329.511719 170.71875 C 329.273438 170.734375 329.03125 170.671875 328.792969 170.574219 C 329.207031 171.941406 328.5 173.394531 327.171875 173.914062 C 325.839844 174.4375 324.332031 173.847656 323.710938 172.5625 C 323.085938 171.277344 323.554688 169.726562 324.785156 169.003906 C 326.019531 168.28125 327.597656 168.625 328.417969 169.796875 C 328.464844 169.992188 328.492188 170.148438 328.488281 170.257812 C 328.710938 168.875 329.898438 167.847656 331.300781 167.832031 C 332.707031 167.8125 333.917969 168.804688 334.179688 170.183594 C 334.441406 171.5625 333.671875 172.929688 332.359375 173.425781 C 331.046875 173.917969 329.566406 173.398438 328.851562 172.191406 L 327.988281 173.683594 L 326.988281 172.125 L 327.886719 170.527344 C 328.007812 170.3125 328.066406 170.160156 328.066406 170.050781 C 328.070312 169.90625 328.046875 169.773438 327.953125 169.648438 L 327.882812 169.527344 L 326.070312 170.683594 Z M 329.839844 175.859375 L 331.425781 174.664062 L 329.445312 174.773438 Z M 328.878906 176.566406 L 328.242188 174.820312 L 327.34375 174.882812 L 326.765625 173.3125 L 332.414062 173.378906 L 333.027344 175.046875 L 328.738281 178.722656 L 328.148438 177.109375 Z M 331.410156 182.191406 L 332.496094 182.046875 L 332.8125 184.566406 L 330.574219 184.835938 C 330.199219 184.398438 329.910156 184.007812 329.753906 183.648438 C 329.582031 183.296875 329.472656 182.863281 329.410156 182.359375 C 329.328125 181.738281 329.371094 181.21875 329.542969 180.800781 C 329.699219 180.382812 329.980469 180.035156 330.371094 179.757812 C 330.765625 179.5 331.234375 179.324219 331.773438 179.261719 C 332.34375 179.183594 332.863281 179.242188 333.3125 179.429688 C 333.761719 179.609375 334.125 179.914062 334.40625 180.34375 C 334.625 180.679688 334.769531 181.144531 334.839844 181.75 C 334.917969 182.324219 334.917969 182.765625 334.84375 183.0625 C 335.09375 182.46875 335.683594 182.085938 336.328125 182.097656 C 336.972656 182.109375 337.546875 182.515625 337.777344 183.117188 C 338.007812 183.71875 337.847656 184.402344 337.375 184.839844 C 336.898438 185.28125 336.207031 185.386719 335.625 185.109375 L 335.148438 183.585938 C 335.335938 183.492188 335.476562 183.371094 335.558594 183.195312 C 335.644531 183.03125 335.667969 182.820312 335.644531 182.59375 C 335.585938 182.234375 335.441406 181.964844 335.171875 181.785156 C 334.894531 181.605469 334.488281 181.550781 333.953125 181.617188 C 333.382812 181.6875 333 181.847656 332.777344 182.085938 C 332.566406 182.332031 332.488281 182.652344 332.527344 183.03125 C 332.546875 183.210938 332.601562 183.378906 332.667969 183.535156 C 332.746094 183.699219 332.855469 183.867188 333.007812 184.078125 L 333.503906 184.007812 Z M 334.757812 190.117188 L 334.570312 191.738281 L 331.445312 191.386719 C 332.054688 190.261719 333.378906 189.734375 334.59375 190.128906 C 335.8125 190.523438 336.574219 191.726562 336.410156 192.996094 C 336.246094 194.261719 335.203125 195.234375 333.925781 195.304688 C 332.652344 195.378906 331.503906 194.53125 331.199219 193.292969 C 331.019531 193.0625 330.898438 192.832031 330.839844 192.597656 C 330.761719 192.261719 330.742188 191.882812 330.792969 191.4375 C 330.828125 191.183594 330.878906 190.902344 330.9375 190.605469 C 331.007812 190.304688 331.113281 190.0625 331.246094 189.871094 C 332.191406 228.914062 301.308594 261.324219 262.269531 262.269531 C 223.230469 263.214844 190.816406 232.332031 189.871094 193.292969 C 190.101562 193.148438 190.3125 193.058594 190.523438 193.023438 C 190.867188 192.957031 191.171875 192.933594 191.429688 192.972656 L 194.5625 193.332031 L 194.375 194.945312 L 191.171875 194.578125 C 190.882812 194.546875 190.652344 194.597656 190.46875 194.742188 C 190.292969 194.886719 190.1875 195.089844 190.160156 195.371094 C 190.128906 195.65625 190.179688 195.882812 190.324219 196.058594 C 190.460938 196.230469 190.675781 196.335938 190.964844 196.378906 Z M 329.890625 196.136719 L 331.882812 196.207031 L 330.273438 195.035156 Z M 328.707031 196.074219 L 329.3125 194.320312 L 328.574219 193.792969 L 329.121094 192.214844 L 333.46875 195.828125 L 332.871094 197.515625 L 327.238281 197.65625 L 327.792969 196.035156 Z M 331.628906 200.941406 L 330.707031 202.507812 L 328.625 202.511719 L 329.621094 204.34375 L 328.707031 205.886719 L 327.101562 202.554688 L 325.195312 201.433594 L 326.03125 200.019531 L 327.9375 201.152344 Z M 331.628906 200.941406 "/>
<path style="fill:none;stroke-width:1.475;stroke-linecap:butt;stroke-linejoin:miter;stroke:rgb(0%,0%,0%);stroke-opacity:1;stroke-miterlimit:10;" d="M 670.007812 330.007812 C 670.007812 368.695312 638.65625 400.046875 599.984375 400.046875 C 561.304688 400.046875 529.953125 368.695312 529.953125 330.007812 C 529.953125 291.34375 561.304688 259.992188 599.984375 259.992188 C 638.65625 259.992188 670.007812 291.34375 670.007812 330 Z M 670.007812 330.007812 " transform="matrix(0.5,0,0,0.5,0,0)"/>
<path style="fill:none;stroke-width:1.475;stroke-linecap:butt;stroke-linejoin:miter;stroke:rgb(0%,0%,0%);stroke-opacity:1;stroke-miterlimit:10;" d="M 652.09375 329.757812 C 652.09375 358.554688 628.773438 381.875 599.984375 381.875 C 571.203125 381.875 547.867188 358.554688 547.867188 329.757812 C 547.867188 300.984375 571.203125 277.648438 599.984375 277.648438 C 628.773438 277.648438 652.09375 300.984375 652.09375 329.757812 Z M 652.09375 329.757812 " transform="matrix(0.5,0,0,0.5,0,0)"/>
<path style="fill-rule:nonzero;fill:rgb(99.607843%,87.45098%,0%);fill-opacity:1;stroke-width:0.602;stroke-linecap:butt;stroke-linejoin:miter;stroke:rgb(0%,0%,0%);stroke-opacity:1;stroke-miterlimit:4;" d="M 599.992188 311.015625 L 604.367188 323.539062 L 617.609375 323.835938 L 607.054688 331.867188 L 610.890625 344.5625 L 599.992188 337.015625 L 589.078125 344.5625 L 592.898438 331.867188 L 582.328125 323.835938 L 595.601562 323.539062 Z M 599.992188 311.015625 " transform="matrix(0.5,0,0,0.5,0,0)"/>
<path style="fill-rule:nonzero;fill:rgb(0%,60.784314%,22.745098%);fill-opacity:1;stroke-width:0.754;stroke-linecap:butt;stroke-linejoin:miter;stroke:rgb(0%,0%,0%);stroke-opacity:1;stroke-miterlimit:4;" d="M 624.054688 365.726562 C 623.609375 366.101562 621.828125 366.296875 621.359375 366.375 C 620.882812 366.4375 619.015625 366.460938 618.226562 366.484375 C 617.796875 366.515625 616.953125 366.640625 616.523438 366.640625 C 612.695312 366.203125 622.742188 366.265625 624.054688 365.726562 M 614.023438 362.765625 C 614.273438 362.320312 615.523438 359.53125 615.976562 358.734375 C 616.4375 357.953125 617.476562 355.882812 618.09375 355.015625 C 618.414062 354.546875 619.664062 353.1875 619.960938 353.796875 C 617.789062 355.679688 616.070312 358.960938 615.15625 361.171875 C 615.039062 361.40625 614.328125 362.632812 614.0625 362.953125 C 613.804688 363.273438 613.914062 363.867188 613.507812 363.914062 C 613.085938 363.96875 613.382812 364.046875 613.382812 364.046875 C 613.382812 364.046875 613.742188 363.242188 614.023438 362.765625 Z M 628.453125 364.90625 C 628.453125 364.90625 626.71875 364.640625 625.648438 364.265625 C 624.578125 363.90625 622.789062 363.632812 621.257812 363.664062 C 619.742188 363.6875 618.359375 364.140625 617.125 364.617188 C 615.890625 365.070312 614.296875 365.109375 614.296875 365.109375 C 614.296875 365.109375 613.398438 365.25 613.820312 365.046875 C 614.21875 364.84375 615.617188 363.757812 615.617188 363.757812 L 616.523438 362.515625 C 616.78125 362.445312 621.359375 356.445312 620.859375 354.828125 C 621.5625 353.640625 622.382812 351.523438 622.070312 351.15625 C 621.921875 351.007812 618.507812 352.242188 617.757812 352.921875 C 616.890625 353.671875 616.28125 355.234375 616.023438 356.132812 C 615.765625 357.03125 614.453125 357.765625 614.453125 357.765625 C 613.382812 358.53125 612.609375 360.96875 612.25 362.953125 C 611.882812 364.921875 607.039062 366.007812 607.039062 366.007812 C 607.039062 366.007812 605.695312 366.507812 606.890625 366.890625 C 607.09375 366.945312 607.625 367.84375 608.054688 367.859375 C 608.640625 367.929688 611.648438 366.640625 612.117188 366.742188 C 510.84375 434.5 373.8125 407.328125 306.054688 306.054688 C 238.296875 204.78125 265.46875 67.757812 366.742188 0 C 367.890625 0.390625 368.835938 0.585938 369.640625 0.289062 C 370.453125 0 371.617188 0.109375 372.484375 0.28125 C 373.34375 0.46875 374.304688 0.390625 374.859375 0.21875 C 375.453125 0.0390625 377.007812 -0.828125 377.007812 -0.828125 C 377.007812 -0.828125 378.695312 -1.554688 379.671875 -2.015625 C 380.648438 -2.46875 380.054688 -2.671875 380.054688 -2.671875 " transform="matrix(0.5,0,0,0.5,0,0)"/>
<path style="fill-rule:nonzero;fill:rgb(0%,60.784314%,22.745098%);fill-opacity:1;stroke-width:0.602;stroke-linecap:butt;stroke-linejoin:miter;stroke:rgb(0%,0%,0%);stroke-opacity:1;stroke-miterlimit:4;" d="M 615.296875 370.742188 C 615.296875 370.742188 608.632812 367.257812 608.273438 367.171875 C 608.0625 367.148438 605.25 365.59375 603.96875 365.195312 C 603.03125 364.890625 601.75 364.8125 601.289062 364.84375 C 600.195312 364.921875 598.398438 365.40625 598.398438 365.40625 L 600.054688 366.085938 C 600.054688 366.085938 601.609375 366.84375 602.367188 367.257812 C 603.453125 367.828125 603.507812 368.53125 603.507812 368.53125 L 609.539062 371.179688 L 610.765625 372.0625 C 610.765625 372.0625 611.882812 370.523438 615.296875 370.742188 " transform="matrix(0.5,0,0,0.5,0,0)"/>
<path style="fill-rule:nonzero;fill:rgb(0%,60.784314%,22.745098%);fill-opacity:1;stroke-width:0.794;stroke-linecap:butt;stroke-linejoin:miter;stroke:rgb(0%,0%,0%);stroke-opacity:1;stroke-miterlimit:4;" d="M 622 356.90625 C 624.101562 355.03125 625.125 352.375 626.851562 350.90625 C 627.125 351.101562 627.125 351.4375 626.789062 352.023438 C 626.460938 352.609375 626.023438 352.804688 625.835938 353.109375 C 625.484375 353.578125 624.4375 354.453125 624.148438 354.976562 C 623.898438 355.46875 623.570312 356.164062 622.65625 356.695312 C 621.75 357.234375 622.03125 358.101562 621.953125 358.46875 C 621.882812 358.867188 620.484375 359.867188 619.804688 361.109375 C 619.679688 362.40625 619.617188 361.859375 618.835938 362.320312 C 620.257812 360.171875 621.015625 358.78125 622 356.898438 M 617.289062 362.820312 C 617.15625 363.101562 613.023438 365.445312 614.3125 365.101562 C 615.601562 364.765625 619.421875 363.382812 620.507812 362.898438 C 621.828125 362.320312 622.625 361.109375 623.625 360.117188 C 624.640625 359.109375 627.789062 356.101562 628.328125 354.945312 C 628.867188 353.75 629.351562 352.085938 627.21875 348.359375 C 627.21875 348.359375 626.882812 349.070312 626.085938 349.773438 C 625.304688 350.484375 624.132812 351.273438 624.132812 351.273438 L 622.765625 352.5625 C 622.765625 352.5625 617.929688 361.4375 617.289062 362.820312 " transform="matrix(0.5,0,0,0.5,0,0)"/>
<path style="fill-rule:nonzero;fill:rgb(0%,60.784314%,22.745098%);fill-opacity:1;stroke-width:0.754;stroke-linecap:butt;stroke-linejoin:miter;stroke:rgb(0%,0%,0%);stroke-opacity:1;stroke-miterlimit:4;" d="M 634.085938 359.695312 C 634.085938 359.695312 631.4375 359.460938 631.210938 359.460938 C 630.960938 359.460938 629.507812 359.257812 627.398438 359.257812 C 625.3125 359.257812 624.53125 359.984375 623.984375 360.5625 C 623.390625 361.21875 621.742188 362.726562 621.742188 362.726562 L 622.632812 362.648438 C 624.742188 361 626.390625 361.601562 627.046875 361.554688 C 627.734375 361.53125 628.5625 361.601562 630.679688 360.851562 C 632.828125 360.09375 632.703125 360.804688 632.46875 360.875 C 532.8125 360.695312 452.171875 279.765625 452.351562 180.117188 C 452.53125 80.460938 533.460938 -0.179688 633.109375 0 C 631.515625 0.0859375 630.117188 0.398438 629.484375 0.398438 C 628.859375 0.398438 624.195312 1.671875 624.195312 1.671875 C 624.195312 1.671875 629.234375 1.96875 629.78125 2.148438 C 630.320312 2.367188 631.171875 2.265625 631.867188 1.929688 C 633.804688 1.039062 634.671875 0.867188 635.46875 0.6875 C 636.265625 0.53125 637.21875 -0.0078125 637.21875 -0.0078125 C 637.21875 -0.0078125 637.726562 -0.328125 638.195312 -1.179688 C 638.679688 -2.0625 637.921875 -1.820312 637.921875 -1.820312 M 640.398438 -15.632812 C 640.710938 -16.421875 641.507812 -18.273438 642.351562 -19 C 642.867188 -19.453125 643.75 -19.65625 644.21875 -19.859375 C 644.421875 -19.929688 645.867188 -20 644.0625 -19.5 C 643.3125 -19.296875 642.296875 -18.859375 641.851562 -18.101562 C 641.21875 -16.351562 640.664062 -14.820312 639.492188 -13.695312 C 638.625 -12.796875 638.078125 -11.617188 638.078125 -11.617188 L 637.15625 -11.296875 C 638.851562 -12.328125 639.585938 -14.257812 640.398438 -15.632812 Z M 648.585938 -16.617188 C 647.625 -16.296875 647.28125 -16.03125 647.28125 -16.03125 C 645.125 -15.382812 644.242188 -14.03125 643.296875 -12.921875 C 642.8125 -12.34375 642.140625 -11.914062 639.859375 -10.9375 C 637.773438 -10.039062 636.164062 -8.65625 636.125 -8.65625 C 636.125 -8.65625 635.46875 -8.523438 635.59375 -8.203125 C 635.640625 -8.054688 636.203125 -8.171875 636.203125 -8.171875 C 636.203125 -8.171875 640.492188 -8.78125 642.28125 -9.875 C 643.421875 -10.585938 644.070312 -11.109375 645.15625 -12.78125 C 645.640625 -13.523438 646.179688 -14.914062 646.203125 -14.015625 C 646.289062 -11.648438 642.601562 -9.34375 641 -8.632812 C 640.140625 -8.265625 638.992188 -8.117188 637.492188 -7.867188 C 636.015625 -7.601562 635.109375 -7.679688 635.21875 -8.007812 C 635.375 -8.476562 635.546875 -8.578125 635.9375 -9.039062 C 636.640625 -9.882812 638.34375 -10.179688 639.601562 -10.773438 C 641.085938 -11.4375 642.492188 -12.414062 643.195312 -13.25 C 643.921875 -14.09375 644.171875 -14.40625 644.367188 -15.117188 C 644.914062 -16.992188 644.945312 -18.023438 645.453125 -18.695312 C 647.265625 -20.921875 647.53125 -21.640625 647.625 -22.640625 C 647.640625 -22.867188 646.679688 -22.109375 646.179688 -21.835938 C 645.203125 -21.257812 644.84375 -21.257812 642.84375 -20.734375 C 640.8125 -20.226562 640.859375 -18.921875 640.546875 -18.304688 C 640.453125 -18.054688 639.632812 -17.03125 639.234375 -16.835938 C 638.84375 -16.640625 637.882812 -15.242188 637.523438 -14.429688 C 637.257812 -13.828125 636.789062 -13.398438 636.414062 -13.445312 C 636.015625 -13.523438 637.171875 -17.84375 637.421875 -18.5625 C 637.703125 -19.273438 637.757812 -20.65625 637.757812 -21.125 C 637.757812 -21.570312 637.773438 -22.75 636.984375 -22.882812 C 636.203125 -23.015625 636.171875 -24.085938 636.171875 -24.085938 C 634.296875 -22.460938 635.34375 -19.601562 635.546875 -17.90625 C 635.742188 -16.21875 635.15625 -13.109375 635.15625 -13.109375 C 636.96875 -12.335938 635.546875 -10.132812 634.984375 -9.421875 C 634.390625 -8.695312 633.265625 -8.5625 632.757812 -7.929688 C 632.226562 -7.273438 628.429688 -1.984375 628.429688 -1.984375 L 633.15625 -3.320312 C 633.15625 -3.320312 633.59375 -3.242188 632.890625 -3.78125 C 632.171875 -4.289062 633.117188 -6.273438 633.726562 -6.757812 C 634.890625 -7.671875 636.453125 -7.007812 636.453125 -7.007812 C 636.453125 -7.007812 638.648438 -6.671875 641.328125 -7.742188 C 643.578125 -8.625 644.539062 -10.0625 645.601562 -11.140625 C 646.179688 -11.726562 647.242188 -13.679688 647.90625 -14.835938 C 648.3125 -15.5 649.03125 -16.773438 648.585938 -16.617188 " transform="matrix(0.5,0,0,0.5,0,0)"/>
<path style="fill-rule:nonzero;fill:rgb(0%,60.784314%,22.745098%);fill-opacity:1;stroke-width:0.84;stroke-linecap:butt;stroke-linejoin:miter;stroke:rgb(0%,0%,0%);stroke-opacity:1;stroke-miterlimit:4;" d="M 631.359375 357.59375 C 631.71875 357.445312 631.773438 357.382812 632.4375 356.664062 C 633.085938 355.945312 632.515625 354.726562 631.507812 354.773438 C 631.015625 354.8125 630.492188 354.695312 629.523438 355.992188 C 628.59375 357.296875 629.96875 357.773438 630.492188 357.828125 C 630.71875 357.84375 631.015625 357.742188 631.359375 357.59375 " transform="matrix(0.5,0,0,0.5,0,0)"/>
<path style="fill-rule:nonzero;fill:rgb(0%,60.784314%,22.745098%);fill-opacity:1;stroke-width:0.858;stroke-linecap:butt;stroke-linejoin:miter;stroke:rgb(0%,0%,0%);stroke-opacity:1;stroke-miterlimit:4;" d="M 628.921875 349.359375 C 628.289062 350.40625 627.960938 351.609375 628.453125 351.984375 C 628.5625 352.046875 628.992188 352.429688 629.367188 352.429688 C 629.726562 352.429688 630.757812 351.9375 631.335938 351.03125 C 631.929688 350.15625 632.40625 349.195312 631.203125 348.59375 C 630.117188 348.054688 629.367188 348.5625 628.921875 349.359375 " transform="matrix(0.5,0,0,0.5,0,0)"/>
<path style="fill-rule:nonzero;fill:rgb(0%,60.784314%,22.745098%);fill-opacity:1;stroke-width:0.754;stroke-linecap:butt;stroke-linejoin:miter;stroke:rgb(0%,0%,0%);stroke-opacity:1;stroke-miterlimit:4;" d="M 632.492188 336.578125 C 632.492188 336.578125 632.59375 336.421875 632.179688 335.992188 C 631.523438 335.320312 630.710938 334.132812 630.710938 334.132812 C 629.414062 334.84375 628.976562 336.28125 628.976562 336.851562 C 628.976562 337.445312 629.203125 338.734375 629 340.046875 C 628.929688 340.492188 628.859375 341 628.21875 342.625 C 627.5625 344.234375 628.3125 345.703125 628.453125 346.226562 C 628.570312 346.742188 629.101562 348.34375 629.101562 348.34375 C 629.101562 348.34375 629.609375 348.023438 629.78125 347.984375 C 629.984375 347.929688 630.679688 347.960938 630.679688 347.960938 C 630.679688 347.960938 631.460938 346.546875 631.484375 345.757812 C 631.5 345.179688 631.40625 344.195312 631.132812 342.6875 C 630.75 340.492188 630.773438 339.867188 631.039062 338.640625 C 631.296875 337.398438 632.492188 336.578125 632.492188 336.578125 " transform="matrix(0.5,0,0,0.5,0,0)"/>
<path style="fill-rule:nonzero;fill:rgb(0%,60.784314%,22.745098%);fill-opacity:1;stroke-width:0.828;stroke-linecap:butt;stroke-linejoin:miter;stroke:rgb(0%,0%,0%);stroke-opacity:1;stroke-miterlimit:4;" d="M 634.429688 338.773438 C 634.429688 338.773438 635.164062 338.59375 635.539062 337.929688 C 636.007812 337.117188 635.882812 336.265625 635.882812 336.265625 C 634.742188 334.054688 633.203125 335.835938 633.203125 335.835938 C 631.828125 338.648438 634.429688 338.773438 634.429688 338.773438 " transform="matrix(0.5,0,0,0.5,0,0)"/>
<path style="fill-rule:nonzero;fill:rgb(0%,60.784314%,22.745098%);fill-opacity:1;stroke-width:0.984;stroke-linecap:butt;stroke-linejoin:miter;stroke:rgb(0%,0%,0%);stroke-opacity:1;stroke-miterlimit:4;" d="M 638.3125 334.710938 C 636.609375 334.804688 635.773438 337.867188 635.773438 337.867188 C 635.773438 337.867188 635.5 338.617188 634.585938 339.203125 C 633.625 339.804688 634.195312 340.664062 634.195312 342.1875 C 634.195312 343.710938 633.132812 346.40625 633.132812 346.40625 L 632.734375 347.320312 C 632.734375 347.320312 632.773438 348.007812 633.390625 346.757812 C 634.445312 344.664062 635.609375 345.171875 636.039062 342.914062 C 636.320312 341.242188 639.09375 340.703125 639.09375 340.703125 L 638.3125 340.5625 C 635.429688 339.203125 638.484375 335.828125 638.976562 335.234375 C 639.5 334.640625 640 334.640625 638.3125 334.710938 " transform="matrix(0.5,0,0,0.5,0,0)"/>
<path style="fill-rule:nonzero;fill:rgb(0%,60.784314%,22.745098%);fill-opacity:1;stroke-width:0.838;stroke-linecap:butt;stroke-linejoin:miter;stroke:rgb(0%,0%,0%);stroke-opacity:1;stroke-miterlimit:4;" d="M 637.828125 338.34375 C 637.046875 340.015625 639.265625 340.101562 639.78125 339.804688 C 639.984375 339.6875 640.453125 339.132812 640.453125 339.132812 C 641.359375 337.835938 640.53125 336.960938 640.0625 336.835938 C 639.609375 336.6875 638.648438 336.570312 637.828125 338.34375 " transform="matrix(0.5,0,0,0.5,0,0)"/>
<path style="fill-rule:nonzero;fill:rgb(0%,60.784314%,22.745098%);fill-opacity:1;stroke-width:0.754;stroke-linecap:butt;stroke-linejoin:miter;stroke:rgb(0%,0%,0%);stroke-opacity:1;stroke-miterlimit:4;" d="M 633.609375 331.851562 C 634.195312 332.9375 635.820312 335.960938 636.203125 335.773438 C 636.445312 335.65625 636.257812 335.03125 636.257812 335.03125 C 636.257812 335.03125 636.203125 334.21875 635.9375 333.226562 C 635.679688 332.234375 635.742188 330.960938 635.226562 330.140625 C 634.71875 329.328125 633.507812 328.359375 633.03125 327.070312 C 632.5625 325.773438 632.929688 323.328125 632.96875 323.023438 C 633.023438 322.742188 633.164062 322.929688 632.914062 322.640625 C 632.65625 322.320312 630.601562 321.226562 630.601562 321.226562 C 630.601562 321.226562 630.71875 322.023438 630.671875 323.46875 C 630.648438 323.820312 630.554688 324.226562 630.5 324.835938 C 630.453125 325.414062 630.796875 326.140625 631.640625 327.804688 C 632.625 329.734375 633.09375 330.914062 633.609375 331.851562 M 645.945312 317.492188 C 645.945312 317.492188 645.351562 318.476562 645.140625 318.695312 C 644.921875 318.914062 641.570312 321.796875 641.382812 321.914062 C 641.21875 322.046875 639.46875 322.601562 637.875 326.90625 C 636.28125 331.195312 636.96875 335.210938 636.96875 335.210938 L 637.742188 335.109375 L 637.875 334.695312 C 637.875 334.695312 638.140625 333.265625 638.335938 332.1875 C 638.5625 331.125 639.757812 329.632812 640.546875 328.539062 C 641.304688 327.460938 641.914062 325.914062 641.914062 325.914062 C 642.8125 324.109375 643.242188 322.484375 644.132812 321.226562 C 644.164062 322.726562 638.453125 331.96875 637.84375 335.109375 L 639.53125 334.851562 C 640.882812 333.617188 642.65625 331.023438 643.851562 329.351562 C 645.054688 327.679688 645.570312 325.054688 645.789062 323.890625 C 646 322.742188 645.945312 317.492188 645.945312 317.492188 " transform="matrix(0.5,0,0,0.5,0,0)"/>
<path style="fill-rule:nonzero;fill:rgb(0%,60.784314%,22.745098%);fill-opacity:1;stroke-width:0.754;stroke-linecap:butt;stroke-linejoin:miter;stroke:rgb(0%,0%,0%);stroke-opacity:1;stroke-miterlimit:4;" d="M 634.5625 318.445312 C 633.695312 317.640625 633.023438 317.40625 633.023438 317.40625 C 633.023438 317.40625 633.234375 318.96875 633.234375 319.921875 C 633.234375 320.882812 633.3125 322.484375 633.265625 323.34375 C 633.234375 324.195312 632.804688 325.617188 633.414062 327 C 634.039062 328.367188 634.734375 329.0625 635.234375 329.921875 C 635.679688 330.765625 636.507812 335.140625 636.507812 335.140625 C 636.507812 335.140625 636.203125 329.226562 636.46875 327.554688 C 636.703125 325.90625 636.78125 323.34375 636.421875 322.0625 C 636.03125 320.773438 635.398438 319.257812 634.5625 318.445312 M 638.5 312.664062 C 638.765625 312.15625 639.367188 311.117188 639.625 309.523438 C 639.71875 308.851562 639.78125 307.75 639.757812 306.992188 C 639.734375 306.484375 639.539062 305.609375 639.757812 305.546875 C 639.953125 305.5 639.789062 305.820312 639.898438 306.570312 C 639.953125 306.84375 639.773438 307.578125 639.734375 308.53125 C 639.695312 309.289062 639.664062 309.921875 639.320312 310.945312 C 639.03125 311.851562 639.296875 312.859375 639.117188 313.140625 C 638.921875 313.421875 638.398438 314.507812 638.398438 314.507812 C 638.398438 314.507812 638.078125 315.382812 638.132812 316.179688 C 638.164062 317 638.210938 317.882812 638.210938 317.882812 C 638.210938 317.882812 638.59375 317.179688 639.4375 317.0625 C 639.4375 317.0625 639.625 315.695312 639.625 315.265625 C 639.625 314.835938 640.171875 312.039062 640.453125 311.179688 C 640.835938 309.929688 641.101562 307.742188 640.5 305.210938 C 640.328125 304.523438 640.210938 302.382812 640.210938 302.382812 C 640.210938 302.382812 639.398438 303.023438 638.921875 305.46875 C 638.773438 306.21875 639.085938 308.210938 638.960938 310.335938 C 638.914062 311.507812 637.789062 316.257812 637.640625 316.554688 " transform="matrix(0.5,0,0,0.5,0,0)"/>
<path style="fill-rule:nonzero;fill:rgb(0%,60.784314%,22.745098%);fill-opacity:1;stroke-width:0.754;stroke-linecap:butt;stroke-linejoin:miter;stroke:rgb(0%,0%,0%);stroke-opacity:1;stroke-miterlimit:4;" d="M 638.5 312.664062 C 638.460938 312.734375 638.445312 312.765625 638.445312 312.765625 C 638.445312 312.765625 638.484375 312.734375 638.5 312.664062 " transform="matrix(0.5,0,0,0.5,0,0)"/>
<path style="fill-rule:nonzero;fill:rgb(0%,60.784314%,22.745098%);fill-opacity:1;stroke-width:0.754;stroke-linecap:butt;stroke-linejoin:miter;stroke:rgb(0%,0%,0%);stroke-opacity:1;stroke-miterlimit:4;" d="M 635.320312 300.335938 C 635.75 300.335938 635.75 300.804688 635.65625 301.171875 C 635.59375 301.554688 635.601562 302.257812 635.601562 302.398438 C 635.601562 302.570312 635.78125 303.570312 635.929688 304.101562 C 636.078125 304.640625 636.351562 304.8125 636.234375 305.890625 C 636.15625 306.578125 635.453125 307.375 635.703125 308.53125 C 635.828125 309.140625 636.265625 309.78125 636.484375 310.304688 C 636.664062 310.671875 636.5625 311.5625 636.617188 312.289062 C 636.632812 313 637.023438 313.476562 637.023438 313.476562 C 637.023438 313.476562 636.539062 314.382812 636.382812 313.25 C 636.203125 311.953125 636.148438 311.375 635.898438 310.789062 C 635.492188 309.820312 635.117188 308.09375 635.75 306.757812 C 635.859375 306.492188 635.9375 306.015625 635.9375 305.445312 C 635.9375 304.867188 635.585938 303.875 635.515625 303.265625 C 635.453125 302.78125 635.492188 301.75 635.492188 301.382812 M 633.226562 306.820312 C 633.328125 307.554688 633.570312 307.976562 634.398438 309.570312 C 634.648438 310.09375 635.226562 311.4375 635.320312 311.867188 C 635.421875 312.296875 635.507812 312.8125 635.507812 312.9375 C 635.507812 313.078125 635.601562 314.085938 635.601562 314.085938 L 635.601562 314.507812 C 635.601562 314.507812 633.304688 313.171875 632.304688 312.453125 C 631.304688 311.734375 630.171875 310.75 629.445312 310.148438 C 628.617188 309.476562 626.65625 307.148438 626.632812 305.289062 L 625.734375 304.46875 C 625.734375 304.46875 625.046875 308.609375 628.289062 311.289062 C 629.226562 312.054688 630.242188 312.898438 632.429688 313.890625 C 634.609375 314.898438 634.328125 315.796875 635.234375 317.734375 C 636.132812 319.679688 636.695312 320.796875 636.804688 321.351562 C 636.882812 321.9375 636.5625 330.203125 636.5625 330.203125 L 636.640625 330.953125 C 636.640625 330.953125 638.632812 323.296875 639.59375 322.4375 C 639.59375 322.4375 637.6875 322.148438 637.84375 319.148438 L 637.507812 317.179688 C 637.507812 317.179688 637.125 314.804688 637.84375 313.328125 C 637.84375 313.328125 638.6875 310.632812 638.398438 308.296875 C 638.21875 306.898438 638.15625 306.484375 637.984375 305.140625 C 637.726562 303.0625 636.890625 300.085938 636.796875 299.726562 C 636.515625 298.679688 636.414062 298.523438 636.078125 297.695312 C 635.984375 297.398438 635.796875 296.4375 635.492188 296.421875 C 635.3125 296.414062 635.039062 297.664062 635.039062 297.664062 C 635.039062 297.664062 634.640625 299.023438 634.554688 299.398438 C 634.296875 300.492188 633.6875 301.421875 633.414062 303.890625 C 633.359375 304.335938 633.3125 305.546875 633.257812 305.703125 C 633.226562 305.84375 633.171875 306.546875 633.226562 306.820312 " transform="matrix(0.5,0,0,0.5,0,0)"/>
<path style="fill-rule:nonzero;fill:rgb(0%,60.784314%,22.745098%);fill-opacity:1;stroke-width:0.754;stroke-linecap:butt;stroke-linejoin:miter;stroke:rgb(0%,0%,0%);stroke-opacity:1;stroke-miterlimit:4;" d="M 634.929688 317.273438 C 634.929688 317.273438 634.601562 316.53125 634.257812 316.15625 C 633.578125 315.351562 632.664062 314.671875 630.054688 313.398438 C 627.460938 312.101562 626.773438 309.976562 625.453125 309.101562 C 624.84375 308.679688 623.671875 308.484375 623.671875 308.484375 C 623.671875 308.484375 624.820312 310.078125 625.101562 310.625 C 625.453125 311.320312 625.53125 311.804688 626.96875 313.132812 C 628.382812 314.46875 630.117188 314.9375 631.234375 315.273438 C 632.8125 315.757812 634.929688 317.273438 634.929688 317.273438 M 626.75 304.984375 C 626.820312 305.195312 627.484375 307.476562 628.890625 309.257812 C 631.046875 311.96875 635.1875 313.914062 635.1875 313.914062 C 634.796875 312.21875 634.125 310.265625 633.585938 309.398438 C 631.703125 306.359375 626.734375 304.867188 626.734375 304.867188 C 626.734375 304.867188 626.648438 304.757812 626.75 304.984375 M 632.6875 306.265625 C 633.796875 303.820312 630.46875 301.492188 629.53125 299.796875 C 629.882812 299.515625 630.296875 300.242188 630.671875 300.726562 C 631.21875 301.445312 632.75 303.546875 632.75 303.546875 L 633.226562 301.3125 L 629.265625 297.710938 C 629.21875 298.234375 627.992188 298.664062 627.992188 298.664062 C 627.398438 302 632.6875 306.265625 632.6875 306.265625 " transform="matrix(0.5,0,0,0.5,0,0)"/>
<path style="fill-rule:nonzero;fill:rgb(0%,60.784314%,22.745098%);fill-opacity:1;stroke-width:0.754;stroke-linecap:butt;stroke-linejoin:miter;stroke:rgb(0%,0%,0%);stroke-opacity:1;stroke-miterlimit:4;" d="M 625.789062 300.609375 C 624.828125 301.039062 624.492188 301.039062 624.492188 301.039062 L 625.023438 302.453125 L 625.335938 302.835938 C 625.335938 302.835938 626.578125 304.632812 627.304688 304.859375 C 627.609375 304.96875 628.742188 305.171875 629.875 305.65625 C 631.304688 306.265625 633.640625 308.304688 633.640625 308.304688 C 633.640625 308.304688 629.757812 303.929688 628.273438 300.640625 L 627.765625 298.75 L 626.359375 298.84375 C 626.359375 298.84375 626.75 300.171875 625.789062 300.609375 " transform="matrix(0.5,0,0,0.5,0,0)"/>
<path style="fill-rule:nonzero;fill:rgb(0%,60.784314%,22.745098%);fill-opacity:1;stroke-width:0.754;stroke-linecap:butt;stroke-linejoin:miter;stroke:rgb(0%,0%,0%);stroke-opacity:1;stroke-miterlimit:4;" d="M 611.25 297.8125 C 529.015625 466.601562 325.515625 536.765625 156.71875 454.53125 C -12.070312 372.289062 -82.234375 168.789062 0 0 C 0.859375 0.515625 3.328125 1.96875 5.171875 2.320312 C 5.609375 2.390625 7.929688 2.679688 7.929688 2.679688 C 8.023438 1.664062 9.125 1.578125 9.125 1.578125 L 5.835938 1.21875 C 3.1875 1.015625 1.171875 -0.0859375 -0.398438 -1.859375 C 1.703125 -0.585938 4.734375 1.421875 7.1875 1.320312 C 17.257812 0.328125 4.148438 0.078125 3.015625 -0.648438 C 1.804688 -1.398438 0.78125 -2.632812 0.78125 -2.632812 L -2.171875 -2.765625 C -2.171875 -2.765625 -3.625 -2.851562 -2.109375 -1.5625 " transform="matrix(0.5,0,0,0.5,0,0)"/>
<path style="fill-rule:nonzero;fill:rgb(0%,60.784314%,22.745098%);fill-opacity:1;stroke-width:0.754;stroke-linecap:butt;stroke-linejoin:miter;stroke:rgb(0%,0%,0%);stroke-opacity:1;stroke-miterlimit:4;" d="M 623.109375 303.546875 C 623.765625 303.5 624.21875 303.375 624.367188 302.664062 C 624.5 301.867188 624.195312 301.28125 623.234375 301.078125 C 622.703125 300.945312 621.765625 300.914062 621.382812 301.867188 C 620.96875 302.835938 622.484375 303.460938 622.484375 303.460938 C 622.484375 303.460938 622.773438 303.585938 623.109375 303.546875 M 624.242188 297.773438 C 623.390625 297.773438 623.101562 298.46875 623.28125 299.820312 C 623.507812 301.1875 625.601562 300.59375 625.601562 300.59375 L 625.984375 300.390625 C 625.984375 300.390625 626.273438 300.171875 626.117188 299.085938 C 625.96875 297.96875 625.101562 297.773438 624.242188 297.773438 M 627.671875 298.726562 L 627.632812 298.726562 C 627.617188 298.742188 627.671875 298.726562 627.671875 298.726562 " transform="matrix(0.5,0,0,0.5,0,0)"/>
<path style="fill-rule:nonzero;fill:rgb(0%,60.784314%,22.745098%);fill-opacity:1;stroke-width:0.754;stroke-linecap:butt;stroke-linejoin:miter;stroke:rgb(0%,0%,0%);stroke-opacity:1;stroke-miterlimit:4;" d="M 627.632812 298.726562 C 627.65625 298.71875 627.71875 298.6875 627.9375 298.625 C 628.375 298.460938 628.8125 297.414062 628.8125 297.414062 C 629.039062 296 628.023438 295.648438 628.023438 295.648438 C 626.320312 295.3125 626.273438 296.8125 626.273438 296.8125 C 625.804688 298.757812 627.382812 298.742188 627.632812 298.726562 M 620.039062 292.03125 C 620.132812 292.679688 621.054688 293.617188 621.195312 293.78125 C 621.367188 293.921875 622.539062 295.148438 622.9375 295.695312 C 623.335938 296.25 624.65625 298.742188 624.65625 298.742188 C 624.65625 298.742188 624.882812 298.703125 624.984375 298.515625 C 625.210938 298.125 624.101562 295.109375 623.984375 294.898438 C 623.578125 293.984375 622.914062 293.296875 622.242188 292.578125 C 622.085938 292.484375 621.53125 291.773438 620.929688 291.015625 C 622.125 292.546875 625.179688 296.882812 626.085938 298.8125 C 626.085938 298.8125 625.976562 296.757812 625.859375 295.648438 C 625.484375 292.429688 624.640625 291.4375 624.375 290.96875 C 623.898438 290.101562 622.695312 289.25 621.828125 288.953125 C 620.96875 288.640625 619.945312 288.210938 618.859375 287.867188 C 617.726562 287.523438 618.59375 288.539062 619.015625 289.414062 C 619.53125 290.445312 619.945312 291.375 620.039062 292.03125 " transform="matrix(0.5,0,0,0.5,0,0)"/>
<path style="fill-rule:nonzero;fill:rgb(0%,60.784314%,22.745098%);fill-opacity:1;stroke-width:0.754;stroke-linecap:butt;stroke-linejoin:miter;stroke:rgb(0%,0%,0%);stroke-opacity:1;stroke-miterlimit:4;" d="M 615.835938 297.328125 C 616.945312 298.273438 617.445312 298.929688 619.757812 299.265625 C 622.078125 299.632812 622.28125 299.476562 622.28125 299.476562 C 622.28125 299.476562 623.484375 298.898438 622.875 298.382812 C 619.453125 296.882812 616.210938 295.09375 614.570312 293.078125 C 614.570312 293.078125 614.851562 292.804688 616.039062 293.984375 C 616.726562 294.6875 617.1875 295.03125 617.609375 295.359375 C 618.851562 296.226562 619.390625 296.476562 620.632812 297.15625 C 621.296875 297.515625 622.945312 297.898438 622.945312 297.898438 C 622.945312 297.898438 623.179688 297.398438 623.390625 297.34375 C 623.59375 297.296875 623.265625 296.507812 621.828125 295.351562 C 540.265625 295.976562 473.640625 230.367188 473.015625 148.8125 C 472.382812 67.257812 537.992188 0.625 619.546875 0 C 619.546875 0 617.851562 -0.375 616.007812 -0.679688 C 614.632812 -0.898438 612.054688 -2.898438 612.101562 -2.359375 C 612.148438 -1.796875 612.484375 -0.0625 613.179688 1.046875 C 613.882812 2.148438 614.546875 3.289062 615.65625 4.257812 " transform="matrix(0.5,0,0,0.5,0,0)"/>
<path style="fill-rule:nonzero;fill:rgb(0%,60.784314%,22.745098%);fill-opacity:1;stroke-width:0.602;stroke-linecap:butt;stroke-linejoin:miter;stroke:rgb(0%,0%,0%);stroke-opacity:1;stroke-miterlimit:4;" d="M 596.609375 366.914062 C 595.601562 367.210938 588.039062 370.054688 588.039062 370.054688 L 585.929688 370.898438 C 588.84375 370.242188 591.078125 371.710938 591.078125 371.710938 L 599.5 367.8125 C 599.5 367.8125 599.476562 367.679688 599.265625 367.53125 C 599.046875 367.382812 597.632812 366.609375 596.609375 366.914062 " transform="matrix(0.5,0,0,0.5,0,0)"/>
<path style="fill-rule:nonzero;fill:rgb(0%,60.784314%,22.745098%);fill-opacity:1;stroke-width:0.644;stroke-linecap:butt;stroke-linejoin:miter;stroke:rgb(0%,0%,0%);stroke-opacity:1;stroke-miterlimit:4;" d="M 585.609375 371.15625 C 585.554688 371.203125 585.492188 371.398438 585.640625 371.46875 C 586.0625 371.695312 585.945312 371.789062 587.859375 372.015625 C 589.78125 372.226562 591.039062 371.859375 591.367188 371.5 C 591.75 371.078125 586.59375 370.289062 585.609375 371.15625 " transform="matrix(0.5,0,0,0.5,0,0)"/>
<path style="fill-rule:nonzero;fill:rgb(0%,60.784314%,22.745098%);fill-opacity:1;stroke-width:0.836;stroke-linecap:butt;stroke-linejoin:miter;stroke:rgb(0%,0%,0%);stroke-opacity:1;stroke-miterlimit:4;" d="M 573.507812 343.945312 L 573.15625 341.578125 C 573.15625 341.578125 572.710938 335.1875 571.984375 333.90625 C 571.851562 333.625 571.914062 332.960938 571.453125 332.945312 C 570.570312 332.882812 570.570312 334.960938 570.460938 336.84375 C 569.03125 346.34375 576.601562 353.601562 576.601562 353.601562 Z M 573.507812 343.945312 " transform="matrix(0.5,0,0,0.5,0,0)"/>
<path style="fill-rule:nonzero;fill:rgb(0%,60.784314%,22.745098%);fill-opacity:1;stroke-width:0.77;stroke-linecap:butt;stroke-linejoin:miter;stroke:rgb(0%,0%,0%);stroke-opacity:1;stroke-miterlimit:4;" d="M 611 372.09375 C 611 372.09375 610.203125 371.914062 610.710938 371.296875 C 611.1875 370.703125 612.625 370.390625 612.90625 370.390625 C 613.195312 370.375 613.992188 370.445312 614.59375 370.609375 C 615.195312 370.765625 616.03125 371.296875 615.789062 371.679688 C 615.53125 372.046875 614.71875 372.507812 613.601562 372.507812 C 612.640625 372.507812 612.15625 372.484375 611.734375 372.359375 C 611.320312 372.203125 611 372.09375 611 372.09375 " transform="matrix(0.5,0,0,0.5,0,0)"/>
<path style="fill-rule:nonzero;fill:rgb(0%,60.784314%,22.745098%);fill-opacity:1;stroke-width:0.602;stroke-linecap:butt;stroke-linejoin:miter;stroke:rgb(0%,0%,0%);stroke-opacity:1;stroke-miterlimit:4;" d="M 602.78125 367.570312 C 602.78125 367.570312 600.1875 366.375 597.71875 365.171875 C 594.46875 363.585938 590.5625 361.382812 587.84375 357.335938 C 584.4375 352.335938 581.476562 349.65625 580.765625 349.117188 C 580.03125 348.578125 579.921875 348.375 579.648438 348.757812 C 579.40625 349.085938 579.578125 349.375 579.78125 349.71875 C 580.484375 350.859375 582.203125 353 582.820312 354.148438 C 583.882812 356.203125 586.085938 358.445312 586.0625 359.773438 C 586.0625 359.953125 585.421875 359.640625 585.421875 359.640625 C 585.421875 359.640625 580.273438 357.875 578.1875 351.632812 C 576.671875 347.109375 577.3125 345.78125 576.960938 343.523438 C 576.359375 339.507812 576.234375 339.179688 574.25 334.671875 C 574.195312 334.5625 573.03125 332.679688 572.875 333.101562 C 572.65625 333.640625 573.070312 335.648438 573.070312 335.648438 L 573.28125 337.96875 C 573.28125 337.96875 573.117188 343.125 573.117188 343.4375 C 573.117188 343.742188 571.820312 346.960938 577.328125 352.367188 C 577.328125 352.367188 577.414062 353.28125 576.671875 352.476562 C 576.148438 351.898438 572.203125 348.867188 571 343.882812 C 569.765625 338.898438 569.585938 333.90625 570.523438 331.835938 C 571.367188 329.960938 573.070312 325.382812 572.34375 321.382812 C 572.265625 320.96875 572.140625 319.742188 571.882812 320.0625 C 571.765625 320.21875 571.273438 322.242188 570.976562 322.945312 C 570.554688 323.898438 569.90625 324.84375 569.710938 325.507812 C 569.320312 326.632812 567.421875 328.367188 567.796875 331.5625 C 568.210938 335.234375 568.453125 335.804688 568.898438 337.117188 C 569.046875 337.59375 569.414062 338.804688 569.179688 338.929688 C 568.953125 339.046875 568.179688 337.476562 568.179688 337.476562 C 568.179688 337.476562 564.6875 330.617188 566.835938 325.054688 C 569.015625 319.515625 574.46875 314.257812 574.46875 314.257812 C 574.46875 314.257812 578.90625 310.585938 579.8125 309.726562 C 580.164062 309.398438 580.078125 309.148438 579.960938 309.1875 C 578.859375 309.46875 570.328125 311.234375 567.328125 321.398438 C 567.328125 321.398438 567.171875 321.820312 566.953125 321.71875 C 566.679688 321.59375 566.953125 321.117188 566.953125 321.117188 C 566.953125 321.117188 568.828125 313.914062 574.09375 310.640625 C 579.84375 307.054688 579.164062 307.585938 581.070312 306.453125 C 582.265625 305.710938 583.34375 304.71875 584.6875 302.5 C 584.820312 302.257812 585.367188 300.96875 585.289062 300.742188 C 585.234375 300.523438 584.976562 300.828125 584.851562 301.195312 C 584.851562 301.195312 583.226562 303.703125 580.789062 304.554688 C 578.34375 305.398438 576.359375 304.195312 573.90625 306.90625 C 571.445312 309.632812 569.492188 313.414062 569.492188 313.414062 C 569.492188 313.414062 568.84375 314.390625 568.703125 314.359375 C 568.4375 314.28125 568.835938 313.320312 568.835938 313.320312 C 568.835938 313.320312 572.117188 306.359375 574.757812 304.945312 C 577.398438 303.515625 579.75 302.148438 581.25 300.992188 C 583.070312 299.5625 586.210938 296.0625 587.34375 294.859375 C 587.585938 294.601562 589.273438 292.890625 589.640625 292.335938 C 589.867188 292.03125 590.40625 291.59375 590.3125 291.523438 C 590.078125 291.34375 588.476562 292.109375 588.476562 292.109375 C 588.476562 292.109375 579.78125 294.507812 574.375 302.671875 C 574.125 303.054688 573.523438 303.828125 573.210938 304.148438 C 572.632812 304.75 572.34375 305.75 572.34375 305.75 C 571.984375 305.453125 575.398438 301.195312 575.398438 301.195312 L 575.992188 298.4375 C 575.992188 298.4375 577.007812 294.289062 579.125 291.367188 C 579.335938 291.101562 580.59375 289.835938 580.804688 289.570312 C 581.226562 289.117188 580.007812 289.976562 580.21875 289.78125 C 580.21875 289.78125 572.109375 295.601562 572.109375 302.9375 C 572.109375 304.257812 571.289062 305.460938 570.15625 307.09375 C 568.835938 309 568.398438 310.164062 567.820312 313 C 502.5 382.585938 401.164062 404.945312 312.625 369.3125 C 224.078125 333.679688 166.484375 247.359375 167.570312 151.921875 C 168.65625 56.484375 228.203125 -28.5 317.53125 -62.109375 C 406.867188 -95.71875 507.664062 -71.054688 571.390625 0 C 571.390625 0 571.46875 1.046875 571.125 0.96875 C 570.773438 0.890625 570.898438 0.0234375 570.898438 0.0234375 C 570.898438 0.0234375 571.726562 -5.445312 572.3125 -7.125 C 572.882812 -8.757812 573.265625 -9.875 573.265625 -9.875 C 573.265625 -9.875 572.921875 -13.984375 573.835938 -16.234375 C 574.609375 -18.195312 576.570312 -20.789062 576.875 -21.429688 C 577.007812 -21.71875 577.914062 -23.554688 578.171875 -25.65625 C 578.203125 -25.9375 577.984375 -25.703125 577.617188 -24.890625 C 576.726562 -22.875 575.976562 -22.351562 574.515625 -20.460938 C 574.515625 -20.460938 570.757812 -17.734375 569.390625 -9.632812 C 569.390625 -9.632812 569.351562 -6.617188 568.890625 -1.882812 C 568.554688 1.585938 568.835938 4.835938 569.234375 6.789062 C 569.484375 7.984375 569.953125 8 569.664062 8.140625 C 569.476562 8.234375 569.78125 8.15625 569.351562 7.257812 C 568.835938 6.171875 568.4375 4.5 568.4375 2.195312 C 568.4375 -2.03125 568.804688 -5.429688 568.804688 -5.429688 C 568.804688 -5.429688 569.078125 -12.257812 566.242188 -15.335938 C 566.109375 -15.492188 566.742188 -13.953125 567.023438 -12.414062 C 567.375 -10.507812 566.742188 -7.859375 566.554688 -6.835938 C 566.375 -5.796875 564.484375 -1.28125 565.15625 2.953125 C 565.15625 2.953125 566.75 10.140625 568.8125 13.617188 C 568.8125 13.617188 570.085938 15.117188 568.953125 13.710938 C 567.835938 12.304688 565.53125 6.71875 565.328125 6.242188 C 565.15625 5.78125 563.5 2.304688 561.945312 0.890625 C 561.148438 0.140625 558.9375 -1.1875 558.9375 -1.1875 C 558.9375 -1.1875 557.734375 -2.101562 558.648438 -0.882812 C 559.367188 0.078125 560.335938 1.796875 560.789062 2.546875 C 560.085938 156.703125 434.554688 281.101562 280.398438 280.398438 C 126.242188 279.695312 1.84375 154.15625 2.546875 0 C 3.28125 1.625 5.007812 6.40625 5.007812 6.40625 L 6.101562 9.4375 C 6.101562 9.4375 7.953125 10.460938 8.953125 11.578125 C 9.773438 12.484375 11.484375 14.5625 12.898438 18.257812 C 13.539062 19.890625 14.804688 21.390625 14.804688 21.390625 C 14.804688 21.390625 14.539062 21.90625 13.40625 19.953125 C 12.289062 17.96875 11.195312 14.242188 8.507812 11.34375 C 6.460938 9.117188 0.960938 6.882812 0.960938 6.882812 C 0.960938 6.882812 4.492188 13.039062 5.375 14.132812 C 6.859375 15.898438 9 18.367188 9.554688 19.015625 C 10.132812 19.6875 13.453125 23.789062 13.945312 24.445312 C 14.71875 25.476562 15.226562 25.921875 15.632812 26.34375 C 16.507812 27.273438 19.109375 28.976562 19.304688 29.25 C 19.34375 29.515625 19.398438 29.296875 19.179688 29.132812 C 18.023438 28.445312 16.648438 27.359375 15.226562 26.4375 C 13.8125 25.5 8.34375 23.164062 4.664062 18.085938 C 3.789062 16.585938 3.375 15.992188 3.078125 16.140625 C 2.625 16.382812 5.5625 26.078125 11.585938 29.164062 C 11.585938 29.164062 18.234375 32.117188 19.710938 33.007812 C 20.515625 33.5 22.148438 34.21875 22.90625 34.828125 C 23.335938 35.179688 22.515625 35.164062 22.460938 35.148438 C 18.929688 34.875 13.851562 34.40625 10.742188 32.601562 C 10.742188 32.601562 9.40625 31.664062 10.5 32.984375 C 11.375 34 13.03125 36.515625 16.226562 37.929688 C 19.429688 39.335938 24.078125 40.15625 25.773438 40.242188 C 27.445312 40.335938 33.40625 40.367188 34.546875 40.734375 C 35.664062 41.109375 37.5625 42.328125 38.65625 42.679688 C 39.640625 43 42.625 44.148438 42.625 44.148438 C 42.625 44.148438 43.523438 44.640625 44.007812 44.8125 C 44.546875 45.023438 46.78125 45.007812 46.9375 44.585938 C 47.085938 44.210938 46.296875 43.640625 46.296875 43.640625 " transform="matrix(0.5,0,0,0.5,0,0)"/>
<path style="fill-rule:nonzero;fill:rgb(0%,60.784314%,22.745098%);fill-opacity:1;stroke-width:0.754;stroke-linecap:butt;stroke-linejoin:miter;stroke:rgb(0%,0%,0%);stroke-opacity:1;stroke-miterlimit:4;" d="M 641.421875 317.078125 C 642.101562 317.320312 642.398438 319.328125 642.398438 319.328125 C 642.398438 319.328125 642.335938 318.179688 642.335938 317.617188 C 642.335938 317.046875 642.0625 314.90625 642.0625 314.90625 L 641.460938 315.335938 C 640.742188 315.90625 640.351562 316.914062 640.351562 316.914062 C 640.351562 316.914062 640.757812 316.84375 641.421875 317.070312 " transform="matrix(0.5,0,0,0.5,0,0)"/>
</g>
</svg>
