<?xml version="1.0" encoding="UTF-8"?>
<svg xmlns="http://www.w3.org/2000/svg" xmlns:xlink="http://www.w3.org/1999/xlink" width="px" height="px" viewBox="0 0 540 360" version="1.1">
<g id="surface1">
<rect x="0" y="0" width="540" height="360" style="fill:rgb(12.54902%,37.647059%,23.921569%);fill-opacity:1;stroke:none;"/>
<path style=" stroke:none;fill-rule:nonzero;fill:rgb(98.039216%,82.352941%,0.392157%);fill-opacity:1;" d="M 0 0 L 540 0 L 540 270 L 0 270 Z M 0 0 "/>
<path style=" stroke:none;fill-rule:nonzero;fill:rgb(0%,63.137255%,87.058824%);fill-opacity:1;" d="M 0 0 L 540 0 L 540 180 L 0 180 Z M 0 0 "/>
<path style=" stroke:none;fill-rule:nonzero;fill:rgb(89.803922%,74.509804%,0.392157%);fill-opacity:1;" d="M 501.300781 94.050781 L 461.097656 96.398438 L 499.320312 109.074219 L 459.878906 100.9375 L 493.523438 123.074219 L 457.53125 105.007812 L 484.296875 135.097656 L 454.207031 108.332031 L 472.273438 144.324219 L 450.136719 110.679688 L 458.273438 150.121094 L 445.597656 111.894531 L 443.25 152.101562 L 442.75 93.550781 Z M 501.300781 94.050781 "/>
<path style=" stroke:none;fill-rule:nonzero;fill:rgb(89.803922%,74.509804%,0.392157%);fill-opacity:1;" d="M 501.300781 94.050781 L 461.097656 91.699219 L 499.320312 79.027344 L 459.878906 87.160156 L 493.523438 65.023438 L 457.53125 83.09375 L 484.296875 53.003906 L 454.207031 79.769531 L 472.273438 43.777344 L 450.136719 77.421875 L 458.273438 37.976562 L 445.597656 76.203125 L 443.25 36 L 442.75 94.550781 Z M 501.300781 94.050781 "/>
<path style=" stroke:none;fill-rule:nonzero;fill:rgb(89.803922%,74.509804%,0.392157%);fill-opacity:1;" d="M 385.199219 94.050781 L 425.402344 96.398438 L 387.179688 109.074219 L 426.621094 100.9375 L 392.976562 123.074219 L 428.96875 105.007812 L 402.203125 135.097656 L 432.292969 108.332031 L 414.226562 144.324219 L 436.363281 110.679688 L 428.226562 150.121094 L 440.902344 111.894531 L 443.25 152.101562 L 443.75 93.550781 Z M 385.199219 94.050781 "/>
<path style=" stroke:none;fill-rule:nonzero;fill:rgb(89.803922%,74.509804%,0.392157%);fill-opacity:1;" d="M 385.199219 94.050781 L 425.402344 91.699219 L 387.179688 79.027344 L 426.621094 87.160156 L 392.976562 65.023438 L 428.96875 83.09375 L 402.203125 53.003906 L 432.292969 79.769531 L 414.226562 43.777344 L 436.363281 77.421875 L 428.226562 37.976562 L 440.902344 76.203125 L 443.25 36 L 443.75 94.550781 Z M 385.199219 94.050781 "/>
<path style="fill-rule:nonzero;fill:rgb(89.803922%,74.509804%,0.392157%);fill-opacity:1;stroke-width:3.4;stroke-linecap:butt;stroke-linejoin:miter;stroke:rgb(0%,63.137255%,87.058824%);stroke-opacity:1;stroke-miterlimit:4;" d="M 34.296875 0.0015625 C 34.296875 18.946875 18.945312 34.298438 0 34.298438 C -18.945312 34.298438 -34.296875 18.946875 -34.296875 0.0015625 C -34.296875 -18.94375 -18.945312 -34.303125 0 -34.303125 C 18.945312 -34.303125 34.296875 -18.94375 34.296875 0.0015625 Z M 34.296875 0.0015625 " transform="matrix(0.5,0,0,0.5,443.25,94.05)"/>
</g>
</svg>
