<?xml version="1.0" encoding="UTF-8"?>
<svg xmlns="http://www.w3.org/2000/svg" xmlns:xlink="http://www.w3.org/1999/xlink" width="px" height="px" viewBox="0 0 450 300" version="1.1">
<g id="surface1">
<rect x="0" y="0" width="450" height="300" style="fill:rgb(0%,42.352941%,20.784314%);fill-opacity:1;stroke:none;"/>
<path style=" stroke:none;fill-rule:evenodd;fill:rgb(100%,100%,100%);fill-opacity:1;" d="M 281.128906 206.25 C 281.125 206.253906 281.117188 206.261719 281.113281 206.265625 C 277.488281 207.050781 277.601562 210.21875 279.925781 211.617188 C 241.671875 211.617188 182.96875 211.070312 170.378906 211.070312 C 163.335938 211.070312 141.054688 210.359375 140.625 210.359375 C 145.402344 216.257812 152.328125 217.460938 161.386719 217.582031 L 279.507812 217.402344 C 277.914062 219.789062 279.652344 223.636719 280.898438 224.335938 C 280.925781 224.351562 280.96875 224.371094 280.996094 224.382812 C 207.589844 237.578125 135.410156 198.046875 119.777344 136.085938 C 104.144531 74.121094 150.976562 13.195312 224.382812 0 C 224.398438 0.00390625 224.425781 0 224.441406 0 C 225.925781 0.296875 226.578125 -0.613281 227.078125 -1.273438 C 229.484375 -1.09375 243.027344 -0.929688 244.265625 -1.289062 C 244.269531 -1.289062 244.28125 -1.304688 244.285156 -1.304688 C 245.121094 -0.265625 245.953125 0.71875 247.550781 0.546875 C 250.34375 0.0429688 252.539062 -0.214844 252.609375 -4.996094 C 252.609375 -4.996094 252.324219 -13.148438 245.984375 -12.636719 C 244.484375 -12.445312 240.273438 -12.089844 240.273438 -12.089844 C 235.402344 -12.578125 231.828125 -12.628906 226.351562 -12.796875 C 226.855469 -13.339844 227.75 -15.53125 226.65625 -16.328125 C 226.371094 -16.527344 225.945312 -16.640625 225.355469 -16.601562 L 225.339844 -16.601562 C 225.328125 -16.601562 225.308594 -16.601562 225.300781 -16.601562 C 225.296875 -16.601562 225.285156 -16.617188 225.28125 -16.617188 C 225.265625 -16.621094 225.238281 -16.625 225.222656 -16.632812 C 230.667969 -16.613281 235.066406 -12.875 235.042969 -8.28125 C 235.019531 -3.691406 230.589844 0.0195312 225.144531 0 C 225.136719 -0.0078125 225.113281 -0.0234375 225.105469 -0.03125 C 224.828125 -0.371094 224.679688 -1.207031 224.496094 -1.417969 L 224.476562 -1.433594 C 224.472656 -1.4375 224.460938 -1.449219 224.457031 -1.449219 C 224.929688 -1.445312 225.3125 -1.117188 225.308594 -0.71875 C 225.304688 -0.316406 224.914062 0.00390625 224.441406 0 L 224.402344 0 Z M 283.726562 217.90625 C 283.734375 217.902344 283.738281 217.90625 283.746094 217.90625 C 289.328125 218.132812 294.570312 217.949219 300.152344 218.179688 C 301.035156 218.8125 300.59375 220.265625 300.019531 220.53125 C 239.121094 220.523438 189.757812 171.148438 189.769531 110.25 C 189.777344 49.351562 239.152344 -0.0078125 300.050781 0 C 300.03125 0.00390625 300 0 299.972656 0 C 299.949219 0 299.921875 0.00390625 299.898438 0 L 295.21875 -0.113281 C 295.148438 -0.0664062 295.074219 -0.0273438 294.992188 0 C 294.5625 -1.074219 291.449219 -1.003906 290.714844 -0.160156 C 290.699219 -0.144531 290.691406 -0.128906 290.675781 -0.113281 C 291 -0.132812 291.277344 0.117188 291.292969 0.441406 C 291.3125 0.761719 291.066406 1.039062 290.742188 1.058594 C 290.730469 1.089844 290.726562 1.136719 290.722656 1.171875 C 290.71875 1.214844 290.699219 1.257812 290.703125 1.300781 C 288.257812 1.546875 286.046875 1.230469 283.597656 1.15625 C 282.886719 0.398438 282.964844 -0.964844 283.808594 -1.296875 Z M 283.726562 217.90625 "/>
<path style=" stroke:none;fill-rule:nonzero;fill:rgb(100%,100%,100%);fill-opacity:1;" d="M 301.082031 129.320312 C 301.851562 129.699219 303.882812 127.402344 303.808594 124.511719 C 304.035156 123.03125 303.238281 117.5625 301.210938 116.632812 C 269.003906 116.65625 242.878906 90.5625 242.859375 58.355469 C 242.835938 26.148438 268.929688 0.0195312 301.136719 0 C 300.078125 0.140625 299.078125 1.042969 299.535156 2.515625 C 299.246094 3.378906 300.972656 6.410156 301.421875 8.015625 C 301.824219 9.160156 300.902344 12.398438 301.738281 12.738281 Z M 141.261719 82.871094 C 143.742188 83.960938 148.390625 83.503906 148.191406 79.820312 C 148.191406 79.5 148.113281 78.398438 148.078125 78.101562 C 147.828125 77.558594 147.359375 77.351562 146.910156 77.421875 L 146.917969 77.425781 C 146.464844 77.5 146.039062 77.84375 145.882812 78.394531 C 145.78125 78.761719 146.050781 79.371094 145.691406 79.558594 C 145.488281 79.769531 144.699219 79.632812 144.734375 78.605469 C 144.734375 78.285156 144.472656 77.941406 144.316406 77.734375 C 144.164062 77.628906 144.054688 77.59375 143.773438 77.59375 C 143.429688 77.601562 143.433594 77.699219 143.246094 77.960938 C 143.160156 78.207031 143.054688 78.496094 143.054688 78.808594 C 143.011719 79.171875 142.855469 79.296875 142.5625 79.347656 C 142.242188 79.347656 142.3125 79.375 142.054688 79.207031 C 141.90625 79.027344 141.71875 78.992188 141.71875 78.71875 C 141.71875 78.472656 141.640625 77.996094 141.550781 77.816406 C 141.410156 77.640625 141.199219 77.566406 140.945312 77.496094 C 139.59375 77.503906 139.492188 78.933594 139.570312 79.476562 C 139.472656 79.582031 139.417969 82.109375 141.265625 82.824219 Z M 121.398438 82.730469 C 121.777344 83.601562 121.019531 86.410156 121.8125 86.671875 C 122.539062 86.953125 123.539062 84.726562 123.921875 82.660156 C 124.128906 81.53125 123.96875 77.664062 121.117188 76.863281 C 120.964844 76.835938 120.816406 76.789062 120.664062 76.789062 C 119.570312 76.761719 118.367188 77.382812 118.835938 78.59375 C 118.5625 79.253906 120.972656 81.476562 121.398438 82.707031 Z M 208.925781 83.769531 C 210.347656 80.222656 210.355469 78.714844 210.449219 77.210938 C 210.230469 76.066406 209.6875 75.511719 209.074219 75.558594 C 208.460938 75.632812 207.785156 76.261719 207.230469 77.535156 C 206.753906 78.507812 206.175781 83.558594 206.269531 83.558594 C 205.890625 85.0625 207.976562 85.699219 208.925781 83.769531 Z M 191.242188 82.78125 C 191.945312 83.710938 192.636719 83.613281 194.046875 82.957031 C 194.855469 82.410156 195.128906 82.054688 195.402344 81.132812 C 195.738281 79.589844 193.636719 81.863281 193.367188 80.140625 C 192.898438 78.542969 194.238281 77.886719 195.515625 76.339844 C 195.542969 75.613281 195.558594 75.019531 195.042969 75 C 194.808594 74.996094 194.460938 75.105469 193.972656 75.378906 C 192.871094 76.054688 190.6875 78.15625 190.617188 80.570312 C 190.550781 81.929688 190.273438 81.921875 191.238281 82.789062 Z M 118.96875 107.1875 C 126.203125 107.828125 122.207031 95.917969 124.828125 93.753906 C 125.324219 92.6875 126.238281 92.667969 126.316406 94.003906 L 126.316406 104.121094 C 126.246094 107.410156 128.597656 108.390625 130.421875 109.070312 C 132.316406 108.925781 133.574219 108.960938 134.320312 110.679688 L 135.222656 128.191406 C 135.222656 128.191406 139.609375 129.351562 139.816406 118.351562 C 140.027344 111.890625 138.421875 106.46875 139.367188 105.214844 C 139.398438 103.980469 141.117188 103.917969 142.304688 104.519531 C 144.195312 105.75 145.03125 107.261719 147.972656 106.652344 C 152.441406 105.519531 155.136719 103.515625 155.203125 100.351562 C 154.945312 97.34375 154.5625 94.335938 153.148438 91.328125 C 153.34375 90.78125 152.292969 89.359375 152.492188 88.8125 C 153.292969 89.972656 154.507812 89.875 154.789062 88.8125 C 154.027344 86.5 152.84375 84.285156 150.929688 83.328125 C 149.347656 82.042969 147.03125 82.308594 146.183594 84.992188 C 145.789062 88.078125 147.398438 91.738281 149.835938 94.730469 C 150.351562 95.894531 151.078125 97.839844 150.757812 99.589844 C 149.460938 100.273438 148.171875 99.984375 147.085938 98.929688 C 147.085938 98.929688 143.527344 96.472656 143.527344 95.929688 C 144.46875 90.355469 143.726562 89.71875 143.207031 88.171875 C 142.84375 86.035156 141.746094 85.359375 140.855469 83.902344 C 139.964844 83.03125 138.757812 83.03125 138.179688 83.902344 C 136.609375 86.414062 137.34375 91.816406 138.480469 94.226562 C 139.304688 96.449219 140.5625 97.835938 139.96875 97.835938 C 139.480469 99.089844 138.464844 98.800781 137.726562 97.351562 C 136.679688 94.355469 136.464844 89.890625 136.464844 87.875 C 136.15625 85.382812 135.800781 80.046875 134.019531 78.695312 C 133.542969 78.097656 132.980469 77.890625 132.4375 77.949219 C 131.738281 78.023438 131.078125 78.546875 130.761719 79.246094 C 130.644531 81.726562 130.628906 84.203125 130.929688 86.484375 C 132.152344 90.488281 132.539062 94.011719 133.132812 98.113281 C 133.296875 103.605469 129.691406 100.488281 129.859375 97.757812 C 130.691406 94.222656 130.460938 88.652344 129.726562 87.242188 C 129.140625 85.832031 128.460938 85.480469 127.035156 85.714844 C 125.898438 85.640625 122.972656 88.589844 122.15625 93.453125 C 122.15625 93.453125 121.476562 95.953125 121.175781 98.175781 C 120.777344 100.6875 118.96875 102.46875 117.710938 97.820312 C 116.625 94.449219 115.957031 86.140625 114.132812 88.085938 C 113.613281 94.570312 112.992188 105.988281 118.972656 107.160156 Z M 165.578125 96.179688 C 165.582031 96.183594 165.59375 96.179688 165.597656 96.179688 C 165.601562 96.183594 165.613281 96.199219 165.617188 96.199219 C 165.621094 96.199219 165.628906 96.199219 165.636719 96.199219 L 165.652344 96.21875 C 166.125 96.5 171.925781 96.5 172.566406 96.238281 C 172.570312 96.234375 172.582031 96.21875 172.585938 96.21875 C 172.585938 96.214844 172.601562 96.21875 172.601562 96.21875 C 172.605469 96.21875 172.601562 96.199219 172.601562 96.199219 C 174.59375 95.523438 184.050781 85.5625 184.050781 85.5625 C 183.5625 85.175781 183.109375 84.886719 182.621094 84.5 C 182.097656 84.078125 182.148438 83.671875 182.621094 83.25 C 184.964844 81.996094 184.222656 79.230469 182.996094 77.972656 C 181.984375 77.554688 181.027344 77.414062 180.171875 77.453125 C 158.785156 77.292969 141.574219 59.828125 141.734375 38.441406 C 141.890625 17.050781 159.359375 -0.160156 180.746094 0 C 179.105469 1.449219 178.71875 3.773438 180.011719 5.222656 C 181.273438 5.769531 182.523438 6.9375 181.6875 7.585938 C 178.121094 11.089844 168.859375 16.945312 168.394531 18.015625 C 163.417969 18.007812 159.394531 13.96875 159.402344 8.992188 C 159.410156 4.019531 163.449219 -0.0078125 168.421875 0 C 168.421875 0.0078125 168.421875 0.0273438 168.421875 0.0390625 L 168.421875 0.0546875 C 168.425781 0.0664062 168.433594 0.0742188 168.441406 0.09375 L 168.460938 0.113281 Z M 179.609375 80.566406 C 179.648438 80.558594 179.683594 80.546875 179.722656 80.546875 C 180.300781 80.472656 181 80.984375 181.34375 81.675781 C 181.710938 82.410156 181.523438 83.117188 180.929688 83.253906 C 180.332031 83.394531 179.5625 82.898438 179.195312 82.164062 C 178.832031 81.425781 179.015625 80.699219 179.613281 80.566406 Z M 192.691406 102.027344 C 195.582031 103.128906 197.417969 98.054688 198.601562 92.5 C 199.414062 90.9375 200.03125 90.765625 200.449219 91.5625 C 200.34375 98.949219 201.023438 100.597656 203.085938 102.84375 C 207.683594 106.113281 211.488281 103.257812 211.785156 102.984375 L 215.363281 99.683594 C 216.160156 98.910156 217.214844 98.867188 218.339844 99.542969 C 219.433594 100.457031 219.292969 102.039062 221.632812 103.136719 C 223.605469 103.863281 227.816406 103.3125 228.789062 101.746094 C 230.105469 99.671875 230.421875 98.957031 231.03125 98.171875 C 231.96875 97.019531 233.574219 97.535156 233.574219 97.925781 C 233.425781 98.566406 232.480469 99.195312 233.121094 100.355469 C 234.238281 101.125 234.496094 100.601562 235.15625 100.460938 C 237.488281 99.433594 239.242188 94.769531 239.242188 94.769531 C 239.34375 93.027344 238.269531 93.164062 237.585938 93.515625 C 236.691406 94.023438 236.636719 94.195312 235.738281 94.695312 C 234.597656 94.875 232.390625 95.546875 231.296875 93.984375 C 230.179688 92.109375 230.171875 89.496094 229.316406 87.597656 C 229.316406 87.457031 227.824219 84.621094 229.203125 84.441406 C 229.902344 84.582031 231.398438 84.914062 231.632812 83.765625 C 232.363281 82.640625 230.058594 79.453125 228.488281 77.847656 C 227.125 76.46875 225.246094 76.300781 223.421875 77.703125 C 222.148438 78.785156 222.335938 79.996094 222.085938 81.140625 C 221.761719 82.457031 221.824219 84.085938 223.273438 85.828125 C 224.546875 88.136719 226.859375 91.113281 226.097656 95.300781 C 226.097656 95.300781 224.753906 97.292969 222.386719 97.039062 C 221.402344 96.828125 219.796875 96.449219 218.941406 90.636719 C 218.296875 86.234375 219.101562 80.070312 217.078125 77.183594 C 216.625 76.097656 216.226562 75.039062 215.570312 75.121094 C 215.175781 75.148438 214.695312 75.625 214.027344 76.753906 C 213.546875 77.921875 211.480469 79.695312 212.972656 83.347656 C 214.191406 85.664062 214.691406 89.429688 214.140625 93.621094 C 213.292969 94.8125 213.101562 95.226562 211.992188 96.414062 C 210.4375 97.960938 208.75 97.5625 207.453125 96.988281 C 206.246094 96.238281 205.296875 95.851562 204.742188 93.464844 C 204.84375 89.660156 205.078125 83.4375 204.328125 82.117188 C 203.214844 80.070312 201.382812 80.804688 200.601562 81.421875 C 196.835938 84.59375 194.976562 89.949219 193.839844 94.210938 C 192.796875 97.3125 191.683594 96.417969 190.902344 95.164062 C 189 93.519531 188.867188 80.679688 186.570312 82.789062 C 182.894531 92.476562 188.679688 103.085938 192.691406 102.054688 Z M 177.539062 95.125 C 175.347656 96.21875 174.5 99.460938 175.863281 101.355469 C 177.136719 103.023438 179.152344 102.414062 179.421875 102.414062 C 181.570312 102.664062 182.847656 98.703125 182.847656 98.703125 C 182.847656 98.703125 182.914062 97.585938 180.363281 99.691406 C 179.289062 99.902344 179.144531 99.511719 178.875 98.964844 C 178.652344 97.933594 178.703125 96.886719 179.210938 95.859375 C 179.449219 95.242188 179.214844 94.851562 178.703125 94.800781 C 178.402344 94.773438 177.996094 94.875 177.535156 95.117188 Z M 319.199219 144.578125 C 318.730469 144.082031 317.671875 144.363281 316.960938 144.328125 C 316.621094 144.328125 315.503906 144.152344 316.039062 143.269531 C 316.480469 142.707031 316.640625 142.367188 316.941406 141.671875 C 317.273438 140.992188 316.980469 140.535156 315.773438 140.160156 C 315.160156 140.054688 314.734375 140.019531 314.285156 140.019531 C 313.839844 140.039062 313.367188 140.09375 312.6875 140.160156 C 311.949219 140.304688 311.691406 140.605469 311.554688 141.425781 C 311.609375 142.675781 312.4375 142.613281 313.289062 143.109375 C 313.78125 143.6875 314.101562 144.207031 313.25 145.15625 L 311.066406 146.890625 C 310.683594 147.484375 310.445312 148.40625 311.609375 148.695312 C 313.757812 149.25 318.726562 146.273438 318.726562 146.210938 C 319.535156 145.652344 319.265625 144.597656 319.199219 144.597656 Z M 334.625 92.296875 C 334.460938 91.191406 333.933594 88.652344 334.136719 88.320312 C 334.460938 87.542969 336.125 88.394531 336.714844 87.503906 C 337.582031 86.6875 332.421875 80.597656 330.613281 77.996094 C 330.253906 77.34375 330.03125 76.804688 329.710938 76.832031 C 329.460938 76.851562 329.15625 77.226562 328.691406 78.132812 C 327.574219 79.824219 327.1875 82.839844 327.636719 85.507812 C 330.328125 102.28125 332.328125 118.523438 332.742188 133.390625 C 332.511719 134.800781 332.445312 135.554688 331.722656 137.332031 C 330.136719 139.203125 328.386719 141.558594 326.734375 142.695312 C 325.085938 143.828125 321.574219 144.910156 320.425781 145.746094 C 316.785156 147.691406 316.761719 149.917969 319.710938 150 C 324.785156 149.457031 330.789062 149.074219 334.925781 143.320312 C 336.03125 141.707031 337.335938 137.332031 337.394531 134.660156 C 337.78125 118.972656 337.175781 103.632812 334.625 92.296875 Z M 114.949219 123.054688 L 133.78125 114.726562 C 132.753906 113.308594 133.71875 112.03125 129.847656 111.929688 C 123.894531 112.035156 115.179688 119.117188 114.949219 123.054688 Z M 118.304688 141.03125 C 116.738281 143.960938 116.089844 141.957031 115.953125 140.320312 C 115.714844 137.214844 116.035156 134.355469 116.402344 132.09375 C 116.597656 130.929688 116.59375 130.527344 116.445312 130.53125 C 116.292969 130.535156 115.992188 130.949219 115.597656 131.410156 C 112.054688 136.609375 111.742188 144.367188 113.695312 146.683594 C 114.734375 147.777344 116.445312 148.253906 117.703125 147.914062 C 119.929688 147.023438 120.90625 142.875 120.378906 141.355469 C 119.636719 140.28125 119.046875 140.113281 118.308594 141.035156 Z M 162.695312 133.21875 C 165.273438 125.308594 162.644531 119.339844 163.507812 118.609375 C 163.515625 118.601562 163.535156 118.597656 163.546875 118.589844 C 163.554688 118.582031 163.574219 118.578125 163.585938 118.570312 C 163.59375 118.566406 163.613281 118.550781 163.625 118.550781 C 130.886719 130.996094 94.257812 114.550781 81.8125 81.8125 C 69.367188 49.074219 85.8125 12.445312 118.550781 0 C 121.734375 3.15625 126.195312 0.398438 127.175781 -0.695312 C 127.59375 -1.238281 128.644531 -1.59375 129.378906 -0.90625 C 131.859375 0.738281 136.210938 -0.0390625 137.117188 -2.9375 C 137.644531 -5.773438 138.085938 -8.691406 138.191406 -11.71875 C 136.574219 -11.253906 135.269531 -10.90625 134.746094 -10.402344 C 134.621094 -10.257812 134.53125 -10.152344 134.5 -9.984375 L 134.085938 -7.46875 C 134.074219 -7.390625 134.046875 -7.324219 134.011719 -7.253906 C 133.9375 -7.148438 133.832031 -7.042969 133.710938 -7.003906 C 133.140625 -6.722656 132.144531 -6.863281 132.089844 -7.648438 C 131.324219 -10.867188 128.160156 -11.289062 126.234375 -6.292969 C 124.941406 -5.324219 122.582031 -5.136719 122.335938 -6.578125 C 122.648438 -9.929688 121.183594 -10.378906 118.25 -8.796875 L 115.425781 -28.410156 C 116.652344 -28.4375 117.773438 -27.625 118.890625 -28.914062 C 117.6875 -32.386719 115.117188 -39.445312 113.675781 -40.109375 C 113.664062 -40.113281 113.648438 -40.117188 113.636719 -40.128906 C 113.574219 -40.007812 113.503906 -39.890625 113.421875 -39.78125 C 113.398438 -39.796875 113.355469 -39.808594 113.332031 -39.855469 C 113.269531 -39.882812 113.207031 -39.929688 113.144531 -39.929688 C 113.015625 -39.957031 112.882812 -39.957031 112.746094 -39.957031 L 112.75 -39.957031 C 112.390625 -39.929688 111.992188 -39.746094 111.523438 -39.636719 C 109.988281 -39.183594 108.546875 -37.960938 109 -35.578125 L 113.820312 -7.445312 C 114.101562 -6.253906 113.015625 -4.679688 111.617188 -4.839844 C 109.242188 -6.320312 108.65625 -9.328125 104.59375 -9.195312 C 101.660156 -9.167969 98.308594 -6.21875 97.890625 -3.382812 C 97.402344 -1.128906 97.226562 1.316406 97.890625 3.28125 C 99.949219 5.566406 102.425781 5.324219 104.59375 4.808594 C 106.378906 4.132812 107.84375 2.511719 108.472656 2.898438 C 108.476562 2.902344 108.492188 2.898438 108.492188 2.898438 C 108.496094 2.902344 108.492188 2.917969 108.492188 2.917969 C 108.882812 3.542969 108.457031 8.839844 100.09375 12.929688 C 94.953125 15.058594 90.863281 15.5625 88.664062 11.699219 C 87.300781 9.28125 88.761719 0.0820312 85.40625 2.203125 C 75.476562 25.789062 108.664062 29.082031 112.371094 3.175781 C 112.613281 2.445312 113.34375 1.710938 113.859375 1.890625 C 114.082031 2 114.292969 2.265625 114.367188 2.792969 C 113.597656 26.246094 88.695312 27.855469 84.464844 20.476562 C 83.417969 18.738281 83.101562 14.867188 82.996094 12.546875 C 82.804688 11.144531 82.421875 10.332031 81.980469 10.011719 C 80.976562 9.316406 79.617188 11.140625 79.324219 14.300781 C 78.902344 16.84375 79.023438 17.539062 79.023438 19.992188 C 80.351562 38.519531 112.398438 30.558594 117.609375 15.253906 Z M 150.316406 117.191406 C 150.3125 117.191406 150.316406 117.207031 150.316406 117.207031 C 150.3125 117.21875 150.304688 117.238281 150.296875 117.238281 C 150.050781 117.519531 149.171875 117.414062 148.546875 117.414062 C 147.789062 117.386719 147.417969 117.273438 146.964844 116.703125 C 146.75 116.070312 147.40625 115.449219 147.699219 114.984375 C 147.703125 114.976562 147.714844 114.972656 147.71875 114.964844 C 147.757812 114.9375 147.800781 114.859375 147.847656 114.824219 C 148.074219 114.609375 148.464844 114.453125 148.886719 114.40625 C 148.964844 114.394531 149.046875 114.386719 149.128906 114.386719 C 149.714844 114.390625 150.328125 114.632812 150.65625 115.410156 C 150.894531 116.011719 150.765625 116.6875 150.316406 117.179688 Z M 287.71875 147.539062 L 282.144531 148.09375 Z M 256.289062 99.5 C 258.765625 100.585938 263.433594 100.109375 263.234375 96.425781 C 263.234375 96.109375 263.140625 95.007812 263.105469 94.710938 C 262.851562 94.164062 262.386719 93.960938 261.9375 94.03125 C 261.492188 94.105469 261.058594 94.460938 260.902344 95.023438 C 260.800781 95.390625 261.09375 95.984375 260.730469 96.167969 C 260.527344 96.382812 259.71875 96.242188 259.753906 95.230469 C 259.753906 94.910156 259.496094 94.550781 259.339844 94.34375 C 259.183594 94.238281 259.074219 94.203125 258.792969 94.203125 C 258.449219 94.210938 258.457031 94.308594 258.265625 94.566406 C 258.183594 94.816406 258.078125 95.109375 258.078125 95.417969 C 258.035156 95.777344 257.898438 95.902344 257.605469 95.957031 C 257.285156 95.957031 257.339844 95.984375 257.078125 95.816406 C 256.929688 95.636719 256.742188 95.601562 256.742188 95.328125 C 256.742188 95.082031 256.664062 94.609375 256.574219 94.425781 C 256.4375 94.246094 256.222656 94.210938 255.96875 94.140625 C 254.617188 94.148438 254.535156 95.5625 254.613281 96.101562 C 254.515625 96.207031 254.445312 98.761719 256.289062 99.46875 Z M 296.25 108.992188 C 296.292969 106.84375 296.519531 103.984375 296.644531 102.207031 C 296.699219 101.535156 296.867188 100.796875 297.566406 100.628906 C 298.265625 100.449219 299.472656 101.273438 299.488281 100.550781 C 299.359375 99.183594 299.066406 97.167969 298.226562 96.214844 C 297.796875 95.625 297.09375 95.308594 296.363281 95.273438 C 295.144531 95.199219 293.847656 95.949219 293.519531 97.476562 C 293.523438 98.382812 293.960938 98.878906 293.875 99.695312 C 293.746094 100.164062 293.222656 100.472656 291.972656 99.910156 C 292.171875 99.730469 291.164062 98.433594 291.164062 98.433594 C 290.1875 97.886719 288.886719 98.460938 288.039062 98.96875 C 287.570312 99.75 287.226562 101.09375 287.757812 102.457031 C 289.15625 104.839844 293.960938 108.90625 296.25 108.949219 Z M 280.804688 138.664062 C 282.53125 138.675781 284.527344 135.027344 285.382812 131.410156 C 285.847656 126.433594 285.070312 123.40625 284.929688 120.476562 C 284.789062 117.550781 281.335938 93.8125 280.636719 91.597656 C 279.792969 87.414062 283.996094 91.046875 283.535156 88.617188 C 282.085938 85.546875 278.457031 81.074219 277.324219 78.410156 C 276.894531 77.695312 276.84375 77.035156 276.492188 77.09375 C 276.285156 77.132812 275.976562 77.410156 275.402344 78.117188 C 273.984375 82.386719 273.484375 85.878906 274.027344 88.53125 C 277.667969 106.042969 281.398438 121.996094 280.804688 138.667969 Z M 267.851562 135.089844 C 263.867188 138.925781 258.117188 143.652344 251.863281 145.835938 C 251.191406 146.53125 253.535156 149.5 256.570312 149.496094 C 261.648438 148.953125 266.105469 146.328125 270.242188 139.414062 C 271.347656 137.800781 273.292969 134.347656 273.351562 131.671875 C 273.738281 115.984375 272.496094 103.789062 269.941406 92.449219 C 269.78125 91.34375 269.890625 90.042969 270.089844 89.707031 C 270.417969 89.347656 271.535156 89.714844 272.125 88.820312 C 272.992188 88.007812 269.808594 81.238281 268 78.632812 C 267.640625 77.980469 267.417969 77.460938 267.097656 77.488281 C 266.847656 77.507812 266.542969 77.867188 266.078125 78.777344 C 264.960938 80.464844 264.203125 83.402344 264.289062 86.152344 C 266.710938 101.597656 267.453125 115.117188 269.035156 130.5625 C 269.164062 132.058594 268.925781 134.226562 267.847656 135.09375 Z M 278.269531 128.761719 C 278.332031 128.550781 278.320312 128.550781 278.269531 128.761719 Z M 257.960938 85.210938 C 258.84375 87.496094 257.285156 89.671875 258.207031 89.984375 C 259.050781 90.339844 260.230469 87.625 260.671875 85.125 C 261.183594 83.101562 259.617188 78.953125 257.394531 78.097656 C 257.226562 78.058594 257.046875 78.058594 256.867188 78.023438 C 255.597656 77.984375 254.195312 78.726562 254.742188 80.191406 C 254.421875 80.992188 257.46875 83.710938 257.960938 85.1875 Z M 302.714844 108.902344 C 261.65625 108.894531 228.378906 75.609375 228.382812 34.550781 C 228.386719 -6.503906 261.675781 -39.785156 302.734375 -39.78125 L 290.964844 -31.988281 C 289.824219 -31.050781 290.394531 -27.773438 290.964844 -28.152344 C 291.785156 -27.867188 303.347656 -35.082031 303.128906 -35.925781 C 303.632812 -35.898438 303.875 -39.640625 302.941406 -39.796875 Z M 294.628906 87.832031 C 426.652344 227.566406 444.527344 440.015625 337.710938 599.84375 C 230.890625 759.675781 27.757812 824.421875 -151.847656 755.886719 C -331.453125 687.355469 -439.820312 503.746094 -413.011719 313.386719 C -386.203125 123.027344 -231.347656 -23.511719 -39.796875 -39.78125 C -39.070312 -31.160156 -38.878906 -23.261719 -38.140625 -14.632812 C -38.242188 -10.941406 -39.476562 -6.039062 -40.644531 -5.574219 C -40.644531 -5.574219 -42.425781 -4.628906 -43.617188 -5.679688 C -44.484375 -5.996094 -47.949219 -11.007812 -47.949219 -11.007812 C -49.722656 -12.507812 -50.90625 -12.078125 -52.167969 -11.007812 C -55.648438 -7.910156 -57.222656 -2.109375 -59.585938 1.886719 C -60.195312 2.78125 -61.914062 3.535156 -63.824219 1.8125 C -67.753906 -3.136719 -66.636719 -9.777344 -66.394531 -10.933594 L -66.445312 -10.71875 C -70.761719 -6.234375 -68.851562 1.199219 -67.875 2.800781 C -66.449219 5.425781 -65.296875 7.105469 -62.527344 8.40625 C -60 10.117188 -58.035156 9.050781 -56.953125 7.851562 C -54.414062 5.425781 -54.378906 -0.777344 -53.1875 -2.007812 C -52.351562 -4.261719 -50.253906 -3.875 -49.230469 -2.875 C -48.242188 -1.5625 -47.070312 -0.707031 -45.617188 0.0078125 C -43.246094 1.929688 -40.417969 2.28125 -37.632812 0.527344 C -35.726562 -0.457031 -34.492188 -1.738281 -33.375 -4.261719 C -32.179688 -7.210938 -32.769531 -22.667969 -33.039062 -31.265625 L -27.730469 -24.167969 C -26.960938 -16.625 -26.609375 -9.1875 -26.863281 -2.058594 C -27.042969 -0.640625 -21.496094 -6.289062 -21.53125 -8.964844 L -21.53125 -15.40625 C -18.839844 -11.445312 -16.238281 -7.417969 -13.773438 -3.34375 C -12.25 -4.082031 -12.773438 -12.050781 -13.734375 -13.148438 C -16.3125 -17.136719 -19.617188 -21.441406 -22.171875 -24.777344 C -22.675781 -28.988281 -23.367188 -33.945312 -23.679688 -35.46875 C -24.164062 -37.835938 -24.65625 -41.398438 -25.390625 -44.214844 C -25.59375 -45.3125 -26.207031 -48.824219 -26.011719 -49.160156 C -25.710938 -49.941406 -24.578125 -49.132812 -24.015625 -50.046875 C -23.179688 -50.890625 -26.917969 -59.820312 -28.820312 -62.367188 C -29.503906 -63.511719 -30.738281 -63.113281 -32.265625 -61.253906 C -33.683594 -60.03125 -33.167969 -57.242188 -32.621094 -54.589844 C -31.21875 -47.832031 -29.964844 -40.945312 -28.96875 -34.078125 L -35.261719 -42.582031 L -35.539062 -43.921875 C -35.539062 -44.0625 -35.839844 -49.449219 -36.105469 -50.742188 C -36.15625 -51.265625 -36.285156 -51.414062 -35.691406 -51.34375 C -35.058594 -50.859375 -34.972656 -50.832031 -34.578125 -50.667969 C -33.941406 -50.5625 -33.382812 -51.554688 -33.769531 -52.472656 L 304.988281 77.148438 C 304.75 76.9375 304.484375 76.707031 304.179688 76.664062 C 303.875 76.628906 303.539062 76.769531 303.160156 77.269531 C 302.441406 77.851562 301.667969 78.902344 301.691406 80.253906 C 301.867188 82.632812 302.328125 85.074219 302.503906 87.457031 L 302.691406 88.410156 C 267.292969 88.605469 238.4375 60.070312 238.238281 24.671875 C 238.042969 -10.726562 266.578125 -39.582031 301.976562 -39.78125 C 296.941406 -44.65625 304.289062 -40.578125 301.015625 -44.34375 C 298.246094 -47.148438 297.4375 -48.039062 295.066406 -49.722656 C 293.878906 -50.433594 293.160156 -51.785156 292.769531 -49.511719 C 292.621094 -47.488281 292.453125 -45.144531 292.601562 -43.4375 C 292.59375 -42.492188 293.660156 -40.703125 294.578125 -39.652344 Z M 323.839844 91.742188 C 324.242188 92.886719 323.226562 96.574219 324.0625 96.914062 C 324.832031 97.292969 325.917969 94.367188 326.320312 91.65625 C 326.546875 90.175781 325.351562 84.964844 323.328125 84.039062 C 323.167969 84.007812 323.003906 83.960938 322.839844 83.960938 C 321.679688 83.933594 320.417969 84.734375 320.917969 86.324219 C 320.625 87.1875 323.386719 90.128906 323.835938 91.738281 Z M 236.039062 145.132812 C 236.039062 145.238281 237.011719 145.988281 238.148438 145.34375 C 240.554688 144.5 242.050781 143.675781 245.417969 143.003906 C 246.300781 142.984375 246.25 140.804688 244.851562 140.730469 C 243.03125 140.835938 241.347656 140.910156 239.523438 142.222656 C 238.402344 142.4375 238.207031 141.832031 237.960938 141.269531 C 237.675781 139.871094 238.601562 138.882812 238.410156 137.832031 C 238.460938 137.871094 237.84375 137.367188 237.054688 137.328125 C 236.769531 137.320312 236.484375 137.367188 236.226562 137.507812 C 236.175781 137.507812 233.691406 139.050781 232.894531 140.125 C 232.40625 140.480469 232.460938 140.761719 232.613281 141.359375 C 232.996094 142.164062 233.664062 141.910156 234.421875 141.535156 C 235.429688 141.394531 235.917969 142.015625 235.835938 143.132812 C 235.371094 144.523438 236.039062 145.042969 236.039062 145.132812 Z M 247.40625 123.015625 L 247.425781 122.996094 C 247.425781 122.996094 247.441406 122.976562 247.445312 122.976562 C 247.445312 122.976562 247.457031 122.96875 247.460938 122.960938 L 247.460938 122.921875 C 202.535156 122.972656 166.070312 86.589844 166.023438 41.660156 C 165.972656 -3.269531 202.355469 -39.730469 247.285156 -39.78125 L 246.191406 -40.371094 L 224.667969 -40.476562 C 224.402344 -40.582031 224.203125 -40.691406 224.085938 -40.726562 C 224.324219 -41.164062 224.832031 -41.382812 225.3125 -41.25 C 225.796875 -41.117188 226.125 -40.671875 226.105469 -40.171875 C 226.082031 -39.671875 225.722656 -39.253906 225.230469 -39.160156 C 224.742188 -39.066406 224.25 -39.324219 224.046875 -39.78125 L 224.027344 -39.796875 L 224.011719 -39.816406 L 223.992188 -39.84375 L 223.972656 -39.863281 L 223.972656 -39.882812 L 223.953125 -39.902344 L 223.953125 121.472656 L 223.972656 121.453125 L 223.992188 121.425781 C 224.089844 121.28125 224.351562 121.175781 224.667969 121.058594 C 229.808594 120.414062 238.941406 119.035156 239.546875 110.941406 C 239.449219 106.730469 237.589844 103.964844 231.976562 103.199219 C 227.851562 103.484375 224.910156 107.171875 225.386719 111.21875 C 225.191406 112.308594 225.785156 114.449219 224.574219 114.6875 C 216.664062 115.355469 208.03125 119.917969 207.742188 123.191406 L 207.722656 123.191406 L 207.703125 123.210938 L 207.664062 123.230469 L 207.625 123.230469 C 207.605469 123.234375 207.585938 123.238281 207.566406 123.246094 L 207.453125 123.246094 C 207.429688 123.242188 207.40625 123.238281 207.378906 123.230469 C 206.867188 123.089844 206.203125 122.316406 206.308594 121.21875 C 206.007812 115.566406 204.011719 109.167969 200.882812 104.242188 C 199.769531 103.214844 199.277344 102.800781 198.964844 102.753906 C 198.953125 102.75 198.9375 102.753906 198.921875 102.753906 L 198.808594 102.753906 C 159.449219 102.730469 127.558594 70.808594 127.578125 31.449219 C 127.597656 -7.910156 159.523438 -39.800781 198.882812 -39.78125 C 198.863281 -39.769531 198.84375 -39.761719 198.824219 -39.75 C 198.585938 -39.574219 198.296875 -39.199219 197.660156 -38.78125 C 196.578125 -37.652344 196.386719 -36.863281 196.453125 -34.597656 C 196.511719 -34.386719 198.5 -29.277344 200.179688 -25.695312 C 201.316406 -21.980469 202.363281 -17.722656 201.59375 -13.703125 C 198.9375 -8.390625 193.601562 -3.621094 188.449219 -1.035156 C 185.824219 -0.261719 183.558594 -0.523438 182.953125 -1.054688 L 182.933594 -1.070312 C 181.425781 -2.007812 181.394531 -3.660156 181.484375 -3.953125 L 181.484375 -3.972656 L 181.503906 -3.988281 C 185.851562 -6.78125 190.816406 -9.035156 194.703125 -16.570312 C 195.851562 -19.453125 196.203125 -21.179688 195.0625 -25.632812 C 194.617188 -27.289062 194.066406 -28.652344 192.839844 -29.832031 L 192.859375 -29.851562 C 193.597656 -30.167969 195.519531 -28.871094 195.816406 -29.671875 C 195.359375 -31.800781 193.800781 -34.652344 192.03125 -36.113281 C 190.480469 -37.410156 188.796875 -37.558594 187.378906 -36.359375 C 185.78125 -35.542969 185.441406 -32.601562 186.210938 -30.027344 C 187.066406 -28.085938 189.371094 -27.75 191.011719 -23.847656 L 191.011719 -23.828125 C 191.046875 -23.617188 191.578125 -20.914062 190.75 -19.835938 C 190.078125 -17.910156 181.460938 -11.644531 180.84375 -11.265625 C 180.839844 -11.257812 180.796875 -11.234375 180.789062 -11.226562 L 180.769531 -11.207031 C 180.761719 -11.203125 180.757812 -11.199219 180.75 -11.1875 C 180.746094 -11.183594 180.738281 -11.179688 180.730469 -11.171875 L 180.691406 -11.171875 C 180.6875 -11.175781 180.679688 -11.179688 180.671875 -11.1875 L 180.671875 -11.207031 C 172.785156 -11.195312 166.378906 -17.585938 166.367188 -25.476562 C 166.359375 -33.363281 172.746094 -39.769531 180.636719 -39.78125 C 180.609375 -39.957031 180.65625 -40.332031 180.636719 -40.976562 C 180.578125 -42.148438 181.105469 -44.808594 181.070312 -45.265625 L 181.070312 -45.28125 L 181.050781 -45.300781 L 181.050781 -45.320312 L 181.03125 -45.320312 C 178.179688 -43.628906 177.238281 -38.425781 176.71875 -36.886719 C 169.503906 -32.289062 161.304688 -28.871094 156.589844 -24.214844 C 154.132812 -20.679688 173.523438 -28.277344 175.777344 -29.199219 C 175.796875 -29.1875 175.816406 -29.160156 175.835938 -29.121094 C 176.261719 -28.691406 176.300781 -27.171875 177.585938 -25.808594 C 179.601562 -23.292969 183.886719 -21.742188 188.054688 -22.707031 C 195.046875 -25.035156 199.074219 -29.425781 203.175781 -34.296875 C 203.761719 -35.085938 204.683594 -35.703125 205.53125 -35.09375 C 208.347656 -29.28125 216.472656 -25.144531 226.980469 -24.71875 C 229.410156 -27.441406 228.246094 -28.78125 227.257812 -29.351562 C 226.957031 -29.5625 222.035156 -31.308594 221.273438 -33.066406 C 220.789062 -34.703125 221.960938 -36.15625 224.304688 -37.246094 C 231.046875 -38 237.679688 -38.835938 244.09375 -40.734375 C 244.160156 -42.722656 245.429688 -45.691406 246.28125 -46.984375 C 246.871094 -47.878906 247.25 -47.96875 247.390625 -48.09375 Z M 229.652344 110.558594 C 229.667969 110.484375 229.691406 110.453125 229.726562 110.382812 C 229.738281 110.363281 229.75 110.355469 229.765625 110.308594 L 229.785156 110.289062 C 229.8125 110.25 229.84375 110.214844 229.878906 110.183594 C 230.011719 110.078125 230.207031 110.007812 230.425781 109.96875 C 230.890625 109.933594 231.507812 110.074219 232.097656 110.386719 C 232.957031 110.847656 233.484375 111.535156 233.417969 112.039062 C 233.414062 112.050781 233.421875 112.066406 233.417969 112.113281 C 233.414062 112.125 233.382812 112.140625 233.378906 112.191406 L 233.359375 112.265625 C 233.355469 112.273438 233.34375 112.292969 233.339844 112.292969 C 233.335938 112.300781 233.328125 112.3125 233.320312 112.328125 C 233.289062 112.367188 233.25 112.4375 233.207031 112.472656 C 232.796875 112.828125 231.84375 112.753906 230.949219 112.292969 C 230.097656 111.839844 229.574219 111.148438 229.632812 110.648438 C 229.632812 110.636719 229.648438 110.617188 229.648438 110.570312 Z M 221.046875 130.429688 C 218.738281 131.15625 216.519531 131.726562 216.511719 134.800781 C 216.8125 136.324219 216.746094 137.121094 216.492188 137.492188 C 216.46875 137.519531 216.445312 137.566406 216.417969 137.597656 L 216.398438 137.617188 L 216.378906 137.632812 C 216.375 137.640625 216.367188 137.644531 216.363281 137.652344 L 216.34375 137.671875 C 216.328125 137.675781 216.316406 137.679688 216.304688 137.691406 C 216.269531 137.71875 216.230469 137.71875 216.191406 137.765625 C 216.15625 137.773438 216.113281 137.773438 216.078125 137.785156 C 215.527344 137.859375 214.730469 137.375 214.136719 137.089844 C 212.714844 136.148438 208.71875 133.863281 208.148438 128.96875 C 208.066406 127.863281 208.964844 126.910156 210.410156 126.816406 C 210.480469 126.8125 210.539062 126.816406 210.613281 126.816406 L 210.652344 126.816406 C 213.050781 127.414062 216.585938 127.480469 219.65625 127.769531 C 222.152344 127.910156 223.390625 129.71875 221.046875 130.476562 Z M 170.546875 123.660156 C 170.488281 124.542969 173.1875 125.617188 173.351562 127.652344 C 173.738281 128.492188 172.773438 131.183594 173.578125 131.433594 C 174.316406 131.71875 175.335938 129.574219 175.722656 127.582031 C 175.9375 126.492188 174.796875 122.675781 172.863281 121.992188 C 172.558594 121.917969 172.25 121.886719 171.941406 121.917969 C 171.003906 121.992188 170.167969 122.441406 170.546875 123.65625 Z M 213.925781 111.230469 C 216.402344 112.320312 222.308594 111.679688 220.871094 108.164062 C 220.871094 107.84375 220.777344 106.742188 220.742188 106.445312 C 220.488281 105.902344 220.023438 105.695312 219.574219 105.765625 C 219.125 105.84375 218.695312 106.183594 218.539062 106.738281 C 218.4375 107.105469 218.730469 107.714844 218.371094 107.902344 C 218.167969 108.117188 217.359375 107.976562 217.390625 106.964844 C 217.390625 106.644531 217.132812 106.285156 216.976562 106.078125 C 216.820312 105.972656 216.738281 105.9375 216.449219 105.9375 C 216.105469 105.945312 216.101562 106.042969 215.90625 106.300781 C 215.824219 106.550781 215.71875 106.84375 215.71875 107.152344 C 215.675781 107.511719 215.535156 107.636719 215.246094 107.691406 C 214.925781 107.691406 214.996094 107.726562 214.738281 107.550781 C 214.589844 107.371094 214.378906 107.335938 214.378906 107.0625 C 214.378906 106.816406 214.320312 106.34375 214.230469 106.164062 C 214.097656 105.984375 213.859375 105.949219 213.609375 105.878906 C 212.257812 105.886719 212.175781 107.300781 212.253906 107.839844 C 212.15625 107.945312 212.085938 110.5 213.929688 111.207031 Z M 234.910156 86.074219 C 239.066406 91.222656 243.066406 96.398438 246.925781 101.746094 C 247.527344 105.722656 247.976562 109.609375 248.261719 113.480469 C 248.890625 121.96875 249.078125 132.535156 248.507812 141.472656 C 250.234375 141.546875 252.996094 138.902344 253.96875 135.050781 C 254.601562 129.722656 253.746094 118.847656 253.6875 115.699219 C 253.648438 114.398438 253.5625 112.839844 253.460938 111.207031 C 305.230469 238.9375 258.675781 385.429688 142.667969 459.84375 C 26.660156 534.257812 -125.898438 515.488281 -220.414062 415.175781 C -314.925781 314.863281 -324.585938 161.457031 -243.402344 50.082031 C -162.21875 -61.296875 -13.222656 -99.054688 111.207031 -39.78125 C 112.765625 -40.460938 112.421875 -48.554688 111.507812 -49.691406 C 108.085938 -56.480469 103.355469 -63.183594 101.847656 -65.761719 C 101.300781 -66.6875 99.449219 -69.289062 97.253906 -72.285156 C 96.847656 -76.5625 96.410156 -80.183594 96.121094 -81.277344 C 95.414062 -85.796875 98.136719 -80.769531 97.761719 -83.394531 C 96.878906 -87.90625 94.175781 -90.976562 90.980469 -95.109375 C 89.953125 -96.453125 89.976562 -96.726562 88.382812 -94.789062 C 87.433594 -92.800781 87.445312 -91.152344 87.722656 -89.601562 C 96.757812 -84.34375 102.140625 -74.519531 101.714844 -64.074219 C 101.285156 -53.628906 95.113281 -44.28125 85.679688 -39.78125 L 80.460938 -43.855469 C 79.742188 -44.328125 78.367188 -45.0625 77.316406 -44.96875 C 76.6875 -44.894531 76.1875 -44.574219 76 -43.71875 C 75.746094 -41.703125 75.878906 -40.609375 76.242188 -38.929688 C 76.523438 -37.808594 78.292969 -35.9375 79.164062 -34.851562 Z M 243.710938 85.792969 C 243.808594 86.230469 243.921875 86.664062 243.992188 87.109375 C 244.230469 88.070312 244.433594 89.023438 244.652344 89.972656 C 243.738281 88.8125 242.980469 87.875 242.65625 87.542969 C 240.585938 85.277344 242.703125 86.058594 243.710938 85.792969 Z M 243.710938 85.792969 "/>
</g>
</svg>
