<?xml version="1.0" encoding="UTF-8"?>
<svg xmlns="http://www.w3.org/2000/svg" xmlns:xlink="http://www.w3.org/1999/xlink" width="px" height="px" viewBox="0 0 400 200" version="1.1">
<g id="surface1">
<path style=" stroke:none;fill-rule:nonzero;fill:rgb(0%,31.764706%,72.941176%);fill-opacity:1;" d="M 0 200 L 0 0 L 400 0 Z M 0 200 "/>
<path style=" stroke:none;fill-rule:nonzero;fill:rgb(12.941176%,35.686275%,20%);fill-opacity:1;" d="M 0 200 L 400 200 L 400 0 Z M 0 200 "/>
<path style="fill-rule:nonzero;fill:rgb(0%,0%,0%);fill-opacity:1;stroke-width:36;stroke-linecap:butt;stroke-linejoin:miter;stroke:rgb(98.823529%,81.960784%,8.627451%);stroke-opacity:1;stroke-miterlimit:4;" d="M 0 400 L 800 0 " transform="matrix(0.5,0,0,0.5,0,0)"/>
<path style=" stroke:none;fill-rule:nonzero;fill:rgb(100%,100%,100%);fill-opacity:1;" d="M 70 40 L 63.820312 59.019531 L 73.332031 62.109375 Z M 70 40 "/>
<path style=" stroke:none;fill-rule:nonzero;fill:rgb(100%,100%,100%);fill-opacity:1;" d="M 70 40 L 76.179688 59.019531 L 66.667969 62.109375 Z M 70 40 "/>
<path style=" stroke:none;fill-rule:nonzero;fill:rgb(100%,100%,100%);fill-opacity:1;" d="M 89.019531 53.820312 L 69.019531 53.820312 L 69.019531 63.820312 Z M 89.019531 53.820312 "/>
<path style=" stroke:none;fill-rule:nonzero;fill:rgb(100%,100%,100%);fill-opacity:1;" d="M 89.019531 53.820312 L 72.839844 65.574219 L 66.964844 57.484375 Z M 89.019531 53.820312 "/>
<path style=" stroke:none;fill-rule:nonzero;fill:rgb(100%,100%,100%);fill-opacity:1;" d="M 50.980469 53.820312 L 67.160156 65.574219 L 73.035156 57.484375 Z M 50.980469 53.820312 "/>
<path style=" stroke:none;fill-rule:nonzero;fill:rgb(100%,100%,100%);fill-opacity:1;" d="M 50.980469 53.820312 L 70.980469 53.820312 L 70.980469 63.820312 Z M 50.980469 53.820312 "/>
<path style=" stroke:none;fill-rule:nonzero;fill:rgb(100%,100%,100%);fill-opacity:1;" d="M 81.753906 76.179688 L 75.574219 57.160156 L 66.066406 60.25 Z M 81.753906 76.179688 "/>
<path style=" stroke:none;fill-rule:nonzero;fill:rgb(100%,100%,100%);fill-opacity:1;" d="M 81.753906 76.179688 L 65.574219 64.425781 L 71.453125 56.335938 Z M 81.753906 76.179688 "/>
<path style=" stroke:none;fill-rule:nonzero;fill:rgb(100%,100%,100%);fill-opacity:1;" d="M 58.246094 76.179688 L 74.425781 64.425781 L 68.546875 56.335938 Z M 58.246094 76.179688 "/>
<path style=" stroke:none;fill-rule:nonzero;fill:rgb(100%,100%,100%);fill-opacity:1;" d="M 58.246094 76.179688 L 64.425781 57.160156 L 73.933594 60.25 Z M 58.246094 76.179688 "/>
<path style=" stroke:none;fill-rule:nonzero;fill:rgb(100%,100%,100%);fill-opacity:1;" d="M 30.519531 6.160156 L 24.335938 25.179688 L 33.847656 28.269531 Z M 30.519531 6.160156 "/>
<path style=" stroke:none;fill-rule:nonzero;fill:rgb(100%,100%,100%);fill-opacity:1;" d="M 30.519531 6.160156 L 36.699219 25.179688 L 27.1875 28.269531 Z M 30.519531 6.160156 "/>
<path style=" stroke:none;fill-rule:nonzero;fill:rgb(100%,100%,100%);fill-opacity:1;" d="M 49.539062 19.980469 L 29.539062 19.980469 L 29.539062 29.980469 Z M 49.539062 19.980469 "/>
<path style=" stroke:none;fill-rule:nonzero;fill:rgb(100%,100%,100%);fill-opacity:1;" d="M 49.539062 19.980469 L 33.359375 31.734375 L 27.480469 23.644531 Z M 49.539062 19.980469 "/>
<path style=" stroke:none;fill-rule:nonzero;fill:rgb(100%,100%,100%);fill-opacity:1;" d="M 11.496094 19.980469 L 27.675781 31.734375 L 33.554688 23.644531 Z M 11.496094 19.980469 "/>
<path style=" stroke:none;fill-rule:nonzero;fill:rgb(100%,100%,100%);fill-opacity:1;" d="M 11.496094 19.980469 L 31.496094 19.980469 L 31.496094 29.980469 Z M 11.496094 19.980469 "/>
<path style=" stroke:none;fill-rule:nonzero;fill:rgb(100%,100%,100%);fill-opacity:1;" d="M 42.273438 42.339844 L 36.09375 23.320312 L 26.582031 26.410156 Z M 42.273438 42.339844 "/>
<path style=" stroke:none;fill-rule:nonzero;fill:rgb(100%,100%,100%);fill-opacity:1;" d="M 42.273438 42.339844 L 26.09375 30.585938 L 31.972656 22.496094 Z M 42.273438 42.339844 "/>
<path style=" stroke:none;fill-rule:nonzero;fill:rgb(100%,100%,100%);fill-opacity:1;" d="M 18.761719 42.339844 L 34.941406 30.585938 L 29.066406 22.496094 Z M 18.761719 42.339844 "/>
<path style=" stroke:none;fill-rule:nonzero;fill:rgb(100%,100%,100%);fill-opacity:1;" d="M 18.761719 42.339844 L 24.941406 23.320312 L 34.453125 26.410156 Z M 18.761719 42.339844 "/>
<path style=" stroke:none;fill-rule:nonzero;fill:rgb(100%,100%,100%);fill-opacity:1;" d="M 109.480469 73.839844 L 103.300781 92.863281 L 112.8125 95.953125 Z M 109.480469 73.839844 "/>
<path style=" stroke:none;fill-rule:nonzero;fill:rgb(100%,100%,100%);fill-opacity:1;" d="M 109.480469 73.839844 L 115.664062 92.863281 L 106.152344 95.953125 Z M 109.480469 73.839844 "/>
<path style=" stroke:none;fill-rule:nonzero;fill:rgb(100%,100%,100%);fill-opacity:1;" d="M 128.503906 87.660156 L 108.503906 87.660156 L 108.503906 97.660156 Z M 128.503906 87.660156 "/>
<path style=" stroke:none;fill-rule:nonzero;fill:rgb(100%,100%,100%);fill-opacity:1;" d="M 128.503906 87.660156 L 112.324219 99.414062 L 106.445312 91.324219 Z M 128.503906 87.660156 "/>
<path style=" stroke:none;fill-rule:nonzero;fill:rgb(100%,100%,100%);fill-opacity:1;" d="M 90.460938 87.660156 L 106.640625 99.414062 L 112.519531 91.324219 Z M 90.460938 87.660156 "/>
<path style=" stroke:none;fill-rule:nonzero;fill:rgb(100%,100%,100%);fill-opacity:1;" d="M 90.460938 87.660156 L 110.460938 87.660156 L 110.460938 97.660156 Z M 90.460938 87.660156 "/>
<path style=" stroke:none;fill-rule:nonzero;fill:rgb(100%,100%,100%);fill-opacity:1;" d="M 121.238281 110.019531 L 115.058594 91 L 105.546875 94.089844 Z M 121.238281 110.019531 "/>
<path style=" stroke:none;fill-rule:nonzero;fill:rgb(100%,100%,100%);fill-opacity:1;" d="M 121.238281 110.019531 L 105.058594 98.265625 L 110.933594 90.175781 Z M 121.238281 110.019531 "/>
<path style=" stroke:none;fill-rule:nonzero;fill:rgb(100%,100%,100%);fill-opacity:1;" d="M 97.726562 110.019531 L 113.90625 98.265625 L 108.027344 90.175781 Z M 97.726562 110.019531 "/>
<path style=" stroke:none;fill-rule:nonzero;fill:rgb(100%,100%,100%);fill-opacity:1;" d="M 97.726562 110.019531 L 103.90625 91 L 113.417969 94.089844 Z M 97.726562 110.019531 "/>
<path style=" stroke:none;fill-rule:nonzero;fill:rgb(100%,100%,100%);fill-opacity:1;" d="M 109.480469 6.160156 L 115.664062 25.179688 L 106.152344 28.269531 Z M 109.480469 6.160156 "/>
<path style=" stroke:none;fill-rule:nonzero;fill:rgb(100%,100%,100%);fill-opacity:1;" d="M 109.480469 6.160156 L 103.300781 25.179688 L 112.8125 28.269531 Z M 109.480469 6.160156 "/>
<path style=" stroke:none;fill-rule:nonzero;fill:rgb(100%,100%,100%);fill-opacity:1;" d="M 90.460938 19.980469 L 110.460938 19.980469 L 110.460938 29.980469 Z M 90.460938 19.980469 "/>
<path style=" stroke:none;fill-rule:nonzero;fill:rgb(100%,100%,100%);fill-opacity:1;" d="M 90.460938 19.980469 L 106.640625 31.734375 L 112.519531 23.644531 Z M 90.460938 19.980469 "/>
<path style=" stroke:none;fill-rule:nonzero;fill:rgb(100%,100%,100%);fill-opacity:1;" d="M 128.503906 19.980469 L 112.324219 31.734375 L 106.445312 23.644531 Z M 128.503906 19.980469 "/>
<path style=" stroke:none;fill-rule:nonzero;fill:rgb(100%,100%,100%);fill-opacity:1;" d="M 128.503906 19.980469 L 108.503906 19.980469 L 108.503906 29.980469 Z M 128.503906 19.980469 "/>
<path style=" stroke:none;fill-rule:nonzero;fill:rgb(100%,100%,100%);fill-opacity:1;" d="M 97.726562 42.339844 L 103.90625 23.320312 L 113.417969 26.410156 Z M 97.726562 42.339844 "/>
<path style=" stroke:none;fill-rule:nonzero;fill:rgb(100%,100%,100%);fill-opacity:1;" d="M 97.726562 42.339844 L 113.90625 30.585938 L 108.027344 22.496094 Z M 97.726562 42.339844 "/>
<path style=" stroke:none;fill-rule:nonzero;fill:rgb(100%,100%,100%);fill-opacity:1;" d="M 121.238281 42.339844 L 105.058594 30.585938 L 110.933594 22.496094 Z M 121.238281 42.339844 "/>
<path style=" stroke:none;fill-rule:nonzero;fill:rgb(100%,100%,100%);fill-opacity:1;" d="M 121.238281 42.339844 L 115.058594 23.320312 L 105.546875 26.410156 Z M 121.238281 42.339844 "/>
<path style=" stroke:none;fill-rule:nonzero;fill:rgb(100%,100%,100%);fill-opacity:1;" d="M 30.519531 73.839844 L 36.699219 92.863281 L 27.1875 95.953125 Z M 30.519531 73.839844 "/>
<path style=" stroke:none;fill-rule:nonzero;fill:rgb(100%,100%,100%);fill-opacity:1;" d="M 30.519531 73.839844 L 24.335938 92.863281 L 33.847656 95.953125 Z M 30.519531 73.839844 "/>
<path style=" stroke:none;fill-rule:nonzero;fill:rgb(100%,100%,100%);fill-opacity:1;" d="M 11.496094 87.660156 L 31.496094 87.660156 L 31.496094 97.660156 Z M 11.496094 87.660156 "/>
<path style=" stroke:none;fill-rule:nonzero;fill:rgb(100%,100%,100%);fill-opacity:1;" d="M 11.496094 87.660156 L 27.675781 99.414062 L 33.554688 91.324219 Z M 11.496094 87.660156 "/>
<path style=" stroke:none;fill-rule:nonzero;fill:rgb(100%,100%,100%);fill-opacity:1;" d="M 49.539062 87.660156 L 33.359375 99.414062 L 27.480469 91.324219 Z M 49.539062 87.660156 "/>
<path style=" stroke:none;fill-rule:nonzero;fill:rgb(100%,100%,100%);fill-opacity:1;" d="M 49.539062 87.660156 L 29.539062 87.660156 L 29.539062 97.660156 Z M 49.539062 87.660156 "/>
<path style=" stroke:none;fill-rule:nonzero;fill:rgb(100%,100%,100%);fill-opacity:1;" d="M 18.761719 110.019531 L 24.941406 91 L 34.453125 94.089844 Z M 18.761719 110.019531 "/>
<path style=" stroke:none;fill-rule:nonzero;fill:rgb(100%,100%,100%);fill-opacity:1;" d="M 18.761719 110.019531 L 34.941406 98.265625 L 29.066406 90.175781 Z M 18.761719 110.019531 "/>
<path style=" stroke:none;fill-rule:nonzero;fill:rgb(100%,100%,100%);fill-opacity:1;" d="M 42.273438 110.019531 L 26.09375 98.265625 L 31.972656 90.175781 Z M 42.273438 110.019531 "/>
<path style=" stroke:none;fill-rule:nonzero;fill:rgb(100%,100%,100%);fill-opacity:1;" d="M 42.273438 110.019531 L 36.09375 91 L 26.582031 94.089844 Z M 42.273438 110.019531 "/>
</g>
</svg>
