<?xml version="1.0" encoding="UTF-8"?>
<svg xmlns="http://www.w3.org/2000/svg" xmlns:xlink="http://www.w3.org/1999/xlink" width="px" height="px" viewBox="0 0 2160 1440" version="1.1">
<g id="surface1">
<rect x="0" y="0" width="2160" height="1440" style="fill:rgb(92.941176%,16.078431%,22.352941%);fill-opacity:1;stroke:none;"/>
<path style=" stroke:none;fill-rule:nonzero;fill:rgb(100%,100%,100%);fill-opacity:1;" d="M 0 720 L 2160 720 L 2160 1440 L 0 1440 Z M 740.839844 360 C 802.109375 253.875 927.023438 202.132812 1045.390625 233.851562 C 1163.757812 265.566406 1246.066406 372.832031 1246.066406 495.375 C 1246.066406 617.917969 1163.757812 725.183594 1045.390625 756.898438 C 927.023438 788.617188 802.109375 736.875 740.839844 630.75 Z M 740.839844 360 "/>
<path style=" stroke:none;fill-rule:nonzero;fill:rgb(92.941176%,16.078431%,22.352941%);fill-opacity:1;" d="M 825.917969 360 C 883.820312 259.707031 1001.867188 210.8125 1113.730469 240.785156 C 1225.589844 270.757812 1303.371094 372.125 1303.371094 487.933594 C 1303.371094 603.742188 1225.589844 705.109375 1113.730469 735.082031 C 1001.867188 765.054688 883.820312 716.160156 825.917969 615.867188 Z M 825.917969 360 "/>
<path style=" stroke:none;fill-rule:nonzero;fill:rgb(100%,100%,100%);fill-opacity:1;" d="M 503.597656 366.53125 L 466.816406 338.316406 L 430.046875 366.546875 L 444.203125 321.046875 L 407.304688 293.003906 L 452.835938 293.097656 L 466.800781 247.539062 L 480.785156 293.09375 L 526.316406 292.980469 L 489.425781 321.039062 Z M 503.597656 366.53125 "/>
<path style=" stroke:none;fill-rule:nonzero;fill:rgb(100%,100%,100%);fill-opacity:1;" d="M 792.191406 366.53125 L 755.410156 338.316406 L 718.640625 366.546875 L 732.796875 321.046875 L 695.898438 293.003906 L 741.429688 293.097656 L 755.398438 247.539062 L 769.378906 293.09375 L 814.910156 292.980469 L 778.019531 321.039062 Z M 792.191406 366.53125 "/>
<path style=" stroke:none;fill-rule:nonzero;fill:rgb(100%,100%,100%);fill-opacity:1;" d="M 648.042969 259.425781 L 611.261719 231.210938 L 574.492188 259.441406 L 588.648438 213.941406 L 551.75 185.898438 L 597.28125 185.992188 L 611.246094 140.433594 L 625.230469 185.988281 L 670.757812 185.875 L 633.871094 213.933594 Z M 648.042969 259.425781 "/>
<path style=" stroke:none;fill-rule:nonzero;fill:rgb(100%,100%,100%);fill-opacity:1;" d="M 557.597656 537.90625 L 520.816406 509.691406 L 484.046875 537.921875 L 498.203125 492.421875 L 461.304688 464.378906 L 506.835938 464.472656 L 520.800781 418.910156 L 534.785156 464.46875 L 580.316406 464.355469 L 543.425781 492.414062 Z M 557.597656 537.90625 "/>
<path style=" stroke:none;fill-rule:nonzero;fill:rgb(100%,100%,100%);fill-opacity:1;" d="M 738.191406 537.90625 L 701.410156 509.691406 L 664.640625 537.921875 L 678.796875 492.421875 L 641.898438 464.378906 L 687.429688 464.472656 L 701.398438 418.910156 L 715.378906 464.46875 L 760.910156 464.355469 L 724.019531 492.414062 Z M 738.191406 537.90625 "/>
</g>
</svg>
