<?xml version="1.0" encoding="UTF-8"?>
<svg xmlns="http://www.w3.org/2000/svg" xmlns:xlink="http://www.w3.org/1999/xlink" width="px" height="px" viewBox="0 0 600 300" version="1.1">
<g id="surface1">
<rect x="0" y="0" width="600" height="300" style="fill:rgb(100%,0%,0%);fill-opacity:1;stroke:none;"/>
<path style=" stroke:none;fill-rule:nonzero;fill:rgb(0%,36.078431%,89.803922%);fill-opacity:1;" d="M 0 0 L 600 0 L 600 200 L 0 200 Z M 0 0 "/>
<path style=" stroke:none;fill-rule:nonzero;fill:rgb(100%,100%,100%);fill-opacity:1;" d="M 0 0 L 600 0 L 600 100 L 0 100 Z M 0 0 "/>
<path style=" stroke:none;fill-rule:evenodd;fill:rgb(0%,36.078431%,89.803922%);fill-opacity:1;" d="M 150.007812 52.605469 C 149.335938 52.605469 148.667969 52.621094 148 52.640625 C 135.011719 52.976562 122.816406 56.332031 114.136719 60.421875 L 114.136719 60.433594 C 113.1875 60.828125 112.257812 61.226562 111.371094 61.625 L 114.355469 108.371094 C 116.425781 132.796875 132.34375 147.019531 150.03125 152.605469 C 167.71875 147.019531 183.636719 132.796875 185.707031 108.371094 L 188.675781 61.773438 C 206.960938 74.703125 217.71875 95.796875 217.453125 118.1875 C 217.183594 140.582031 205.921875 161.414062 187.332031 173.898438 L 187.332031 173.886719 C 178.207031 169.589844 165.207031 166.097656 151.476562 166.074219 L 151.429688 166.074219 Z M 150.007812 52.605469 "/>
<path style=" stroke:none;fill-rule:evenodd;fill:rgb(100%,100%,100%);fill-opacity:1;" d="M 150.03125 84.953125 L 141.300781 102 L 135.65625 94.667969 L 120.910156 114.15625 C 121.175781 115.367188 121.488281 116.535156 121.832031 117.675781 C 123.476562 120.457031 126.644531 123.628906 130.703125 123.628906 C 133.921875 123.628906 137.144531 121.050781 140.367188 121.050781 C 143.589844 121.050781 146.808594 123.628906 150.03125 123.628906 C 153.253906 123.628906 156.472656 121.050781 159.695312 121.050781 C 162.917969 121.050781 166.140625 123.628906 169.359375 123.628906 C 173.382812 123.628906 176.527344 120.515625 178.1875 117.753906 C 178.542969 116.582031 178.859375 115.378906 179.132812 114.132812 L 164.40625 94.667969 L 158.761719 102 Z M 140.367188 123.628906 C 137.144531 123.628906 133.921875 126.207031 130.703125 126.207031 C 128.152344 126.207031 125.960938 125.304688 124.265625 124.023438 C 138.039062 173.574219 109.035156 224.910156 59.484375 238.683594 C 9.929688 252.457031 -41.402344 223.453125 -55.175781 173.898438 C -53.847656 174.726562 -52.339844 175.285156 -50.667969 175.285156 C -47.445312 175.285156 -44.222656 172.707031 -41.003906 172.707031 C -37.78125 172.707031 -34.558594 175.285156 -31.339844 175.285156 C -28.117188 175.285156 -24.894531 172.707031 -21.671875 172.707031 C -18.453125 172.707031 -15.230469 175.285156 -12.007812 175.285156 C -10.363281 175.285156 -8.875 174.738281 -7.558594 173.929688 C -31.800781 173.640625 -51.304688 153.914062 -51.324219 129.667969 C -51.34375 105.425781 -31.875 85.667969 -7.632812 85.332031 C 16.609375 85 36.617188 104.214844 37.265625 128.449219 C 37.910156 152.6875 18.957031 172.941406 -5.269531 173.898438 C -6.957031 175.15625 -9.128906 176.039062 -11.648438 176.039062 C -14.867188 176.039062 -18.089844 173.460938 -21.3125 173.460938 C -24.535156 173.460938 -27.753906 176.039062 -30.976562 176.039062 C -34.199219 176.039062 -37.417969 173.460938 -40.640625 173.460938 Z M 140.367188 129.085938 C 137.144531 129.085938 133.921875 131.664062 130.703125 131.664062 C 130 131.664062 129.335938 131.582031 128.691406 131.457031 C 134.265625 138.902344 141.867188 143.886719 150.023438 146.753906 C 158.164062 143.890625 165.753906 138.90625 171.324219 131.46875 C 170.695312 131.589844 170.042969 131.664062 169.359375 131.664062 C 166.140625 131.664062 162.917969 129.085938 159.695312 129.085938 C 156.472656 129.085938 153.253906 131.664062 150.03125 131.664062 C 146.808594 131.664062 143.589844 129.085938 140.367188 129.085938 Z M 140.367188 129.085938 "/>
<path style=" stroke:none;fill-rule:evenodd;fill:rgb(100%,89.803922%,0%);fill-opacity:1;" d="M 135.5 58.863281 L 142.808594 58.863281 L 139.152344 65.191406 "/>
<path style=" stroke:none;fill-rule:evenodd;fill:rgb(100%,89.803922%,0%);fill-opacity:1;" d="M 135.5 63.078125 L 142.808594 63.078125 L 139.152344 56.75 "/>
<path style=" stroke:none;fill-rule:evenodd;fill:rgb(100%,89.803922%,0%);fill-opacity:1;" d="M 157.253906 58.863281 L 164.5625 58.863281 L 160.910156 65.191406 "/>
<path style=" stroke:none;fill-rule:evenodd;fill:rgb(100%,89.803922%,0%);fill-opacity:1;" d="M 157.253906 63.078125 L 164.5625 63.078125 L 160.910156 56.75 "/>
<path style=" stroke:none;fill-rule:evenodd;fill:rgb(100%,89.803922%,0%);fill-opacity:1;" d="M 146.375 73.429688 L 153.683594 73.429688 L 150.03125 79.757812 "/>
<path style=" stroke:none;fill-rule:evenodd;fill:rgb(100%,89.803922%,0%);fill-opacity:1;" d="M 146.375 77.648438 L 153.683594 77.648438 L 150.03125 71.320312 "/>
<path style=" stroke:none;fill-rule:evenodd;fill:rgb(100%,0%,0%);fill-opacity:1;" d="M 150 52.601562 Z M 114.101562 60.449219 C 108.984375 40.570312 109.382812 19.671875 115.25 0 L 118.25 46.75 C 120.300781 71.199219 136.25 85.398438 153.898438 91 C 171.601562 85.398438 187.5 71.199219 189.601562 46.75 L 192.550781 0.148438 C 192.117188 0.105469 191.683594 0.0546875 191.25 0 L 188.449219 46.351562 C 188.53125 26.820312 200.597656 9.34375 218.832031 2.34375 C 237.0625 -4.652344 257.722656 0.257812 270.851562 14.71875 C 283.980469 29.175781 286.886719 50.210938 278.167969 67.6875 C 269.453125 85.164062 250.898438 95.492188 231.449219 93.699219 Z M 114.101562 60.449219 "/>
</g>
</svg>
