<?xml version="1.0" encoding="UTF-8"?>
<svg xmlns="http://www.w3.org/2000/svg" xmlns:xlink="http://www.w3.org/1999/xlink" width="px" height="px" viewBox="0 0 450 300" version="1.1">
<g id="surface1">
<rect x="0" y="0" width="450" height="300" style="fill:rgb(93.333333%,10.980392%,14.509804%);fill-opacity:1;stroke:none;"/>
<path style=" stroke:none;fill-rule:nonzero;fill:rgb(4.313725%,30.588235%,63.529412%);fill-opacity:1;" d="M 0 0 L 450 0 L 450 200 L 0 200 Z M 0 0 "/>
<path style=" stroke:none;fill-rule:nonzero;fill:rgb(100%,100%,100%);fill-opacity:1;" d="M 0 0 L 450 0 L 450 100 L 0 100 Z M 0 0 "/>
<path style=" stroke:none;fill-rule:nonzero;fill:rgb(100%,100%,100%);fill-opacity:1;" d="M 196.738281 70.5 L 73.179688 70.5 L 72.753906 74.53125 C 72.664062 75.40625 70.5 96.515625 70.5 142.875 C 70.5 164.65625 77.863281 183.871094 92.386719 199.988281 C 102.558594 211.28125 115.847656 220.789062 133.007812 229.054688 L 134.957031 229.996094 L 136.910156 229.054688 C 154.070312 220.789062 167.359375 211.28125 177.535156 199.988281 C 192.054688 183.871094 199.421875 164.65625 199.421875 142.875 C 199.421875 96.515625 197.257812 75.40625 197.164062 74.53125 Z M 196.738281 70.5 "/>
<path style=" stroke:none;fill-rule:nonzero;fill:rgb(93.333333%,10.980392%,14.509804%);fill-opacity:1;" d="M 134.957031 225 C 110.289062 213.117188 75 189.53125 75 142.875 C 75 96.21875 77.230469 75 77.230469 75 L 192.6875 75 C 192.6875 75 194.917969 96.21875 194.917969 142.875 C 194.917969 189.53125 159.628906 213.117188 134.957031 225 Z M 134.957031 225 "/>
<path style=" stroke:none;fill-rule:nonzero;fill:rgb(100%,100%,100%);fill-opacity:1;" d="M 140.242188 130.640625 C 146.921875 130.75 159.953125 131.011719 171.558594 127.128906 C 171.558594 127.128906 171.253906 131.28125 171.253906 136.117188 C 171.253906 140.957031 171.558594 145.109375 171.558594 145.109375 C 160.914062 141.546875 147.769531 141.472656 140.242188 141.570312 L 140.242188 167.339844 L 129.691406 167.339844 L 129.691406 141.570312 C 122.164062 141.472656 109.015625 141.546875 98.371094 145.109375 C 98.371094 145.109375 98.679688 140.957031 98.679688 136.117188 C 98.679688 131.28125 98.371094 127.128906 98.371094 127.128906 C 109.976562 131.011719 123.011719 130.75 129.691406 130.640625 L 129.691406 114.457031 C 123.601562 114.402344 114.828125 114.695312 104.910156 118.015625 C 104.910156 118.015625 105.214844 113.863281 105.214844 109.023438 C 105.214844 104.183594 104.910156 100.03125 104.910156 100.03125 C 114.8125 103.347656 123.578125 103.640625 129.664062 103.589844 C 129.351562 93.339844 126.363281 80.425781 126.363281 80.425781 C 126.363281 80.425781 132.507812 80.902344 134.964844 80.902344 C 137.425781 80.902344 143.566406 80.425781 143.566406 80.425781 C 143.566406 80.425781 140.582031 93.339844 140.269531 103.589844 C 146.355469 103.640625 155.117188 103.347656 165.023438 100.03125 C 165.023438 100.03125 164.71875 104.183594 164.71875 109.023438 C 164.71875 113.859375 165.023438 118.011719 165.023438 118.011719 C 155.105469 114.695312 146.332031 114.402344 140.242188 114.457031 Z M 140.242188 130.640625 "/>
<path style=" stroke:none;fill-rule:nonzero;fill:rgb(4.313725%,30.588235%,63.529412%);fill-opacity:1;" d="M 134.953125 164.546875 C 122.527344 164.546875 115.871094 181.78125 115.871094 181.78125 C 115.871094 181.78125 112.179688 173.609375 102.039062 173.609375 C 95.179688 173.609375 90.125 179.710938 86.910156 185.359375 C 99.390625 205.210938 119.300781 217.464844 134.953125 225 C 150.605469 217.460938 170.527344 205.214844 183.007812 185.359375 C 179.792969 179.710938 174.738281 173.609375 167.878906 173.609375 C 157.742188 173.609375 154.03125 181.78125 154.03125 181.78125 C 154.03125 181.78125 147.378906 164.546875 134.953125 164.546875 Z M 134.953125 164.546875 "/>
</g>
</svg>
