<?xml version="1.0" encoding="UTF-8"?>
<svg xmlns="http://www.w3.org/2000/svg" xmlns:xlink="http://www.w3.org/1999/xlink" width="px" height="px" viewBox="0 0 337 225" version="1.1">
<g id="surface1">
<rect x="0" y="0" width="337" height="225" style="fill:rgb(0.392157%,16.470588%,52.941176%);fill-opacity:1;stroke:none;"/>
<path style=" stroke:none;fill-rule:nonzero;fill:rgb(86.27451%,9.019608%,11.372549%);fill-opacity:1;" d="M 0 0 L 337 0 L 337 112.5 L 0 112.5 Z M 0 0 "/>
<path style=" stroke:none;fill-rule:nonzero;fill:rgb(100%,100%,100%);fill-opacity:1;" d="M 0 0 L 0 225 L 149.777344 112.5 Z M 0 0 "/>
<path style=" stroke:none;fill-rule:nonzero;fill:rgb(100%,100%,0%);fill-opacity:1;" d="M 75.644531 84.90625 L 75.691406 83.164062 C 75.691406 83.164062 74.757812 81.675781 75.839844 80.074219 C 75.839844 80.074219 73.539062 78.855469 74.074219 76.945312 C 74.074219 76.945312 71.992188 76.410156 72.144531 74.117188 C 72.144531 74.117188 69.898438 73.960938 69.664062 72.046875 C 69.664062 72.046875 67.417969 72.414062 66.429688 70.550781 C 66.429688 70.550781 64.234375 70.976562 63.617188 69.4375 C 63.617188 69.4375 61.484375 70.179688 60.222656 68.367188 C 60.222656 68.367188 57.972656 69.28125 57.027344 67.570312 C 56.097656 69.273438 53.847656 68.367188 53.847656 68.367188 C 52.597656 70.171875 50.449219 69.421875 50.449219 69.421875 C 49.855469 70.96875 47.667969 70.53125 47.667969 70.53125 C 46.683594 72.398438 44.4375 72.027344 44.4375 72.027344 C 44.21875 73.9375 41.972656 74.09375 41.972656 74.09375 C 42.148438 76.394531 40.070312 76.914062 40.070312 76.914062 C 40.621094 78.824219 38.320312 80.042969 38.320312 80.042969 C 39.429688 81.652344 38.507812 83.128906 38.507812 83.128906 L 38.453125 84.734375 L 75.652344 84.90625 "/>
<path style="fill-rule:nonzero;fill:rgb(97.647059%,85.098039%,5.882353%);fill-opacity:1;stroke-width:0.271;stroke-linecap:butt;stroke-linejoin:miter;stroke:rgb(0%,0%,0%);stroke-opacity:1;stroke-miterlimit:4;" d="M 377.171653 843.105673 L 377.264839 839.646722 C 377.264839 839.646722 375.408875 836.691877 377.567695 833.512123 C 377.567695 833.512123 372.986027 831.092408 374.049906 827.29997 C 374.049906 827.29997 369.910874 826.237467 370.21373 821.68499 C 370.21373 821.68499 365.748545 821.37477 365.290378 817.574577 C 365.290378 817.574577 360.817427 818.303594 358.852746 814.604221 C 358.852746 814.604221 354.488513 815.449571 353.261558 812.393905 C 353.261558 812.393905 349.029339 813.867449 346.513304 810.268899 C 346.513304 810.268899 342.040354 812.083685 340.161093 808.686777 C 338.312895 812.068174 333.839945 810.268899 333.839945 810.268899 C 331.354972 813.851938 327.083926 812.362883 327.083926 812.362883 C 325.903564 815.43406 321.554862 814.565444 321.554862 814.565444 C 319.59018 818.272572 315.132761 817.535799 315.132761 817.535799 C 314.690125 821.328237 310.232706 821.638457 310.232706 821.638457 C 310.582155 826.206445 306.450888 827.237926 306.450888 827.237926 C 307.545829 831.030364 302.971927 833.442324 302.971927 833.442324 C 305.17734 836.645344 303.344673 839.576922 303.344673 839.576922 L 303.235955 842.764431 L 377.187184 843.105673 Z M 377.171653 843.105673 " transform="matrix(0.503024,0,0,0.503675,-114.081739,-339.745)"/>
<path style=" stroke:none;fill-rule:nonzero;fill:rgb(86.27451%,9.019608%,11.372549%);fill-opacity:1;" d="M 74.777344 82.734375 C 68.933594 82.148438 62.207031 80.757812 57.011719 83.6875 C 53.53125 81.632812 48.683594 81.757812 44.554688 82.160156 C 42.316406 82.5625 39.679688 82.5625 37.335938 82.945312 L 36.96875 82.996094 C 32.71875 83.28125 28.863281 82.023438 25.171875 80.371094 C 26.34375 87.035156 27.644531 93.867188 28.285156 100.84375 C 29.679688 111.179688 23.402344 119.859375 25.976562 130.066406 C 27.511719 134.964844 32.894531 137.816406 37.816406 138.378906 C 42.585938 138.660156 47.515625 139.441406 51.929688 140.402344 C 52.769531 140.578125 53.765625 140.96875 54.34375 141.21875 C 55.558594 141.726562 56.449219 142.476562 57.230469 143.277344 C 59.894531 140.496094 63.796875 139.722656 67.648438 139.316406 C 74.59375 138.503906 83.148438 138.945312 87.398438 132.648438 L 87.398438 132.292969 C 89.710938 128.808594 89.402344 123.496094 88.402344 119.550781 C 88.335938 118.171875 87.96875 116.960938 87.769531 115.648438 C 83.527344 104.433594 87.160156 91.816406 88.984375 80.511719 C 86.753906 81.734375 84.269531 82.308594 81.789062 82.921875 C 79.8125 83.183594 77.605469 83.066406 75.601562 82.957031 L 74.773438 82.734375 M 83.503906 114.921875 "/>
<path style=" stroke:none;fill-rule:nonzero;fill:rgb(38.431373%,68.627451%,88.235294%);fill-opacity:1;" d="M 83.503906 114.921875 C 83.476562 115.660156 83.875 116.238281 84.019531 116.921875 C 84.828125 121.824219 85.613281 128.320312 80.574219 131.359375 C 74.996094 134.910156 67.683594 133.390625 61.234375 135.269531 C 59.945312 135.628906 58.167969 136.816406 57.261719 137.65625 C 56.679688 137.273438 56.09375 136.683594 55.34375 136.335938 C 50.035156 133.511719 43.132812 134.457031 37.140625 132.929688 C 34.132812 131.976562 30.992188 129.628906 30.230469 126.542969 C 28.269531 118.449219 32.964844 111.550781 32.410156 103.523438 C 32.050781 97.390625 31.019531 91.503906 29.609375 85.753906 C 34.292969 87.941406 39.714844 88.304688 44.980469 87.257812 C 48.882812 86.710938 53.425781 86.699219 57.082031 88.351562 C 59.09375 87.484375 61.453125 87.09375 63.625 86.855469 C 67.75 87.257812 72.1875 88.003906 76.4375 87.972656 C 79.277344 87.824219 81.855469 87.003906 84.324219 85.910156 C 82.859375 95.410156 80.046875 105.363281 83.5 114.921875 "/>
<path style=" stroke:none;fill-rule:nonzero;fill:rgb(100%,100%,100%);fill-opacity:1;" d="M 75.074219 116.816406 L 75.03125 107.878906 L 76.128906 107.878906 L 62.492188 99.058594 L 62.464844 94.476562 L 63.785156 94.476562 L 56.964844 89.585938 L 50.179688 94.472656 L 51.492188 94.472656 L 51.515625 99.050781 L 37.953125 107.863281 L 39.035156 107.867188 L 39.082031 116.796875 L 75.074219 116.820312 "/>
<path style="fill:none;stroke-width:1.164;stroke-linecap:butt;stroke-linejoin:miter;stroke:rgb(0%,0%,0%);stroke-opacity:1;stroke-miterlimit:4;" d="M 376.04565 906.460329 L 375.952463 888.715752 L 378.13458 888.715752 L 351.025083 871.203839 L 350.970724 862.106641 L 353.595476 862.106641 L 340.036845 852.396759 L 326.548103 862.098886 L 329.157325 862.098886 L 329.203918 871.188328 L 302.234201 888.68473 L 304.39302 888.692485 L 304.486207 906.421552 L 376.037884 906.468085 L 376.037884 906.460329 Z M 376.04565 906.460329 " transform="matrix(0.503024,0,0,0.503675,-114.081739,-339.745)"/>
<path style=" stroke:none;fill-rule:nonzero;fill:rgb(100%,100%,100%);fill-opacity:1;" d="M 79.269531 128.550781 L 79.269531 131.347656 L 35.335938 131.300781 L 35.316406 128.515625 L 79.273438 128.550781 "/>
<path style="fill:none;stroke-width:1.164;stroke-linecap:butt;stroke-linejoin:miter;stroke:rgb(0%,0%,0%);stroke-opacity:1;stroke-miterlimit:4;" d="M 384.378073 929.757842 L 384.385839 935.310778 L 297.031289 935.217712 L 297.000227 929.688043 L 384.385839 929.765598 L 384.378073 929.765598 Z M 384.378073 929.757842 " transform="matrix(0.503024,0,0,0.503675,-114.081739,-339.745)"/>
<path style=" stroke:none;fill-rule:nonzero;fill:rgb(100%,100%,100%);fill-opacity:1;" d="M 38.25 128.382812 L 38.214844 118.921875 L 39.996094 118.917969 L 39.894531 128.492188 L 40.003906 118.996094 L 37.441406 118.921875 L 37.441406 116.890625 L 76.710938 116.933594 L 76.726562 118.945312 L 74.304688 118.945312 L 74.351562 128.527344 L 74.265625 118.945312 L 76.070312 118.945312 L 76.109375 128.421875 "/>
<path style="fill:none;stroke-width:1.164;stroke-linecap:butt;stroke-linejoin:miter;stroke:rgb(0%,0%,0%);stroke-opacity:1;stroke-miterlimit:4;" d="M 302.832147 929.424356 L 302.762257 910.640542 L 306.303343 910.632787 L 306.101439 929.64151 L 306.318874 910.787896 L 301.224681 910.640542 L 301.224681 906.607684 L 379.283879 906.692994 L 379.322707 910.687075 L 374.508073 910.687075 L 374.601259 929.711309 L 374.430417 910.687075 L 378.010331 910.687075 L 378.095752 929.494155 M 319.621243 924.794324 L 319.559118 911.69529 L 309.083406 911.69529 L 309.137765 924.786569 L 319.613477 924.794324 M 319.613477 924.794324 L 319.559118 911.69529 L 309.075641 911.69529 L 309.137765 924.786569 L 319.613477 924.794324 M 319.613477 924.794324 L 319.559118 911.69529 L 309.075641 911.69529 L 309.137765 924.786569 L 319.613477 924.794324 M 319.613477 924.794324 L 319.559118 911.69529 L 309.075641 911.69529 L 309.137765 924.786569 L 319.613477 924.794324 M 319.613477 924.794324 L 319.559118 911.69529 L 309.075641 911.69529 L 309.137765 924.786569 L 319.613477 924.794324 M 311.933359 914.43298 L 311.956656 922.041123 L 316.755759 922.041123 L 316.732462 914.43298 L 311.933359 914.43298 M 370.858269 924.833102 L 370.796145 911.749578 L 360.351495 911.734067 L 360.398088 924.833102 L 370.858269 924.833102 M 363.170386 914.479513 L 363.224745 922.064389 L 368.016082 922.064389 L 367.977254 914.479513 L 363.170386 914.479513 M 370.772849 903.505485 L 370.71849 890.40645 L 360.258309 890.40645 L 360.297136 903.505485 L 370.780614 903.505485 Z M 363.09273 893.159652 L 363.123793 900.760039 L 367.91513 900.760039 L 367.907365 893.159652 L 363.100496 893.159652 M 319.535822 903.458952 L 319.458166 890.383184 L 308.997985 890.367673 L 309.044578 903.451196 L 319.535822 903.451196 Z M 311.847938 893.113119 L 311.879 900.697995 L 316.678103 900.713506 L 316.639276 893.113119 L 311.855704 893.113119 M 338.499268 903.482218 L 338.452675 890.40645 L 327.984728 890.390939 L 328.023556 903.482218 L 338.499268 903.482218 M 330.826915 893.12863 L 330.850212 900.713506 L 335.649315 900.736772 L 335.618253 893.12863 L 330.826915 893.12863 M 353.121778 903.505485 L 353.051888 890.40645 L 342.591707 890.390939 L 342.6383 903.482218 L 353.129544 903.505485 M 345.433894 893.136385 L 345.472722 900.752283 L 350.271825 900.752283 L 350.248529 893.136385 L 345.433894 893.136385 " transform="matrix(0.503024,0,0,0.503675,-114.081739,-339.745)"/>
<path style=" stroke:none;fill-rule:nonzero;fill:rgb(100%,100%,100%);fill-opacity:1;" d="M 64.851562 113.304688 L 64.910156 128.515625 L 49.652344 128.488281 L 49.597656 113.292969 L 64.851562 113.304688 "/>
<path style="fill:none;stroke-width:1.164;stroke-linecap:butt;stroke-linejoin:miter;stroke:rgb(0%,0%,0%);stroke-opacity:1;stroke-miterlimit:4;" d="M 355.715468 899.488137 L 355.831951 929.688043 L 325.499756 929.64151 L 325.391038 899.464871 L 355.707703 899.488137 Z M 325.204665 908.104494 L 355.74653 908.135516 M 325.204665 908.104494 L 355.74653 908.135516 M 325.204665 908.104494 L 355.74653 908.135516 M 325.204665 908.104494 L 355.74653 908.135516 M 325.204665 908.104494 L 355.74653 908.135516 M 329.017545 929.672532 L 328.916593 908.329404 M 352.14332 929.688043 L 352.042368 908.360426 M 366.789127 886.629523 L 349.712707 874.150928 L 330.516294 874.127662 L 313.571888 886.575235 L 366.789127 886.629523 M 331.991746 863.79734 L 332.022809 871.405482 L 348.167364 871.420993 L 348.136302 863.812851 L 331.991746 863.79734 M 331.991746 863.79734 L 332.022809 871.405482 L 348.167364 871.420993 L 348.136302 863.812851 L 331.991746 863.79734 " transform="matrix(0.503024,0,0,0.503675,-114.081739,-339.745)"/>
<path style="fill:none;stroke-width:1.164;stroke-linecap:butt;stroke-linejoin:miter;stroke:rgb(0%,0%,0%);stroke-opacity:1;stroke-miterlimit:4;" d="M 331.991746 863.79734 L 332.022809 871.405482 L 348.167364 871.420993 L 348.136302 863.812851 L 331.991746 863.79734 " transform="matrix(0.503024,0,0,0.503675,-114.081739,-339.745)"/>
<path style="fill:none;stroke-width:1.164;stroke-linecap:butt;stroke-linejoin:miter;stroke:rgb(0%,0%,0%);stroke-opacity:1;stroke-miterlimit:4;" d="M 336.37151 865.689681 L 336.394807 869.474363 L 343.810897 869.474363 L 343.7876 865.689681 L 336.37151 865.689681 M 340.036845 855.142205 L 349.013808 861.486201 L 331.122006 861.462935 L 340.036845 855.142205 M 340.036845 855.142205 L 349.013808 861.493957 L 331.122006 861.47069 L 340.036845 855.142205 M 340.036845 855.142205 L 349.013808 861.493957 L 331.122006 861.47069 L 340.036845 855.142205 M 340.036845 855.142205 L 349.013808 861.493957 L 331.122006 861.47069 L 340.036845 855.142205 M 340.036845 855.142205 L 349.013808 861.493957 L 331.122006 861.47069 L 340.036845 855.142205 " transform="matrix(0.503024,0,0,0.503675,-114.081739,-339.745)"/>
<path style=" stroke:none;fill-rule:nonzero;fill:rgb(100%,100%,100%);fill-opacity:1;" d="M 75.226562 88.800781 C 76.511719 88.769531 76.839844 94.09375 76.84375 96.730469 C 77.945312 97.039062 80.390625 98.578125 81.46875 99.96875 L 69.074219 99.953125 C 70.140625 98.578125 72.566406 97.03125 73.660156 96.722656 C 73.660156 94.082031 73.929688 88.761719 75.226562 88.796875 "/>
<path style="fill:none;stroke-width:1.164;stroke-linecap:butt;stroke-linejoin:miter;stroke:rgb(0%,0%,0%);stroke-opacity:1;stroke-miterlimit:4;" d="M 376.34074 850.837904 C 378.895602 850.77586 379.547908 861.346602 379.555673 866.581563 C 381.745555 867.194247 386.606783 870.249913 388.750071 873.01087 L 364.110016 872.979848 C 366.230008 870.249913 371.052408 867.186492 373.226759 866.566052 C 373.226759 861.331091 373.762581 850.768104 376.34074 850.830148 M 326.812132 900.333486 L 329.017545 900.333486 L 328.373005 901.520077 M 326.812132 900.333486 L 329.017545 900.333486 L 328.373005 901.520077 M 326.812132 900.333486 L 329.017545 900.333486 L 328.373005 901.520077 M 326.812132 900.341242 L 329.017545 900.341242 L 328.373005 901.527833 M 326.812132 900.341242 L 329.017545 900.341242 L 328.373005 901.527833 C 328.373005 901.527833 329.436884 902.8928 328.396302 904.467166 L 328.970952 905.552936 L 326.843194 905.552936 L 327.417844 904.521455 C 327.417844 904.521455 326.330668 902.698913 327.472203 901.527833 L 326.812132 900.341242 M 331.316144 900.341242 L 333.529323 900.341242 L 332.884783 901.527833 C 332.884783 901.527833 333.948662 902.861778 332.892549 904.467166 L 333.467199 905.560691 L 331.339441 905.560691 L 331.914091 904.521455 C 331.914091 904.521455 330.850212 902.706668 331.96845 901.527833 L 331.316144 900.341242 M 336.231731 900.341242 L 338.429378 900.341242 L 337.777073 901.527833 C 337.777073 901.527833 338.848717 902.900556 337.792604 904.467166 L 338.367254 905.583958 L 336.255027 905.560691 L 336.821912 904.52921 C 336.821912 904.52921 335.750267 902.714424 336.868505 901.527833 L 336.223965 900.348997 L 336.231731 900.348997 Z M 341.776326 900.356753 L 343.99727 900.356753 L 343.344964 901.551099 C 343.344964 901.551099 344.408843 902.900556 343.35273 904.474922 L 343.950677 905.583958 L 341.807388 905.583958 L 342.374272 904.544721 C 342.374272 904.544721 341.310393 902.714424 342.451927 901.551099 L 341.784091 900.356753 Z M 346.707443 900.356753 L 348.912856 900.356753 L 348.260551 901.551099 C 348.260551 901.551099 349.332195 902.900556 348.268316 904.467166 L 348.850732 905.583958 L 346.73074 905.583958 L 347.282093 904.552477 C 347.282093 904.552477 346.210448 902.729935 347.367514 901.551099 L 346.707443 900.356753 M 351.607498 900.364508 L 353.812911 900.356753 L 353.160606 901.558855 C 353.160606 901.558855 354.247781 902.900556 353.191668 904.474922 L 353.743021 905.583958 L 351.615264 905.583958 L 352.182148 904.552477 C 352.182148 904.552477 351.118269 902.729935 352.259803 901.558855 L 351.607498 900.364508 " transform="matrix(0.503024,0,0,0.503675,-114.081739,-339.745)"/>
<path style=" stroke:none;fill-rule:nonzero;fill:rgb(97.647059%,85.098039%,5.882353%);fill-opacity:1;" d="M 57.296875 148.011719 C 63.011719 148.03125 70.039062 146.863281 73.332031 145.15625 L 80.558594 144.515625 L 80.703125 153.351562 C 74.578125 156.734375 60.4375 157.460938 57.328125 157.433594 C 54.214844 157.460938 39.898438 156.71875 33.746094 153.328125 L 33.828125 144.488281 L 41.070312 145.140625 C 44.363281 146.835938 51.605469 148.011719 57.3125 148.011719 L 57.296875 148.011719 "/>
<path style="fill:none;stroke-width:0.271;stroke-linecap:butt;stroke-linejoin:miter;stroke:rgb(0%,0%,0%);stroke-opacity:1;stroke-miterlimit:4;" d="M 340.696916 968.395729 C 352.057899 968.434506 366.028104 966.115613 372.574454 962.726461 L 386.940701 961.454559 L 387.228026 978.997493 C 375.051661 985.705998 346.940409 987.148521 340.75904 987.101988 C 334.569905 987.156276 306.109205 985.682732 293.878481 978.943205 L 294.041557 961.400271 L 308.438866 962.695439 C 314.985216 966.061324 329.382525 968.395729 340.727978 968.395729 L 340.696916 968.395729 " transform="matrix(0.503024,0,0,0.503675,-114.081739,-339.745)"/>
<path style=" stroke:none;fill-rule:nonzero;fill:rgb(97.647059%,85.098039%,5.882353%);fill-opacity:1;" d="M 15.136719 110.332031 L 21.503906 112.363281 L 19.578125 122.691406 L 13.550781 123.628906 C 13.550781 123.628906 12.535156 118.199219 15.136719 110.328125 "/>
<path style="fill:none;stroke-width:0.271;stroke-linecap:butt;stroke-linejoin:miter;stroke:rgb(0%,0%,0%);stroke-opacity:1;stroke-miterlimit:4;" d="M 256.883452 893.586204 L 269.541281 897.619062 L 265.71287 918.124597 L 253.730643 919.985916 C 253.730643 919.985916 251.711603 909.205775 256.883452 893.578448 Z M 256.883452 893.586204 " transform="matrix(0.503024,0,0,0.503675,-114.081739,-339.745)"/>
<path style=" stroke:none;fill-rule:nonzero;fill:rgb(49.411765%,49.411765%,49.411765%);fill-opacity:1;" d="M 19.574219 122.578125 L 13.550781 123.628906 L 17.363281 118.199219 L 19.574219 122.578125 "/>
<path style="fill-rule:nonzero;fill:rgb(97.647059%,71.372549%,5.882353%);fill-opacity:1;stroke-width:0.271;stroke-linecap:butt;stroke-linejoin:miter;stroke:rgb(0%,0%,0%);stroke-opacity:1;stroke-miterlimit:4;" d="M 265.71287 917.899687 L 253.730643 919.985916 L 261.30981 909.205775 L 265.705105 917.899687 " transform="matrix(0.503024,0,0,0.503675,-114.081739,-339.745)"/>
<path style=" stroke:none;fill-rule:nonzero;fill:rgb(97.647059%,85.098039%,5.882353%);fill-opacity:1;" d="M 11.328125 117.773438 L 17.464844 118.21875 C 17.605469 123.425781 18.234375 143.304688 41.941406 144.386719 L 41.203125 151.617188 C 12.347656 151.917969 10.152344 127.234375 11.328125 117.773438 "/>
<path style="fill:none;stroke-width:0.271;stroke-linecap:butt;stroke-linejoin:miter;stroke:rgb(0%,0%,0%);stroke-opacity:1;stroke-miterlimit:4;" d="M 249.312052 908.360426 L 261.511714 909.236797 C 261.791273 919.58263 263.041525 959.050355 310.170582 961.198628 L 308.702895 975.554053 C 251.338857 976.151226 246.98239 927.14424 249.312052 908.360426 Z M 294.103681 978.493386 L 308.493225 975.35241 M 294.111447 978.493386 L 308.493225 975.35241 M 294.111447 978.493386 L 308.493225 975.35241 M 294.111447 978.493386 L 308.493225 975.35241 M 294.111447 978.493386 L 308.493225 975.35241 " transform="matrix(0.503024,0,0,0.503675,-114.081739,-339.745)"/>
<path style=" stroke:none;fill-rule:nonzero;fill:rgb(100%,100%,0%);fill-opacity:1;" d="M 98.957031 110.40625 L 92.613281 112.417969 L 94.625 122.730469 L 100.664062 123.699219 C 100.664062 123.699219 101.636719 118.273438 98.957031 110.402344 "/>
<path style="fill-rule:nonzero;fill:rgb(97.647059%,85.098039%,5.882353%);fill-opacity:1;stroke-width:0.271;stroke-linecap:butt;stroke-linejoin:miter;stroke:rgb(0%,0%,0%);stroke-opacity:1;stroke-miterlimit:4;" d="M 423.51639 893.733558 L 410.905154 897.727639 L 414.904407 918.202152 L 426.917696 920.13327 C 426.917696 920.13327 428.84355 909.353129 423.51639 893.725803 Z M 423.51639 893.733558 " transform="matrix(0.503024,0,0,0.503675,-114.081739,-339.745)"/>
<path style=" stroke:none;fill-rule:nonzero;fill:rgb(49.411765%,49.411765%,49.411765%);fill-opacity:1;" d="M 94.625 122.621094 L 100.664062 123.707031 L 96.800781 118.273438 L 94.625 122.621094 "/>
<path style="fill-rule:nonzero;fill:rgb(97.647059%,71.372549%,5.882353%);fill-opacity:1;stroke-width:0.271;stroke-linecap:butt;stroke-linejoin:miter;stroke:rgb(0%,0%,0%);stroke-opacity:1;stroke-miterlimit:4;" d="M 414.904407 917.984998 L 426.917696 920.141026 L 419.229812 909.353129 L 414.904407 917.984998 " transform="matrix(0.503024,0,0,0.503675,-114.081739,-339.745)"/>
<path style=" stroke:none;fill-rule:nonzero;fill:rgb(97.647059%,85.098039%,5.882353%);fill-opacity:1;" d="M 102.835938 117.855469 L 96.6875 118.273438 C 96.601562 123.476562 96.148438 143.367188 72.441406 144.421875 L 73.246094 151.648438 C 102.097656 151.984375 104.082031 127.308594 102.835938 117.851562 "/>
<path style="fill:none;stroke-width:0.271;stroke-linecap:butt;stroke-linejoin:miter;stroke:rgb(0%,0%,0%);stroke-opacity:1;stroke-miterlimit:4;" d="M 431.22757 908.523291 L 419.004612 909.353129 C 418.83377 919.683452 417.932967 959.174443 370.803911 961.268427 L 372.403612 975.616097 C 429.759883 976.275314 433.704777 927.291594 431.22757 908.515536 Z M 387.033887 978.578697 L 372.613281 975.414454 " transform="matrix(0.503024,0,0,0.503675,-114.081739,-339.745)"/>
<path style=" stroke:none;fill-rule:nonzero;fill:rgb(0.392157%,16.470588%,52.941176%);fill-opacity:1;" d="M 53.460938 152.367188 C 53.300781 152.472656 53.078125 152.496094 52.824219 152.484375 L 51.679688 152.425781 L 51.777344 150.996094 L 52.914062 151.058594 C 53.136719 151.070312 53.3125 151.117188 53.425781 151.183594 C 53.65625 151.304688 53.753906 151.523438 53.734375 151.828125 C 53.71875 152.09375 53.625 152.265625 53.457031 152.367188 M 51.535156 154.621094 L 51.648438 152.875 L 52.984375 152.96875 C 53.414062 153.003906 53.734375 152.886719 53.953125 152.667969 C 54.179688 152.453125 54.296875 152.171875 54.3125 151.851562 C 54.339844 151.480469 54.246094 151.175781 54.023438 150.953125 C 53.8125 150.738281 53.511719 150.625 53.136719 150.589844 L 51.226562 150.46875 L 50.964844 154.578125 L 51.53125 154.613281 M 55.6875 151.183594 L 57.082031 151.199219 M 55.6875 151.183594 L 57.082031 151.199219 M 55.6875 151.183594 L 57.082031 151.199219 M 55.6875 151.183594 L 57.082031 151.199219 M 55.6875 151.183594 L 57.082031 151.199219 C 57.285156 151.21875 57.445312 151.242188 57.5625 151.296875 C 57.777344 151.398438 57.875 151.601562 57.875 151.894531 C 57.875 152.171875 57.796875 152.355469 57.640625 152.464844 C 57.492188 152.566406 57.273438 152.613281 57.011719 152.613281 L 55.671875 152.597656 L 55.683594 151.183594 M 55.660156 154.824219 L 55.675781 153.070312 L 56.984375 153.089844 C 57.21875 153.089844 57.390625 153.105469 57.507812 153.164062 C 57.699219 153.253906 57.796875 153.441406 57.804688 153.699219 L 57.839844 154.386719 C 57.847656 154.554688 57.851562 154.65625 57.859375 154.722656 C 57.878906 154.769531 57.886719 154.824219 57.910156 154.859375 L 58.617188 154.859375 L 58.605469 154.773438 C 58.523438 154.730469 58.460938 154.648438 58.433594 154.519531 C 58.40625 154.441406 58.394531 154.320312 58.390625 154.171875 L 58.378906 153.621094 C 58.367188 153.375 58.324219 153.203125 58.230469 153.109375 C 16.015625 153.179688 -18.269531 118.964844 -18.34375 76.6875 C -18.414062 34.40625 15.75 0.0742188 57.964844 0 C 58.164062 -0.101562 58.308594 -0.222656 58.417969 -0.371094 C 58.519531 -0.535156 58.570312 -0.738281 58.570312 -0.988281 C 58.570312 -1.460938 58.375 -1.785156 57.984375 -1.957031 C 57.773438 -2.054688 57.503906 -2.101562 57.1875 -2.109375 L 55.214844 -2.128906 L 55.203125 1.992188 L 55.769531 1.992188 M 60.136719 1.117188 C 59.886719 0.8125 59.75 0.429688 59.722656 -0.0234375 C 59.691406 -0.59375 59.804688 -1.03125 60.0625 -1.324219 C 60.328125 -1.644531 60.667969 -1.796875 61.109375 -1.820312 C 61.558594 -1.847656 61.925781 -1.703125 62.199219 -1.421875 C 62.476562 -1.144531 62.636719 -0.761719 62.664062 -0.28125 C 62.679688 0.179688 62.597656 0.585938 62.386719 0.945312 C 62.179688 1.308594 61.835938 1.515625 61.324219 1.527344 C 60.789062 1.554688 60.390625 1.429688 60.136719 1.117188 M 59.464844 -1.476562 C 59.199219 -1.066406 59.09375 -0.59375 59.121094 -0.0234375 C 59.160156 0.589844 59.351562 1.101562 59.710938 1.484375 C 60.105469 1.867188 60.632812 2.058594 61.285156 2.023438 C 61.980469 1.992188 62.5 1.730469 62.859375 1.242188 C 63.144531 0.804688 63.28125 0.296875 63.253906 -0.332031 C 63.210938 -0.890625 63.050781 -1.347656 62.746094 -1.691406 C 62.363281 -2.148438 61.804688 -2.347656 61.042969 -2.316406 C 60.328125 -2.273438 59.800781 -2.007812 59.460938 -1.476562 M 78.800781 -7.402344 C 79.195312 -7.46875 79.539062 -7.449219 79.851562 -7.34375 C 80.3125 -7.199219 80.621094 -6.859375 80.8125 -6.335938 L 80.246094 -6.257812 C 80.125 -6.539062 79.949219 -6.734375 79.714844 -6.839844 C 79.484375 -6.941406 79.195312 -6.964844 78.867188 -6.917969 C 80.773438 -7.070312 82.445312 -5.648438 82.597656 -3.738281 C 82.753906 -1.828125 81.332031 -0.15625 79.425781 0 C 79.210938 0.332031 79.148438 0.773438 79.242188 1.335938 C 79.320312 1.804688 79.492188 2.199219 79.773438 2.460938 C 80.035156 2.730469 80.417969 2.828125 80.914062 2.757812 C 81.289062 2.695312 81.589844 2.546875 81.800781 2.285156 C 82.019531 2.042969 82.085938 1.671875 82.011719 1.191406 L 80.691406 1.394531 L 80.625 0.941406 L 82.460938 0.660156 L 82.820312 2.839844 L 82.457031 2.894531 L 82.230469 2.390625 C 82.078125 2.621094 81.921875 2.792969 81.789062 2.894531 C 81.5625 3.074219 81.257812 3.1875 80.875 3.242188 C 80.378906 3.316406 79.925781 3.226562 79.515625 2.964844 C 79.0625 2.628906 78.773438 2.132812 78.664062 1.445312 C 78.542969 0.765625 78.648438 0.1875 78.960938 -0.269531 C 79.257812 -0.710938 79.691406 -0.96875 80.273438 -1.050781 M 84.429688 -1.363281 L 85.746094 -1.84375 C 85.925781 -1.910156 86.082031 -1.933594 86.214844 -1.914062 C 86.457031 -1.898438 86.636719 -1.753906 86.738281 -1.464844 C 86.832031 -1.21875 86.832031 -1.007812 86.726562 -0.855469 C 86.613281 -0.699219 86.433594 -0.585938 86.175781 -0.488281 L 84.941406 -0.046875 L 84.429688 -1.363281 M 85.746094 2.042969 L 85.101562 0.390625 L 86.328125 -0.0507812 C 86.558594 -0.125 86.714844 -0.164062 86.835938 -0.152344 C 87.054688 -0.125 87.21875 0.0078125 87.328125 0.257812 L 87.609375 0.886719 C 87.667969 1.042969 87.71875 1.136719 87.757812 1.179688 C 87.777344 1.238281 87.816406 1.269531 87.847656 1.304688 L 88.511719 1.0625 L 88.476562 0.972656 C 88.375 0.972656 88.28125 0.917969 88.210938 0.808594 C 88.160156 0.734375 88.109375 0.625 88.039062 0.496094 L 87.820312 -0.0195312 C 87.722656 -0.242188 87.621094 -0.382812 87.507812 -0.464844 C 87.503906 -0.304688 87.460938 -0.144531 87.386719 0 C 87.523438 -0.15625 87.621094 -0.3125 87.65625 -0.496094 C 87.695312 -0.683594 87.679688 -0.890625 87.589844 -1.125 C 87.421875 -1.5625 87.109375 -1.800781 86.675781 -1.832031 C 86.445312 -1.851562 86.183594 -1.800781 85.878906 -1.695312 L 84.03125 -1.035156 L 85.523438 2.839844 L 86.066406 2.636719 M 90.878906 0.585938 L 88.53125 -2.84375 L 91.109375 -4.492188 L 91.394531 -4.078125 L 89.28125 -2.726562 L 90.003906 -1.675781 L 91.953125 -2.933594 L 92.222656 -2.53125 L 90.269531 -1.277344 L 91.066406 -0.121094 L 93.214844 -1.496094 L 93.5 -1.089844 L 90.875 0.585938 M 92.933594 -5.476562 L 93.609375 -6.21875 C 93.917969 -6.550781 94.25 -6.703125 94.613281 -6.660156 C 94.972656 -6.628906 95.339844 -6.4375 95.734375 -6.09375 C 95.839844 -6.011719 95.933594 -5.90625 96.03125 -5.785156 C 96.203125 -5.5625 96.304688 -5.363281 96.371094 -5.167969 C 96.425781 -4.921875 96.414062 -4.699219 96.328125 -4.484375 C 96.277344 -4.378906 96.183594 -4.25 96.046875 -4.101562 L 95.371094 -3.363281 L 92.9375 -5.484375 M 96.496094 -3.867188 C 96.972656 -4.394531 97.078125 -4.964844 96.796875 -5.605469 C 98.019531 -5.050781 98.710938 -3.742188 98.480469 -2.421875 C 98.25 -1.101562 97.15625 -0.105469 95.820312 0 C 95.390625 -0.382812 94.941406 -0.578125 94.464844 -0.617188 C 93.9375 -0.65625 93.492188 -0.464844 93.101562 -0.0390625 L 91.953125 1.191406 L 95.121094 3.960938 L 96.269531 2.71875 M 98.722656 -0.484375 L 95.078125 -2.628906 L 95.375 -3.101562 L 99.027344 -0.96875 L 98.726562 -0.480469 M 100.152344 -2.972656 L 96.21875 -4.550781 L 97.378906 -7.324219 L 97.855469 -7.136719 L 96.910156 -4.855469 L 98.097656 -4.386719 L 98.980469 -6.492188 L 99.433594 -6.304688 L 98.558594 -4.203125 L 99.886719 -3.664062 L 100.855469 -5.976562 L 101.335938 -5.796875 L 100.152344 -2.976562 M 101.960938 -7.8125 L 97.824219 -8.730469 L 97.960938 -9.371094 L 101.785156 -10.664062 L 98.425781 -11.40625 L 98.546875 -11.910156 L 102.6875 -11.015625 L 102.554688 -10.394531 L 98.726562 -9.074219 L 102.085938 -8.347656 L 101.964844 -7.8125 M 101.632812 -13.078125 L 101.6875 -13.597656 C 101.925781 -13.59375 102.128906 -13.628906 102.28125 -13.710938 C 102.582031 -13.875 102.753906 -14.183594 102.800781 -14.640625 C 102.820312 -14.855469 102.8125 -15.042969 102.761719 -15.21875 C 102.671875 -15.5625 102.480469 -15.753906 102.171875 -15.785156 C 101.941406 -15.808594 101.777344 -15.753906 101.65625 -15.628906 C 101.550781 -15.484375 101.433594 -15.277344 101.351562 -14.980469 L 101.160156 -14.441406 C 101.039062 -14.085938 100.925781 -13.839844 100.800781 -13.699219 C 100.605469 -13.441406 100.332031 -13.355469 99.976562 -13.378906 C 99.601562 -13.417969 99.296875 -13.570312 99.078125 -13.859375 C 98.855469 -14.121094 98.761719 -14.5 98.820312 -14.964844 C 98.855469 -15.390625 98.996094 -15.75 99.246094 -16.039062 C 99.480469 -16.300781 99.839844 -16.425781 100.304688 -16.378906 L 100.261719 -15.859375 C 100.035156 -15.859375 99.855469 -15.816406 99.722656 -15.726562 C 99.484375 -15.59375 99.351562 -15.3125 99.3125 -14.90625 C 99.277344 -14.570312 99.324219 -14.339844 99.453125 -14.171875 C 99.582031 -14.027344 99.742188 -13.933594 99.933594 -13.917969 C 100.136719 -13.898438 100.292969 -13.964844 100.40625 -14.121094 C 100.484375 -14.226562 100.578125 -14.460938 100.707031 -14.839844 L 100.894531 -15.410156 C 100.984375 -15.671875 101.097656 -15.875 101.222656 -16.019531 C 101.453125 -16.257812 101.753906 -16.359375 102.132812 -16.332031 C 102.589844 -16.28125 102.917969 -16.089844 103.085938 -15.742188 C 103.253906 -15.390625 103.316406 -15 103.277344 -14.558594 C 103.222656 -14.058594 103.0625 -13.667969 102.761719 -13.402344 C 102.460938 -13.132812 102.085938 -13.039062 101.632812 -13.078125 M 15.816406 -13.328125 L 15.910156 -12.816406 C 15.679688 -12.769531 15.496094 -12.675781 15.359375 -12.554688 C 15.121094 -12.328125 15.035156 -11.988281 15.121094 -11.527344 C 15.15625 -11.332031 15.226562 -11.136719 15.316406 -10.984375 C 15.5 -10.671875 15.738281 -10.546875 16.042969 -10.597656 C 16.265625 -10.636719 16.414062 -10.722656 16.484375 -10.882812 C 16.550781 -11.039062 16.597656 -11.277344 16.613281 -11.582031 L 16.640625 -12.164062 C 16.660156 -12.523438 16.699219 -12.804688 16.78125 -12.960938 C 16.90625 -13.242188 17.140625 -13.417969 17.492188 -13.476562 C 21.210938 -4.917969 17.292969 5.039062 8.746094 8.757812 C 0.199219 12.480469 -9.738281 8.558594 -13.453125 0 C -13.167969 0.199219 -12.976562 0.546875 -12.90625 1.003906 C -12.816406 1.425781 -12.859375 1.804688 -13.023438 2.144531 C -13.183594 2.472656 -13.488281 2.675781 -13.957031 2.761719 L -14.050781 2.242188 C -13.832031 2.160156 -13.667969 2.085938 -13.5625 1.976562 C -13.378906 1.773438 -13.324219 1.472656 -13.394531 1.066406 C -13.449219 0.734375 -13.5625 0.519531 -13.734375 0.414062 C -13.902344 0.289062 -14.070312 0.238281 -14.253906 0.269531 C -14.460938 0.300781 -14.59375 0.414062 -14.660156 0.597656 C -14.699219 0.71875 -14.730469 0.972656 -14.757812 1.363281 L -14.785156 1.964844 C -14.800781 2.246094 -14.84375 2.480469 -14.9375 2.636719 C -15.085938 2.933594 -15.34375 3.113281 -15.710938 3.171875 C -16.179688 3.253906 -16.542969 3.144531 -16.800781 2.84375 C -17.0625 2.550781 -17.226562 2.199219 -17.308594 1.761719 C -17.398438 1.238281 -17.332031 0.835938 -17.125 0.507812 C -16.914062 0.175781 -16.578125 -0.0195312 -16.125 -0.0820312 M -16.386719 5.347656 L -12.339844 4.128906 L -11.394531 6.980469 L -11.890625 7.136719 L -12.660156 4.792969 L -13.890625 5.164062 L -13.175781 7.332031 L -13.648438 7.480469 L -14.355469 5.308594 L -15.726562 5.71875 L -14.945312 8.113281 L -15.429688 8.253906 L -16.386719 5.347656 M -14.59375 10.296875 L -10.867188 8.316406 L -10.46875 9.011719 L -13.03125 11.722656 L -9.289062 11.082031 L -8.90625 11.773438 L -12.621094 13.738281 L -12.882812 13.28125 L -10.691406 12.125 C -10.609375 12.078125 -10.488281 12.011719 -10.3125 11.917969 C -10.136719 11.835938 -9.941406 11.730469 -9.742188 11.628906 L -13.46875 12.265625 L -13.738281 11.777344 L -11.199219 9.078125 L -11.320312 9.140625 C -11.402344 9.1875 -11.539062 9.253906 -11.726562 9.359375 C -14.304688 9.300781 -16.347656 7.152344 -16.289062 4.570312 C -16.226562 1.984375 -14.085938 -0.0625 -11.503906 0 L -13.691406 1.175781 L -13.960938 0.707031 M -7.019531 6.207031 C -7.207031 6.164062 -7.390625 6.058594 -7.574219 5.871094 L -8.359375 5.058594 L -7.300781 4.085938 L -6.507812 4.894531 C -6.355469 5.046875 -6.257812 5.191406 -6.203125 5.316406 C -6.132812 5.558594 -6.203125 5.78125 -6.425781 5.988281 C -6.628906 6.175781 -6.832031 6.253906 -7.023438 6.207031 M -10.011719 6.585938 L -8.714844 5.390625 L -7.792969 6.328125 C -7.496094 6.628906 -7.191406 6.769531 -6.875 6.761719 C -8.738281 2.992188 -7.199219 -1.574219 -3.4375 -3.441406 C 0.324219 -5.308594 4.886719 -3.769531 6.75 0 C 7.027344 -0.246094 7.160156 -0.535156 7.160156 -0.84375 C 7.15625 -1.144531 7.015625 -1.425781 6.761719 -1.691406 L 5.441406 -3.042969 L 2.359375 -0.207031 L 2.757812 0.195312 M 6.476562 3.503906 L 8.710938 0 L 11.347656 1.605469 L 11.074219 2.023438 L 8.90625 0.722656 L 8.234375 1.785156 L 10.226562 2.996094 L 9.96875 3.398438 L 7.972656 2.191406 L 7.214844 3.378906 L 9.410156 4.699219 L 9.144531 5.113281 L 6.476562 3.503906 M 13.085938 2.828125 L 14.425781 3.253906 C 14.617188 3.3125 14.753906 3.386719 14.84375 3.46875 C 15.015625 3.632812 15.0625 3.863281 14.960938 4.144531 C 14.878906 4.390625 14.753906 4.550781 14.558594 4.617188 C 14.382812 4.648438 14.164062 4.648438 13.90625 4.566406 L 12.640625 4.164062 L 13.085938 2.828125 M 11.925781 6.269531 L 12.484375 4.597656 L 13.734375 5.007812 C 13.957031 5.066406 14.121094 5.148438 14.199219 5.226562 C 14.351562 5.367188 14.398438 5.570312 14.320312 5.828125 L 14.136719 6.492188 C 14.09375 6.652344 14.070312 6.761719 14.050781 6.808594 C 14.050781 6.863281 14.050781 6.917969 14.0625 6.953125 L 14.71875 7.167969 L 14.761719 7.074219 C 14.6875 7.019531 14.648438 6.917969 14.652344 6.792969 C 14.667969 6.714844 14.6875 6.59375 14.730469 6.453125 L 14.890625 5.917969 C 14.957031 5.683594 14.980469 5.511719 14.921875 5.382812 C 13.4375 5.484375 12.152344 4.363281 12.050781 2.875 C 11.949219 1.386719 13.074219 0.101562 14.558594 0 C 14.765625 -0.0351562 14.945312 -0.101562 15.097656 -0.214844 C 15.242188 -0.339844 15.367188 -0.515625 15.441406 -0.761719 C 15.589844 -1.203125 15.507812 -1.574219 15.175781 -1.859375 C 15.011719 -2.003906 14.773438 -2.132812 14.464844 -2.246094 L 12.589844 -2.828125 L 11.28125 1.082031 L 11.828125 1.25 M 17.519531 -69.890625 "/>
<path style=" stroke:none;fill-rule:nonzero;fill:rgb(73.72549%,44.313725%,37.254902%);fill-opacity:1;" d="M 34.46875 77.175781 C 34.953125 76.007812 39.4375 72.824219 54.148438 74.21875 C 54.148438 74.21875 56.632812 75.738281 58.09375 75.542969 C 58.929688 75.433594 57.605469 75.59375 56.519531 74.691406 C 55.410156 73.785156 55.171875 71.929688 57.707031 71.980469 C 60.226562 72.046875 69.660156 72.578125 69.835938 73.425781 C 70.003906 74.285156 64.851562 74.644531 62.933594 74.59375 C 61.007812 74.542969 61.230469 75.519531 63.148438 75.445312 C 69.136719 75.230469 75.675781 73.117188 82.578125 78.007812 C 83.402344 78.601562 80.496094 78.699219 78.25 77.742188 C 78.25 77.742188 72.15625 78.058594 69.523438 77.625 C 69.523438 77.625 67.5 79.273438 64.863281 79.113281 C 65.207031 79.96875 63.890625 83.160156 55.601562 80.757812 C 54.234375 81.179688 49.246094 82.015625 49.789062 80.53125 C 48.476562 80.53125 46.171875 80.953125 45.832031 80.207031 C 45.5 79.472656 49.882812 78.355469 50.652344 77.558594 C 50.652344 77.558594 41.378906 77.648438 39.621094 77.007812 C 39.621094 77.007812 34.148438 78.238281 34.46875 77.171875 "/>
<path style=" stroke:none;fill-rule:nonzero;fill:rgb(0%,53.333333%,18.823529%);fill-opacity:1;" d="M 37.445312 90.183594 C 37.644531 89.914062 37.722656 89.429688 38.144531 89.441406 C 39.0625 89.6875 39.6875 91.371094 40.816406 90.277344 C 41.21875 90.1875 41.371094 90.734375 41.703125 90.800781 C 41.914062 91.734375 42.664062 90.609375 43.222656 90.671875 C 44.421875 90.140625 45.902344 90.011719 47.320312 90.277344 C 47.363281 91.195312 46.648438 92.207031 45.746094 92.726562 C 45.765625 93.652344 46.601562 94.242188 46.585938 95.171875 C 46.441406 95.519531 46.5625 96.0625 46.039062 96.175781 C 45.375 96.058594 44.71875 95.988281 44.167969 95.617188 C 44.101562 95.546875 44.046875 95.417969 43.902344 95.460938 C 43.835938 95.769531 44.320312 96.078125 44.511719 96.390625 C 44.175781 96.960938 43.621094 96.441406 43.15625 96.449219 C 43.019531 96.777344 43.152344 97.191406 42.8125 97.402344 C 42.226562 97.382812 42.105469 96.742188 41.746094 96.421875 C 41.375 96.824219 42.003906 97.0625 42.09375 97.382812 C 41.867188 98.589844 41.898438 99.773438 40.691406 100.5625 L 39.882812 100.964844 C 39.664062 100.355469 39.800781 99.4375 39.652344 98.800781 C 39.175781 99.582031 38.800781 100.261719 38.101562 100.921875 C 37.28125 100.652344 36.800781 99.683594 36.621094 98.878906 C 36.277344 97.941406 36.476562 96.824219 37.214844 96.148438 C 36.960938 95.65625 36.101562 95.769531 35.980469 95.070312 C 34.691406 94.230469 33.976562 96.542969 33.144531 95.339844 C 32.875 94.21875 33.195312 92.824219 34.007812 91.984375 C 33.828125 91.527344 33.226562 91.644531 32.871094 91.382812 C 32.0625 90.691406 30.890625 89.960938 30.949219 88.714844 C 33.167969 87.875 35.824219 88.492188 37.4375 90.183594 "/>
<path style=" stroke:none;fill-rule:nonzero;fill:rgb(97.647059%,85.098039%,5.882353%);fill-opacity:1;" d="M 38.59375 90.058594 C 38.542969 91.074219 39.28125 90.332031 39.828125 90.949219 C 39.402344 90.78125 39.089844 91.691406 38.667969 91.171875 L 38.40625 91.421875 C 38.558594 91.773438 38.855469 91.816406 38.546875 92.199219 C 38.085938 92.375 37.996094 91.800781 37.78125 91.574219 C 37.742188 91.472656 37.851562 91.28125 37.683594 91.214844 C 37.421875 91.433594 37.148438 91.515625 36.789062 91.476562 C 36.695312 91.28125 36.503906 91.023438 36.695312 90.875 C 37.046875 90.398438 37.59375 91.046875 37.859375 90.710938 C 37.902344 90.417969 37.644531 90.058594 37.980469 89.855469 C 38.207031 89.894531 38.503906 89.769531 38.597656 90.058594 M 41.34375 90.890625 C 41.371094 91.089844 41.242188 91.363281 41.496094 91.503906 C 41.832031 91.320312 42.1875 91.460938 42.378906 91.789062 C 42.375 91.96875 42.429688 92.203125 42.199219 92.289062 L 41.679688 92.191406 C 41.714844 92.089844 41.550781 92.023438 41.484375 91.925781 C 41.253906 91.855469 41.121094 92.042969 40.949219 92.15625 C 41.078125 92.351562 41.375 92.460938 41.304688 92.710938 C 41 93.015625 40.847656 92.445312 40.511719 92.589844 C 40.28125 92.503906 40.59375 92.023438 40.234375 91.878906 C 39.804688 91.878906 40.089844 92.585938 39.539062 92.308594 C 39.34375 92.089844 39.152344 91.789062 39.363281 91.542969 C 39.59375 91.386719 39.980469 91.429688 40.175781 91.628906 C 40.511719 91.257812 40.542969 89.824219 41.34375 90.890625 M 37.921875 92.371094 C 38.144531 92.691406 37.875 93.128906 38.15625 93.488281 C 38.605469 92.652344 39.035156 93.671875 39.570312 93.589844 C 39.730469 93.789062 39.625 94.066406 39.652344 94.292969 C 38.996094 94.46875 38.203125 94.675781 37.621094 94.148438 L 37.457031 94.335938 C 37.804688 94.660156 38.132812 95.023438 37.855469 95.5625 C 37.363281 95.671875 36.601562 95.683594 36.355469 95.171875 C 36.222656 94.753906 36.652344 94.449219 36.199219 94.113281 C 35.875 94.519531 35.886719 95.066406 35.207031 94.695312 C 34.78125 94.460938 34.65625 93.980469 34.867188 93.574219 C 35.308594 92.878906 36.082031 93.597656 36.558594 93.257812 C 36.625 92.660156 36.40625 92.136719 36.953125 91.808594 C 37.421875 91.722656 37.640625 92.074219 37.925781 92.371094 "/>
<path style=" stroke:none;fill-rule:nonzero;fill:rgb(100%,100%,100%);fill-opacity:1;" d="M 39.789062 92.734375 C 39.570312 93.753906 38.804688 92.683594 38.445312 92.640625 C 38.921875 91.789062 39.222656 92.914062 39.789062 92.734375 M 42.175781 93.839844 C 41.640625 93.992188 41.722656 93.328125 41.460938 93.066406 L 41.667969 92.878906 C 41.859375 93.113281 42.007812 93.53125 42.175781 93.84375 "/>
<path style=" stroke:none;fill-rule:nonzero;fill:rgb(97.647059%,85.098039%,5.882353%);fill-opacity:1;" d="M 41.453125 93.640625 C 41.605469 93.992188 41.105469 94.273438 41.53125 94.53125 C 41.667969 94.417969 41.832031 94.261719 41.902344 94.195312 C 42.265625 94.304688 42.6875 94.367188 42.941406 94.730469 C 43.214844 95.476562 42.460938 95.460938 42.03125 95.667969 L 41.605469 95.652344 C 41.707031 95.441406 41.421875 95.351562 41.351562 95.210938 C 41.15625 95.160156 40.992188 95.222656 40.882812 95.386719 C 40.976562 95.863281 41.558594 96.234375 40.960938 96.65625 C 40.453125 96.625 39.671875 96.820312 39.714844 96.121094 C 39.527344 95.726562 40.230469 95.113281 39.476562 95.089844 C 39.230469 95.625 38.957031 96.136719 38.3125 95.632812 L 38.390625 94.871094 C 39.007812 94.890625 39.742188 94.996094 40.019531 94.304688 C 40.195312 93.800781 39.710938 93.339844 40.144531 92.941406 C 40.773438 92.796875 41.128906 93.21875 41.453125 93.640625 "/>
<path style=" stroke:none;fill-rule:nonzero;fill:rgb(0%,0%,0%);fill-opacity:1;" d="M 41 94.78125 C 41.15625 95.160156 40.730469 95.183594 40.527344 95.371094 C 40.253906 95.394531 40.066406 95.285156 39.898438 95.101562 C 39.777344 94.644531 40.117188 94.597656 40.378906 94.417969 C 40.679688 94.292969 40.804688 94.644531 41 94.78125 "/>
<path style=" stroke:none;fill-rule:nonzero;fill:rgb(100%,100%,100%);fill-opacity:1;" d="M 40.628906 95.027344 C 40.5625 95.117188 40.464844 95.089844 40.363281 95.113281 L 40.269531 94.65625 C 40.472656 94.675781 40.734375 94.738281 40.628906 95.027344 "/>
</g>
</svg>
