<?xml version="1.0" encoding="UTF-8"?>
<svg xmlns="http://www.w3.org/2000/svg" xmlns:xlink="http://www.w3.org/1999/xlink" width="px" height="px" viewBox="0 0 450 300" version="1.1">
<g id="surface1">
<rect x="0" y="0" width="450" height="300" style="fill:rgb(24.313725%,36.862745%,72.54902%);fill-opacity:1;stroke:none;"/>
<path style=" stroke:none;fill-rule:nonzero;fill:rgb(100%,85.098039%,0%);fill-opacity:1;" d="M 0 56.25 L 450 56.25 L 450 243.75 L 0 243.75 Z M 0 56.25 "/>
<path style=" stroke:none;fill-rule:nonzero;fill:rgb(69.411765%,4.705882%,4.705882%);fill-opacity:1;" d="M 0 75 L 450 75 L 450 225 L 0 225 Z M 0 75 "/>
<path style="fill-rule:nonzero;fill:rgb(100%,100%,100%);fill-opacity:1;stroke-width:1.008;stroke-linecap:butt;stroke-linejoin:miter;stroke:rgb(0%,0%,0%);stroke-opacity:1;stroke-miterlimit:4;" d="M 492.848958 154.28125 L 468.5625 162.848958 L 492.848958 171.421875 L 517.135417 162.848958 Z M 492.848958 154.28125 " transform="matrix(0.75,0,0,0.75,0,0)"/>
<path style="fill-rule:nonzero;fill:rgb(100%,85.098039%,0%);fill-opacity:1;stroke-width:1.008;stroke-linecap:butt;stroke-linejoin:miter;stroke:rgb(0%,0%,0%);stroke-opacity:1;stroke-miterlimit:4;" d="M 125.958333 160 L 476.875 160 C 478.588542 160 479.979167 161.28125 479.979167 162.859375 C 479.979167 164.432292 478.588542 165.713542 476.875 165.713542 L 125.958333 165.713542 C 124.239583 165.713542 122.848958 164.432292 122.848958 162.859375 C 122.848958 161.28125 124.239583 160 125.958333 160 Z M 125.958333 160 " transform="matrix(0.75,0,0,0.75,0,0)"/>
<path style="fill-rule:nonzero;fill:rgb(100%,85.098039%,0%);fill-opacity:1;stroke-width:1.008;stroke-linecap:butt;stroke-linejoin:miter;stroke:rgb(0%,0%,0%);stroke-opacity:1;stroke-miterlimit:4;" d="M 471.4375 165.708333 C 472.864583 165.708333 474.296875 164.28125 474.296875 162.854167 C 474.296875 161.427083 472.869792 159.994792 471.442708 159.994792 M 468.578125 165.708333 C 470.005208 165.708333 471.4375 164.28125 471.4375 162.854167 C 471.4375 161.427083 470.010417 159.994792 468.583333 159.994792 M 465.71875 165.708333 C 467.145833 165.708333 468.578125 164.28125 468.578125 162.854167 C 468.578125 161.427083 467.145833 159.994792 465.71875 159.994792 " transform="matrix(0.75,0,0,0.75,0,0)"/>
<path style="fill-rule:nonzero;fill:rgb(100%,100%,100%);fill-opacity:1;stroke-width:1.008;stroke-linecap:butt;stroke-linejoin:miter;stroke:rgb(0%,0%,0%);stroke-opacity:1;stroke-miterlimit:4;" d="M 492.848125 154.282292 L 468.566875 162.85 L 492.848125 171.422917 L 517.134583 162.85 Z M 492.848125 154.282292 " transform="matrix(0.75,0,0,0.75,-17.4525,12.8625)"/>
<path style="fill-rule:nonzero;fill:rgb(100%,85.098039%,0%);fill-opacity:1;stroke-width:1.008;stroke-linecap:butt;stroke-linejoin:miter;stroke:rgb(0%,0%,0%);stroke-opacity:1;stroke-miterlimit:4;" d="M 125.9575 160.001042 L 476.874167 160.001042 C 478.587708 160.001042 479.978333 161.277083 479.978333 162.855208 C 479.978333 164.433333 478.587708 165.714583 476.874167 165.714583 L 125.9575 165.714583 C 124.23875 165.714583 122.848125 164.433333 122.848125 162.855208 C 122.848125 161.277083 124.23875 160.001042 125.9575 160.001042 Z M 125.9575 160.001042 " transform="matrix(0.75,0,0,0.75,-17.4525,12.8625)"/>
<path style="fill-rule:nonzero;fill:rgb(100%,85.098039%,0%);fill-opacity:1;stroke-width:1.008;stroke-linecap:butt;stroke-linejoin:miter;stroke:rgb(0%,0%,0%);stroke-opacity:1;stroke-miterlimit:4;" d="M 471.441875 165.709375 C 472.868958 165.709375 474.30125 164.282292 474.30125 162.855208 C 474.30125 161.422917 472.868958 159.995833 471.441875 159.995833 M 468.5825 165.709375 C 470.009583 165.709375 471.436667 164.282292 471.436667 162.855208 C 471.436667 161.422917 470.009583 159.995833 468.5825 159.995833 M 465.717917 165.709375 C 467.145 165.709375 468.577292 164.282292 468.577292 162.855208 C 468.577292 161.422917 467.150208 159.995833 465.723125 159.995833 " transform="matrix(0.75,0,0,0.75,-17.4525,12.8625)"/>
<path style="fill-rule:nonzero;fill:rgb(100%,85.098039%,0%);fill-opacity:1;stroke-width:1.08;stroke-linecap:butt;stroke-linejoin:miter;stroke:rgb(0%,0%,0%);stroke-opacity:1;stroke-miterlimit:4;" d="M 64.036458 195.71875 L 541.286458 195.71875 C 543.619792 195.71875 545.510417 197.640625 545.510417 200.005208 C 545.510417 202.369792 543.619792 204.291667 541.286458 204.291667 L 64.036458 204.291667 C 61.703125 204.291667 59.8125 202.369792 59.8125 200.005208 C 59.8125 197.640625 61.703125 195.71875 64.036458 195.71875 Z M 64.036458 195.71875 " transform="matrix(0.75,0,0,0.75,0,0)"/>
<path style="fill-rule:nonzero;fill:rgb(100%,100%,100%);fill-opacity:1;stroke-width:1.512;stroke-linecap:butt;stroke-linejoin:miter;stroke:rgb(0%,0%,0%);stroke-opacity:1;stroke-miterlimit:4;" d="M 664.273438 300 C 621.421875 342.851562 564.273438 428.5625 449.984375 428.5625 C 349.984375 428.5625 278.5625 342.851562 235.695312 300 C 278.554688 257.140625 349.976562 171.429688 449.984375 171.429688 C 564.265625 171.429688 621.40625 257.140625 664.273438 300 Z M 664.273438 300 " transform="matrix(0.5,0,0,0.5,0,0)"/>
<path style=" stroke:none;fill-rule:nonzero;fill:rgb(0%,0%,0%);fill-opacity:1;" d="M 217.515625 108.074219 C 223.214844 114.488281 218.457031 117.070312 224.488281 117.492188 C 230.851562 117.960938 227.246094 124.269531 232.597656 124.488281 C 236.339844 124.652344 232.226562 139.601562 235.828125 144.535156 C 239.496094 149.675781 242.570312 146.039062 242.636719 149.757812 C 242.699219 153.597656 232.648438 153.210938 232.472656 165.046875 C 232.175781 171.871094 223.988281 172.308594 223.597656 176.695312 C 223.113281 180.824219 239.726562 183.144531 239.507812 186.839844 C 239.277344 190.523438 221.566406 189.945312 220.792969 194.148438 C 220.398438 197.925781 245.128906 201.019531 247.117188 211.933594 C 243.425781 213.140625 232.929688 214.277344 224.992188 214.28125 C 175 214.320312 139.28125 171.421875 117.855469 149.996094 C 139.285156 128.566406 174.996094 85.710938 225 85.710938 C 225 85.710938 210.160156 99.269531 217.523438 108.070312 Z M 217.515625 108.074219 "/>
<path style="fill-rule:nonzero;fill:rgb(0%,0%,0%);fill-opacity:1;stroke-width:6.927;stroke-linecap:butt;stroke-linejoin:miter;stroke:rgb(100%,100%,100%);stroke-opacity:1;stroke-miterlimit:4;" d="M 213.932292 192.375 L 213.932292 169.520833 M 227.78125 169.520833 L 227.78125 192.375 M 241.640625 169.520833 L 241.640625 192.375 " transform="matrix(0.75,0,0,0.75,0,0)"/>
<path style="fill-rule:nonzero;fill:rgb(0%,0%,0%);fill-opacity:1;stroke-width:6.927;stroke-linecap:butt;stroke-linejoin:miter;stroke:rgb(100%,100%,100%);stroke-opacity:1;stroke-miterlimit:4;" d="M 213.932292 192.379167 L 213.932292 169.519792 M 227.78125 169.519792 L 227.78125 192.379167 M 241.640625 169.519792 L 241.640625 192.379167 " transform="matrix(0.75,0,0,0.75,0,28.575)"/>
<path style="fill-rule:nonzero;fill:rgb(0%,0%,0%);fill-opacity:1;stroke-width:6.927;stroke-linecap:butt;stroke-linejoin:miter;stroke:rgb(100%,100%,100%);stroke-opacity:1;stroke-miterlimit:4;" d="M 213.934792 192.375 L 213.934792 169.520833 M 227.78375 169.520833 L 227.78375 192.375 M 241.643125 169.520833 L 241.643125 192.375 " transform="matrix(0.75,0,0,0.75,31.17,0)"/>
<path style="fill-rule:nonzero;fill:rgb(0%,0%,0%);fill-opacity:1;stroke-width:6.927;stroke-linecap:butt;stroke-linejoin:miter;stroke:rgb(100%,100%,100%);stroke-opacity:1;stroke-miterlimit:4;" d="M 213.934792 192.379167 L 213.934792 169.519792 M 227.78375 169.519792 L 227.78375 192.379167 M 241.643125 169.519792 L 241.643125 192.379167 " transform="matrix(0.75,0,0,0.75,31.17,28.575)"/>
<path style="fill-rule:nonzero;fill:rgb(0%,0%,0%);fill-opacity:1;stroke-width:6.927;stroke-linecap:butt;stroke-linejoin:miter;stroke:rgb(0%,0%,0%);stroke-opacity:1;stroke-miterlimit:4;" d="M 213.932708 192.375 L 213.932708 169.520833 M 227.781667 169.520833 L 227.781667 192.375 M 241.641042 169.520833 L 241.641042 192.375 " transform="matrix(0.75,0,0,0.75,78.57,0)"/>
<path style="fill-rule:nonzero;fill:rgb(0%,0%,0%);fill-opacity:1;stroke-width:6.927;stroke-linecap:butt;stroke-linejoin:miter;stroke:rgb(0%,0%,0%);stroke-opacity:1;stroke-miterlimit:4;" d="M 213.932708 192.379167 L 213.932708 169.519792 M 227.781667 169.519792 L 227.781667 192.379167 M 241.641042 169.519792 L 241.641042 192.379167 " transform="matrix(0.75,0,0,0.75,78.57,28.575)"/>
<path style="fill-rule:nonzero;fill:rgb(0%,0%,0%);fill-opacity:1;stroke-width:6.927;stroke-linecap:butt;stroke-linejoin:miter;stroke:rgb(0%,0%,0%);stroke-opacity:1;stroke-miterlimit:4;" d="M 213.935208 192.375 L 213.935208 169.520833 M 227.784167 169.520833 L 227.784167 192.375 M 241.643542 169.520833 L 241.643542 192.375 " transform="matrix(0.75,0,0,0.75,109.74,0)"/>
<path style="fill-rule:nonzero;fill:rgb(0%,0%,0%);fill-opacity:1;stroke-width:6.927;stroke-linecap:butt;stroke-linejoin:miter;stroke:rgb(0%,0%,0%);stroke-opacity:1;stroke-miterlimit:4;" d="M 213.935208 192.379167 L 213.935208 169.519792 M 227.784167 169.519792 L 227.784167 192.379167 M 241.643542 169.519792 L 241.643542 192.379167 " transform="matrix(0.75,0,0,0.75,109.74,28.575)"/>
<path style="fill-rule:nonzero;fill:rgb(23.921569%,36.470588%,65.490196%);fill-opacity:1;stroke-width:1.282;stroke-linecap:butt;stroke-linejoin:miter;stroke:rgb(0%,0%,0%);stroke-opacity:1;stroke-miterlimit:4;" d="M 767.023438 294.898438 C 760.53125 306.140625 772.007812 291.15625 800 309.984375 C 805.1875 313.484375 809.726562 322.71875 809.726562 329.125 C 808.40625 328.242188 807.429688 326.28125 805.976562 325.007812 C 803.945312 327.046875 807.921875 336.375 808.5 340.78125 C 804.125 338.335938 804.546875 337.171875 803.085938 334.164062 C 803.382812 337.804688 802.335938 347.820312 804.078125 351.6875 C 800.632812 350.695312 800.859375 347.921875 799.054688 347.367188 C 800.28125 351.734375 797.992188 356.484375 798.601562 361.398438 C 796.585938 359.398438 794.4375 357.835938 793.5 357.03125 C 793.34375 359.367188 789.617188 365.515625 789.539062 367.726562 C 787.828125 366.695312 787.359375 365.085938 787.078125 364 C 784.953125 366.671875 777.398438 376.539062 776.914062 379.546875 C 771.09375 374.40625 756.179688 361.882812 754.234375 355.234375 C 752.523438 359.007812 750.039062 360.28125 745.125 363.039062 C 743.1875 352.5 735.929688 340.664062 739.8125 331.632812 C 737.0625 333.265625 734.796875 334.898438 732.054688 336.898438 C 734.65625 321.648438 747.929688 303.757812 767.03125 294.898438 Z M 767.023438 294.898438 " transform="matrix(0.5,0,0,0.5,0,0)"/>
<path style=" stroke:none;fill-rule:nonzero;fill:rgb(65.490196%,0%,0%);fill-opacity:1;" d="M 371.40625 175.289062 C 372.753906 172.597656 373.996094 171.742188 374.867188 170.007812 C 376.40625 166.957031 376.625 164.53125 377.964844 164.886719 C 379.304688 165.242188 379.304688 166.492188 377.566406 169.488281 C 375.832031 172.488281 375.007812 173.128906 371.40625 175.289062 Z M 380.519531 181.710938 C 380.347656 179.660156 380.941406 178.800781 380.832031 177.480469 C 380.648438 175.15625 379.699219 173.5625 380.933594 173.449219 C 382.171875 173.335938 382.746094 174.128906 382.75 176.46875 C 382.753906 178.8125 382.390625 179.429688 380.519531 181.710938 Z M 387.433594 185.730469 C 386.894531 182.867188 387.300781 181.597656 386.953125 179.75 C 386.351562 176.503906 385.160156 174.367188 386.308594 174.070312 C 387.453125 173.773438 388.144531 174.824219 388.578125 178.117188 C 389.011719 181.410156 388.78125 182.3125 387.433594 185.730469 Z M 394.628906 165.667969 C 392.9375 164.386719 391.953125 164.300781 390.863281 163.476562 C 388.945312 162.03125 387.976562 160.484375 387.359375 161.25 C 386.742188 162.019531 387.179688 162.859375 389.1875 164.191406 C 391.199219 165.527344 391.878906 165.632812 394.628906 165.667969 Z M 393.433594 175.171875 C 392.546875 173.320312 391.609375 172.851562 391.03125 171.664062 C 390.015625 169.574219 390.011719 167.765625 388.910156 168.226562 C 387.804688 168.691406 387.714844 169.636719 388.898438 171.660156 C 390.078125 173.683594 390.695312 174.050781 393.433594 175.171875 Z M 393.433594 175.171875 "/>
<path style="fill-rule:nonzero;fill:rgb(23.921569%,36.470588%,65.490196%);fill-opacity:1;stroke-width:1.6;stroke-linecap:butt;stroke-linejoin:miter;stroke:rgb(0%,0%,0%);stroke-opacity:1;stroke-miterlimit:4;" d="M 121.171875 305.726562 C 120.8125 302.453125 121.515625 302.0625 119.5 299.59375 C 122.429688 300.820312 122.539062 304.085938 126.109375 301.765625 C 127.414062 301.09375 127.984375 301.070312 126.398438 297.429688 C 130.117188 297.601562 142.289062 301.78125 144.242188 301.875 C 149.359375 302.109375 158.703125 296.5 165.195312 303.398438 C 171.421875 309.695312 169.34375 316.226562 169.34375 324.945312 C 166.835938 323.742188 168.046875 323.15625 165.390625 320.039062 C 167.382812 327.65625 165.28125 341.390625 165.28125 349.476562 C 164.265625 347.523438 164.414062 348.367188 163.414062 346.351562 C 160.757812 353.726562 157.578125 355.242188 157.578125 363.960938 C 156.617188 360.546875 157.546875 361.265625 156.476562 359.46875 C 153.898438 365.070312 136.585938 369.851562 143.257812 375.5 C 137.234375 371.96875 134.59375 372.335938 131.867188 369.164062 C 130.6875 369.921875 129.757812 371.359375 128.664062 373.328125 C 118.078125 368.460938 121.859375 357.953125 113.570312 350.9375 C 112.132812 353.882812 112.789062 353.453125 111.234375 358.242188 C 109.554688 351.59375 109.101562 347.367188 107.210938 342.476562 C 105.578125 345.1875 105.726562 344.148438 102.765625 348.242188 C 101.546875 340.140625 99.554688 338.226562 100.34375 332.867188 C 97.195312 335.085938 99.257812 334.1875 96.109375 336.914062 C 99.09375 316.15625 111.945312 300.8125 121.179688 305.726562 Z M 121.171875 305.726562 " transform="matrix(0.5,0,0,0.5,0,0)"/>
<path style=" stroke:none;fill-rule:nonzero;fill:rgb(65.490196%,0%,0%);fill-opacity:1;" d="M 54.074219 169.808594 C 55.441406 166.464844 56.667969 165.414062 57.550781 163.265625 C 59.105469 159.484375 59.359375 156.460938 60.667969 156.921875 C 61.972656 157.382812 61.953125 158.941406 60.203125 162.65625 C 58.453125 166.371094 57.636719 167.160156 54.074219 169.804688 Z M 59.238281 178.171875 C 59.785156 175.175781 60.648438 174.082031 61.003906 172.152344 C 61.632812 168.761719 61.28125 166.234375 62.496094 166.367188 C 63.710938 166.5 63.984375 167.78125 63.175781 171.15625 C 62.367188 174.53125 61.808594 175.328125 59.238281 178.171875 Z M 65.414062 183.984375 C 65.566406 181.078125 66.25 179.945312 66.351562 178.074219 C 66.535156 174.78125 65.902344 172.425781 67.058594 172.414062 C 68.21875 172.398438 68.632812 173.582031 68.277344 176.878906 C 67.921875 180.171875 67.492188 180.992188 65.414062 183.984375 Z M 78.675781 164.984375 C 76.140625 162.460938 74.605469 161.988281 72.96875 160.363281 C 70.089844 157.507812 68.695312 154.832031 67.671875 155.78125 C 66.644531 156.730469 67.261719 158.152344 70.296875 160.867188 C 73.328125 163.582031 74.386719 163.980469 78.675781 164.984375 Z M 77.128906 174.75 C 75.476562 172.214844 74.265625 171.554688 73.199219 169.925781 C 71.320312 167.054688 70.671875 164.59375 69.609375 165.203125 C 68.539062 165.8125 68.78125 167.101562 70.816406 169.882812 C 72.855469 172.660156 73.675781 173.171875 77.128906 174.75 Z M 77.128906 174.75 "/>
<path style="fill-rule:nonzero;fill:rgb(23.921569%,36.470588%,65.490196%);fill-opacity:1;stroke-width:1.239;stroke-linecap:butt;stroke-linejoin:miter;stroke:rgb(0%,0%,0%);stroke-opacity:1;stroke-miterlimit:4;" d="M 380.703125 194.25 C 374.765625 205.734375 391.09375 190.429688 416.695312 209.65625 C 421.445312 213.226562 428.242188 227.335938 428.242188 233.875 C 422.789062 232.710938 413.140625 227.335938 413.140625 227.335938 C 413.140625 227.335938 424.46875 238.679688 424.46875 251.757812 C 420.46875 249.257812 418.460938 249.632812 417.132812 246.5625 C 417.132812 250.796875 420.695312 253.492188 420.695312 260.03125 C 348.882812 261.46875 289.515625 204.421875 288.078125 132.609375 C 286.648438 60.804688 343.695312 1.429688 415.5 0 C 419.28125 6.539062 408.625 19.226562 413.953125 23.460938 C 404.625 22.109375 395.085938 16.15625 391.3125 9.617188 C 389.304688 10.960938 389.09375 13.078125 389.015625 15.335938 C 389.304688 15.578125 374.8125 4.578125 376.148438 0.351562 C 374.203125 3.078125 373.929688 4.578125 373.484375 7.65625 C 368.164062 2.40625 363.28125 -2.84375 361.507812 -9.632812 C 359.140625 -6.5625 358.992188 -6.5625 356.625 -3.484375 C 354.851562 -14.242188 354.851562 -13.859375 358.398438 -23.078125 C 355.890625 -21.414062 353.820312 -19.75 351.304688 -17.695312 C 353.6875 -33.273438 365.828125 -51.546875 383.289062 -60.59375 Z M 380.703125 194.25 " transform="matrix(0.5,0,0,0.5,0,0)"/>
<path style=" stroke:none;fill-rule:nonzero;fill:rgb(65.490196%,0%,0%);fill-opacity:1;" d="M 183.03125 125.175781 C 183.503906 121.21875 184.539062 119.726562 184.847656 117.179688 C 185.398438 112.699219 184.746094 109.425781 186.332031 109.507812 C 187.921875 109.589844 188.378906 111.242188 187.59375 115.714844 C 186.808594 120.1875 186.148438 121.273438 183.03125 125.175781 Z M 191.316406 132.421875 C 190.996094 129.082031 191.613281 127.660156 191.40625 125.511719 C 191.054688 121.726562 189.886719 119.164062 191.269531 118.929688 C 192.652344 118.695312 193.355469 119.964844 193.503906 123.78125 C 193.652344 127.601562 193.28125 128.621094 191.316406 132.421875 Z M 204.253906 138.328125 C 202.847656 135.441406 201.640625 134.582031 200.730469 132.722656 C 199.125 129.453125 198.789062 126.785156 197.554688 127.269531 C 196.316406 127.753906 196.382812 129.132812 198.171875 132.332031 C 199.960938 135.53125 200.765625 136.183594 204.253906 138.328125 Z M 208.734375 112.460938 C 205.148438 110.574219 203.308594 110.550781 201 109.339844 C 196.933594 107.214844 194.566406 104.8125 193.726562 106.136719 C 192.886719 107.457031 194.007812 108.769531 198.199219 110.703125 C 202.390625 112.636719 203.679688 112.726562 208.734375 112.460938 Z M 210.046875 123.269531 C 207.4375 121.097656 205.894531 120.78125 204.210938 119.382812 C 201.246094 116.933594 199.769531 114.527344 198.78125 115.503906 C 197.789062 116.476562 198.449219 117.765625 201.5625 120.074219 C 204.675781 122.382812 205.738281 122.671875 210.046875 123.269531 Z M 210.046875 123.269531 "/>
</g>
</svg>
