<?xml version="1.0" encoding="UTF-8"?>
<svg xmlns="http://www.w3.org/2000/svg" xmlns:xlink="http://www.w3.org/1999/xlink" width="px" height="px" viewBox="0 0 600 300" version="1.1">
<defs>
<clipPath id="clip1">
  <path d="M 0 0 L 325 0 L 325 175 L 0 175 Z M 0 0 "/>
</clipPath>
<clipPath id="clip2">
  <path d="M 0 0 L 0 75 L 325 75 L 325 150 L 300 150 Z M 300 0 L 150 0 L 150 175 L 0 175 L 0 150 Z M 300 0 "/>
</clipPath>
</defs>
<g id="surface1">
<path style=" stroke:none;fill-rule:nonzero;fill:rgb(0%,15.686275%,40.784314%);fill-opacity:1;" d="M 0 0 L 300 0 C 335.269531 70.539062 316.625 156.121094 255.210938 205.597656 C 193.796875 255.074219 106.203125 255.074219 44.789062 205.597656 C -16.625 156.121094 -35.269531 70.539062 0 0 Z M 0 0 "/>
<path style="fill:none;stroke-width:480;stroke-linecap:butt;stroke-linejoin:miter;stroke:rgb(100%,100%,100%);stroke-opacity:1;stroke-miterlimit:4;" d="M 0 0 L 4800 2400 M 0 2400 L 4800 0 " transform="matrix(0.0625,0,0,0.0625,0,0)"/>
<g clip-path="url(#clip1)" clip-rule="nonzero">
<g clip-path="url(#clip2)" clip-rule="nonzero">
<path style="fill:none;stroke-width:4;stroke-linecap:butt;stroke-linejoin:miter;stroke:rgb(80.784314%,6.666667%,14.901961%);stroke-opacity:1;stroke-miterlimit:4;" d="M 0 0 L 60 30 M 0 30 L 60 0 " transform="matrix(5,0,0,5,0,0)"/>
</g>
</g>
<path style="fill:none;stroke-width:800;stroke-linecap:butt;stroke-linejoin:miter;stroke:rgb(100%,100%,100%);stroke-opacity:1;stroke-miterlimit:4;" d="M 2400 -400 L 2400 2800 M -400 1200 L 5200 1200 " transform="matrix(0.0625,0,0,0.0625,0,0)"/>
<path style="fill:none;stroke-width:480;stroke-linecap:butt;stroke-linejoin:miter;stroke:rgb(80.784314%,6.666667%,14.901961%);stroke-opacity:1;stroke-miterlimit:4;" d="M 2400 0 L 2400 2800 M 0 1200 L 5200 1200 " transform="matrix(0.0625,0,0,0.0625,0,0)"/>
<path style=" stroke:none;fill-rule:nonzero;fill:rgb(0%,15.686275%,40.784314%);fill-opacity:1;" d="M 0 150 L 300 150 L 300 0 L 600 0 L 600 300 L 0 300 "/>
<path style="fill-rule:nonzero;fill:rgb(98.823529%,81.960784%,8.627451%);fill-opacity:1;stroke-width:64;stroke-linecap:butt;stroke-linejoin:miter;stroke:rgb(0%,0%,0%);stroke-opacity:1;stroke-miterlimit:4;" d="M 840 -1000 L 840 -280 C 840 200 600 717 0 997 C -600 717 -840 200 -840 -280 L -840 -1000 Z M 840 -1000 " transform="matrix(0.0625,0,0,0.0625,450,150)"/>
<path style="fill:none;stroke-width:56;stroke-linecap:butt;stroke-linejoin:miter;stroke:rgb(100%,100%,100%);stroke-opacity:1;stroke-miterlimit:4;" d="M 840 -1000 L 840 -280 C 840 200 600 717 0 997 C -600 717 -840 200 -840 -280 L -840 -1000 Z M 840 -1000 " transform="matrix(0.0625,0,0,0.0625,450,150)"/>
<path style="fill-rule:nonzero;fill:rgb(98.823529%,67.843137%,33.72549%);fill-opacity:1;stroke-width:2.2;stroke-linecap:round;stroke-linejoin:round;stroke:rgb(0%,0%,0%);stroke-opacity:1;stroke-miterlimit:4;" d="M -303 -207 C -325 -170 -362 -162 -391 -174 C -421 -186 -448 -256 -478 -294 C -507 -331 -515 -315 -535 -337 C -554 -358 -584 -374 -631 -396 C -657 -408 -684 -419 -702 -465 C -695 -484 -676 -500 -661 -506 C -646 -511 -634 -533 -632 -552 C -630 -570 -614 -590 -592 -605 C -602 -603 -623 -607 -633 -614 C -642 -622 -657 -620 -666 -613 C -675 -607 -686 -605 -702 -607 C -696 -612 -685 -623 -684 -633 C -683 -643 -671 -648 -648 -648 C -626 -648 -611 -674 -593 -674 C -606 -674 -603 -696 -596 -697 C -628 -703 -624 -729 -611 -729 C -612 -733 -616 -737 -631 -742 C -645 -747 -638 -760 -627 -768 C -637 -788 -628 -803 -612 -816 C -634 -817 -610 -848 -604 -865 C -598 -881 -595 -883 -588 -873 C -580 -864 -562 -843 -541 -837 C -521 -831 -509 -820 -505 -803 C -501 -785 -493 -776 -471 -768 C -448 -761 -417 -742 -421 -699 C -403 -698 -390 -693 -379 -684 " transform="matrix(0.0625,0,0,0.0625,450,150)"/>
<path style="fill-rule:nonzero;fill:rgb(100%,63.137255%,63.137255%);fill-opacity:1;stroke-width:2.2;stroke-linecap:round;stroke-linejoin:round;stroke:rgb(0%,0%,0%);stroke-opacity:1;stroke-miterlimit:4;" d="M -248 -749 C -248 -725 -237 -710 -223 -698 C -208 -686 -195 -676 -198 -661 C -201 -645 -195 -635 -182 -625 C -168 -615 -158 -603 -162 -583 C -166 -563 -163 -551 -155 -536 C -147 -521 -133 -509 -139 -485 C -145 -461 -142 -429 -134 -413 C -127 -398 -134 -386 -148 -359 C -162 -333 -170 -323 -199 -313 C -229 -304 -231 -286 -231 -255 C -231 -223 -252 -207 -291 -213 C -331 -180 -356 -219 -366 -268 C -376 -317 -378 -370 -437 -413 C -495 -457 -472 -531 -423 -561 C -374 -590 -380 -676 -386 -729 C -391 -782 -356 -812 -329 -841 C -293 -827 -248 -772 -248 -749 Z M -248 -749 " transform="matrix(0.0625,0,0,0.0625,450,150)"/>
<path style="fill-rule:nonzero;fill:rgb(94.509804%,69.803922%,86.27451%);fill-opacity:1;stroke-width:2.2;stroke-linecap:round;stroke-linejoin:round;stroke:rgb(0%,0%,0%);stroke-opacity:1;stroke-miterlimit:4;" d="M -333 -408 C -344 -434 -356 -460 -327 -516 C -297 -573 -316 -616 -325 -645 C -334 -673 -336 -699 -325 -711 C -313 -722 -308 -729 -307 -748 C -306 -766 -291 -760 -289 -751 C -287 -742 -285 -727 -301 -700 C -317 -672 -256 -604 -284 -531 C -303 -480 -278 -415 -268 -370 C -258 -325 -252 -217 -318 -201 C -273 -223 -315 -366 -333 -408 Z M -333 -408 " transform="matrix(0.0625,0,0,0.0625,450,150)"/>
<path style="fill:none;stroke-width:2.2;stroke-linecap:round;stroke-linejoin:round;stroke:rgb(0%,0%,0%);stroke-opacity:1;stroke-miterlimit:4;" d="M -630 -416 C -619 -414 -613 -420 -610 -427 C -607 -434 -605 -438 -595 -439 C -585 -439 -569 -442 -565 -450 C -562 -458 -550 -451 -539 -471 C -529 -492 -522 -516 -495 -525 M -421 -699 C -431 -699 -460 -698 -472 -672 M -555 -823 C -531 -816 -541 -800 -529 -791 C -507 -774 -527 -756 -509 -751 C -491 -746 -492 -743 -496 -723 C -502 -700 -480 -699 -488 -684 M -592 -605 C -578 -618 -543 -628 -535 -642 M -593 -674 C -572 -675 -544 -667 -540 -675 M -596 -697 C -586 -697 -565 -704 -561 -718 M -611 -729 C -599 -729 -584 -730 -569 -741 M -627 -768 C -618 -775 -602 -767 -587 -777 M -612 -816 C -605 -816 -590 -818 -590 -809 " transform="matrix(0.0625,0,0,0.0625,450,150)"/>
<path style="fill-rule:nonzero;fill:rgb(61.960784%,32.941176%,3.921569%);fill-opacity:1;stroke-width:2.2;stroke-linecap:round;stroke-linejoin:round;stroke:rgb(0%,0%,0%);stroke-opacity:1;stroke-miterlimit:4;" d="M -55 -233 C -55 -233 -125 -292 -183 -332 C -241 -372 -311 -421 -311 -431 C -300 -439 -241 -401 -160 -352 C -78 -302 -32 -253 -32 -253 Z M -60 -193 C -60 -193 -128 -234 -195 -263 C -265 -292 -370 -292 -381 -302 C -381 -312 -259 -318 -172 -283 C -83 -242 -37 -213 -37 -213 Z M -61 -125 C -61 -125 -135 -159 -207 -175 C -277 -191 -377 -185 -389 -194 C -389 -204 -265 -224 -172 -194 C -78 -165 -38 -145 -38 -145 Z M -65 -56 C -65 -56 -121 -94 -195 -102 C -265 -109 -358 -56 -370 -66 C -370 -76 -289 -135 -188 -125 C -89 -115 -42 -76 -42 -76 Z M -42 -274 C -42 -274 -113 -339 -113 -383 C -113 -422 -70 -482 -51 -482 C -61 -462 -94 -422 -94 -383 C -94 -343 -19 -294 -19 -294 Z M -42 -274 " transform="matrix(0.0625,0,0,0.0625,475,125)"/>
<path style="fill-rule:nonzero;fill:rgb(61.960784%,32.941176%,3.921569%);fill-opacity:1;stroke-width:2.2;stroke-linecap:round;stroke-linejoin:round;stroke:rgb(0%,0%,0%);stroke-opacity:1;stroke-miterlimit:4;" d="M -42 -274 C -42 -274 -28 -339 -28 -383 C -28 -442 -70 -496 -66 -511 C -51 -496 -9 -452 -9 -383 C -9 -323 -19 -294 -19 -294 Z M -42 -274 " transform="matrix(0.0625,0,0,0.0625,475,125)"/>
<path style="fill-rule:nonzero;fill:rgb(61.960784%,32.941176%,3.921569%);fill-opacity:1;stroke-width:12;stroke-linecap:round;stroke-linejoin:round;stroke:rgb(98.823529%,81.960784%,8.627451%);stroke-opacity:1;stroke-miterlimit:4;" d="M -25 -295 C -25 -314 -32 -331 -44 -344 C -60 -363 -84 -369 -109 -365 C -139 -360 -163 -342 -178 -314 C -198 -277 -200 -237 -201 -198 C -201 -63 -196 -8 -192 125 C -191 164 -184 244 -202 307 C -209 334 -217 359 -229 385 C -221 352 -217 335 -213 310 C -202 245 -205 184 -207 124 C -211 1 -218 -62 -222 -211 C -223 -256 -219 -290 -198 -326 C -176 -363 -138 -390 -95 -390 C -77 -390 -62 -387 -47 -378 C -17 -362 -3 -329 -3 -296 Z M -25 -295 " transform="matrix(0.0625,0,0,0.0625,475,125)"/>
<path style=" stroke:none;fill-rule:nonzero;fill:rgb(61.960784%,32.941176%,3.921569%);fill-opacity:1;" d="M 473.4375 106.5625 C 473.4375 105.375 473 104.3125 472.25 103.5 C 471.25 102.3125 469.75 101.9375 468.1875 102.1875 C 466.3125 102.5 464.8125 103.625 463.875 105.375 C 462.625 107.6875 462.5 110.1875 462.4375 112.625 C 462.4375 121.0625 462.75 124.5 463 132.8125 C 463.0625 135.25 463.5 140.25 462.375 144.1875 C 461.9375 145.875 461.4375 147.4375 460.6875 149.0625 C 461.1875 147 461.4375 145.9375 461.6875 144.375 C 462.375 140.3125 462.1875 136.5 462.0625 132.75 C 461.8125 125.0625 461.375 121.125 461.125 111.8125 C 461.0625 109 461.3125 106.875 462.625 104.625 C 464 102.3125 466.375 100.625 469.0625 100.625 C 470.1875 100.625 471.125 100.8125 472.0625 101.375 C 473.9375 102.375 474.8125 104.4375 474.8125 106.5 Z M 473.4375 106.5625 "/>
<path style="fill-rule:nonzero;fill:rgb(61.960784%,32.941176%,3.921569%);fill-opacity:1;stroke-width:2.2;stroke-linecap:round;stroke-linejoin:round;stroke:rgb(0%,0%,0%);stroke-opacity:1;stroke-miterlimit:4;" d="M -19 187 C -19 187 -47 237 -68 273 C -89 309 -106 317 -122 306 C -137 295 -124 266 -112 252 C -100 238 -33 173 -33 173 Z M -19 187 " transform="matrix(0.0625,0,0,0.0625,475,125)"/>
<path style="fill-rule:nonzero;fill:rgb(61.960784%,32.941176%,3.921569%);fill-opacity:1;stroke-width:2.2;stroke-linecap:round;stroke-linejoin:round;stroke:rgb(0%,0%,0%);stroke-opacity:1;stroke-miterlimit:4;" d="M -12 191 C -12 191 -23 248 -32 289 C -40 330 -54 344 -71 339 C -89 335 -86 302 -79 285 C -72 268 -30 182 -30 182 Z M -12 191 " transform="matrix(0.0625,0,0,0.0625,475,125)"/>
<path style="fill-rule:nonzero;fill:rgb(61.960784%,32.941176%,3.921569%);fill-opacity:1;stroke-width:2.2;stroke-linecap:round;stroke-linejoin:round;stroke:rgb(0%,0%,0%);stroke-opacity:1;stroke-miterlimit:4;" d="M 0 193 L 0 293 C 0 335 -10 352 -29 351 C -47 350 -51 318 -47 299 C -44 281 -19 188 -19 188 Z M 0 193 " transform="matrix(0.0625,0,0,0.0625,475,125)"/>
<path style="fill-rule:nonzero;fill:rgb(61.960784%,32.941176%,3.921569%);fill-opacity:1;stroke-width:2.2;stroke-linecap:round;stroke-linejoin:round;stroke:rgb(0%,0%,0%);stroke-opacity:1;stroke-miterlimit:4;" d="M -55 -233 C -55 -233 -125 -292 -183 -332 C -241 -372 -311 -421 -311 -431 C -300 -439 -241 -401 -160 -352 C -78 -302 -32 -253 -32 -253 Z M -60 -193 C -60 -193 -128 -234 -195 -263 C -265 -292 -370 -292 -381 -302 C -381 -312 -259 -318 -172 -283 C -83 -242 -37 -213 -37 -213 Z M -61 -125 C -61 -125 -135 -159 -207 -175 C -277 -191 -377 -185 -389 -194 C -389 -204 -265 -224 -172 -194 C -78 -165 -38 -145 -38 -145 Z M -65 -56 C -65 -56 -121 -94 -195 -102 C -265 -109 -358 -56 -370 -66 C -370 -76 -289 -135 -188 -125 C -89 -115 -42 -76 -42 -76 Z M -42 -274 C -42 -274 -113 -339 -113 -383 C -113 -422 -70 -482 -51 -482 C -61 -462 -94 -422 -94 -383 C -94 -343 -19 -294 -19 -294 Z M -42 -274 " transform="matrix(-0.0625,0,0,0.0625,475,125)"/>
<path style="fill-rule:nonzero;fill:rgb(61.960784%,32.941176%,3.921569%);fill-opacity:1;stroke-width:2.2;stroke-linecap:round;stroke-linejoin:round;stroke:rgb(0%,0%,0%);stroke-opacity:1;stroke-miterlimit:4;" d="M -42 -274 C -42 -274 -28 -339 -28 -383 C -28 -442 -70 -496 -66 -511 C -51 -496 -9 -452 -9 -383 C -9 -323 -19 -294 -19 -294 Z M -42 -274 " transform="matrix(-0.0625,0,0,0.0625,475,125)"/>
<path style="fill-rule:nonzero;fill:rgb(61.960784%,32.941176%,3.921569%);fill-opacity:1;stroke-width:12;stroke-linecap:round;stroke-linejoin:round;stroke:rgb(98.823529%,81.960784%,8.627451%);stroke-opacity:1;stroke-miterlimit:4;" d="M -25 -295 C -25 -314 -32 -331 -44 -344 C -60 -363 -84 -369 -109 -365 C -139 -360 -163 -342 -178 -314 C -198 -277 -200 -237 -201 -198 C -201 -63 -196 -8 -192 125 C -191 164 -184 244 -202 307 C -209 334 -217 359 -229 385 C -221 352 -217 335 -213 310 C -202 245 -205 184 -207 124 C -211 1 -218 -62 -222 -211 C -223 -256 -219 -290 -198 -326 C -176 -363 -138 -390 -95 -390 C -77 -390 -62 -387 -47 -378 C -17 -362 -3 -329 -3 -296 Z M -25 -295 " transform="matrix(-0.0625,0,0,0.0625,475,125)"/>
<path style=" stroke:none;fill-rule:nonzero;fill:rgb(61.960784%,32.941176%,3.921569%);fill-opacity:1;" d="M 476.5625 106.5625 C 476.5625 105.375 477 104.3125 477.75 103.5 C 478.75 102.3125 480.25 101.9375 481.8125 102.1875 C 483.6875 102.5 485.1875 103.625 486.125 105.375 C 487.375 107.6875 487.5 110.1875 487.5625 112.625 C 487.5625 121.0625 487.25 124.5 487 132.8125 C 486.9375 135.25 486.5 140.25 487.625 144.1875 C 488.0625 145.875 488.5625 147.4375 489.3125 149.0625 C 488.8125 147 488.5625 145.9375 488.3125 144.375 C 487.625 140.3125 487.8125 136.5 487.9375 132.75 C 488.1875 125.0625 488.625 121.125 488.875 111.8125 C 488.9375 109 488.6875 106.875 487.375 104.625 C 486 102.3125 483.625 100.625 480.9375 100.625 C 479.8125 100.625 478.875 100.8125 477.9375 101.375 C 476.0625 102.375 475.1875 104.4375 475.1875 106.5 Z M 476.5625 106.5625 "/>
<path style="fill-rule:nonzero;fill:rgb(61.960784%,32.941176%,3.921569%);fill-opacity:1;stroke-width:2.2;stroke-linecap:round;stroke-linejoin:round;stroke:rgb(0%,0%,0%);stroke-opacity:1;stroke-miterlimit:4;" d="M -19 187 C -19 187 -47 237 -68 273 C -89 309 -106 317 -122 306 C -137 295 -124 266 -112 252 C -100 238 -33 173 -33 173 Z M -19 187 " transform="matrix(-0.0625,0,0,0.0625,475,125)"/>
<path style="fill-rule:nonzero;fill:rgb(61.960784%,32.941176%,3.921569%);fill-opacity:1;stroke-width:2.2;stroke-linecap:round;stroke-linejoin:round;stroke:rgb(0%,0%,0%);stroke-opacity:1;stroke-miterlimit:4;" d="M -12 191 C -12 191 -23 248 -32 289 C -40 330 -54 344 -71 339 C -89 335 -86 302 -79 285 C -72 268 -30 182 -30 182 Z M -12 191 " transform="matrix(-0.0625,0,0,0.0625,475,125)"/>
<path style="fill-rule:nonzero;fill:rgb(61.960784%,32.941176%,3.921569%);fill-opacity:1;stroke-width:2.2;stroke-linecap:round;stroke-linejoin:round;stroke:rgb(0%,0%,0%);stroke-opacity:1;stroke-miterlimit:4;" d="M 0 193 L 0 293 C 0 335 -10 352 -29 351 C -47 350 -51 318 -47 299 C -44 281 -19 188 -19 188 Z M 0 193 " transform="matrix(-0.0625,0,0,0.0625,475,125)"/>
<path style="fill-rule:nonzero;fill:rgb(61.960784%,32.941176%,3.921569%);fill-opacity:1;stroke-width:2.2;stroke-linecap:round;stroke-linejoin:round;stroke:rgb(0%,0%,0%);stroke-opacity:1;stroke-miterlimit:4;" d="M 0 192 C -53 191 -58 172 -58 172 C -58 172 -65 148 -66 133 C -67 131 -81 101 -77 88 C -82 76 -94 47 -83 42 C -88 28 -96 12 -97 -3 C -101 -14 -111 -38 -103 -46 C -103 -46 -122 -86 -113 -96 C -113 -96 -122 -135 -113 -145 C -113 -145 -113 -185 -103 -195 C -103 -195 -103 -234 -94 -244 C -94 -242 -66 -299 0 -299 L -1 -214 L 0 -214 Z M 0 192 " transform="matrix(0.0625,0,0,0.0625,475,125)"/>
<path style="fill:none;stroke-width:2.2;stroke-linecap:round;stroke-linejoin:round;stroke:rgb(0%,0%,0%);stroke-opacity:1;stroke-miterlimit:4;" d="M 0 -26 C -85 -27 -103 -46 -103 -46 M 0 -76 C -85 -76 -113 -96 -113 -96 M 0 -125 C -85 -126 -113 -145 -113 -145 M 0 -175 C -85 -176 -103 -195 -103 -195 M -1 -214 C 0 -214 -65 -214 -75 -224 L -94 -243 M 0 152 C -25 152 -53 148 -66 133 M 0 112 C -47 112 -75 93 -75 93 C -75 93 -76 91 -77 88 M 0 63 C -62 62 -79 49 -83 42 M 0 23 C -85 23 -94 3 -94 3 L -97 -3 " transform="matrix(0.0625,0,0,0.0625,475,125)"/>
<path style="fill-rule:nonzero;fill:rgb(61.960784%,32.941176%,3.921569%);fill-opacity:1;stroke-width:2.2;stroke-linecap:round;stroke-linejoin:round;stroke:rgb(0%,0%,0%);stroke-opacity:1;stroke-miterlimit:4;" d="M 0 192 C -53 191 -58 172 -58 172 C -58 172 -65 148 -66 133 C -67 131 -81 101 -77 88 C -82 76 -94 47 -83 42 C -88 28 -96 12 -97 -3 C -101 -14 -111 -38 -103 -46 C -103 -46 -122 -86 -113 -96 C -113 -96 -122 -135 -113 -145 C -113 -145 -113 -185 -103 -195 C -103 -195 -103 -234 -94 -244 C -94 -242 -66 -299 0 -299 L -1 -214 L 0 -214 Z M 0 192 " transform="matrix(-0.0625,0,0,0.0625,475,125)"/>
<path style="fill:none;stroke-width:2.2;stroke-linecap:round;stroke-linejoin:round;stroke:rgb(0%,0%,0%);stroke-opacity:1;stroke-miterlimit:4;" d="M 0 -26 C -85 -27 -103 -46 -103 -46 M 0 -76 C -85 -76 -113 -96 -113 -96 M 0 -125 C -85 -126 -113 -145 -113 -145 M 0 -175 C -85 -176 -103 -195 -103 -195 M -1 -214 C 0 -214 -65 -214 -75 -224 L -94 -243 M 0 152 C -25 152 -53 148 -66 133 M 0 112 C -47 112 -75 93 -75 93 C -75 93 -76 91 -77 88 M 0 63 C -62 62 -79 49 -83 42 M 0 23 C -85 23 -94 3 -94 3 L -97 -3 " transform="matrix(-0.0625,0,0,0.0625,475,125)"/>
<path style="fill-rule:nonzero;fill:rgb(0%,61.960784%,28.627451%);fill-opacity:1;stroke-width:2.2;stroke-linecap:round;stroke-linejoin:round;stroke:rgb(0%,0%,0%);stroke-opacity:1;stroke-miterlimit:4;" d="M 0 712 C -43 752 -126 726 -152 708 C -179 717 -251 689 -270 658 C -322 665 -340 591 -331 572 C -317 544 -342 526 -324 507 C -299 483 -338 460 -314 444 C -290 427 -320 399 -296 381 C -271 362 -309 336 -283 323 C -257 310 -286 276 -264 263 C -242 250 -277 217 -247 202 C -218 187 -244 161 -221 150 C -196 137 -219 110 -196 101 C -170 90 -189 61 -167 53 C -148 46 -160 28 -148 12 L 0 12 " transform="matrix(0.0625,0,0,0.0625,450,150)"/>
<path style="fill:none;stroke-width:2.2;stroke-linecap:round;stroke-linejoin:round;stroke:rgb(0%,0%,0%);stroke-opacity:1;stroke-miterlimit:4;" d="M -99 18 C -119 38 -95 53 -115 77 C -136 102 -117 115 -134 137 C -151 159 -126 170 -145 195 C -164 219 -141 234 -162 254 C -182 275 -158 293 -179 315 C -199 338 -175 353 -195 373 C -216 394 -192 416 -212 436 C -232 457 -208 483 -231 507 C -253 531 -227 550 -245 568 C -264 587 -247 606 -260 619 C -273 632 -275 650 -270 658 M -60 25 C -78 50 -50 61 -67 81 C -84 102 -60 109 -73 133 C -86 157 -63 163 -80 187 C -97 211 -71 230 -89 254 C -108 278 -80 291 -97 315 C -113 340 -89 353 -104 371 C -119 390 -93 408 -112 431 C -130 453 -104 470 -119 490 C -134 511 -113 533 -126 550 C -139 566 -117 591 -136 613 C -154 635 -132 650 -143 665 C -154 680 -163 702 -152 708 " transform="matrix(0.0625,0,0,0.0625,450,150)"/>
<path style="fill-rule:nonzero;fill:rgb(0%,61.960784%,28.627451%);fill-opacity:1;stroke-width:2.2;stroke-linecap:round;stroke-linejoin:round;stroke:rgb(0%,0%,0%);stroke-opacity:1;stroke-miterlimit:4;" d="M 0 712 C -43 752 -126 726 -152 708 C -179 717 -251 689 -270 658 C -322 665 -340 591 -331 572 C -317 544 -342 526 -324 507 C -299 483 -338 460 -314 444 C -290 427 -320 399 -296 381 C -271 362 -309 336 -283 323 C -257 310 -286 276 -264 263 C -242 250 -277 217 -247 202 C -218 187 -244 161 -221 150 C -196 137 -219 110 -196 101 C -170 90 -189 61 -167 53 C -148 46 -160 28 -148 12 L 0 12 " transform="matrix(-0.0625,0,0,0.0625,450,150)"/>
<path style="fill:none;stroke-width:2.2;stroke-linecap:round;stroke-linejoin:round;stroke:rgb(0%,0%,0%);stroke-opacity:1;stroke-miterlimit:4;" d="M -99 18 C -119 38 -95 53 -115 77 C -136 102 -117 115 -134 137 C -151 159 -126 170 -145 195 C -164 219 -141 234 -162 254 C -182 275 -158 293 -179 315 C -199 338 -175 353 -195 373 C -216 394 -192 416 -212 436 C -232 457 -208 483 -231 507 C -253 531 -227 550 -245 568 C -264 587 -247 606 -260 619 C -273 632 -275 650 -270 658 M -60 25 C -78 50 -50 61 -67 81 C -84 102 -60 109 -73 133 C -86 157 -63 163 -80 187 C -97 211 -71 230 -89 254 C -108 278 -80 291 -97 315 C -113 340 -89 353 -104 371 C -119 390 -93 408 -112 431 C -130 453 -104 470 -119 490 C -134 511 -113 533 -126 550 C -139 566 -117 591 -136 613 C -154 635 -132 650 -143 665 C -154 680 -163 702 -152 708 " transform="matrix(-0.0625,0,0,0.0625,450,150)"/>
<path style="fill:none;stroke-width:2.2;stroke-linecap:round;stroke-linejoin:round;stroke:rgb(0%,61.960784%,28.627451%);stroke-opacity:1;stroke-miterlimit:4;" d="M 0 712 L 0 12 " transform="matrix(0.0625,0,0,0.0625,450,150)"/>
<path style="fill:none;stroke-width:2.2;stroke-linecap:round;stroke-linejoin:round;stroke:rgb(0%,0%,0%);stroke-opacity:1;stroke-miterlimit:4;" d="M 0 48 C -9 87 13 121 0 154 C -13 186 9 199 2 225 C -6 251 11 270 0 298 C -11 326 15 348 0 385 C -15 421 10 430 0 467 C -11 509 19 531 0 561 C -19 591 17 598 2 632 C -13 665 11 678 0 712 " transform="matrix(0.0625,0,0,0.0625,450,150)"/>
<path style="fill-rule:nonzero;fill:rgb(98.823529%,81.960784%,8.627451%);fill-opacity:1;stroke-width:2.2;stroke-linecap:round;stroke-linejoin:round;stroke:rgb(0%,0%,0%);stroke-opacity:1;stroke-miterlimit:4;" d="M 15 174 C 10 185 30 211 19 231 C 7 250 25 280 13 304 C 1 328 32 358 20 386 C 7 414 26 449 20 475 C 15 501 33 551 20 569 C 7 588 33 593 18 639 C 3 685 -7 646 2 632 C 21 601 -19 591 0 561 C 19 531 -11 509 0 467 C 10 430 -15 421 0 385 C 15 348 -11 326 0 298 C 11 270 -6 251 2 225 C 9 199 -13 186 0 154 C 10 122 20 163 15 174 Z M -69 206 C -76 218 -57 241 -74 264 C -86 280 -66 299 -83 322 C -94 338 -72 358 -87 381 C -97 394 -80 419 -92 438 C -104 458 -86 474 -107 500 C -119 514 -98 549 -111 560 C -124 571 -112 614 -121 620 C -129 627 -121 658 -143 665 C -132 650 -154 635 -136 613 C -117 591 -139 566 -126 550 C -113 533 -134 511 -119 490 C -104 470 -130 453 -112 431 C -93 408 -119 390 -104 371 C -89 353 -113 340 -97 315 C -80 291 -108 278 -89 254 C -71 230 -97 211 -80 187 C -63 163 -86 157 -73 133 C -49 142 -61 194 -69 206 Z M -119 141 C -129 157 -115 176 -130 196 C -145 217 -130 243 -145 260 C -160 276 -141 308 -160 321 C -179 334 -167 373 -182 386 C -197 399 -182 436 -199 455 C -216 474 -208 513 -218 522 C -227 531 -205 550 -221 563 C -238 576 -238 602 -260 619 C -247 606 -264 587 -245 568 C -227 550 -253 531 -231 507 C -208 483 -232 457 -212 436 C -192 416 -216 394 -195 373 C -175 353 -199 338 -179 315 C -158 293 -182 275 -162 254 C -141 234 -164 219 -145 195 C -126 170 -151 159 -134 137 C -126 127 -126 118 -126 110 C -114 79 -114 133 -119 141 Z M -119 141 " transform="matrix(0.0625,0,0,0.0625,450,150)"/>
<path style="fill-rule:nonzero;fill:rgb(80.784314%,6.666667%,14.901961%);fill-opacity:1;stroke-width:2.2;stroke-linecap:round;stroke-linejoin:round;stroke:rgb(0%,0%,0%);stroke-opacity:1;stroke-miterlimit:4;" d="M -139 35 C -139 -175 -110 -248 0 -248 C 110 -248 139 -175 139 35 Z M -139 35 " transform="matrix(0.0625,0,0,0.0625,450,150)"/>
<path style="fill-rule:nonzero;fill:rgb(0%,0%,0%);fill-opacity:1;stroke-width:2.2;stroke-linecap:round;stroke-linejoin:round;stroke:rgb(0%,0%,0%);stroke-opacity:1;stroke-miterlimit:4;" d="M -139 35 C -139 -175 -110 -248 0 -248 C -50 -248 -81 -209 -89 -183 C -98 -157 -93 -159 -82 -169 C -71 -179 -76 -157 -86 -145 C -95 -133 -104 -98 -91 -109 C -78 -121 -68 -108 -82 -88 C -96 -69 -108 -23 -94 -39 C -80 -55 -77 -29 -86 -16 C -94 -3 -93 9 -86 3 C -78 -3 -79 24 -86 35 Z M 52 31 C 52 0 53 -73 36 -97 C 24 -116 24 -136 38 -114 C 52 -92 59 -103 49 -125 C 37 -153 21 -184 25 -190 C 30 -197 33 -194 43 -179 C 53 -164 55 -186 44 -201 C 33 -215 34 -218 57 -208 C 98 -191 118 -142 118 23 Z M 52 31 " transform="matrix(0.0625,0,0,0.0625,450,150)"/>
<path style="fill-rule:nonzero;fill:rgb(80.784314%,6.666667%,14.901961%);fill-opacity:1;stroke-width:2.2;stroke-linecap:round;stroke-linejoin:round;stroke:rgb(0%,0%,0%);stroke-opacity:1;stroke-miterlimit:4;" d="M 0 65 C -44 65 -92 58 -124 45 C -162 30 -164 17 -151 1 C -141 -11 -121 -4 -101 5 C -82 13 -28 19 0 19 C 28 19 82 13 101 4 C 121 -4 141 -11 151 1 C 164 17 162 30 124 45 C 92 58 44 65 0 65 Z M 0 65 " transform="matrix(0.0625,0,0,0.0625,450,150)"/>
</g>
</svg>
