<?xml version="1.0" encoding="UTF-8"?>
<svg xmlns="http://www.w3.org/2000/svg" xmlns:xlink="http://www.w3.org/1999/xlink" width="px" height="px" viewBox="0 0 404 250" version="1.1">
<g id="surface1">
<rect x="0" y="0" width="404" height="250" style="fill:rgb(0%,41.568627%,30.588235%);fill-opacity:1;stroke:none;"/>
<path style=" stroke:none;fill-rule:nonzero;fill:rgb(100%,80.784314%,0%);fill-opacity:1;" d="M 0 50 L 404 50 L 404 100 L 0 100 Z M 0 150 L 404 150 L 404 200 L 0 200 Z M 0 150 "/>
<path style=" stroke:none;fill-rule:nonzero;fill:rgb(82.352941%,6.27451%,20.392157%);fill-opacity:1;" d="M 0 0 L 149.816406 0 L 149.816406 150 L 0 150 Z M 0 0 "/>
<path style=" stroke:none;fill-rule:nonzero;fill:rgb(100%,100%,100%);fill-opacity:1;" d="M 74.90625 27.5 L 60.246094 72.675781 L 83.996094 80.402344 "/>
<path style=" stroke:none;fill-rule:nonzero;fill:rgb(100%,100%,100%);fill-opacity:1;" d="M 74.90625 27.5 L 89.566406 72.675781 L 65.820312 80.402344 "/>
<path style=" stroke:none;fill-rule:nonzero;fill:rgb(100%,100%,100%);fill-opacity:1;" d="M 120.027344 60.320312 L 72.585938 60.320312 L 72.585938 85.320312 "/>
<path style=" stroke:none;fill-rule:nonzero;fill:rgb(100%,100%,100%);fill-opacity:1;" d="M 120.027344 60.320312 L 81.644531 88.242188 L 66.96875 68.015625 "/>
<path style=" stroke:none;fill-rule:nonzero;fill:rgb(100%,100%,100%);fill-opacity:1;" d="M 102.792969 113.429688 L 88.132812 68.253906 L 64.386719 75.980469 "/>
<path style=" stroke:none;fill-rule:nonzero;fill:rgb(100%,100%,100%);fill-opacity:1;" d="M 102.792969 113.429688 L 64.410156 85.507812 L 79.089844 65.28125 "/>
<path style=" stroke:none;fill-rule:nonzero;fill:rgb(100%,100%,100%);fill-opacity:1;" d="M 47.023438 113.429688 L 85.402344 85.507812 L 70.726562 65.28125 "/>
<path style=" stroke:none;fill-rule:nonzero;fill:rgb(100%,100%,100%);fill-opacity:1;" d="M 47.023438 113.429688 L 61.683594 68.253906 L 85.429688 75.980469 "/>
<path style=" stroke:none;fill-rule:nonzero;fill:rgb(100%,100%,100%);fill-opacity:1;" d="M 29.789062 60.320312 L 68.167969 88.242188 L 82.84375 68.015625 "/>
<path style=" stroke:none;fill-rule:nonzero;fill:rgb(100%,100%,100%);fill-opacity:1;" d="M 29.789062 60.320312 L 77.230469 60.320312 L 77.230469 85.320312 "/>
</g>
</svg>
