<?xml version="1.0" encoding="UTF-8"?>
<svg xmlns="http://www.w3.org/2000/svg" xmlns:xlink="http://www.w3.org/1999/xlink" width="px" height="px" viewBox="0 0 600 300" version="1.1">
<g id="surface1">
<rect x="0" y="0" width="600" height="300" style="fill:rgb(0%,40%,0%);fill-opacity:1;stroke:none;"/>
<path style=" stroke:none;fill-rule:nonzero;fill:rgb(100%,100%,100%);fill-opacity:1;" d="M 0 0 L 600 0 L 600 214.285156 L 0 214.285156 Z M 0 0 "/>
<path style=" stroke:none;fill-rule:nonzero;fill:rgb(80%,0%,0%);fill-opacity:1;" d="M 0 0 L 600 0 L 600 85.714844 L 0 85.714844 Z M 0 0 "/>
<path style=" stroke:none;fill-rule:nonzero;fill:rgb(97.254902%,76.470588%,0%);fill-opacity:1;" d="M 288 146.015625 C 247.679688 225.542969 150.523438 257.328125 70.992188 217.007812 C -8.535156 176.6875 -40.320312 79.527344 0 0 L 0 21.429688 L 4.027344 21.429688 L 4.027344 0 C 7.519531 -3.492188 13.179688 -3.492188 16.671875 0 C 20.164062 3.492188 20.164062 9.152344 16.671875 12.644531 "/>
<path style=" stroke:none;fill-rule:nonzero;fill:rgb(100%,100%,100%);fill-opacity:1;" d="M 290.871094 140.421875 C 290.871094 135.6875 294.710938 131.851562 299.441406 131.851562 C 304.175781 131.851562 308.015625 135.6875 308.015625 140.421875 C 308.015625 145.15625 304.175781 148.992188 299.441406 148.992188 "/>
<path style=" stroke:none;fill-rule:nonzero;fill:rgb(97.254902%,76.470588%,0%);fill-opacity:1;" d="M 297.984375 161.410156 C 298.714844 154.480469 303.773438 148.777344 310.570312 147.234375 C 317.367188 145.6875 324.394531 148.640625 328.050781 154.574219 C 331.707031 160.511719 331.175781 168.117188 326.734375 173.488281 C 322.292969 178.863281 314.925781 180.8125 308.40625 178.339844 C 309.972656 193.953125 333.371094 190.765625 335.117188 175.585938 C 342.46875 188.492188 358.632812 184.792969 363.363281 168.984375 Z M 297.984375 161.410156 "/>
<path style=" stroke:none;fill-rule:nonzero;fill:rgb(97.254902%,76.470588%,0%);fill-opacity:1;" d="M 302.015625 161.410156 C 301.285156 154.480469 296.226562 148.777344 289.429688 147.234375 C 282.632812 145.6875 275.605469 148.640625 271.949219 154.574219 C 268.292969 160.511719 268.824219 168.117188 273.265625 173.488281 C 277.707031 178.863281 285.074219 180.8125 291.59375 178.339844 C 290.027344 193.953125 266.628906 190.765625 264.882812 175.585938 C 257.53125 188.492188 241.367188 184.792969 236.636719 168.984375 Z M 302.015625 161.410156 "/>
<path style=" stroke:none;fill-rule:nonzero;fill:rgb(97.254902%,76.470588%,0%);fill-opacity:1;" d="M 282.359375 189.132812 C 279.09375 196.179688 272.570312 197.390625 266.859375 191.703125 C 266.859375 191.703125 269.15625 190.082031 271.613281 189.632812 C 271.152344 187.671875 272.097656 184.960938 273.425781 183.496094 C 274.824219 184.449219 276.773438 186.363281 277.265625 188.582031 C 280.707031 188.136719 282.359375 189.132812 282.359375 189.132812 Z M 282.359375 189.132812 "/>
<path style=" stroke:none;fill-rule:nonzero;fill:rgb(97.254902%,76.470588%,0%);fill-opacity:1;" d="M 307.902344 188.335938 C 303.535156 194.757812 296.898438 194.890625 292.191406 188.347656 C 292.191406 188.347656 294.71875 187.121094 297.214844 187.078125 C 297.082031 185.070312 298.453125 182.546875 300.007812 181.316406 C 301.230469 182.488281 302.839844 184.691406 302.96875 186.964844 C 306.433594 187.085938 307.902344 188.335938 307.902344 188.335938 Z M 307.902344 188.335938 "/>
<path style=" stroke:none;fill-rule:nonzero;fill:rgb(97.254902%,76.470588%,0%);fill-opacity:1;" d="M 333.234375 191.707031 C 327.878906 197.332031 321.308594 196.382812 317.730469 189.160156 C 317.730469 189.160156 320.425781 188.363281 322.894531 188.726562 C 323.089844 186.722656 324.855469 184.457031 326.585938 183.496094 C 327.601562 184.847656 328.832031 187.285156 328.585938 189.550781 C 331.988281 190.234375 333.234375 191.707031 333.234375 191.707031 Z M 333.234375 191.707031 "/>
<path style="fill:none;stroke-width:16;stroke-linecap:butt;stroke-linejoin:miter;stroke:rgb(97.254902%,76.470588%,0%);stroke-opacity:1;stroke-miterlimit:4;" d="M 603.002604 477.996094 C 735 311.481771 707.018229 69.498698 540.503906 -62.498698 C 373.989583 -194.496094 131.997396 -166.514323 0 0 " transform="matrix(0.428571,0,0,0.428571,0,0)"/>
<path style=" stroke:none;fill-rule:nonzero;fill:rgb(97.254902%,76.470588%,0%);fill-opacity:1;" d="M 300 91.851562 L 306.46875 111.761719 L 289.53125 99.457031 L 310.46875 99.457031 L 293.53125 111.761719 Z M 300 91.851562 "/>
<path style=" stroke:none;fill-rule:nonzero;fill:rgb(97.254902%,76.470588%,0%);fill-opacity:1;" d="M 270 99.886719 L 276.46875 119.800781 L 259.53125 107.492188 L 280.46875 107.492188 L 263.53125 119.800781 Z M 270 99.886719 "/>
<path style=" stroke:none;fill-rule:nonzero;fill:rgb(97.254902%,76.470588%,0%);fill-opacity:1;" d="M 248.039062 121.851562 L 254.507812 141.761719 L 237.570312 129.457031 L 258.507812 129.457031 L 241.566406 141.761719 Z M 248.039062 121.851562 "/>
<path style=" stroke:none;fill-rule:nonzero;fill:rgb(97.254902%,76.470588%,0%);fill-opacity:1;" d="M 240 151.851562 L 246.46875 171.761719 L 229.53125 159.457031 L 250.46875 159.457031 L 233.53125 171.761719 Z M 240 151.851562 "/>
<path style=" stroke:none;fill-rule:nonzero;fill:rgb(97.254902%,76.470588%,0%);fill-opacity:1;" d="M 330 99.886719 L 323.53125 119.800781 L 340.46875 107.492188 L 319.53125 107.492188 L 336.46875 119.800781 Z M 330 99.886719 "/>
<path style=" stroke:none;fill-rule:nonzero;fill:rgb(97.254902%,76.470588%,0%);fill-opacity:1;" d="M 351.960938 121.851562 L 345.492188 141.761719 L 362.429688 129.457031 L 341.492188 129.457031 L 358.433594 141.761719 Z M 351.960938 121.851562 "/>
<path style=" stroke:none;fill-rule:nonzero;fill:rgb(97.254902%,76.470588%,0%);fill-opacity:1;" d="M 360 151.851562 L 353.53125 171.761719 L 370.46875 159.457031 L 349.53125 159.457031 L 366.46875 171.761719 Z M 360 151.851562 "/>
</g>
</svg>
