<?xml version="1.0" encoding="UTF-8"?>
<svg xmlns="http://www.w3.org/2000/svg" xmlns:xlink="http://www.w3.org/1999/xlink" width="px" height="px" viewBox="0 0 450 225" version="1.1">
<g id="surface1">
<rect x="0" y="0" width="450" height="225" style="fill:rgb(86.27451%,14.117647%,12.156863%);fill-opacity:1;stroke:none;"/>
<path style=" stroke:none;fill-rule:nonzero;fill:rgb(100%,78.039216%,14.901961%);fill-opacity:1;" d="M 0 0 L 0 225 L 225 112.5 Z M 0 0 "/>
<path style=" stroke:none;fill-rule:nonzero;fill:rgb(0%,0%,0%);fill-opacity:1;" d="M 0 0 L 0 225 L 150 112.5 Z M 0 0 "/>
<path style=" stroke:none;fill-rule:nonzero;fill:rgb(100%,100%,100%);fill-opacity:1;" d="M 38.640625 77.28125 L 44.503906 116.21875 L 63.046875 113.425781 Z M 38.640625 77.28125 "/>
<path style=" stroke:none;fill-rule:nonzero;fill:rgb(100%,100%,100%);fill-opacity:1;" d="M 38.640625 77.28125 L 66.269531 105.335938 L 52.914062 118.492188 Z M 38.640625 77.28125 "/>
<path style=" stroke:none;fill-rule:nonzero;fill:rgb(100%,100%,100%);fill-opacity:1;" d="M 84.304688 84.871094 L 49.085938 102.480469 L 57.46875 119.25 Z M 84.304688 84.871094 "/>
<path style=" stroke:none;fill-rule:nonzero;fill:rgb(100%,100%,100%);fill-opacity:1;" d="M 84.304688 84.871094 L 66.160156 119.816406 L 49.519531 111.175781 Z M 84.304688 84.871094 "/>
<path style=" stroke:none;fill-rule:nonzero;fill:rgb(100%,100%,100%);fill-opacity:1;" d="M 17.3125 118.363281 L 56.15625 124.820312 L 59.230469 106.324219 Z M 17.3125 118.363281 "/>
<path style=" stroke:none;fill-rule:nonzero;fill:rgb(100%,100%,100%);fill-opacity:1;" d="M 17.3125 118.363281 L 52.53125 100.753906 L 60.917969 117.527344 Z M 17.3125 118.363281 "/>
<path style=" stroke:none;fill-rule:nonzero;fill:rgb(100%,100%,100%);fill-opacity:1;" d="M 91.195312 130.640625 L 63.566406 102.589844 L 50.207031 115.746094 Z M 91.195312 130.640625 "/>
<path style=" stroke:none;fill-rule:nonzero;fill:rgb(100%,100%,100%);fill-opacity:1;" d="M 91.195312 130.640625 L 52.355469 124.1875 L 55.429688 105.691406 Z M 91.195312 130.640625 "/>
<path style=" stroke:none;fill-rule:nonzero;fill:rgb(100%,100%,100%);fill-opacity:1;" d="M 49.796875 151.34375 L 67.9375 116.394531 L 51.296875 107.757812 Z M 49.796875 151.34375 "/>
<path style=" stroke:none;fill-rule:nonzero;fill:rgb(100%,100%,100%);fill-opacity:1;" d="M 49.796875 151.34375 L 43.929688 112.40625 L 62.472656 109.613281 Z M 49.796875 151.34375 "/>
</g>
</svg>
