<?xml version="1.0" encoding="UTF-8"?>
<svg xmlns="http://www.w3.org/2000/svg" xmlns:xlink="http://www.w3.org/1999/xlink" width="px" height="px" viewBox="0 0 600 400" version="1.1">
<g id="surface1">
<rect x="0" y="0" width="600" height="400" style="fill:rgb(90.588235%,0%,7.45098%);fill-opacity:1;stroke:none;"/>
<path style=" stroke:none;fill-rule:nonzero;fill:rgb(100%,100%,100%);fill-opacity:1;" d="M 400 200 C 400 255.226562 355.226562 300 300 300 C 244.773438 300 200 255.226562 200 200 C 200 144.773438 244.773438 100 300 100 C 355.226562 100 400 144.773438 400 200 Z M 400 200 "/>
<path style=" stroke:none;fill-rule:nonzero;fill:rgb(90.588235%,0%,7.45098%);fill-opacity:1;" d="M 300 125 C 341.421875 125 375 158.578125 375 200 C 375 241.421875 341.421875 275 300 275 C 274.21875 267.125 256.855469 243.019531 257.550781 216.074219 C 258.242188 189.125 276.824219 165.949219 302.976562 159.410156 C 329.128906 152.871094 356.433594 164.578125 369.726562 188.027344 C 383.019531 211.480469 379.042969 240.917969 360 260 L 360 200 Z M 300 125 "/>
<path style=" stroke:none;fill-rule:nonzero;fill:rgb(90.588235%,0%,7.45098%);fill-opacity:1;" d="M 275 200 L 356.40625 173.550781 L 306.101562 242.800781 L 306.101562 157.199219 L 356.398438 226.449219 Z M 275 200 "/>
</g>
</svg>
