<?xml version="1.0" encoding="UTF-8"?>
<svg xmlns="http://www.w3.org/2000/svg" xmlns:xlink="http://www.w3.org/1999/xlink" width="px" height="px" viewBox="0 0 450 300" version="1.1">
<g id="surface1">
<rect x="0" y="0" width="450" height="300" style="fill:rgb(0%,0%,0%);fill-opacity:1;stroke:none;"/>
<path style=" stroke:none;fill-rule:nonzero;fill:rgb(98.823529%,86.27451%,1.568627%);fill-opacity:1;" d="M 0 50 L 450 50 L 450 150 L 0 150 Z M 0 50 "/>
<path style=" stroke:none;fill-rule:nonzero;fill:rgb(85.098039%,0%,0%);fill-opacity:1;" d="M 0 100 L 450 100 L 450 150 L 0 150 Z M 0 100 "/>
<path style=" stroke:none;fill-rule:nonzero;fill:rgb(98.823529%,86.27451%,1.568627%);fill-opacity:1;" d="M 0 200 L 450 200 L 450 300 L 0 300 Z M 0 200 "/>
<path style=" stroke:none;fill-rule:nonzero;fill:rgb(85.098039%,0%,0%);fill-opacity:1;" d="M 0 250 L 450 250 L 450 300 L 0 300 Z M 0 250 "/>
<path style=" stroke:none;fill-rule:nonzero;fill:rgb(100%,100%,100%);fill-opacity:1;" d="M 271.75 150 C 271.75 175.820312 250.820312 196.75 225 196.75 C 199.179688 196.75 178.25 175.820312 178.25 150 C 178.25 124.179688 199.179688 103.25 225 103.25 C 250.820312 103.25 271.75 124.179688 271.75 150 Z M 271.75 150 "/>
<path style="fill-rule:nonzero;fill:rgb(85.098039%,0%,0%);fill-opacity:1;stroke-width:1;stroke-linecap:butt;stroke-linejoin:miter;stroke:rgb(0%,0%,0%);stroke-opacity:1;stroke-miterlimit:4;" d="M 433.523438 228.390625 L 427.453125 217.21875 C 429.796875 214.882812 433.734375 213.070312 440.007812 213.070312 C 440.007812 213.5 439.367188 225.304688 439.367188 225.304688 Z M 433.523438 228.390625 " transform="matrix(0.5,0,0,0.5,0,0)"/>
<path style="fill-rule:nonzero;fill:rgb(98.823529%,86.27451%,1.568627%);fill-opacity:1;stroke-width:1;stroke-linecap:butt;stroke-linejoin:miter;stroke:rgb(0%,0%,0%);stroke-opacity:1;stroke-miterlimit:4;" d="M 439.367188 225.414062 L 440.21875 213.070312 C 440.21875 213.070312 452.773438 212.328125 459.585938 220.515625 C 459.6875 220.414062 452.882812 230.09375 452.882812 230.09375 Z M 439.367188 225.414062 " transform="matrix(0.5,0,0,0.5,0,0)"/>
<path style="fill-rule:nonzero;fill:rgb(85.098039%,0%,0%);fill-opacity:1;stroke-width:1;stroke-linecap:butt;stroke-linejoin:miter;stroke:rgb(0%,0%,0%);stroke-opacity:1;stroke-miterlimit:4;" d="M 453.09375 229.984375 L 459.265625 220.414062 C 463.414062 224.773438 465.117188 227.859375 465.757812 232.539062 C 465.859375 232.648438 455.96875 234.984375 455.96875 234.882812 C 455.96875 234.773438 453.203125 230.09375 453.09375 229.984375 Z M 453.09375 229.984375 " transform="matrix(0.5,0,0,0.5,0,0)"/>
<path style="fill-rule:nonzero;fill:rgb(0%,0%,0%);fill-opacity:1;stroke-width:1;stroke-linecap:butt;stroke-linejoin:miter;stroke:rgb(0%,0%,0%);stroke-opacity:1;stroke-miterlimit:4;" d="M 436.601562 388.070312 C 436.601562 388.070312 448.203125 374.773438 470.757812 377.648438 C 467.351562 372.117188 456.390625 372.757812 456.390625 372.757812 C 456.390625 372.757812 452.992188 346.90625 455.648438 345.625 C 458.304688 344.351562 469.585938 345.734375 469.585938 345.734375 C 471.070312 345.734375 473.625 341.6875 471.609375 339.140625 C 469.585938 336.585938 463.625 326.796875 466.070312 324.882812 C 468.523438 322.96875 481.820312 325.945312 481.820312 325.945312 L 444.265625 277.859375 C 444.265625 277.859375 440.4375 259.773438 448.09375 251.046875 C 457.351562 243.390625 456.390625 235.09375 456.070312 235.195312 C 454.796875 226.796875 442.03125 220.726562 433.414062 228.5 C 428.304688 234.664062 431.710938 239.351562 431.710938 239.351562 C 431.710938 239.351562 418.304688 242.96875 417.773438 245.304688 C 417.242188 247.648438 432.882812 244.882812 432.882812 244.882812 L 431.390625 255.625 C 431.390625 255.625 400.96875 283.28125 424.265625 307.21875 C 424.476562 307.117188 425.007812 306.15625 425.007812 306.15625 C 425.007812 306.15625 433.203125 316.265625 441.820312 318.5 C 449.90625 326.796875 449.15625 325.515625 449.15625 325.515625 C 449.15625 325.515625 450.757812 338.601562 449.265625 341.15625 C 447.242188 340.515625 426.601562 339.773438 423.523438 340.945312 C 420.757812 341.796875 410.117188 341.265625 412.773438 358.601562 C 414.796875 353.921875 416.601562 349.773438 416.601562 349.773438 C 416.601562 349.773438 416.28125 356.054688 418.835938 358.28125 C 418.414062 351.6875 421.289062 347.21875 421.289062 347.21875 C 421.289062 347.21875 421.820312 354.453125 423.414062 355.515625 C 425.007812 356.585938 425.007812 343.820312 433.84375 344.882812 C 442.671875 345.945312 449.054688 345.625 449.054688 345.625 C 449.054688 345.625 452.03125 370.625 451.070312 372.96875 C 444.6875 371.476562 429.476562 373.609375 428.523438 377.4375 C 437.453125 376.90625 441.609375 377.96875 441.609375 377.96875 C 441.609375 377.96875 434.375 384.351562 436.609375 388.070312 Z M 436.601562 388.070312 " transform="matrix(0.5,0,0,0.5,0,0)"/>
<path style="fill-rule:nonzero;fill:rgb(61.176471%,65.098039%,61.176471%);fill-opacity:1;stroke-width:1;stroke-linecap:butt;stroke-linejoin:miter;stroke:rgb(61.176471%,65.098039%,61.176471%);stroke-opacity:1;stroke-miterlimit:4;" d="M 440.1875 251.65625 C 440.1875 251.65625 418.054688 276.0625 427.601562 294.734375 C 428.109375 292.132812 427.890625 290.492188 428.210938 290.601562 C 427.679688 290.28125 430.953125 292.851562 430.703125 292.351562 C 430.773438 291 429.710938 288.109375 429.710938 288.109375 L 432.703125 288.851562 L 430.953125 285.609375 L 435.195312 286.109375 C 435.195312 286.109375 433.703125 282.117188 434.203125 282.117188 C 434.703125 282.117188 437.695312 282.367188 437.695312 282.367188 C 431.398438 271.0625 437.335938 261.679688 440.1875 251.65625 Z M 447.882812 230.726562 C 447.882812 230.726562 449.054688 239.132812 444.476562 241.578125 C 443.734375 242.117188 440.859375 243.070312 441.289062 244.773438 C 441.820312 247.117188 443.09375 246.6875 444.90625 246.265625 C 449.6875 245.414062 455.226562 235.195312 447.882812 230.734375 Z M 447.882812 230.726562 " transform="matrix(0.5,0,0,0.5,0,0)"/>
<path style=" stroke:none;fill-rule:nonzero;fill:rgb(100%,100%,100%);fill-opacity:1;" d="M 219.898438 119 C 219.898438 119.496094 219.496094 119.898438 219 119.898438 C 218.503906 119.898438 218.101562 119.496094 218.101562 119 C 218.101562 118.503906 218.503906 118.101562 219 118.101562 C 219.496094 118.101562 219.898438 118.503906 219.898438 119 Z M 219.898438 119 "/>
<path style="fill-rule:nonzero;fill:rgb(85.098039%,0%,0%);fill-opacity:1;stroke-width:1;stroke-linecap:butt;stroke-linejoin:miter;stroke:rgb(0%,0%,0%);stroke-opacity:1;stroke-miterlimit:4;" d="M 432.5625 244.984375 C 431.390625 245.945312 425.226562 252.328125 431.289062 254.664062 C 437.5625 252.96875 435.859375 251.796875 437.242188 250.414062 C 437.28125 247.539062 434.125 246.796875 432.5625 244.984375 Z M 432.5625 244.984375 " transform="matrix(0.5,0,0,0.5,0,0)"/>
<path style="fill-rule:nonzero;fill:rgb(61.176471%,65.098039%,61.176471%);fill-opacity:1;stroke-width:1;stroke-linecap:butt;stroke-linejoin:miter;stroke:rgb(61.176471%,65.098039%,61.176471%);stroke-opacity:1;stroke-miterlimit:4;" d="M 445.96875 305.304688 C 445.648438 306.6875 444.265625 311.796875 446.179688 315.734375 C 451.5 313.5 453.945312 314.132812 455.757812 315.304688 C 451.390625 311.796875 449.6875 310.304688 445.96875 305.304688 Z M 445.96875 305.304688 " transform="matrix(0.5,0,0,0.5,0,0)"/>
<path style="fill-rule:nonzero;fill:rgb(100%,100%,100%);fill-opacity:1;stroke-width:1;stroke-linecap:butt;stroke-linejoin:miter;stroke:rgb(100%,100%,100%);stroke-opacity:1;stroke-miterlimit:4;" d="M 455.117188 329.453125 L 455.4375 341.367188 C 455.4375 341.367188 459.585938 342.117188 461.5 341.367188 C 463.414062 340.625 461.390625 333.070312 455.117188 329.453125 Z M 455.117188 329.453125 " transform="matrix(0.5,0,0,0.5,0,0)"/>
<path style="fill-rule:nonzero;fill:rgb(61.176471%,65.098039%,61.176471%);fill-opacity:1;stroke-width:1;stroke-linecap:butt;stroke-linejoin:miter;stroke:rgb(0%,0%,0%);stroke-opacity:1;stroke-miterlimit:4;" d="M 485.226562 330.945312 C 485.226562 330.945312 477.5625 312.4375 457.984375 307.75 C 438.414062 303.070312 440.96875 282.21875 442.5625 280.945312 C 443.414062 279.132812 444.054688 276.367188 449.6875 279.03125 C 455.328125 281.6875 481.289062 294.773438 485.007812 295.414062 C 488.734375 296.054688 485.539062 331.367188 485.226562 330.945312 Z M 485.226562 330.945312 " transform="matrix(0.5,0,0,0.5,0,0)"/>
<path style="fill-rule:nonzero;fill:rgb(85.098039%,0%,0%);fill-opacity:1;stroke-width:1;stroke-linecap:butt;stroke-linejoin:miter;stroke:rgb(0%,0%,0%);stroke-opacity:1;stroke-miterlimit:4;" d="M 466.609375 307.648438 C 466.289062 307.859375 492.773438 323.28125 484.796875 336.585938 C 492.351562 331.585938 489.90625 322.859375 489.90625 322.859375 C 489.90625 322.859375 496.070312 338.921875 481.070312 346.796875 C 482.671875 348.179688 483.734375 347.859375 483.734375 347.859375 L 481.179688 350.414062 C 481.179688 350.414062 480.007812 352.328125 490.117188 347.429688 C 487.351562 349.671875 487.140625 351.265625 487.140625 351.265625 C 487.140625 351.265625 487.882812 353.390625 494.476562 347.648438 C 489.15625 353.390625 487.984375 356.367188 487.984375 356.265625 C 502.351562 354.984375 533.625 308.28125 478.09375 294.453125 C 481.078125 297.539062 480.648438 297.117188 480.648438 297.117188 Z M 466.609375 307.648438 " transform="matrix(0.5,0,0,0.5,0,0)"/>
<path style="fill-rule:nonzero;fill:rgb(100%,100%,100%);fill-opacity:1;stroke-width:1;stroke-linecap:butt;stroke-linejoin:miter;stroke:rgb(0%,0%,0%);stroke-opacity:1;stroke-miterlimit:4;" d="M 467.773438 303.070312 C 471.390625 305.625 472.671875 306.476562 473.09375 307.75 C 469.796875 307.007812 466.820312 307.21875 466.820312 307.21875 C 466.820312 307.21875 459.6875 300.414062 458.414062 299.882812 C 457.453125 299.882812 451.921875 296.367188 451.921875 296.367188 C 449.15625 294.984375 446.609375 285.414062 456.820312 288.179688 C 467.351562 293.179688 468.835938 293.601562 468.835938 293.601562 C 473.023438 294.914062 477.210938 296.226562 481.390625 297.539062 L 488.625 305.625 C 488.625 305.625 475.757812 299.242188 474.15625 299.132812 C 477.671875 302.007812 479.6875 305.945312 479.6875 305.945312 C 475.609375 304.773438 472.070312 303.710938 467.773438 303.070312 Z M 467.773438 303.070312 " transform="matrix(0.5,0,0,0.5,0,0)"/>
<path style="fill-rule:nonzero;fill:rgb(0%,0%,0%);fill-opacity:1;stroke-width:1;stroke-linecap:butt;stroke-linejoin:miter;stroke:rgb(100%,100%,100%);stroke-opacity:1;stroke-miterlimit:4;" d="M 417.671875 245.945312 C 417.671875 245.945312 430.007812 242.96875 431.5 243.390625 " transform="matrix(0.5,0,0,0.5,0,0)"/>
</g>
</svg>
