<?xml version="1.0" encoding="UTF-8"?>
<svg xmlns="http://www.w3.org/2000/svg" xmlns:xlink="http://www.w3.org/1999/xlink" width="px" height="px" viewBox="0 0 617 325" version="1.1">
<g id="surface1">
<rect x="0" y="0" width="617" height="325" style="fill:rgb(69.803922%,13.333333%,20.392157%);fill-opacity:1;stroke:none;"/>
<path style="fill-rule:nonzero;fill:rgb(0%,0%,0%);fill-opacity:1;stroke-width:300;stroke-linecap:butt;stroke-linejoin:miter;stroke:rgb(100%,100%,100%);stroke-opacity:1;stroke-miterlimit:4;" d="M 0 450 L 7410 450 M 7410 1050 L 0 1050 M 0 1650 L 7410 1650 M 7410 2250 L 0 2250 M 0 2850 L 7410 2850 M 7410 3450 L 0 3450 " transform="matrix(0.0832659,0,0,0.0833333,0,0)"/>
<path style=" stroke:none;fill-rule:nonzero;fill:rgb(23.529412%,23.137255%,43.137255%);fill-opacity:1;" d="M 0 0 L 246.800781 0 L 246.800781 175 L 0 175 Z M 0 0 "/>
<path style=" stroke:none;fill-rule:nonzero;fill:rgb(100%,100%,100%);fill-opacity:1;" d="M 20.566406 7.5 L 26.441406 25.589844 L 11.0625 14.410156 L 30.070312 14.410156 L 14.695312 25.589844 Z M 20.566406 7.5 "/>
<path style=" stroke:none;fill-rule:nonzero;fill:rgb(100%,100%,100%);fill-opacity:1;" d="M 20.566406 42.5 L 26.441406 60.589844 L 11.0625 49.410156 L 30.070312 49.410156 L 14.695312 60.589844 Z M 20.566406 42.5 "/>
<path style=" stroke:none;fill-rule:nonzero;fill:rgb(100%,100%,100%);fill-opacity:1;" d="M 20.566406 77.5 L 26.441406 95.589844 L 11.0625 84.410156 L 30.070312 84.410156 L 14.695312 95.589844 Z M 20.566406 77.5 "/>
<path style=" stroke:none;fill-rule:nonzero;fill:rgb(100%,100%,100%);fill-opacity:1;" d="M 20.566406 112.5 L 26.441406 130.589844 L 11.0625 119.410156 L 30.070312 119.410156 L 14.695312 130.589844 Z M 20.566406 112.5 "/>
<path style=" stroke:none;fill-rule:nonzero;fill:rgb(100%,100%,100%);fill-opacity:1;" d="M 20.566406 147.5 L 26.441406 165.589844 L 11.0625 154.410156 L 30.070312 154.410156 L 14.695312 165.589844 Z M 20.566406 147.5 "/>
<path style=" stroke:none;fill-rule:nonzero;fill:rgb(100%,100%,100%);fill-opacity:1;" d="M 41.132812 25 L 47.007812 43.089844 L 31.628906 31.910156 L 50.636719 31.910156 L 35.261719 43.089844 Z M 41.132812 25 "/>
<path style=" stroke:none;fill-rule:nonzero;fill:rgb(100%,100%,100%);fill-opacity:1;" d="M 41.132812 60 L 47.007812 78.089844 L 31.628906 66.910156 L 50.636719 66.910156 L 35.261719 78.089844 Z M 41.132812 60 "/>
<path style=" stroke:none;fill-rule:nonzero;fill:rgb(100%,100%,100%);fill-opacity:1;" d="M 41.132812 95 L 47.007812 113.089844 L 31.628906 101.910156 L 50.636719 101.910156 L 35.261719 113.089844 Z M 41.132812 95 "/>
<path style=" stroke:none;fill-rule:nonzero;fill:rgb(100%,100%,100%);fill-opacity:1;" d="M 41.132812 130 L 47.007812 148.089844 L 31.628906 136.910156 L 50.636719 136.910156 L 35.261719 148.089844 Z M 41.132812 130 "/>
<path style=" stroke:none;fill-rule:nonzero;fill:rgb(100%,100%,100%);fill-opacity:1;" d="M 61.699219 7.5 L 67.574219 25.589844 L 52.195312 14.410156 L 71.203125 14.410156 L 55.828125 25.589844 Z M 61.699219 7.5 "/>
<path style=" stroke:none;fill-rule:nonzero;fill:rgb(100%,100%,100%);fill-opacity:1;" d="M 61.699219 42.5 L 67.574219 60.589844 L 52.195312 49.410156 L 71.203125 49.410156 L 55.828125 60.589844 Z M 61.699219 42.5 "/>
<path style=" stroke:none;fill-rule:nonzero;fill:rgb(100%,100%,100%);fill-opacity:1;" d="M 61.699219 77.5 L 67.574219 95.589844 L 52.195312 84.410156 L 71.203125 84.410156 L 55.828125 95.589844 Z M 61.699219 77.5 "/>
<path style=" stroke:none;fill-rule:nonzero;fill:rgb(100%,100%,100%);fill-opacity:1;" d="M 61.699219 112.5 L 67.574219 130.589844 L 52.195312 119.410156 L 71.203125 119.410156 L 55.828125 130.589844 Z M 61.699219 112.5 "/>
<path style=" stroke:none;fill-rule:nonzero;fill:rgb(100%,100%,100%);fill-opacity:1;" d="M 61.699219 147.5 L 67.574219 165.589844 L 52.195312 154.410156 L 71.203125 154.410156 L 55.828125 165.589844 Z M 61.699219 147.5 "/>
<path style=" stroke:none;fill-rule:nonzero;fill:rgb(100%,100%,100%);fill-opacity:1;" d="M 82.265625 25 L 88.140625 43.089844 L 72.765625 31.910156 L 91.769531 31.910156 L 76.394531 43.089844 Z M 82.265625 25 "/>
<path style=" stroke:none;fill-rule:nonzero;fill:rgb(100%,100%,100%);fill-opacity:1;" d="M 82.265625 60 L 88.140625 78.089844 L 72.765625 66.910156 L 91.769531 66.910156 L 76.394531 78.089844 Z M 82.265625 60 "/>
<path style=" stroke:none;fill-rule:nonzero;fill:rgb(100%,100%,100%);fill-opacity:1;" d="M 82.265625 95 L 88.140625 113.089844 L 72.765625 101.910156 L 91.769531 101.910156 L 76.394531 113.089844 Z M 82.265625 95 "/>
<path style=" stroke:none;fill-rule:nonzero;fill:rgb(100%,100%,100%);fill-opacity:1;" d="M 82.265625 130 L 88.140625 148.089844 L 72.765625 136.910156 L 91.769531 136.910156 L 76.394531 148.089844 Z M 82.265625 130 "/>
<path style=" stroke:none;fill-rule:nonzero;fill:rgb(100%,100%,100%);fill-opacity:1;" d="M 102.832031 7.5 L 108.707031 25.589844 L 93.332031 14.410156 L 112.335938 14.410156 L 96.960938 25.589844 Z M 102.832031 7.5 "/>
<path style=" stroke:none;fill-rule:nonzero;fill:rgb(100%,100%,100%);fill-opacity:1;" d="M 102.832031 42.5 L 108.707031 60.589844 L 93.332031 49.410156 L 112.335938 49.410156 L 96.960938 60.589844 Z M 102.832031 42.5 "/>
<path style=" stroke:none;fill-rule:nonzero;fill:rgb(100%,100%,100%);fill-opacity:1;" d="M 102.832031 77.5 L 108.707031 95.589844 L 93.332031 84.410156 L 112.335938 84.410156 L 96.960938 95.589844 Z M 102.832031 77.5 "/>
<path style=" stroke:none;fill-rule:nonzero;fill:rgb(100%,100%,100%);fill-opacity:1;" d="M 102.832031 112.5 L 108.707031 130.589844 L 93.332031 119.410156 L 112.335938 119.410156 L 96.960938 130.589844 Z M 102.832031 112.5 "/>
<path style=" stroke:none;fill-rule:nonzero;fill:rgb(100%,100%,100%);fill-opacity:1;" d="M 102.832031 147.5 L 108.707031 165.589844 L 93.332031 154.410156 L 112.335938 154.410156 L 96.960938 165.589844 Z M 102.832031 147.5 "/>
<path style=" stroke:none;fill-rule:nonzero;fill:rgb(100%,100%,100%);fill-opacity:1;" d="M 123.398438 25 L 129.273438 43.089844 L 113.898438 31.910156 L 132.902344 31.910156 L 117.527344 43.089844 Z M 123.398438 25 "/>
<path style=" stroke:none;fill-rule:nonzero;fill:rgb(100%,100%,100%);fill-opacity:1;" d="M 123.398438 60 L 129.273438 78.089844 L 113.898438 66.910156 L 132.902344 66.910156 L 117.527344 78.089844 Z M 123.398438 60 "/>
<path style=" stroke:none;fill-rule:nonzero;fill:rgb(100%,100%,100%);fill-opacity:1;" d="M 123.398438 95 L 129.273438 113.089844 L 113.898438 101.910156 L 132.902344 101.910156 L 117.527344 113.089844 Z M 123.398438 95 "/>
<path style=" stroke:none;fill-rule:nonzero;fill:rgb(100%,100%,100%);fill-opacity:1;" d="M 123.398438 130 L 129.273438 148.089844 L 113.898438 136.910156 L 132.902344 136.910156 L 117.527344 148.089844 Z M 123.398438 130 "/>
<path style=" stroke:none;fill-rule:nonzero;fill:rgb(100%,100%,100%);fill-opacity:1;" d="M 143.964844 7.5 L 149.839844 25.589844 L 134.464844 14.410156 L 153.46875 14.410156 L 138.09375 25.589844 Z M 143.964844 7.5 "/>
<path style=" stroke:none;fill-rule:nonzero;fill:rgb(100%,100%,100%);fill-opacity:1;" d="M 143.964844 42.5 L 149.839844 60.589844 L 134.464844 49.410156 L 153.46875 49.410156 L 138.09375 60.589844 Z M 143.964844 42.5 "/>
<path style=" stroke:none;fill-rule:nonzero;fill:rgb(100%,100%,100%);fill-opacity:1;" d="M 143.964844 77.5 L 149.839844 95.589844 L 134.464844 84.410156 L 153.46875 84.410156 L 138.09375 95.589844 Z M 143.964844 77.5 "/>
<path style=" stroke:none;fill-rule:nonzero;fill:rgb(100%,100%,100%);fill-opacity:1;" d="M 143.964844 112.5 L 149.839844 130.589844 L 134.464844 119.410156 L 153.46875 119.410156 L 138.09375 130.589844 Z M 143.964844 112.5 "/>
<path style=" stroke:none;fill-rule:nonzero;fill:rgb(100%,100%,100%);fill-opacity:1;" d="M 143.964844 147.5 L 149.839844 165.589844 L 134.464844 154.410156 L 153.46875 154.410156 L 138.09375 165.589844 Z M 143.964844 147.5 "/>
<path style=" stroke:none;fill-rule:nonzero;fill:rgb(100%,100%,100%);fill-opacity:1;" d="M 164.535156 25 L 170.40625 43.089844 L 155.03125 31.910156 L 174.035156 31.910156 L 158.660156 43.089844 Z M 164.535156 25 "/>
<path style=" stroke:none;fill-rule:nonzero;fill:rgb(100%,100%,100%);fill-opacity:1;" d="M 164.535156 60 L 170.40625 78.089844 L 155.03125 66.910156 L 174.035156 66.910156 L 158.660156 78.089844 Z M 164.535156 60 "/>
<path style=" stroke:none;fill-rule:nonzero;fill:rgb(100%,100%,100%);fill-opacity:1;" d="M 164.535156 95 L 170.40625 113.089844 L 155.03125 101.910156 L 174.035156 101.910156 L 158.660156 113.089844 Z M 164.535156 95 "/>
<path style=" stroke:none;fill-rule:nonzero;fill:rgb(100%,100%,100%);fill-opacity:1;" d="M 164.535156 130 L 170.40625 148.089844 L 155.03125 136.910156 L 174.035156 136.910156 L 158.660156 148.089844 Z M 164.535156 130 "/>
<path style=" stroke:none;fill-rule:nonzero;fill:rgb(100%,100%,100%);fill-opacity:1;" d="M 185.101562 7.5 L 190.972656 25.589844 L 175.597656 14.410156 L 194.601562 14.410156 L 179.226562 25.589844 Z M 185.101562 7.5 "/>
<path style=" stroke:none;fill-rule:nonzero;fill:rgb(100%,100%,100%);fill-opacity:1;" d="M 185.101562 42.5 L 190.972656 60.589844 L 175.597656 49.410156 L 194.601562 49.410156 L 179.226562 60.589844 Z M 185.101562 42.5 "/>
<path style=" stroke:none;fill-rule:nonzero;fill:rgb(100%,100%,100%);fill-opacity:1;" d="M 185.101562 77.5 L 190.972656 95.589844 L 175.597656 84.410156 L 194.601562 84.410156 L 179.226562 95.589844 Z M 185.101562 77.5 "/>
<path style=" stroke:none;fill-rule:nonzero;fill:rgb(100%,100%,100%);fill-opacity:1;" d="M 185.101562 112.5 L 190.972656 130.589844 L 175.597656 119.410156 L 194.601562 119.410156 L 179.226562 130.589844 Z M 185.101562 112.5 "/>
<path style=" stroke:none;fill-rule:nonzero;fill:rgb(100%,100%,100%);fill-opacity:1;" d="M 185.101562 147.5 L 190.972656 165.589844 L 175.597656 154.410156 L 194.601562 154.410156 L 179.226562 165.589844 Z M 185.101562 147.5 "/>
<path style=" stroke:none;fill-rule:nonzero;fill:rgb(100%,100%,100%);fill-opacity:1;" d="M 205.667969 25 L 211.539062 43.089844 L 196.164062 31.910156 L 215.167969 31.910156 L 199.792969 43.089844 Z M 205.667969 25 "/>
<path style=" stroke:none;fill-rule:nonzero;fill:rgb(100%,100%,100%);fill-opacity:1;" d="M 205.667969 60 L 211.539062 78.089844 L 196.164062 66.910156 L 215.167969 66.910156 L 199.792969 78.089844 Z M 205.667969 60 "/>
<path style=" stroke:none;fill-rule:nonzero;fill:rgb(100%,100%,100%);fill-opacity:1;" d="M 205.667969 95 L 211.539062 113.089844 L 196.164062 101.910156 L 215.167969 101.910156 L 199.792969 113.089844 Z M 205.667969 95 "/>
<path style=" stroke:none;fill-rule:nonzero;fill:rgb(100%,100%,100%);fill-opacity:1;" d="M 205.667969 130 L 211.539062 148.089844 L 196.164062 136.910156 L 215.167969 136.910156 L 199.792969 148.089844 Z M 205.667969 130 "/>
<path style=" stroke:none;fill-rule:nonzero;fill:rgb(100%,100%,100%);fill-opacity:1;" d="M 226.234375 7.5 L 232.105469 25.589844 L 216.730469 14.410156 L 235.734375 14.410156 L 220.359375 25.589844 Z M 226.234375 7.5 "/>
<path style=" stroke:none;fill-rule:nonzero;fill:rgb(100%,100%,100%);fill-opacity:1;" d="M 226.234375 42.5 L 232.105469 60.589844 L 216.730469 49.410156 L 235.734375 49.410156 L 220.359375 60.589844 Z M 226.234375 42.5 "/>
<path style=" stroke:none;fill-rule:nonzero;fill:rgb(100%,100%,100%);fill-opacity:1;" d="M 226.234375 77.5 L 232.105469 95.589844 L 216.730469 84.410156 L 235.734375 84.410156 L 220.359375 95.589844 Z M 226.234375 77.5 "/>
<path style=" stroke:none;fill-rule:nonzero;fill:rgb(100%,100%,100%);fill-opacity:1;" d="M 226.234375 112.5 L 232.105469 130.589844 L 216.730469 119.410156 L 235.734375 119.410156 L 220.359375 130.589844 Z M 226.234375 112.5 "/>
<path style=" stroke:none;fill-rule:nonzero;fill:rgb(100%,100%,100%);fill-opacity:1;" d="M 226.234375 147.5 L 232.105469 165.589844 L 216.730469 154.410156 L 235.734375 154.410156 L 220.359375 165.589844 Z M 226.234375 147.5 "/>
</g>
</svg>
