<?xml version="1.0" encoding="UTF-8"?>
<svg xmlns="http://www.w3.org/2000/svg" xmlns:xlink="http://www.w3.org/1999/xlink" width="px" height="px" viewBox="0 0 472 315" version="1.1">
<g id="surface1">
<rect x="0" y="0" width="472" height="315" style="fill:rgb(100%,100%,100%);fill-opacity:1;stroke:none;"/>
<path style=" stroke:none;fill-rule:nonzero;fill:rgb(0%,21.960784%,65.882353%);fill-opacity:1;" d="M 174.816406 35 L 472 35 L 472 70 L 174.816406 70 Z M 174.816406 105 L 472 105 L 472 140 L 174.816406 140 Z M 0 175 L 472 175 L 472 210 L 0 210 Z M 0 245 L 472 245 L 472 280 L 0 280 Z M 0 245 "/>
<path style="fill-rule:nonzero;fill:rgb(98.823529%,81.960784%,8.627451%);fill-opacity:1;stroke-width:0.611;stroke-linecap:square;stroke-linejoin:miter;stroke:rgb(48.235294%,24.705882%,0%);stroke-opacity:1;stroke-miterlimit:20;" d="M -19.105488 157.887026 L -16.040935 162.465555 C -28.636433 171.581271 -20.945047 176.972153 -29.873842 179.890836 C -24.319987 174.471016 -30.606355 173.635925 -25.92986 162.343598 " transform="matrix(1.887765,0,0,1.889765,119.515894,-193.76)"/>
<path style="fill-rule:nonzero;fill:rgb(98.823529%,81.960784%,8.627451%);fill-opacity:1;stroke-width:0.61119;stroke-linecap:square;stroke-linejoin:miter;stroke:rgb(48.235294%,24.705882%,0%);stroke-opacity:1;stroke-miterlimit:20;" d="M -24.893168 153.752914 L -25.962968 159.158265 C -41.31677 156.696401 -39.690343 165.946477 -48.06458 161.698677 C -40.306978 161.791694 -43.986097 156.688133 -32.694224 152.010386 " transform="matrix(1.887765,0,0,1.889765,119.515894,-193.76)"/>
<path style="fill-rule:nonzero;fill:rgb(48.235294%,24.705882%,0%);fill-opacity:1;stroke-width:0.278091;stroke-linecap:square;stroke-linejoin:miter;stroke:rgb(48.235294%,24.705882%,0%);stroke-opacity:1;stroke-miterlimit:20;" d="M -24.893168 153.754981 L -27.312116 153.318832 L -27.287285 153.418051 C -33.741262 154.999348 -37.244495 157.674119 -39.988314 159.708102 C -41.362294 160.725093 -42.547971 161.589123 -43.830904 162.058345 C -88.582479 161.969461 -124.78807 125.620282 -124.699092 80.868521 C -124.612184 36.118826 -88.261746 -0.0877259 -43.510171 -0.000909505 C -36.849269 2.367937 -37.290018 -5.511681 -22.977046 -3.217249 Z M -24.893168 153.754981 " transform="matrix(1.887765,0,0,1.889765,119.515894,-193.76)"/>
<path style="fill:none;stroke-width:0.61119;stroke-linecap:butt;stroke-linejoin:miter;stroke:rgb(48.235294%,24.705882%,0%);stroke-opacity:1;stroke-miterlimit:20;" d="M -27.361778 153.120395 C -40.375263 156.307795 -41.606465 163.982774 -48.06458 161.69661 " transform="matrix(1.887765,0,0,1.889765,119.515894,-193.76)"/>
<path style="fill-rule:nonzero;fill:rgb(98.823529%,81.960784%,8.627451%);fill-opacity:1;stroke-width:0.611;stroke-linecap:butt;stroke-linejoin:miter;stroke:rgb(48.235294%,24.705882%,0%);stroke-opacity:1;stroke-miterlimit:20;" d="M -17.009342 148.833321 L -21.331996 144.511107 L -40.778766 172.602397 L -12.686688 153.155535 L -17.009342 148.833321 L -40.778766 172.602397 " transform="matrix(1.887765,0,0,1.889765,119.515894,-193.76)"/>
<path style="fill-rule:nonzero;fill:rgb(98.823529%,81.960784%,8.627451%);fill-opacity:1;stroke-width:0.61119;stroke-linecap:square;stroke-linejoin:miter;stroke:rgb(48.235294%,24.705882%,0%);stroke-opacity:1;stroke-miterlimit:20;" d="M -26.064361 146.737326 L -30.641532 149.80277 C -39.756559 137.206131 -45.149013 144.895579 -48.06458 135.970031 C -42.647295 141.520077 -41.759589 135.246562 -30.465646 139.924309 " transform="matrix(1.887765,0,0,1.889765,119.515894,-193.76)"/>
<path style="fill-rule:nonzero;fill:rgb(48.235294%,24.705882%,0%);fill-opacity:1;stroke-width:0.278091;stroke-linecap:square;stroke-linejoin:miter;stroke:rgb(48.235294%,24.705882%,0%);stroke-opacity:1;stroke-miterlimit:20;" d="M -26.064361 146.737326 L -27.46524 144.719879 L -27.51904 144.806696 C -33.201189 141.36298 -37.569366 140.778003 -40.948444 140.273642 C -42.639018 140.021461 -44.085421 139.794085 -45.326968 139.217376 C -83.769414 139.676263 -115.306786 108.881263 -115.76409 70.438156 C -116.221393 31.992983 -85.428949 0.457977 -46.984434 -0.000909505 C -43.946781 6.384226 -38.686759 0.499318 -30.188367 12.24433 Z M -26.064361 146.737326 " transform="matrix(1.887765,0,0,1.889765,119.515894,-193.76)"/>
<path style="fill:none;stroke-width:0.61119;stroke-linecap:butt;stroke-linejoin:miter;stroke:rgb(48.235294%,24.705882%,0%);stroke-opacity:1;stroke-miterlimit:20;" d="M -27.361778 144.544179 C -38.815052 137.594737 -45.113836 142.152596 -48.06458 135.970031 " transform="matrix(1.887765,0,0,1.889765,119.515894,-193.76)"/>
<path style="fill-rule:nonzero;fill:rgb(98.823529%,81.960784%,8.627451%);fill-opacity:1;stroke-width:0.61119;stroke-linecap:butt;stroke-linejoin:miter;stroke:rgb(48.235294%,24.705882%,0%);stroke-opacity:1;stroke-miterlimit:20;" d="M -17.009342 148.833321 L -17.009342 142.721036 L -50.624237 148.833321 L -17.009342 154.945605 L -17.009342 148.833321 L -50.624237 148.833321 " transform="matrix(1.887765,0,0,1.889765,119.515894,-193.76)"/>
<path style=" stroke:none;fill-rule:nonzero;fill:rgb(48.235294%,24.705882%,0%);fill-opacity:1;" d="M 87.40625 87.5 L 87.40625 99.050781 L 87.40625 87.5 L 23.949219 87.5 L 87.40625 99.050781 "/>
<path style="fill-rule:nonzero;fill:rgb(98.823529%,81.960784%,8.627451%);fill-opacity:1;stroke-width:0.61119;stroke-linecap:square;stroke-linejoin:miter;stroke:rgb(48.235294%,24.705882%,0%);stroke-opacity:1;stroke-miterlimit:20;" d="M -21.930008 140.947502 L -27.332808 139.878834 C -24.872475 124.52681 -34.122003 126.151516 -29.873842 117.777872 C -29.969027 125.533466 -24.601404 122.47629 -19.92284 133.768617 " transform="matrix(1.887765,0,0,1.889765,119.515894,-193.76)"/>
<path style="fill-rule:nonzero;fill:rgb(48.235294%,24.705882%,0%);fill-opacity:1;stroke-width:0.278091;stroke-linecap:square;stroke-linejoin:miter;stroke:rgb(48.235294%,24.705882%,0%);stroke-opacity:1;stroke-miterlimit:20;" d="M -21.930008 140.949569 L -21.493397 138.529047 L -21.59479 138.555918 C -23.175694 132.100503 -25.851228 128.596843 -27.883228 125.853859 C -28.899227 124.479267 -29.764172 123.296911 -30.233891 122.011202 C -63.925348 122.747074 -91.835333 96.030376 -92.571985 62.337364 C -93.306567 28.646419 -66.590536 0.734962 -32.89701 -0.000909505 C -35.264227 6.661212 -27.386609 6.220929 -29.679333 20.533224 Z M -21.930008 140.949569 " transform="matrix(1.887765,0,0,1.889765,119.515894,-193.76)"/>
<path style="fill:none;stroke-width:0.61119;stroke-linecap:butt;stroke-linejoin:miter;stroke:rgb(48.235294%,24.705882%,0%);stroke-opacity:1;stroke-miterlimit:20;" d="M -21.296819 138.481504 C -24.481388 125.46732 -32.158289 124.237422 -29.873842 117.777872 " transform="matrix(1.887765,0,0,1.889765,119.515894,-193.76)"/>
<path style="fill-rule:nonzero;fill:rgb(98.823529%,81.960784%,8.627451%);fill-opacity:1;stroke-width:0.61119;stroke-linecap:butt;stroke-linejoin:miter;stroke:rgb(48.235294%,24.705882%,0%);stroke-opacity:1;stroke-miterlimit:20;" d="M -17.009342 148.833321 L -12.686688 144.511107 L -40.778766 125.064244 L -21.331996 153.155535 L -17.009342 148.833321 L -40.778766 125.062177 " transform="matrix(1.887765,0,0,1.889765,119.515894,-193.76)"/>
<path style=" stroke:none;fill-rule:nonzero;fill:rgb(48.235294%,24.705882%,0%);fill-opacity:1;" d="M 87.40625 87.5 L 79.246094 95.667969 L 87.40625 87.5 L 42.535156 42.578125 L 79.246094 95.667969 "/>
<path style="fill-rule:nonzero;fill:rgb(98.823529%,81.960784%,8.627451%);fill-opacity:1;stroke-width:0.61119;stroke-linecap:square;stroke-linejoin:miter;stroke:rgb(48.235294%,24.705882%,0%);stroke-opacity:1;stroke-miterlimit:20;" d="M -14.911127 139.779615 L -17.977749 135.201087 C -5.380181 126.08537 -13.071567 120.694488 -4.144842 117.777872 C -9.696628 123.195626 -3.443367 124.088594 -8.121932 135.382987 " transform="matrix(1.887765,0,0,1.889765,119.515894,-193.76)"/>
<path style="fill-rule:nonzero;fill:rgb(48.235294%,24.705882%,0%);fill-opacity:1;stroke-width:0.278091;stroke-linecap:square;stroke-linejoin:miter;stroke:rgb(48.235294%,24.705882%,0%);stroke-opacity:1;stroke-miterlimit:20;" d="M -14.913196 139.777548 L -12.895681 138.376084 L -12.98259 138.322341 C -9.537296 132.642071 -8.951699 128.272315 -8.448873 124.894746 C -8.196425 123.203894 -7.970877 121.756955 -7.393557 120.516721 C -40.673235 85.194869 -39.017838 29.582795 -3.695815 -3.696806 C 31.624138 -36.976406 87.237184 -35.320695 120.516862 -0.000909505 C 114.13117 3.037663 120.016104 8.296253 108.271066 16.795987 Z M -14.913196 139.777548 " transform="matrix(1.887765,0,0,1.889765,119.515894,-193.76)"/>
<path style="fill:none;stroke-width:0.61119;stroke-linecap:butt;stroke-linejoin:miter;stroke:rgb(48.235294%,24.705882%,0%);stroke-opacity:1;stroke-miterlimit:20;" d="M -12.719796 138.481504 C -5.771269 127.02588 -10.329817 120.727561 -4.144842 117.777872 " transform="matrix(1.887765,0,0,1.889765,119.515894,-193.76)"/>
<path style="fill-rule:nonzero;fill:rgb(98.823529%,81.960784%,8.627451%);fill-opacity:1;stroke-width:0.61119;stroke-linecap:butt;stroke-linejoin:miter;stroke:rgb(48.235294%,24.705882%,0%);stroke-opacity:1;stroke-miterlimit:20;" d="M -17.009342 148.833321 L -10.89679 148.833321 L -17.009342 115.218857 L -23.121893 148.833321 L -17.009342 148.833321 L -17.009342 115.218857 " transform="matrix(1.887765,0,0,1.889765,119.515894,-193.76)"/>
<path style=" stroke:none;fill-rule:nonzero;fill:rgb(48.235294%,24.705882%,0%);fill-opacity:1;" d="M 87.40625 87.5 L 75.867188 87.5 L 87.40625 87.5 L 87.40625 23.976562 L 75.867188 87.5 "/>
<path style="fill-rule:nonzero;fill:rgb(98.823529%,81.960784%,8.627451%);fill-opacity:1;stroke-width:0.61119;stroke-linecap:square;stroke-linejoin:miter;stroke:rgb(48.235294%,24.705882%,0%);stroke-opacity:1;stroke-miterlimit:20;" d="M -9.123447 143.913727 L -8.053647 138.508376 C 7.298087 140.97024 5.67166 131.720164 14.047966 135.970031 C 6.290364 135.874947 9.746004 141.00538 -1.547938 145.683127 " transform="matrix(1.887765,0,0,1.889765,119.515894,-193.76)"/>
<path style="fill-rule:nonzero;fill:rgb(48.235294%,24.705882%,0%);fill-opacity:1;stroke-width:0.278091;stroke-linecap:square;stroke-linejoin:miter;stroke:rgb(48.235294%,24.705882%,0%);stroke-opacity:1;stroke-miterlimit:20;" d="M -9.123447 143.91166 L -6.704498 144.347809 L -6.729329 144.24859 C -0.277422 142.667293 3.227881 139.992522 5.9717 137.958539 C 7.34361 136.941548 8.529288 136.077518 9.81222 135.608297 C -27.634918 100.871421 -29.830388 42.353067 4.906039 4.906281 C 39.644535 -32.540504 98.160732 -34.737785 135.609939 -0.000909505 C 128.946968 -2.367689 129.389787 5.511929 115.074746 3.217497 Z M -9.123447 143.91166 " transform="matrix(1.887765,0,0,1.889765,119.515894,-193.76)"/>
<path style="fill:none;stroke-width:0.61119;stroke-linecap:butt;stroke-linejoin:miter;stroke:rgb(48.235294%,24.705882%,0%);stroke-opacity:1;stroke-miterlimit:20;" d="M -6.656906 144.544179 C 6.35658 141.360913 7.587781 133.683867 14.047966 135.970031 " transform="matrix(1.887765,0,0,1.889765,119.515894,-193.76)"/>
<path style="fill-rule:nonzero;fill:rgb(98.823529%,81.960784%,8.627451%);fill-opacity:1;stroke-width:0.61119;stroke-linecap:butt;stroke-linejoin:miter;stroke:rgb(48.235294%,24.705882%,0%);stroke-opacity:1;stroke-miterlimit:20;" d="M -17.009342 148.833321 L -12.686688 153.155535 L 6.760083 125.064244 L -21.331996 144.511107 L -17.009342 148.833321 L 6.760083 125.062177 " transform="matrix(1.887765,0,0,1.889765,119.515894,-193.76)"/>
<path style=" stroke:none;fill-rule:nonzero;fill:rgb(48.235294%,24.705882%,0%);fill-opacity:1;" d="M 87.40625 87.5 L 79.246094 79.332031 L 87.40625 87.5 L 132.277344 42.578125 L 79.246094 79.332031 "/>
<path style="fill-rule:nonzero;fill:rgb(98.823529%,81.960784%,8.627451%);fill-opacity:1;stroke-width:0.61119;stroke-linecap:square;stroke-linejoin:miter;stroke:rgb(48.235294%,24.705882%,0%);stroke-opacity:1;stroke-miterlimit:20;" d="M -7.954323 150.929315 L -3.377151 147.865938 C 5.739945 160.46051 11.13033 152.771062 14.047966 161.69661 C 8.628612 156.144497 7.612612 162.358068 -3.681331 157.68032 " transform="matrix(1.887765,0,0,1.889765,119.515894,-193.76)"/>
<path style="fill-rule:nonzero;fill:rgb(48.235294%,24.705882%,0%);fill-opacity:1;stroke-width:0.278091;stroke-linecap:square;stroke-linejoin:miter;stroke:rgb(48.235294%,24.705882%,0%);stroke-opacity:1;stroke-miterlimit:20;" d="M -7.954323 150.929315 L -6.551374 152.948829 L -6.499643 152.859946 C -0.817495 156.303661 3.552752 156.890705 6.93183 157.392999 C 8.620335 157.64518 10.068807 157.872556 11.308285 158.449265 C -32.445914 117.817146 -34.978671 49.407929 5.653036 5.654556 C 46.286813 -38.100885 114.694004 -40.630961 158.448203 -0.000909505 C 155.41262 -6.383978 150.152598 -0.501137 141.652137 -12.244082 Z M -7.954323 150.929315 " transform="matrix(1.887765,0,0,1.889765,119.515894,-193.76)"/>
<path style="fill:none;stroke-width:0.61119;stroke-linecap:butt;stroke-linejoin:miter;stroke:rgb(48.235294%,24.705882%,0%);stroke-opacity:1;stroke-miterlimit:20;" d="M -6.656906 153.120395 C 4.798438 160.071904 11.095153 155.511978 14.047966 161.69661 " transform="matrix(1.887765,0,0,1.889765,119.515894,-193.76)"/>
<path style="fill-rule:nonzero;fill:rgb(98.823529%,81.960784%,8.627451%);fill-opacity:1;stroke-width:0.61119;stroke-linecap:butt;stroke-linejoin:miter;stroke:rgb(48.235294%,24.705882%,0%);stroke-opacity:1;stroke-miterlimit:20;" d="M -17.009342 148.833321 L -17.009342 154.945605 L 16.605554 148.833321 L -17.009342 142.721036 L -17.009342 148.833321 L 16.605554 148.833321 " transform="matrix(1.887765,0,0,1.889765,119.515894,-193.76)"/>
<path style=" stroke:none;fill-rule:nonzero;fill:rgb(48.235294%,24.705882%,0%);fill-opacity:1;" d="M 87.40625 87.5 L 87.40625 75.949219 L 87.40625 87.5 L 150.863281 87.5 L 87.40625 75.949219 "/>
<path style="fill-rule:nonzero;fill:rgb(98.823529%,81.960784%,8.627451%);fill-opacity:1;stroke-width:0.61119;stroke-linecap:square;stroke-linejoin:miter;stroke:rgb(48.235294%,24.705882%,0%);stroke-opacity:1;stroke-miterlimit:20;" d="M -12.088676 156.719139 L -6.683806 157.787807 C -9.146208 173.141899 0.10332 171.513059 -4.144842 179.890836 C -4.049656 172.133175 -9.158624 175.725719 -13.835119 164.431325 " transform="matrix(1.887765,0,0,1.889765,119.515894,-193.76)"/>
<path style="fill-rule:nonzero;fill:rgb(48.235294%,24.705882%,0%);fill-opacity:1;stroke-width:0.278091;stroke-linecap:square;stroke-linejoin:miter;stroke:rgb(48.235294%,24.705882%,0%);stroke-opacity:1;stroke-miterlimit:20;" d="M -12.088676 156.717072 L -12.523217 159.137594 L -12.423893 159.11279 C -10.84299 165.564071 -8.167455 169.069798 -6.133387 171.814849 C -5.117387 173.187374 -4.254512 174.371797 -3.784793 175.655439 C -52.292049 126.103973 -51.443658 46.613269 -1.893502 -1.892266 C 47.658723 -50.397801 127.150863 -49.550308 175.65605 -0.000909505 C 178.023267 -6.663031 170.14358 -6.220681 172.436304 -20.532976 Z M -12.088676 156.717072 " transform="matrix(1.887765,0,0,1.889765,119.515894,-193.76)"/>
<path style="fill:none;stroke-width:0.61119;stroke-linecap:butt;stroke-linejoin:miter;stroke:rgb(48.235294%,24.705882%,0%);stroke-opacity:1;stroke-miterlimit:20;" d="M -12.719796 159.185137 C -9.535226 172.199321 -1.860394 173.429219 -4.146911 179.890836 " transform="matrix(1.887765,0,0,1.889765,119.515894,-193.76)"/>
<path style="fill-rule:nonzero;fill:rgb(98.823529%,81.960784%,8.627451%);fill-opacity:1;stroke-width:0.61119;stroke-linecap:butt;stroke-linejoin:miter;stroke:rgb(48.235294%,24.705882%,0%);stroke-opacity:1;stroke-miterlimit:20;" d="M -17.009342 148.833321 L -21.331996 153.155535 L 6.760083 172.602397 L -12.686688 144.511107 L -17.009342 148.833321 L 6.760083 172.602397 " transform="matrix(1.887765,0,0,1.889765,119.515894,-193.76)"/>
<path style=" stroke:none;fill-rule:nonzero;fill:rgb(48.235294%,24.705882%,0%);fill-opacity:1;" d="M 87.40625 87.5 L 95.566406 79.332031 L 87.40625 87.5 L 132.277344 132.417969 L 95.566406 79.332031 "/>
<path style="fill-rule:nonzero;fill:rgb(48.235294%,24.705882%,0%);fill-opacity:1;stroke-width:0.278;stroke-linecap:square;stroke-linejoin:miter;stroke:rgb(48.235294%,24.705882%,0%);stroke-opacity:1;stroke-miterlimit:20;" d="M -19.105488 157.887026 L -21.123002 159.290557 L -21.034024 159.3443 C -24.479318 165.02457 -25.064915 169.394326 -25.569811 172.773963 C -25.82019 174.462747 -26.047807 175.911754 -26.625126 177.14992 C -75.544162 176.56701 -114.727398 136.437186 -114.14387 87.51824 C -113.560343 38.60136 -73.431462 -0.583819 -24.512426 -0.000909505 C -18.128804 -3.037415 -24.013738 -8.296005 -12.2687 -16.795739 Z M -19.105488 157.887026 " transform="matrix(1.887765,0,0,1.889765,119.515894,-193.76)"/>
<path style="fill:none;stroke-width:0.611;stroke-linecap:butt;stroke-linejoin:miter;stroke:rgb(48.235294%,24.705882%,0%);stroke-opacity:1;stroke-miterlimit:20;" d="M -21.296819 159.185137 C -28.247415 170.640761 -23.688867 176.937013 -29.873842 179.890836 " transform="matrix(1.887765,0,0,1.889765,119.515894,-193.76)"/>
<path style="fill-rule:nonzero;fill:rgb(98.823529%,81.960784%,8.627451%);fill-opacity:1;stroke-width:0.611;stroke-linecap:butt;stroke-linejoin:miter;stroke:rgb(48.235294%,24.705882%,0%);stroke-opacity:1;stroke-miterlimit:20;" d="M -17.009342 148.833321 L -23.121893 148.833321 L -17.009342 182.449852 L -10.89679 148.833321 L -17.009342 148.833321 L -17.009342 182.449852 " transform="matrix(1.887765,0,0,1.889765,119.515894,-193.76)"/>
<path style=" stroke:none;fill-rule:nonzero;fill:rgb(48.235294%,24.705882%,0%);fill-opacity:1;" d="M 87.40625 87.5 L 98.945312 87.5 L 87.40625 87.5 L 87.40625 151.027344 L 98.945312 87.5 "/>
<path style=" stroke:none;fill-rule:nonzero;fill:rgb(48.235294%,24.705882%,0%);fill-opacity:1;" d="M 87.40625 87.5 L 95.566406 95.667969 L 87.40625 87.5 L 42.535156 132.417969 L 95.566406 95.667969 "/>
<path style="fill-rule:nonzero;fill:rgb(98.823529%,81.960784%,8.627451%);fill-opacity:1;stroke-width:0.611;stroke-linecap:butt;stroke-linejoin:miter;stroke:rgb(48.235294%,24.705882%,0%);stroke-opacity:1;stroke-miterlimit:20;" d="M -5.804377 148.833321 C -5.804377 155.022086 -10.820228 160.038831 -17.009342 160.038831 C -23.196386 160.038831 -28.214307 155.022086 -28.214307 148.833321 C -28.214307 142.644555 -23.196386 137.62781 -17.009342 137.62781 C -10.820228 137.62781 -5.804377 142.644555 -5.804377 148.833321 Z M -5.804377 148.833321 " transform="matrix(1.887765,0,0,1.889765,119.515894,-193.76)"/>
<path style=" stroke:none;fill-rule:nonzero;fill:rgb(48.235294%,24.705882%,0%);fill-opacity:1;" d="M 102.984375 79.03125 C 101.636719 80.570312 100.867188 77.875 96.058594 77.875 C 91.253906 77.875 90.484375 80.761719 89.714844 80.183594 C 88.945312 79.609375 93.753906 76.140625 95.292969 75.949219 C 96.828125 75.757812 101.25 77.296875 102.984375 79.03125 M 97.40625 80.761719 C 98.753906 81.917969 97.597656 84.421875 96.253906 84.421875 C 94.90625 84.421875 92.40625 82.109375 93.5625 80.570312 "/>
<path style=" stroke:none;fill-rule:nonzero;fill:rgb(48.235294%,24.705882%,0%);fill-opacity:1;" d="M 91.058594 82.496094 C 91.253906 80.183594 93.175781 79.800781 96.25 79.800781 C 99.328125 79.800781 100.675781 82.109375 101.828125 82.6875 C 100.484375 82.6875 99.328125 80.761719 96.253906 80.761719 C 93.175781 80.761719 93.175781 80.761719 91.0625 82.6875 M 91.636719 83.070312 C 92.40625 81.917969 93.367188 84.226562 95.484375 84.226562 C 97.597656 84.226562 98.753906 83.648438 100.097656 82.6875 C 101.445312 81.722656 98.175781 84.996094 96.058594 84.996094 C 93.945312 84.996094 91.058594 83.84375 91.636719 83.070312 M 76.640625 80.570312 C 75.675781 80.957031 74.136719 82.878906 76.640625 84.226562 C 74.714844 82.878906 76.253906 80.957031 76.640625 80.570312 Z M 76.640625 80.570312 "/>
<path style=" stroke:none;fill-rule:nonzero;fill:rgb(48.235294%,24.705882%,0%);fill-opacity:1;" d="M 98.175781 80.570312 C 98.558594 80.957031 100.097656 82.878906 98.175781 84.226562 C 100.675781 82.878906 99.136719 80.957031 98.175781 80.570312 Z M 84.328125 88.847656 C 82.597656 89.230469 83.175781 91.734375 81.636719 91.925781 C 80.097656 92.121094 79.332031 93.851562 79.523438 93.660156 C 80.484375 92.890625 82.601562 92.3125 84.136719 92.3125 C 85.675781 92.3125 86.0625 93.277344 87.40625 93.277344 C 88.753906 93.277344 89.136719 92.3125 90.675781 92.3125 C 92.214844 92.3125 94.328125 92.890625 95.292969 93.660156 C 95.484375 93.851562 94.714844 92.121094 93.179688 91.925781 C 91.636719 91.734375 92.214844 89.230469 90.484375 88.847656 C 90.484375 89.617188 91.058594 89.425781 91.253906 90.578125 C 91.253906 91.542969 89.523438 91.542969 89.136719 90.578125 C 89.523438 92.121094 88.367188 92.121094 87.40625 92.121094 C 86.445312 92.121094 85.292969 92.121094 85.675781 90.578125 C 85.292969 91.542969 83.5625 91.542969 83.5625 90.578125 C 83.753906 89.425781 84.328125 89.617188 84.328125 88.847656 Z M 78.367188 95.394531 C 76.828125 96.546875 76.445312 97.125 76.253906 98.472656 C 76.714844 97.664062 76.941406 97.332031 77.292969 96.859375 L 77.023438 96.742188 C 77.136719 96.753906 77.234375 96.769531 77.34375 96.785156 C 77.574219 96.472656 77.78125 96.199219 78.367188 95.394531 Z M 78.367188 95.394531 "/>
<path style=" stroke:none;fill-rule:nonzero;fill:rgb(48.235294%,24.705882%,0%);fill-opacity:1;" d="M 77.34375 96.785156 L 77.320312 96.820312 C 77.558594 96.875 77.816406 96.902344 78.082031 96.902344 C -2.097656 96.933594 -67.121094 31.894531 -67.15625 -48.371094 C -67.1875 -128.632812 -2.214844 -193.726562 77.964844 -193.761719 Z M 78.082031 96.902344 C 79.28125 97.113281 80.222656 97.390625 81.085938 97.671875 C 82.160156 97.589844 83.644531 97.316406 87.410156 97.316406 C 91.171875 97.316406 92.652344 97.589844 93.730469 97.671875 C 94.589844 97.390625 95.535156 97.113281 96.730469 96.902344 C 94.613281 96.910156 91.789062 95.390625 90.480469 95.390625 C 88.945312 95.390625 88.558594 95.777344 87.40625 95.777344 C 86.253906 95.777344 85.867188 95.394531 84.328125 95.394531 C 83.027344 95.394531 80.203125 96.910156 78.082031 96.902344 Z M 96.730469 96.902344 C 97 96.902344 97.253906 96.875 97.496094 96.820312 L 97.46875 96.785156 C 97.214844 96.824219 96.964844 96.859375 96.734375 96.902344 Z M 96.730469 96.902344 "/>
<path style=" stroke:none;fill-rule:nonzero;fill:rgb(48.235294%,24.705882%,0%);fill-opacity:1;" d="M 97.46875 96.785156 C 97.578125 96.769531 97.679688 96.753906 97.792969 96.742188 C 97.695312 96.78125 97.617188 96.816406 97.523438 96.859375 C 97.871094 97.332031 98.097656 97.664062 98.558594 98.472656 C 98.367188 97.125 97.984375 96.546875 96.445312 95.394531 C 97.03125 96.199219 97.238281 96.46875 97.46875 96.785156 Z M 97.46875 96.785156 "/>
<path style=" stroke:none;fill-rule:nonzero;fill:rgb(48.235294%,24.705882%,0%);fill-opacity:1;" d="M 97.523438 96.859375 C 17.355469 96.859375 -47.632812 31.808594 -47.636719 -48.445312 C -47.640625 -128.695312 17.34375 -193.757812 97.511719 -193.761719 C 95.503906 -192.984375 94.796875 -192.851562 93.726562 -192.933594 C 91.902344 -192.34375 90.402344 -191.746094 87.40625 -191.746094 C 84.410156 -191.746094 82.90625 -192.34375 81.082031 -192.933594 C 80.011719 -192.855469 79.304688 -192.984375 77.300781 -193.761719 C 77.261719 -193.761719 77.234375 -193.796875 77.238281 -193.832031 C 77.238281 -193.871094 77.269531 -193.898438 77.304688 -193.898438 C 77.34375 -193.898438 77.375 -193.871094 77.375 -193.832031 C 77.378906 -193.796875 77.351562 -193.761719 77.3125 -193.761719 C 83.355469 -191.15625 82.691406 -190.21875 87.425781 -190.21875 C 92.164062 -190.21875 91.5 -191.15625 97.542969 -193.761719 Z M 77.300781 96.84375 C -2.863281 84.199219 -57.605469 8.890625 -44.972656 -71.355469 C -32.339844 -151.605469 42.886719 -206.40625 123.050781 -193.761719 C 122.949219 -193.78125 122.851562 -193.804688 122.753906 -193.839844 C 122.863281 -193.796875 122.929688 -193.773438 123.03125 -193.734375 Z M 97.511719 96.84375 C 97.613281 96.804688 97.683594 96.785156 97.792969 96.742188 C 97.695312 96.773438 97.59375 96.796875 97.496094 96.820312 C 17.339844 10.492188 22.269531 -124.539062 108.503906 -204.78125 C 194.742188 -285.023438 329.632812 -280.089844 409.789062 -193.761719 Z M 71.832031 79.03125 C 73.175781 80.570312 73.945312 77.875 78.753906 77.875 C 83.5625 77.875 84.328125 80.761719 85.101562 80.183594 C 85.871094 79.605469 81.058594 76.140625 79.523438 75.949219 C 77.988281 75.761719 73.5625 77.296875 71.832031 79.03125 M 77.40625 80.761719 C 76.0625 81.917969 77.214844 84.421875 78.5625 84.421875 C 79.90625 84.421875 82.40625 82.109375 81.253906 80.570312 "/>
<path style=" stroke:none;fill-rule:nonzero;fill:rgb(48.235294%,24.705882%,0%);fill-opacity:1;" d="M 83.753906 82.496094 C 83.5625 80.183594 81.640625 79.800781 78.5625 79.800781 C 75.484375 79.800781 74.136719 82.109375 72.984375 82.6875 C 74.332031 82.6875 75.484375 80.761719 78.5625 80.761719 C 81.636719 80.761719 81.636719 80.761719 83.753906 82.6875 M 83.175781 83.070312 C 82.40625 81.917969 81.445312 84.226562 79.332031 84.226562 C 77.214844 84.226562 76.0625 83.648438 74.714844 82.6875 C 73.371094 81.726562 76.640625 84.996094 78.753906 84.996094 C 80.871094 84.996094 83.753906 83.84375 83.175781 83.070312 M 87.40625 102.128906 C 86.445312 102.128906 83.945312 102.707031 87.40625 102.707031 C 90.867188 102.707031 88.371094 102.128906 87.40625 102.128906 "/>
</g>
</svg>
