<?xml version="1.0" encoding="UTF-8"?>
<svg xmlns="http://www.w3.org/2000/svg" xmlns:xlink="http://www.w3.org/1999/xlink" width="px" height="px" viewBox="0 0 450 300" version="1.1">
<g id="surface1">
<rect x="0" y="0" width="450" height="300" style="fill:rgb(81.176471%,7.843137%,16.862745%);fill-opacity:1;stroke:none;"/>
<path style=" stroke:none;fill-rule:nonzero;fill:rgb(0%,14.117647%,49.019608%);fill-opacity:1;" d="M 0 0 L 450 0 L 450 200 L 0 200 Z M 0 0 "/>
<path style=" stroke:none;fill-rule:nonzero;fill:rgb(100%,80%,0%);fill-opacity:1;" d="M 0 0 L 450 0 L 450 100 L 0 100 Z M 0 0 "/>
<path style=" stroke:none;fill-rule:nonzero;fill:rgb(100%,100%,100%);fill-opacity:1;" d="M 242.800781 109.058594 L 236.929688 120.09375 L 243.550781 123.613281 Z M 242.800781 109.058594 "/>
<path style=" stroke:none;fill-rule:nonzero;fill:rgb(100%,100%,100%);fill-opacity:1;" d="M 242.800781 109.058594 L 244.539062 121.4375 L 237.113281 122.480469 Z M 242.800781 109.058594 "/>
<path style=" stroke:none;fill-rule:nonzero;fill:rgb(100%,100%,100%);fill-opacity:1;" d="M 253.007812 119.628906 L 240.695312 117.457031 L 239.394531 124.84375 Z M 253.007812 119.628906 "/>
<path style=" stroke:none;fill-rule:nonzero;fill:rgb(100%,100%,100%);fill-opacity:1;" d="M 253.007812 119.628906 L 241.773438 125.105469 L 238.484375 118.367188 Z M 253.007812 119.628906 "/>
<path style=" stroke:none;fill-rule:nonzero;fill:rgb(100%,100%,100%);fill-opacity:1;" d="M 229.589844 115.5 L 238.273438 124.492188 L 243.667969 119.28125 Z M 229.589844 115.5 "/>
<path style=" stroke:none;fill-rule:nonzero;fill:rgb(100%,100%,100%);fill-opacity:1;" d="M 229.589844 115.5 L 241.902344 117.667969 L 240.597656 125.054688 Z M 229.589844 115.5 "/>
<path style=" stroke:none;fill-rule:nonzero;fill:rgb(100%,100%,100%);fill-opacity:1;" d="M 246.109375 132.601562 L 244.367188 120.222656 L 236.941406 121.269531 Z M 246.109375 132.601562 "/>
<path style=" stroke:none;fill-rule:nonzero;fill:rgb(100%,100%,100%);fill-opacity:1;" d="M 246.109375 132.601562 L 237.425781 123.609375 L 242.820312 118.402344 Z M 246.109375 132.601562 "/>
<path style=" stroke:none;fill-rule:nonzero;fill:rgb(100%,100%,100%);fill-opacity:1;" d="M 231.636719 130.050781 L 242.871094 124.570312 L 239.582031 117.828125 Z M 231.636719 130.050781 "/>
<path style=" stroke:none;fill-rule:nonzero;fill:rgb(100%,100%,100%);fill-opacity:1;" d="M 231.636719 130.050781 L 237.503906 119.015625 L 244.128906 122.535156 Z M 231.636719 130.050781 "/>
<path style=" stroke:none;fill-rule:nonzero;fill:rgb(100%,100%,100%);fill-opacity:1;" d="M 276.25 121.230469 L 266.960938 129.597656 L 271.980469 135.171875 Z M 276.25 121.230469 "/>
<path style=" stroke:none;fill-rule:nonzero;fill:rgb(100%,100%,100%);fill-opacity:1;" d="M 276.25 121.230469 L 273.652344 133.460938 L 266.316406 131.898438 Z M 276.25 121.230469 "/>
<path style=" stroke:none;fill-rule:nonzero;fill:rgb(100%,100%,100%);fill-opacity:1;" d="M 282.226562 134.65625 L 271.402344 128.40625 L 267.652344 134.902344 Z M 282.226562 134.65625 "/>
<path style=" stroke:none;fill-rule:nonzero;fill:rgb(100%,100%,100%);fill-opacity:1;" d="M 282.226562 134.65625 L 269.796875 135.964844 L 269.011719 128.503906 Z M 282.226562 134.65625 "/>
<path style=" stroke:none;fill-rule:nonzero;fill:rgb(100%,100%,100%);fill-opacity:1;" d="M 261.636719 122.769531 L 266.71875 134.1875 L 273.570312 131.136719 Z M 261.636719 122.769531 "/>
<path style=" stroke:none;fill-rule:nonzero;fill:rgb(100%,100%,100%);fill-opacity:1;" d="M 261.636719 122.769531 L 272.460938 129.019531 L 268.710938 135.511719 Z M 261.636719 122.769531 "/>
<path style=" stroke:none;fill-rule:nonzero;fill:rgb(100%,100%,100%);fill-opacity:1;" d="M 271.304688 144.488281 L 273.90625 132.261719 L 266.570312 130.703125 Z M 271.304688 144.488281 "/>
<path style=" stroke:none;fill-rule:nonzero;fill:rgb(100%,100%,100%);fill-opacity:1;" d="M 271.304688 144.488281 L 266.222656 133.070312 L 273.074219 130.019531 Z M 271.304688 144.488281 "/>
<path style=" stroke:none;fill-rule:nonzero;fill:rgb(100%,100%,100%);fill-opacity:1;" d="M 258.582031 137.140625 L 271.011719 135.835938 L 270.226562 128.375 Z M 258.582031 137.140625 "/>
<path style=" stroke:none;fill-rule:nonzero;fill:rgb(100%,100%,100%);fill-opacity:1;" d="M 258.582031 137.140625 L 267.871094 128.777344 L 272.886719 134.351562 Z M 258.582031 137.140625 "/>
<path style=" stroke:none;fill-rule:nonzero;fill:rgb(100%,100%,100%);fill-opacity:1;" d="M 303.519531 144.113281 L 291.929688 148.796875 L 294.738281 155.75 Z M 303.519531 144.113281 "/>
<path style=" stroke:none;fill-rule:nonzero;fill:rgb(100%,100%,100%);fill-opacity:1;" d="M 303.519531 144.113281 L 296.894531 154.714844 L 290.535156 150.742188 Z M 303.519531 144.113281 "/>
<path style=" stroke:none;fill-rule:nonzero;fill:rgb(100%,100%,100%);fill-opacity:1;" d="M 304.542969 158.773438 L 296.507812 149.199219 L 290.765625 154.019531 Z M 304.542969 158.773438 "/>
<path style=" stroke:none;fill-rule:nonzero;fill:rgb(100%,100%,100%);fill-opacity:1;" d="M 304.542969 158.773438 L 292.414062 155.75 L 294.230469 148.472656 Z M 304.542969 158.773438 "/>
<path style=" stroke:none;fill-rule:nonzero;fill:rgb(100%,100%,100%);fill-opacity:1;" d="M 289.261719 140.558594 L 290.132812 153.027344 L 297.613281 152.503906 Z M 289.261719 140.558594 "/>
<path style=" stroke:none;fill-rule:nonzero;fill:rgb(100%,100%,100%);fill-opacity:1;" d="M 289.261719 140.558594 L 297.296875 150.136719 L 291.550781 154.957031 Z M 289.261719 140.558594 "/>
<path style=" stroke:none;fill-rule:nonzero;fill:rgb(100%,100%,100%);fill-opacity:1;" d="M 290.921875 164.277344 L 297.542969 153.675781 L 291.183594 149.703125 Z M 290.921875 164.277344 "/>
<path style=" stroke:none;fill-rule:nonzero;fill:rgb(100%,100%,100%);fill-opacity:1;" d="M 290.921875 164.277344 L 290.046875 151.808594 L 297.53125 151.285156 Z M 290.921875 164.277344 "/>
<path style=" stroke:none;fill-rule:nonzero;fill:rgb(100%,100%,100%);fill-opacity:1;" d="M 281.472656 153.019531 L 293.601562 156.046875 L 295.417969 148.769531 Z M 281.472656 153.019531 "/>
<path style=" stroke:none;fill-rule:nonzero;fill:rgb(100%,100%,100%);fill-opacity:1;" d="M 281.472656 153.019531 L 293.0625 148.339844 L 295.875 155.292969 Z M 281.472656 153.019531 "/>
<path style=" stroke:none;fill-rule:nonzero;fill:rgb(100%,100%,100%);fill-opacity:1;" d="M 321.320312 174.941406 L 308.824219 175.378906 L 309.085938 182.875 Z M 321.320312 174.941406 "/>
<path style=" stroke:none;fill-rule:nonzero;fill:rgb(100%,100%,100%);fill-opacity:1;" d="M 321.320312 174.941406 L 311.46875 182.640625 L 306.851562 176.730469 Z M 321.320312 174.941406 "/>
<path style=" stroke:none;fill-rule:nonzero;fill:rgb(100%,100%,100%);fill-opacity:1;" d="M 317.269531 189.066406 L 312.992188 177.320312 L 305.945312 179.886719 Z M 317.269531 189.066406 "/>
<path style=" stroke:none;fill-rule:nonzero;fill:rgb(100%,100%,100%);fill-opacity:1;" d="M 317.269531 189.066406 L 306.90625 182.078125 L 311.097656 175.859375 Z M 317.269531 189.066406 "/>
<path style=" stroke:none;fill-rule:nonzero;fill:rgb(100%,100%,100%);fill-opacity:1;" d="M 309.136719 166.726562 L 305.691406 178.742188 L 312.898438 180.808594 Z M 309.136719 166.726562 "/>
<path style=" stroke:none;fill-rule:nonzero;fill:rgb(100%,100%,100%);fill-opacity:1;" d="M 309.136719 166.726562 L 313.410156 178.472656 L 306.363281 181.039062 Z M 309.136719 166.726562 "/>
<path style=" stroke:none;fill-rule:nonzero;fill:rgb(100%,100%,100%);fill-opacity:1;" d="M 302.582031 189.582031 L 312.433594 181.886719 L 307.816406 175.976562 Z M 302.582031 189.582031 "/>
<path style=" stroke:none;fill-rule:nonzero;fill:rgb(100%,100%,100%);fill-opacity:1;" d="M 302.582031 189.582031 L 306.027344 177.566406 L 313.238281 179.632812 Z M 302.582031 189.582031 "/>
<path style=" stroke:none;fill-rule:nonzero;fill:rgb(100%,100%,100%);fill-opacity:1;" d="M 297.554688 175.773438 L 307.917969 182.761719 L 312.113281 176.542969 Z M 297.554688 175.773438 "/>
<path style=" stroke:none;fill-rule:nonzero;fill:rgb(100%,100%,100%);fill-opacity:1;" d="M 297.554688 175.773438 L 310.050781 175.335938 L 310.3125 182.832031 Z M 297.554688 175.773438 "/>
<path style=" stroke:none;fill-rule:nonzero;fill:rgb(100%,100%,100%);fill-opacity:1;" d="M 128.679688 174.941406 L 138.53125 182.640625 L 143.148438 176.730469 Z M 128.679688 174.941406 "/>
<path style=" stroke:none;fill-rule:nonzero;fill:rgb(100%,100%,100%);fill-opacity:1;" d="M 128.679688 174.941406 L 141.175781 175.378906 L 140.914062 182.875 Z M 128.679688 174.941406 "/>
<path style=" stroke:none;fill-rule:nonzero;fill:rgb(100%,100%,100%);fill-opacity:1;" d="M 140.863281 166.726562 L 136.589844 178.472656 L 143.636719 181.039062 Z M 140.863281 166.726562 "/>
<path style=" stroke:none;fill-rule:nonzero;fill:rgb(100%,100%,100%);fill-opacity:1;" d="M 140.863281 166.726562 L 144.308594 178.742188 L 137.101562 180.808594 Z M 140.863281 166.726562 "/>
<path style=" stroke:none;fill-rule:nonzero;fill:rgb(100%,100%,100%);fill-opacity:1;" d="M 132.730469 189.066406 L 143.09375 182.078125 L 138.902344 175.859375 Z M 132.730469 189.066406 "/>
<path style=" stroke:none;fill-rule:nonzero;fill:rgb(100%,100%,100%);fill-opacity:1;" d="M 132.730469 189.066406 L 137.007812 177.320312 L 144.054688 179.886719 Z M 132.730469 189.066406 "/>
<path style=" stroke:none;fill-rule:nonzero;fill:rgb(100%,100%,100%);fill-opacity:1;" d="M 152.445312 175.773438 L 139.949219 175.335938 L 139.6875 182.832031 Z M 152.445312 175.773438 "/>
<path style=" stroke:none;fill-rule:nonzero;fill:rgb(100%,100%,100%);fill-opacity:1;" d="M 152.445312 175.773438 L 142.082031 182.761719 L 137.886719 176.542969 Z M 152.445312 175.773438 "/>
<path style=" stroke:none;fill-rule:nonzero;fill:rgb(100%,100%,100%);fill-opacity:1;" d="M 147.417969 189.582031 L 143.972656 177.566406 L 136.761719 179.632812 Z M 147.417969 189.582031 "/>
<path style=" stroke:none;fill-rule:nonzero;fill:rgb(100%,100%,100%);fill-opacity:1;" d="M 147.417969 189.582031 L 137.566406 181.886719 L 142.183594 175.976562 Z M 147.417969 189.582031 "/>
<path style=" stroke:none;fill-rule:nonzero;fill:rgb(100%,100%,100%);fill-opacity:1;" d="M 146.480469 144.113281 L 153.105469 154.714844 L 159.464844 150.742188 Z M 146.480469 144.113281 "/>
<path style=" stroke:none;fill-rule:nonzero;fill:rgb(100%,100%,100%);fill-opacity:1;" d="M 146.480469 144.113281 L 158.070312 148.796875 L 155.261719 155.75 Z M 146.480469 144.113281 "/>
<path style=" stroke:none;fill-rule:nonzero;fill:rgb(100%,100%,100%);fill-opacity:1;" d="M 160.738281 140.558594 L 152.703125 150.136719 L 158.449219 154.957031 Z M 160.738281 140.558594 "/>
<path style=" stroke:none;fill-rule:nonzero;fill:rgb(100%,100%,100%);fill-opacity:1;" d="M 160.738281 140.558594 L 159.867188 153.027344 L 152.386719 152.503906 Z M 160.738281 140.558594 "/>
<path style=" stroke:none;fill-rule:nonzero;fill:rgb(100%,100%,100%);fill-opacity:1;" d="M 145.457031 158.773438 L 157.585938 155.75 L 155.769531 148.472656 Z M 145.457031 158.773438 "/>
<path style=" stroke:none;fill-rule:nonzero;fill:rgb(100%,100%,100%);fill-opacity:1;" d="M 145.457031 158.773438 L 153.492188 149.199219 L 159.234375 154.019531 Z M 145.457031 158.773438 "/>
<path style=" stroke:none;fill-rule:nonzero;fill:rgb(100%,100%,100%);fill-opacity:1;" d="M 168.527344 153.019531 L 156.9375 148.339844 L 154.125 155.292969 Z M 168.527344 153.019531 "/>
<path style=" stroke:none;fill-rule:nonzero;fill:rgb(100%,100%,100%);fill-opacity:1;" d="M 168.527344 153.019531 L 156.398438 156.046875 L 154.582031 148.769531 Z M 168.527344 153.019531 "/>
<path style=" stroke:none;fill-rule:nonzero;fill:rgb(100%,100%,100%);fill-opacity:1;" d="M 159.078125 164.277344 L 159.953125 151.808594 L 152.46875 151.285156 Z M 159.078125 164.277344 "/>
<path style=" stroke:none;fill-rule:nonzero;fill:rgb(100%,100%,100%);fill-opacity:1;" d="M 159.078125 164.277344 L 152.457031 153.675781 L 158.816406 149.703125 Z M 159.078125 164.277344 "/>
<path style=" stroke:none;fill-rule:nonzero;fill:rgb(100%,100%,100%);fill-opacity:1;" d="M 173.75 121.230469 L 176.347656 133.460938 L 183.683594 131.898438 Z M 173.75 121.230469 "/>
<path style=" stroke:none;fill-rule:nonzero;fill:rgb(100%,100%,100%);fill-opacity:1;" d="M 173.75 121.230469 L 183.039062 129.597656 L 178.019531 135.171875 Z M 173.75 121.230469 "/>
<path style=" stroke:none;fill-rule:nonzero;fill:rgb(100%,100%,100%);fill-opacity:1;" d="M 188.363281 122.769531 L 177.539062 129.019531 L 181.289062 135.511719 Z M 188.363281 122.769531 "/>
<path style=" stroke:none;fill-rule:nonzero;fill:rgb(100%,100%,100%);fill-opacity:1;" d="M 188.363281 122.769531 L 183.28125 134.1875 L 176.429688 131.136719 Z M 188.363281 122.769531 "/>
<path style=" stroke:none;fill-rule:nonzero;fill:rgb(100%,100%,100%);fill-opacity:1;" d="M 167.773438 134.65625 L 180.203125 135.964844 L 180.988281 128.503906 Z M 167.773438 134.65625 "/>
<path style=" stroke:none;fill-rule:nonzero;fill:rgb(100%,100%,100%);fill-opacity:1;" d="M 167.773438 134.65625 L 178.597656 128.40625 L 182.347656 134.902344 Z M 167.773438 134.65625 "/>
<path style=" stroke:none;fill-rule:nonzero;fill:rgb(100%,100%,100%);fill-opacity:1;" d="M 191.417969 137.140625 L 182.128906 128.777344 L 177.113281 134.351562 Z M 191.417969 137.140625 "/>
<path style=" stroke:none;fill-rule:nonzero;fill:rgb(100%,100%,100%);fill-opacity:1;" d="M 191.417969 137.140625 L 178.988281 135.835938 L 179.773438 128.375 Z M 191.417969 137.140625 "/>
<path style=" stroke:none;fill-rule:nonzero;fill:rgb(100%,100%,100%);fill-opacity:1;" d="M 178.695312 144.488281 L 183.777344 133.070312 L 176.925781 130.019531 Z M 178.695312 144.488281 "/>
<path style=" stroke:none;fill-rule:nonzero;fill:rgb(100%,100%,100%);fill-opacity:1;" d="M 178.695312 144.488281 L 176.09375 132.261719 L 183.429688 130.703125 Z M 178.695312 144.488281 "/>
<path style=" stroke:none;fill-rule:nonzero;fill:rgb(100%,100%,100%);fill-opacity:1;" d="M 207.199219 109.058594 L 205.460938 121.4375 L 212.886719 122.480469 Z M 207.199219 109.058594 "/>
<path style=" stroke:none;fill-rule:nonzero;fill:rgb(100%,100%,100%);fill-opacity:1;" d="M 207.199219 109.058594 L 213.070312 120.09375 L 206.449219 123.613281 Z M 207.199219 109.058594 "/>
<path style=" stroke:none;fill-rule:nonzero;fill:rgb(100%,100%,100%);fill-opacity:1;" d="M 220.410156 115.5 L 208.097656 117.667969 L 209.402344 125.054688 Z M 220.410156 115.5 "/>
<path style=" stroke:none;fill-rule:nonzero;fill:rgb(100%,100%,100%);fill-opacity:1;" d="M 220.410156 115.5 L 211.726562 124.492188 L 206.332031 119.28125 Z M 220.410156 115.5 "/>
<path style=" stroke:none;fill-rule:nonzero;fill:rgb(100%,100%,100%);fill-opacity:1;" d="M 196.992188 119.628906 L 208.226562 125.105469 L 211.515625 118.367188 Z M 196.992188 119.628906 "/>
<path style=" stroke:none;fill-rule:nonzero;fill:rgb(100%,100%,100%);fill-opacity:1;" d="M 196.992188 119.628906 L 209.304688 117.457031 L 210.605469 124.84375 Z M 196.992188 119.628906 "/>
<path style=" stroke:none;fill-rule:nonzero;fill:rgb(100%,100%,100%);fill-opacity:1;" d="M 218.363281 130.050781 L 212.496094 119.015625 L 205.871094 122.535156 Z M 218.363281 130.050781 "/>
<path style=" stroke:none;fill-rule:nonzero;fill:rgb(100%,100%,100%);fill-opacity:1;" d="M 218.363281 130.050781 L 207.128906 124.570312 L 210.417969 117.828125 Z M 218.363281 130.050781 "/>
<path style=" stroke:none;fill-rule:nonzero;fill:rgb(100%,100%,100%);fill-opacity:1;" d="M 203.890625 132.601562 L 212.574219 123.609375 L 207.179688 118.402344 Z M 203.890625 132.601562 "/>
<path style=" stroke:none;fill-rule:nonzero;fill:rgb(100%,100%,100%);fill-opacity:1;" d="M 203.890625 132.601562 L 205.632812 120.222656 L 213.058594 121.269531 Z M 203.890625 132.601562 "/>
</g>
</svg>
