<?xml version="1.0" encoding="UTF-8"?>
<svg xmlns="http://www.w3.org/2000/svg" xmlns:xlink="http://www.w3.org/1999/xlink" width="px" height="px" viewBox="0 0 600 300" version="1.1">
<defs>
<clipPath id="clip1">
  <path d="M 0 0 L 300 0 L 300 150 L 0 150 Z M 0 0 "/>
</clipPath>
<clipPath id="clip2">
  <path d="M 0 0 L 0 75 L 350 75 L 350 150 L 300 150 Z M 300 0 L 150 0 L 150 175 L 0 175 L 0 150 Z M 300 0 "/>
</clipPath>
<clipPath id="clip3">
  <path d="M 0 0 L 350 0 L 350 175 L 0 175 Z M 0 0 "/>
</clipPath>
<clipPath id="clip4">
  <path d="M 0 0 L 0 75 L 350 75 L 350 150 L 300 150 Z M 300 0 L 150 0 L 150 175 L 0 175 L 0 150 Z M 300 0 "/>
</clipPath>
<linearGradient id="linear0" gradientUnits="userSpaceOnUse" x1="103.083" y1="111.276" x2="92.551" y2="107.764" gradientTransform="matrix(0.99614,0,0,2.25255,703.842,-75.047)">
<stop offset="0" style="stop-color:rgb(100%,0%,0%);stop-opacity:1;"/>
<stop offset="1" style="stop-color:rgb(100%,100%,0%);stop-opacity:1;"/>
</linearGradient>
<linearGradient id="linear1" gradientUnits="userSpaceOnUse" x1="103.083" y1="111.276" x2="92.551" y2="107.764" gradientTransform="matrix(0.99614,0,0,2.25255,703.842,-75.047)">
<stop offset="0" style="stop-color:rgb(100%,0%,0%);stop-opacity:1;"/>
<stop offset="1" style="stop-color:rgb(100%,100%,0%);stop-opacity:1;"/>
</linearGradient>
<linearGradient id="linear2" gradientUnits="userSpaceOnUse" x1="103.083" y1="111.276" x2="92.551" y2="107.764" gradientTransform="matrix(0.99614,0,0,2.25255,703.842,-75.047)">
<stop offset="0" style="stop-color:rgb(100%,0%,0%);stop-opacity:1;"/>
<stop offset="1" style="stop-color:rgb(100%,100%,0%);stop-opacity:1;"/>
</linearGradient>
<linearGradient id="linear3" gradientUnits="userSpaceOnUse" x1="103.083" y1="111.276" x2="92.551" y2="107.764" gradientTransform="matrix(0.99614,0,0,2.25255,703.842,-75.047)">
<stop offset="0" style="stop-color:rgb(100%,0%,0%);stop-opacity:1;"/>
<stop offset="1" style="stop-color:rgb(100%,100%,0%);stop-opacity:1;"/>
</linearGradient>
<linearGradient id="linear4" gradientUnits="userSpaceOnUse" x1="103.083" y1="111.276" x2="92.551" y2="107.764" gradientTransform="matrix(0.99614,0,0,2.25255,703.842,-75.047)">
<stop offset="0" style="stop-color:rgb(100%,0%,0%);stop-opacity:1;"/>
<stop offset="1" style="stop-color:rgb(100%,100%,0%);stop-opacity:1;"/>
</linearGradient>
<linearGradient id="linear5" gradientUnits="userSpaceOnUse" x1="103.083" y1="111.276" x2="92.551" y2="107.764" gradientTransform="matrix(0.99614,0,0,2.25255,703.842,-75.047)">
<stop offset="0" style="stop-color:rgb(100%,0%,0%);stop-opacity:1;"/>
<stop offset="1" style="stop-color:rgb(100%,100%,0%);stop-opacity:1;"/>
</linearGradient>
<linearGradient id="linear6" gradientUnits="userSpaceOnUse" x1="103.083" y1="111.276" x2="92.551" y2="107.764" gradientTransform="matrix(0.99614,0,0,2.25255,703.842,-75.047)">
<stop offset="0" style="stop-color:rgb(100%,0%,0%);stop-opacity:1;"/>
<stop offset="1" style="stop-color:rgb(100%,100%,0%);stop-opacity:1;"/>
</linearGradient>
<linearGradient id="linear7" gradientUnits="userSpaceOnUse" x1="103.083" y1="111.276" x2="92.551" y2="107.764" gradientTransform="matrix(0.99614,0,0,2.25255,703.842,-75.047)">
<stop offset="0" style="stop-color:rgb(100%,0%,0%);stop-opacity:1;"/>
<stop offset="1" style="stop-color:rgb(100%,100%,0%);stop-opacity:1;"/>
</linearGradient>
<linearGradient id="linear8" gradientUnits="userSpaceOnUse" x1="103.083" y1="111.276" x2="92.551" y2="107.764" gradientTransform="matrix(0.99614,0,0,2.25255,703.842,-75.047)">
<stop offset="0" style="stop-color:rgb(100%,0%,0%);stop-opacity:1;"/>
<stop offset="1" style="stop-color:rgb(100%,100%,0%);stop-opacity:1;"/>
</linearGradient>
<linearGradient id="linear9" gradientUnits="userSpaceOnUse" x1="103.083" y1="111.276" x2="92.551" y2="107.764" gradientTransform="matrix(0.99614,0,0,2.25255,703.842,-75.047)">
<stop offset="0" style="stop-color:rgb(100%,0%,0%);stop-opacity:1;"/>
<stop offset="1" style="stop-color:rgb(100%,100%,0%);stop-opacity:1;"/>
</linearGradient>
<linearGradient id="linear10" gradientUnits="userSpaceOnUse" x1="103.083" y1="111.276" x2="92.551" y2="107.764" gradientTransform="matrix(0.99614,0,0,2.25255,703.842,-75.047)">
<stop offset="0" style="stop-color:rgb(100%,0%,0%);stop-opacity:1;"/>
<stop offset="1" style="stop-color:rgb(100%,100%,0%);stop-opacity:1;"/>
</linearGradient>
<linearGradient id="linear11" gradientUnits="userSpaceOnUse" x1="103.083" y1="111.276" x2="92.551" y2="107.764" gradientTransform="matrix(0.99614,0,0,2.25255,703.842,-75.047)">
<stop offset="0" style="stop-color:rgb(100%,0%,0%);stop-opacity:1;"/>
<stop offset="1" style="stop-color:rgb(100%,100%,0%);stop-opacity:1;"/>
</linearGradient>
</defs>
<g id="surface1">
<rect x="0" y="0" width="600" height="300" style="fill:rgb(0.392157%,12.941176%,41.176471%);fill-opacity:1;stroke:none;"/>
<path style="fill-rule:nonzero;fill:rgb(0%,0%,0%);fill-opacity:1;stroke-width:60;stroke-linecap:butt;stroke-linejoin:miter;stroke:rgb(100%,100%,100%);stroke-opacity:1;stroke-miterlimit:4;" d="M 0 0 L 600 300 M 600 0 L 0 300 " transform="matrix(0.5,0,0,0.5,0,0)"/>
<g clip-path="url(#clip1)" clip-rule="nonzero">
<g clip-path="url(#clip2)" clip-rule="nonzero">
<path style=" stroke:none;fill-rule:nonzero;fill:rgb(0%,0%,0%);fill-opacity:1;" d="M 0 0 L 300 150 M 300 0 L 0 150 "/>
</g>
</g>
<g clip-path="url(#clip3)" clip-rule="nonzero">
<g clip-path="url(#clip4)" clip-rule="nonzero">
<path style="fill:none;stroke-width:40;stroke-linecap:butt;stroke-linejoin:miter;stroke:rgb(78.431373%,6.27451%,18.039216%);stroke-opacity:1;stroke-miterlimit:4;" d="M 0 0 L 600 300 M 600 0 L 0 300 " transform="matrix(0.5,0,0,0.5,0,0)"/>
</g>
</g>
<path style="fill-rule:nonzero;fill:rgb(0%,0%,0%);fill-opacity:1;stroke-width:100;stroke-linecap:butt;stroke-linejoin:miter;stroke:rgb(100%,100%,100%);stroke-opacity:1;stroke-miterlimit:4;" d="M 300 0 L 300 350 M 0 150 L 700 150 " transform="matrix(0.5,0,0,0.5,0,0)"/>
<path style="fill-rule:nonzero;fill:rgb(0%,0%,0%);fill-opacity:1;stroke-width:60;stroke-linecap:butt;stroke-linejoin:miter;stroke:rgb(78.431373%,6.27451%,18.039216%);stroke-opacity:1;stroke-miterlimit:4;" d="M 300 0 L 300 350 M 0 150 L 700 150 " transform="matrix(0.5,0,0,0.5,0,0)"/>
<path style=" stroke:none;fill-rule:nonzero;fill:rgb(0.392157%,12.941176%,41.176471%);fill-opacity:1;" d="M 0 150 L 300 150 L 300 0 L 600 0 L 600 300 L 0 300 Z M 0 150 "/>
<path style=" stroke:none;fill-rule:nonzero;fill:rgb(100%,100%,100%);fill-opacity:1;" d="M 388.128906 72.035156 L 513.332031 71.570312 L 513.097656 183.066406 C 513.097656 183.066406 517.511719 200.023438 460.601562 225.804688 C 481.042969 223.714844 503.34375 201.878906 503.34375 201.878906 C 503.34375 201.878906 512.402344 190.265625 516.816406 196.769531 C 521.226562 203.273438 525.410156 206.527344 528.660156 209.082031 C 531.914062 211.636719 534.46875 218.605469 529.589844 223.714844 C 524.714844 228.824219 517.046875 229.523438 514.957031 223.25 C 511.703125 224.875 491.726562 249.035156 450.847656 250.195312 C 409.269531 249.5 386.503906 223.019531 386.503906 223.019531 C 386.503906 223.019531 380.929688 231.84375 373.03125 224.875 C 365.367188 215.816406 371.171875 210.011719 371.171875 210.011719 C 371.171875 210.011719 377.675781 206.292969 379.535156 203.738281 C 382.554688 200.253906 383.484375 195.609375 388.59375 195.609375 C 394.632812 196.074219 396.957031 200.949219 396.957031 200.949219 C 396.957031 200.949219 417.863281 223.019531 440.394531 225.804688 C 389.527344 201.414062 387.667969 186.316406 387.898438 182.597656 L 388.132812 72.03125 Z M 388.128906 72.035156 "/>
<path style="fill-rule:nonzero;fill:rgb(0%,38.039216%,16.078431%);fill-opacity:1;stroke-width:1.887;stroke-linecap:butt;stroke-linejoin:miter;stroke:rgb(0%,0%,0%);stroke-opacity:1;stroke-miterlimit:4;" d="M 782.296875 150.109375 L 1021.085938 148.710938 L 1021.085938 363.34375 C 1021.554688 391.21875 974.632812 419.554688 901.226562 455.789062 C 825.507812 416.765625 781.835938 393.078125 781.367188 362.882812 Z M 782.296875 150.109375 " transform="matrix(0.5,0,0,0.5,0,0)"/>
<path style="fill:none;stroke-width:1.887;stroke-linecap:butt;stroke-linejoin:miter;stroke:rgb(100%,78.039216%,17.254902%);stroke-opacity:1;stroke-miterlimit:4;" d="M 814.796875 181.828125 L 828.890625 161.125 L 843.054688 181.875 " transform="matrix(0.5,0,0,0.5,0,0)"/>
<path style="fill-rule:nonzero;fill:rgb(100%,78.039216%,17.254902%);fill-opacity:1;stroke-width:0.944;stroke-linecap:butt;stroke-linejoin:miter;stroke:rgb(0%,0%,0%);stroke-opacity:1;stroke-miterlimit:4;" d="M 831.71875 174.09375 C 832.351562 172.992188 833.640625 172.453125 834.867188 172.78125 C 836.09375 173.109375 836.945312 174.21875 836.945312 175.484375 C 836.945312 176.75 836.09375 177.867188 834.875 178.195312 C 833.648438 178.523438 832.351562 177.984375 831.71875 176.890625 Z M 831.71875 174.09375 " transform="matrix(0.5,0,0,0.5,0,0)"/>
<path style="fill-rule:nonzero;fill:rgb(100%,78.039216%,17.254902%);fill-opacity:1;stroke-width:0.944;stroke-linecap:butt;stroke-linejoin:miter;stroke:rgb(0%,0%,0%);stroke-opacity:1;stroke-miterlimit:4;" d="M 817.445312 197.117188 L 839.296875 197.179688 C 839.296875 197.179688 839.640625 194.34375 837.015625 192.617188 C 848.460938 191.046875 845.484375 180.953125 855.070312 180.382812 C 856.929688 180.664062 850.0625 184.671875 850.0625 184.671875 C 850.0625 184.671875 844.28125 188.75 846.914062 190.820312 C 849.007812 192.46875 849.921875 189.820312 850.203125 187.820312 C 850.492188 185.820312 859.507812 184.53125 858.21875 178.804688 C 856.070312 174.085938 843.484375 181.953125 843.484375 181.953125 L 834.5 181.90625 C 833.9375 180.898438 831.46875 176.851562 828.90625 176.835938 C 825.875 176.945312 823.734375 181.953125 823.734375 181.953125 L 803.421875 181.953125 C 803.421875 181.953125 802.726562 187.164062 813.03125 188.171875 C 815.34375 191.195312 817.148438 192.046875 819.164062 192.828125 C 817.820312 193.945312 817.4375 195.304688 817.445312 197.117188 Z M 819.015625 192.6875 L 837.21875 192.625 M 810.679688 181.953125 C 810.679688 181.953125 812.140625 190.46875 818.859375 192.484375 " transform="matrix(0.5,0,0,0.5,0,0)"/>
<path style="fill-rule:nonzero;fill:url(#linear0);stroke-width:0.944;stroke-linecap:butt;stroke-linejoin:miter;stroke:rgb(0%,0%,0%);stroke-opacity:1;stroke-miterlimit:4;" d="M 809.5625 181.84375 C 810.234375 178.59375 811.46875 178.03125 812.8125 173.890625 C 813.03125 169.859375 809.5625 170.304688 810.570312 167.726562 C 812.359375 164.929688 811.46875 162.242188 808.101562 160.109375 C 808.773438 163.804688 803.734375 167.28125 803.734375 170.304688 C 803.734375 173.328125 806.3125 172.65625 805.976562 177.25 C 806.203125 179.9375 805.304688 179.265625 805.078125 181.84375 Z M 809.5625 181.84375 " transform="matrix(0.5,0,0,0.5,0,0)"/>
<path style="fill-rule:nonzero;fill:rgb(100%,78.039216%,17.254902%);fill-opacity:1;stroke-width:0.944;stroke-linecap:butt;stroke-linejoin:miter;stroke:rgb(0%,0%,0%);stroke-opacity:1;stroke-miterlimit:4;" d="M 831.492188 161.65625 C 832.078125 160.648438 833.265625 160.15625 834.390625 160.453125 C 835.515625 160.757812 836.296875 161.773438 836.304688 162.9375 C 836.304688 164.109375 835.523438 165.125 834.390625 165.429688 C 833.265625 165.734375 832.078125 165.242188 831.5 164.234375 Z M 831.492188 161.65625 " transform="matrix(0.5,0,0,0.5,0,0)"/>
<path style="fill:none;stroke-width:1.887;stroke-linecap:butt;stroke-linejoin:miter;stroke:rgb(100%,78.039216%,17.254902%);stroke-opacity:1;stroke-miterlimit:4;" d="M 814.795438 181.828812 L 828.889188 161.125687 L 843.05325 181.875687 " transform="matrix(0.5,0,0,0.5,-0.386,20.652)"/>
<path style="fill-rule:nonzero;fill:rgb(100%,78.039216%,17.254902%);fill-opacity:1;stroke-width:0.944;stroke-linecap:butt;stroke-linejoin:miter;stroke:rgb(0%,0%,0%);stroke-opacity:1;stroke-miterlimit:4;" d="M 831.717313 174.086625 C 832.350125 172.992875 833.647 172.453812 834.86575 172.781937 C 836.092313 173.110062 836.943875 174.219437 836.943875 175.485062 C 836.943875 176.750687 836.092313 177.860062 834.873563 178.196 C 833.647 178.524125 832.357938 177.985062 831.717313 176.891312 Z M 831.717313 174.086625 " transform="matrix(0.5,0,0,0.5,-0.386,20.652)"/>
<path style="fill-rule:nonzero;fill:rgb(100%,78.039216%,17.254902%);fill-opacity:1;stroke-width:0.944;stroke-linecap:butt;stroke-linejoin:miter;stroke:rgb(0%,0%,0%);stroke-opacity:1;stroke-miterlimit:4;" d="M 817.443875 197.117875 L 839.295438 197.180375 C 839.295438 197.180375 839.639188 194.344437 837.014188 192.617875 C 848.4595 191.047562 845.482938 180.953812 855.068875 180.3835 C 856.92825 180.66475 850.061063 184.672562 850.061063 184.672562 C 850.061063 184.672562 844.287625 188.750687 846.912625 190.821 C 849.006375 192.469437 849.920438 189.821 850.2095 187.821 C 850.49075 185.813187 859.506375 184.531937 858.217313 178.805375 C 856.068875 174.086625 843.482938 181.953812 843.482938 181.953812 L 834.498563 181.906937 C 833.943875 180.899125 831.467313 176.85225 828.904813 176.836625 C 825.873563 176.946 823.74075 181.953812 823.74075 181.953812 L 803.420438 181.953812 C 803.420438 181.953812 802.725125 187.16475 813.029813 188.16475 C 815.350125 191.196 817.147 192.03975 819.162625 192.828812 C 817.818875 193.946 817.436063 195.305375 817.443875 197.117875 Z M 819.014188 192.680375 L 837.217313 192.625687 M 810.67825 181.953812 C 810.67825 181.953812 812.139188 190.469437 818.857938 192.485062 " transform="matrix(0.5,0,0,0.5,-0.386,20.652)"/>
<path style="fill-rule:nonzero;fill:url(#linear1);stroke-width:0.944;stroke-linecap:butt;stroke-linejoin:miter;stroke:rgb(0%,0%,0%);stroke-opacity:1;stroke-miterlimit:4;" d="M 809.561063 181.844437 C 810.232938 178.594437 811.467313 178.031937 812.811063 173.891312 C 813.029813 169.85225 809.561063 170.305375 810.568875 167.72725 C 812.357938 164.930375 811.467313 162.242875 808.107938 160.110062 C 808.779813 163.805375 803.74075 167.281937 803.74075 170.305375 C 803.74075 173.328812 806.311063 172.656937 805.975125 177.250687 C 806.201688 179.938187 805.30325 179.266312 805.0845 181.844437 Z M 809.561063 181.844437 " transform="matrix(0.5,0,0,0.5,-0.386,20.652)"/>
<path style="fill-rule:nonzero;fill:rgb(100%,78.039216%,17.254902%);fill-opacity:1;stroke-width:0.944;stroke-linecap:butt;stroke-linejoin:miter;stroke:rgb(0%,0%,0%);stroke-opacity:1;stroke-miterlimit:4;" d="M 831.498563 161.656937 C 832.076688 160.649125 833.264188 160.156937 834.389188 160.453812 C 835.514188 160.7585 836.30325 161.774125 836.30325 162.938187 C 836.30325 164.110062 835.522 165.125687 834.397 165.430375 C 833.272 165.735062 832.076688 165.242875 831.498563 164.235062 Z M 831.498563 161.656937 " transform="matrix(0.5,0,0,0.5,-0.386,20.652)"/>
<path style="fill:none;stroke-width:1.887;stroke-linecap:butt;stroke-linejoin:miter;stroke:rgb(100%,78.039216%,17.254902%);stroke-opacity:1;stroke-miterlimit:4;" d="M 814.792125 181.83075 L 828.885875 161.127625 L 843.049938 181.869812 " transform="matrix(0.5,0,0,0.5,-0.5445,41.0065)"/>
<path style="fill-rule:nonzero;fill:rgb(100%,78.039216%,17.254902%);fill-opacity:1;stroke-width:0.944;stroke-linecap:butt;stroke-linejoin:miter;stroke:rgb(0%,0%,0%);stroke-opacity:1;stroke-miterlimit:4;" d="M 831.721813 174.088562 C 832.354625 172.994812 833.643688 172.45575 834.87025 172.783875 C 836.089 173.112 836.940563 174.221375 836.948375 175.487 C 836.948375 176.752625 836.096813 177.862 834.87025 178.190125 C 833.6515 178.51825 832.354625 177.987 831.721813 176.89325 Z M 831.721813 174.088562 " transform="matrix(0.5,0,0,0.5,-0.5445,41.0065)"/>
<path style="fill-rule:nonzero;fill:rgb(100%,78.039216%,17.254902%);fill-opacity:1;stroke-width:0.944;stroke-linecap:butt;stroke-linejoin:miter;stroke:rgb(0%,0%,0%);stroke-opacity:1;stroke-miterlimit:4;" d="M 817.440563 197.119812 L 839.292125 197.182312 C 839.292125 197.182312 839.635875 194.346375 837.010875 192.619812 C 848.456188 191.0495 845.487438 180.95575 855.073375 180.377625 C 856.93275 180.666687 850.065563 184.6745 850.065563 184.6745 C 850.065563 184.6745 844.284313 188.752625 846.917125 190.822937 C 849.003063 192.471375 849.917125 189.822937 850.206188 187.822937 C 850.49525 185.815125 859.503063 184.533875 858.221813 178.807312 C 856.073375 174.088562 843.479625 181.95575 843.479625 181.95575 L 834.503063 181.901062 C 833.940563 180.89325 831.464 176.854187 828.909313 176.83075 C 825.878063 176.947937 823.737438 181.95575 823.737438 181.95575 L 803.424938 181.95575 C 803.424938 181.95575 802.729625 187.166687 813.0265 188.166687 C 815.346813 191.197937 817.143688 192.041687 819.159313 192.83075 C 817.815563 193.947937 817.440563 195.2995 817.440563 197.119812 Z M 819.018688 192.682312 L 837.214 192.619812 M 810.68275 181.95575 C 810.68275 181.95575 812.135875 190.463562 818.854625 192.479187 " transform="matrix(0.5,0,0,0.5,-0.5445,41.0065)"/>
<path style="fill-rule:nonzero;fill:url(#linear2);stroke-width:0.944;stroke-linecap:butt;stroke-linejoin:miter;stroke:rgb(0%,0%,0%);stroke-opacity:1;stroke-miterlimit:4;" d="M 809.55775 181.838562 C 810.229625 178.596375 811.464 178.033875 812.80775 173.885437 C 813.034313 169.854187 809.55775 170.307312 810.565563 167.729187 C 812.362438 164.932312 811.464 162.237 808.104625 160.112 C 808.7765 163.807312 803.737438 167.283875 803.737438 170.307312 C 803.737438 173.33075 806.315563 172.658875 805.979625 177.252625 C 806.198375 179.940125 805.30775 179.26825 805.081188 181.838562 Z M 809.55775 181.838562 " transform="matrix(0.5,0,0,0.5,-0.5445,41.0065)"/>
<path style="fill-rule:nonzero;fill:rgb(100%,78.039216%,17.254902%);fill-opacity:1;stroke-width:0.944;stroke-linecap:butt;stroke-linejoin:miter;stroke:rgb(0%,0%,0%);stroke-opacity:1;stroke-miterlimit:4;" d="M 831.49525 161.658875 C 832.073375 160.651062 833.260875 160.151062 834.393688 160.45575 C 835.518688 160.752625 836.299938 161.776062 836.299938 162.940125 C 836.299938 164.104187 835.518688 165.127625 834.393688 165.432312 C 833.268688 165.729187 832.081188 165.237 831.49525 164.229187 Z M 831.49525 161.658875 " transform="matrix(0.5,0,0,0.5,-0.5445,41.0065)"/>
<path style="fill:none;stroke-width:1.887;stroke-linecap:butt;stroke-linejoin:miter;stroke:rgb(100%,78.039216%,17.254902%);stroke-opacity:1;stroke-miterlimit:4;" d="M 814.794875 181.830688 L 828.888625 161.127563 L 843.052688 181.86975 " transform="matrix(0.5,0,0,0.5,12.8135,63.0495)"/>
<path style="fill-rule:nonzero;fill:rgb(100%,78.039216%,17.254902%);fill-opacity:1;stroke-width:0.944;stroke-linecap:butt;stroke-linejoin:miter;stroke:rgb(0%,0%,0%);stroke-opacity:1;stroke-miterlimit:4;" d="M 831.71675 174.0885 C 832.349563 172.99475 833.646438 172.455688 834.865188 172.783813 C 836.09175 173.111938 836.943313 174.221313 836.943313 175.486938 C 836.943313 176.752563 836.09175 177.861938 834.873 178.190063 C 833.646438 178.518188 832.357375 177.986938 831.724563 176.893188 Z M 831.71675 174.0885 " transform="matrix(0.5,0,0,0.5,12.8135,63.0495)"/>
<path style="fill-rule:nonzero;fill:rgb(100%,78.039216%,17.254902%);fill-opacity:1;stroke-width:0.944;stroke-linecap:butt;stroke-linejoin:miter;stroke:rgb(0%,0%,0%);stroke-opacity:1;stroke-miterlimit:4;" d="M 817.443313 197.11975 L 839.294875 197.18225 C 839.294875 197.18225 839.638625 194.346313 837.013625 192.61975 C 848.458938 191.049438 845.482375 180.955688 855.068313 180.377563 C 856.927688 180.666625 850.0605 184.674438 850.0605 184.674438 C 850.0605 184.674438 844.287063 188.752563 846.919875 190.822875 C 849.005813 192.471313 849.919875 189.822875 850.208938 187.822875 C 850.490188 185.815063 859.505813 184.533813 858.21675 178.80725 C 856.068313 174.0885 843.482375 181.955688 843.482375 181.955688 L 834.498 181.901 C 833.943313 180.893188 831.46675 176.854125 828.90425 176.830688 C 825.873 176.947875 823.740188 181.955688 823.740188 181.955688 L 803.419875 181.955688 C 803.419875 181.955688 802.724563 187.166625 813.02925 188.166625 C 815.349563 191.197875 817.146438 192.041625 819.162063 192.830688 C 817.818313 193.947875 817.4355 195.299438 817.443313 197.11975 Z M 819.013625 192.68225 L 837.21675 192.61975 M 810.677688 181.955688 C 810.677688 181.955688 812.138625 190.4635 818.857375 192.479125 " transform="matrix(0.5,0,0,0.5,12.8135,63.0495)"/>
<path style="fill-rule:nonzero;fill:url(#linear3);stroke-width:0.944;stroke-linecap:butt;stroke-linejoin:miter;stroke:rgb(0%,0%,0%);stroke-opacity:1;stroke-miterlimit:4;" d="M 809.5605 181.8385 C 810.232375 178.596313 811.46675 178.033813 812.8105 173.885375 C 813.02925 169.854125 809.5605 170.30725 810.568313 167.729125 C 812.357375 164.93225 811.46675 162.236938 808.107375 160.111938 C 808.77925 163.80725 803.740188 167.283813 803.740188 170.30725 C 803.740188 173.330688 806.3105 172.658813 805.974563 177.252563 C 806.201125 179.940063 805.302688 179.268188 805.083938 181.8385 Z M 809.5605 181.8385 " transform="matrix(0.5,0,0,0.5,12.8135,63.0495)"/>
<path style="fill-rule:nonzero;fill:rgb(100%,78.039216%,17.254902%);fill-opacity:1;stroke-width:0.944;stroke-linecap:butt;stroke-linejoin:miter;stroke:rgb(0%,0%,0%);stroke-opacity:1;stroke-miterlimit:4;" d="M 831.498 161.658813 C 832.076125 160.651 833.263625 160.151 834.388625 160.455688 C 835.513625 160.752563 836.302688 161.776 836.302688 162.940063 C 836.302688 164.104125 835.521438 165.127563 834.396438 165.43225 C 833.271438 165.729125 832.083938 165.24475 831.498 164.229125 Z M 831.498 161.658813 " transform="matrix(0.5,0,0,0.5,12.8135,63.0495)"/>
<path style="fill:none;stroke-width:1.887;stroke-linecap:butt;stroke-linejoin:miter;stroke:rgb(100%,78.039216%,17.254902%);stroke-opacity:1;stroke-miterlimit:4;" d="M 814.79275 181.829187 L 828.8865 161.126062 L 843.050562 181.86825 " transform="matrix(0.5,0,0,0.5,-2.287,81.0815)"/>
<path style="fill-rule:nonzero;fill:rgb(100%,78.039216%,17.254902%);fill-opacity:1;stroke-width:0.944;stroke-linecap:butt;stroke-linejoin:miter;stroke:rgb(0%,0%,0%);stroke-opacity:1;stroke-miterlimit:4;" d="M 831.722437 174.087 C 832.35525 172.99325 833.644312 172.454187 834.870875 172.782312 C 836.089625 173.110437 836.941187 174.219812 836.941187 175.485437 C 836.949 176.751062 836.097437 177.860437 834.870875 178.188562 C 833.644312 178.5245 832.35525 177.985437 831.722437 176.891687 Z M 831.722437 174.087 " transform="matrix(0.5,0,0,0.5,-2.287,81.0815)"/>
<path style="fill-rule:nonzero;fill:rgb(100%,78.039216%,17.254902%);fill-opacity:1;stroke-width:0.944;stroke-linecap:butt;stroke-linejoin:miter;stroke:rgb(0%,0%,0%);stroke-opacity:1;stroke-miterlimit:4;" d="M 817.441187 197.11825 L 839.29275 197.18075 C 839.29275 197.18075 839.6365 194.344812 837.0115 192.61825 C 848.456812 191.047937 845.488062 180.954187 855.074 180.383875 C 856.933375 180.665125 850.066187 184.672937 850.066187 184.672937 C 850.066187 184.672937 844.284937 188.751062 846.91775 190.821375 C 849.003687 192.469812 849.91775 189.821375 850.206812 187.821375 C 850.495875 185.813562 859.503687 184.532312 858.214625 178.80575 C 856.074 174.087 843.48025 181.954187 843.48025 181.954187 L 834.503687 181.907312 C 833.941187 180.8995 831.464625 176.852625 828.909937 176.837 C 825.878687 176.946375 823.738062 181.954187 823.738062 181.954187 L 803.425562 181.954187 C 803.425562 181.954187 802.73025 187.165125 813.027125 188.165125 C 815.347437 191.196375 817.144312 192.040125 819.159937 192.829187 C 817.816187 193.946375 817.441187 195.30575 817.441187 197.11825 Z M 819.019312 192.68075 L 837.214625 192.61825 M 810.683375 181.954187 C 810.683375 181.954187 812.1365 190.469812 818.85525 192.485437 " transform="matrix(0.5,0,0,0.5,-2.287,81.0815)"/>
<path style="fill-rule:nonzero;fill:url(#linear4);stroke-width:0.944;stroke-linecap:butt;stroke-linejoin:miter;stroke:rgb(0%,0%,0%);stroke-opacity:1;stroke-miterlimit:4;" d="M 809.558375 181.844812 C 810.23025 178.594812 811.464625 178.032312 812.808375 173.891687 C 813.034937 169.852625 809.558375 170.30575 810.566187 167.727625 C 812.363062 164.93075 811.464625 162.235437 808.10525 160.110437 C 808.777125 163.80575 803.738062 167.282312 803.738062 170.30575 C 803.738062 173.329187 806.316187 172.657312 805.98025 177.251062 C 806.199 179.938562 805.308375 179.266687 805.081812 181.844812 Z M 809.558375 181.844812 " transform="matrix(0.5,0,0,0.5,-2.287,81.0815)"/>
<path style="fill-rule:nonzero;fill:rgb(100%,78.039216%,17.254902%);fill-opacity:1;stroke-width:0.944;stroke-linecap:butt;stroke-linejoin:miter;stroke:rgb(0%,0%,0%);stroke-opacity:1;stroke-miterlimit:4;" d="M 831.495875 161.657312 C 832.074 160.6495 833.2615 160.157312 834.394312 160.454187 C 835.519312 160.758875 836.300562 161.7745 836.300562 162.938562 C 836.300562 164.102625 835.519312 165.126062 834.394312 165.43075 C 833.269312 165.735437 832.081812 165.24325 831.495875 164.235437 Z M 831.495875 161.657312 " transform="matrix(0.5,0,0,0.5,-2.287,81.0815)"/>
<path style="fill:none;stroke-width:1.887;stroke-linecap:butt;stroke-linejoin:miter;stroke:rgb(100%,78.039216%,17.254902%);stroke-opacity:1;stroke-miterlimit:4;" d="M 814.797625 181.828563 L 828.891375 161.125438 L 843.055438 181.875438 " transform="matrix(0.5,0,0,0.5,-1.891,102.3865)"/>
<path style="fill-rule:nonzero;fill:rgb(100%,78.039216%,17.254902%);fill-opacity:1;stroke-width:0.944;stroke-linecap:butt;stroke-linejoin:miter;stroke:rgb(0%,0%,0%);stroke-opacity:1;stroke-miterlimit:4;" d="M 831.7195 174.086375 C 832.352313 172.992625 833.641375 172.453563 834.867938 172.781688 C 836.0945 173.109813 836.946063 174.219188 836.946063 175.484813 C 836.946063 176.750438 836.0945 177.859813 834.867938 178.19575 C 833.649188 178.523875 832.352313 177.984813 831.7195 176.891063 Z M 831.7195 174.086375 " transform="matrix(0.5,0,0,0.5,-1.891,102.3865)"/>
<path style="fill-rule:nonzero;fill:rgb(100%,78.039216%,17.254902%);fill-opacity:1;stroke-width:0.944;stroke-linecap:butt;stroke-linejoin:miter;stroke:rgb(0%,0%,0%);stroke-opacity:1;stroke-miterlimit:4;" d="M 817.446063 197.117625 L 839.297625 197.180125 C 839.297625 197.180125 839.641375 194.344188 837.016375 192.617625 C 848.461688 191.047313 845.485125 180.953563 855.071063 180.38325 C 856.930438 180.6645 850.06325 184.672313 850.06325 184.672313 C 850.06325 184.672313 844.282 188.750438 846.914813 190.82075 C 849.008563 192.469188 849.922625 189.82075 850.203875 187.82075 C 850.492938 185.82075 859.508563 184.531688 858.2195 178.805125 C 856.071063 174.086375 843.485125 181.953563 843.485125 181.953563 L 834.50075 181.906688 C 833.93825 180.898875 831.461688 176.852 828.907 176.836375 C 825.87575 176.94575 823.735125 181.953563 823.735125 181.953563 L 803.422625 181.953563 C 803.422625 181.953563 802.727313 187.1645 813.024188 188.1645 C 815.3445 191.19575 817.141375 192.0395 819.164813 192.828563 C 817.81325 193.94575 817.43825 195.305125 817.446063 197.117625 Z M 819.016375 192.680125 L 837.2195 192.625438 M 810.680438 181.953563 C 810.680438 181.953563 812.133563 190.469188 818.860125 192.484813 " transform="matrix(0.5,0,0,0.5,-1.891,102.3865)"/>
<path style="fill-rule:nonzero;fill:url(#linear5);stroke-width:0.944;stroke-linecap:butt;stroke-linejoin:miter;stroke:rgb(0%,0%,0%);stroke-opacity:1;stroke-miterlimit:4;" d="M 809.56325 181.844188 C 810.235125 178.594188 811.461688 178.031688 812.805438 173.891063 C 813.032 169.859813 809.56325 170.305125 810.571063 167.727 C 812.360125 164.930125 811.461688 162.242625 808.102313 160.109813 C 808.774188 163.805125 803.735125 167.281688 803.735125 170.305125 C 803.735125 173.328563 806.31325 172.656688 805.977313 177.250438 C 806.203875 179.937938 805.305438 179.266063 805.078875 181.844188 Z M 809.56325 181.844188 " transform="matrix(0.5,0,0,0.5,-1.891,102.3865)"/>
<path style="fill-rule:nonzero;fill:rgb(100%,78.039216%,17.254902%);fill-opacity:1;stroke-width:0.944;stroke-linecap:butt;stroke-linejoin:miter;stroke:rgb(0%,0%,0%);stroke-opacity:1;stroke-miterlimit:4;" d="M 831.492938 161.656688 C 832.078875 160.648875 833.266375 160.156688 834.391375 160.453563 C 835.516375 160.75825 836.297625 161.773875 836.297625 162.937938 C 836.305438 164.109813 835.516375 165.125438 834.391375 165.430125 C 833.266375 165.734813 832.078875 165.242625 831.50075 164.234813 Z M 831.492938 161.656688 " transform="matrix(0.5,0,0,0.5,-1.891,102.3865)"/>
<path style="fill:none;stroke-width:1.887;stroke-linecap:butt;stroke-linejoin:miter;stroke:rgb(100%,78.039216%,17.254902%);stroke-opacity:1;stroke-miterlimit:4;" d="M 814.790313 181.828 L 828.891875 161.124875 L 843.055938 181.874875 " transform="matrix(0.5,0,0,0.5,73.14,0.336)"/>
<path style="fill-rule:nonzero;fill:rgb(100%,78.039216%,17.254902%);fill-opacity:1;stroke-width:0.944;stroke-linecap:butt;stroke-linejoin:miter;stroke:rgb(0%,0%,0%);stroke-opacity:1;stroke-miterlimit:4;" d="M 831.72 174.093625 C 832.352813 172.992063 833.641875 172.453 834.868438 172.781125 C 836.095 173.10925 836.946563 174.218625 836.946563 175.48425 C 836.946563 176.749875 836.095 177.867063 834.868438 178.195188 C 833.649688 178.523313 832.352813 177.98425 831.72 176.8905 Z M 831.72 174.093625 " transform="matrix(0.5,0,0,0.5,73.14,0.336)"/>
<path style="fill-rule:nonzero;fill:rgb(100%,78.039216%,17.254902%);fill-opacity:1;stroke-width:0.944;stroke-linecap:butt;stroke-linejoin:miter;stroke:rgb(0%,0%,0%);stroke-opacity:1;stroke-miterlimit:4;" d="M 817.446563 197.117063 L 839.298125 197.179563 C 839.298125 197.179563 839.641875 194.343625 837.016875 192.624875 C 848.462188 191.04675 845.485625 180.953 855.071563 180.382688 C 856.930938 180.663938 850.06375 184.67175 850.06375 184.67175 C 850.06375 184.67175 844.2825 188.749875 846.915313 190.820188 C 849.009063 192.468625 849.923125 189.820188 850.204375 187.820188 C 850.493438 185.820188 859.509063 184.531125 858.22 178.804563 C 856.071563 174.085813 843.485625 181.953 843.485625 181.953 L 834.50125 181.906125 C 833.93875 180.898313 831.462188 176.851438 828.9075 176.835813 C 825.87625 176.945188 823.735625 181.953 823.735625 181.953 L 803.423125 181.953 C 803.423125 181.953 802.727813 187.163938 813.024688 188.17175 C 815.345 191.195188 817.141875 192.04675 819.1575 192.828 C 817.81375 193.945188 817.43875 195.304563 817.446563 197.117063 Z M 819.016875 192.687375 L 837.22 192.624875 M 810.680938 181.953 C 810.680938 181.953 812.134063 190.468625 818.860625 192.48425 " transform="matrix(0.5,0,0,0.5,73.14,0.336)"/>
<path style="fill-rule:nonzero;fill:url(#linear6);stroke-width:0.944;stroke-linecap:butt;stroke-linejoin:miter;stroke:rgb(0%,0%,0%);stroke-opacity:1;stroke-miterlimit:4;" d="M 809.56375 181.843625 C 810.235625 178.593625 811.462188 178.031125 812.805938 173.8905 C 813.0325 169.85925 809.56375 170.304563 810.571563 167.726438 C 812.360625 164.929563 811.462188 162.242063 808.102813 160.10925 C 808.774688 163.804563 803.735625 167.281125 803.735625 170.304563 C 803.735625 173.328 806.31375 172.656125 805.977813 177.249875 C 806.204375 179.937375 805.305938 179.2655 805.079375 181.843625 Z M 809.56375 181.843625 " transform="matrix(0.5,0,0,0.5,73.14,0.336)"/>
<path style="fill-rule:nonzero;fill:rgb(100%,78.039216%,17.254902%);fill-opacity:1;stroke-width:0.944;stroke-linecap:butt;stroke-linejoin:miter;stroke:rgb(0%,0%,0%);stroke-opacity:1;stroke-miterlimit:4;" d="M 831.493438 161.656125 C 832.079375 160.648313 833.266875 160.156125 834.391875 160.453 C 835.516875 160.757688 836.298125 161.773313 836.298125 162.937375 C 836.298125 164.10925 835.516875 165.124875 834.391875 165.429563 C 833.266875 165.73425 832.079375 165.242063 831.493438 164.23425 Z M 831.493438 161.656125 " transform="matrix(0.5,0,0,0.5,73.14,0.336)"/>
<path style="fill:none;stroke-width:1.887;stroke-linecap:butt;stroke-linejoin:miter;stroke:rgb(100%,78.039216%,17.254902%);stroke-opacity:1;stroke-miterlimit:4;" d="M 814.790562 181.828875 L 828.892125 161.12575 L 843.056187 181.87575 " transform="matrix(0.5,0,0,0.5,72.468,20.609)"/>
<path style="fill-rule:nonzero;fill:rgb(100%,78.039216%,17.254902%);fill-opacity:1;stroke-width:0.944;stroke-linecap:butt;stroke-linejoin:miter;stroke:rgb(0%,0%,0%);stroke-opacity:1;stroke-miterlimit:4;" d="M 831.72025 174.086687 C 832.353062 172.992937 833.642125 172.453875 834.868687 172.782 C 836.09525 173.110125 836.946812 174.2195 836.946812 175.485125 C 836.946812 176.75075 836.09525 177.860125 834.868687 178.196062 C 833.649937 178.524187 832.353062 177.985125 831.72025 176.891375 Z M 831.72025 174.086687 " transform="matrix(0.5,0,0,0.5,72.468,20.609)"/>
<path style="fill-rule:nonzero;fill:rgb(100%,78.039216%,17.254902%);fill-opacity:1;stroke-width:0.944;stroke-linecap:butt;stroke-linejoin:miter;stroke:rgb(0%,0%,0%);stroke-opacity:1;stroke-miterlimit:4;" d="M 817.446812 197.117937 L 839.298375 197.180437 C 839.298375 197.180437 839.634312 194.3445 837.009312 192.617937 C 848.462437 191.047625 845.485875 180.953875 855.071812 180.383562 C 856.931187 180.664812 850.064 184.672625 850.064 184.672625 C 850.064 184.672625 844.28275 188.75075 846.915562 190.821062 C 849.009312 192.4695 849.923375 189.821062 850.204625 187.821062 C 850.493687 185.81325 859.509312 184.532 858.22025 178.805437 C 856.071812 174.086687 843.485875 181.953875 843.485875 181.953875 L 834.5015 181.907 C 833.939 180.899187 831.462437 176.852312 828.90775 176.836687 C 825.8765 176.946062 823.735875 181.953875 823.735875 181.953875 L 803.423375 181.953875 C 803.423375 181.953875 802.728062 187.164812 813.024937 188.164812 C 815.34525 191.196062 817.142125 192.039812 819.15775 192.828875 C 817.814 193.946062 817.439 195.305437 817.446812 197.117937 Z M 819.017125 192.680437 L 837.22025 192.62575 M 810.681187 181.953875 C 810.681187 181.953875 812.134312 190.4695 818.860875 192.485125 " transform="matrix(0.5,0,0,0.5,72.468,20.609)"/>
<path style="fill-rule:nonzero;fill:url(#linear7);stroke-width:0.944;stroke-linecap:butt;stroke-linejoin:miter;stroke:rgb(0%,0%,0%);stroke-opacity:1;stroke-miterlimit:4;" d="M 809.564 181.8445 C 810.235875 178.5945 811.462437 178.032 812.806187 173.891375 C 813.03275 169.852312 809.564 170.305437 810.571812 167.727312 C 812.360875 164.930437 811.462437 162.235125 808.103062 160.110125 C 808.774937 163.805437 803.735875 167.282 803.735875 170.305437 C 803.735875 173.328875 806.314 172.657 805.978062 177.25075 C 806.204625 179.93825 805.306187 179.266375 805.079625 181.8445 Z M 809.564 181.8445 " transform="matrix(0.5,0,0,0.5,72.468,20.609)"/>
<path style="fill-rule:nonzero;fill:rgb(100%,78.039216%,17.254902%);fill-opacity:1;stroke-width:0.944;stroke-linecap:butt;stroke-linejoin:miter;stroke:rgb(0%,0%,0%);stroke-opacity:1;stroke-miterlimit:4;" d="M 831.493687 161.657 C 832.079625 160.649187 833.267125 160.157 834.392125 160.453875 C 835.517125 160.758562 836.298375 161.774187 836.298375 162.93825 C 836.298375 164.110125 835.517125 165.12575 834.392125 165.430437 C 833.267125 165.735125 832.079625 165.242937 831.493687 164.235125 Z M 831.493687 161.657 " transform="matrix(0.5,0,0,0.5,72.468,20.609)"/>
<path style="fill:none;stroke-width:1.887;stroke-linecap:butt;stroke-linejoin:miter;stroke:rgb(100%,78.039216%,17.254902%);stroke-opacity:1;stroke-miterlimit:4;" d="M 814.7935 181.831187 L 828.88725 161.128062 L 843.051312 181.87025 " transform="matrix(0.5,0,0,0.5,71.572,41.3305)"/>
<path style="fill-rule:nonzero;fill:rgb(100%,78.039216%,17.254902%);fill-opacity:1;stroke-width:0.944;stroke-linecap:butt;stroke-linejoin:miter;stroke:rgb(0%,0%,0%);stroke-opacity:1;stroke-miterlimit:4;" d="M 831.715375 174.089 C 832.348187 172.99525 833.645062 172.456187 834.863812 172.784312 C 836.090375 173.112437 836.941937 174.221812 836.941937 175.487437 C 836.941937 176.753062 836.098187 177.862437 834.871625 178.190562 C 833.645062 178.518687 832.356 177.987437 831.723187 176.893687 Z M 831.715375 174.089 " transform="matrix(0.5,0,0,0.5,71.572,41.3305)"/>
<path style="fill-rule:nonzero;fill:rgb(100%,78.039216%,17.254902%);fill-opacity:1;stroke-width:0.944;stroke-linecap:butt;stroke-linejoin:miter;stroke:rgb(0%,0%,0%);stroke-opacity:1;stroke-miterlimit:4;" d="M 817.441937 197.12025 L 839.2935 197.18275 C 839.2935 197.18275 839.63725 194.346812 837.01225 192.62025 C 848.457562 191.049937 845.488812 180.948375 855.07475 180.378062 C 856.934125 180.667125 850.059125 184.674937 850.059125 184.674937 C 850.059125 184.674937 844.285687 188.753062 846.9185 190.823375 C 849.004437 192.471812 849.9185 189.823375 850.207562 187.823375 C 850.488812 185.815562 859.504437 184.5265 858.215375 178.80775 C 856.07475 174.089 843.481 181.956187 843.481 181.956187 L 834.496625 181.9015 C 833.941937 180.893687 831.465375 176.854625 828.910687 176.831187 C 825.871625 176.948375 823.738812 181.956187 823.738812 181.956187 L 803.426312 181.956187 C 803.426312 181.956187 802.723187 187.167125 813.027875 188.167125 C 815.348187 191.198375 817.145062 192.042125 819.160687 192.823375 C 817.816937 193.948375 817.434125 195.299937 817.441937 197.12025 Z M 819.020062 192.68275 L 837.215375 192.62025 M 810.684125 181.956187 C 810.684125 181.956187 812.13725 190.464 818.856 192.479625 " transform="matrix(0.5,0,0,0.5,71.572,41.3305)"/>
<path style="fill-rule:nonzero;fill:url(#linear8);stroke-width:0.944;stroke-linecap:butt;stroke-linejoin:miter;stroke:rgb(0%,0%,0%);stroke-opacity:1;stroke-miterlimit:4;" d="M 809.559125 181.839 C 810.231 178.596812 811.465375 178.034312 812.809125 173.885875 C 813.035687 169.854625 809.559125 170.30775 810.566937 167.729625 C 812.363812 164.93275 811.465375 162.237437 808.106 160.112437 C 808.777875 163.80775 803.738812 167.2765 803.738812 170.30775 C 803.738812 173.331187 806.309125 172.659312 805.973187 177.24525 C 806.19975 179.940562 805.301312 179.268687 805.082562 181.839 Z M 809.559125 181.839 " transform="matrix(0.5,0,0,0.5,71.572,41.3305)"/>
<path style="fill-rule:nonzero;fill:rgb(100%,78.039216%,17.254902%);fill-opacity:1;stroke-width:0.944;stroke-linecap:butt;stroke-linejoin:miter;stroke:rgb(0%,0%,0%);stroke-opacity:1;stroke-miterlimit:4;" d="M 831.496625 161.659312 C 832.07475 160.643687 833.26225 160.1515 834.38725 160.456187 C 835.520062 160.753062 836.301312 161.7765 836.301312 162.940562 C 836.301312 164.104625 835.520062 165.128062 834.395062 165.43275 C 833.270062 165.729625 832.082562 165.237437 831.496625 164.229625 Z M 831.496625 161.659312 " transform="matrix(0.5,0,0,0.5,71.572,41.3305)"/>
<path style="fill:none;stroke-width:1.887;stroke-linecap:butt;stroke-linejoin:miter;stroke:rgb(100%,78.039216%,17.254902%);stroke-opacity:1;stroke-miterlimit:4;" d="M 814.793125 181.826813 L 828.886875 161.1315 L 843.050938 181.873688 " transform="matrix(0.5,0,0,0.5,72.58,61.7155)"/>
<path style="fill-rule:nonzero;fill:rgb(100%,78.039216%,17.254902%);fill-opacity:1;stroke-width:0.944;stroke-linecap:butt;stroke-linejoin:miter;stroke:rgb(0%,0%,0%);stroke-opacity:1;stroke-miterlimit:4;" d="M 831.722813 174.092438 C 832.355625 172.990875 833.644688 172.459625 834.87125 172.779938 C 836.09 173.108063 836.941563 174.217438 836.941563 175.483063 C 836.949375 176.7565 836.097813 177.865875 834.87125 178.194 C 833.644688 178.522125 832.355625 177.990875 831.722813 176.889313 Z M 831.722813 174.092438 " transform="matrix(0.5,0,0,0.5,72.58,61.7155)"/>
<path style="fill-rule:nonzero;fill:rgb(100%,78.039216%,17.254902%);fill-opacity:1;stroke-width:0.944;stroke-linecap:butt;stroke-linejoin:miter;stroke:rgb(0%,0%,0%);stroke-opacity:1;stroke-miterlimit:4;" d="M 817.441563 197.115875 L 839.293125 197.178375 C 839.293125 197.178375 839.636875 194.342438 837.011875 192.623688 C 848.457188 191.045563 845.488438 180.951813 855.074375 180.3815 C 856.93375 180.66275 850.066563 184.670563 850.066563 184.670563 C 850.066563 184.670563 844.285313 188.748688 846.918125 190.826813 C 849.004063 192.467438 849.918125 189.826813 850.207188 187.819 C 850.488438 185.819 859.504063 184.529938 858.215 178.803375 C 856.074375 174.084625 843.480625 181.951813 843.480625 181.951813 L 834.49625 181.904938 C 833.941563 180.897125 831.465 176.85025 828.910313 176.834625 C 825.87125 176.944 823.738438 181.951813 823.738438 181.951813 L 803.425938 181.951813 C 803.425938 181.951813 802.730625 187.16275 813.0275 188.170563 C 815.347813 191.194 817.144688 192.045563 819.160313 192.826813 C 817.816563 193.944 817.441563 195.303375 817.441563 197.115875 Z M 819.019688 192.686188 L 837.215 192.623688 M 810.68375 181.951813 C 810.68375 181.951813 812.136875 190.467438 818.855625 192.483063 " transform="matrix(0.5,0,0,0.5,72.58,61.7155)"/>
<path style="fill-rule:nonzero;fill:url(#linear9);stroke-width:0.944;stroke-linecap:butt;stroke-linejoin:miter;stroke:rgb(0%,0%,0%);stroke-opacity:1;stroke-miterlimit:4;" d="M 809.55875 181.842438 C 810.230625 178.592438 811.465 178.029938 812.80875 173.889313 C 813.035313 169.858063 809.55875 170.303375 810.566563 167.72525 C 812.363438 164.928375 811.465 162.240875 808.105625 160.115875 C 808.7775 163.811188 803.738438 167.279938 803.738438 170.303375 C 803.738438 173.326813 806.316563 172.654938 805.980625 177.248688 C 806.199375 179.936188 805.30875 179.264313 805.082188 181.842438 Z M 809.55875 181.842438 " transform="matrix(0.5,0,0,0.5,72.58,61.7155)"/>
<path style="fill-rule:nonzero;fill:rgb(100%,78.039216%,17.254902%);fill-opacity:1;stroke-width:0.944;stroke-linecap:butt;stroke-linejoin:miter;stroke:rgb(0%,0%,0%);stroke-opacity:1;stroke-miterlimit:4;" d="M 831.49625 161.654938 C 832.074375 160.647125 833.261875 160.154938 834.386875 160.451813 C 835.519688 160.7565 836.300938 161.772125 836.300938 162.944 C 836.300938 164.108063 835.519688 165.123688 834.394688 165.428375 C 833.269688 165.733063 832.082188 165.240875 831.49625 164.233063 Z M 831.49625 161.654938 " transform="matrix(0.5,0,0,0.5,72.58,61.7155)"/>
<path style="fill:none;stroke-width:1.887;stroke-linecap:butt;stroke-linejoin:miter;stroke:rgb(100%,78.039216%,17.254902%);stroke-opacity:1;stroke-miterlimit:4;" d="M 814.795813 181.83025 L 828.889563 161.127125 L 843.053625 181.869313 " transform="matrix(0.5,0,0,0.5,72.356,82.1005)"/>
<path style="fill-rule:nonzero;fill:rgb(100%,78.039216%,17.254902%);fill-opacity:1;stroke-width:0.944;stroke-linecap:butt;stroke-linejoin:miter;stroke:rgb(0%,0%,0%);stroke-opacity:1;stroke-miterlimit:4;" d="M 831.717688 174.088063 C 832.3505 172.994313 833.639563 172.45525 834.866125 172.783375 C 836.092688 173.1115 836.94425 174.220875 836.94425 175.4865 C 836.94425 176.752125 836.092688 177.8615 834.873938 178.189625 C 833.647375 178.51775 832.358313 177.9865 831.717688 176.89275 Z M 831.717688 174.088063 " transform="matrix(0.5,0,0,0.5,72.356,82.1005)"/>
<path style="fill-rule:nonzero;fill:rgb(100%,78.039216%,17.254902%);fill-opacity:1;stroke-width:0.944;stroke-linecap:butt;stroke-linejoin:miter;stroke:rgb(0%,0%,0%);stroke-opacity:1;stroke-miterlimit:4;" d="M 817.44425 197.119313 L 839.295813 197.181813 C 839.295813 197.181813 839.639563 194.345875 837.014563 192.619313 C 848.459875 191.049 845.483313 180.95525 855.06925 180.377125 C 856.928625 180.666188 850.061438 184.674 850.061438 184.674 C 850.061438 184.674 844.280188 188.752125 846.913 190.822438 C 849.00675 192.470875 849.920813 189.822438 850.209875 187.822438 C 850.491125 185.814625 859.50675 184.533375 858.217688 178.806813 C 856.06925 174.088063 843.483313 181.95525 843.483313 181.95525 L 834.498938 181.900563 C 833.936438 180.89275 831.467688 176.853688 828.905188 176.83025 C 825.873938 176.947438 823.741125 181.95525 823.741125 181.95525 L 803.420813 181.95525 C 803.420813 181.95525 802.7255 187.166188 813.030188 188.166188 C 815.3505 191.197438 817.147375 192.041188 819.163 192.83025 C 817.81925 193.947438 817.436438 195.299 817.44425 197.119313 Z M 819.014563 192.681813 L 837.217688 192.619313 M 810.678625 181.95525 C 810.678625 181.95525 812.139563 190.463063 818.858313 192.478688 " transform="matrix(0.5,0,0,0.5,72.356,82.1005)"/>
<path style="fill-rule:nonzero;fill:url(#linear10);stroke-width:0.944;stroke-linecap:butt;stroke-linejoin:miter;stroke:rgb(0%,0%,0%);stroke-opacity:1;stroke-miterlimit:4;" d="M 809.561438 181.838063 C 810.233313 178.595875 811.467688 178.033375 812.811438 173.89275 C 813.030188 169.853688 809.561438 170.306813 810.56925 167.728688 C 812.358313 164.931813 811.467688 162.2365 808.108313 160.1115 C 808.780188 163.806813 803.733313 167.283375 803.733313 170.306813 C 803.733313 173.33025 806.311438 172.658375 805.9755 177.252125 C 806.202063 179.939625 805.303625 179.26775 805.084875 181.838063 Z M 809.561438 181.838063 " transform="matrix(0.5,0,0,0.5,72.356,82.1005)"/>
<path style="fill-rule:nonzero;fill:rgb(100%,78.039216%,17.254902%);fill-opacity:1;stroke-width:0.944;stroke-linecap:butt;stroke-linejoin:miter;stroke:rgb(0%,0%,0%);stroke-opacity:1;stroke-miterlimit:4;" d="M 831.491125 161.658375 C 832.077063 160.650563 833.264563 160.150563 834.389563 160.45525 C 835.514563 160.752125 836.303625 161.775563 836.303625 162.939625 C 836.303625 164.103688 835.522375 165.127125 834.397375 165.431813 C 833.272375 165.728688 832.077063 165.244313 831.498938 164.228688 Z M 831.491125 161.658375 " transform="matrix(0.5,0,0,0.5,72.356,82.1005)"/>
<path style="fill:none;stroke-width:1.887;stroke-linecap:butt;stroke-linejoin:miter;stroke:rgb(100%,78.039216%,17.254902%);stroke-opacity:1;stroke-miterlimit:4;" d="M 814.790562 181.828438 L 828.892125 161.125313 L 843.056187 181.875313 " transform="matrix(0.5,0,0,0.5,72.468,102.5975)"/>
<path style="fill-rule:nonzero;fill:rgb(100%,78.039216%,17.254902%);fill-opacity:1;stroke-width:0.944;stroke-linecap:butt;stroke-linejoin:miter;stroke:rgb(0%,0%,0%);stroke-opacity:1;stroke-miterlimit:4;" d="M 831.72025 174.08625 C 832.353062 172.9925 833.642125 172.453438 834.868687 172.781563 C 836.09525 173.109688 836.946812 174.219063 836.946812 175.484688 C 836.946812 176.750313 836.09525 177.859688 834.868687 178.195625 C 833.649937 178.52375 832.353062 177.984688 831.72025 176.890938 Z M 831.72025 174.08625 " transform="matrix(0.5,0,0,0.5,72.468,102.5975)"/>
<path style="fill-rule:nonzero;fill:rgb(100%,78.039216%,17.254902%);fill-opacity:1;stroke-width:0.944;stroke-linecap:butt;stroke-linejoin:miter;stroke:rgb(0%,0%,0%);stroke-opacity:1;stroke-miterlimit:4;" d="M 817.446812 197.1175 L 839.298375 197.18 C 839.298375 197.18 839.634312 194.344063 837.009312 192.6175 C 848.462437 191.047188 845.485875 180.953438 855.071812 180.383125 C 856.931187 180.664375 850.064 184.672188 850.064 184.672188 C 850.064 184.672188 844.28275 188.750313 846.915562 190.820625 C 849.009312 192.469063 849.923375 189.820625 850.204625 187.820625 C 850.493687 185.820625 859.509312 184.531563 858.22025 178.805 C 856.071812 174.08625 843.485875 181.953438 843.485875 181.953438 L 834.5015 181.906563 C 833.939 180.89875 831.462437 176.851875 828.90775 176.83625 C 825.8765 176.945625 823.735875 181.953438 823.735875 181.953438 L 803.423375 181.953438 C 803.423375 181.953438 802.728062 187.164375 813.024937 188.164375 C 815.34525 191.195625 817.142125 192.039375 819.15775 192.828438 C 817.814 193.945625 817.439 195.305 817.446812 197.1175 Z M 819.017125 192.687813 L 837.22025 192.625313 M 810.681187 181.953438 C 810.681187 181.953438 812.134312 190.469063 818.860875 192.484688 " transform="matrix(0.5,0,0,0.5,72.468,102.5975)"/>
<path style="fill-rule:nonzero;fill:url(#linear11);stroke-width:0.944;stroke-linecap:butt;stroke-linejoin:miter;stroke:rgb(0%,0%,0%);stroke-opacity:1;stroke-miterlimit:4;" d="M 809.564 181.844063 C 810.235875 178.594063 811.462437 178.031563 812.806187 173.890938 C 813.03275 169.859688 809.564 170.305 810.571812 167.726875 C 812.360875 164.93 811.462437 162.2425 808.103062 160.109688 C 808.774937 163.805 803.735875 167.281563 803.735875 170.305 C 803.735875 173.328438 806.314 172.656563 805.978062 177.250313 C 806.204625 179.937813 805.306187 179.265938 805.079625 181.844063 Z M 809.564 181.844063 " transform="matrix(0.5,0,0,0.5,72.468,102.5975)"/>
<path style="fill-rule:nonzero;fill:rgb(100%,78.039216%,17.254902%);fill-opacity:1;stroke-width:0.944;stroke-linecap:butt;stroke-linejoin:miter;stroke:rgb(0%,0%,0%);stroke-opacity:1;stroke-miterlimit:4;" d="M 831.493687 161.656563 C 832.079625 160.64875 833.267125 160.156563 834.392125 160.453438 C 835.517125 160.758125 836.298375 161.77375 836.298375 162.937813 C 836.298375 164.109688 835.517125 165.125313 834.392125 165.43 C 833.267125 165.734688 832.079625 165.2425 831.493687 164.234688 Z M 831.493687 161.656563 " transform="matrix(0.5,0,0,0.5,72.468,102.5975)"/>
<path style="fill-rule:nonzero;fill:rgb(100%,78.039216%,17.254902%);fill-opacity:1;stroke-width:0.944;stroke-linecap:butt;stroke-linejoin:miter;stroke:rgb(0%,0%,0%);stroke-opacity:1;stroke-miterlimit:4;" d="M 915.84375 406.3125 C 915.84375 406.3125 921.546875 419.460938 928.039062 411.382812 C 934.53125 403.304688 932.15625 399.820312 932.15625 399.820312 L 917.585938 391.898438 L 913.3125 400.929688 Z M 915.84375 406.3125 " transform="matrix(0.5,0,0,0.5,0,0)"/>
<path style="fill-rule:nonzero;fill:rgb(100%,77.647059%,70.980392%);fill-opacity:1;stroke-width:0.944;stroke-linecap:butt;stroke-linejoin:miter;stroke:rgb(0%,0%,0%);stroke-opacity:1;stroke-miterlimit:4;" d="M 928.359375 404.570312 C 928.359375 404.570312 929.304688 404.734375 930.101562 403.304688 C 930.890625 401.882812 928.359375 401.242188 927.25 399.664062 L 925.984375 402.195312 Z M 895.40625 401.085938 L 882.578125 408.054688 C 882.578125 408.054688 876.242188 409.320312 875.765625 408.054688 C 875.289062 406.789062 875.929688 405.679688 879.25 405.523438 C 882.578125 405.367188 891.609375 397.125 891.609375 397.125 Z M 895.570312 173.148438 C 895.570312 173.148438 895.882812 176.15625 896.046875 177.742188 C 896.203125 179.328125 893.507812 182.65625 893.351562 182.492188 C 893.1875 182.335938 891.921875 182.65625 892.085938 183.601562 C 892.242188 184.554688 894.140625 184.867188 894.140625 184.867188 C 894.140625 184.867188 893.351562 188.195312 894.140625 188.351562 C 894.9375 188.515625 892.085938 192.632812 894.140625 193.742188 C 896.203125 194.851562 899.6875 196.273438 901.273438 195.960938 C 902.851562 195.640625 901.273438 202.132812 901.273438 202.132812 L 896.835938 211.640625 L 921.226562 209.109375 L 916.15625 201.023438 C 916.15625 201.023438 913.78125 199.445312 914.421875 194.851562 C 915.054688 190.257812 914.101562 169.507812 914.101562 169.507812 L 896.679688 167.132812 Z M 891.132812 209.265625 C 891.132812 209.265625 883.210938 212.90625 883.53125 222.726562 C 881.46875 232.234375 880.359375 241.734375 880.359375 241.734375 C 880.359375 241.734375 871.015625 252.351562 868.164062 256.148438 C 865.3125 259.953125 861.039062 267.710938 859.453125 269.773438 C 857.867188 271.835938 851.6875 278.640625 851.851562 281.179688 C 852.007812 283.710938 850.421875 294.960938 856.601562 296.226562 C 858.1875 296.859375 863.257812 283.234375 863.257812 283.234375 C 863.257812 283.234375 863.570312 277.375 861.828125 276.265625 C 860.085938 275.15625 865.632812 271.359375 865.632812 271.359375 C 865.632812 271.359375 876.242188 263.59375 878.617188 261.695312 C 880.992188 259.796875 887.484375 252.507812 887.484375 252.507812 Z M 891.132812 209.265625 " transform="matrix(0.5,0,0,0.5,0,0)"/>
<path style="fill-rule:nonzero;fill:rgb(100%,100%,100%);fill-opacity:1;stroke-width:0.944;stroke-linecap:butt;stroke-linejoin:miter;stroke:rgb(0%,0%,0%);stroke-opacity:1;stroke-miterlimit:4;" d="M 900.164062 201.820312 C 900.164062 201.820312 902.21875 207.367188 906.8125 206.414062 C 911.40625 205.460938 916.796875 201.1875 916.796875 201.1875 C 916.796875 201.1875 921.070312 201.03125 921.703125 201.664062 C 922.335938 202.296875 933.265625 212.90625 932.953125 216.234375 C 932.632812 219.5625 927.882812 218.609375 926.140625 220.828125 C 924.398438 223.046875 921.546875 228.59375 922.335938 232.710938 C 923.132812 236.828125 925.507812 242.210938 925.1875 244.273438 C 924.875 246.328125 923.132812 246.960938 923.132812 248.070312 C 923.132812 249.179688 924.554688 251.085938 924.554688 253.140625 C 924.554688 255.203125 922.65625 258.210938 922.96875 260.273438 C 923.289062 262.328125 923.445312 268.351562 923.445312 268.351562 L 922.96875 296.226562 C 922.96875 296.226562 924.554688 297.179688 924.710938 298.757812 C 924.875 300.34375 935.484375 346.4375 935.484375 346.4375 C 935.484375 346.4375 935.007812 347.867188 933.898438 347.703125 C 932.789062 347.546875 938.179688 354.835938 938.335938 356.890625 C 938.492188 358.953125 943.882812 375.109375 943.71875 377.328125 C 943.5625 379.546875 942.773438 384.453125 942.296875 384.617188 C 941.820312 384.773438 945.78125 394.75 945.148438 396.335938 C 944.515625 397.921875 938.015625 397.757812 938.015625 397.757812 L 936.273438 397.445312 C 936.273438 397.445312 936.4375 399.507812 935.171875 399.664062 C 933.898438 399.820312 924.554688 399.1875 924.554688 399.1875 C 924.554688 399.1875 921.859375 403.304688 920.28125 403.148438 C 918.695312 402.992188 916.632812 400.140625 916.15625 400.609375 C 915.6875 401.085938 917.585938 403.78125 917.109375 404.570312 C 916.632812 405.367188 908.554688 407.109375 906.96875 403.304688 C 905.390625 399.507812 907.921875 400.453125 907.445312 399.664062 C 906.96875 398.867188 903.328125 396.8125 902.21875 397.445312 C 901.109375 398.078125 905.070312 399.03125 904.914062 400.609375 C 904.757812 402.195312 901.429688 404.570312 900.164062 404.570312 C 898.890625 404.570312 895.882812 398.710938 891.445312 399.34375 C 887.015625 399.976562 884.164062 401.085938 884.164062 401.085938 C 884.164062 401.085938 878.9375 403.304688 876.71875 402.828125 C 874.5 402.351562 873.546875 400.609375 873.546875 399.664062 C 873.546875 398.710938 875.132812 394.59375 874.976562 393.328125 C 874.8125 392.0625 873.546875 390.789062 873.546875 388.890625 C 873.546875 386.992188 877.195312 380.492188 877.195312 380.492188 L 877.03125 351.351562 C 877.03125 351.351562 873.710938 351.351562 873.546875 349.289062 C 873.390625 347.226562 878.617188 303.195312 879.40625 300.34375 C 880.203125 297.492188 882.265625 287.359375 882.265625 287.359375 C 882.265625 287.359375 879.882812 288.46875 879.726562 287.359375 C 879.570312 286.25 886.851562 261.0625 886.851562 261.0625 C 886.851562 261.0625 888.125 248.546875 888.125 245.21875 C 888.125 241.898438 887.492188 237.304688 887.492188 237.304688 C 887.492188 237.304688 880.984375 234.546875 880.835938 230.328125 C 880.242188 223.625 887.015625 219.875 887.804688 217.65625 L 890.976562 208.789062 C 890.976562 208.789062 894.460938 202.773438 900.164062 201.820312 Z M 900.164062 201.820312 " transform="matrix(0.5,0,0,0.5,0,0)"/>
<path style="fill-rule:nonzero;fill:rgb(100%,78.039216%,17.254902%);fill-opacity:1;stroke-width:0.944;stroke-linecap:butt;stroke-linejoin:miter;stroke:rgb(0%,0%,0%);stroke-opacity:1;stroke-miterlimit:4;" d="M 897.78125 402.984375 C 897.78125 402.984375 882.421875 411.070312 880.203125 411.703125 C 877.984375 412.335938 876.5625 409.007812 878.773438 408.375 C 880.992188 407.742188 884.476562 407.421875 884.476562 407.421875 C 884.476562 407.421875 879.25 403.304688 879.414062 403.148438 C 879.570312 402.984375 886.539062 400.453125 886.695312 400.453125 C 886.851562 400.453125 888.914062 404.570312 890.34375 404.257812 C 891.765625 403.9375 895.882812 400.773438 895.882812 400.773438 C 895.882812 400.773438 898.101562 403.304688 897.78125 402.984375 Z M 897.78125 402.984375 " transform="matrix(0.5,0,0,0.5,0,0)"/>
<path style="fill-rule:nonzero;fill:rgb(100%,77.647059%,70.980392%);fill-opacity:1;stroke-width:0.944;stroke-linecap:butt;stroke-linejoin:miter;stroke:rgb(0%,0%,0%);stroke-opacity:1;stroke-miterlimit:4;" d="M 919.429688 407.421875 C 920.882812 409.296875 921.453125 412.546875 924.78125 410.648438 C 928.109375 408.742188 923.078125 405.21875 923.078125 405.21875 Z M 919.429688 407.421875 " transform="matrix(0.5,0,0,0.5,0,0)"/>
<path style="fill-rule:nonzero;fill:rgb(100%,77.647059%,70.980392%);fill-opacity:1;stroke-width:0.944;stroke-linecap:butt;stroke-linejoin:miter;stroke:rgb(0%,0%,0%);stroke-opacity:1;stroke-miterlimit:4;" d="M 925.507812 407.109375 C 925.507812 407.109375 927.085938 408.375 928.515625 406.945312 C 929.9375 405.523438 925.664062 402.515625 925.664062 402.515625 L 923.601562 404.890625 Z M 932.320312 216.960938 C 932.476562 216.960938 937.546875 232.640625 938.179688 236.601562 C 938.8125 240.5625 940.867188 256.398438 940.078125 258.617188 C 939.289062 260.835938 931.210938 271.445312 930.257812 274.140625 C 929.304688 276.835938 923.601562 287.132812 923.601562 287.132812 C 923.601562 287.132812 922.179688 297.265625 921.546875 297.742188 C 920.914062 298.21875 923.179688 300.710938 922.96875 301.546875 C 922.65625 302.492188 918.375 306.929688 916.476562 306.453125 C 914.578125 305.984375 911.570312 303.765625 911.40625 301.703125 C 911.25 299.648438 911.5625 292.835938 912.992188 291.09375 C 914.421875 289.351562 921.859375 271.765625 922.335938 270.65625 C 922.8125 269.546875 929.148438 255.765625 929.304688 253.390625 C 929.46875 251.015625 927.335938 245.523438 925.09375 243.507812 C 920.109375 228.835938 922.070312 219.984375 932.320312 216.960938 Z M 932.320312 216.960938 " transform="matrix(0.5,0,0,0.5,0,0)"/>
<path style="fill-rule:nonzero;fill:rgb(61.176471%,31.764706%,0%);fill-opacity:1;stroke-width:0.944;stroke-linecap:butt;stroke-linejoin:miter;stroke:rgb(0%,0%,0%);stroke-opacity:1;stroke-miterlimit:4;" d="M 895.09375 172.195312 C 895.09375 172.195312 898.578125 172.671875 900.476562 171.5625 C 902.375 170.453125 904.59375 169.984375 906.179688 172.195312 C 907.765625 174.414062 908.875 174.257812 908.875 174.257812 C 908.875 174.257812 906.5 180.117188 908.875 180.75 C 911.25 181.382812 912.359375 181.382812 912.515625 182.179688 C 912.671875 182.96875 910.453125 184.710938 911.09375 185.507812 C 911.726562 186.296875 912.835938 187.25 912.992188 187.882812 C 913.148438 188.515625 911.5625 191.203125 912.039062 191.84375 C 912.515625 192.476562 913.9375 195.007812 914.890625 195.007812 C 915.84375 195.007812 915.210938 198.96875 918.0625 198.015625 C 920.914062 197.070312 920.75 194.53125 920.75 194.53125 C 920.75 194.53125 923.765625 194.054688 924.554688 191.367188 C 925.34375 188.671875 927.25 188.039062 927.25 188.039062 C 927.25 188.039062 931.046875 185.976562 925.976562 182.8125 C 925.976562 160.632812 911.40625 163.015625 911.40625 163.015625 C 911.40625 163.015625 909.664062 159.054688 906.8125 159.523438 C 903.960938 160 903.804688 163.328125 901.742188 163.015625 C 899.6875 162.695312 899.210938 161.265625 899.054688 161.429688 C 898.890625 161.585938 897.148438 164.757812 897.148438 165.546875 C 897.148438 166.335938 891.609375 164.4375 892.078125 168.554688 C 892.554688 172.671875 895.25 172.515625 895.09375 172.195312 Z M 895.09375 172.195312 " transform="matrix(0.5,0,0,0.5,0,0)"/>
<path style="fill:none;stroke-width:0.944;stroke-linecap:butt;stroke-linejoin:miter;stroke:rgb(0%,0%,0%);stroke-opacity:1;stroke-miterlimit:4;" d="M 920.75 208 C 920.75 208 906.65625 217.023438 906.976562 220.195312 M 923.921875 209.578125 C 923.921875 209.578125 920.75 213.0625 920.59375 213.0625 M 928.195312 213.382812 C 928.195312 213.382812 921.226562 219.085938 922.335938 222.726562 M 895.25 207.203125 C 895.25 207.203125 893.1875 211.484375 893.664062 212.90625 C 894.140625 214.335938 897.625 219.71875 898.101562 223.046875 C 898.578125 226.367188 898.101562 228.75 898.101562 228.75 M 891.609375 215.125 C 891.609375 215.125 892.242188 220.195312 893.195312 221.148438 C 894.140625 222.09375 896.679688 226.367188 896.992188 228.117188 M 890.34375 236.195312 C 890.34375 236.195312 894.460938 238.25 898.257812 230.328125 M 904.4375 224.789062 C 904.28125 224.789062 901.429688 232.546875 906.5 235.398438 C 911.5625 238.25 915.367188 237.9375 917.585938 237.140625 C 919.804688 236.351562 922.179688 234.929688 922.179688 234.929688 M 902.21875 234.289062 C 902.21875 234.289062 902.539062 244.75 917.90625 255.039062 M 902.851562 244.109375 C 902.851562 244.109375 902.695312 253.296875 908.710938 257.421875 M 899.6875 233.34375 C 899.6875 233.34375 895.09375 246.960938 891.445312 248.390625 M 898.257812 243.320312 C 898.257812 243.320312 898.101562 253.140625 896.835938 256.625 M 895.570312 259 C 895.570312 259 898.734375 262.960938 902.21875 262.648438 C 905.703125 262.328125 907.132812 258.210938 909.507812 258.84375 C 911.882812 259.476562 914.101562 261.375 919.648438 260.90625 M 911.726562 265.023438 C 911.726562 265.023438 911.726562 273.101562 913.148438 273.890625 C 914.578125 274.679688 913.945312 282.125 913.945312 282.125 M 892.398438 261.21875 C 892.398438 261.21875 892.242188 268.820312 891.289062 271.515625 C 890.34375 274.210938 888.4375 278.804688 888.757812 282.765625 M 882.734375 287.195312 C 883.53125 286.882812 886.21875 284.507812 886.21875 284.507812 M 887.648438 286.25 C 887.648438 286.25 880.835938 315.390625 882.734375 332.820312 M 889.234375 287.671875 C 889.234375 287.671875 885.75 309.53125 887.328125 313.648438 M 887.492188 287.039062 C 887.648438 287.039062 900.796875 287.992188 900.796875 287.992188 M 902.695312 286.25 C 902.695312 286.25 906.335938 288.148438 911.40625 287.828125 M 901.109375 296.859375 C 901.109375 296.859375 900.476562 334.242188 899.53125 342.476562 M 920.59375 305.414062 C 920.59375 305.414062 924.710938 338.203125 927.085938 341.210938 M 912.671875 309.53125 C 912.671875 309.53125 915.210938 338.515625 916.632812 341.054688 M 876.71875 351.1875 C 876.71875 351.1875 881.625 349.609375 886.0625 344.851562 C 891.132812 351.664062 898.890625 345.171875 898.890625 345.171875 C 898.890625 345.171875 910.929688 353.40625 916.320312 344.21875 C 924.554688 349.609375 928.671875 343.429688 928.671875 343.429688 C 928.671875 343.429688 931.679688 348.023438 933.898438 347.546875 M 920.75 350.71875 C 920.75 350.71875 926.929688 379.703125 936.117188 387.9375 M 888.914062 347.703125 C 888.914062 347.703125 889.703125 371.9375 891.132812 389.046875 M 887.804688 375.109375 C 887.804688 375.109375 887.015625 390.953125 886.0625 392.0625 M 878.460938 393.640625 C 878.460938 393.640625 880.203125 400.453125 888.914062 394.117188 C 897.625 387.78125 897.78125 396.492188 898.101562 397.445312 C 898.421875 398.390625 899.84375 405.203125 903.171875 399.5 M 910.140625 390.15625 C 910.140625 390.15625 908.71875 404.257812 921.226562 393.960938 C 933.742188 383.664062 935.804688 393.804688 936.117188 396.96875 M 910.296875 166.8125 C 910.296875 166.8125 909.1875 173.78125 916.632812 173.148438 C 915.6875 176.953125 918.53125 178.21875 918.53125 178.21875 M 924.078125 182.492188 C 924.242188 182.492188 927.40625 184.554688 923.921875 187.085938 M 913.3125 188.039062 C 913.3125 188.039062 914.890625 189.9375 916.632812 189.46875 C 918.375 188.992188 921.226562 191.203125 921.226562 191.203125 C 921.226562 191.203125 923.601562 192 923.921875 191.523438 M 903.648438 194.054688 C 903.648438 194.054688 909.03125 196.117188 912.515625 187.5625 M 893.664062 185.03125 L 896.835938 185.1875 M 858.523438 284.921875 L 858.773438 291.867188 M 852.015625 284.40625 C 852.015625 284.40625 856.460938 291.851562 856.09375 295.820312 " transform="matrix(0.5,0,0,0.5,0,0)"/>
<path style="fill:none;stroke-width:0.944;stroke-linecap:butt;stroke-linejoin:round;stroke:rgb(0%,0%,0%);stroke-opacity:1;stroke-miterlimit:4;" d="M 894.140625 188.195312 L 896.992188 188.195312 L 894.460938 189.304688 M 911.664062 299.960938 C 911.664062 299.960938 914.992188 299.609375 914.890625 305.171875 C 917.015625 298.265625 921.335938 298.101562 921.335938 298.101562 " transform="matrix(0.5,0,0,0.5,0,0)"/>
<path style="fill:none;stroke-width:1.699;stroke-linecap:butt;stroke-linejoin:round;stroke:rgb(0%,0%,0%);stroke-opacity:1;stroke-miterlimit:4;" d="M 898.101562 179.328125 C 898.578125 179.328125 900.320312 178.695312 900.632812 179.171875 C 900.953125 179.640625 898.734375 179.960938 898.101562 179.328125 Z M 898.101562 179.328125 " transform="matrix(0.5,0,0,0.5,0,0)"/>
<path style="fill-rule:nonzero;fill:rgb(100%,78.039216%,17.254902%);fill-opacity:1;stroke-width:1.887;stroke-linecap:butt;stroke-linejoin:miter;stroke:rgb(0%,0%,0%);stroke-opacity:1;stroke-miterlimit:4;" d="M 900.296875 458.578125 C 967.195312 456.71875 1010.398438 408.40625 1009.9375 407.9375 C 1009.46875 407.476562 1018.765625 394.46875 1026.195312 396.328125 C 1033.632812 398.1875 1044.3125 420.023438 1057.320312 424.664062 C 1063.828125 434.882812 1055.460938 444.179688 1052.679688 446.03125 C 1049.890625 447.890625 1037.34375 453.007812 1035.484375 445.570312 C 1033.632812 438.140625 1029.914062 439.53125 1029.914062 439.53125 C 1029.914062 439.53125 970.445312 497.601562 901.695312 495.28125 C 830.617188 495.742188 772.078125 439.53125 772.078125 439.53125 L 766.96875 445.109375 C 766.96875 445.109375 761.390625 451.148438 758.609375 450.679688 C 755.820312 450.21875 743.742188 442.320312 742.8125 434.421875 C 741.882812 426.523438 750.242188 421.414062 750.242188 421.414062 C 750.242188 421.414062 770.6875 405.617188 773.007812 397.257812 C 777.65625 392.609375 786.484375 400.507812 786.484375 400.507812 C 786.484375 400.507812 840.367188 462.296875 900.296875 458.578125 Z M 900.296875 458.578125 " transform="matrix(0.5,0,0,0.5,0,0)"/>
<path style="fill:none;stroke-width:1.887;stroke-linecap:butt;stroke-linejoin:miter;stroke:rgb(0%,0%,0%);stroke-opacity:1;stroke-miterlimit:4;" d="M 748.851562 422.648438 C 748.851562 422.648438 754.382812 421.171875 756.40625 423.476562 C 758.4375 425.78125 772.351562 439.414062 772.351562 439.414062 " transform="matrix(0.5,0,0,0.5,0,0)"/>
<path style="fill:none;stroke-width:1.887;stroke-linecap:butt;stroke-linejoin:miter;stroke:rgb(0%,0%,0%);stroke-opacity:1;stroke-miterlimit:4;" d="M 761.476562 429.09375 L 755.945312 433.242188 C 755.945312 433.242188 769.859375 436.007812 766.726562 445.125 M 1052.34375 422.1875 C 1052.34375 422.1875 1049.578125 420.710938 1045.242188 423.9375 C 1040.914062 427.15625 1029.953125 439.414062 1029.953125 439.414062 " transform="matrix(0.5,0,0,0.5,0,0)"/>
<path style="fill:none;stroke-width:1.887;stroke-linecap:butt;stroke-linejoin:miter;stroke:rgb(0%,0%,0%);stroke-opacity:1;stroke-miterlimit:4;" d="M 1039.898438 428.726562 L 1045.890625 433.335938 C 1045.890625 433.335938 1033.359375 434.164062 1036.125 446.046875 " transform="matrix(0.5,0,0,0.5,0,0)"/>
<path style=" stroke:none;fill-rule:nonzero;fill:rgb(0%,0%,0%);fill-opacity:1;" d="M 409.832031 218.699219 C 409.652344 219.222656 409.171875 218.683594 408.773438 218.789062 C 407.726562 218.828125 406.855469 219.511719 405.960938 219.976562 L 396.757812 225.34375 C 396.445312 225.242188 396.519531 224.992188 396.59375 224.742188 C 397.414062 220.910156 398.261719 217.085938 399.058594 213.246094 C 399.191406 212.578125 399.402344 211.742188 398.753906 211.253906 C 398.480469 211.066406 398.90625 210.683594 399.082031 211.03125 L 403.785156 214.386719 C 403.636719 214.828125 403.367188 214.519531 403.101562 214.339844 C 402.449219 213.714844 401.664062 214.292969 401.683594 215.082031 C 401.125 217.609375 400.578125 220.136719 400.023438 222.664062 C 402.105469 221.429688 404.214844 220.230469 406.277344 218.960938 C 407.015625 218.632812 407.558594 217.644531 406.792969 217.03125 C 406.5 216.859375 406.019531 216.390625 406.5 216.320312 Z M 413.136719 234.691406 C 413.054688 234.976562 412.90625 235.039062 412.675781 234.835938 L 407.140625 231.804688 C 407.222656 231.519531 407.371094 231.457031 407.601562 231.664062 C 408.101562 232.003906 408.917969 232.132812 409.28125 231.535156 C 410.015625 230.359375 410.632812 229.117188 411.3125 227.910156 C 412.234375 226.199219 413.195312 224.507812 414.089844 222.785156 C 414.519531 222.175781 414.042969 221.421875 413.441406 221.160156 C 413.238281 221.050781 412.941406 220.96875 413.199219 220.726562 C 413.320312 220.574219 413.582031 220.898438 413.761719 220.9375 L 419.070312 223.84375 C 418.988281 224.128906 418.835938 224.191406 418.609375 223.984375 C 418.109375 223.644531 417.289062 223.515625 416.917969 224.109375 C 416.1875 225.28125 415.570312 226.527344 414.890625 227.734375 C 413.96875 229.445312 413.003906 231.132812 412.109375 232.859375 C 411.683594 233.472656 412.160156 234.230469 412.765625 234.488281 Z M 434.441406 229.695312 L 432.9375 233.914062 C 432.324219 233.851562 432.730469 233.0625 432.539062 232.644531 C 432.320312 230.746094 430.917969 228.972656 429.011719 228.566406 C 427.550781 228.167969 426.011719 228.917969 425.152344 230.105469 C 423.859375 231.875 423.070312 234.03125 422.960938 236.222656 C 422.886719 237.46875 423.457031 238.746094 424.542969 239.402344 C 425.40625 239.96875 426.453125 240.199219 427.476562 240.171875 C 427.835938 239.105469 428.269531 238.0625 428.570312 236.980469 C 428.691406 236.273438 427.964844 235.851562 427.382812 235.6875 C 427.292969 235.484375 427.515625 235.234375 427.753906 235.453125 L 433.273438 237.417969 C 433.207031 238.097656 432.441406 237.363281 432.015625 237.636719 C 431.335938 237.894531 431.277344 238.714844 431.019531 239.304688 L 430.347656 241.191406 C 427.875 241.367188 425.324219 240.84375 423.171875 239.597656 C 421.078125 238.28125 419.664062 235.734375 420.078125 233.238281 C 420.394531 231.101562 421.726562 229.101562 423.699219 228.15625 C 425.507812 227.195312 427.714844 227.199219 429.59375 227.960938 C 430.621094 228.304688 431.511719 228.941406 432.304688 229.664062 C 432.789062 230.316406 433.71875 230.316406 434.117188 229.578125 L 434.441406 229.695312 M 443.417969 244.101562 C 443.40625 244.324219 443.382812 244.53125 443.113281 244.40625 L 436.792969 243.449219 C 436.804688 243.222656 436.832031 243.019531 437.097656 243.144531 C 437.648438 243.253906 438.382812 243.246094 438.644531 242.65625 C 438.914062 241.8125 438.964844 240.917969 439.121094 240.046875 C 439.480469 237.621094 439.867188 235.195312 440.214844 232.765625 C 440.347656 232.238281 440.167969 231.648438 439.625 231.445312 C 439.320312 231.300781 438.976562 231.277344 438.644531 231.222656 C 438.65625 230.996094 438.683594 230.792969 438.949219 230.917969 L 445.269531 231.875 C 445.257812 232.097656 445.234375 232.304688 444.964844 232.179688 C 444.414062 232.066406 443.683594 232.082031 443.410156 232.664062 C 443.140625 233.511719 443.089844 234.402344 442.933594 235.273438 C 442.574219 237.703125 442.1875 240.125 441.839844 242.558594 C 441.707031 243.078125 441.886719 243.683594 442.433594 243.882812 C 442.742188 244.023438 443.085938 244.046875 443.417969 244.101562 Z M 460.476562 239.957031 L 460.226562 244.4375 L 448.953125 245.011719 C 448.886719 244.738281 448.960938 244.59375 449.257812 244.652344 C 449.824219 244.664062 450.554688 244.425781 450.625 243.773438 C 450.675781 242.660156 450.550781 241.546875 450.511719 240.433594 C 450.390625 238.214844 450.304688 235.992188 450.160156 233.773438 C 450.222656 233.109375 449.625 232.621094 449 232.640625 C 448.800781 232.539062 448.261719 232.847656 448.316406 232.484375 C 448.222656 232.191406 448.632812 232.347656 448.804688 232.292969 L 455.074219 231.972656 C 455.144531 232.246094 455.070312 232.390625 454.773438 232.335938 C 454.195312 232.332031 453.441406 232.472656 453.28125 233.125 C 453.1875 234.089844 453.324219 235.058594 453.347656 236.023438 C 453.476562 238.335938 453.566406 240.652344 453.71875 242.960938 C 453.671875 243.566406 454.15625 244.101562 454.785156 243.984375 C 455.699219 243.941406 456.632812 243.980469 457.527344 243.75 C 458.78125 243.414062 459.464844 242.175781 459.808594 241.015625 C 460.03125 240.699219 459.847656 239.917969 460.34375 239.964844 L 460.476562 239.957031 M 469.265625 229.109375 C 468.964844 229.113281 469.097656 229.496094 469.023438 229.695312 C 468.523438 233.433594 468.050781 237.175781 467.535156 240.910156 C 467.410156 241.738281 467.203125 242.707031 466.386719 243.125 C 466.085938 243.230469 466.351562 243.707031 466.625 243.441406 L 470.390625 242.3125 C 470.34375 241.679688 469.621094 242.253906 469.214844 242.144531 C 468.351562 242.140625 468.222656 241.09375 468.34375 240.4375 L 468.5 239.109375 L 472.8125 237.8125 C 473.363281 238.503906 473.96875 239.15625 474.46875 239.890625 C 474.839844 240.59375 473.933594 240.917969 473.40625 241.050781 C 473.160156 241.078125 473.375 241.59375 473.597656 241.355469 L 479.265625 239.65625 C 479.25 239.015625 478.425781 239.617188 478.082031 239.1875 C 477.019531 238.390625 476.257812 237.28125 475.382812 236.300781 Z M 469.234375 233.59375 L 472.296875 237.25 L 468.625 238.34375 Z M 488.550781 220.691406 L 490.179688 223.71875 C 489.671875 224.15625 489.410156 223.144531 488.949219 222.992188 C 488.195312 222.355469 487.058594 222.238281 486.222656 222.773438 C 485.878906 222.953125 485.539062 223.140625 485.195312 223.324219 C 486.835938 226.355469 488.453125 229.402344 490.105469 232.429688 C 490.359375 233.203125 491.3125 233.351562 491.929688 232.914062 C 492.167969 232.738281 492.382812 232.640625 492.457031 233.007812 C 491.625 233.488281 490.71875 233.949219 489.855469 234.421875 L 486.601562 236.171875 C 486.347656 235.90625 486.515625 235.769531 486.804688 235.667969 C 487.574219 235.382812 487.871094 234.445312 487.355469 233.785156 C 485.753906 230.773438 484.125 227.773438 482.511719 224.765625 C 481.617188 225.261719 480.46875 225.710938 480.242188 226.832031 C 479.988281 227.535156 480.363281 228.398438 480.363281 228.996094 C 480.085938 229.285156 480.011719 228.894531 479.886719 228.6875 L 478.492188 226.097656 Z M 496.175781 216.167969 L 499.292969 220.300781 C 500.015625 219.839844 500.617188 219.019531 500.402344 218.125 C 500.484375 217.421875 499.484375 216.628906 499.828125 216.136719 C 500.054688 215.996094 500.1875 216.523438 500.375 216.660156 L 503.933594 221.378906 C 503.46875 221.90625 503.132812 220.828125 502.640625 220.714844 C 501.949219 220.21875 500.976562 219.972656 500.230469 220.515625 C 499.675781 220.691406 499.703125 221.003906 500.082031 221.34375 C 500.914062 222.421875 501.691406 223.550781 502.582031 224.582031 C 503.128906 225.113281 503.804688 224.558594 504.269531 224.191406 C 505.460938 223.378906 506.511719 222.109375 506.449219 220.585938 C 506.527344 219.921875 506.109375 219.179688 506.113281 218.617188 C 506.382812 218.261719 506.457031 218.816406 506.609375 218.996094 L 508.292969 222.035156 L 499.519531 228.652344 C 499.140625 228.382812 499.515625 228.222656 499.753906 228.039062 C 500.574219 227.53125 500.3125 226.5 499.710938 225.929688 C 497.835938 223.464844 495.996094 220.96875 494.097656 218.519531 C 493.613281 217.859375 492.714844 218.207031 492.226562 218.667969 C 492.023438 218.957031 491.703125 218.378906 492.089844 218.335938 L 500.359375 212.09375 L 502.625 215.097656 C 502.101562 215.628906 501.636719 214.445312 501.035156 214.382812 C 499.949219 213.816406 498.660156 214.273438 497.761719 214.988281 C 497.222656 215.367188 496.703125 215.773438 496.175781 216.167969 "/>
</g>
</svg>
