<?xml version="1.0" encoding="UTF-8"?>
<svg xmlns="http://www.w3.org/2000/svg" xmlns:xlink="http://www.w3.org/1999/xlink" width="px" height="px" viewBox="0 0 637 425" version="1.1">
<g id="surface1">
<rect x="0" y="0" width="637" height="425" style="fill:rgb(100%,100%,100%);fill-opacity:1;stroke:none;"/>
<path style="fill-rule:nonzero;fill:rgb(21.176471%,58.039216%,26.27451%);fill-opacity:1;stroke-width:3;stroke-linecap:butt;stroke-linejoin:miter;stroke:rgb(0.392157%,0%,0.784314%);stroke-opacity:1;stroke-miterlimit:10;" d="M 1885.93846 1567.626 C 1885.93846 1567.626 1884.898582 1560.633812 1898.17462 1555.508812 C 1911.450657 1550.383812 1912.482717 1531.274437 1909.832201 1518.540062 C 1909.832201 1518.540062 1902.897074 1530.649437 1894.492044 1534.6885 C 1894.492044 1534.6885 1880.770344 1541.836937 1880.144854 1555.485375 C 1880.144854 1555.485375 1880.035393 1560.477562 1879.003334 1564.360375 C 1878.440392 1566.485375 1872.365315 1547.274437 1883.866523 1532.985375 C 1895.743025 1518.235375 1899.058125 1506.266625 1889.621036 1482.96975 C 1889.621036 1482.96975 1888.737531 1497.102562 1879.441177 1505.180687 C 1870.152642 1513.258812 1868.972028 1513.876 1869.120582 1533.141625 C 1869.120582 1533.141625 1869.269136 1539.821312 1865.727296 1541.993187 C 1865.727296 1541.993187 1858.50288 1531.430687 1856.579496 1524.4385 C 1854.663931 1517.446312 1853.780426 1514.501 1862.036902 1506.422875 C 1862.036902 1506.422875 1888.502972 1489.321312 1869.41769 1451.899437 C 1869.41769 1451.899437 1868.823474 1464.790062 1859.683493 1472.399437 C 1850.535693 1480.016625 1851.270645 1485.141625 1850.832802 1498.34475 C 1850.387139 1511.547875 1849.503634 1510.618187 1848.471575 1512.477562 C 1848.471575 1512.477562 1831.653697 1481.571312 1844.632626 1465.102562 C 1857.611556 1448.633812 1864.843791 1445.21975 1850.535693 1414.618187 C 1850.535693 1414.618187 1851.169003 1430.305687 1839.714706 1438.071312 C 1828.26041 1445.84475 1830.918745 1464.016625 1830.918745 1464.016625 C 1830.918745 1464.016625 1831.653697 1470.852562 1829.300288 1475.821312 C 1829.300288 1475.821312 1813.092264 1444.21975 1828.557518 1427.204125 C 1841.685002 1412.758812 1842.568507 1402.65725 1835.492645 1382.15725 C 1835.492645 1382.15725 1834.60914 1391.633812 1827.376905 1396.758812 C 1820.152489 1401.883812 1814.397975 1407.008812 1815.727143 1426.735375 C 1815.727143 1426.735375 1816.321359 1440.555687 1814.546529 1444.4385 C 1814.546529 1444.4385 1807.759956 1431.860375 1805.844391 1423.626 C 1803.928827 1415.391625 1803.193875 1410.579125 1808.205618 1402.34475 C 1813.217362 1394.110375 1833.131418 1370.501 1809.386232 1336.485375 C 1809.386232 1336.485375 1808.65128 1347.516625 1802.599659 1357.454125 C 1796.555856 1367.399437 1799.354927 1379.204125 1800.684094 1388.211937 C 1802.013262 1397.21975 1797.587916 1405.922875 1797.587916 1405.922875 C 1797.587916 1405.922875 1787.259503 1386.96975 1789.472176 1365.21975 C 1791.684848 1343.477562 1782.834157 1325.610375 1762.779365 1312.71975 C 1762.779365 1312.71975 1748.17416 1346.579125 1768.088216 1363.821312 C 1768.088216 1363.821312 1785.04683 1380.602562 1789.323622 1400.946312 C 1789.323622 1400.946312 1776.493246 1399.704125 1764.843484 1377.024437 C 1753.193722 1354.352562 1729.002874 1357.922875 1727.376598 1357.766625 C 1727.376598 1357.766625 1731.364101 1392.868187 1768.533878 1402.8135 C 1768.533878 1402.8135 1792.279065 1406.852562 1796.70441 1424.251 C 1796.70441 1424.251 1800.684094 1436.211937 1802.31037 1442.579125 C 1802.31037 1442.579125 1794.788845 1439.626 1787.853719 1429.376 C 1780.918592 1419.126 1781.802097 1417.883812 1758.354019 1415.547875 C 1758.354019 1415.547875 1748.909111 1414.461937 1743.897368 1407.78225 C 1743.897368 1407.78225 1753.780119 1444.90725 1779.151581 1444.59475 C 1779.151581 1444.59475 1802.302551 1442.110375 1815.281481 1472.555687 C 1815.281481 1472.555687 1812.779518 1471.008812 1809.386232 1468.672875 C 1805.992945 1466.34475 1797.439362 1461.993187 1780.47293 1464.016625 C 1763.514316 1466.03225 1758.791863 1463.235375 1754.515071 1461.836937 C 1754.515071 1461.836937 1771.622238 1493.21975 1795.813086 1483.899437 C 1820.003935 1474.579125 1831.684971 1508.5635 1831.950805 1509.211937 C 1831.950805 1509.211937 1828.706072 1506.727562 1824.42928 1502.53225 C 1820.152489 1498.34475 1811.270522 1493.172875 1794.491737 1498.493187 C 1794.491737 1498.493187 1782.396313 1503.15725 1770.152335 1499.430687 C 1770.152335 1499.430687 1781.950651 1522.258812 1809.534786 1518.376 C 1837.111102 1514.493187 1844.046229 1538.727562 1844.046229 1538.727562 C 1844.046229 1538.727562 1840.355834 1536.555687 1837.853872 1534.53225 C 1835.344091 1532.516625 1826.047737 1527.235375 1806.1415 1533.133812 C 1786.227443 1539.040062 1779.003027 1532.204125 1779.003027 1532.204125 C 1779.003027 1532.204125 1790.066392 1552.399437 1811.301797 1554.727562 C 1811.301797 1554.727562 1823.100113 1554.571312 1828.119675 1552.704125 C 1833.131418 1550.84475 1846.407456 1547.891625 1855.547437 1561.09475 C 1855.547437 1561.09475 1853.045474 1561.5635 1849.206526 1559.852562 C 1849.206526 1559.852562 1835.046983 1554.727562 1824.280726 1563.735375 C 1824.280726 1563.735375 1814.695083 1573.524437 1801.121938 1571.65725 C 1801.121938 1571.65725 1818.674767 1588.743187 1846.548191 1574.297875 C 1846.548191 1574.297875 1855.993099 1567.461937 1862.920407 1572.743187 C 1869.855534 1578.03225 1885.93846 1567.626 1885.93846 1567.626 Z M 1885.93846 1567.626 " transform="matrix(0.499608,0,0,0.5,-743.510896,-496.063)"/>
<path style="fill-rule:nonzero;fill:rgb(95.686275%,77.254902%,23.921569%);fill-opacity:1;stroke-width:3;stroke-linecap:butt;stroke-linejoin:miter;stroke:rgb(0.392157%,0%,0.784314%);stroke-opacity:1;stroke-miterlimit:10;" d="M 2041.099218 1146.672875 C 2041.099218 1146.672875 2037.862304 1117.758812 2060.966362 1114.977562 C 2085.055568 1112.079125 2096.955526 1117.15725 2096.955526 1117.15725 L 2107.768695 1138.383812 L 2104.031389 1152.672875 L 2089.082164 1159.508812 C 2089.082164 1159.508812 2091.638857 1137.555687 2071.513697 1137.102562 C 2066.415949 1136.985375 2063.421413 1139.008812 2055.352584 1137.727562 C 2047.244663 1136.4385 2042.905322 1145.352562 2041.099218 1146.672875 Z M 2041.099218 1146.672875 " transform="matrix(0.499608,0,0,0.5,-743.510896,-496.063)"/>
<path style="fill-rule:nonzero;fill:rgb(95.686275%,77.254902%,23.921569%);fill-opacity:1;stroke-width:3;stroke-linecap:butt;stroke-linejoin:miter;stroke:rgb(0.392157%,0%,0.784314%);stroke-opacity:1;stroke-miterlimit:10;" d="M 2203.640764 1218.227562 C 2200.200565 1222.680687 2186.431954 1224.235375 2186.431954 1224.235375 C 2186.431954 1224.235375 2200.591497 1235.102562 2206.69003 1250.641625 C 2212.780745 1266.172875 2042.576939 1250.743187 2042.576939 1250.743187 C 2042.576939 1250.743187 2049.949909 1245.461937 2054.961653 1235.516625 C 2054.961653 1235.516625 2047.440128 1238.3135 2039.918604 1230.860375 C 2039.918604 1230.860375 2045.524563 1232.71975 2052.897534 1221.540062 C 2052.897534 1221.540062 2063.812344 1207.555687 2071.482423 1203.829125 C 2071.482423 1203.829125 2067.940582 1206.008812 2059.386998 1201.34475 C 2059.386998 1201.34475 2074.140758 1199.485375 2079.449609 1174.321312 C 2079.449609 1174.321312 2080.333114 1168.727562 2085.939074 1160.649437 C 2091.545033 1152.571312 2090.364419 1162.204125 2100.685014 1149.774437 C 2100.685014 1149.774437 2105.407468 1140.96975 2101.27923 1135.586937 C 2097.150992 1130.204125 2092.725646 1132.172875 2084.07042 1126.993187 C 2075.415195 1121.8135 2071.584065 1118.915062 2074.531689 1110.9385 C 2077.479313 1102.96975 2085.149392 1104.211937 2086.236182 1104.211937 C 2087.315153 1104.211937 2087.90155 1097.274437 2097.346458 1092.508812 C 2106.783547 1087.743187 2131.857901 1089.8135 2135.595207 1091.891625 C 2139.332513 1093.961937 2154.477204 1098.415062 2163.327896 1120.78225 C 2172.170769 1143.149437 2160.966669 1151.53225 2185.055875 1185.297875 C 2185.055875 1185.297875 2175.415501 1187.368187 2169.223144 1185.501 C 2169.223144 1185.501 2181.7095 1207.665062 2203.640764 1218.227562 Z M 2203.640764 1218.227562 " transform="matrix(0.499608,0,0,0.5,-743.510896,-496.063)"/>
<path style="fill:none;stroke-width:3;stroke-linecap:butt;stroke-linejoin:miter;stroke:rgb(0.392157%,0%,0.784314%);stroke-opacity:1;stroke-miterlimit:10;" d="M 2098.331606 1123.836937 C 2078.714657 1122.899437 2086.236182 1104.211937 2086.236182 1104.211937 " transform="matrix(0.499608,0,0,0.5,-743.510896,-496.063)"/>
<path style="fill-rule:nonzero;fill:rgb(95.686275%,77.254902%,23.921569%);fill-opacity:1;stroke-width:3;stroke-linecap:butt;stroke-linejoin:miter;stroke:rgb(0.392157%,0%,0.784314%);stroke-opacity:1;stroke-miterlimit:10;" d="M 2132.397386 1126.399437 C 2132.397386 1126.399437 2128.933732 1124.766625 2126.001745 1120.883812 C 2121.889145 1115.4385 2112.71007 1112.805687 2107.768695 1117.930687 C 2107.768695 1117.930687 2102.749133 1123.524437 2098.331606 1123.836937 C 2098.331606 1123.836937 2103.343349 1125.391625 2106.807003 1128.571312 C 2110.278476 1131.758812 2113.890684 1134.086937 2119.050981 1133.391625 C 2124.211279 1132.6885 2125.024416 1129.96975 2127.456011 1128.34475 C 2129.895424 1126.704125 2132.397386 1126.399437 2132.397386 1126.399437 Z M 2132.397386 1126.399437 " transform="matrix(0.499608,0,0,0.5,-743.510896,-496.063)"/>
<path style="fill-rule:nonzero;fill:rgb(95.686275%,77.254902%,23.921569%);fill-opacity:1;stroke-width:3;stroke-linecap:butt;stroke-linejoin:miter;stroke:rgb(0.392157%,0%,0.784314%);stroke-opacity:1;stroke-miterlimit:4;" d="M 2259.981828 1405.766625 C 2259.981828 1405.766625 2278.269609 1420.680687 2293.609765 1405.766625 C 2293.609765 1405.766625 2299.802122 1413.21975 2312.194654 1411.047875 C 2324.587186 1408.868187 2326.651305 1402.34475 2327.831918 1398.618187 C 2327.831918 1398.618187 2338.543445 1404.868187 2347.589602 1399.930687 C 2356.643578 1394.993187 2356.643578 1387.540062 2356.643578 1387.540062 C 2356.643578 1387.540062 2372.374666 1390.641625 2380.435676 1379.977562 C 2388.496686 1369.3135 2383.586585 1358.751 2379.255063 1357.508812 C 2379.255063 1357.508812 2396.268407 1361.961937 2400.889218 1347.360375 C 2404.82199 1334.930687 2395.971299 1328.516625 2395.971299 1328.516625 C 2395.971299 1328.516625 2431.811909 1328.34475 2446.510938 1317.118187 C 2446.510938 1317.118187 2458.708004 1309.461937 2451.428857 1301.383812 C 2451.428857 1301.383812 2483.680715 1296.204125 2491.749544 1283.360375 C 2491.749544 1283.360375 2495.283566 1279.84475 2494.102952 1273.626 C 2494.102952 1273.626 2493.907486 1270.110375 2490.365646 1269.899437 C 2490.365646 1269.899437 2527.152311 1264.21975 2537.762195 1252.086937 C 2537.762195 1252.086937 2542.87558 1246.493187 2540.318887 1239.040062 C 2540.318887 1239.040062 2539.779402 1237.071312 2538.895896 1235.751 C 2538.895896 1235.751 2572.37528 1228.6885 2588.89605 1213.774437 C 2588.89605 1213.774437 2598.434781 1205.274437 2593.516861 1193.883812 C 2593.516861 1193.883812 2649.466994 1178.5635 2636.488064 1153.915062 C 2636.488064 1153.915062 2662.641389 1145.422875 2654.384913 1121.8135 C 2654.384913 1121.8135 2676.019069 1110.836937 2666.574161 1093.4385 C 2657.543641 1076.790062 2629.803134 1096.34475 2596.949241 1105.430687 C 2596.949241 1105.430687 2508.067029 1133.415062 2464.298326 1140.860375 L 2339.927343 1326.03225 L 2267.354798 1353.985375 Z M 2259.981828 1405.766625 " transform="matrix(0.499608,0,0,0.5,-743.510896,-496.063)"/>
<path style="fill-rule:nonzero;fill:rgb(95.686275%,77.254902%,23.921569%);fill-opacity:1;stroke-width:3;stroke-linecap:butt;stroke-linejoin:miter;stroke:rgb(0.392157%,0%,0.784314%);stroke-opacity:1;stroke-miterlimit:4;" d="M 2259.098322 1269.383812 C 2259.098322 1269.383812 2270.755903 1260.633812 2291.545646 1270.9385 C 2291.545646 1270.9385 2298.543322 1275.758812 2304.055458 1270.477562 C 2308.652814 1266.0635 2309.082838 1257.922875 2302.757565 1253.227562 C 2287.268854 1241.735375 2281.514341 1207.251 2305.118792 1192.954125 C 2305.118792 1192.954125 2339.333127 1172.65725 2464.814356 1140.727562 C 2464.814356 1140.727562 2475.322597 1137.8135 2480.928557 1139.211937 C 2487.105276 1140.751 2491.350794 1146.047875 2492.22648 1150.579125 C 2492.22648 1150.579125 2497.840258 1166.53225 2478.96608 1175.665062 C 2478.96608 1175.665062 2470.443771 1179.5635 2461.655628 1182.086937 C 2461.655628 1182.086937 2471.30382 1180.001 2475.42424 1189.540062 C 2479.357012 1198.65725 2473.64941 1207.977562 2455.955845 1213.977562 C 2455.955845 1213.977562 2451.170842 1215.84475 2444.352995 1217.501 C 2444.352995 1217.501 2459.497686 1221.852562 2452.218539 1234.071312 C 2452.218539 1234.071312 2445.729074 1246.90725 2422.812663 1249.1885 C 2422.812663 1249.1885 2439.927649 1251.055687 2427.832225 1267.3135 C 2427.832225 1267.3135 2422.523374 1276.21975 2405.807138 1279.53225 C 2405.807138 1279.53225 2418.48896 1279.946312 2412.101137 1291.336937 C 2405.705496 1302.727562 2390.662447 1309.149437 2375.869595 1310.180687 C 2375.869595 1310.180687 2367.847678 1310.59475 2362.241719 1309.352562 C 2362.241719 1309.352562 2376.307438 1316.399437 2368.043144 1328.204125 C 2368.043144 1328.204125 2361.95243 1336.586937 2346.706097 1336.172875 C 2346.706097 1336.172875 2350.662325 1349.360375 2339.481681 1354.352562 C 2330.779543 1358.235375 2323.555127 1352.016625 2323.555127 1352.016625 C 2323.555127 1352.016625 2326.502751 1366.15725 2313.820929 1371.126 C 2313.820929 1371.126 2307.4722 1374.383812 2298.035111 1371.126 C 2298.035111 1371.126 2290.810695 1387.28225 2265.142125 1375.9385 C 2239.481374 1364.602562 2259.098322 1269.383812 2259.098322 1269.383812 Z M 2259.098322 1269.383812 " transform="matrix(0.499608,0,0,0.5,-743.510896,-496.063)"/>
<path style="fill:none;stroke-width:3;stroke-linecap:butt;stroke-linejoin:miter;stroke:rgb(0.392157%,0%,0.784314%);stroke-opacity:1;stroke-miterlimit:4;" d="M 2654.384913 1121.8135 C 2654.384913 1121.8135 2614.064227 1145.15725 2488.51263 1168.501 " transform="matrix(0.499608,0,0,0.5,-743.510896,-496.063)"/>
<path style="fill-rule:nonzero;fill:rgb(95.686275%,77.254902%,23.921569%);fill-opacity:1;stroke-width:3;stroke-linecap:butt;stroke-linejoin:miter;stroke:rgb(0.392157%,0%,0.784314%);stroke-opacity:1;stroke-miterlimit:4;" d="M 1934.382706 1534.586937 C 1934.382706 1534.586937 1919.4413 1560.274437 1901.341166 1560.6885 C 1901.341166 1560.6885 1870.22301 1556.899437 1861.41923 1565.03225 C 1855.289422 1570.711937 1849.034516 1575.391625 1846.477823 1589.891625 C 1843.921131 1604.383812 1851.395743 1607.493187 1853.162754 1608.110375 C 1853.162754 1608.110375 1854.538833 1618.46975 1864.765604 1615.774437 C 1864.765604 1615.774437 1865.35982 1626.547875 1883.452135 1621.368187 C 1901.54445 1616.1885 1909.011244 1617.84475 1912.553085 1599.829125 C 1916.094925 1581.8135 1919.363113 1582.102562 1922.58439 1579.946312 C 1926.908093 1577.047875 1935.039471 1574.305687 1941.067636 1570.829125 C 1946.485949 1567.711937 1967.22878 1557.165062 1974.304642 1556.336937 C 1981.388323 1555.508812 1979.808959 1531.6885 1979.808959 1531.6885 L 1961.521178 1531.6885 L 1952.670487 1518.641625 Z M 1934.382706 1534.586937 " transform="matrix(0.499608,0,0,0.5,-743.510896,-496.063)"/>
<path style="fill:none;stroke-width:3;stroke-linecap:butt;stroke-linejoin:miter;stroke:rgb(0.392157%,0%,0.784314%);stroke-opacity:1;stroke-miterlimit:4;" d="M 2636.488064 1153.915062 C 2636.488064 1153.915062 2527.371232 1189.508812 2476.557941 1193.883812 M 2593.516861 1193.883812 C 2593.516861 1193.883812 2529.505719 1213.977562 2454.540673 1226.65725 M 2538.895896 1235.751 C 2538.895896 1235.751 2466.573548 1253.126 2432.046468 1256.008812 " transform="matrix(0.499608,0,0,0.5,-743.510896,-496.063)"/>
<path style="fill:none;stroke-width:3;stroke-linecap:butt;stroke-linejoin:miter;stroke:rgb(0.392157%,0%,0.784314%);stroke-opacity:1;stroke-miterlimit:10;" d="M 2490.365646 1269.899437 C 2490.365646 1269.899437 2429.192667 1282.65725 2413.696138 1284.1885 " transform="matrix(0.499608,0,0,0.5,-743.510896,-496.063)"/>
<path style="fill-rule:nonzero;fill:rgb(0%,50.588235%,77.647059%);fill-opacity:1;stroke-width:3;stroke-linecap:butt;stroke-linejoin:miter;stroke:rgb(0.392157%,0%,0.784314%);stroke-opacity:1;stroke-miterlimit:10;" d="M 2421.51477 1362.9385 L 2424.571855 1460.008812 L 2407.433414 1450.0635 L 2378.903224 1573.243187 L 2367.128364 1564.78225 L 2394.900146 1446.774437 L 2375.533394 1447.126 Z M 2421.51477 1362.9385 " transform="matrix(0.499608,0,0,0.5,-743.510896,-496.063)"/>
<path style="fill:none;stroke-width:3;stroke-linecap:butt;stroke-linejoin:miter;stroke:rgb(0.392157%,0%,0.784314%);stroke-opacity:1;stroke-miterlimit:10;" d="M 2451.428857 1301.383812 C 2451.428857 1301.383812 2406.784467 1308.165062 2389.020535 1307.797875 M 2395.971299 1328.516625 C 2395.971299 1328.516625 2377.925895 1327.665062 2369.247214 1326.227562 M 2379.255063 1357.508812 C 2379.255063 1357.508812 2363.914906 1353.368187 2354.868749 1347.571312 M 2356.643578 1387.540062 C 2356.643578 1387.540062 2344.837444 1382.985375 2339.137661 1370.555687 M 2327.831918 1398.618187 C 2327.831918 1398.618187 2318.684119 1390.4385 2318.097721 1381.329125 " transform="matrix(0.499608,0,0,0.5,-743.510896,-496.063)"/>
<path style="fill-rule:nonzero;fill:rgb(0%,50.588235%,77.647059%);fill-opacity:1;stroke-width:3;stroke-linecap:butt;stroke-linejoin:miter;stroke:rgb(0.392157%,0%,0.784314%);stroke-opacity:1;stroke-miterlimit:10;" d="M 2532.367338 1406.102562 L 2491.804274 1493.321312 L 2481.100567 1476.0635 L 2395.463088 1577.266625 L 2386.19019 1566.883812 L 2471.507105 1466.96975 L 2454.243565 1457.704125 Z M 2532.367338 1406.102562 " transform="matrix(0.499608,0,0,0.5,-743.510896,-496.063)"/>
<path style="fill:none;stroke-width:3;stroke-linecap:butt;stroke-linejoin:miter;stroke:rgb(0.392157%,0%,0.784314%);stroke-opacity:1;stroke-miterlimit:10;" d="M 2293.609765 1405.766625 C 2293.609765 1405.766625 2297.034326 1402.8135 2294.688736 1389.96975 " transform="matrix(0.499608,0,0,0.5,-743.510896,-496.063)"/>
<path style="fill-rule:nonzero;fill:rgb(0%,50.588235%,77.647059%);fill-opacity:1;stroke-width:3;stroke-linecap:butt;stroke-linejoin:miter;stroke:rgb(0.392157%,0%,0.784314%);stroke-opacity:1;stroke-miterlimit:10;" d="M 2495.369571 1342.079125 L 2474.470367 1436.672875 L 2460.357735 1422.399437 L 2383.711683 1569.78225 L 2371.89773 1562.891625 L 2449.06763 1415.805687 L 2430.271638 1410.868187 Z M 2495.369571 1342.079125 " transform="matrix(0.499608,0,0,0.5,-743.510896,-496.063)"/>
<path style="fill:none;stroke-width:3;stroke-linecap:butt;stroke-linejoin:miter;stroke:rgb(0.392157%,0%,0.784314%);stroke-opacity:1;stroke-miterlimit:10;" d="M 2298.035111 1371.126 C 2298.035111 1371.126 2299.802122 1367.446312 2299.215724 1361.649437 " transform="matrix(0.499608,0,0,0.5,-743.510896,-496.063)"/>
<path style="fill-rule:nonzero;fill:rgb(95.686275%,77.254902%,23.921569%);fill-opacity:1;stroke-width:3;stroke-linecap:butt;stroke-linejoin:miter;stroke:rgb(0.392157%,0%,0.784314%);stroke-opacity:1;stroke-miterlimit:4;" d="M 1991.98257 1405.766625 C 1991.98257 1405.766625 1973.694789 1420.680687 1958.354632 1405.766625 C 1958.354632 1405.766625 1952.162276 1413.21975 1939.769743 1411.047875 C 1927.38503 1408.868187 1925.320911 1402.34475 1924.140298 1398.618187 C 1924.140298 1398.618187 1913.420953 1404.876 1904.374795 1399.930687 C 1895.328638 1394.993187 1895.328638 1387.540062 1895.328638 1387.540062 C 1895.328638 1387.540062 1879.59755 1390.641625 1871.528721 1379.977562 C 1863.467711 1369.3135 1868.385631 1358.751 1872.709335 1357.508812 C 1872.709335 1357.508812 1855.703809 1361.961937 1851.075179 1347.360375 C 1847.142407 1334.930687 1855.993099 1328.516625 1855.993099 1328.516625 C 1855.993099 1328.516625 1820.152489 1328.34475 1805.45346 1317.118187 C 1805.45346 1317.118187 1793.256394 1309.461937 1800.53554 1301.383812 C 1800.53554 1301.383812 1768.283682 1296.204125 1760.222672 1283.360375 C 1760.222672 1283.360375 1756.680832 1279.84475 1757.861445 1273.626 C 1757.861445 1273.626 1758.056911 1270.110375 1761.598752 1269.899437 C 1761.598752 1269.899437 1724.819905 1264.21975 1714.202203 1252.086937 C 1714.202203 1252.086937 1709.088817 1246.493187 1711.64551 1239.040062 C 1711.64551 1239.040062 1712.184996 1237.071312 1713.068501 1235.751 C 1713.068501 1235.751 1679.589118 1228.6885 1663.068348 1213.774437 C 1663.068348 1213.774437 1653.537435 1205.274437 1658.447536 1193.883812 C 1658.447536 1193.883812 1602.497404 1178.5635 1615.476333 1153.915062 C 1615.476333 1153.915062 1589.323008 1145.422875 1597.579484 1121.8135 C 1597.579484 1121.8135 1575.953147 1110.836937 1585.390236 1093.4385 C 1594.420757 1076.790062 1622.169082 1096.34475 1655.015157 1105.430687 C 1655.015157 1105.430687 1743.897368 1133.415062 1787.67389 1140.860375 L 1912.044873 1326.03225 L 1984.609599 1353.985375 Z M 1991.98257 1405.766625 " transform="matrix(0.499608,0,0,0.5,-743.510896,-496.063)"/>
<path style="fill:none;stroke-width:3;stroke-linecap:butt;stroke-linejoin:miter;stroke:rgb(0.392157%,0%,0.784314%);stroke-opacity:1;stroke-miterlimit:10;" d="M 2362.538827 1187.266625 C 2362.538827 1187.266625 2341.889819 1195.547875 2335.009423 1206.9385 C 2328.121208 1218.329125 2332.656015 1229.399437 2335.009423 1235.751 C 2336.190036 1238.946312 2350.740511 1267.001 2333.633344 1287.297875 " transform="matrix(0.499608,0,0,0.5,-743.510896,-496.063)"/>
<path style="fill-rule:nonzero;fill:rgb(95.686275%,77.254902%,23.921569%);fill-opacity:1;stroke-width:3;stroke-linecap:butt;stroke-linejoin:miter;stroke:rgb(0.392157%,0%,0.784314%);stroke-opacity:1;stroke-miterlimit:4;" d="M 1992.873894 1269.383812 C 1992.873894 1269.383812 1981.216313 1260.633812 1960.418751 1270.9385 C 1960.418751 1270.9385 1953.421075 1275.758812 1947.916758 1270.477562 C 1943.311584 1266.0635 1942.881559 1257.922875 1949.214651 1253.227562 C 1964.703362 1241.735375 1970.450056 1207.251 1946.853424 1192.961937 C 1946.853424 1192.961937 1912.631271 1172.665062 1787.15786 1140.727562 C 1787.15786 1140.727562 1776.6418 1137.8135 1771.035841 1139.211937 C 1764.86694 1140.751 1760.613604 1146.047875 1759.745736 1150.579125 C 1759.745736 1150.579125 1754.131958 1166.53225 1773.006136 1175.665062 C 1773.006136 1175.665062 1781.528445 1179.5635 1790.308769 1182.086937 C 1790.308769 1182.086937 1780.660577 1180.001 1776.547976 1189.540062 C 1772.615204 1198.65725 1778.314987 1207.977562 1796.016371 1213.977562 C 1796.016371 1213.977562 1800.801374 1215.84475 1807.619221 1217.501 C 1807.619221 1217.501 1792.47453 1221.852562 1799.753677 1234.071312 C 1799.753677 1234.071312 1806.243142 1246.915062 1829.151734 1249.1885 C 1829.151734 1249.1885 1812.044567 1251.055687 1824.139991 1267.3135 C 1824.139991 1267.3135 1829.448842 1276.21975 1846.165078 1279.53225 C 1846.165078 1279.53225 1833.475438 1279.946312 1839.871079 1291.336937 C 1846.258902 1302.727562 1861.30195 1309.149437 1876.102621 1310.180687 C 1876.102621 1310.180687 1884.116719 1310.59475 1889.722678 1309.352562 C 1889.722678 1309.352562 1875.664778 1316.399437 1883.921253 1328.204125 C 1883.921253 1328.204125 1890.019786 1336.59475 1905.258301 1336.180687 C 1905.258301 1336.180687 1901.309891 1349.360375 1912.490536 1354.352562 C 1921.192673 1358.235375 1928.417089 1352.024437 1928.417089 1352.024437 C 1928.417089 1352.024437 1925.469465 1366.15725 1938.151287 1371.126 C 1938.151287 1371.126 1944.492197 1374.391625 1953.937105 1371.126 C 1953.937105 1371.126 1961.161521 1387.28225 1986.822272 1375.9385 C 2012.490842 1364.602562 1992.873894 1269.383812 1992.873894 1269.383812 Z M 1992.873894 1269.383812 " transform="matrix(0.499608,0,0,0.5,-743.510896,-496.063)"/>
<path style="fill:none;stroke-width:3;stroke-linecap:butt;stroke-linejoin:miter;stroke:rgb(0.392157%,0%,0.784314%);stroke-opacity:1;stroke-miterlimit:10;" d="M 2362.241719 1309.352562 C 2362.241719 1309.352562 2362.147895 1309.251 2354.868749 1306.96975 M 2405.807138 1279.53225 C 2405.807138 1279.53225 2393.500611 1282.008812 2381.420824 1282.118187 M 2422.812663 1249.1885 C 2422.812663 1249.1885 2408.363831 1250.641625 2394.790685 1250.430687 M 2444.352995 1217.501 C 2444.352995 1217.501 2423.500703 1221.641625 2412.296603 1221.852562 M 2461.655628 1182.086937 C 2461.655628 1182.086937 2435.947965 1189.422875 2416.815772 1192.024437 M 2374.337143 1207.141625 C 2374.337143 1207.141625 2392.828208 1224.336937 2370.599837 1240.28225 C 2370.599837 1240.28225 2379.84146 1254.78225 2361.358214 1269.899437 " transform="matrix(0.499608,0,0,0.5,-743.510896,-496.063)"/>
<path style="fill-rule:nonzero;fill:rgb(95.686275%,77.254902%,23.921569%);fill-opacity:1;stroke-width:3;stroke-linecap:butt;stroke-linejoin:miter;stroke:rgb(0.392157%,0%,0.784314%);stroke-opacity:1;stroke-miterlimit:4;" d="M 1994.390708 1416.196312 C 1994.390708 1416.196312 1990.629946 1436.415062 1960.77059 1461.868187 C 1960.77059 1461.868187 1937.72908 1482.1885 1938.315478 1505.59475 C 1938.917513 1529.422875 1934.18724 1532.102562 1925.141083 1540.180687 C 1925.141083 1540.180687 1943.827614 1541.633812 1952.873771 1529.204125 C 1952.873771 1529.204125 1952.475021 1549.915062 1949.722862 1551.78225 C 1949.722862 1551.78225 1955.579018 1552.149437 1964.077871 1542.876 C 1964.077871 1542.876 1969.191257 1537.485375 1973.913711 1535.415062 C 1973.913711 1535.415062 1968.409393 1549.704125 1972.733097 1562.961937 C 1972.733097 1562.961937 1974.109176 1557.78225 1981.388323 1555.508812 C 1981.388323 1555.508812 1994.562718 1552.8135 1999.676104 1533.758812 C 1999.676104 1533.758812 2003.01466 1521.126 2023.663668 1509.9385 C 2023.663668 1509.9385 2047.072653 1501.118187 2046.478437 1489.579125 C 2045.892039 1478.047875 1994.390708 1416.196312 1994.390708 1416.196312 Z M 1994.390708 1416.196312 " transform="matrix(0.499608,0,0,0.5,-743.510896,-496.063)"/>
<path style="fill:none;stroke-width:3;stroke-linecap:butt;stroke-linejoin:miter;stroke:rgb(0.392157%,0%,0.784314%);stroke-opacity:1;stroke-miterlimit:10;" d="M 2366.276133 1277.047875 C 2366.276133 1277.047875 2369.028292 1304.6885 2335.204889 1304.696312 C 2335.204889 1304.696312 2341.694353 1329.34475 2309.051564 1328.516625 C 2309.051564 1328.516625 2305.314258 1348.1885 2281.709807 1344.251 " transform="matrix(0.499608,0,0,0.5,-743.510896,-496.063)"/>
<path style="fill-rule:nonzero;fill:rgb(95.686275%,77.254902%,23.921569%);fill-opacity:1;stroke-width:3;stroke-linecap:butt;stroke-linejoin:miter;stroke:rgb(0.392157%,0%,0.784314%);stroke-opacity:1;stroke-miterlimit:4;" d="M 2317.620785 1534.586937 C 2317.620785 1534.586937 2332.562191 1560.274437 2350.654506 1560.6885 C 2350.654506 1560.6885 2381.780481 1556.899437 2390.576442 1565.03225 C 2396.714069 1570.711937 2402.968974 1575.391625 2405.525667 1589.891625 C 2408.08236 1604.383812 2400.607748 1607.493187 2398.840737 1608.110375 C 2398.840737 1608.110375 2397.464657 1618.46975 2387.237886 1615.774437 C 2387.237886 1615.774437 2386.64367 1626.547875 2368.551355 1621.368187 C 2350.45904 1616.1885 2342.984428 1617.84475 2339.442587 1599.829125 C 2335.908566 1581.8135 2332.640377 1582.102562 2329.419101 1579.946312 C 2325.087579 1577.047875 2316.96402 1574.305687 2310.928036 1570.829125 C 2305.509723 1567.711937 2284.774711 1557.165062 2277.698848 1556.336937 C 2270.615168 1555.508812 2272.186713 1531.6885 2272.186713 1531.6885 L 2290.474494 1531.6885 L 2299.325185 1518.641625 Z M 2317.620785 1534.586937 " transform="matrix(0.499608,0,0,0.5,-743.510896,-496.063)"/>
<path style="fill-rule:nonzero;fill:rgb(95.686275%,77.254902%,23.921569%);fill-opacity:1;stroke-width:3;stroke-linecap:butt;stroke-linejoin:miter;stroke:rgb(0.392157%,0%,0.784314%);stroke-opacity:1;stroke-miterlimit:4;" d="M 2257.604964 1416.196312 C 2257.604964 1416.196312 2261.373544 1436.415062 2291.232901 1461.868187 C 2291.232901 1461.868187 2314.27441 1482.1885 2313.688013 1505.59475 C 2313.085978 1529.422875 2317.816251 1532.102562 2326.862408 1540.180687 C 2326.862408 1540.180687 2308.175877 1541.633812 2299.129719 1529.204125 C 2299.129719 1529.204125 2299.52847 1549.915062 2302.280628 1551.78225 C 2302.280628 1551.78225 2296.416654 1552.149437 2287.925619 1542.876 C 2287.925619 1542.876 2282.812234 1537.485375 2278.08978 1535.415062 C 2278.08978 1535.415062 2283.594097 1549.704125 2279.270393 1562.961937 C 2279.270393 1562.961937 2277.894314 1557.78225 2270.615168 1555.508812 C 2270.615168 1555.508812 2257.440772 1552.8135 2252.327387 1533.758812 C 2252.327387 1533.758812 2248.981012 1521.126 2228.332004 1509.9385 C 2228.332004 1509.9385 2204.930838 1501.118187 2205.525054 1489.579125 C 2206.111451 1478.047875 2257.604964 1416.196312 2257.604964 1416.196312 Z M 2257.604964 1416.196312 " transform="matrix(0.499608,0,0,0.5,-743.510896,-496.063)"/>
<path style="fill:none;stroke-width:3;stroke-linecap:butt;stroke-linejoin:miter;stroke:rgb(0.392157%,0%,0.784314%);stroke-opacity:1;stroke-miterlimit:4;" d="M 2333.695893 1560.6885 C 2333.695893 1560.6885 2339.043837 1561.876 2350.654506 1560.6885 " transform="matrix(0.499608,0,0,0.5,-743.510896,-496.063)"/>
<path style="fill:none;stroke-width:3;stroke-linecap:butt;stroke-linejoin:miter;stroke:rgb(0.392157%,0%,0.784314%);stroke-opacity:1;stroke-miterlimit:10;" d="M 2383.305114 1575.180687 C 2383.305114 1575.180687 2399.6226 1572.696312 2398.840737 1608.110375 M 2373.469275 1583.258812 C 2373.469275 1583.258812 2388.223034 1581.399437 2387.237886 1615.774437 " transform="matrix(0.499608,0,0,0.5,-743.510896,-496.063)"/>
<path style="fill:none;stroke-width:3;stroke-linecap:butt;stroke-linejoin:miter;stroke:rgb(0.392157%,0%,0.784314%);stroke-opacity:1;stroke-miterlimit:4;" d="M 2231.084163 1500.415062 C 2231.084163 1500.415062 2238.167844 1501.868187 2243.085763 1507.454125 C 2248.003683 1513.047875 2257.440772 1512.016625 2257.440772 1512.016625 C 2257.440772 1512.016625 2252.327387 1507.868187 2250.560376 1497.516625 C 2248.785546 1487.15725 2243.085763 1484.055687 2243.085763 1484.055687 M 2259.974009 1474.243187 C 2259.974009 1474.243187 2267.05769 1475.696312 2271.967791 1481.290062 C 2276.885711 1486.883812 2286.3228 1485.84475 2286.3228 1485.84475 C 2286.3228 1485.84475 2281.209414 1481.704125 2279.442403 1471.34475 C 2277.675393 1460.993187 2271.967791 1457.883812 2271.967791 1457.883812 M 2264.845017 1514.446312 C 2264.845017 1514.446312 2271.021736 1515.711937 2275.314166 1520.59475 C 2279.606595 1525.477562 2287.847433 1524.571312 2287.847433 1524.571312 C 2287.847433 1524.571312 2283.382994 1520.954125 2281.842724 1511.915062 C 2280.294634 1502.876 2275.314166 1500.165062 2275.314166 1500.165062 " transform="matrix(0.499608,0,0,0.5,-743.510896,-496.063)"/>
<path style="fill-rule:nonzero;fill:rgb(95.686275%,77.254902%,23.921569%);fill-opacity:1;stroke-width:3;stroke-linecap:butt;stroke-linejoin:miter;stroke:rgb(0.392157%,0%,0.784314%);stroke-opacity:1;stroke-miterlimit:10;" d="M 2149.137078 1676.876 C 2149.137078 1676.876 2154.50066 1700.53225 2173.132461 1698.618187 C 2173.132461 1698.618187 2186.306856 1697.376 2185.321708 1675.422875 C 2185.321708 1675.422875 2204.790103 1685.78225 2207.941011 1660.102562 C 2207.941011 1660.102562 2225.634576 1664.243187 2225.43911 1640.21975 C 2225.43911 1640.21975 2241.95988 1643.118187 2239.997404 1621.78225 C 2239.997404 1621.78225 2257.886434 1626.547875 2257.886434 1606.454125 C 2257.886434 1606.454125 2299.778666 1599.508812 2212.460181 1519.883812 L 2134.586604 1566.274437 Z M 2149.137078 1676.876 " transform="matrix(0.499608,0,0,0.5,-743.510896,-496.063)"/>
<path style="fill-rule:nonzero;fill:rgb(95.686275%,77.254902%,23.921569%);fill-opacity:1;stroke-width:3;stroke-linecap:butt;stroke-linejoin:miter;stroke:rgb(0.392157%,0%,0.784314%);stroke-opacity:1;stroke-miterlimit:4;" d="M 2140.481852 1570.711937 C 2140.481852 1570.711937 2153.460782 1582.227562 2162.702405 1565.03225 C 2162.702405 1565.03225 2175.290403 1564.415062 2177.260698 1554.883812 C 2177.260698 1554.883812 2187.487469 1553.852562 2189.449946 1544.118187 C 2189.449946 1544.118187 2203.414023 1542.665062 2203.023092 1530.860375 C 2203.023092 1530.860375 2228.402372 1528.899437 2203.03091 1500.15725 C 2177.65163 1471.422875 2134.586604 1547.84475 2134.586604 1547.84475 Z M 2140.481852 1570.711937 " transform="matrix(0.499608,0,0,0.5,-743.510896,-496.063)"/>
<path style="fill:none;stroke-width:3;stroke-linecap:butt;stroke-linejoin:miter;stroke:rgb(0.392157%,0%,0.784314%);stroke-opacity:1;stroke-miterlimit:10;" d="M 2185.321708 1675.422875 C 2185.321708 1675.422875 2183.351413 1633.797875 2147.276244 1574.149437 M 2207.941011 1660.102562 C 2207.941011 1660.102562 2213.539152 1636.071312 2162.702405 1565.03225 C 2162.702405 1565.03225 2168.605472 1548.055687 2150.513157 1537.180687 M 2225.43911 1640.21975 C 2225.43911 1640.21975 2227.010655 1614.21975 2177.260698 1554.883812 C 2177.260698 1554.883812 2181.65477 1539.5635 2163.625004 1527.336937 M 2239.989585 1621.78225 C 2239.989585 1621.78225 2238.128751 1595.477562 2189.449946 1544.118187 C 2189.449946 1544.118187 2191.889359 1528.376 2174.445991 1518.641625 M 2257.886434 1606.454125 C 2257.886434 1606.454125 2254.352412 1576.422875 2203.023092 1530.860375 C 2203.023092 1530.860375 2204.790103 1519.055687 2187.682935 1507.040062 " transform="matrix(0.499608,0,0,0.5,-743.510896,-496.063)"/>
<path style="fill-rule:nonzero;fill:rgb(95.686275%,77.254902%,23.921569%);fill-opacity:1;stroke-width:3;stroke-linecap:butt;stroke-linejoin:miter;stroke:rgb(0.392157%,0%,0.784314%);stroke-opacity:1;stroke-miterlimit:10;" d="M 2102.866412 1676.876 C 2102.866412 1676.876 2097.502831 1700.53225 2078.87103 1698.618187 C 2078.87103 1698.618187 2065.696635 1697.376 2066.681782 1675.422875 C 2066.681782 1675.422875 2047.213388 1685.78225 2044.062479 1660.102562 C 2044.062479 1660.102562 2026.361096 1664.243187 2026.56438 1640.21975 C 2026.56438 1640.21975 2010.04361 1643.118187 2012.006087 1621.78225 C 2012.006087 1621.78225 1994.109238 1626.547875 1994.109238 1606.454125 C 1994.109238 1606.454125 1952.224825 1599.508812 2039.54331 1519.883812 L 2117.416887 1566.274437 Z M 2102.866412 1676.876 " transform="matrix(0.499608,0,0,0.5,-743.510896,-496.063)"/>
<path style="fill-rule:nonzero;fill:rgb(95.686275%,77.254902%,23.921569%);fill-opacity:1;stroke-width:3;stroke-linecap:butt;stroke-linejoin:miter;stroke:rgb(0.392157%,0%,0.784314%);stroke-opacity:1;stroke-miterlimit:4;" d="M 2111.521638 1570.711937 C 2111.521638 1570.711937 2098.542709 1582.227562 2089.293267 1565.03225 C 2089.293267 1565.03225 2076.713088 1564.415062 2074.742792 1554.883812 C 2074.742792 1554.883812 2064.516021 1553.852562 2062.553544 1544.118187 C 2062.553544 1544.118187 2048.589467 1542.665062 2048.980399 1530.860375 C 2048.980399 1530.860375 2023.5933 1528.899437 2048.97258 1500.165062 C 2074.351861 1471.422875 2117.416887 1547.84475 2117.416887 1547.84475 Z M 2111.521638 1570.711937 " transform="matrix(0.499608,0,0,0.5,-743.510896,-496.063)"/>
<path style="fill:none;stroke-width:3;stroke-linecap:butt;stroke-linejoin:miter;stroke:rgb(0.392157%,0%,0.784314%);stroke-opacity:1;stroke-miterlimit:10;" d="M 2066.681782 1675.422875 C 2066.681782 1675.422875 2068.644259 1633.797875 2104.727247 1574.149437 M 2044.062479 1660.102562 C 2044.062479 1660.102562 2038.45652 1636.071312 2089.293267 1565.03225 C 2089.293267 1565.03225 2083.398018 1548.055687 2101.490333 1537.180687 " transform="matrix(0.499608,0,0,0.5,-743.510896,-496.063)"/>
<path style="fill-rule:nonzero;fill:rgb(95.686275%,77.254902%,23.921569%);fill-opacity:1;stroke-width:3;stroke-linecap:butt;stroke-linejoin:miter;stroke:rgb(0.392157%,0%,0.784314%);stroke-opacity:1;stroke-miterlimit:4;" d="M 2126.001745 1563.586937 C 2138.581925 1563.586937 2152.84311 1642.180687 2149.137078 1689.540062 C 2147.792273 1706.735375 2138.581925 1720.78225 2126.001745 1720.78225 C 2113.421566 1720.78225 2104.203399 1706.735375 2102.858594 1689.540062 C 2099.160381 1642.180687 2113.421566 1563.586937 2126.001745 1563.586937 " transform="matrix(0.499608,0,0,0.5,-743.510896,-496.063)"/>
<path style="fill:none;stroke-width:3;stroke-linecap:butt;stroke-linejoin:miter;stroke:rgb(0.392157%,0%,0.784314%);stroke-opacity:1;stroke-miterlimit:10;" d="M 2026.56438 1640.21975 C 2026.56438 1640.21975 2024.985016 1614.21975 2074.742792 1554.883812 C 2074.742792 1554.883812 2070.348721 1539.5635 2088.378487 1527.336937 M 2012.006087 1621.78225 C 2012.006087 1621.78225 2013.87474 1595.477562 2062.553544 1544.118187 C 2062.553544 1544.118187 2060.114131 1528.376 2077.5575 1518.641625 " transform="matrix(0.499608,0,0,0.5,-743.510896,-496.063)"/>
<path style="fill-rule:nonzero;fill:rgb(95.686275%,77.254902%,23.921569%);fill-opacity:1;stroke-width:3;stroke-linecap:butt;stroke-linejoin:miter;stroke:rgb(0.392157%,0%,0.784314%);stroke-opacity:1;stroke-miterlimit:4;" d="M 2143.413839 1562.961937 C 2143.413839 1548.71975 2135.618663 1537.180687 2126.001745 1537.180687 C 2116.384828 1537.180687 2108.589651 1548.71975 2108.589651 1562.961937 C 2108.589651 1577.204125 2116.384828 1588.751 2126.001745 1588.751 C 2135.618663 1588.751 2143.413839 1577.204125 2143.413839 1562.961937 Z M 2143.413839 1562.961937 " transform="matrix(0.499608,0,0,0.5,-743.510896,-496.063)"/>
<path style="fill:none;stroke-width:3;stroke-linecap:butt;stroke-linejoin:miter;stroke:rgb(0.392157%,0%,0.784314%);stroke-opacity:1;stroke-miterlimit:10;" d="M 1994.109238 1606.454125 C 1994.109238 1606.454125 1997.651078 1576.422875 2048.980399 1530.860375 C 2048.980399 1530.860375 2047.213388 1519.055687 2064.320555 1507.040062 " transform="matrix(0.499608,0,0,0.5,-743.510896,-496.063)"/>
<path style="fill-rule:nonzero;fill:rgb(100%,100%,100%);fill-opacity:1;stroke-width:3;stroke-linecap:butt;stroke-linejoin:miter;stroke:rgb(0.392157%,0%,0.784314%);stroke-opacity:1;stroke-miterlimit:4;" d="M 2126.001745 1557.329125 C 2126.001745 1557.329125 2273.664434 1491.899437 2274.03191 1340.524437 L 1977.971581 1340.524437 C 1978.339056 1491.899437 2126.001745 1557.329125 2126.001745 1557.329125 Z M 2126.001745 1557.329125 " transform="matrix(0.499608,0,0,0.5,-743.510896,-496.063)"/>
<path style="fill:none;stroke-width:3;stroke-linecap:butt;stroke-linejoin:miter;stroke:rgb(0.392157%,0%,0.784314%);stroke-opacity:1;stroke-miterlimit:10;" d="M 2046.290789 1340.524437 L 2069.066465 1340.524437 M 2000.747256 1340.524437 L 2023.522932 1340.524437 M 2091.842141 1340.524437 L 2114.617817 1340.524437 " transform="matrix(0.499608,0,0,0.5,-743.510896,-496.063)"/>
<path style="fill-rule:nonzero;fill:rgb(65.098039%,0%,19.607843%);fill-opacity:1;stroke-width:3;stroke-linecap:butt;stroke-linejoin:miter;stroke:rgb(0.392157%,0%,0.784314%);stroke-opacity:1;stroke-miterlimit:4;" d="M 2000.747256 1340.524437 L 2000.747256 1437.243187 C 2000.747256 1437.243187 2012.052999 1459.672875 2023.522932 1473.743187 L 2023.522932 1340.524437 Z M 2046.290789 1340.524437 L 2046.290789 1499.961937 C 2046.290789 1499.961937 2060.536337 1513.922875 2069.066465 1520.65725 L 2069.066465 1340.524437 Z M 2091.842141 1340.524437 L 2091.842141 1537.602562 C 2091.842141 1537.602562 2108.089259 1548.09475 2114.617817 1551.540062 L 2114.617817 1340.524437 Z M 2091.842141 1340.524437 " transform="matrix(0.499608,0,0,0.5,-743.510896,-496.063)"/>
<path style="fill:none;stroke-width:3;stroke-linecap:butt;stroke-linejoin:miter;stroke:rgb(0.392157%,0%,0.784314%);stroke-opacity:1;stroke-miterlimit:4;" d="M 2000.747256 1340.524437 L 2023.522932 1340.524437 M 2046.290789 1340.524437 L 2069.066465 1340.524437 M 2091.842141 1340.524437 L 2114.617817 1340.524437 " transform="matrix(0.499608,0,0,0.5,-743.510896,-496.063)"/>
<path style="fill-rule:nonzero;fill:rgb(65.098039%,0%,19.607843%);fill-opacity:1;stroke-width:3;stroke-linecap:butt;stroke-linejoin:miter;stroke:rgb(0.392157%,0%,0.784314%);stroke-opacity:1;stroke-miterlimit:4;" d="M 2251.256234 1340.524437 L 2251.256234 1437.243187 C 2251.256234 1437.243187 2239.942673 1459.672875 2228.480558 1473.743187 L 2228.480558 1340.524437 Z M 2205.704883 1340.524437 L 2205.704883 1499.961937 C 2205.704883 1499.961937 2191.467153 1513.922875 2182.937025 1520.65725 L 2182.937025 1340.524437 Z M 2160.16135 1340.524437 L 2160.16135 1537.602562 C 2160.16135 1537.602562 2143.914232 1548.09475 2137.385674 1551.540062 L 2137.385674 1340.524437 Z M 2160.16135 1340.524437 " transform="matrix(0.499608,0,0,0.5,-743.510896,-496.063)"/>
<path style="fill-rule:nonzero;fill:rgb(0%,50.588235%,77.647059%);fill-opacity:1;stroke-width:3;stroke-linecap:butt;stroke-linejoin:miter;stroke:rgb(0.392157%,0%,0.784314%);stroke-opacity:1;stroke-miterlimit:10;" d="M 2364.728044 1614.727562 L 2358.981349 1638.204125 L 2374.704619 1653.860375 L 2352.484066 1747.704125 L 2332.726382 1721.15725 L 2303.445604 1734.821312 L 2325.666157 1640.985375 L 2346.260435 1635.243187 L 2351.608379 1611.805687 C 2351.608379 1611.805687 2357.839829 1609.368187 2364.728044 1614.727562 Z M 2364.728044 1614.727562 " transform="matrix(0.499608,0,0,0.5,-743.510896,-496.063)"/>
<path style="fill-rule:nonzero;fill:rgb(0%,50.588235%,77.647059%);fill-opacity:1;stroke-width:3;stroke-linecap:butt;stroke-linejoin:miter;stroke:rgb(0.392157%,0%,0.784314%);stroke-opacity:1;stroke-miterlimit:10;" d="M 2369.989984 1599.251 L 2358.676423 1620.360375 L 2370.005621 1639.766625 L 2325.486329 1724.352562 L 2312.921787 1693.329125 L 2281.279782 1698.547875 L 2325.806893 1613.961937 L 2347.112666 1614.03225 L 2358.035295 1592.852562 C 2358.035295 1592.852562 2365.979025 1592.836937 2369.989984 1599.251 Z M 2369.989984 1599.251 " transform="matrix(0.499608,0,0,0.5,-743.510896,-496.063)"/>
<path style="fill-rule:nonzero;fill:rgb(0%,50.588235%,77.647059%);fill-opacity:1;stroke-width:3;stroke-linecap:butt;stroke-linejoin:miter;stroke:rgb(0.392157%,0%,0.784314%);stroke-opacity:1;stroke-miterlimit:10;" d="M 2371.89773 1605.383812 L 2341.803814 1643.618187 L 2348.699848 1665.21975 L 2287.253217 1737.09475 L 2281.639439 1703.883812 L 2249.692508 1701.477562 L 2311.139139 1629.602562 L 2331.889789 1634.71975 L 2363.813264 1594.126 C 2363.813264 1594.126 2372.374666 1598.383812 2371.89773 1605.383812 Z M 2371.89773 1605.383812 " transform="matrix(0.499608,0,0,0.5,-743.510896,-496.063)"/>
<path style="fill:none;stroke-width:3;stroke-linecap:butt;stroke-linejoin:miter;stroke:rgb(0.392157%,0%,0.784314%);stroke-opacity:1;stroke-miterlimit:4;" d="M 1597.587303 1121.8135 C 1597.587303 1121.8135 1637.900171 1145.15725 1763.451767 1168.501 M 1615.484152 1153.915062 C 1615.484152 1153.915062 1724.593165 1189.508812 1775.414275 1193.883812 M 1658.455355 1193.883812 C 1658.455355 1193.883812 1722.466497 1213.977562 1797.423725 1226.65725 M 1713.07632 1235.751 C 1713.07632 1235.751 1785.398668 1253.126 1819.925748 1256.008812 " transform="matrix(0.499608,0,0,0.5,-743.510896,-496.063)"/>
<path style="fill:none;stroke-width:3;stroke-linecap:butt;stroke-linejoin:miter;stroke:rgb(0.392157%,0%,0.784314%);stroke-opacity:1;stroke-miterlimit:10;" d="M 1761.598752 1269.899437 C 1761.598752 1269.899437 1822.77173 1282.65725 1838.268259 1284.196312 M 1800.53554 1301.383812 C 1800.53554 1301.383812 1845.17993 1308.165062 1862.943863 1307.805687 M 1855.993099 1328.516625 C 1855.993099 1328.516625 1874.046321 1327.665062 1882.717184 1326.227562 M 1872.709335 1357.508812 C 1872.709335 1357.508812 1888.049491 1353.368187 1897.095649 1347.571312 M 1895.328638 1387.540062 C 1895.328638 1387.540062 1907.126954 1382.985375 1912.834555 1370.555687 M 1924.140298 1398.618187 C 1924.140298 1398.618187 1933.280279 1390.4385 1933.874495 1381.329125 M 1958.354632 1405.766625 C 1958.354632 1405.766625 1954.93789 1402.8135 1957.275661 1389.977562 M 1953.929286 1371.126 C 1953.929286 1371.126 1952.162276 1367.446312 1952.756492 1361.649437 M 1889.42557 1187.266625 C 1889.42557 1187.266625 1910.074578 1195.547875 1916.962793 1206.9385 C 1923.84319 1218.329125 1919.308383 1229.399437 1916.962793 1235.751 C 1915.78218 1238.946312 1901.223886 1267.001 1918.338872 1287.297875 M 1889.722678 1309.352562 C 1889.722678 1309.352562 1889.824321 1309.251 1897.095649 1306.96975 M 1846.165078 1279.53225 C 1846.165078 1279.53225 1858.471605 1282.008812 1870.551392 1282.118187 M 1829.151734 1249.1885 C 1829.151734 1249.1885 1843.608385 1250.641625 1857.173712 1250.430687 " transform="matrix(0.499608,0,0,0.5,-743.510896,-496.063)"/>
<path style="fill-rule:nonzero;fill:rgb(21.176471%,58.039216%,26.27451%);fill-opacity:1;stroke-width:3;stroke-linecap:butt;stroke-linejoin:miter;stroke:rgb(0.392157%,0%,0.784314%);stroke-opacity:1;stroke-miterlimit:10;" d="M 1882.873557 1610.516625 C 1882.873557 1610.516625 1882.435713 1597.930687 1898.362267 1597.001 L 1945.266242 1662.235375 C 1945.266242 1662.235375 1943.491412 1666.430687 1922.256007 1665.961937 C 1922.256007 1665.961937 1920.004241 1665.946312 1918.823628 1668.4385 C 1917.017524 1672.251 1882.873557 1610.516625 1882.873557 1610.516625 Z M 1882.873557 1610.516625 " transform="matrix(0.499608,0,0,0.5,-743.510896,-496.063)"/>
<path style="fill:none;stroke-width:3;stroke-linecap:butt;stroke-linejoin:miter;stroke:rgb(0.392157%,0%,0.784314%);stroke-opacity:1;stroke-miterlimit:10;" d="M 1807.619221 1217.501 C 1807.619221 1217.501 1828.463695 1221.641625 1839.675613 1221.852562 M 1790.308769 1182.086937 C 1790.308769 1182.086937 1816.024251 1189.422875 1835.148625 1192.024437 M 1877.627254 1207.149437 C 1877.627254 1207.149437 1859.144008 1224.336937 1881.36456 1240.28225 C 1881.36456 1240.28225 1872.122937 1254.78225 1890.606184 1269.899437 M 1885.688264 1277.047875 C 1885.688264 1277.047875 1882.936106 1304.696312 1916.767327 1304.696312 C 1916.767327 1304.696312 1910.277863 1329.34475 1942.920652 1328.516625 C 1942.920652 1328.516625 1946.657958 1348.1885 1970.254591 1344.251 " transform="matrix(0.499608,0,0,0.5,-743.510896,-496.063)"/>
<path style="fill:none;stroke-width:3;stroke-linecap:butt;stroke-linejoin:miter;stroke:rgb(0.392157%,0%,0.784314%);stroke-opacity:1;stroke-miterlimit:4;" d="M 1918.260686 1560.6885 C 1918.260686 1560.6885 1912.904923 1561.876 1901.294254 1560.6885 " transform="matrix(0.499608,0,0,0.5,-743.510896,-496.063)"/>
<path style="fill:none;stroke-width:3;stroke-linecap:butt;stroke-linejoin:miter;stroke:rgb(0.392157%,0%,0.784314%);stroke-opacity:1;stroke-miterlimit:10;" d="M 1868.651464 1575.180687 C 1868.651464 1575.180687 1852.32616 1572.696312 1853.115842 1608.110375 M 1878.487304 1583.258812 C 1878.487304 1583.258812 1863.733545 1581.399437 1864.718692 1615.774437 " transform="matrix(0.499608,0,0,0.5,-743.510896,-496.063)"/>
<path style="fill:none;stroke-width:3;stroke-linecap:butt;stroke-linejoin:miter;stroke:rgb(0.392157%,0%,0.784314%);stroke-opacity:1;stroke-miterlimit:4;" d="M 2020.911509 1500.415062 C 2020.911509 1500.415062 2013.835647 1501.868187 2008.917727 1507.454125 C 2003.999807 1513.047875 1994.562718 1512.016625 1994.562718 1512.016625 C 1994.562718 1512.016625 1999.676104 1507.868187 2001.443115 1497.516625 C 2003.217944 1487.15725 2008.917727 1484.055687 2008.917727 1484.055687 M 1992.029482 1474.243187 C 1992.029482 1474.243187 1984.945801 1475.696312 1980.0357 1481.290062 C 1975.11778 1486.883812 1965.672872 1485.84475 1965.672872 1485.84475 C 1965.672872 1485.84475 1970.786258 1481.704125 1972.561087 1471.34475 C 1974.328098 1460.993187 1980.0357 1457.883812 1980.0357 1457.883812 M 1987.158474 1514.446312 C 1987.158474 1514.446312 1980.981754 1515.711937 1976.689325 1520.59475 C 1972.396896 1525.477562 1964.148239 1524.571312 1964.148239 1524.571312 C 1964.148239 1524.571312 1968.612678 1520.954125 1970.160767 1511.915062 C 1971.708856 1502.868187 1976.689325 1500.15725 1976.689325 1500.15725 " transform="matrix(0.499608,0,0,0.5,-743.510896,-496.063)"/>
<path style="fill-rule:nonzero;fill:rgb(8.627451%,14.901961%,40.392157%);fill-opacity:1;stroke-width:3;stroke-linecap:butt;stroke-linejoin:miter;stroke:rgb(0.392157%,0%,0.784314%);stroke-opacity:1;stroke-miterlimit:10;" d="M 2274.03191 1230.547875 C 2274.03191 1230.547875 2201.576645 1268.446312 2126.001745 1227.4385 C 2050.426846 1268.446312 1977.971581 1230.547875 1977.971581 1230.547875 L 1977.971581 1340.524437 L 2274.03191 1340.524437 Z M 2274.03191 1230.547875 " transform="matrix(0.499608,0,0,0.5,-743.510896,-496.063)"/>
<path style="fill-rule:nonzero;fill:rgb(0%,50.588235%,77.647059%);fill-opacity:1;stroke-width:3;stroke-linecap:butt;stroke-linejoin:miter;stroke:rgb(0.392157%,0%,0.784314%);stroke-opacity:1;stroke-miterlimit:10;" d="M 1609.307432 1515.751 C 1616.477118 1512.821312 1621.645234 1509.993187 1621.629597 1502.336937 C 1621.621778 1500.508812 1620.605356 1496.46975 1618.572512 1490.21975 L 1570.3941 1342.985375 C 1567.540299 1334.235375 1565.382356 1329.03225 1564.381571 1327.118187 C 1562.21581 1322.96975 1557.970293 1321.28225 1552.239235 1318.899437 L 1613.474763 1318.899437 C 1606.821107 1322.040062 1600.753849 1324.540062 1600.816398 1331.586937 C 1600.839854 1334.28225 1601.590442 1338.079125 1603.154169 1342.985375 L 1640.058113 1458.524437 L 1676.930783 1342.985375 C 1678.494509 1338.079125 1679.299828 1334.28225 1679.276372 1331.586937 C 1679.206005 1324.34475 1672.88855 1321.727562 1666.688375 1318.899437 L 1726.031793 1318.899437 C 1720.605663 1321.071312 1716.180317 1322.774437 1713.905095 1327.118187 C 1712.90431 1329.03225 1710.754186 1334.235375 1707.900385 1342.985375 L 1659.721973 1490.21975 C 1657.68131 1496.46975 1656.946359 1500.579125 1656.664888 1502.477562 C 1656.664888 1502.477562 1654.452215 1511.790062 1668.987052 1515.743187 Z M 2635.987672 1500.602562 L 2635.987672 1333.899437 C 2635.987672 1331.008812 2635.510735 1328.797875 2634.564681 1327.258812 C 2633.610808 1325.727562 2629.474751 1321.290062 2623.563865 1318.899437 L 2678.739953 1318.899437 C 2672.836886 1320.852562 2668.69301 1325.602562 2667.746956 1327.1885 C 2666.793083 1328.774437 2666.323965 1331.008812 2666.323965 1333.899437 L 2666.323965 1500.602562 C 2666.323965 1503.586937 2666.80872 1505.868187 2667.793868 1507.454125 C 2668.779015 1509.040062 2672.836886 1512.915062 2678.739953 1515.743187 L 2623.563865 1515.743187 C 2629.474751 1513.0635 2633.610808 1508.922875 2634.564681 1507.383812 C 2635.510735 1505.84475 2635.987672 1503.586937 2635.987672 1500.602562 Z M 2635.987672 1500.602562 " transform="matrix(0.499608,0,0,0.5,-743.510896,-496.063)"/>
</g>
</svg>
