<?xml version="1.0" encoding="UTF-8"?>
<svg xmlns="http://www.w3.org/2000/svg" xmlns:xlink="http://www.w3.org/1999/xlink" width="px" height="px" viewBox="0 0 300 180" version="1.1">
<g id="surface1">
<path style=" stroke:none;fill-rule:nonzero;fill:rgb(82.352941%,6.27451%,20.392157%);fill-opacity:1;" d="M 0 0 L 300 0 L 300 90 L 0 90 Z M 0 0 "/>
<path style=" stroke:none;fill-rule:nonzero;fill:rgb(0%,58.431373%,26.27451%);fill-opacity:1;" d="M 0 90 L 300 90 L 300 180 L 0 180 Z M 0 90 "/>
<path style=" stroke:none;fill-rule:nonzero;fill:rgb(0%,0%,0%);fill-opacity:1;" d="M 0 0 L 174.574219 90 L 0 180 Z M 0 0 "/>
<path style=" stroke:none;fill-rule:nonzero;fill:rgb(0%,0%,0%);fill-opacity:1;" d="M 0 73.894531 L 300 73.894531 L 300 106.105469 L 0 106.105469 Z M 0 73.894531 "/>
<path style=" stroke:none;fill-rule:nonzero;fill:rgb(99.215686%,80.784314%,7.058824%);fill-opacity:1;" d="M 0 12.789062 L 149.761719 90 L 0 167.210938 Z M 0 12.789062 "/>
<path style=" stroke:none;fill-rule:nonzero;fill:rgb(99.215686%,80.784314%,7.058824%);fill-opacity:1;" d="M 0 85.261719 L 300 85.261719 L 300 94.738281 L 0 94.738281 Z M 0 85.261719 "/>
<path style=" stroke:none;fill-rule:nonzero;fill:rgb(0%,0%,0%);fill-opacity:1;" d="M 0 23.449219 L 129.089844 90 L 0 156.550781 Z M 0 23.449219 "/>
<path style=" stroke:none;fill-rule:nonzero;fill:rgb(99.215686%,80.784314%,7.058824%);fill-opacity:1;" d="M 36.46875 107.21875 L 36.46875 117.472656 C 45.390625 117.472656 62.898438 110.636719 62.898438 88.625 C 62.898438 66.613281 44.222656 62.527344 38.636719 62.527344 C 33.050781 62.527344 15.789062 66.527344 15.789062 84.539062 C 15.789062 102.550781 32.714844 104.214844 36.050781 104.214844 C 39.386719 104.214844 51.894531 101.214844 50.476562 87.707031 C 50.476562 91.542969 46.140625 99.628906 37.050781 99.628906 C 27.960938 99.628906 22.292969 92.875 22.292969 86.207031 C 22.292969 79.535156 27.796875 70.613281 37.382812 70.613281 C 46.972656 70.613281 53.976562 79.117188 53.976562 87.707031 C 53.976562 96.296875 47.222656 107.21875 36.46875 107.21875 Z M 36.46875 107.21875 "/>
<path style="fill-rule:nonzero;fill:rgb(99.215686%,80.784314%,7.058824%);fill-opacity:1;stroke-width:1;stroke-linecap:butt;stroke-linejoin:miter;stroke:rgb(99.215686%,80.784314%,7.058824%);stroke-opacity:1;stroke-miterlimit:4;" d="M 90.732422 297.246094 L 92.414714 298.334635 C 92.414714 298.334635 105.774089 267.843099 141.720703 246.158854 C 137.16862 248.632813 113.109375 260.606771 90.732422 297.246094 Z M 90.732422 297.246094 " transform="matrix(0.315789,0,0,0.315789,0,0)"/>
<path style=" stroke:none;fill-rule:nonzero;fill:rgb(99.215686%,80.784314%,7.058824%);fill-opacity:1;" d="M 29.746094 92.210938 C 29.746094 92.210938 28.433594 89.519531 29.589844 88.332031 C 30.746094 87.144531 30.214844 91.492188 30.214844 91.492188 L 30.714844 90.769531 C 30.714844 90.769531 29.933594 87.488281 30.808594 86.800781 C 31.683594 86.113281 31.246094 89.957031 31.246094 89.957031 L 31.777344 89.269531 C 31.777344 89.269531 31.214844 86.082031 32.058594 85.488281 C 32.902344 84.894531 32.371094 88.488281 32.371094 88.488281 L 32.996094 87.769531 C 32.996094 87.769531 32.527344 84.738281 33.558594 84.019531 C 34.59375 83.296875 33.683594 86.894531 33.683594 86.894531 L 34.371094 86.144531 C 34.371094 86.144531 34.058594 83.359375 34.9375 82.734375 C 35.8125 82.109375 35.0625 85.363281 35.0625 85.363281 L 35.6875 84.707031 C 35.6875 84.707031 35.5 82.109375 36.34375 81.515625 C 37.1875 80.921875 36.40625 83.988281 36.40625 83.988281 L 37.0625 83.359375 C 37.0625 83.359375 36.90625 80.765625 37.96875 80.265625 C 39.03125 79.765625 37.78125 82.703125 37.78125 82.703125 L 38.5 82.078125 C 38.5 82.078125 38.71875 79.046875 39.625 78.765625 C 40.53125 78.484375 39.21875 81.453125 39.21875 81.453125 L 39.875 80.921875 C 39.875 80.921875 40.21875 78.328125 41.21875 78.015625 C 42.222656 77.703125 40.59375 80.390625 40.59375 80.390625 L 41.25 79.890625 C 41.25 79.890625 41.972656 77.296875 42.910156 77.015625 C 43.847656 76.730469 41.941406 79.453125 41.941406 79.453125 L 42.566406 79.015625 C 42.566406 79.015625 43.597656 76.667969 44.441406 76.511719 C 45.285156 76.355469 43.503906 78.453125 43.503906 78.453125 L 44.285156 77.984375 C 44.285156 77.984375 45.628906 75.542969 46.097656 76.292969 C 46.566406 77.046875 44.222656 78.140625 44.222656 78.140625 L 43.441406 78.578125 C 43.441406 78.578125 46.285156 77.234375 46.628906 77.921875 C 46.972656 78.609375 42.722656 79.046875 42.722656 79.046875 L 42.035156 79.515625 C 42.035156 79.515625 44.878906 78.734375 44.535156 79.453125 C 44.191406 80.171875 41.375 80.015625 41.375 80.015625 L 40.71875 80.484375 C 40.71875 80.484375 43.566406 79.796875 43.191406 80.453125 C 42.816406 81.109375 40.03125 81.046875 40.03125 81.046875 L 39.34375 81.609375 C 39.34375 81.609375 42.128906 80.890625 41.722656 81.734375 C 41.3125 82.578125 38.15625 82.546875 38.15625 82.546875 L 37.375 83.265625 C 37.375 83.265625 40.3125 82.265625 40.0625 83.046875 C 39.8125 83.832031 36.46875 84.238281 36.46875 84.238281 L 35.71875 84.988281 C 35.71875 84.988281 38.875 83.925781 37.9375 84.894531 C 37 85.863281 34.71875 86.113281 34.71875 86.113281 L 33.808594 87.207031 C 33.808594 87.207031 36.9375 85.332031 36.5 86.394531 C 36.0625 87.457031 32.996094 88.175781 32.996094 88.175781 L 32.371094 88.925781 C 32.371094 88.925781 35.1875 87.300781 34.90625 88.207031 C 34.625 89.113281 31.621094 90.082031 31.621094 90.082031 L 31.121094 90.769531 C 31.121094 90.769531 34.433594 88.800781 34.152344 89.800781 C 33.871094 90.804688 30.714844 91.523438 30.714844 91.523438 L 30.308594 92.148438 C 30.308594 92.148438 33.371094 90.394531 33.402344 91.242188 C 33.433594 92.085938 29.808594 92.929688 29.808594 92.929688 Z M 29.746094 92.210938 "/>
<path style="fill-rule:nonzero;fill:rgb(99.215686%,80.784314%,7.058824%);fill-opacity:1;stroke-width:1;stroke-linecap:butt;stroke-linejoin:miter;stroke:rgb(99.215686%,80.784314%,7.058824%);stroke-opacity:1;stroke-miterlimit:4;" d="M 90.730469 297.246094 L 92.41276 298.334635 C 92.41276 298.334635 105.772135 267.843099 141.71875 246.158854 C 137.166667 248.632813 113.107422 260.606771 90.730469 297.246094 Z M 90.730469 297.246094 " transform="matrix(-0.315789,0,0,0.315789,75.315789,0)"/>
<path style=" stroke:none;fill-rule:nonzero;fill:rgb(99.215686%,80.784314%,7.058824%);fill-opacity:1;" d="M 45.570312 92.210938 C 45.570312 92.210938 46.882812 89.519531 45.726562 88.332031 C 44.570312 87.144531 45.101562 91.492188 45.101562 91.492188 L 44.601562 90.769531 C 44.601562 90.769531 45.382812 87.488281 44.507812 86.800781 C 43.632812 86.113281 44.070312 89.957031 44.070312 89.957031 L 43.539062 89.269531 C 43.539062 89.269531 44.101562 86.082031 43.257812 85.488281 C 42.414062 84.894531 42.945312 88.488281 42.945312 88.488281 L 42.320312 87.769531 C 42.320312 87.769531 42.789062 84.738281 41.757812 84.019531 C 40.722656 83.296875 41.628906 86.894531 41.628906 86.894531 L 40.941406 86.144531 C 40.941406 86.144531 41.253906 83.359375 40.378906 82.734375 C 39.503906 82.109375 40.253906 85.363281 40.253906 85.363281 L 39.628906 84.707031 C 39.628906 84.707031 39.816406 82.109375 38.972656 81.515625 C 38.128906 80.921875 38.910156 83.988281 38.910156 83.988281 L 38.253906 83.359375 C 38.253906 83.359375 38.410156 80.765625 37.347656 80.265625 C 36.285156 79.765625 37.535156 82.703125 37.535156 82.703125 L 36.816406 82.078125 C 36.816406 82.078125 36.597656 79.046875 35.691406 78.765625 C 34.785156 78.484375 36.097656 81.453125 36.097656 81.453125 L 35.441406 80.921875 C 35.441406 80.921875 35.097656 78.328125 34.09375 78.015625 C 33.09375 77.703125 34.722656 80.390625 34.722656 80.390625 L 34.0625 79.890625 C 34.0625 79.890625 33.34375 77.296875 32.40625 77.015625 C 31.46875 76.730469 33.375 79.453125 33.375 79.453125 L 32.75 79.015625 C 32.75 79.015625 31.71875 76.667969 30.875 76.511719 C 30.03125 76.355469 31.8125 78.453125 31.8125 78.453125 L 31.03125 77.984375 C 31.03125 77.984375 29.6875 75.542969 29.21875 76.292969 C 28.75 77.046875 31.09375 78.140625 31.09375 78.140625 L 31.875 78.578125 C 31.875 78.578125 29.03125 77.234375 28.6875 77.921875 C 28.34375 78.609375 32.59375 79.046875 32.59375 79.046875 L 33.28125 79.515625 C 33.28125 79.515625 30.4375 78.734375 30.78125 79.453125 C 31.125 80.171875 33.9375 80.015625 33.9375 80.015625 L 34.59375 80.484375 C 34.59375 80.484375 31.75 79.796875 32.125 80.453125 C 32.5 81.109375 35.285156 81.046875 35.285156 81.046875 L 35.972656 81.609375 C 35.972656 81.609375 33.1875 80.890625 33.59375 81.734375 C 34 82.578125 37.160156 82.546875 37.160156 82.546875 L 37.941406 83.265625 C 37.941406 83.265625 35.003906 82.265625 35.253906 83.046875 C 35.503906 83.832031 38.847656 84.238281 38.847656 84.238281 L 39.597656 84.988281 C 39.597656 84.988281 36.441406 83.925781 37.378906 84.894531 C 38.316406 85.863281 40.597656 86.113281 40.597656 86.113281 L 41.503906 87.207031 C 41.503906 87.207031 38.378906 85.332031 38.816406 86.394531 C 39.253906 87.457031 42.320312 88.175781 42.320312 88.175781 L 42.945312 88.925781 C 42.945312 88.925781 40.128906 87.300781 40.410156 88.207031 C 40.691406 89.113281 43.695312 90.082031 43.695312 90.082031 L 44.195312 90.769531 C 44.195312 90.769531 40.878906 88.800781 41.160156 89.800781 C 41.441406 90.804688 44.601562 91.523438 44.601562 91.523438 L 45.007812 92.148438 C 45.007812 92.148438 41.945312 90.394531 41.914062 91.242188 C 41.882812 92.085938 45.507812 92.929688 45.507812 92.929688 Z M 45.570312 92.210938 "/>
</g>
</svg>
