<?xml version="1.0" encoding="UTF-8"?>
<svg xmlns="http://www.w3.org/2000/svg" xmlns:xlink="http://www.w3.org/1999/xlink" width="px" height="px" viewBox="0 0 420 300" version="1.1">
<g id="surface1">
<rect x="0" y="0" width="420" height="300" style="fill:rgb(14.117647%,29.019608%,64.705882%);fill-opacity:1;stroke:none;"/>
<path style=" stroke:none;fill-rule:nonzero;fill:rgb(81.568627%,65.098039%,31.372549%);fill-opacity:1;" d="M 166.046875 142.296875 C 166.046875 142.296875 166.824219 141.773438 167.109375 141.703125 C 167.394531 141.632812 168.402344 141.316406 168.402344 141.316406 C 168.402344 141.316406 169.050781 140.984375 169.390625 140.984375 C 169.753906 140.984375 170.453125 141.371094 170.683594 141.703125 C 170.890625 142.035156 172.03125 142.613281 172.03125 142.613281 C 172.03125 142.613281 172.8125 142.875 172.964844 142.613281 C 173.113281 142.351562 173.457031 142.15625 173.816406 142.15625 C 174.179688 142.15625 174.234375 141.824219 174.234375 141.5625 C 174.234375 141.300781 174.386719 140.96875 174.652344 140.652344 C 174.9375 140.320312 175.507812 140.128906 175.507812 140.128906 C 175.507812 140.128906 176.289062 139.796875 176.363281 139.339844 C 176.441406 138.886719 177.21875 138.550781 177.65625 138.484375 C 178.074219 138.414062 177.65625 138.21875 178.796875 138.34375 C 179.9375 138.484375 180.089844 138.078125 180.144531 137.746094 C 180.222656 137.414062 180.144531 137.082031 180.867188 137.152344 C 181.589844 137.222656 181.929688 137.222656 181.929688 136.820312 C 181.929688 136.433594 182.578125 136.226562 181.4375 135.910156 C 180.296875 135.578125 180.371094 135.839844 180.296875 135.316406 C 180.222656 134.789062 180.296875 134.859375 179.519531 134.789062 C 178.738281 134.71875 179.15625 134.335938 179.101562 133.933594 C 179.023438 133.546875 178.816406 133.335938 178.683594 133.074219 C 178.53125 132.8125 178.113281 132.8125 178.113281 132.425781 C 178.113281 132.042969 178.035156 131.832031 177.617188 131.832031 C 177.199219 131.832031 177.046875 131.832031 177.046875 131.449219 C 177.046875 131.0625 177.125 130.730469 177.542969 130.730469 C 177.960938 130.730469 178.1875 130.398438 178.113281 130.011719 C 178.035156 129.628906 178.035156 128.769531 178.035156 128.769531 L 178.605469 128.105469 C 178.605469 128.105469 180.316406 126.722656 180.46875 126.460938 C 180.621094 126.199219 181.191406 126.003906 181.457031 126.53125 C 181.742188 127.054688 181.875 127.195312 182.101562 127.441406 C 182.3125 127.703125 182.957031 127.511719 183.089844 127.246094 C 183.242188 126.984375 183.300781 126.023438 183.679688 125.496094 C 184.058594 124.988281 184.324219 124.726562 184.421875 124.308594 C 184.515625 123.886719 184.703125 123.539062 185.160156 123.539062 C 185.617188 123.539062 185.902344 122.941406 185.902344 122.59375 C 185.902344 122.242188 186.09375 121.910156 186.644531 121.824219 C 187.195312 121.734375 187.480469 121.402344 187.667969 121.910156 C 187.859375 122.417969 188.050781 122.417969 188.410156 122.59375 C 188.789062 122.765625 189.339844 123.011719 189.605469 122.765625 C 189.890625 122.503906 190.023438 122.085938 190.441406 122.347656 C 190.84375 122.609375 191.128906 122.347656 191.222656 121.839844 C 191.316406 121.332031 191.410156 120.648438 191.410156 120.648438 C 191.410156 120.648438 191.507812 120.300781 192.152344 120.300781 C 192.800781 120.300781 192.34375 119.878906 192.703125 119.617188 C 193.085938 119.355469 193.085938 119.109375 193.539062 119.265625 C 193.996094 119.441406 194.738281 119.058594 194.375 118.636719 C 193.996094 118.21875 193.179688 117.535156 193.636719 117.011719 C 194.089844 116.503906 194.28125 115.644531 193.824219 115.558594 C 193.367188 115.46875 192.703125 115.644531 192.628906 115.136719 C 192.53125 114.628906 192.34375 114.28125 192.914062 114.191406 C 193.464844 114.105469 194.394531 114.105469 194.679688 113.84375 C 194.964844 113.578125 195.878906 113.421875 195.878906 112.652344 C 195.878906 111.882812 196.160156 111.796875 196.257812 111.375 C 196.351562 110.953125 196.351562 110.0625 195.972656 109.640625 C 195.59375 109.222656 195.039062 108.609375 194.945312 108.363281 C 194.851562 108.101562 194.488281 107.683594 193.921875 107.507812 C 193.367188 107.332031 192.894531 107.246094 192.894531 106.824219 C 192.894531 106.40625 193.273438 106.914062 193.273438 105.792969 C 193.273438 104.691406 192.53125 104.515625 192.53125 104.515625 L 191.410156 103.832031 C 191.410156 103.832031 189.4375 103.308594 188.902344 103.308594 C 188.371094 103.308594 187.765625 102.746094 188.371094 102.398438 C 188.980469 102.046875 189.132812 101.417969 188.902344 100.925781 C 188.675781 100.4375 188.523438 100.085938 187.6875 99.878906 C 186.851562 99.667969 186.625 99.457031 187.003906 98.96875 C 187.382812 98.476562 187.460938 98.128906 187.914062 98.476562 C 188.371094 98.828125 189.132812 98.96875 189.738281 98.6875 C 190.347656 98.40625 190.574219 98.199219 190.878906 98.476562 C 191.183594 98.757812 191.5625 99.039062 192.019531 98.617188 C 192.476562 98.199219 193.3125 98.128906 193.691406 98.335938 C 194.070312 98.546875 194.984375 98.476562 195.289062 98.335938 C 195.59375 98.199219 196.199219 97.707031 196.199219 97.425781 C 196.199219 97.148438 196.578125 96.65625 196.960938 96.449219 C 197.339844 96.238281 197.796875 95.539062 198.175781 95.539062 C 198.554688 95.539062 198.707031 95.117188 198.707031 94.835938 C 198.707031 94.558594 199.011719 93.996094 199.089844 93.789062 C 199.164062 93.578125 199.925781 93.28125 200.457031 93.71875 C 200.988281 94.136719 201.671875 94.277344 201.671875 94.277344 C 201.671875 94.277344 202.433594 94.417969 202.8125 94.277344 C 203.191406 94.136719 203.722656 93.996094 204.257812 94.347656 C 204.789062 94.699219 205.546875 94.699219 205.546875 94.699219 C 205.546875 94.699219 205.699219 94.136719 205.699219 93.859375 C 205.699219 93.578125 205.851562 93.085938 205.546875 92.878906 C 205.242188 92.667969 204.863281 92.386719 205.472656 91.96875 C 206.078125 91.546875 206.078125 91.617188 206.6875 91.617188 C 207.296875 91.617188 207.675781 91.6875 208.132812 91.6875 C 208.589844 91.6875 209.347656 92.109375 209.347656 92.527344 C 209.347656 92.949219 209.652344 93.226562 210.03125 93.4375 C 210.410156 93.648438 210.867188 93.859375 210.714844 94.207031 C 210.5625 94.558594 210.5625 94.835938 211.019531 94.765625 C 211.476562 94.699219 211.628906 94.976562 211.628906 95.328125 C 211.628906 95.675781 211.78125 95.886719 212.234375 96.027344 C 212.691406 96.167969 212.921875 96.449219 212.921875 96.796875 C 212.921875 97.148438 212.84375 97.359375 212.996094 97.707031 C 213.148438 98.058594 213.605469 98.617188 213.605469 98.617188 C 213.605469 98.617188 214.441406 99.597656 213.375 99.109375 C 212.3125 98.617188 212.085938 98.40625 211.703125 98.476562 C 211.324219 98.546875 211.097656 98.757812 211.097656 98.757812 C 211.097656 98.757812 210.5625 98.898438 210.183594 98.898438 C 209.804688 98.898438 209.425781 99.667969 210.03125 99.808594 C 210.640625 99.949219 210.867188 100.085938 210.867188 100.578125 C 210.867188 101.066406 210.640625 100.925781 210.335938 101.277344 C 210.03125 101.628906 209.804688 101.417969 209.273438 101.417969 C 208.738281 101.417969 208.589844 101.835938 208.589844 102.257812 C 208.589844 102.675781 208.816406 102.609375 209.042969 102.957031 C 209.273438 103.308594 209.652344 103.378906 210.03125 103.027344 C 210.410156 102.675781 210.714844 102.46875 210.945312 103.097656 C 211.171875 103.726562 211.476562 103.726562 211.933594 103.726562 C 212.386719 103.726562 212.539062 103.726562 212.921875 103.515625 C 213.300781 103.308594 213.757812 103.515625 213.832031 104.078125 C 213.90625 104.636719 214.289062 104.707031 214.667969 104.917969 C 215.046875 105.128906 215.277344 105.265625 215.351562 105.617188 C 215.429688 105.96875 215.65625 106.109375 216.035156 105.898438 C 216.414062 105.6875 217.023438 105.546875 217.253906 105.828125 C 217.480469 106.109375 217.859375 106.667969 217.859375 106.667969 L 217.9375 107.367188 L 219.378906 107.859375 C 219.378906 107.859375 219.53125 108.207031 219.53125 108.488281 C 219.53125 108.765625 219.761719 108.90625 220.140625 108.835938 C 220.519531 108.765625 221.203125 108.835938 221.203125 108.835938 C 221.203125 108.835938 221.734375 108.628906 221.734375 108.207031 C 221.734375 107.789062 221.964844 107.648438 222.34375 107.648438 C 222.722656 107.648438 223.558594 107.925781 223.789062 107.507812 C 224.015625 107.085938 224.699219 106.949219 225.230469 107.15625 C 225.765625 107.367188 227.132812 107.925781 227.132812 107.925781 C 227.132812 107.925781 226.980469 107.996094 227.4375 108.699219 C 227.890625 109.398438 228.726562 109.398438 228.726562 109.398438 C 228.726562 109.398438 228.804688 110.027344 228.957031 110.308594 C 229.109375 110.585938 229.792969 110.726562 230.171875 110.449219 C 230.550781 110.167969 231.085938 109.816406 231.539062 109.816406 C 231.996094 109.816406 232.300781 109.816406 232.300781 109.539062 C 232.300781 109.257812 231.84375 109.046875 231.84375 108.628906 C 231.84375 108.207031 232.300781 108.207031 232.375 107.789062 C 232.453125 107.367188 232.90625 107.789062 233.210938 107.996094 C 233.515625 108.207031 233.894531 108.558594 233.894531 108.835938 C 233.894531 109.117188 234.503906 110.097656 234.882812 110.238281 C 235.265625 110.378906 236.253906 110.449219 236.554688 110.097656 C 236.859375 109.746094 237.621094 109.609375 237.542969 110.449219 C 237.46875 111.289062 237.316406 111.359375 237.847656 111.636719 C 238.378906 111.917969 238.457031 112.898438 238 113.175781 C 237.542969 113.457031 237.390625 113.527344 237.390625 114.015625 C 237.390625 114.507812 237.238281 115.066406 237.621094 115.347656 C 238 115.628906 238.226562 115.835938 238.226562 116.117188 C 238.226562 116.398438 238.683594 117.65625 238.683594 117.65625 C 238.683594 117.65625 238.910156 118.917969 238.835938 119.199219 C 238.761719 119.476562 238.609375 119.96875 239.292969 119.898438 C 239.976562 119.828125 240.128906 119.828125 240.128906 120.386719 C 240.128906 120.949219 240.355469 121.15625 239.976562 121.367188 C 239.597656 121.578125 239.367188 122.277344 239.746094 122.417969 C 240.128906 122.558594 240.433594 122.765625 240.507812 123.046875 C 240.585938 123.328125 241.191406 123.816406 241.570312 123.539062 C 241.953125 123.257812 242.027344 123.117188 242.332031 123.046875 C 242.636719 122.976562 242.863281 122.765625 242.558594 122.417969 C 242.257812 122.066406 242.179688 121.71875 242.484375 121.507812 C 242.789062 121.296875 242.941406 120.597656 242.941406 120.597656 C 242.941406 120.597656 243.394531 119.96875 243.929688 120.597656 C 244.460938 121.226562 244.535156 121.015625 244.914062 121.015625 C 245.296875 121.015625 245.449219 121.367188 245.449219 121.71875 C 245.449219 122.066406 246.207031 121.996094 246.207031 122.558594 C 246.207031 123.117188 246.359375 124.449219 246.359375 124.449219 C 246.359375 124.449219 246.359375 125.21875 246.816406 125.496094 C 247.273438 125.777344 247.195312 125.847656 246.96875 126.199219 C 246.738281 126.546875 246.816406 127.109375 246.816406 127.386719 C 246.816406 127.667969 246.96875 127.808594 246.589844 128.085938 C 246.207031 128.367188 246.054688 128.71875 246.285156 129.136719 C 246.511719 129.558594 246.4375 129.835938 247.042969 130.328125 C 247.652344 130.816406 247.574219 131.027344 247.574219 131.378906 C 247.574219 131.726562 248.183594 132.21875 248.183594 132.566406 C 248.183594 132.917969 248.640625 133.335938 249.019531 133.40625 C 249.398438 133.476562 249.855469 134.109375 249.855469 134.457031 C 249.855469 134.808594 249.933594 135.71875 249.933594 135.71875 C 249.933594 135.71875 249.855469 135.925781 250.3125 135.925781 C 250.769531 135.925781 251.070312 136.417969 251.222656 135.859375 C 251.375 135.296875 251.832031 135.226562 252.136719 135.085938 C 252.441406 134.949219 253.046875 134.667969 253.351562 134.878906 C 253.65625 135.085938 254.035156 135.085938 254.339844 135.085938 C 254.644531 135.085938 256.089844 135.15625 256.089844 135.15625 C 256.089844 135.15625 256.46875 135.085938 256.695312 135.648438 C 256.925781 136.207031 257.609375 136.835938 257.226562 137.117188 C 256.847656 137.398438 256.847656 137.957031 257.304688 137.957031 C 257.761719 137.957031 258.214844 137.957031 258.214844 138.308594 C 258.214844 138.65625 258.292969 138.9375 258.671875 138.726562 C 259.050781 138.515625 259.28125 138.449219 259.433594 138.726562 C 259.585938 139.007812 259.886719 139.007812 260.269531 139.21875 C 260.648438 139.425781 260.800781 139.289062 261.027344 139.007812 C 261.257812 138.726562 262.167969 138.449219 262.167969 138.449219 C 262.167969 138.449219 263.382812 138.167969 263.839844 138.308594 C 264.296875 138.449219 264.902344 138.726562 264.902344 138.726562 C 264.902344 138.726562 265.207031 139.425781 265.054688 139.847656 C 264.902344 140.265625 264.753906 140.199219 264.902344 140.828125 C 265.054688 141.457031 264.753906 141.527344 264.449219 141.457031 C 264.144531 141.386719 263.839844 141.386719 263.839844 141.949219 C 263.839844 142.507812 263.535156 142.648438 263.535156 143.136719 C 263.535156 143.628906 263.535156 143.558594 263.230469 143.765625 C 262.929688 143.976562 262.851562 144.328125 263.308594 144.398438 C 263.765625 144.46875 263.613281 144.957031 263.613281 145.238281 C 263.613281 145.515625 263.535156 146.148438 263.535156 146.148438 C 263.535156 146.148438 263.613281 146.496094 263.078125 146.496094 C 262.546875 146.496094 262.09375 146.425781 262.015625 146.777344 C 261.941406 147.128906 261.332031 147.6875 261.863281 148.039062 C 262.394531 148.386719 262.242188 148.597656 261.941406 148.738281 C 261.636719 148.878906 261.40625 149.578125 262.015625 149.789062 C 262.625 149.996094 262.546875 150.207031 262.167969 150.488281 C 261.789062 150.765625 261.027344 150.976562 261.027344 151.398438 C 261.027344 151.816406 260.875 151.816406 260.421875 151.886719 C 259.964844 151.957031 259.734375 152.515625 260.269531 153.21875 C 260.800781 153.917969 260.953125 153.777344 261.332031 153.777344 C 261.710938 153.777344 261.710938 153.21875 261.710938 153.21875 C 261.710938 153.21875 263.003906 153.289062 263.382812 153.289062 C 263.765625 153.289062 264.296875 153.289062 264.601562 153.078125 C 264.902344 152.867188 265.738281 152.515625 265.738281 153.148438 C 265.738281 153.777344 265.890625 153.707031 266.273438 153.988281 C 266.652344 154.265625 266.726562 154.058594 267.03125 154.476562 C 267.335938 154.898438 267.410156 154.546875 267.640625 154.058594 C 267.867188 153.566406 268.324219 153.078125 268.703125 153.636719 C 269.085938 154.199219 269.085938 154.058594 269.539062 154.058594 C 269.996094 154.058594 270.148438 154.265625 270.148438 154.617188 C 270.148438 154.96875 270.605469 154.96875 271.136719 154.898438 C 271.667969 154.828125 271.742188 155.175781 271.972656 155.527344 C 272.199219 155.878906 272.277344 155.808594 272.578125 155.808594 C 272.882812 155.808594 273.1875 155.808594 273.414062 155.527344 C 273.644531 155.246094 273.949219 154.898438 274.253906 155.316406 C 274.554688 155.738281 275.164062 155.667969 275.316406 155.175781 C 275.46875 154.6875 276.152344 154.265625 276.53125 154.828125 C 276.910156 155.386719 277.214844 155.386719 277.597656 155.457031 C 277.976562 155.527344 278.507812 155.527344 278.734375 155.878906 C 278.964844 156.226562 279.722656 156.789062 279.191406 157.207031 C 278.660156 157.628906 278.050781 158.1875 278.507812 158.328125 C 278.964844 158.46875 279.269531 158.609375 279.570312 158.957031 C 279.875 159.308594 280.863281 159.449219 281.320312 159.515625 C 281.777344 159.585938 282.15625 159.65625 282.6875 159.238281 C 283.21875 158.816406 283.753906 158.816406 283.675781 159.378906 C 283.601562 159.9375 283.902344 160.566406 283.902344 160.566406 C 283.902344 160.566406 284.285156 161.476562 284.285156 161.828125 C 284.285156 162.175781 284.207031 162.246094 284.890625 162.667969 C 285.574219 163.085938 285.5 163.367188 286.03125 162.949219 C 286.5625 162.527344 286.714844 162.316406 286.714844 161.96875 L 286.714844 160.847656 C 286.714844 160.847656 287.476562 160.707031 287.78125 160.496094 C 288.085938 160.289062 289.300781 159.65625 289.605469 159.9375 C 289.90625 160.21875 290.289062 160.148438 290.59375 160.007812 C 290.894531 159.867188 291.503906 159.867188 291.808594 159.867188 C 292.113281 159.867188 292.644531 159.9375 293.253906 159.449219 C 293.859375 158.957031 293.859375 159.097656 294.238281 159.449219 C 294.621094 159.796875 294.621094 160.21875 294.390625 160.496094 C 294.164062 160.777344 294.390625 161.40625 294.925781 161.40625 C 295.457031 161.40625 295.609375 161.6875 295.609375 162.039062 C 295.609375 162.386719 295.683594 162.878906 295.761719 163.15625 C 295.835938 163.4375 295.835938 163.578125 296.671875 163.789062 C 297.507812 163.996094 297.355469 164.488281 297.507812 164.835938 C 297.660156 165.1875 297.660156 165.46875 297.203125 165.46875 C 296.746094 165.46875 296.597656 165.675781 296.519531 166.027344 C 296.445312 166.378906 295.761719 166.515625 295.761719 166.515625 L 295.074219 166.378906 C 295.074219 166.378906 294.621094 166.378906 294.390625 166.65625 C 294.164062 166.9375 293.707031 167.496094 294.011719 167.988281 C 294.316406 168.476562 294.316406 168.757812 294.011719 168.96875 C 293.707031 169.175781 293.554688 170.226562 293.253906 170.015625 C 292.949219 169.808594 292.566406 170.085938 292.265625 170.226562 C 291.960938 170.367188 292.035156 171.347656 292.644531 171.699219 C 293.253906 172.046875 293.402344 172.539062 293.402344 172.539062 L 294.089844 173.585938 C 294.089844 173.585938 293.859375 173.796875 293.707031 174.148438 C 293.554688 174.496094 293.101562 175.199219 293.554688 175.335938 C 294.011719 175.476562 293.785156 176.246094 293.328125 176.246094 C 292.871094 176.246094 292.339844 176.039062 292.265625 176.597656 C 292.1875 177.15625 291.960938 177.015625 291.503906 176.949219 C 291.046875 176.878906 289.90625 176.597656 289.605469 177.15625 C 289.300781 177.71875 289.222656 177.925781 288.691406 177.859375 C 288.160156 177.789062 288.386719 178.699219 288.539062 179.046875 C 288.691406 179.398438 289.222656 179.886719 289.222656 179.886719 C 289.222656 179.886719 289.679688 180.238281 289.679688 180.9375 C 289.679688 181.636719 289.375 181.566406 289.070312 181.078125 C 288.769531 180.585938 288.160156 180.65625 288.085938 181.21875 C 288.007812 181.777344 287.933594 182.617188 287.398438 182.617188 C 286.867188 182.617188 286.640625 182.757812 286.410156 183.039062 C 286.183594 183.316406 285.804688 183.808594 285.804688 184.085938 C 285.804688 184.367188 285.726562 184.648438 285.347656 184.71875 C 284.96875 184.789062 284.890625 185.558594 284.890625 185.558594 C 284.890625 185.558594 283.980469 185.699219 283.902344 186.046875 C 283.828125 186.398438 283.980469 186.957031 283.21875 187.027344 C 282.460938 187.097656 282.003906 187.585938 281.777344 187.9375 C 281.546875 188.289062 281.472656 188.566406 281.777344 188.917969 C 282.078125 189.265625 282.308594 190.386719 282.6875 190.597656 C 283.066406 190.808594 283.371094 190.878906 283.296875 191.4375 C 283.21875 191.996094 282.765625 192.417969 283.371094 192.417969 C 283.980469 192.417969 284.359375 192.558594 284.132812 193.046875 C 283.902344 193.539062 283.902344 193.609375 283.449219 193.816406 C 282.992188 194.027344 282.765625 194.027344 282.765625 194.585938 C 282.765625 195.148438 282.914062 195.148438 282.535156 195.359375 C 282.15625 195.566406 282.15625 195.847656 282.15625 196.265625 C 282.15625 196.6875 282.003906 196.546875 281.546875 197.039062 C 281.09375 197.527344 280.484375 197.527344 280.105469 197.386719 C 279.722656 197.246094 279.648438 197.246094 279.570312 196.828125 C 279.496094 196.40625 278.8125 196.40625 278.433594 196.476562 C 278.050781 196.546875 277.519531 196.96875 277.519531 196.96875 C 277.519531 196.96875 276.835938 197.386719 277.140625 197.738281 C 277.445312 198.085938 277.292969 198.648438 276.761719 198.578125 C 276.226562 198.507812 275.011719 199.136719 274.632812 198.507812 C 274.253906 197.878906 273.1875 197.457031 273.035156 198.296875 C 272.882812 199.136719 273.492188 199.066406 273.414062 199.90625 C 273.339844 200.746094 273.1875 200.746094 272.882812 201.027344 C 272.578125 201.308594 272.578125 201.515625 272.503906 201.867188 C 272.429688 202.21875 272.351562 202.988281 272.882812 203.265625 C 273.414062 203.546875 273.644531 204.316406 273.644531 204.738281 C 273.644531 205.15625 273.644531 205.578125 274.175781 205.578125 C 274.707031 205.578125 275.164062 205.507812 275.238281 205.015625 C 275.316406 204.527344 276.378906 204.246094 276.457031 205.226562 C 276.53125 206.207031 276.53125 206.699219 276.910156 207.117188 C 277.292969 207.539062 277.597656 208.097656 277.898438 208.308594 C 278.203125 208.515625 278.71875 210.300781 278.71875 210.300781 C 277.976562 210.460938 277.785156 211.421875 277.3125 211.613281 C 277.046875 211.71875 276.761719 211.632812 276.511719 211.808594 C 276.324219 211.949219 276.324219 212.210938 276.058594 212.332031 C 275.507812 212.578125 275.601562 211.71875 274.9375 212.035156 C 274.328125 212.316406 274.269531 213.015625 273.398438 212.71875 C 272.941406 212.558594 272.65625 210.773438 272.523438 210.355469 C 272.445312 210.109375 271.972656 209.375 271.820312 209.148438 C 271.308594 208.378906 270.28125 209.148438 269.957031 208.921875 C 269.445312 208.570312 269.671875 207.976562 268.894531 207.90625 C 267.316406 207.800781 268.4375 208.867188 267.773438 209.113281 C 266.5 209.566406 266.5 207.921875 265.550781 208.675781 C 265.1875 208.953125 266.121094 209.128906 265.890625 209.621094 C 265.703125 210.023438 264.769531 210.636719 264.828125 211.109375 C 264.902344 211.753906 265.605469 211.949219 265.816406 212.488281 C 266.386719 213.925781 265.4375 214.921875 264.011719 213.800781 C 263.214844 213.171875 263.0625 212 261.824219 212.085938 C 261.539062 212.105469 261.445312 212.402344 261.160156 212.4375 C 260.875 212.453125 260.648438 212.175781 260.34375 212.261719 C 259.886719 212.421875 260.285156 212.734375 260.191406 212.996094 C 260.191406 212.996094 259.585938 213.503906 259.488281 213.644531 C 259.148438 214.101562 259.261719 214.503906 258.765625 214.871094 C 258.347656 215.183594 258.027344 214.992188 257.570312 215.484375 C 257.09375 215.988281 257.058594 216.742188 256.449219 217.234375 C 256.144531 217.476562 255.9375 216.496094 255.554688 217.144531 C 255.5 217.234375 255.441406 217.320312 255.402344 217.40625 C 255.308594 217.601562 255.289062 217.6875 255.386719 217.898438 C 256.183594 219.4375 254.511719 220.015625 253.996094 221.101562 C 253.769531 221.554688 254.398438 221.976562 254.148438 222.324219 C 253.980469 222.585938 253.238281 223.304688 253.179688 223.460938 C 253.125 223.621094 253.046875 223.96875 252.914062 224.09375 C 252.78125 224.234375 252.324219 224.164062 252.289062 224.371094 C 252.25 224.617188 252.761719 224.808594 252.894531 224.96875 C 253.066406 225.160156 252.820312 225.421875 252.878906 225.476562 C 253.730469 226.332031 253.21875 226.070312 253.65625 226.824219 C 253.714844 226.925781 253.980469 226.734375 254.074219 227.015625 C 254.167969 227.277344 253.863281 227.261719 253.980469 227.558594 C 253.996094 227.644531 254.605469 228.433594 254.605469 228.449219 C 254.644531 228.710938 253.445312 229.253906 253.179688 229.253906 C 252.460938 229.273438 253.808594 227.765625 252.628906 227.765625 C 252.117188 227.765625 252.078125 228.941406 251.945312 229.0625 C 251.890625 229.113281 251.414062 229.0625 251.300781 229.0625 C 250.539062 229.0625 250.046875 230.007812 249.742188 230.09375 C 249.550781 230.164062 249.132812 229.988281 248.8125 230.042969 C 248.507812 230.09375 248.144531 230.390625 247.859375 230.390625 C 247.671875 230.390625 247.574219 230.269531 247.425781 230.183594 C 247.082031 229.988281 246.453125 229.902344 246.074219 229.78125 C 245.867188 229.710938 245.46875 230.042969 245.335938 229.953125 C 245.085938 229.796875 245.503906 229.359375 244.933594 229.046875 C 244.859375 229.011719 244.441406 227.996094 244.460938 227.941406 C 244.648438 227.277344 244.859375 226.558594 244.765625 225.859375 C 244.648438 225.140625 243.527344 224.53125 243.226562 223.953125 C 242.996094 223.515625 242.789062 222.359375 242.351562 222.0625 C 241.875 221.746094 241.4375 221.136719 241.191406 220.664062 C 241.117188 220.523438 241.34375 220.277344 241.171875 220.03125 C 240.984375 219.769531 240.621094 219.664062 240.527344 219.316406 C 240.449219 219.035156 240.527344 218.125 240.203125 217.933594 C 239.84375 217.722656 237.523438 217.441406 236.953125 217.390625 C 236.652344 217.371094 236.421875 217.371094 236.195312 217.144531 C 236.101562 217.058594 235.949219 216.691406 235.871094 216.691406 C 235.644531 216.671875 235.378906 216.796875 235.148438 216.8125 C 234.980469 216.828125 234.695312 216.707031 234.542969 216.8125 C 233.800781 217.320312 233.609375 217.96875 232.90625 218.511719 C 232.1875 219.050781 231.386719 219.035156 230.664062 219.664062 C 230.210938 220.066406 229.90625 221.03125 229.449219 221.484375 C 229.261719 221.675781 228.957031 221.484375 228.878906 221.574219 C 228.5 222.046875 227.96875 222.324219 227.589844 222.761719 C 227.511719 222.851562 227.53125 223.023438 227.4375 223.09375 L 226.617188 223.304688 C 226.410156 223.339844 226.011719 223.289062 225.839844 223.339844 C 225.460938 223.460938 225.480469 223.863281 224.1875 224.128906 C 224.09375 224.144531 223.921875 224.234375 223.84375 224.285156 C 223.691406 224.390625 223.578125 224.546875 223.425781 224.652344 C 223.332031 224.722656 223.046875 224.601562 222.875 224.617188 C 222.554688 224.671875 222.363281 224.949219 222.058594 224.984375 C 221.375 225.074219 220.273438 224.671875 219.742188 224.878906 C 219.417969 225.003906 218.523438 226 218.203125 226.105469 C 217.992188 226.175781 217.839844 226.085938 217.613281 226 C 217.5 226.140625 217.234375 227.226562 217.136719 227.46875 C 217.136719 227.488281 215.675781 228.710938 215.5625 228.851562 C 215.371094 229.0625 215.296875 229.289062 215.066406 229.515625 C 214.914062 229.675781 214.667969 229.816406 214.421875 229.816406 C 214.117188 229.816406 213.660156 229.585938 213.375 229.535156 C 212.824219 229.449219 211.171875 229.378906 210.679688 229.484375 C 210.164062 229.585938 210.316406 231.058594 209.042969 231.199219 C 208.304688 231.285156 207.617188 231.425781 206.859375 231.496094 C 206.78125 231.496094 206.328125 231.179688 205.871094 231.300781 C 205.699219 231.355469 205.148438 231.914062 205.148438 232.089844 L 205.148438 232.40625 C 205.148438 232.457031 205.300781 232.648438 205.28125 232.667969 C 204.996094 233 204.351562 233.523438 204.140625 233.910156 C 204.085938 234.015625 204.007812 234.136719 203.914062 234.207031 C 203.742188 234.328125 202.867188 234.664062 202.792969 234.820312 C 202.585938 235.34375 203.402344 235.835938 203.324219 236.046875 C 203.097656 236.726562 202.183594 237.375 201.898438 238.003906 C 201.785156 238.265625 202.203125 239.140625 202.183594 239.441406 C 202.089844 240.261719 201.804688 241.3125 201.84375 242.117188 C 201.84375 242.273438 201.957031 243.097656 202.015625 243.183594 C 202.109375 243.34375 202.316406 243.429688 202.449219 243.570312 C 202.585938 243.710938 203.589844 245.671875 203.628906 245.878906 C 203.820312 247.332031 201.710938 246.824219 202.925781 248.277344 C 203.117188 248.503906 203.269531 248.75 203.476562 248.941406 C 203.742188 249.203125 205.300781 250.34375 205.320312 250.464844 C 205.359375 250.675781 204.066406 250.886719 203.839844 251.113281 C 203.230469 251.707031 202.71875 252.808594 202.128906 253.421875 C 201.765625 253.808594 201.445312 253.386719 200.96875 254.28125 C 200.796875 254.613281 200.96875 255.363281 200.761719 255.574219 C 200.457031 255.890625 200.210938 255.46875 199.90625 255.609375 C 199.773438 255.664062 199.695312 256.046875 199.5625 256.152344 C 199.222656 256.449219 196.179688 258.058594 195.894531 257.921875 C 195.742188 257.851562 195.574219 257.34375 195.554688 257.183594 C 195.515625 257.011719 195.324219 256.625 195.175781 256.503906 C 194.394531 255.835938 193.199219 255.714844 192.4375 256.519531 C 192.246094 256.730469 192.230469 257.046875 191.980469 257.253906 C 191.5625 257.605469 191.089844 257.921875 190.691406 258.269531 C 190.613281 258.339844 190.386719 258.601562 190.289062 258.585938 C 189.988281 258.550781 189.246094 257.710938 189.054688 257.484375 C 188.714844 257.078125 187.726562 256.117188 187.632812 255.664062 C 187.632812 254.105469 186.414062 252.476562 185.902344 250.953125 L 186.660156 250.972656 C 187.515625 250.394531 187.269531 248.976562 188.808594 249.539062 C 189 249.273438 188.980469 248.996094 189.339844 248.800781 C 189.472656 248.734375 189.722656 248.664062 189.796875 248.539062 C 190.308594 247.753906 190.917969 244.742188 190.386719 243.972656 C 189.910156 243.273438 189.417969 243.308594 189.035156 242.152344 C 188.921875 241.835938 189.132812 241.46875 189.035156 241.121094 C 188.960938 240.839844 188.449219 239.175781 188.371094 239.054688 C 188.277344 238.914062 187.953125 238.738281 187.933594 238.652344 C 187.914062 238.511719 187.800781 236.710938 187.859375 236.570312 C 187.347656 235.171875 185.617188 234.277344 185.523438 234.121094 C 185.3125 233.789062 185.105469 233.351562 184.875 232.984375 C 184.609375 232.546875 184.609375 232.316406 184.457031 231.898438 C 184.402344 231.703125 184.117188 231.546875 184.097656 231.335938 C 184.058594 230.96875 185.105469 230.199219 185.066406 229.550781 C 185.046875 229.34375 184.402344 228.710938 184.535156 228.363281 C 184.667969 227.996094 185.332031 227.171875 185.3125 226.769531 C 185.273438 226.226562 184.269531 225.054688 184.136719 224.476562 C 184.078125 224.199219 184.535156 223.96875 184.421875 223.777344 C 184.285156 223.53125 183.222656 222.570312 183.050781 222.289062 C 182.917969 222.078125 183.449219 221.800781 183.070312 221.414062 C 182.730469 221.066406 183.015625 221.1875 182.917969 220.890625 C 182.804688 220.558594 182.425781 220.261719 182.273438 219.910156 C 182.140625 219.613281 181.226562 216.324219 181.246094 216.128906 C 181.09375 215.902344 180.828125 215.710938 180.695312 215.484375 C 180.5625 215.253906 180.507812 214.816406 180.390625 214.640625 C 180.371094 214.625 179.367188 214.328125 179.175781 214.03125 C 179.023438 213.785156 178.984375 212.980469 178.71875 212.578125 C 178.585938 212.386719 178.378906 212.421875 178.226562 212.28125 C 178.09375 212.175781 178.113281 211.984375 178.015625 211.859375 C 177.714844 211.441406 177.105469 211.824219 176.6875 210.285156 C 176.136719 209.898438 175.621094 209.566406 175.148438 209.09375 C 175.054688 209.007812 174.996094 208.902344 174.882812 208.851562 C 174.503906 208.691406 173.933594 208.640625 173.609375 208.359375 C 173.417969 208.359375 172.410156 208.324219 172.296875 208.253906 C 172.183594 208.183594 172.070312 207.746094 171.992188 207.730469 C 171.460938 207.625 170.589844 207.675781 170.132812 207.292969 C 169.769531 206.976562 169.695312 205.453125 169.050781 205.664062 C 168.972656 205.628906 168.878906 205.59375 168.78125 205.613281 C 168.363281 205.070312 166.921875 205 166.332031 204.648438 C 166.160156 204.546875 165.609375 204.632812 165.609375 204.476562 C 165.742188 204.175781 165.703125 203.933594 165.722656 203.636719 C 165.402344 203.320312 165.191406 202.953125 164.964844 202.726562 C 164.414062 202.601562 164.621094 202.550781 164.28125 202.339844 C 163.328125 202.269531 163.234375 202.425781 162.628906 202.988281 C 162.476562 203.128906 162.171875 203.164062 161.980469 203.265625 C 161.65625 203.441406 161.5625 204.019531 161.105469 203.757812 C 160.953125 203.671875 160.859375 203.53125 160.746094 203.425781 C 160.480469 203.199219 160.328125 203.320312 160.195312 202.898438 C 159.414062 202.480469 157.269531 203.933594 156.757812 202.917969 C 156.394531 202.726562 156.128906 202.96875 155.824219 202.65625 C 155.671875 202.496094 156.242188 200.746094 154.683594 200.03125 C 155.046875 199.75 155.425781 199.558594 155.769531 199.296875 C 155.863281 199.101562 155.75 198.804688 155.75 198.613281 C 155.75 198.316406 155.9375 197.738281 155.882812 197.527344 C 155.824219 197.316406 155.597656 197.140625 155.519531 196.898438 C 155.425781 196.652344 155.539062 196.335938 155.40625 196.074219 C 155.3125 196.003906 155.027344 195.828125 154.914062 195.828125 C 154.515625 195.496094 154.078125 195.289062 153.753906 194.886719 C 153.679688 194.796875 153.621094 194.640625 153.527344 194.570312 C 153.242188 194.359375 152.308594 194.078125 152.347656 193.640625 C 152.367188 193.503906 152.558594 193.484375 152.613281 193.34375 C 152.671875 193.171875 152.632812 192.941406 152.765625 192.785156 C 153.203125 192.191406 154.171875 192.453125 154.019531 191.351562 C 153.945312 190.859375 153.601562 190.441406 153.507812 189.914062 C 153.335938 189.792969 153.316406 189.582031 153.164062 189.460938 C 152.214844 189.371094 152.347656 188.390625 152.007812 188.164062 C 151 187.484375 150.21875 187.902344 151.339844 186.554688 C 151.492188 186.117188 150.371094 185.417969 150.144531 185.171875 C 149.746094 184.789062 149.933594 183.984375 149.78125 183.5625 C 149.707031 183.351562 149.042969 182.984375 148.832031 182.6875 C 148.777344 182.601562 148.605469 182.144531 148.511719 182.09375 L 148.527344 181.953125 C 148.738281 181.796875 148.625 181.480469 148.566406 181.269531 C 148.433594 181.148438 148.148438 181.183594 148.054688 181.09375 C 147.140625 180.273438 146.039062 179.90625 144.84375 179.433594 C 144.519531 179.308594 144.613281 179.046875 144.347656 178.925781 C 144.121094 178.820312 142.507812 178.101562 142.390625 178.136719 C 142.203125 178.085938 142.070312 177.367188 141.9375 177.140625 C 141.820312 176.929688 141.367188 176.546875 141.367188 176.527344 C 141.402344 175.863281 140.984375 175.773438 140.472656 175.425781 C 140.511719 175.335938 140.414062 175.128906 140.414062 175.023438 C 140.414062 174.933594 140.757812 173.78125 140.816406 173.621094 C 140.910156 173.378906 141.234375 173.148438 141.175781 172.871094 C 141.101562 172.433594 141.042969 171.75 140.890625 171.363281 C 140.378906 170 139.769531 170.175781 140.09375 168.390625 C 140.167969 168.023438 140.035156 167.8125 140.320312 167.480469 C 140.28125 167.460938 140.453125 167.289062 140.472656 167.253906 C 140.644531 167.09375 141.117188 166.832031 141.214844 166.710938 C 141.5 166.324219 141.671875 165.449219 142.03125 165.171875 C 142.296875 164.960938 143.058594 164.558594 143.191406 164.382812 C 143.304688 164.242188 143.476562 163.804688 143.378906 163.628906 C 143.113281 163.472656 142.847656 163.542969 142.582031 163.507812 C 142.488281 163.488281 142.144531 163.246094 141.878906 163.191406 C 141.804688 163.105469 141.671875 163 141.671875 162.878906 L 141.554688 162.773438 C 141.253906 162.738281 140.910156 162.546875 140.644531 162.457031 C 140.300781 162.316406 139.828125 162.300781 139.503906 162.109375 C 138.894531 161.757812 138.210938 160.796875 137.621094 160.65625 C 136.824219 160.480469 136.3125 160.726562 135.550781 160.761719 C 135.058594 160.796875 135.058594 160.496094 134.660156 160.375 C 134.128906 160.21875 134.527344 160.65625 133.308594 160.269531 C 133.15625 160.148438 133.386719 159.726562 133.40625 159.570312 C 133.214844 159.515625 132.988281 159.621094 132.757812 159.570312 C 131.753906 159.324219 132.132812 158.414062 131.867188 157.820312 C 131.753906 157.679688 131.335938 157.714844 131.144531 157.699219 C 131.085938 157.679688 131.066406 157.59375 131.085938 157.558594 L 131.183594 157.488281 C 131.351562 157.226562 130.746094 156.558594 130.765625 156.472656 C 130.800781 156.261719 132.035156 156.070312 132.207031 156.050781 C 132.265625 155.894531 132.09375 155.753906 132.074219 155.597656 C 132.035156 155.246094 132.265625 154.792969 132.378906 154.476562 L 132.339844 154.371094 C 132 154.179688 131.886719 153.898438 131.582031 153.671875 C 131.601562 153.515625 131.808594 153.410156 131.847656 153.253906 C 132.4375 151.625 133.347656 152.921875 134.144531 151.414062 C 134.222656 151.273438 134.449219 150.90625 134.527344 150.664062 L 134.679688 150.628906 C 134.828125 150.664062 135.039062 150.785156 135.191406 150.734375 C 135.304688 150.574219 135.550781 150.523438 135.742188 150.46875 L 136.027344 150.539062 C 137.507812 150.226562 137.167969 149.683594 138.023438 149.070312 C 138.25 148.914062 138.914062 148.84375 139.21875 148.738281 C 139.542969 148.878906 139.996094 149.386719 140.605469 149.613281 C 141.042969 149.789062 142.542969 150.101562 142.789062 150.242188 C 143.113281 150.417969 143.171875 150.835938 143.457031 150.996094 C 144.3125 151.449219 143.816406 150.679688 144.632812 150.835938 C 145.46875 151.011719 146.152344 151.695312 146.933594 152.027344 C 147.066406 152.078125 147.390625 152.011719 147.539062 151.976562 C 147.789062 151.921875 149.117188 151.675781 149.25 151.730469 C 149.402344 151.78125 149.632812 151.921875 149.78125 151.957031 C 149.972656 151.992188 150.125 151.589844 150.257812 151.609375 C 150.828125 151.695312 150.847656 151.921875 151.605469 151.851562 C 151.644531 151.851562 152.007812 149.71875 152.367188 149.613281 C 152.574219 149.558594 153.144531 150.121094 153.316406 150.15625 C 153.601562 150.226562 153.296875 149.71875 153.277344 149.683594 C 153.203125 149.507812 152.804688 148.195312 152.824219 148.074219 C 152.84375 148.003906 153.203125 148.175781 153.375 148.125 C 153.792969 147.984375 154.363281 147.878906 154.664062 147.546875 C 154.703125 147.511719 155.351562 146.585938 155.367188 146.550781 C 155.40625 146.390625 155.199219 146.023438 155.292969 145.902344 C 155.386719 145.796875 155.75 145.65625 155.921875 145.484375 C 156.167969 145.238281 156.203125 144.816406 156.546875 144.640625 C 157.894531 144.519531 158.371094 143.46875 159.585938 143.328125 C 159.664062 143.328125 159.929688 143.277344 159.984375 143.296875 L 160.234375 143.699219 C 160.308594 143.800781 161.125 144.292969 161.257812 144.257812 C 161.371094 144.238281 161.429688 144.046875 161.542969 144.011719 C 161.789062 144.046875 162.476562 143.628906 162.550781 143.417969 C 162.570312 143.382812 162.398438 143.171875 162.476562 143.03125 C 162.53125 142.925781 163.386719 142.296875 163.519531 142.226562 C 163.824219 142.226562 164.148438 142.15625 164.433594 142.261719 C 164.601562 142.332031 164.621094 142.59375 164.8125 142.628906 C 165.019531 142.648438 165.402344 142.558594 165.554688 142.59375 C 165.722656 142.628906 165.800781 142.28125 166.007812 142.261719 Z M 166.046875 142.296875 "/>
<path style=" stroke:none;fill-rule:nonzero;fill:rgb(100%,100%,100%);fill-opacity:1;" d="M 230.917969 42.914062 L 241.496094 75.476562 L 213.796875 55.351562 L 248.035156 55.351562 L 220.335938 75.476562 Z M 230.917969 42.914062 "/>
<path style=" stroke:none;fill-rule:nonzero;fill:rgb(100%,100%,100%);fill-opacity:1;" d="M 272.117188 50.179688 L 282.695312 82.742188 L 254.996094 62.617188 L 289.234375 62.617188 L 261.535156 82.742188 Z M 272.117188 50.179688 "/>
<path style=" stroke:none;fill-rule:nonzero;fill:rgb(100%,100%,100%);fill-opacity:1;" d="M 311.429688 64.484375 L 322.007812 97.046875 L 294.308594 76.921875 L 328.546875 76.921875 L 300.847656 97.046875 Z M 311.429688 64.484375 "/>
<path style=" stroke:none;fill-rule:nonzero;fill:rgb(100%,100%,100%);fill-opacity:1;" d="M 189.082031 42.914062 L 178.503906 75.476562 L 206.203125 55.351562 L 171.964844 55.351562 L 199.664062 75.476562 Z M 189.082031 42.914062 "/>
<path style=" stroke:none;fill-rule:nonzero;fill:rgb(100%,100%,100%);fill-opacity:1;" d="M 147.882812 50.179688 L 137.304688 82.742188 L 165.003906 62.617188 L 130.765625 62.617188 L 158.464844 82.742188 Z M 147.882812 50.179688 "/>
<path style=" stroke:none;fill-rule:nonzero;fill:rgb(100%,100%,100%);fill-opacity:1;" d="M 108.570312 64.484375 L 97.992188 97.046875 L 125.691406 76.921875 L 91.453125 76.921875 L 119.152344 97.046875 Z M 108.570312 64.484375 "/>
</g>
</svg>
