<?xml version="1.0" encoding="UTF-8"?>
<svg xmlns="http://www.w3.org/2000/svg" xmlns:xlink="http://www.w3.org/1999/xlink" width="px" height="px" viewBox="0 0 1050 700" version="1.1">
<g id="surface1">
<rect x="0" y="0" width="1050" height="700" style="fill:rgb(9.803922%,54.117647%,0%);fill-opacity:1;stroke:none;"/>
<path style=" stroke:none;fill-rule:nonzero;fill:rgb(87.058824%,12.54902%,6.27451%);fill-opacity:1;" d="M 675 250 L 925 250 L 925 700 L 675 700 Z M 675 250 "/>
<path style=" stroke:none;fill-rule:nonzero;fill:rgb(93.72549%,49.019608%,0%);fill-opacity:1;" d="M 800 250 L 1050 250 L 1050 700 L 800 700 Z M 800 250 "/>
<path style=" stroke:none;fill-rule:nonzero;fill:rgb(0%,0%,0%);fill-opacity:1;" d="M 800 250 L 925 250 L 925 700 L 800 700 Z M 800 250 "/>
<path style="fill-rule:nonzero;fill:rgb(93.72549%,49.019608%,0%);fill-opacity:1;stroke-width:2.25;stroke-linecap:round;stroke-linejoin:round;stroke:rgb(0%,0%,0%);stroke-opacity:1;stroke-miterlimit:4;" d="M 1916.421875 168.335938 C 1916.421875 168.335938 2002.429688 134.625 2010.757812 127.679688 C 2014.546875 131.851562 1976.28125 174.242188 1902.03125 189.875 C 1969.460938 175.28125 2027.054688 129.414062 2038.796875 130.804688 C 2042.203125 131.5 2041.445312 175.632812 1886.875 213.859375 C 1993.710938 188.140625 2055.84375 140.882812 2055.085938 146.09375 C 2055.84375 147.140625 2044.476562 183.273438 1950.898438 211.421875 C 1977.039062 205.859375 2047.890625 166.25 2047.132812 173.890625 C 2049.40625 177.023438 1978.554688 260.421875 1850.507812 233.3125 C 1952.796875 257.640625 2019.09375 198.914062 2028.5625 199.953125 C 2030.460938 200.304688 2009.625 251.382812 1880.8125 254.507812 C 1942.570312 248.601562 1924.757812 254.164062 1924.757812 254.164062 C 1924.757812 254.164062 1888.390625 280.226562 1844.445312 262.507812 C 1878.921875 271.195312 1882.703125 271.539062 1883.460938 274.320312 C 1881.1875 277.789062 1852.773438 283.007812 1825.5 269.453125 C 1847.46875 277.789062 1867.171875 279.179688 1867.554688 282.3125 C 1867.171875 283.351562 1853.15625 290.648438 1840.65625 285.4375 C 1828.148438 280.226562 1712.976562 215.242188 1712.976562 215.242188 L 1909.226562 165.898438 Z M 1685.710938 344.101562 C 1668.453125 344.101562 1667.976562 358.1875 1667.976562 358.1875 C 1667.976562 358.1875 1666.554688 359.203125 1667.507812 366.03125 C 1670.351562 361.382812 1671.78125 359.9375 1671.78125 359.9375 C 1673.679688 360.226562 1681.59375 362.398438 1694.101562 353.398438 C 1682.703125 364.289062 1689.515625 368.359375 1689.515625 368.359375 C 1689.515625 368.359375 1686.820312 376.921875 1695.53125 378.664062 C 1692.835938 375.179688 1694.421875 372.132812 1694.421875 372.132812 C 1694.421875 372.132812 1706.609375 370.96875 1705.820312 357.320312 C 1706.296875 369.664062 1713.578125 372.710938 1713.578125 372.710938 C 1713.578125 372.710938 1713.578125 379.539062 1721.492188 380.117188 C 1717.21875 376.632812 1718.171875 371.257812 1718.171875 371.257812 C 1718.171875 371.257812 1728.460938 364.4375 1719.75 352.820312 C 1724.976562 350.054688 1729.25 342.359375 1729.25 342.359375 C 1729.25 342.359375 1722.132812 339.601562 1718.804688 337.28125 C 1717.21875 334.226562 1718.648438 317.53125 1718.648438 317.53125 L 1714.367188 295.890625 L 1702.179688 329.585938 C 1702.648438 324.789062 1702.96875 344.101562 1685.710938 344.101562 Z M 1685.710938 344.101562 " transform="matrix(0.5,0,0,0.5,0,0)"/>
<path style="fill-rule:nonzero;fill:rgb(93.72549%,49.019608%,0%);fill-opacity:1;stroke-width:2.25;stroke-linecap:round;stroke-linejoin:round;stroke:rgb(0%,0%,0%);stroke-opacity:1;stroke-miterlimit:4;" d="M 1770.945312 295.515625 C 1771.320312 295.859375 1783.828125 308.71875 1795.945312 308.023438 C 1800.492188 304.546875 1786.476562 296.90625 1786.476562 295.164062 C 1791.398438 299.335938 1812.234375 315.671875 1825.5 309.757812 C 1830.804688 302.8125 1816.023438 303.851562 1799.734375 285.09375 C 1811.101562 292.039062 1839.515625 307.328125 1852.773438 301.421875 C 1858.460938 295.859375 1823.226562 278.484375 1811.476562 264.9375 L 1781.171875 250.6875 L 1739.875 281.617188 Z M 1724.34375 189.882812 C 1724.34375 189.882812 1738.359375 182.234375 1794.429688 186.054688 C 1800.492188 186.75 1832.695312 175.976562 1842.929688 172.851562 C 1859.21875 170.070312 1911.117188 159.648438 1925.140625 149.914062 C 1934.992188 148.875 1922.484375 166.59375 1909.984375 170.765625 C 1896.726562 176.328125 1848.609375 191.617188 1831.5625 189.53125 C 1852.015625 189.882812 1840.65625 205.171875 1806.554688 197.867188 C 1822.84375 206.210938 1816.78125 207.601562 1816.78125 207.601562 C 1816.78125 207.601562 1787.992188 208.992188 1780.414062 203.085938 C 1799.734375 209.6875 1791.78125 212.117188 1791.78125 212.117188 C 1791.78125 212.117188 1772.078125 213.851562 1762.984375 210.03125 C 1777.007812 213.851562 1769.804688 216.289062 1769.804688 216.289062 C 1769.804688 216.289062 1758.445312 218.023438 1748.96875 214.898438 C 1739.5 211.773438 1725.101562 189.875 1724.34375 189.875 Z M 1746.828125 302.71875 L 1748.890625 336.695312 C 1748.890625 336.695312 1747.773438 338.4375 1746.828125 339.460938 C 1745.875 340.476562 1720.546875 335.828125 1724.023438 353.546875 C 1724.023438 360.804688 1724.1875 362.695312 1729.570312 366.757812 C 1728.140625 361.96875 1728.617188 358.625 1728.617188 358.625 C 1728.617188 358.625 1735.742188 362.546875 1742.710938 351.804688 C 1737.960938 362.398438 1741.28125 366.179688 1742.390625 366.46875 C 1743.5 368.359375 1740.492188 376.921875 1749.992188 376.78125 C 1746.351562 373.585938 1748.09375 368.9375 1748.09375 368.9375 C 1748.09375 368.9375 1758.070312 367.484375 1754.585938 350.929688 C 1758.226562 347.59375 1759.648438 350.78125 1759.648438 350.78125 C 1759.648438 350.78125 1760.757812 360.65625 1769.46875 358.625 C 1773.429688 360.65625 1768.835938 366.03125 1768.835938 366.03125 C 1768.835938 366.03125 1775.171875 366.179688 1777.070312 361.242188 C 1778.96875 356.304688 1781.1875 347.445312 1770.734375 343.8125 C 1769.46875 340.328125 1774.851562 340.039062 1774.851562 340.039062 C 1774.851562 340.039062 1781.5 342.070312 1783.398438 345.117188 C 1785.304688 348.171875 1784.671875 337.132812 1776.4375 335.96875 C 1766.304688 335.679688 1765.671875 333.796875 1765.671875 333.359375 C 1765.671875 332.921875 1763.929688 308.671875 1763.132812 301.703125 Z M 1746.828125 302.71875 " transform="matrix(0.5,0,0,0.5,0,0)"/>
<path style="fill-rule:nonzero;fill:rgb(93.72549%,49.019608%,0%);fill-opacity:1;stroke-width:2.25;stroke-linecap:round;stroke-linejoin:round;stroke:rgb(0%,0%,0%);stroke-opacity:1;stroke-miterlimit:4;" d="M 1782.070312 331.671875 C 1782.195312 330.117188 1764.78125 308.617188 1769.203125 305.835938 C 1773.617188 306.671875 1780.859375 316.453125 1786.71875 313.273438 C 1784.945312 309.460938 1779.703125 311.609375 1773.75 301.851562 C 1767.804688 290.820312 1766.9375 274.257812 1746.101562 256.195312 C 1759.585938 275.3125 1790.1875 286.515625 1791.484375 280.945312 C 1792.78125 275.367188 1764.539062 254.289062 1765.984375 249.210938 C 1771.601562 259.640625 1799.960938 282.890625 1820.851562 280.960938 C 1822.289062 276.484375 1803.742188 267.453125 1798.976562 259.023438 C 1785.625 250.796875 1749.90625 222.554688 1749.195312 216.007812 C 1736.195312 198.625 1728.078125 193.359375 1724.304688 191.359375 C 1722.84375 189.78125 1722.476562 188.273438 1722.1875 187.3125 C 1714.125 169.867188 1724.8125 164.203125 1731.0625 163.367188 C 1736.210938 162.84375 1737.703125 163.546875 1741.414062 161.90625 C 1737.023438 160.328125 1732.640625 158.859375 1728.257812 157.28125 C 1733.976562 161.132812 1748.578125 157.742188 1745.414062 168.828125 C 1751.820312 166.59375 1765.445312 151.71875 1729.96875 148.367188 C 1718.429688 136.21875 1670.960938 129.234375 1659.078125 182.25 C 1660.03125 182.992188 1660.523438 183.609375 1663.546875 185.671875 C 1648.554688 179.015625 1608.125 173.875 1593.554688 171.710938 C 1554.1875 161.296875 1513.3125 136.195312 1509.382812 139.28125 C 1504.125 141.421875 1533.164062 166.203125 1531.65625 166.75 C 1506.476562 153.28125 1483.46875 143.742188 1462.070312 135.0625 C 1447.007812 129.898438 1431.929688 117.882812 1430.265625 120.164062 C 1424.726562 130.695312 1454.40625 157.164062 1459.929688 160.273438 C 1465.453125 163.257812 1508.875 181.726562 1508.234375 181.960938 C 1442.828125 154.734375 1431.867188 149.796875 1428.578125 146.65625 C 1422.820312 145.46875 1408.773438 128.070312 1404.859375 129.195312 C 1402.71875 131.125 1407.015625 158.601562 1438.226562 170.9375 C 1443.3125 174.335938 1505.125 194.671875 1504.523438 196.265625 C 1504.367188 196.671875 1433.726562 169.523438 1430.976562 168.554688 C 1417.359375 163.65625 1400.648438 146.484375 1397.523438 148.414062 C 1394.539062 150.171875 1405.226562 168.757812 1418.984375 174.585938 C 1426.203125 177.5 1453.875 190.078125 1478.804688 198.078125 C 1480.398438 198.601562 1433.992188 181.9375 1411.679688 173.382812 C 1401.5625 168.234375 1396.804688 161.8125 1395.257812 163.195312 C 1392.984375 164.578125 1398.945312 192.03125 1470.640625 207.523438 C 1472.53125 208.265625 1495.875 202.453125 1494.726562 203.226562 C 1494.4375 203.414062 1471.539062 207.984375 1469.3125 207.828125 C 1467.328125 207.554688 1454.78125 209.195312 1454.554688 209.789062 C 1453.796875 211.648438 1459.101562 221.476562 1496.117188 219.429688 C 1500.851562 219.164062 1526.53125 210.851562 1524.375 212.640625 C 1523.296875 213.53125 1489.40625 223.632812 1486.820312 223.835938 C 1484.578125 224.125 1472.671875 225.265625 1472.234375 226.429688 C 1471.695312 228.015625 1481.046875 235.007812 1500.929688 236.132812 C 1518.53125 236.984375 1551.976562 226.265625 1551.304688 226.960938 C 1550.632812 227.65625 1519.0625 237.578125 1518.234375 238.1875 C 1517.09375 238.773438 1505.53125 239.351562 1505.125 240.164062 C 1504.179688 242.195312 1521.804688 257.304688 1573.914062 241.179688 C 1568.679688 247.664062 1543.421875 252.09375 1543.453125 253.265625 C 1543.335938 254.109375 1549.015625 259.148438 1557.851562 260.953125 C 1562.265625 261.851562 1568.3125 261.664062 1573.828125 260.867188 C 1583.75 259.046875 1594.203125 255.445312 1607.484375 244.1875 C 1609.070312 247.71875 1574.304688 263.859375 1575.9375 265.398438 C 1583.476562 271.804688 1608.515625 264.570312 1610.15625 263.726562 C 1611.796875 262.890625 1658.367188 238.796875 1658.210938 236.007812 C 1658.9375 239.585938 1598.164062 269.867188 1598.820312 271.109375 C 1602.71875 276.820312 1623.484375 270.8125 1624.476562 270.289062 C 1625.460938 269.765625 1650.96875 257.125 1651.664062 256.757812 C 1652.359375 256.382812 1621.695312 273.21875 1624.421875 275.78125 C 1623.101562 286.71875 1672.320312 268.234375 1676.179688 265.9375 C 1678.109375 264.78125 1652.539062 276.25 1652.46875 281.695312 C 1660.703125 294.460938 1687.070312 290.414062 1691.140625 287.601562 C 1693.171875 286.195312 1688.742188 297.09375 1690.171875 296.101562 C 1690.671875 295.898438 1695.90625 290.21875 1697.921875 286.101562 C 1697.28125 289.671875 1694.390625 295.289062 1692.703125 301.742188 C 1691.007812 308.1875 1690.53125 315.46875 1688.210938 323.195312 C 1687.679688 326.59375 1704.460938 316.5625 1702.023438 292.570312 C 1703.453125 305.046875 1696.71875 328.382812 1698.484375 329.59375 C 1702.007812 332.023438 1711.757812 317.976562 1712.742188 308.476562 C 1715.632812 313.273438 1721.710938 323.289062 1726.929688 325.59375 C 1726.367188 318.335938 1727.03125 318.664062 1724.679688 311.53125 C 1726.039062 302.0625 1726.226562 288.953125 1726.554688 274.148438 C 1740.757812 299.101562 1746.414062 309.632812 1742.453125 328.742188 C 1746.671875 330.351562 1753.414062 315.40625 1752.875 307.710938 C 1758.296875 329.09375 1781.695312 332.296875 1782.070312 331.671875 Z M 1782.070312 331.671875 " transform="matrix(0.5,0,0,0.5,0,0)"/>
<path style="fill-rule:nonzero;fill:rgb(93.72549%,49.019608%,0%);fill-opacity:1;stroke-width:2.25;stroke-linecap:round;stroke-linejoin:round;stroke:rgb(0%,0%,0%);stroke-opacity:1;stroke-miterlimit:4;" d="M 1545.578125 173.289062 C 1545.578125 173.289062 1535.914062 179.984375 1523.882812 179.59375 C 1526.890625 190.617188 1551.804688 182.148438 1551.804688 182.148438 C 1551.804688 182.148438 1539.773438 194.367188 1531.1875 196.335938 C 1536.34375 200.273438 1558.03125 198.890625 1561.679688 196.921875 C 1565.335938 194.953125 1571.773438 187.273438 1571.773438 187.273438 C 1571.773438 187.273438 1549.4375 210.90625 1546.21875 210.710938 C 1545.789062 213.46875 1569.632812 212.484375 1574.570312 208.351562 C 1579.507812 204.210938 1591.960938 198.109375 1591.960938 198.109375 C 1591.960938 198.109375 1559.320312 218.984375 1557.8125 218.984375 C 1570.054688 221.9375 1594.539062 215.4375 1610.21875 206.578125 C 1587.023438 220.757812 1584.875 223.320312 1573.0625 228.046875 C 1583.585938 230.210938 1588.953125 236.71875 1624.609375 222.53125 C 1645.007812 213.671875 1656.601562 197.515625 1656.601562 197.515625 C 1643.9375 213.078125 1623.960938 226.273438 1601.84375 239.273438 C 1600.554688 241.640625 1625.46875 251.289062 1657.25 220.953125 M 1718.242188 239.078125 C 1718.242188 239.078125 1720.390625 248.335938 1728.976562 255.429688 C 1737.570312 262.515625 1738.21875 269.414062 1738.21875 269.414062 M 1713.945312 178.804688 C 1713.945312 178.804688 1716.953125 187.078125 1725.757812 192.398438 C 1734.78125 197.710938 1748.3125 214.453125 1749.382812 217.414062 C 1750.421875 220.984375 1755.609375 246.757812 1755.179688 249.515625 " transform="matrix(0.5,0,0,0.5,0,0)"/>
<path style="fill-rule:nonzero;fill:rgb(93.72549%,49.019608%,0%);fill-opacity:1;stroke-width:2.25;stroke-linecap:round;stroke-linejoin:round;stroke:rgb(0%,0%,0%);stroke-opacity:1;stroke-miterlimit:4;" d="M 1659.1875 191.609375 C 1659.828125 194.757812 1646.515625 210.710938 1664.765625 229.429688 C 1648.226562 247.9375 1648.234375 250.304688 1648.234375 250.304688 C 1648.234375 250.304688 1657.46875 255.03125 1674 242.03125 C 1701.273438 272.765625 1692.1875 286.820312 1692.1875 286.820312 " transform="matrix(0.5,0,0,0.5,0,0)"/>
<path style="fill-rule:nonzero;fill:rgb(93.72549%,49.019608%,0%);fill-opacity:1;stroke-width:2.25;stroke-linecap:round;stroke-linejoin:round;stroke:rgb(0%,0%,0%);stroke-opacity:1;stroke-miterlimit:4;" d="M 1690.015625 265.132812 C 1690.015625 265.132812 1687.5 261.828125 1691.984375 249.507812 C 1696.015625 253.960938 1700.5 254.914062 1702.46875 256.71875 C 1704.429688 258.515625 1725.023438 261.25 1726.328125 273.875 M 1714.226562 149.429688 C 1714.226562 148.507812 1710.078125 140.34375 1694.609375 150.546875 C 1702.898438 151.007812 1711.085938 155.367188 1714.226562 149.429688 Z M 1861.867188 186.75 C 1862.625 187.101562 1908.085938 196.132812 1923.242188 191.617188 C 1903.921875 215.242188 1865.28125 199.257812 1865.28125 199.257812 C 1884.21875 204.476562 1884.976562 204.125 1891.039062 208.992188 C 1892.9375 213.507812 1856.1875 211.421875 1844.0625 205.171875 C 1877.78125 214.898438 1878.539062 214.203125 1879.679688 218.023438 C 1881.195312 223.234375 1824.359375 216.632812 1819.4375 209.6875 C 1834.59375 220.453125 1842.929688 222.539062 1851.257812 227.40625 C 1841.03125 231.578125 1822.09375 235.742188 1787.234375 213.15625 C 1833.070312 251.382812 1874.367188 248.953125 1880.8125 255.898438 C 1864.898438 277.445312 1803.148438 243.046875 1774.734375 225.671875 C 1746.320312 208.296875 1836.867188 267.71875 1845.203125 266.671875 C 1841.03125 272.578125 1811.101562 267.367188 1809.210938 264.585938 M 1873.609375 226.710938 C 1868.3125 227.40625 1852.398438 227.40625 1850.125 227.0625 M 1532.257812 166.984375 C 1532.257812 166.984375 1566.835938 183.726562 1581.4375 182.546875 C 1577.570312 185.890625 1571.773438 187.273438 1571.773438 187.273438 C 1575.429688 188.648438 1585.523438 193.578125 1600.765625 190.421875 C 1597.117188 193.773438 1592.390625 197.515625 1592.390625 197.515625 C 1592.390625 197.515625 1605.492188 202.046875 1620.3125 194.953125 C 1615.804688 200.078125 1613.226562 203.820312 1613.226562 203.820312 L 1623.53125 204.40625 " transform="matrix(0.5,0,0,0.5,0,0)"/>
</g>
</svg>
