<?xml version="1.0" encoding="UTF-8"?>
<svg xmlns="http://www.w3.org/2000/svg" xmlns:xlink="http://www.w3.org/1999/xlink" width="px" height="px" viewBox="0 0 630 315" version="1.1">
<g id="surface1">
<rect x="0" y="0" width="630" height="315" style="fill:rgb(0%,39.215686%,0%);fill-opacity:1;stroke:none;"/>
<path style=" stroke:none;fill-rule:nonzero;fill:rgb(100%,82.352941%,0%);fill-opacity:1;" d="M 0 45 L 630 45 L 630 270 L 0 270 Z M 0 45 "/>
<path style=" stroke:none;fill-rule:nonzero;fill:rgb(83.137255%,0%,0%);fill-opacity:1;" d="M 0 90 L 630 90 L 630 225 L 0 225 Z M 0 90 "/>
<path style=" stroke:none;fill-rule:nonzero;fill:rgb(0%,0%,0%);fill-opacity:1;" d="M 0 135 L 630 135 L 630 180 L 0 180 Z M 0 135 "/>
<path style="fill-rule:nonzero;fill:rgb(0%,0%,0%);fill-opacity:1;stroke-width:30;stroke-linecap:butt;stroke-linejoin:miter;stroke:rgb(0%,0%,0%);stroke-opacity:1;stroke-miterlimit:4;" d="M 0 0 L 0 630 L 420 315 Z M 0 0 " transform="matrix(0.5,0,0,0.5,0,0)"/>
<path style=" stroke:none;fill-rule:nonzero;fill:rgb(100%,100%,100%);fill-opacity:1;" d="M 0 0 L 0 315 L 210 157.5 Z M 0 0 "/>
<path style=" stroke:none;fill-rule:nonzero;fill:rgb(83.137255%,0%,0%);fill-opacity:1;" d="M 79.890625 78.3125 L 121.484375 206.324219 L 12.589844 127.207031 L 147.191406 127.207031 L 38.296875 206.324219 Z M 79.890625 78.3125 "/>
<path style=" stroke:none;fill-rule:nonzero;fill:rgb(100%,80%,0%);fill-opacity:1;" d="M 62.078125 190.246094 L 69.425781 188.90625 L 83.058594 188.371094 L 88.070312 188.839844 L 99.296875 190.710938 L 100.164062 189.574219 L 100.164062 181.492188 L 101.433594 174.539062 L 103.773438 167.457031 L 106.179688 161.84375 L 109.320312 156.03125 L 114.464844 157.300781 L 115.800781 157.300781 L 115.933594 156.300781 L 105.175781 147.078125 L 93.882812 138.457031 L 77.648438 126.296875 L 76.175781 125.894531 L 74.371094 113.199219 L 73.101562 109.324219 L 71.433594 107.851562 L 68.15625 106.785156 L 64.550781 106.917969 L 62.945312 107.851562 L 59.472656 108.65625 L 57.667969 108.921875 L 56.464844 110.324219 L 56.332031 112.128906 L 61.34375 112.261719 L 62.613281 112.796875 L 62.476562 113.332031 L 59.605469 113.734375 L 58.269531 114.132812 L 59.871094 115.335938 L 61.476562 115.9375 L 63.613281 116.742188 L 64.015625 118.144531 L 64.214844 137.589844 L 63.078125 140.597656 L 62.679688 146.210938 L 64.347656 152.957031 L 60.140625 157.703125 L 57.800781 161.980469 L 57.398438 164.652344 L 56.128906 167.257812 L 55.929688 168.929688 L 56.796875 170.664062 L 60.003906 181.355469 L 61.675781 190.109375 Z M 62.078125 190.246094 "/>
<path style=" stroke:none;fill-rule:nonzero;fill:rgb(0%,0%,0%);fill-opacity:1;" d="M 65.96875 106.4375 C 64.679688 106.4375 64.0625 106.660156 62.789062 107.351562 C 61.640625 107.976562 60.273438 108.394531 59.34375 108.394531 C 57.453125 108.394531 55.925781 109.75 55.925781 111.445312 L 55.925781 112.570312 L 58.683594 112.484375 C 66.582031 112.75 59.371094 113.476562 58.796875 113.582031 C 56.835938 113.9375 59.230469 115.539062 61.539062 116.3125 C 64.019531 117.140625 63.914062 116.660156 63.914062 127.546875 C 63.914062 136.484375 63.835938 137.75 63.15625 139.808594 C 62.152344 142.832031 62.152344 147.328125 63.15625 150.285156 C 63.558594 151.480469 63.894531 152.597656 63.898438 152.761719 C 63.90625 152.925781 62.730469 154.386719 61.285156 156.007812 C 58.671875 158.9375 57.066406 162.082031 57.066406 164.277344 C 57.066406 164.785156 56.722656 165.636719 56.304688 166.191406 C 55.339844 167.464844 55.3125 169.660156 56.25 170.492188 C 57.222656 171.359375 61.230469 186.839844 61.242188 189.757812 C 61.246094 190.824219 61.4375 190.816406 67.527344 189.589844 C 72.445312 188.597656 84.074219 188.390625 89.957031 189.183594 C 92.675781 189.550781 95.839844 190.082031 96.988281 190.378906 C 100.613281 191.308594 100.410156 191.5 100.421875 187.128906 C 100.433594 180.371094 101.664062 173.949219 104.273438 167.078125 C 105.460938 163.949219 108.578125 157.601562 109.40625 156.628906 C 109.488281 156.53125 110.816406 156.777344 112.359375 157.175781 C 115.515625 157.992188 116.382812 157.839844 116.382812 156.472656 C 116.382812 155.691406 113.160156 153.003906 97.382812 140.652344 C 86.753906 132.332031 78.03125 125.773438 77.597656 125.773438 C 77.167969 125.773438 76.734375 125.554688 76.640625 125.28125 C 76.546875 125.011719 76.046875 121.792969 75.515625 118.125 C 74.984375 114.457031 74.269531 110.832031 73.925781 110.082031 C 72.921875 107.882812 70.84375 106.714844 67.527344 106.496094 C 38.121094 106.511719 14.269531 82.683594 14.253906 53.277344 C 14.238281 23.867188 38.0625 0.015625 67.472656 0 Z M 66.078125 107.226562 C 66.492188 107.222656 66.960938 107.238281 67.527344 107.269531 C 72.507812 107.53125 73.449219 108.90625 74.757812 117.757812 C 75.261719 121.195312 75.679688 124.375 75.683594 124.832031 C 75.691406 125.429688 74.996094 126.132812 73.25 127.308594 C 70.679688 129.035156 67.359375 132.191406 65.742188 134.421875 L 64.773438 135.746094 L 64.589844 132.636719 C 64.484375 130.929688 64.484375 126.941406 64.589844 123.777344 C 64.808594 117.238281 64.636719 116.59375 62.492188 115.875 C 60.742188 115.289062 58.457031 114.660156 59.132812 114.257812 C 59.871094 113.820312 60.550781 114.132812 62.421875 113.667969 C 63.085938 113.503906 63.050781 113.53125 62.945312 112.964844 C 62.75 111.945312 61.753906 111.476562 58.9375 111.628906 C 56.722656 111.746094 56.4375 111.691406 56.585938 111.09375 C 56.890625 109.886719 58.144531 109.097656 60.003906 108.914062 C 61.007812 108.816406 62.46875 108.371094 63.265625 107.929688 C 64.152344 107.441406 64.839844 107.242188 66.078125 107.226562 Z M 77.230469 126.632812 C 77.335938 126.632812 77.433594 126.632812 77.527344 126.648438 C 78.804688 126.847656 115.621094 155.632812 115.621094 156.429688 C 115.621094 156.746094 115.328125 157 114.960938 156.992188 C 114.59375 156.988281 105.222656 154.335938 94.148438 151.101562 C 76.449219 145.9375 73.902344 145.09375 73.140625 144.167969 C 72.054688 142.855469 72.015625 140.851562 73.039062 139.5 C 73.460938 138.949219 73.800781 138.269531 73.800781 137.980469 C 73.800781 137.105469 71.921875 139.335938 71.5625 140.640625 C 71.144531 142.160156 71.925781 144.707031 73.070312 145.53125 C 73.519531 145.859375 76.894531 147.019531 80.5625 148.105469 C 86.828125 149.964844 87.25 150.164062 87.582031 151.199219 C 88.378906 153.691406 85.75 156.578125 81.941406 157.402344 C 80.714844 157.667969 79.152344 158.390625 78.074219 159.203125 C 73.789062 162.429688 70.804688 164.339844 68.300781 165.417969 C 66.832031 166.050781 65.410156 166.765625 65.152344 167.019531 C 64.894531 167.273438 64.519531 168.425781 64.308594 169.578125 C 63.859375 172.03125 63.671875 172.40625 62.945312 172.40625 C 62.523438 172.40625 62.484375 172.1875 62.773438 171.394531 C 63.308594 169.933594 63.25 168.0625 62.664062 168.0625 C 62.351562 168.0625 62.15625 168.582031 62.15625 169.453125 C 62.15625 170.214844 61.941406 171.050781 61.664062 171.324219 C 61.246094 171.730469 61.195312 171.429688 61.367188 169.550781 C 61.484375 168.300781 61.433594 167.273438 61.257812 167.273438 C 60.914062 167.273438 60.246094 169.167969 60.003906 170.832031 C 59.863281 171.804688 59.855469 171.800781 59.539062 170.648438 C 59.296875 169.75 59.414062 169.148438 60.046875 168.003906 C 60.496094 167.191406 60.878906 166.003906 60.878906 165.359375 C 60.878906 164.390625 61.589844 163.453125 65.09375 159.90625 C 67.421875 157.546875 70.128906 154.625 71.113281 153.40625 C 72.816406 151.304688 72.90625 151.082031 72.84375 148.949219 C 72.808594 147.71875 72.664062 146.613281 72.535156 146.476562 C 72.089844 146.011719 71.496094 148.394531 71.734375 149.695312 C 71.945312 150.871094 71.726562 151.273438 69.273438 154.167969 C 67.789062 155.914062 65.273438 158.546875 63.6875 160.03125 C 60.769531 162.761719 59.722656 164.238281 59.722656 165.628906 C 59.722656 166.050781 59.394531 167.164062 58.992188 168.101562 C 58.589844 169.039062 58.363281 170 58.484375 170.226562 C 58.621094 170.480469 58.523438 170.464844 58.246094 170.199219 C 57.917969 169.882812 57.890625 169.300781 58.164062 168.046875 C 58.367188 167.101562 58.453125 166.1875 58.34375 166.007812 C 57.9375 165.320312 57.460938 166.203125 57.21875 168.074219 C 57.082031 169.148438 56.828125 169.9375 56.644531 169.820312 C 56.09375 169.464844 56.265625 167.511719 56.9375 166.515625 C 57.285156 166 57.71875 164.777344 57.894531 163.785156 C 58.394531 161.007812 59.589844 158.800781 62.242188 155.796875 C 63.578125 154.285156 64.671875 152.988281 64.671875 152.914062 C 64.671875 152.84375 64.316406 151.722656 63.886719 150.441406 C 62.890625 147.472656 62.824219 142.953125 63.730469 140.203125 C 64.6875 137.308594 66.660156 134.441406 69.777344 131.414062 C 72.796875 128.484375 75.660156 126.660156 77.230469 126.632812 Z M 88.496094 150.765625 C 88.496094 150.527344 88.785156 150.335938 89.140625 150.335938 C 89.496094 150.335938 89.785156 150.527344 89.785156 150.765625 C 89.785156 151 89.496094 151.195312 89.140625 151.195312 L 89.570312 151.195312 Z M 90.351562 151.003906 C 89.996094 151.003906 89.707031 151.195312 89.707031 151.433594 C 89.707031 151.671875 89.996094 151.863281 90.351562 151.863281 C 90.707031 151.863281 90.996094 151.671875 90.996094 151.433594 L 90.996094 151.933594 L 96.515625 151.496094 Z M 92.320312 151.367188 C 91.964844 151.367188 91.675781 151.5625 91.675781 151.800781 C 91.675781 152.035156 91.964844 152.230469 92.320312 152.230469 C 92.675781 152.230469 92.964844 152.035156 92.964844 151.800781 L 92.964844 152.300781 L 98.484375 151.863281 Z M 94.09375 151.734375 C 93.734375 151.734375 93.445312 151.925781 93.445312 152.164062 C 93.445312 152.402344 93.734375 152.59375 94.09375 152.59375 C 94.449219 152.59375 94.738281 152.402344 94.738281 152.164062 L 94.738281 152.664062 L 100.257812 152.226562 Z M 89.367188 152.171875 C 89.011719 152.171875 88.722656 152.363281 88.722656 152.601562 C 88.722656 152.839844 89.011719 153.03125 89.367188 153.03125 C 89.722656 153.03125 90.011719 152.839844 90.011719 152.601562 L 90.011719 153.101562 L 95.53125 152.664062 Z M 91.222656 152.480469 C 91.226562 152.242188 91.511719 152.050781 91.871094 152.050781 C 92.226562 152.050781 92.511719 152.242188 92.511719 152.480469 C 92.515625 152.71875 92.226562 152.910156 91.871094 152.910156 L 92.300781 152.910156 Z M 95.117188 152.632812 C 95.121094 152.398438 95.410156 152.207031 95.765625 152.207031 C 96.121094 152.207031 96.40625 152.398438 96.410156 152.636719 C 96.410156 152.871094 96.121094 153.066406 95.765625 153.066406 L 96.195312 153.066406 Z M 93.066406 152.664062 C 93.066406 152.425781 93.355469 152.234375 93.710938 152.234375 C 94.066406 152.234375 94.355469 152.425781 94.355469 152.664062 C 94.355469 152.902344 94.066406 153.09375 93.710938 153.09375 L 94.140625 153.09375 Z M 96.863281 153.097656 C 96.921875 153.015625 99.617188 153.699219 102.851562 154.632812 L 108.730469 156.320312 L 107.59375 158.34375 C 106.964844 159.453125 106.175781 160.941406 105.835938 161.648438 C 105.144531 163.082031 104.898438 163.109375 101.363281 162.296875 C 97.449219 161.398438 91.265625 160.542969 84.980469 160.03125 L 78.933594 159.539062 L 81.210938 158.679688 C 82.464844 158.207031 84.269531 157.390625 85.21875 156.867188 C 86.707031 156.046875 87.308594 155.941406 89.59375 156.109375 C 92.984375 156.359375 95.269531 155.730469 96.117188 154.320312 C 66.28125 141.28125 49.535156 109.242188 55.859375 77.304688 C 62.183594 45.363281 89.875 22.125 122.429688 21.4375 C 154.980469 20.75 183.628906 42.800781 191.292969 74.445312 C 198.960938 106.089844 183.578125 138.808594 154.320312 153.09375 Z M 90.226562 153.519531 C 89.867188 153.519531 89.578125 153.714844 89.578125 153.949219 C 89.578125 154.1875 89.867188 154.378906 90.226562 154.378906 C 90.582031 154.378906 90.871094 154.1875 90.871094 153.949219 L 90.871094 154.449219 L 96.390625 154.015625 Z M 94.457031 153.519531 C 94.101562 153.519531 93.8125 153.714844 93.8125 153.949219 C 93.8125 154.1875 94.101562 154.378906 94.457031 154.378906 C 94.8125 154.378906 95.101562 154.1875 95.101562 153.949219 L 95.101562 154.449219 L 100.621094 154.015625 Z M 88.382812 153.578125 C 88.027344 153.578125 87.738281 153.769531 87.738281 154.007812 C 87.738281 154.242188 88.027344 154.4375 88.382812 154.4375 C 88.738281 154.4375 89.027344 154.242188 89.027344 154.007812 L 89.027344 154.507812 L 94.546875 154.070312 Z M 92.390625 153.648438 C 92.390625 153.410156 92.679688 153.21875 93.035156 153.21875 C 93.390625 153.21875 93.679688 153.410156 93.679688 153.648438 C 93.679688 153.882812 93.394531 154.078125 93.039062 154.078125 L 93.46875 154.078125 Z M 87.46875 154.53125 C 87.113281 154.53125 86.824219 154.726562 86.824219 154.964844 C 86.824219 155.199219 87.113281 155.394531 87.46875 155.394531 C 87.824219 155.394531 88.113281 155.199219 88.113281 154.964844 L 88.113281 155.464844 L 93.632812 155.027344 Z M 89.3125 154.5625 C 88.953125 154.5625 88.664062 154.753906 88.664062 154.992188 C 88.664062 155.226562 88.953125 155.421875 89.3125 155.421875 C 89.667969 155.421875 89.957031 155.226562 89.957031 154.992188 L 89.957031 155.492188 L 95.476562 155.054688 Z M 91.28125 154.632812 C 91.28125 154.394531 91.570312 154.203125 91.925781 154.203125 C 92.28125 154.203125 92.570312 154.394531 92.570312 154.632812 C 92.570312 154.871094 92.28125 155.0625 91.925781 155.0625 L 92.355469 155.0625 Z M 93.359375 154.6875 C 93.003906 154.6875 92.714844 154.878906 92.714844 155.117188 C 92.714844 155.355469 93.003906 155.546875 93.359375 155.546875 C 93.71875 155.546875 94.007812 155.355469 94.007812 155.117188 L 94.007812 155.617188 L 99.527344 155.179688 Z M 78.132812 160.75 C 80.703125 160.667969 89.6875 161.316406 93.953125 161.957031 C 97.703125 162.523438 104.277344 163.742188 104.5 163.914062 C 104.554688 163.957031 103.992188 165.753906 103.234375 167.90625 C 102.476562 170.058594 101.785156 172.066406 101.699219 172.363281 C 101.585938 172.769531 101.125 172.832031 99.84375 172.632812 C 93.59375 171.65625 75.59375 171.746094 68.667969 172.785156 C 64.730469 173.378906 64.152344 173.335938 64.492188 172.503906 C 64.644531 172.125 64.976562 170.933594 65.222656 169.847656 L 65.671875 167.863281 L 69.847656 165.699219 C 72.144531 164.503906 74.703125 162.980469 75.53125 162.308594 C 76.355469 161.640625 77.21875 160.972656 77.457031 160.832031 C 77.53125 160.789062 77.761719 160.761719 78.132812 160.75 Z M 57.910156 171.421875 C 58.097656 171.421875 58.566406 171.636719 59.105469 171.984375 C 59.808594 172.4375 60.707031 172.808594 61.101562 172.816406 C 63.058594 172.839844 64.136719 175.597656 65.796875 184.867188 C -25.660156 176.78125 -97.898438 103.8125 -105.0625 12.277344 C -112.222656 -79.261719 -52.214844 -162.578125 36.875 -184.789062 C 125.964844 -207 218.0625 -161.601562 254.710938 -77.417969 C 291.355469 6.769531 261.828125 105.109375 184.867188 155.179688 C 185.019531 155.933594 184.804688 156.101562 183.121094 156.476562 C 180.996094 156.949219 180.476562 156.984375 180.476562 156.699219 C 180.476562 155.90625 178.363281 146.410156 177.441406 143.058594 C 176.8125 140.777344 176.285156 138.769531 176.285156 138.589844 C 176.285156 138.566406 176.296875 138.542969 176.316406 138.53125 C 180.914062 148.964844 176.183594 161.152344 165.75 165.75 C 155.316406 170.347656 143.128906 165.613281 138.53125 155.179688 Z M 79.367188 172.8125 L 81.519531 172.8125 L 80.804688 173.628906 C 79.53125 175.09375 78.921875 175.230469 78.03125 174.25 C 77.585938 173.753906 77.21875 173.230469 77.21875 173.082031 C 77.21875 172.933594 78.1875 172.8125 79.367188 172.8125 Z M 83.925781 172.8125 L 88.003906 172.8125 L 87.101562 173.796875 C 86 175.019531 85.929688 175.019531 84.824219 173.796875 Z M 90.085938 172.8125 L 91.027344 172.8125 C 91.539062 172.8125 92.480469 172.921875 93.121094 173.054688 L 94.289062 173.292969 L 93.207031 174.234375 C 92.613281 174.753906 92.070312 175.175781 91.996094 175.164062 C 91.921875 175.152344 91.457031 174.609375 90.96875 173.96875 Z M 96.425781 173.09375 L 97.367188 173.335938 C 97.890625 173.472656 99.007812 173.597656 99.84375 173.601562 L 101.363281 173.601562 L 100.222656 174.570312 C 99.597656 175.105469 98.992188 175.546875 98.875 175.554688 C 98.753906 175.5625 98.152344 175.015625 97.539062 174.332031 Z M 73.773438 173.222656 C 73.882812 173.226562 73.949219 173.230469 73.96875 173.25 C 74.046875 173.332031 73.726562 173.871094 73.25 174.445312 L 72.378906 175.484375 L 71.28125 174.585938 L 70.1875 173.671875 L 72.015625 173.390625 C 72.765625 173.273438 73.445312 173.210938 73.773438 173.222656 Z M 75.5 173.335938 C 75.5 173.296875 76.046875 173.773438 76.710938 174.390625 L 77.921875 175.515625 L 75.683594 175.640625 L 73.449219 175.765625 L 74.476562 174.585938 C 75.039062 173.933594 75.5 173.371094 75.5 173.335938 Z M 89.085938 173.335938 C 89.246094 173.34375 89.402344 173.4375 89.59375 173.601562 C 89.921875 173.886719 90.355469 174.453125 90.5625 174.851562 C 90.882812 175.476562 90.785156 175.5625 89.875 175.527344 C 89.289062 175.507812 88.417969 175.375 87.933594 175.234375 L 87.046875 174.980469 L 88.015625 174.039062 C 88.53125 173.539062 88.820312 173.316406 89.085938 173.335938 Z M 82.785156 173.347656 C 83.207031 173.289062 83.535156 173.605469 83.980469 174.304688 C 84.527344 175.160156 84.507812 175.175781 82.492188 175.164062 L 80.453125 175.148438 L 81.535156 174.164062 C 82.070312 173.671875 82.457031 173.394531 82.785156 173.347656 Z M 95.511719 173.488281 L 96.441406 174.402344 C 97.457031 175.394531 97.636719 176.003906 96.890625 175.894531 C 96.628906 175.855469 95.683594 175.765625 94.796875 175.683594 L 93.179688 175.527344 L 94.34375 174.515625 Z M 69.160156 173.996094 C 69.335938 173.996094 69.878906 174.425781 70.355469 174.953125 L 71.210938 175.90625 L 69.371094 176.160156 C 68.355469 176.296875 67.1875 176.480469 66.769531 176.570312 C 66.203125 176.6875 66.375 176.375 67.429688 175.359375 C 68.210938 174.609375 68.984375 173.996094 69.160156 173.996094 Z M 66.347656 174.050781 C 66.472656 174.050781 66.585938 174.0625 66.683594 174.078125 C 67.308594 174.179688 67.246094 174.339844 66.234375 175.34375 L 65.066406 176.5 L 64.730469 175.542969 C 64.449219 174.757812 64.53125 174.535156 65.179688 174.277344 C 65.503906 174.148438 65.972656 174.058594 66.347656 174.050781 Z M 100.8125 175.375 C 100.992188 175.363281 101.03125 175.507812 100.925781 175.796875 C 100.695312 176.421875 100.027344 176.574219 100.027344 176.007812 C 100.027344 175.8125 100.285156 175.566406 100.589844 175.445312 C 100.679688 175.40625 100.753906 175.378906 100.8125 175.375 Z M 84.824219 176.570312 C 90.574219 176.570312 96.433594 176.710938 97.847656 176.890625 C 100.222656 177.195312 100.40625 177.285156 100.40625 178.171875 C 100.40625 179.226562 100.085938 179.277344 96.988281 178.71875 C 96.046875 178.550781 92.273438 178.191406 88.59375 177.917969 C 82.207031 177.445312 74.289062 177.699219 67.234375 178.609375 C 65.777344 178.796875 65.433594 178.722656 65.433594 178.242188 C 65.433594 177.222656 73.058594 176.570312 84.824219 176.570312 Z M 77.089844 178.734375 L 81.15625 178.734375 L 80.253906 179.71875 C 79.152344 180.9375 79.078125 180.9375 77.976562 179.71875 Z M 82.308594 178.734375 L 83.375 179.789062 C 83.964844 180.375 84.445312 180.917969 84.445312 180.984375 C 84.445312 181.050781 83.46875 181.109375 82.28125 181.109375 L 80.113281 181.109375 L 81.210938 179.914062 Z M 83.925781 178.734375 L 88.003906 178.734375 L 87.101562 179.71875 C 86 180.9375 85.929688 180.9375 84.824219 179.71875 Z M 74.304688 178.789062 C 74.484375 178.800781 74.324219 179.101562 73.785156 179.859375 C 73.296875 180.546875 72.78125 181.109375 72.648438 181.109375 C 72.511719 181.109375 72.011719 180.65625 71.523438 180.113281 L 70.621094 179.128906 L 71.984375 179.128906 C 72.738281 179.128906 73.648438 179.003906 74.011719 178.859375 C 74.144531 178.808594 74.246094 178.785156 74.304688 178.789062 Z M 75.839844 179.128906 L 76.808594 180.015625 C 77.34375 180.503906 77.839844 180.9375 77.90625 180.96875 C 77.972656 181.003906 77.09375 181.09375 75.9375 181.167969 L 73.828125 181.308594 L 74.839844 180.210938 Z M 88.859375 179.128906 L 89.957031 180.324219 C 91.152344 181.621094 91.03125 181.675781 88.3125 181.152344 L 87.03125 180.914062 L 87.945312 180.015625 Z M 90.394531 179.128906 L 92.164062 179.128906 C 94.085938 179.128906 94.332031 179.429688 93.25 180.449219 C 92.355469 181.289062 92.351562 181.28125 91.292969 180.113281 Z M 67.429688 179.535156 C 68.292969 179.527344 68.269531 179.609375 67.148438 180.703125 C 66.289062 181.542969 66.1875 181.558594 65.953125 180.929688 C 65.671875 180.171875 66.34375 179.546875 67.429688 179.535156 Z M 96.523438 179.648438 C 96.816406 179.644531 97.417969 179.710938 98.085938 179.832031 L 99.71875 180.113281 L 98.773438 181.027344 L 97.847656 181.941406 L 97.03125 180.871094 C 96.585938 180.28125 96.273438 179.746094 96.34375 179.675781 C 96.359375 179.660156 96.425781 179.648438 96.523438 179.648438 Z M 69.554688 180 C 69.785156 179.960938 69.988281 180.148438 70.382812 180.519531 C 71.136719 181.230469 71.144531 181.292969 70.496094 181.5625 C 70.117188 181.714844 69.289062 181.855469 68.667969 181.871094 L 67.542969 181.898438 L 68.570312 180.828125 C 69.074219 180.304688 69.324219 180.039062 69.554688 180 Z M 95.117188 180.210938 C 95.382812 180.195312 95.59375 180.421875 95.960938 180.941406 L 96.652344 181.898438 L 95.078125 181.898438 C 94.050781 181.898438 93.558594 181.734375 93.65625 181.433594 C 93.738281 181.179688 94.136719 180.753906 94.542969 180.476562 C 94.78125 180.316406 94.960938 180.21875 95.117188 180.210938 Z M 99.929688 181.222656 C 100.011719 181.242188 100.027344 181.378906 100.027344 181.632812 C 100.027344 182.367188 99.414062 182.851562 99.113281 182.347656 C 98.996094 182.152344 99.152344 181.773438 99.464844 181.503906 C 99.695312 181.304688 99.84375 181.203125 99.929688 181.222656 Z M 80.480469 182.125 C 86.984375 182.117188 94.214844 182.546875 98.410156 183.332031 L 99.648438 183.570312 L 99.648438 186.878906 C 99.648438 189.292969 99.53125 190.179688 99.183594 190.140625 C 98.921875 190.109375 97.246094 189.765625 95.46875 189.367188 C 90.105469 188.160156 84.042969 187.691406 77.21875 187.972656 C 73.765625 188.113281 70.15625 188.375 69.1875 188.550781 L 67.414062 188.875 L 66.980469 186.117188 C 66.738281 184.605469 66.601562 183.316406 66.671875 183.25 C 66.738281 183.179688 68.402344 182.898438 70.382812 182.628906 C 72.929688 182.285156 76.578125 182.128906 80.480469 182.125 Z M 80.480469 182.125 "/>
<path style=" stroke:none;fill-rule:nonzero;fill:rgb(0%,0%,0%);fill-opacity:1;" d="M 93.570312 163.320312 C 91.347656 163.320312 89.761719 164.960938 89.761719 167.273438 C 89.761719 170.875 93.808594 172.617188 96.257812 170.070312 C 98.707031 167.527344 97.035156 163.320312 93.570312 163.320312 Z M 93.558594 164.25 C 95.199219 164.183594 96.609375 165.464844 96.609375 167.316406 C 96.609375 169.484375 94.101562 170.996094 92.164062 169.988281 C 90.097656 168.910156 90.25 165.445312 92.40625 164.515625 C 46.972656 144.605469 26.289062 91.632812 46.203125 46.203125 C 66.117188 0.773438 119.085938 -19.914062 164.515625 0 Z M 93.558594 164.25 "/>
<path style=" stroke:none;fill-rule:nonzero;fill:rgb(0%,0%,0%);fill-opacity:1;" d="M 83.539062 163.023438 C 81.316406 163.023438 79.726562 164.664062 79.726562 166.972656 C 79.726562 170.574219 83.777344 172.316406 86.226562 169.773438 C 88.675781 167.226562 87.003906 163.023438 83.539062 163.023438 Z M 83.527344 163.949219 C 85.167969 163.886719 86.578125 165.164062 86.578125 167.015625 C 86.578125 169.183594 84.066406 170.695312 82.132812 169.6875 C 80.0625 168.609375 80.21875 165.144531 82.371094 164.21875 C 36.941406 144.304688 16.257812 91.332031 36.167969 45.902344 C 56.082031 0.472656 109.054688 -20.214844 154.484375 -0.300781 Z M 83.527344 163.949219 "/>
<path style=" stroke:none;fill-rule:nonzero;fill:rgb(0%,0%,0%);fill-opacity:1;" d="M 66.007812 108.957031 C 66.351562 108.949219 66.683594 109.078125 66.933594 109.320312 C 67.179688 109.566406 67.324219 109.898438 67.332031 110.25 L 68.65625 110.25 Z M 66.09375 109.421875 C 66.09375 108.949219 66.484375 108.566406 66.964844 108.566406 C 67.445312 108.566406 67.832031 108.949219 67.835938 109.421875 C 67.835938 109.894531 67.445312 110.28125 66.964844 110.28125 L 67.824219 110.28125 Z M 66.09375 109.421875 "/>
</g>
</svg>
